%TF.GenerationSoftware,KiCad,Pcbnew,(6.0.7)*%
%TF.CreationDate,2022-09-26T02:54:28-06:00*%
%TF.ProjectId,HHC-MiniBadge-2022,4848432d-4d69-46e6-9942-616467652d32,v1.0*%
%TF.SameCoordinates,Original*%
%TF.FileFunction,Other,User*%
%FSLAX46Y46*%
G04 Gerber Fmt 4.6, Leading zero omitted, Abs format (unit mm)*
G04 Created by KiCad (PCBNEW (6.0.7)) date 2022-09-26 02:54:28*
%MOMM*%
%LPD*%
G01*
G04 APERTURE LIST*
%ADD10C,0.200000*%
%ADD11C,0.150000*%
G04 APERTURE END LIST*
D10*
X139585238Y-108225714D02*
X137585238Y-108892380D01*
X139585238Y-109559047D01*
X138347142Y-110225714D02*
X138347142Y-111749523D01*
X137775714Y-113844761D02*
X137680476Y-113749523D01*
X137585238Y-113463809D01*
X137585238Y-113273333D01*
X137680476Y-112987619D01*
X137870952Y-112797142D01*
X138061428Y-112701904D01*
X138442380Y-112606666D01*
X138728095Y-112606666D01*
X139109047Y-112701904D01*
X139299523Y-112797142D01*
X139490000Y-112987619D01*
X139585238Y-113273333D01*
X139585238Y-113463809D01*
X139490000Y-113749523D01*
X139394761Y-113844761D01*
X139585238Y-114701904D02*
X137966190Y-114701904D01*
X137775714Y-114797142D01*
X137680476Y-114892380D01*
X137585238Y-115082857D01*
X137585238Y-115463809D01*
X137680476Y-115654285D01*
X137775714Y-115749523D01*
X137966190Y-115844761D01*
X139585238Y-115844761D01*
X139585238Y-116511428D02*
X139585238Y-117654285D01*
X137585238Y-117082857D02*
X139585238Y-117082857D01*
D11*
X138550000Y-63200000D02*
X138550000Y-107560000D01*
D10*
X161785714Y-83914761D02*
X162452380Y-85914761D01*
X163119047Y-83914761D01*
X163785714Y-85152857D02*
X165309523Y-85152857D01*
X167404761Y-85724285D02*
X167309523Y-85819523D01*
X167023809Y-85914761D01*
X166833333Y-85914761D01*
X166547619Y-85819523D01*
X166357142Y-85629047D01*
X166261904Y-85438571D01*
X166166666Y-85057619D01*
X166166666Y-84771904D01*
X166261904Y-84390952D01*
X166357142Y-84200476D01*
X166547619Y-84010000D01*
X166833333Y-83914761D01*
X167023809Y-83914761D01*
X167309523Y-84010000D01*
X167404761Y-84105238D01*
X168261904Y-83914761D02*
X168261904Y-85533809D01*
X168357142Y-85724285D01*
X168452380Y-85819523D01*
X168642857Y-85914761D01*
X169023809Y-85914761D01*
X169214285Y-85819523D01*
X169309523Y-85724285D01*
X169404761Y-85533809D01*
X169404761Y-83914761D01*
X170071428Y-83914761D02*
X171214285Y-83914761D01*
X170642857Y-85914761D02*
X170642857Y-83914761D01*
D11*
X115100000Y-84960000D02*
X161060000Y-84960000D01*
M02*
