%TF.GenerationSoftware,KiCad,Pcbnew,9.0.1*%
%TF.CreationDate,2025-08-07T10:54:25-06:00*%
%TF.ProjectId,bhc-panel,6268632d-7061-46e6-956c-2e6b69636164,rev?*%
%TF.SameCoordinates,PX5defda0PY9a7ec80*%
%TF.FileFunction,Copper,L1,Top*%
%TF.FilePolarity,Positive*%
%FSLAX46Y46*%
G04 Gerber Fmt 4.6, Leading zero omitted, Abs format (unit mm)*
G04 Created by KiCad (PCBNEW 9.0.1) date 2025-08-07 10:54:25*
%MOMM*%
%LPD*%
G01*
G04 APERTURE LIST*
G04 Aperture macros list*
%AMRoundRect*
0 Rectangle with rounded corners*
0 $1 Rounding radius*
0 $2 $3 $4 $5 $6 $7 $8 $9 X,Y pos of 4 corners*
0 Add a 4 corners polygon primitive as box body*
4,1,4,$2,$3,$4,$5,$6,$7,$8,$9,$2,$3,0*
0 Add four circle primitives for the rounded corners*
1,1,$1+$1,$2,$3*
1,1,$1+$1,$4,$5*
1,1,$1+$1,$6,$7*
1,1,$1+$1,$8,$9*
0 Add four rect primitives between the rounded corners*
20,1,$1+$1,$2,$3,$4,$5,0*
20,1,$1+$1,$4,$5,$6,$7,0*
20,1,$1+$1,$6,$7,$8,$9,0*
20,1,$1+$1,$8,$9,$2,$3,0*%
G04 Aperture macros list end*
%TA.AperFunction,SMDPad,CuDef*%
%ADD10RoundRect,0.200000X-0.275000X0.200000X-0.275000X-0.200000X0.275000X-0.200000X0.275000X0.200000X0*%
%TD*%
%TA.AperFunction,SMDPad,CuDef*%
%ADD11RoundRect,0.243750X-0.456250X0.243750X-0.456250X-0.243750X0.456250X-0.243750X0.456250X0.243750X0*%
%TD*%
%TA.AperFunction,SMDPad,CuDef*%
%ADD12RoundRect,0.150000X-0.825000X-0.150000X0.825000X-0.150000X0.825000X0.150000X-0.825000X0.150000X0*%
%TD*%
%TA.AperFunction,ComponentPad*%
%ADD13C,1.750000*%
%TD*%
%TA.AperFunction,SMDPad,CuDef*%
%ADD14C,1.000000*%
%TD*%
%TA.AperFunction,ViaPad*%
%ADD15C,0.800000*%
%TD*%
%TA.AperFunction,Conductor*%
%ADD16C,0.250000*%
%TD*%
%TA.AperFunction,Conductor*%
%ADD17C,0.228600*%
%TD*%
G04 APERTURE END LIST*
D10*
%TO.P,R1,1*%
%TO.N,Board_20-Net-(D1-A)*%
X18445000Y16270000D03*
%TO.P,R1,2*%
%TO.N,Board_20-Net-(MB1-CLK)*%
X18445000Y14620000D03*
%TD*%
D11*
%TO.P,D1,1,K*%
%TO.N,Board_17-GND*%
X58425000Y39760000D03*
%TO.P,D1,2,A*%
%TO.N,Board_17-Net-(D1-A)*%
X58425000Y37885000D03*
%TD*%
D10*
%TO.P,R1,1*%
%TO.N,Board_6-Net-(D1-A)*%
X38445000Y76270000D03*
%TO.P,R1,2*%
%TO.N,Board_6-Net-(MB1-CLK)*%
X38445000Y74620000D03*
%TD*%
D12*
%TO.P,U1,1,A0*%
%TO.N,Board_6-Net-(JP1-B)*%
X21775000Y78525000D03*
%TO.P,U1,2,A1*%
%TO.N,Board_6-Net-(JP2-B)*%
X21775000Y77255000D03*
%TO.P,U1,3,A2*%
%TO.N,Board_6-Net-(JP3-B)*%
X21775000Y75985000D03*
%TO.P,U1,4,GND*%
%TO.N,Board_6-GND*%
X21775000Y74715000D03*
%TO.P,U1,5,SDA*%
%TO.N,Board_6-Net-(MB1-SDA)*%
X26725000Y74715000D03*
%TO.P,U1,6,SCL*%
%TO.N,Board_6-Net-(MB1-SCL)*%
X26725000Y75985000D03*
%TO.P,U1,7,WP*%
%TO.N,Board_6-unconnected-(U1-WP-Pad7)*%
X26725000Y77255000D03*
%TO.P,U1,8,VCC*%
%TO.N,Board_6-+3V3*%
X26725000Y78525000D03*
%TD*%
D10*
%TO.P,R1,1*%
%TO.N,Board_12-Net-(D1-A)*%
X58445000Y56270000D03*
%TO.P,R1,2*%
%TO.N,Board_12-Net-(MB1-CLK)*%
X58445000Y54620000D03*
%TD*%
%TO.P,R1,1*%
%TO.N,Board_15-Net-(D1-A)*%
X18445000Y36270000D03*
%TO.P,R1,2*%
%TO.N,Board_15-Net-(MB1-CLK)*%
X18445000Y34620000D03*
%TD*%
%TO.P,R1,1*%
%TO.N,Board_1-Net-(D1-A)*%
X38445000Y96270000D03*
%TO.P,R1,2*%
%TO.N,Board_1-Net-(MB1-CLK)*%
X38445000Y94620000D03*
%TD*%
%TO.P,R1,1*%
%TO.N,Board_14-Net-(D1-A)*%
X98445000Y56270000D03*
%TO.P,R1,2*%
%TO.N,Board_14-Net-(MB1-CLK)*%
X98445000Y54620000D03*
%TD*%
D13*
%TO.P,MB1,1,+VBATT*%
%TO.N,Board_5-unconnected-(MB1-+VBATT-Pad1)*%
X1110000Y85890000D03*
%TO.P,MB1,2,GND*%
%TO.N,Board_5-GND*%
X3650000Y85890000D03*
%TO.P,MB1,7,+3V3*%
%TO.N,Board_5-+3V3*%
X16350000Y85890000D03*
%TO.P,MB1,8,GND*%
%TO.N,Board_5-unconnected-(MB1-GND-Pad8)*%
X18890000Y85890000D03*
%TO.P,MB1,9,CLK*%
%TO.N,Board_5-Net-(MB1-CLK)*%
X1110000Y68110000D03*
%TO.P,MB1,13,SCL*%
%TO.N,Board_5-Net-(MB1-SCL)*%
X11270000Y68110000D03*
%TO.P,MB1,14,SDA*%
%TO.N,Board_5-Net-(MB1-SDA)*%
X13810000Y68110000D03*
%TO.P,MB1,15,3V3+*%
%TO.N,Board_5-unconnected-(MB1-3V3+-Pad15)*%
X16350000Y68110000D03*
%TO.P,MB1,16,GND*%
%TO.N,Board_5-GND*%
X18890000Y68110000D03*
%TD*%
D11*
%TO.P,D1,1,K*%
%TO.N,Board_10-GND*%
X18425000Y59760000D03*
%TO.P,D1,2,A*%
%TO.N,Board_10-Net-(D1-A)*%
X18425000Y57885000D03*
%TD*%
D10*
%TO.P,R1,1*%
%TO.N,Board_3-Net-(D1-A)*%
X78445000Y96270000D03*
%TO.P,R1,2*%
%TO.N,Board_3-Net-(MB1-CLK)*%
X78445000Y94620000D03*
%TD*%
D13*
%TO.P,MB1,1,+VBATT*%
%TO.N,Board_14-unconnected-(MB1-+VBATT-Pad1)*%
X81110000Y65890000D03*
%TO.P,MB1,2,GND*%
%TO.N,Board_14-GND*%
X83650000Y65890000D03*
%TO.P,MB1,7,+3V3*%
%TO.N,Board_14-+3V3*%
X96350000Y65890000D03*
%TO.P,MB1,8,GND*%
%TO.N,Board_14-unconnected-(MB1-GND-Pad8)*%
X98890000Y65890000D03*
%TO.P,MB1,9,CLK*%
%TO.N,Board_14-Net-(MB1-CLK)*%
X81110000Y48110000D03*
%TO.P,MB1,13,SCL*%
%TO.N,Board_14-Net-(MB1-SCL)*%
X91270000Y48110000D03*
%TO.P,MB1,14,SDA*%
%TO.N,Board_14-Net-(MB1-SDA)*%
X93810000Y48110000D03*
%TO.P,MB1,15,3V3+*%
%TO.N,Board_14-unconnected-(MB1-3V3+-Pad15)*%
X96350000Y48110000D03*
%TO.P,MB1,16,GND*%
%TO.N,Board_14-GND*%
X98890000Y48110000D03*
%TD*%
D11*
%TO.P,D1,1,K*%
%TO.N,Board_7-GND*%
X58425000Y79760000D03*
%TO.P,D1,2,A*%
%TO.N,Board_7-Net-(D1-A)*%
X58425000Y77885000D03*
%TD*%
%TO.P,D1,1,K*%
%TO.N,Board_19-GND*%
X98425000Y39760000D03*
%TO.P,D1,2,A*%
%TO.N,Board_19-Net-(D1-A)*%
X98425000Y37885000D03*
%TD*%
D10*
%TO.P,R1,1*%
%TO.N,Board_21-Net-(D1-A)*%
X38445000Y16270000D03*
%TO.P,R1,2*%
%TO.N,Board_21-Net-(MB1-CLK)*%
X38445000Y14620000D03*
%TD*%
D14*
%TO.P,KiKit_FID_T_3,*%
%TO.N,*%
X10000000Y4000000D03*
%TD*%
D12*
%TO.P,U1,1,A0*%
%TO.N,Board_23-Net-(JP1-B)*%
X61775000Y18525000D03*
%TO.P,U1,2,A1*%
%TO.N,Board_23-Net-(JP2-B)*%
X61775000Y17255000D03*
%TO.P,U1,3,A2*%
%TO.N,Board_23-Net-(JP3-B)*%
X61775000Y15985000D03*
%TO.P,U1,4,GND*%
%TO.N,Board_23-GND*%
X61775000Y14715000D03*
%TO.P,U1,5,SDA*%
%TO.N,Board_23-Net-(MB1-SDA)*%
X66725000Y14715000D03*
%TO.P,U1,6,SCL*%
%TO.N,Board_23-Net-(MB1-SCL)*%
X66725000Y15985000D03*
%TO.P,U1,7,WP*%
%TO.N,Board_23-unconnected-(U1-WP-Pad7)*%
X66725000Y17255000D03*
%TO.P,U1,8,VCC*%
%TO.N,Board_23-+3V3*%
X66725000Y18525000D03*
%TD*%
D11*
%TO.P,D1,1,K*%
%TO.N,Board_4-GND*%
X98425000Y99760000D03*
%TO.P,D1,2,A*%
%TO.N,Board_4-Net-(D1-A)*%
X98425000Y97885000D03*
%TD*%
D13*
%TO.P,MB1,1,+VBATT*%
%TO.N,Board_6-unconnected-(MB1-+VBATT-Pad1)*%
X21110000Y85890000D03*
%TO.P,MB1,2,GND*%
%TO.N,Board_6-GND*%
X23650000Y85890000D03*
%TO.P,MB1,7,+3V3*%
%TO.N,Board_6-+3V3*%
X36350000Y85890000D03*
%TO.P,MB1,8,GND*%
%TO.N,Board_6-unconnected-(MB1-GND-Pad8)*%
X38890000Y85890000D03*
%TO.P,MB1,9,CLK*%
%TO.N,Board_6-Net-(MB1-CLK)*%
X21110000Y68110000D03*
%TO.P,MB1,13,SCL*%
%TO.N,Board_6-Net-(MB1-SCL)*%
X31270000Y68110000D03*
%TO.P,MB1,14,SDA*%
%TO.N,Board_6-Net-(MB1-SDA)*%
X33810000Y68110000D03*
%TO.P,MB1,15,3V3+*%
%TO.N,Board_6-unconnected-(MB1-3V3+-Pad15)*%
X36350000Y68110000D03*
%TO.P,MB1,16,GND*%
%TO.N,Board_6-GND*%
X38890000Y68110000D03*
%TD*%
D10*
%TO.P,R1,1*%
%TO.N,Board_19-Net-(D1-A)*%
X98445000Y36270000D03*
%TO.P,R1,2*%
%TO.N,Board_19-Net-(MB1-CLK)*%
X98445000Y34620000D03*
%TD*%
D12*
%TO.P,U1,1,A0*%
%TO.N,Board_10-Net-(JP1-B)*%
X1775000Y58525000D03*
%TO.P,U1,2,A1*%
%TO.N,Board_10-Net-(JP2-B)*%
X1775000Y57255000D03*
%TO.P,U1,3,A2*%
%TO.N,Board_10-Net-(JP3-B)*%
X1775000Y55985000D03*
%TO.P,U1,4,GND*%
%TO.N,Board_10-GND*%
X1775000Y54715000D03*
%TO.P,U1,5,SDA*%
%TO.N,Board_10-Net-(MB1-SDA)*%
X6725000Y54715000D03*
%TO.P,U1,6,SCL*%
%TO.N,Board_10-Net-(MB1-SCL)*%
X6725000Y55985000D03*
%TO.P,U1,7,WP*%
%TO.N,Board_10-unconnected-(U1-WP-Pad7)*%
X6725000Y57255000D03*
%TO.P,U1,8,VCC*%
%TO.N,Board_10-+3V3*%
X6725000Y58525000D03*
%TD*%
%TO.P,U1,1,A0*%
%TO.N,Board_17-Net-(JP1-B)*%
X41775000Y38525000D03*
%TO.P,U1,2,A1*%
%TO.N,Board_17-Net-(JP2-B)*%
X41775000Y37255000D03*
%TO.P,U1,3,A2*%
%TO.N,Board_17-Net-(JP3-B)*%
X41775000Y35985000D03*
%TO.P,U1,4,GND*%
%TO.N,Board_17-GND*%
X41775000Y34715000D03*
%TO.P,U1,5,SDA*%
%TO.N,Board_17-Net-(MB1-SDA)*%
X46725000Y34715000D03*
%TO.P,U1,6,SCL*%
%TO.N,Board_17-Net-(MB1-SCL)*%
X46725000Y35985000D03*
%TO.P,U1,7,WP*%
%TO.N,Board_17-unconnected-(U1-WP-Pad7)*%
X46725000Y37255000D03*
%TO.P,U1,8,VCC*%
%TO.N,Board_17-+3V3*%
X46725000Y38525000D03*
%TD*%
D10*
%TO.P,R1,1*%
%TO.N,Board_9-Net-(D1-A)*%
X98445000Y76270000D03*
%TO.P,R1,2*%
%TO.N,Board_9-Net-(MB1-CLK)*%
X98445000Y74620000D03*
%TD*%
D12*
%TO.P,U1,1,A0*%
%TO.N,Board_19-Net-(JP1-B)*%
X81775000Y38525000D03*
%TO.P,U1,2,A1*%
%TO.N,Board_19-Net-(JP2-B)*%
X81775000Y37255000D03*
%TO.P,U1,3,A2*%
%TO.N,Board_19-Net-(JP3-B)*%
X81775000Y35985000D03*
%TO.P,U1,4,GND*%
%TO.N,Board_19-GND*%
X81775000Y34715000D03*
%TO.P,U1,5,SDA*%
%TO.N,Board_19-Net-(MB1-SDA)*%
X86725000Y34715000D03*
%TO.P,U1,6,SCL*%
%TO.N,Board_19-Net-(MB1-SCL)*%
X86725000Y35985000D03*
%TO.P,U1,7,WP*%
%TO.N,Board_19-unconnected-(U1-WP-Pad7)*%
X86725000Y37255000D03*
%TO.P,U1,8,VCC*%
%TO.N,Board_19-+3V3*%
X86725000Y38525000D03*
%TD*%
D11*
%TO.P,D1,1,K*%
%TO.N,Board_12-GND*%
X58425000Y59760000D03*
%TO.P,D1,2,A*%
%TO.N,Board_12-Net-(D1-A)*%
X58425000Y57885000D03*
%TD*%
D13*
%TO.P,MB1,1,+VBATT*%
%TO.N,Board_7-unconnected-(MB1-+VBATT-Pad1)*%
X41110000Y85890000D03*
%TO.P,MB1,2,GND*%
%TO.N,Board_7-GND*%
X43650000Y85890000D03*
%TO.P,MB1,7,+3V3*%
%TO.N,Board_7-+3V3*%
X56350000Y85890000D03*
%TO.P,MB1,8,GND*%
%TO.N,Board_7-unconnected-(MB1-GND-Pad8)*%
X58890000Y85890000D03*
%TO.P,MB1,9,CLK*%
%TO.N,Board_7-Net-(MB1-CLK)*%
X41110000Y68110000D03*
%TO.P,MB1,13,SCL*%
%TO.N,Board_7-Net-(MB1-SCL)*%
X51270000Y68110000D03*
%TO.P,MB1,14,SDA*%
%TO.N,Board_7-Net-(MB1-SDA)*%
X53810000Y68110000D03*
%TO.P,MB1,15,3V3+*%
%TO.N,Board_7-unconnected-(MB1-3V3+-Pad15)*%
X56350000Y68110000D03*
%TO.P,MB1,16,GND*%
%TO.N,Board_7-GND*%
X58890000Y68110000D03*
%TD*%
D10*
%TO.P,R1,1*%
%TO.N,Board_4-Net-(D1-A)*%
X98445000Y96270000D03*
%TO.P,R1,2*%
%TO.N,Board_4-Net-(MB1-CLK)*%
X98445000Y94620000D03*
%TD*%
D13*
%TO.P,MB1,1,+VBATT*%
%TO.N,Board_11-unconnected-(MB1-+VBATT-Pad1)*%
X21110000Y65890000D03*
%TO.P,MB1,2,GND*%
%TO.N,Board_11-GND*%
X23650000Y65890000D03*
%TO.P,MB1,7,+3V3*%
%TO.N,Board_11-+3V3*%
X36350000Y65890000D03*
%TO.P,MB1,8,GND*%
%TO.N,Board_11-unconnected-(MB1-GND-Pad8)*%
X38890000Y65890000D03*
%TO.P,MB1,9,CLK*%
%TO.N,Board_11-Net-(MB1-CLK)*%
X21110000Y48110000D03*
%TO.P,MB1,13,SCL*%
%TO.N,Board_11-Net-(MB1-SCL)*%
X31270000Y48110000D03*
%TO.P,MB1,14,SDA*%
%TO.N,Board_11-Net-(MB1-SDA)*%
X33810000Y48110000D03*
%TO.P,MB1,15,3V3+*%
%TO.N,Board_11-unconnected-(MB1-3V3+-Pad15)*%
X36350000Y48110000D03*
%TO.P,MB1,16,GND*%
%TO.N,Board_11-GND*%
X38890000Y48110000D03*
%TD*%
D12*
%TO.P,U1,1,A0*%
%TO.N,Board_22-Net-(JP1-B)*%
X41775000Y18525000D03*
%TO.P,U1,2,A1*%
%TO.N,Board_22-Net-(JP2-B)*%
X41775000Y17255000D03*
%TO.P,U1,3,A2*%
%TO.N,Board_22-Net-(JP3-B)*%
X41775000Y15985000D03*
%TO.P,U1,4,GND*%
%TO.N,Board_22-GND*%
X41775000Y14715000D03*
%TO.P,U1,5,SDA*%
%TO.N,Board_22-Net-(MB1-SDA)*%
X46725000Y14715000D03*
%TO.P,U1,6,SCL*%
%TO.N,Board_22-Net-(MB1-SCL)*%
X46725000Y15985000D03*
%TO.P,U1,7,WP*%
%TO.N,Board_22-unconnected-(U1-WP-Pad7)*%
X46725000Y17255000D03*
%TO.P,U1,8,VCC*%
%TO.N,Board_22-+3V3*%
X46725000Y18525000D03*
%TD*%
D11*
%TO.P,D1,1,K*%
%TO.N,Board_24-GND*%
X98425000Y19760000D03*
%TO.P,D1,2,A*%
%TO.N,Board_24-Net-(D1-A)*%
X98425000Y17885000D03*
%TD*%
D10*
%TO.P,R1,1*%
%TO.N,Board_22-Net-(D1-A)*%
X58445000Y16270000D03*
%TO.P,R1,2*%
%TO.N,Board_22-Net-(MB1-CLK)*%
X58445000Y14620000D03*
%TD*%
%TO.P,R1,1*%
%TO.N,Board_13-Net-(D1-A)*%
X78445000Y56270000D03*
%TO.P,R1,2*%
%TO.N,Board_13-Net-(MB1-CLK)*%
X78445000Y54620000D03*
%TD*%
D12*
%TO.P,U1,1,A0*%
%TO.N,Board_24-Net-(JP1-B)*%
X81775000Y18525000D03*
%TO.P,U1,2,A1*%
%TO.N,Board_24-Net-(JP2-B)*%
X81775000Y17255000D03*
%TO.P,U1,3,A2*%
%TO.N,Board_24-Net-(JP3-B)*%
X81775000Y15985000D03*
%TO.P,U1,4,GND*%
%TO.N,Board_24-GND*%
X81775000Y14715000D03*
%TO.P,U1,5,SDA*%
%TO.N,Board_24-Net-(MB1-SDA)*%
X86725000Y14715000D03*
%TO.P,U1,6,SCL*%
%TO.N,Board_24-Net-(MB1-SCL)*%
X86725000Y15985000D03*
%TO.P,U1,7,WP*%
%TO.N,Board_24-unconnected-(U1-WP-Pad7)*%
X86725000Y17255000D03*
%TO.P,U1,8,VCC*%
%TO.N,Board_24-+3V3*%
X86725000Y18525000D03*
%TD*%
D13*
%TO.P,MB1,1,+VBATT*%
%TO.N,Board_9-unconnected-(MB1-+VBATT-Pad1)*%
X81110000Y85890000D03*
%TO.P,MB1,2,GND*%
%TO.N,Board_9-GND*%
X83650000Y85890000D03*
%TO.P,MB1,7,+3V3*%
%TO.N,Board_9-+3V3*%
X96350000Y85890000D03*
%TO.P,MB1,8,GND*%
%TO.N,Board_9-unconnected-(MB1-GND-Pad8)*%
X98890000Y85890000D03*
%TO.P,MB1,9,CLK*%
%TO.N,Board_9-Net-(MB1-CLK)*%
X81110000Y68110000D03*
%TO.P,MB1,13,SCL*%
%TO.N,Board_9-Net-(MB1-SCL)*%
X91270000Y68110000D03*
%TO.P,MB1,14,SDA*%
%TO.N,Board_9-Net-(MB1-SDA)*%
X93810000Y68110000D03*
%TO.P,MB1,15,3V3+*%
%TO.N,Board_9-unconnected-(MB1-3V3+-Pad15)*%
X96350000Y68110000D03*
%TO.P,MB1,16,GND*%
%TO.N,Board_9-GND*%
X98890000Y68110000D03*
%TD*%
D11*
%TO.P,D1,1,K*%
%TO.N,Board_18-GND*%
X78425000Y39760000D03*
%TO.P,D1,2,A*%
%TO.N,Board_18-Net-(D1-A)*%
X78425000Y37885000D03*
%TD*%
D14*
%TO.P,KiKit_FID_T_4,*%
%TO.N,*%
X90000000Y4000000D03*
%TD*%
D12*
%TO.P,U1,1,A0*%
%TO.N,Board_21-Net-(JP1-B)*%
X21775000Y18525000D03*
%TO.P,U1,2,A1*%
%TO.N,Board_21-Net-(JP2-B)*%
X21775000Y17255000D03*
%TO.P,U1,3,A2*%
%TO.N,Board_21-Net-(JP3-B)*%
X21775000Y15985000D03*
%TO.P,U1,4,GND*%
%TO.N,Board_21-GND*%
X21775000Y14715000D03*
%TO.P,U1,5,SDA*%
%TO.N,Board_21-Net-(MB1-SDA)*%
X26725000Y14715000D03*
%TO.P,U1,6,SCL*%
%TO.N,Board_21-Net-(MB1-SCL)*%
X26725000Y15985000D03*
%TO.P,U1,7,WP*%
%TO.N,Board_21-unconnected-(U1-WP-Pad7)*%
X26725000Y17255000D03*
%TO.P,U1,8,VCC*%
%TO.N,Board_21-+3V3*%
X26725000Y18525000D03*
%TD*%
D13*
%TO.P,MB1,1,+VBATT*%
%TO.N,Board_8-unconnected-(MB1-+VBATT-Pad1)*%
X61110000Y85890000D03*
%TO.P,MB1,2,GND*%
%TO.N,Board_8-GND*%
X63650000Y85890000D03*
%TO.P,MB1,7,+3V3*%
%TO.N,Board_8-+3V3*%
X76350000Y85890000D03*
%TO.P,MB1,8,GND*%
%TO.N,Board_8-unconnected-(MB1-GND-Pad8)*%
X78890000Y85890000D03*
%TO.P,MB1,9,CLK*%
%TO.N,Board_8-Net-(MB1-CLK)*%
X61110000Y68110000D03*
%TO.P,MB1,13,SCL*%
%TO.N,Board_8-Net-(MB1-SCL)*%
X71270000Y68110000D03*
%TO.P,MB1,14,SDA*%
%TO.N,Board_8-Net-(MB1-SDA)*%
X73810000Y68110000D03*
%TO.P,MB1,15,3V3+*%
%TO.N,Board_8-unconnected-(MB1-3V3+-Pad15)*%
X76350000Y68110000D03*
%TO.P,MB1,16,GND*%
%TO.N,Board_8-GND*%
X78890000Y68110000D03*
%TD*%
D12*
%TO.P,U1,1,A0*%
%TO.N,Board_9-Net-(JP1-B)*%
X81775000Y78525000D03*
%TO.P,U1,2,A1*%
%TO.N,Board_9-Net-(JP2-B)*%
X81775000Y77255000D03*
%TO.P,U1,3,A2*%
%TO.N,Board_9-Net-(JP3-B)*%
X81775000Y75985000D03*
%TO.P,U1,4,GND*%
%TO.N,Board_9-GND*%
X81775000Y74715000D03*
%TO.P,U1,5,SDA*%
%TO.N,Board_9-Net-(MB1-SDA)*%
X86725000Y74715000D03*
%TO.P,U1,6,SCL*%
%TO.N,Board_9-Net-(MB1-SCL)*%
X86725000Y75985000D03*
%TO.P,U1,7,WP*%
%TO.N,Board_9-unconnected-(U1-WP-Pad7)*%
X86725000Y77255000D03*
%TO.P,U1,8,VCC*%
%TO.N,Board_9-+3V3*%
X86725000Y78525000D03*
%TD*%
D13*
%TO.P,MB1,1,+VBATT*%
%TO.N,Board_12-unconnected-(MB1-+VBATT-Pad1)*%
X41110000Y65890000D03*
%TO.P,MB1,2,GND*%
%TO.N,Board_12-GND*%
X43650000Y65890000D03*
%TO.P,MB1,7,+3V3*%
%TO.N,Board_12-+3V3*%
X56350000Y65890000D03*
%TO.P,MB1,8,GND*%
%TO.N,Board_12-unconnected-(MB1-GND-Pad8)*%
X58890000Y65890000D03*
%TO.P,MB1,9,CLK*%
%TO.N,Board_12-Net-(MB1-CLK)*%
X41110000Y48110000D03*
%TO.P,MB1,13,SCL*%
%TO.N,Board_12-Net-(MB1-SCL)*%
X51270000Y48110000D03*
%TO.P,MB1,14,SDA*%
%TO.N,Board_12-Net-(MB1-SDA)*%
X53810000Y48110000D03*
%TO.P,MB1,15,3V3+*%
%TO.N,Board_12-unconnected-(MB1-3V3+-Pad15)*%
X56350000Y48110000D03*
%TO.P,MB1,16,GND*%
%TO.N,Board_12-GND*%
X58890000Y48110000D03*
%TD*%
D11*
%TO.P,D1,1,K*%
%TO.N,Board_1-GND*%
X38425000Y99760000D03*
%TO.P,D1,2,A*%
%TO.N,Board_1-Net-(D1-A)*%
X38425000Y97885000D03*
%TD*%
%TO.P,D1,1,K*%
%TO.N,Board_11-GND*%
X38425000Y59760000D03*
%TO.P,D1,2,A*%
%TO.N,Board_11-Net-(D1-A)*%
X38425000Y57885000D03*
%TD*%
%TO.P,D1,1,K*%
%TO.N,Board_23-GND*%
X78425000Y19760000D03*
%TO.P,D1,2,A*%
%TO.N,Board_23-Net-(D1-A)*%
X78425000Y17885000D03*
%TD*%
D10*
%TO.P,R1,1*%
%TO.N,Board_16-Net-(D1-A)*%
X38445000Y36270000D03*
%TO.P,R1,2*%
%TO.N,Board_16-Net-(MB1-CLK)*%
X38445000Y34620000D03*
%TD*%
D11*
%TO.P,D1,1,K*%
%TO.N,Board_21-GND*%
X38425000Y19760000D03*
%TO.P,D1,2,A*%
%TO.N,Board_21-Net-(D1-A)*%
X38425000Y17885000D03*
%TD*%
D10*
%TO.P,R1,1*%
%TO.N,Board_24-Net-(D1-A)*%
X98445000Y16270000D03*
%TO.P,R1,2*%
%TO.N,Board_24-Net-(MB1-CLK)*%
X98445000Y14620000D03*
%TD*%
D12*
%TO.P,U1,1,A0*%
%TO.N,Board_0-Net-(JP1-B)*%
X1775000Y98525000D03*
%TO.P,U1,2,A1*%
%TO.N,Board_0-Net-(JP2-B)*%
X1775000Y97255000D03*
%TO.P,U1,3,A2*%
%TO.N,Board_0-Net-(JP3-B)*%
X1775000Y95985000D03*
%TO.P,U1,4,GND*%
%TO.N,Board_0-GND*%
X1775000Y94715000D03*
%TO.P,U1,5,SDA*%
%TO.N,Board_0-Net-(MB1-SDA)*%
X6725000Y94715000D03*
%TO.P,U1,6,SCL*%
%TO.N,Board_0-Net-(MB1-SCL)*%
X6725000Y95985000D03*
%TO.P,U1,7,WP*%
%TO.N,Board_0-unconnected-(U1-WP-Pad7)*%
X6725000Y97255000D03*
%TO.P,U1,8,VCC*%
%TO.N,Board_0-+3V3*%
X6725000Y98525000D03*
%TD*%
D14*
%TO.P,KiKit_FID_T_2,*%
%TO.N,*%
X90000000Y110000000D03*
%TD*%
D12*
%TO.P,U1,1,A0*%
%TO.N,Board_14-Net-(JP1-B)*%
X81775000Y58525000D03*
%TO.P,U1,2,A1*%
%TO.N,Board_14-Net-(JP2-B)*%
X81775000Y57255000D03*
%TO.P,U1,3,A2*%
%TO.N,Board_14-Net-(JP3-B)*%
X81775000Y55985000D03*
%TO.P,U1,4,GND*%
%TO.N,Board_14-GND*%
X81775000Y54715000D03*
%TO.P,U1,5,SDA*%
%TO.N,Board_14-Net-(MB1-SDA)*%
X86725000Y54715000D03*
%TO.P,U1,6,SCL*%
%TO.N,Board_14-Net-(MB1-SCL)*%
X86725000Y55985000D03*
%TO.P,U1,7,WP*%
%TO.N,Board_14-unconnected-(U1-WP-Pad7)*%
X86725000Y57255000D03*
%TO.P,U1,8,VCC*%
%TO.N,Board_14-+3V3*%
X86725000Y58525000D03*
%TD*%
%TO.P,U1,1,A0*%
%TO.N,Board_12-Net-(JP1-B)*%
X41775000Y58525000D03*
%TO.P,U1,2,A1*%
%TO.N,Board_12-Net-(JP2-B)*%
X41775000Y57255000D03*
%TO.P,U1,3,A2*%
%TO.N,Board_12-Net-(JP3-B)*%
X41775000Y55985000D03*
%TO.P,U1,4,GND*%
%TO.N,Board_12-GND*%
X41775000Y54715000D03*
%TO.P,U1,5,SDA*%
%TO.N,Board_12-Net-(MB1-SDA)*%
X46725000Y54715000D03*
%TO.P,U1,6,SCL*%
%TO.N,Board_12-Net-(MB1-SCL)*%
X46725000Y55985000D03*
%TO.P,U1,7,WP*%
%TO.N,Board_12-unconnected-(U1-WP-Pad7)*%
X46725000Y57255000D03*
%TO.P,U1,8,VCC*%
%TO.N,Board_12-+3V3*%
X46725000Y58525000D03*
%TD*%
D10*
%TO.P,R1,1*%
%TO.N,Board_17-Net-(D1-A)*%
X58445000Y36270000D03*
%TO.P,R1,2*%
%TO.N,Board_17-Net-(MB1-CLK)*%
X58445000Y34620000D03*
%TD*%
D13*
%TO.P,MB1,1,+VBATT*%
%TO.N,Board_21-unconnected-(MB1-+VBATT-Pad1)*%
X21110000Y25890000D03*
%TO.P,MB1,2,GND*%
%TO.N,Board_21-GND*%
X23650000Y25890000D03*
%TO.P,MB1,7,+3V3*%
%TO.N,Board_21-+3V3*%
X36350000Y25890000D03*
%TO.P,MB1,8,GND*%
%TO.N,Board_21-unconnected-(MB1-GND-Pad8)*%
X38890000Y25890000D03*
%TO.P,MB1,9,CLK*%
%TO.N,Board_21-Net-(MB1-CLK)*%
X21110000Y8110000D03*
%TO.P,MB1,13,SCL*%
%TO.N,Board_21-Net-(MB1-SCL)*%
X31270000Y8110000D03*
%TO.P,MB1,14,SDA*%
%TO.N,Board_21-Net-(MB1-SDA)*%
X33810000Y8110000D03*
%TO.P,MB1,15,3V3+*%
%TO.N,Board_21-unconnected-(MB1-3V3+-Pad15)*%
X36350000Y8110000D03*
%TO.P,MB1,16,GND*%
%TO.N,Board_21-GND*%
X38890000Y8110000D03*
%TD*%
D11*
%TO.P,D1,1,K*%
%TO.N,Board_2-GND*%
X58425000Y99760000D03*
%TO.P,D1,2,A*%
%TO.N,Board_2-Net-(D1-A)*%
X58425000Y97885000D03*
%TD*%
D12*
%TO.P,U1,1,A0*%
%TO.N,Board_4-Net-(JP1-B)*%
X81775000Y98525000D03*
%TO.P,U1,2,A1*%
%TO.N,Board_4-Net-(JP2-B)*%
X81775000Y97255000D03*
%TO.P,U1,3,A2*%
%TO.N,Board_4-Net-(JP3-B)*%
X81775000Y95985000D03*
%TO.P,U1,4,GND*%
%TO.N,Board_4-GND*%
X81775000Y94715000D03*
%TO.P,U1,5,SDA*%
%TO.N,Board_4-Net-(MB1-SDA)*%
X86725000Y94715000D03*
%TO.P,U1,6,SCL*%
%TO.N,Board_4-Net-(MB1-SCL)*%
X86725000Y95985000D03*
%TO.P,U1,7,WP*%
%TO.N,Board_4-unconnected-(U1-WP-Pad7)*%
X86725000Y97255000D03*
%TO.P,U1,8,VCC*%
%TO.N,Board_4-+3V3*%
X86725000Y98525000D03*
%TD*%
D13*
%TO.P,MB1,1,+VBATT*%
%TO.N,Board_22-unconnected-(MB1-+VBATT-Pad1)*%
X41110000Y25890000D03*
%TO.P,MB1,2,GND*%
%TO.N,Board_22-GND*%
X43650000Y25890000D03*
%TO.P,MB1,7,+3V3*%
%TO.N,Board_22-+3V3*%
X56350000Y25890000D03*
%TO.P,MB1,8,GND*%
%TO.N,Board_22-unconnected-(MB1-GND-Pad8)*%
X58890000Y25890000D03*
%TO.P,MB1,9,CLK*%
%TO.N,Board_22-Net-(MB1-CLK)*%
X41110000Y8110000D03*
%TO.P,MB1,13,SCL*%
%TO.N,Board_22-Net-(MB1-SCL)*%
X51270000Y8110000D03*
%TO.P,MB1,14,SDA*%
%TO.N,Board_22-Net-(MB1-SDA)*%
X53810000Y8110000D03*
%TO.P,MB1,15,3V3+*%
%TO.N,Board_22-unconnected-(MB1-3V3+-Pad15)*%
X56350000Y8110000D03*
%TO.P,MB1,16,GND*%
%TO.N,Board_22-GND*%
X58890000Y8110000D03*
%TD*%
D12*
%TO.P,U1,1,A0*%
%TO.N,Board_7-Net-(JP1-B)*%
X41775000Y78525000D03*
%TO.P,U1,2,A1*%
%TO.N,Board_7-Net-(JP2-B)*%
X41775000Y77255000D03*
%TO.P,U1,3,A2*%
%TO.N,Board_7-Net-(JP3-B)*%
X41775000Y75985000D03*
%TO.P,U1,4,GND*%
%TO.N,Board_7-GND*%
X41775000Y74715000D03*
%TO.P,U1,5,SDA*%
%TO.N,Board_7-Net-(MB1-SDA)*%
X46725000Y74715000D03*
%TO.P,U1,6,SCL*%
%TO.N,Board_7-Net-(MB1-SCL)*%
X46725000Y75985000D03*
%TO.P,U1,7,WP*%
%TO.N,Board_7-unconnected-(U1-WP-Pad7)*%
X46725000Y77255000D03*
%TO.P,U1,8,VCC*%
%TO.N,Board_7-+3V3*%
X46725000Y78525000D03*
%TD*%
D10*
%TO.P,R1,1*%
%TO.N,Board_7-Net-(D1-A)*%
X58445000Y76270000D03*
%TO.P,R1,2*%
%TO.N,Board_7-Net-(MB1-CLK)*%
X58445000Y74620000D03*
%TD*%
D13*
%TO.P,MB1,1,+VBATT*%
%TO.N,Board_2-unconnected-(MB1-+VBATT-Pad1)*%
X41110000Y105890000D03*
%TO.P,MB1,2,GND*%
%TO.N,Board_2-GND*%
X43650000Y105890000D03*
%TO.P,MB1,7,+3V3*%
%TO.N,Board_2-+3V3*%
X56350000Y105890000D03*
%TO.P,MB1,8,GND*%
%TO.N,Board_2-unconnected-(MB1-GND-Pad8)*%
X58890000Y105890000D03*
%TO.P,MB1,9,CLK*%
%TO.N,Board_2-Net-(MB1-CLK)*%
X41110000Y88110000D03*
%TO.P,MB1,13,SCL*%
%TO.N,Board_2-Net-(MB1-SCL)*%
X51270000Y88110000D03*
%TO.P,MB1,14,SDA*%
%TO.N,Board_2-Net-(MB1-SDA)*%
X53810000Y88110000D03*
%TO.P,MB1,15,3V3+*%
%TO.N,Board_2-unconnected-(MB1-3V3+-Pad15)*%
X56350000Y88110000D03*
%TO.P,MB1,16,GND*%
%TO.N,Board_2-GND*%
X58890000Y88110000D03*
%TD*%
%TO.P,MB1,1,+VBATT*%
%TO.N,Board_24-unconnected-(MB1-+VBATT-Pad1)*%
X81110000Y25890000D03*
%TO.P,MB1,2,GND*%
%TO.N,Board_24-GND*%
X83650000Y25890000D03*
%TO.P,MB1,7,+3V3*%
%TO.N,Board_24-+3V3*%
X96350000Y25890000D03*
%TO.P,MB1,8,GND*%
%TO.N,Board_24-unconnected-(MB1-GND-Pad8)*%
X98890000Y25890000D03*
%TO.P,MB1,9,CLK*%
%TO.N,Board_24-Net-(MB1-CLK)*%
X81110000Y8110000D03*
%TO.P,MB1,13,SCL*%
%TO.N,Board_24-Net-(MB1-SCL)*%
X91270000Y8110000D03*
%TO.P,MB1,14,SDA*%
%TO.N,Board_24-Net-(MB1-SDA)*%
X93810000Y8110000D03*
%TO.P,MB1,15,3V3+*%
%TO.N,Board_24-unconnected-(MB1-3V3+-Pad15)*%
X96350000Y8110000D03*
%TO.P,MB1,16,GND*%
%TO.N,Board_24-GND*%
X98890000Y8110000D03*
%TD*%
D11*
%TO.P,D1,1,K*%
%TO.N,Board_20-GND*%
X18425000Y19760000D03*
%TO.P,D1,2,A*%
%TO.N,Board_20-Net-(D1-A)*%
X18425000Y17885000D03*
%TD*%
D10*
%TO.P,R1,1*%
%TO.N,Board_5-Net-(D1-A)*%
X18445000Y76270000D03*
%TO.P,R1,2*%
%TO.N,Board_5-Net-(MB1-CLK)*%
X18445000Y74620000D03*
%TD*%
%TO.P,R1,1*%
%TO.N,Board_8-Net-(D1-A)*%
X78445000Y76270000D03*
%TO.P,R1,2*%
%TO.N,Board_8-Net-(MB1-CLK)*%
X78445000Y74620000D03*
%TD*%
D13*
%TO.P,MB1,1,+VBATT*%
%TO.N,Board_1-unconnected-(MB1-+VBATT-Pad1)*%
X21110000Y105890000D03*
%TO.P,MB1,2,GND*%
%TO.N,Board_1-GND*%
X23650000Y105890000D03*
%TO.P,MB1,7,+3V3*%
%TO.N,Board_1-+3V3*%
X36350000Y105890000D03*
%TO.P,MB1,8,GND*%
%TO.N,Board_1-unconnected-(MB1-GND-Pad8)*%
X38890000Y105890000D03*
%TO.P,MB1,9,CLK*%
%TO.N,Board_1-Net-(MB1-CLK)*%
X21110000Y88110000D03*
%TO.P,MB1,13,SCL*%
%TO.N,Board_1-Net-(MB1-SCL)*%
X31270000Y88110000D03*
%TO.P,MB1,14,SDA*%
%TO.N,Board_1-Net-(MB1-SDA)*%
X33810000Y88110000D03*
%TO.P,MB1,15,3V3+*%
%TO.N,Board_1-unconnected-(MB1-3V3+-Pad15)*%
X36350000Y88110000D03*
%TO.P,MB1,16,GND*%
%TO.N,Board_1-GND*%
X38890000Y88110000D03*
%TD*%
D11*
%TO.P,D1,1,K*%
%TO.N,Board_0-GND*%
X18425000Y99760000D03*
%TO.P,D1,2,A*%
%TO.N,Board_0-Net-(D1-A)*%
X18425000Y97885000D03*
%TD*%
D13*
%TO.P,MB1,1,+VBATT*%
%TO.N,Board_3-unconnected-(MB1-+VBATT-Pad1)*%
X61110000Y105890000D03*
%TO.P,MB1,2,GND*%
%TO.N,Board_3-GND*%
X63650000Y105890000D03*
%TO.P,MB1,7,+3V3*%
%TO.N,Board_3-+3V3*%
X76350000Y105890000D03*
%TO.P,MB1,8,GND*%
%TO.N,Board_3-unconnected-(MB1-GND-Pad8)*%
X78890000Y105890000D03*
%TO.P,MB1,9,CLK*%
%TO.N,Board_3-Net-(MB1-CLK)*%
X61110000Y88110000D03*
%TO.P,MB1,13,SCL*%
%TO.N,Board_3-Net-(MB1-SCL)*%
X71270000Y88110000D03*
%TO.P,MB1,14,SDA*%
%TO.N,Board_3-Net-(MB1-SDA)*%
X73810000Y88110000D03*
%TO.P,MB1,15,3V3+*%
%TO.N,Board_3-unconnected-(MB1-3V3+-Pad15)*%
X76350000Y88110000D03*
%TO.P,MB1,16,GND*%
%TO.N,Board_3-GND*%
X78890000Y88110000D03*
%TD*%
D11*
%TO.P,D1,1,K*%
%TO.N,Board_5-GND*%
X18425000Y79760000D03*
%TO.P,D1,2,A*%
%TO.N,Board_5-Net-(D1-A)*%
X18425000Y77885000D03*
%TD*%
D12*
%TO.P,U1,1,A0*%
%TO.N,Board_16-Net-(JP1-B)*%
X21775000Y38525000D03*
%TO.P,U1,2,A1*%
%TO.N,Board_16-Net-(JP2-B)*%
X21775000Y37255000D03*
%TO.P,U1,3,A2*%
%TO.N,Board_16-Net-(JP3-B)*%
X21775000Y35985000D03*
%TO.P,U1,4,GND*%
%TO.N,Board_16-GND*%
X21775000Y34715000D03*
%TO.P,U1,5,SDA*%
%TO.N,Board_16-Net-(MB1-SDA)*%
X26725000Y34715000D03*
%TO.P,U1,6,SCL*%
%TO.N,Board_16-Net-(MB1-SCL)*%
X26725000Y35985000D03*
%TO.P,U1,7,WP*%
%TO.N,Board_16-unconnected-(U1-WP-Pad7)*%
X26725000Y37255000D03*
%TO.P,U1,8,VCC*%
%TO.N,Board_16-+3V3*%
X26725000Y38525000D03*
%TD*%
%TO.P,U1,1,A0*%
%TO.N,Board_2-Net-(JP1-B)*%
X41775000Y98525000D03*
%TO.P,U1,2,A1*%
%TO.N,Board_2-Net-(JP2-B)*%
X41775000Y97255000D03*
%TO.P,U1,3,A2*%
%TO.N,Board_2-Net-(JP3-B)*%
X41775000Y95985000D03*
%TO.P,U1,4,GND*%
%TO.N,Board_2-GND*%
X41775000Y94715000D03*
%TO.P,U1,5,SDA*%
%TO.N,Board_2-Net-(MB1-SDA)*%
X46725000Y94715000D03*
%TO.P,U1,6,SCL*%
%TO.N,Board_2-Net-(MB1-SCL)*%
X46725000Y95985000D03*
%TO.P,U1,7,WP*%
%TO.N,Board_2-unconnected-(U1-WP-Pad7)*%
X46725000Y97255000D03*
%TO.P,U1,8,VCC*%
%TO.N,Board_2-+3V3*%
X46725000Y98525000D03*
%TD*%
%TO.P,U1,1,A0*%
%TO.N,Board_1-Net-(JP1-B)*%
X21775000Y98525000D03*
%TO.P,U1,2,A1*%
%TO.N,Board_1-Net-(JP2-B)*%
X21775000Y97255000D03*
%TO.P,U1,3,A2*%
%TO.N,Board_1-Net-(JP3-B)*%
X21775000Y95985000D03*
%TO.P,U1,4,GND*%
%TO.N,Board_1-GND*%
X21775000Y94715000D03*
%TO.P,U1,5,SDA*%
%TO.N,Board_1-Net-(MB1-SDA)*%
X26725000Y94715000D03*
%TO.P,U1,6,SCL*%
%TO.N,Board_1-Net-(MB1-SCL)*%
X26725000Y95985000D03*
%TO.P,U1,7,WP*%
%TO.N,Board_1-unconnected-(U1-WP-Pad7)*%
X26725000Y97255000D03*
%TO.P,U1,8,VCC*%
%TO.N,Board_1-+3V3*%
X26725000Y98525000D03*
%TD*%
%TO.P,U1,1,A0*%
%TO.N,Board_18-Net-(JP1-B)*%
X61775000Y38525000D03*
%TO.P,U1,2,A1*%
%TO.N,Board_18-Net-(JP2-B)*%
X61775000Y37255000D03*
%TO.P,U1,3,A2*%
%TO.N,Board_18-Net-(JP3-B)*%
X61775000Y35985000D03*
%TO.P,U1,4,GND*%
%TO.N,Board_18-GND*%
X61775000Y34715000D03*
%TO.P,U1,5,SDA*%
%TO.N,Board_18-Net-(MB1-SDA)*%
X66725000Y34715000D03*
%TO.P,U1,6,SCL*%
%TO.N,Board_18-Net-(MB1-SCL)*%
X66725000Y35985000D03*
%TO.P,U1,7,WP*%
%TO.N,Board_18-unconnected-(U1-WP-Pad7)*%
X66725000Y37255000D03*
%TO.P,U1,8,VCC*%
%TO.N,Board_18-+3V3*%
X66725000Y38525000D03*
%TD*%
D13*
%TO.P,MB1,1,+VBATT*%
%TO.N,Board_16-unconnected-(MB1-+VBATT-Pad1)*%
X21110000Y45890000D03*
%TO.P,MB1,2,GND*%
%TO.N,Board_16-GND*%
X23650000Y45890000D03*
%TO.P,MB1,7,+3V3*%
%TO.N,Board_16-+3V3*%
X36350000Y45890000D03*
%TO.P,MB1,8,GND*%
%TO.N,Board_16-unconnected-(MB1-GND-Pad8)*%
X38890000Y45890000D03*
%TO.P,MB1,9,CLK*%
%TO.N,Board_16-Net-(MB1-CLK)*%
X21110000Y28110000D03*
%TO.P,MB1,13,SCL*%
%TO.N,Board_16-Net-(MB1-SCL)*%
X31270000Y28110000D03*
%TO.P,MB1,14,SDA*%
%TO.N,Board_16-Net-(MB1-SDA)*%
X33810000Y28110000D03*
%TO.P,MB1,15,3V3+*%
%TO.N,Board_16-unconnected-(MB1-3V3+-Pad15)*%
X36350000Y28110000D03*
%TO.P,MB1,16,GND*%
%TO.N,Board_16-GND*%
X38890000Y28110000D03*
%TD*%
D12*
%TO.P,U1,1,A0*%
%TO.N,Board_13-Net-(JP1-B)*%
X61775000Y58525000D03*
%TO.P,U1,2,A1*%
%TO.N,Board_13-Net-(JP2-B)*%
X61775000Y57255000D03*
%TO.P,U1,3,A2*%
%TO.N,Board_13-Net-(JP3-B)*%
X61775000Y55985000D03*
%TO.P,U1,4,GND*%
%TO.N,Board_13-GND*%
X61775000Y54715000D03*
%TO.P,U1,5,SDA*%
%TO.N,Board_13-Net-(MB1-SDA)*%
X66725000Y54715000D03*
%TO.P,U1,6,SCL*%
%TO.N,Board_13-Net-(MB1-SCL)*%
X66725000Y55985000D03*
%TO.P,U1,7,WP*%
%TO.N,Board_13-unconnected-(U1-WP-Pad7)*%
X66725000Y57255000D03*
%TO.P,U1,8,VCC*%
%TO.N,Board_13-+3V3*%
X66725000Y58525000D03*
%TD*%
D10*
%TO.P,R1,1*%
%TO.N,Board_23-Net-(D1-A)*%
X78445000Y16270000D03*
%TO.P,R1,2*%
%TO.N,Board_23-Net-(MB1-CLK)*%
X78445000Y14620000D03*
%TD*%
D14*
%TO.P,KiKit_FID_T_1,*%
%TO.N,*%
X10000000Y110000000D03*
%TD*%
D11*
%TO.P,D1,1,K*%
%TO.N,Board_6-GND*%
X38425000Y79760000D03*
%TO.P,D1,2,A*%
%TO.N,Board_6-Net-(D1-A)*%
X38425000Y77885000D03*
%TD*%
%TO.P,D1,1,K*%
%TO.N,Board_8-GND*%
X78425000Y79760000D03*
%TO.P,D1,2,A*%
%TO.N,Board_8-Net-(D1-A)*%
X78425000Y77885000D03*
%TD*%
D13*
%TO.P,MB1,1,+VBATT*%
%TO.N,Board_17-unconnected-(MB1-+VBATT-Pad1)*%
X41110000Y45890000D03*
%TO.P,MB1,2,GND*%
%TO.N,Board_17-GND*%
X43650000Y45890000D03*
%TO.P,MB1,7,+3V3*%
%TO.N,Board_17-+3V3*%
X56350000Y45890000D03*
%TO.P,MB1,8,GND*%
%TO.N,Board_17-unconnected-(MB1-GND-Pad8)*%
X58890000Y45890000D03*
%TO.P,MB1,9,CLK*%
%TO.N,Board_17-Net-(MB1-CLK)*%
X41110000Y28110000D03*
%TO.P,MB1,13,SCL*%
%TO.N,Board_17-Net-(MB1-SCL)*%
X51270000Y28110000D03*
%TO.P,MB1,14,SDA*%
%TO.N,Board_17-Net-(MB1-SDA)*%
X53810000Y28110000D03*
%TO.P,MB1,15,3V3+*%
%TO.N,Board_17-unconnected-(MB1-3V3+-Pad15)*%
X56350000Y28110000D03*
%TO.P,MB1,16,GND*%
%TO.N,Board_17-GND*%
X58890000Y28110000D03*
%TD*%
D10*
%TO.P,R1,1*%
%TO.N,Board_18-Net-(D1-A)*%
X78445000Y36270000D03*
%TO.P,R1,2*%
%TO.N,Board_18-Net-(MB1-CLK)*%
X78445000Y34620000D03*
%TD*%
D12*
%TO.P,U1,1,A0*%
%TO.N,Board_3-Net-(JP1-B)*%
X61775000Y98525000D03*
%TO.P,U1,2,A1*%
%TO.N,Board_3-Net-(JP2-B)*%
X61775000Y97255000D03*
%TO.P,U1,3,A2*%
%TO.N,Board_3-Net-(JP3-B)*%
X61775000Y95985000D03*
%TO.P,U1,4,GND*%
%TO.N,Board_3-GND*%
X61775000Y94715000D03*
%TO.P,U1,5,SDA*%
%TO.N,Board_3-Net-(MB1-SDA)*%
X66725000Y94715000D03*
%TO.P,U1,6,SCL*%
%TO.N,Board_3-Net-(MB1-SCL)*%
X66725000Y95985000D03*
%TO.P,U1,7,WP*%
%TO.N,Board_3-unconnected-(U1-WP-Pad7)*%
X66725000Y97255000D03*
%TO.P,U1,8,VCC*%
%TO.N,Board_3-+3V3*%
X66725000Y98525000D03*
%TD*%
D10*
%TO.P,R1,1*%
%TO.N,Board_2-Net-(D1-A)*%
X58445000Y96270000D03*
%TO.P,R1,2*%
%TO.N,Board_2-Net-(MB1-CLK)*%
X58445000Y94620000D03*
%TD*%
D13*
%TO.P,MB1,1,+VBATT*%
%TO.N,Board_18-unconnected-(MB1-+VBATT-Pad1)*%
X61110000Y45890000D03*
%TO.P,MB1,2,GND*%
%TO.N,Board_18-GND*%
X63650000Y45890000D03*
%TO.P,MB1,7,+3V3*%
%TO.N,Board_18-+3V3*%
X76350000Y45890000D03*
%TO.P,MB1,8,GND*%
%TO.N,Board_18-unconnected-(MB1-GND-Pad8)*%
X78890000Y45890000D03*
%TO.P,MB1,9,CLK*%
%TO.N,Board_18-Net-(MB1-CLK)*%
X61110000Y28110000D03*
%TO.P,MB1,13,SCL*%
%TO.N,Board_18-Net-(MB1-SCL)*%
X71270000Y28110000D03*
%TO.P,MB1,14,SDA*%
%TO.N,Board_18-Net-(MB1-SDA)*%
X73810000Y28110000D03*
%TO.P,MB1,15,3V3+*%
%TO.N,Board_18-unconnected-(MB1-3V3+-Pad15)*%
X76350000Y28110000D03*
%TO.P,MB1,16,GND*%
%TO.N,Board_18-GND*%
X78890000Y28110000D03*
%TD*%
D12*
%TO.P,U1,1,A0*%
%TO.N,Board_8-Net-(JP1-B)*%
X61775000Y78525000D03*
%TO.P,U1,2,A1*%
%TO.N,Board_8-Net-(JP2-B)*%
X61775000Y77255000D03*
%TO.P,U1,3,A2*%
%TO.N,Board_8-Net-(JP3-B)*%
X61775000Y75985000D03*
%TO.P,U1,4,GND*%
%TO.N,Board_8-GND*%
X61775000Y74715000D03*
%TO.P,U1,5,SDA*%
%TO.N,Board_8-Net-(MB1-SDA)*%
X66725000Y74715000D03*
%TO.P,U1,6,SCL*%
%TO.N,Board_8-Net-(MB1-SCL)*%
X66725000Y75985000D03*
%TO.P,U1,7,WP*%
%TO.N,Board_8-unconnected-(U1-WP-Pad7)*%
X66725000Y77255000D03*
%TO.P,U1,8,VCC*%
%TO.N,Board_8-+3V3*%
X66725000Y78525000D03*
%TD*%
D10*
%TO.P,R1,1*%
%TO.N,Board_11-Net-(D1-A)*%
X38445000Y56270000D03*
%TO.P,R1,2*%
%TO.N,Board_11-Net-(MB1-CLK)*%
X38445000Y54620000D03*
%TD*%
D13*
%TO.P,MB1,1,+VBATT*%
%TO.N,Board_4-unconnected-(MB1-+VBATT-Pad1)*%
X81110000Y105890000D03*
%TO.P,MB1,2,GND*%
%TO.N,Board_4-GND*%
X83650000Y105890000D03*
%TO.P,MB1,7,+3V3*%
%TO.N,Board_4-+3V3*%
X96350000Y105890000D03*
%TO.P,MB1,8,GND*%
%TO.N,Board_4-unconnected-(MB1-GND-Pad8)*%
X98890000Y105890000D03*
%TO.P,MB1,9,CLK*%
%TO.N,Board_4-Net-(MB1-CLK)*%
X81110000Y88110000D03*
%TO.P,MB1,13,SCL*%
%TO.N,Board_4-Net-(MB1-SCL)*%
X91270000Y88110000D03*
%TO.P,MB1,14,SDA*%
%TO.N,Board_4-Net-(MB1-SDA)*%
X93810000Y88110000D03*
%TO.P,MB1,15,3V3+*%
%TO.N,Board_4-unconnected-(MB1-3V3+-Pad15)*%
X96350000Y88110000D03*
%TO.P,MB1,16,GND*%
%TO.N,Board_4-GND*%
X98890000Y88110000D03*
%TD*%
D11*
%TO.P,D1,1,K*%
%TO.N,Board_13-GND*%
X78425000Y59760000D03*
%TO.P,D1,2,A*%
%TO.N,Board_13-Net-(D1-A)*%
X78425000Y57885000D03*
%TD*%
D13*
%TO.P,MB1,1,+VBATT*%
%TO.N,Board_10-unconnected-(MB1-+VBATT-Pad1)*%
X1110000Y65890000D03*
%TO.P,MB1,2,GND*%
%TO.N,Board_10-GND*%
X3650000Y65890000D03*
%TO.P,MB1,7,+3V3*%
%TO.N,Board_10-+3V3*%
X16350000Y65890000D03*
%TO.P,MB1,8,GND*%
%TO.N,Board_10-unconnected-(MB1-GND-Pad8)*%
X18890000Y65890000D03*
%TO.P,MB1,9,CLK*%
%TO.N,Board_10-Net-(MB1-CLK)*%
X1110000Y48110000D03*
%TO.P,MB1,13,SCL*%
%TO.N,Board_10-Net-(MB1-SCL)*%
X11270000Y48110000D03*
%TO.P,MB1,14,SDA*%
%TO.N,Board_10-Net-(MB1-SDA)*%
X13810000Y48110000D03*
%TO.P,MB1,15,3V3+*%
%TO.N,Board_10-unconnected-(MB1-3V3+-Pad15)*%
X16350000Y48110000D03*
%TO.P,MB1,16,GND*%
%TO.N,Board_10-GND*%
X18890000Y48110000D03*
%TD*%
D11*
%TO.P,D1,1,K*%
%TO.N,Board_16-GND*%
X38425000Y39760000D03*
%TO.P,D1,2,A*%
%TO.N,Board_16-Net-(D1-A)*%
X38425000Y37885000D03*
%TD*%
D13*
%TO.P,MB1,1,+VBATT*%
%TO.N,Board_19-unconnected-(MB1-+VBATT-Pad1)*%
X81110000Y45890000D03*
%TO.P,MB1,2,GND*%
%TO.N,Board_19-GND*%
X83650000Y45890000D03*
%TO.P,MB1,7,+3V3*%
%TO.N,Board_19-+3V3*%
X96350000Y45890000D03*
%TO.P,MB1,8,GND*%
%TO.N,Board_19-unconnected-(MB1-GND-Pad8)*%
X98890000Y45890000D03*
%TO.P,MB1,9,CLK*%
%TO.N,Board_19-Net-(MB1-CLK)*%
X81110000Y28110000D03*
%TO.P,MB1,13,SCL*%
%TO.N,Board_19-Net-(MB1-SCL)*%
X91270000Y28110000D03*
%TO.P,MB1,14,SDA*%
%TO.N,Board_19-Net-(MB1-SDA)*%
X93810000Y28110000D03*
%TO.P,MB1,15,3V3+*%
%TO.N,Board_19-unconnected-(MB1-3V3+-Pad15)*%
X96350000Y28110000D03*
%TO.P,MB1,16,GND*%
%TO.N,Board_19-GND*%
X98890000Y28110000D03*
%TD*%
D11*
%TO.P,D1,1,K*%
%TO.N,Board_14-GND*%
X98425000Y59760000D03*
%TO.P,D1,2,A*%
%TO.N,Board_14-Net-(D1-A)*%
X98425000Y57885000D03*
%TD*%
D10*
%TO.P,R1,1*%
%TO.N,Board_10-Net-(D1-A)*%
X18445000Y56270000D03*
%TO.P,R1,2*%
%TO.N,Board_10-Net-(MB1-CLK)*%
X18445000Y54620000D03*
%TD*%
D13*
%TO.P,MB1,1,+VBATT*%
%TO.N,Board_15-unconnected-(MB1-+VBATT-Pad1)*%
X1110000Y45890000D03*
%TO.P,MB1,2,GND*%
%TO.N,Board_15-GND*%
X3650000Y45890000D03*
%TO.P,MB1,7,+3V3*%
%TO.N,Board_15-+3V3*%
X16350000Y45890000D03*
%TO.P,MB1,8,GND*%
%TO.N,Board_15-unconnected-(MB1-GND-Pad8)*%
X18890000Y45890000D03*
%TO.P,MB1,9,CLK*%
%TO.N,Board_15-Net-(MB1-CLK)*%
X1110000Y28110000D03*
%TO.P,MB1,13,SCL*%
%TO.N,Board_15-Net-(MB1-SCL)*%
X11270000Y28110000D03*
%TO.P,MB1,14,SDA*%
%TO.N,Board_15-Net-(MB1-SDA)*%
X13810000Y28110000D03*
%TO.P,MB1,15,3V3+*%
%TO.N,Board_15-unconnected-(MB1-3V3+-Pad15)*%
X16350000Y28110000D03*
%TO.P,MB1,16,GND*%
%TO.N,Board_15-GND*%
X18890000Y28110000D03*
%TD*%
D12*
%TO.P,U1,1,A0*%
%TO.N,Board_20-Net-(JP1-B)*%
X1775000Y18525000D03*
%TO.P,U1,2,A1*%
%TO.N,Board_20-Net-(JP2-B)*%
X1775000Y17255000D03*
%TO.P,U1,3,A2*%
%TO.N,Board_20-Net-(JP3-B)*%
X1775000Y15985000D03*
%TO.P,U1,4,GND*%
%TO.N,Board_20-GND*%
X1775000Y14715000D03*
%TO.P,U1,5,SDA*%
%TO.N,Board_20-Net-(MB1-SDA)*%
X6725000Y14715000D03*
%TO.P,U1,6,SCL*%
%TO.N,Board_20-Net-(MB1-SCL)*%
X6725000Y15985000D03*
%TO.P,U1,7,WP*%
%TO.N,Board_20-unconnected-(U1-WP-Pad7)*%
X6725000Y17255000D03*
%TO.P,U1,8,VCC*%
%TO.N,Board_20-+3V3*%
X6725000Y18525000D03*
%TD*%
D13*
%TO.P,MB1,1,+VBATT*%
%TO.N,Board_20-unconnected-(MB1-+VBATT-Pad1)*%
X1110000Y25890000D03*
%TO.P,MB1,2,GND*%
%TO.N,Board_20-GND*%
X3650000Y25890000D03*
%TO.P,MB1,7,+3V3*%
%TO.N,Board_20-+3V3*%
X16350000Y25890000D03*
%TO.P,MB1,8,GND*%
%TO.N,Board_20-unconnected-(MB1-GND-Pad8)*%
X18890000Y25890000D03*
%TO.P,MB1,9,CLK*%
%TO.N,Board_20-Net-(MB1-CLK)*%
X1110000Y8110000D03*
%TO.P,MB1,13,SCL*%
%TO.N,Board_20-Net-(MB1-SCL)*%
X11270000Y8110000D03*
%TO.P,MB1,14,SDA*%
%TO.N,Board_20-Net-(MB1-SDA)*%
X13810000Y8110000D03*
%TO.P,MB1,15,3V3+*%
%TO.N,Board_20-unconnected-(MB1-3V3+-Pad15)*%
X16350000Y8110000D03*
%TO.P,MB1,16,GND*%
%TO.N,Board_20-GND*%
X18890000Y8110000D03*
%TD*%
D12*
%TO.P,U1,1,A0*%
%TO.N,Board_5-Net-(JP1-B)*%
X1775000Y78525000D03*
%TO.P,U1,2,A1*%
%TO.N,Board_5-Net-(JP2-B)*%
X1775000Y77255000D03*
%TO.P,U1,3,A2*%
%TO.N,Board_5-Net-(JP3-B)*%
X1775000Y75985000D03*
%TO.P,U1,4,GND*%
%TO.N,Board_5-GND*%
X1775000Y74715000D03*
%TO.P,U1,5,SDA*%
%TO.N,Board_5-Net-(MB1-SDA)*%
X6725000Y74715000D03*
%TO.P,U1,6,SCL*%
%TO.N,Board_5-Net-(MB1-SCL)*%
X6725000Y75985000D03*
%TO.P,U1,7,WP*%
%TO.N,Board_5-unconnected-(U1-WP-Pad7)*%
X6725000Y77255000D03*
%TO.P,U1,8,VCC*%
%TO.N,Board_5-+3V3*%
X6725000Y78525000D03*
%TD*%
D10*
%TO.P,R1,1*%
%TO.N,Board_0-Net-(D1-A)*%
X18445000Y96270000D03*
%TO.P,R1,2*%
%TO.N,Board_0-Net-(MB1-CLK)*%
X18445000Y94620000D03*
%TD*%
D11*
%TO.P,D1,1,K*%
%TO.N,Board_3-GND*%
X78425000Y99760000D03*
%TO.P,D1,2,A*%
%TO.N,Board_3-Net-(D1-A)*%
X78425000Y97885000D03*
%TD*%
D13*
%TO.P,MB1,1,+VBATT*%
%TO.N,Board_23-unconnected-(MB1-+VBATT-Pad1)*%
X61110000Y25890000D03*
%TO.P,MB1,2,GND*%
%TO.N,Board_23-GND*%
X63650000Y25890000D03*
%TO.P,MB1,7,+3V3*%
%TO.N,Board_23-+3V3*%
X76350000Y25890000D03*
%TO.P,MB1,8,GND*%
%TO.N,Board_23-unconnected-(MB1-GND-Pad8)*%
X78890000Y25890000D03*
%TO.P,MB1,9,CLK*%
%TO.N,Board_23-Net-(MB1-CLK)*%
X61110000Y8110000D03*
%TO.P,MB1,13,SCL*%
%TO.N,Board_23-Net-(MB1-SCL)*%
X71270000Y8110000D03*
%TO.P,MB1,14,SDA*%
%TO.N,Board_23-Net-(MB1-SDA)*%
X73810000Y8110000D03*
%TO.P,MB1,15,3V3+*%
%TO.N,Board_23-unconnected-(MB1-3V3+-Pad15)*%
X76350000Y8110000D03*
%TO.P,MB1,16,GND*%
%TO.N,Board_23-GND*%
X78890000Y8110000D03*
%TD*%
%TO.P,MB1,1,+VBATT*%
%TO.N,Board_0-unconnected-(MB1-+VBATT-Pad1)*%
X1110000Y105890000D03*
%TO.P,MB1,2,GND*%
%TO.N,Board_0-GND*%
X3650000Y105890000D03*
%TO.P,MB1,7,+3V3*%
%TO.N,Board_0-+3V3*%
X16350000Y105890000D03*
%TO.P,MB1,8,GND*%
%TO.N,Board_0-unconnected-(MB1-GND-Pad8)*%
X18890000Y105890000D03*
%TO.P,MB1,9,CLK*%
%TO.N,Board_0-Net-(MB1-CLK)*%
X1110000Y88110000D03*
%TO.P,MB1,13,SCL*%
%TO.N,Board_0-Net-(MB1-SCL)*%
X11270000Y88110000D03*
%TO.P,MB1,14,SDA*%
%TO.N,Board_0-Net-(MB1-SDA)*%
X13810000Y88110000D03*
%TO.P,MB1,15,3V3+*%
%TO.N,Board_0-unconnected-(MB1-3V3+-Pad15)*%
X16350000Y88110000D03*
%TO.P,MB1,16,GND*%
%TO.N,Board_0-GND*%
X18890000Y88110000D03*
%TD*%
D11*
%TO.P,D1,1,K*%
%TO.N,Board_9-GND*%
X98425000Y79760000D03*
%TO.P,D1,2,A*%
%TO.N,Board_9-Net-(D1-A)*%
X98425000Y77885000D03*
%TD*%
D12*
%TO.P,U1,1,A0*%
%TO.N,Board_11-Net-(JP1-B)*%
X21775000Y58525000D03*
%TO.P,U1,2,A1*%
%TO.N,Board_11-Net-(JP2-B)*%
X21775000Y57255000D03*
%TO.P,U1,3,A2*%
%TO.N,Board_11-Net-(JP3-B)*%
X21775000Y55985000D03*
%TO.P,U1,4,GND*%
%TO.N,Board_11-GND*%
X21775000Y54715000D03*
%TO.P,U1,5,SDA*%
%TO.N,Board_11-Net-(MB1-SDA)*%
X26725000Y54715000D03*
%TO.P,U1,6,SCL*%
%TO.N,Board_11-Net-(MB1-SCL)*%
X26725000Y55985000D03*
%TO.P,U1,7,WP*%
%TO.N,Board_11-unconnected-(U1-WP-Pad7)*%
X26725000Y57255000D03*
%TO.P,U1,8,VCC*%
%TO.N,Board_11-+3V3*%
X26725000Y58525000D03*
%TD*%
D13*
%TO.P,MB1,1,+VBATT*%
%TO.N,Board_13-unconnected-(MB1-+VBATT-Pad1)*%
X61110000Y65890000D03*
%TO.P,MB1,2,GND*%
%TO.N,Board_13-GND*%
X63650000Y65890000D03*
%TO.P,MB1,7,+3V3*%
%TO.N,Board_13-+3V3*%
X76350000Y65890000D03*
%TO.P,MB1,8,GND*%
%TO.N,Board_13-unconnected-(MB1-GND-Pad8)*%
X78890000Y65890000D03*
%TO.P,MB1,9,CLK*%
%TO.N,Board_13-Net-(MB1-CLK)*%
X61110000Y48110000D03*
%TO.P,MB1,13,SCL*%
%TO.N,Board_13-Net-(MB1-SCL)*%
X71270000Y48110000D03*
%TO.P,MB1,14,SDA*%
%TO.N,Board_13-Net-(MB1-SDA)*%
X73810000Y48110000D03*
%TO.P,MB1,15,3V3+*%
%TO.N,Board_13-unconnected-(MB1-3V3+-Pad15)*%
X76350000Y48110000D03*
%TO.P,MB1,16,GND*%
%TO.N,Board_13-GND*%
X78890000Y48110000D03*
%TD*%
D12*
%TO.P,U1,1,A0*%
%TO.N,Board_15-Net-(JP1-B)*%
X1775000Y38525000D03*
%TO.P,U1,2,A1*%
%TO.N,Board_15-Net-(JP2-B)*%
X1775000Y37255000D03*
%TO.P,U1,3,A2*%
%TO.N,Board_15-Net-(JP3-B)*%
X1775000Y35985000D03*
%TO.P,U1,4,GND*%
%TO.N,Board_15-GND*%
X1775000Y34715000D03*
%TO.P,U1,5,SDA*%
%TO.N,Board_15-Net-(MB1-SDA)*%
X6725000Y34715000D03*
%TO.P,U1,6,SCL*%
%TO.N,Board_15-Net-(MB1-SCL)*%
X6725000Y35985000D03*
%TO.P,U1,7,WP*%
%TO.N,Board_15-unconnected-(U1-WP-Pad7)*%
X6725000Y37255000D03*
%TO.P,U1,8,VCC*%
%TO.N,Board_15-+3V3*%
X6725000Y38525000D03*
%TD*%
D11*
%TO.P,D1,1,K*%
%TO.N,Board_15-GND*%
X18425000Y39760000D03*
%TO.P,D1,2,A*%
%TO.N,Board_15-Net-(D1-A)*%
X18425000Y37885000D03*
%TD*%
%TO.P,D1,1,K*%
%TO.N,Board_22-GND*%
X58425000Y19760000D03*
%TO.P,D1,2,A*%
%TO.N,Board_22-Net-(D1-A)*%
X58425000Y17885000D03*
%TD*%
D15*
%TO.N,Board_0-+3V3*%
X5105000Y98525000D03*
%TO.N,Board_0-GND*%
X3435000Y94735000D03*
X18425000Y101015000D03*
%TO.N,Board_0-Net-(JP1-B)*%
X3845000Y98485000D03*
%TO.N,Board_0-Net-(JP2-B)*%
X3245000Y96675000D03*
%TO.N,Board_0-Net-(JP3-B)*%
X4465000Y94745000D03*
%TO.N,Board_0-Net-(MB1-CLK)*%
X18445000Y93315000D03*
%TO.N,Board_0-Net-(MB1-SDA)*%
X10185000Y94735000D03*
X12195000Y94695000D03*
%TO.N,Board_1-+3V3*%
X25105000Y98525000D03*
%TO.N,Board_1-GND*%
X38425000Y101015000D03*
X23435000Y94735000D03*
%TO.N,Board_1-Net-(JP1-B)*%
X23845000Y98485000D03*
%TO.N,Board_1-Net-(JP2-B)*%
X23245000Y96675000D03*
%TO.N,Board_1-Net-(JP3-B)*%
X24465000Y94745000D03*
%TO.N,Board_1-Net-(MB1-CLK)*%
X38445000Y93315000D03*
%TO.N,Board_1-Net-(MB1-SDA)*%
X32195000Y94695000D03*
X30185000Y94735000D03*
%TO.N,Board_2-+3V3*%
X45105000Y98525000D03*
%TO.N,Board_2-GND*%
X43435000Y94735000D03*
X58425000Y101015000D03*
%TO.N,Board_2-Net-(JP1-B)*%
X43845000Y98485000D03*
%TO.N,Board_2-Net-(JP2-B)*%
X43245000Y96675000D03*
%TO.N,Board_2-Net-(JP3-B)*%
X44465000Y94745000D03*
%TO.N,Board_2-Net-(MB1-CLK)*%
X58445000Y93315000D03*
%TO.N,Board_2-Net-(MB1-SDA)*%
X52195000Y94695000D03*
X50185000Y94735000D03*
%TO.N,Board_3-+3V3*%
X65105000Y98525000D03*
%TO.N,Board_3-GND*%
X63435000Y94735000D03*
X78425000Y101015000D03*
%TO.N,Board_3-Net-(JP1-B)*%
X63845000Y98485000D03*
%TO.N,Board_3-Net-(JP2-B)*%
X63245000Y96675000D03*
%TO.N,Board_3-Net-(JP3-B)*%
X64465000Y94745000D03*
%TO.N,Board_3-Net-(MB1-CLK)*%
X78445000Y93315000D03*
%TO.N,Board_3-Net-(MB1-SDA)*%
X70185000Y94735000D03*
X72195000Y94695000D03*
%TO.N,Board_4-+3V3*%
X85105000Y98525000D03*
%TO.N,Board_4-GND*%
X83435000Y94735000D03*
X98425000Y101015000D03*
%TO.N,Board_4-Net-(JP1-B)*%
X83845000Y98485000D03*
%TO.N,Board_4-Net-(JP2-B)*%
X83245000Y96675000D03*
%TO.N,Board_4-Net-(JP3-B)*%
X84465000Y94745000D03*
%TO.N,Board_4-Net-(MB1-CLK)*%
X98445000Y93315000D03*
%TO.N,Board_4-Net-(MB1-SDA)*%
X90185000Y94735000D03*
X92195000Y94695000D03*
%TO.N,Board_5-+3V3*%
X5105000Y78525000D03*
%TO.N,Board_5-GND*%
X18425000Y81015000D03*
X3435000Y74735000D03*
%TO.N,Board_5-Net-(JP1-B)*%
X3845000Y78485000D03*
%TO.N,Board_5-Net-(JP2-B)*%
X3245000Y76675000D03*
%TO.N,Board_5-Net-(JP3-B)*%
X4465000Y74745000D03*
%TO.N,Board_5-Net-(MB1-CLK)*%
X18445000Y73315000D03*
%TO.N,Board_5-Net-(MB1-SDA)*%
X12195000Y74695000D03*
X10185000Y74735000D03*
%TO.N,Board_6-+3V3*%
X25105000Y78525000D03*
%TO.N,Board_6-GND*%
X38425000Y81015000D03*
X23435000Y74735000D03*
%TO.N,Board_6-Net-(JP1-B)*%
X23845000Y78485000D03*
%TO.N,Board_6-Net-(JP2-B)*%
X23245000Y76675000D03*
%TO.N,Board_6-Net-(JP3-B)*%
X24465000Y74745000D03*
%TO.N,Board_6-Net-(MB1-CLK)*%
X38445000Y73315000D03*
%TO.N,Board_6-Net-(MB1-SDA)*%
X30185000Y74735000D03*
X32195000Y74695000D03*
%TO.N,Board_7-+3V3*%
X45105000Y78525000D03*
%TO.N,Board_7-GND*%
X43435000Y74735000D03*
X58425000Y81015000D03*
%TO.N,Board_7-Net-(JP1-B)*%
X43845000Y78485000D03*
%TO.N,Board_7-Net-(JP2-B)*%
X43245000Y76675000D03*
%TO.N,Board_7-Net-(JP3-B)*%
X44465000Y74745000D03*
%TO.N,Board_7-Net-(MB1-CLK)*%
X58445000Y73315000D03*
%TO.N,Board_7-Net-(MB1-SDA)*%
X50185000Y74735000D03*
X52195000Y74695000D03*
%TO.N,Board_8-+3V3*%
X65105000Y78525000D03*
%TO.N,Board_8-GND*%
X78425000Y81015000D03*
X63435000Y74735000D03*
%TO.N,Board_8-Net-(JP1-B)*%
X63845000Y78485000D03*
%TO.N,Board_8-Net-(JP2-B)*%
X63245000Y76675000D03*
%TO.N,Board_8-Net-(JP3-B)*%
X64465000Y74745000D03*
%TO.N,Board_8-Net-(MB1-CLK)*%
X78445000Y73315000D03*
%TO.N,Board_8-Net-(MB1-SDA)*%
X72195000Y74695000D03*
X70185000Y74735000D03*
%TO.N,Board_9-+3V3*%
X85105000Y78525000D03*
%TO.N,Board_9-GND*%
X83435000Y74735000D03*
X98425000Y81015000D03*
%TO.N,Board_9-Net-(JP1-B)*%
X83845000Y78485000D03*
%TO.N,Board_9-Net-(JP2-B)*%
X83245000Y76675000D03*
%TO.N,Board_9-Net-(JP3-B)*%
X84465000Y74745000D03*
%TO.N,Board_9-Net-(MB1-CLK)*%
X98445000Y73315000D03*
%TO.N,Board_9-Net-(MB1-SDA)*%
X92195000Y74695000D03*
X90185000Y74735000D03*
%TO.N,Board_10-+3V3*%
X5105000Y58525000D03*
%TO.N,Board_10-GND*%
X18425000Y61015000D03*
X3435000Y54735000D03*
%TO.N,Board_10-Net-(JP1-B)*%
X3845000Y58485000D03*
%TO.N,Board_10-Net-(JP2-B)*%
X3245000Y56675000D03*
%TO.N,Board_10-Net-(JP3-B)*%
X4465000Y54745000D03*
%TO.N,Board_10-Net-(MB1-CLK)*%
X18445000Y53315000D03*
%TO.N,Board_10-Net-(MB1-SDA)*%
X12195000Y54695000D03*
X10185000Y54735000D03*
%TO.N,Board_11-+3V3*%
X25105000Y58525000D03*
%TO.N,Board_11-GND*%
X38425000Y61015000D03*
X23435000Y54735000D03*
%TO.N,Board_11-Net-(JP1-B)*%
X23845000Y58485000D03*
%TO.N,Board_11-Net-(JP2-B)*%
X23245000Y56675000D03*
%TO.N,Board_11-Net-(JP3-B)*%
X24465000Y54745000D03*
%TO.N,Board_11-Net-(MB1-CLK)*%
X38445000Y53315000D03*
%TO.N,Board_11-Net-(MB1-SDA)*%
X32195000Y54695000D03*
X30185000Y54735000D03*
%TO.N,Board_12-+3V3*%
X45105000Y58525000D03*
%TO.N,Board_12-GND*%
X43435000Y54735000D03*
X58425000Y61015000D03*
%TO.N,Board_12-Net-(JP1-B)*%
X43845000Y58485000D03*
%TO.N,Board_12-Net-(JP2-B)*%
X43245000Y56675000D03*
%TO.N,Board_12-Net-(JP3-B)*%
X44465000Y54745000D03*
%TO.N,Board_12-Net-(MB1-CLK)*%
X58445000Y53315000D03*
%TO.N,Board_12-Net-(MB1-SDA)*%
X50185000Y54735000D03*
X52195000Y54695000D03*
%TO.N,Board_13-+3V3*%
X65105000Y58525000D03*
%TO.N,Board_13-GND*%
X63435000Y54735000D03*
X78425000Y61015000D03*
%TO.N,Board_13-Net-(JP1-B)*%
X63845000Y58485000D03*
%TO.N,Board_13-Net-(JP2-B)*%
X63245000Y56675000D03*
%TO.N,Board_13-Net-(JP3-B)*%
X64465000Y54745000D03*
%TO.N,Board_13-Net-(MB1-CLK)*%
X78445000Y53315000D03*
%TO.N,Board_13-Net-(MB1-SDA)*%
X70185000Y54735000D03*
X72195000Y54695000D03*
%TO.N,Board_14-+3V3*%
X85105000Y58525000D03*
%TO.N,Board_14-GND*%
X98425000Y61015000D03*
X83435000Y54735000D03*
%TO.N,Board_14-Net-(JP1-B)*%
X83845000Y58485000D03*
%TO.N,Board_14-Net-(JP2-B)*%
X83245000Y56675000D03*
%TO.N,Board_14-Net-(JP3-B)*%
X84465000Y54745000D03*
%TO.N,Board_14-Net-(MB1-CLK)*%
X98445000Y53315000D03*
%TO.N,Board_14-Net-(MB1-SDA)*%
X90185000Y54735000D03*
X92195000Y54695000D03*
%TO.N,Board_15-+3V3*%
X5105000Y38525000D03*
%TO.N,Board_15-GND*%
X18425000Y41015000D03*
X3435000Y34735000D03*
%TO.N,Board_15-Net-(JP1-B)*%
X3845000Y38485000D03*
%TO.N,Board_15-Net-(JP2-B)*%
X3245000Y36675000D03*
%TO.N,Board_15-Net-(JP3-B)*%
X4465000Y34745000D03*
%TO.N,Board_15-Net-(MB1-CLK)*%
X18445000Y33315000D03*
%TO.N,Board_15-Net-(MB1-SDA)*%
X10185000Y34735000D03*
X12195000Y34695000D03*
%TO.N,Board_16-+3V3*%
X25105000Y38525000D03*
%TO.N,Board_16-GND*%
X38425000Y41015000D03*
X23435000Y34735000D03*
%TO.N,Board_16-Net-(JP1-B)*%
X23845000Y38485000D03*
%TO.N,Board_16-Net-(JP2-B)*%
X23245000Y36675000D03*
%TO.N,Board_16-Net-(JP3-B)*%
X24465000Y34745000D03*
%TO.N,Board_16-Net-(MB1-CLK)*%
X38445000Y33315000D03*
%TO.N,Board_16-Net-(MB1-SDA)*%
X32195000Y34695000D03*
X30185000Y34735000D03*
%TO.N,Board_17-+3V3*%
X45105000Y38525000D03*
%TO.N,Board_17-GND*%
X43435000Y34735000D03*
X58425000Y41015000D03*
%TO.N,Board_17-Net-(JP1-B)*%
X43845000Y38485000D03*
%TO.N,Board_17-Net-(JP2-B)*%
X43245000Y36675000D03*
%TO.N,Board_17-Net-(JP3-B)*%
X44465000Y34745000D03*
%TO.N,Board_17-Net-(MB1-CLK)*%
X58445000Y33315000D03*
%TO.N,Board_17-Net-(MB1-SDA)*%
X50185000Y34735000D03*
X52195000Y34695000D03*
%TO.N,Board_18-+3V3*%
X65105000Y38525000D03*
%TO.N,Board_18-GND*%
X78425000Y41015000D03*
X63435000Y34735000D03*
%TO.N,Board_18-Net-(JP1-B)*%
X63845000Y38485000D03*
%TO.N,Board_18-Net-(JP2-B)*%
X63245000Y36675000D03*
%TO.N,Board_18-Net-(JP3-B)*%
X64465000Y34745000D03*
%TO.N,Board_18-Net-(MB1-CLK)*%
X78445000Y33315000D03*
%TO.N,Board_18-Net-(MB1-SDA)*%
X72195000Y34695000D03*
X70185000Y34735000D03*
%TO.N,Board_19-+3V3*%
X85105000Y38525000D03*
%TO.N,Board_19-GND*%
X83435000Y34735000D03*
X98425000Y41015000D03*
%TO.N,Board_19-Net-(JP1-B)*%
X83845000Y38485000D03*
%TO.N,Board_19-Net-(JP2-B)*%
X83245000Y36675000D03*
%TO.N,Board_19-Net-(JP3-B)*%
X84465000Y34745000D03*
%TO.N,Board_19-Net-(MB1-CLK)*%
X98445000Y33315000D03*
%TO.N,Board_19-Net-(MB1-SDA)*%
X92195000Y34695000D03*
X90185000Y34735000D03*
%TO.N,Board_20-+3V3*%
X5105000Y18525000D03*
%TO.N,Board_20-GND*%
X18425000Y21015000D03*
X3435000Y14735000D03*
%TO.N,Board_20-Net-(JP1-B)*%
X3845000Y18485000D03*
%TO.N,Board_20-Net-(JP2-B)*%
X3245000Y16675000D03*
%TO.N,Board_20-Net-(JP3-B)*%
X4465000Y14745000D03*
%TO.N,Board_20-Net-(MB1-CLK)*%
X18445000Y13315000D03*
%TO.N,Board_20-Net-(MB1-SDA)*%
X12195000Y14695000D03*
X10185000Y14735000D03*
%TO.N,Board_21-+3V3*%
X25105000Y18525000D03*
%TO.N,Board_21-GND*%
X38425000Y21015000D03*
X23435000Y14735000D03*
%TO.N,Board_21-Net-(JP1-B)*%
X23845000Y18485000D03*
%TO.N,Board_21-Net-(JP2-B)*%
X23245000Y16675000D03*
%TO.N,Board_21-Net-(JP3-B)*%
X24465000Y14745000D03*
%TO.N,Board_21-Net-(MB1-CLK)*%
X38445000Y13315000D03*
%TO.N,Board_21-Net-(MB1-SDA)*%
X32195000Y14695000D03*
X30185000Y14735000D03*
%TO.N,Board_22-+3V3*%
X45105000Y18525000D03*
%TO.N,Board_22-GND*%
X58425000Y21015000D03*
X43435000Y14735000D03*
%TO.N,Board_22-Net-(JP1-B)*%
X43845000Y18485000D03*
%TO.N,Board_22-Net-(JP2-B)*%
X43245000Y16675000D03*
%TO.N,Board_22-Net-(JP3-B)*%
X44465000Y14745000D03*
%TO.N,Board_22-Net-(MB1-CLK)*%
X58445000Y13315000D03*
%TO.N,Board_22-Net-(MB1-SDA)*%
X52195000Y14695000D03*
X50185000Y14735000D03*
%TO.N,Board_23-+3V3*%
X65105000Y18525000D03*
%TO.N,Board_23-GND*%
X63435000Y14735000D03*
X78425000Y21015000D03*
%TO.N,Board_23-Net-(JP1-B)*%
X63845000Y18485000D03*
%TO.N,Board_23-Net-(JP2-B)*%
X63245000Y16675000D03*
%TO.N,Board_23-Net-(JP3-B)*%
X64465000Y14745000D03*
%TO.N,Board_23-Net-(MB1-CLK)*%
X78445000Y13315000D03*
%TO.N,Board_23-Net-(MB1-SDA)*%
X70185000Y14735000D03*
X72195000Y14695000D03*
%TO.N,Board_24-+3V3*%
X85105000Y18525000D03*
%TO.N,Board_24-GND*%
X98425000Y21015000D03*
X83435000Y14735000D03*
%TO.N,Board_24-Net-(JP1-B)*%
X83845000Y18485000D03*
%TO.N,Board_24-Net-(JP2-B)*%
X83245000Y16675000D03*
%TO.N,Board_24-Net-(JP3-B)*%
X84465000Y14745000D03*
%TO.N,Board_24-Net-(MB1-CLK)*%
X98445000Y13315000D03*
%TO.N,Board_24-Net-(MB1-SDA)*%
X90185000Y14735000D03*
X92195000Y14695000D03*
%TD*%
D16*
%TO.N,Board_0-+3V3*%
X5105000Y98525000D02*
X6725000Y98525000D01*
%TO.N,Board_0-GND*%
X3400857Y94715000D02*
X1775000Y94715000D01*
X3435000Y94735000D02*
X3425000Y94725000D01*
X18425000Y101015000D02*
X18425000Y99760000D01*
D17*
X18745000Y88255000D02*
X18890000Y88110000D01*
D16*
X3425000Y94725000D02*
G75*
G02*
X3400857Y94715017I-24100J24100D01*
G01*
%TO.N,Board_0-Net-(D1-A)*%
X18425000Y96304143D02*
X18425000Y97885000D01*
X18435000Y96280000D02*
X18445000Y96270000D01*
X18435000Y96280000D02*
G75*
G02*
X18425017Y96304143I24100J24100D01*
G01*
%TO.N,Board_0-Net-(JP1-B)*%
X3776715Y98525000D02*
X1775000Y98525000D01*
X3825000Y98505000D02*
X3845000Y98485000D01*
X3825000Y98505000D02*
G75*
G03*
X3776715Y98525007I-48300J-48300D01*
G01*
%TO.N,Board_0-Net-(JP2-B)*%
X2254878Y97255000D02*
X1775000Y97255000D01*
X2955000Y96965000D02*
X3245000Y96675000D01*
X2254878Y97255000D02*
G75*
G02*
X2955006Y96965006I22J-990100D01*
G01*
%TO.N,Board_0-Net-(JP3-B)*%
X3994999Y95215001D02*
X4465000Y94745000D01*
X1924999Y95835001D02*
X1775000Y95985000D01*
X2860317Y95685001D02*
X2287130Y95685001D01*
X2860317Y95685001D02*
G75*
G02*
X3994994Y95214996I-17J-1604701D01*
G01*
X1924999Y95835001D02*
G75*
G03*
X2287130Y95685013I362101J362099D01*
G01*
%TO.N,Board_0-Net-(MB1-CLK)*%
X18445000Y93315000D02*
X18445000Y94620000D01*
%TO.N,Board_0-Net-(MB1-SCL)*%
X9554357Y95985000D02*
X6725000Y95985000D01*
X11270000Y94269358D02*
X11270000Y88110000D01*
X10767500Y95482500D02*
G75*
G02*
X11269982Y94269358I-1213100J-1213100D01*
G01*
X10767500Y95482500D02*
G75*
G03*
X9554357Y95984982I-1213100J-1213100D01*
G01*
%TO.N,Board_0-Net-(MB1-SDA)*%
X13810000Y93662201D02*
X13810000Y88110000D01*
X10150857Y94715000D02*
X6725000Y94715000D01*
X12777200Y94695000D02*
X12195000Y94695000D01*
X10185000Y94735000D02*
X10175000Y94725000D01*
X10150857Y94715000D02*
G75*
G03*
X10175012Y94724988I43J34100D01*
G01*
X12777200Y94695000D02*
G75*
G02*
X13507500Y94392500I0J-1032800D01*
G01*
X13810000Y93662201D02*
G75*
G03*
X13507500Y94392500I-1032800J-1D01*
G01*
%TO.N,Board_1-+3V3*%
X25105000Y98525000D02*
X26725000Y98525000D01*
%TO.N,Board_1-GND*%
X23435000Y94735000D02*
X23425000Y94725000D01*
D17*
X38745000Y88255000D02*
X38890000Y88110000D01*
D16*
X23400857Y94715000D02*
X21775000Y94715000D01*
X38425000Y101015000D02*
X38425000Y99760000D01*
X23425000Y94725000D02*
G75*
G02*
X23400857Y94715017I-24100J24100D01*
G01*
%TO.N,Board_1-Net-(D1-A)*%
X38425000Y96304143D02*
X38425000Y97885000D01*
X38435000Y96280000D02*
X38445000Y96270000D01*
X38435000Y96280000D02*
G75*
G02*
X38425017Y96304143I24100J24100D01*
G01*
%TO.N,Board_1-Net-(JP1-B)*%
X23825000Y98505000D02*
X23845000Y98485000D01*
X23776715Y98525000D02*
X21775000Y98525000D01*
X23825000Y98505000D02*
G75*
G03*
X23776715Y98525007I-48300J-48300D01*
G01*
%TO.N,Board_1-Net-(JP2-B)*%
X22955000Y96965000D02*
X23245000Y96675000D01*
X22254878Y97255000D02*
X21775000Y97255000D01*
X22254878Y97255000D02*
G75*
G02*
X22955006Y96965006I22J-990100D01*
G01*
%TO.N,Board_1-Net-(JP3-B)*%
X23994999Y95215001D02*
X24465000Y94745000D01*
X21924999Y95835001D02*
X21775000Y95985000D01*
X22860317Y95685001D02*
X22287130Y95685001D01*
X21924999Y95835001D02*
G75*
G03*
X22287130Y95685013I362101J362099D01*
G01*
X22860317Y95685001D02*
G75*
G02*
X23994994Y95214996I-17J-1604701D01*
G01*
%TO.N,Board_1-Net-(MB1-CLK)*%
X38445000Y93315000D02*
X38445000Y94620000D01*
%TO.N,Board_1-Net-(MB1-SCL)*%
X29554357Y95985000D02*
X26725000Y95985000D01*
X31270000Y94269358D02*
X31270000Y88110000D01*
X30767500Y95482500D02*
G75*
G02*
X31269982Y94269358I-1213100J-1213100D01*
G01*
X30767500Y95482500D02*
G75*
G03*
X29554357Y95984982I-1213100J-1213100D01*
G01*
%TO.N,Board_1-Net-(MB1-SDA)*%
X32777200Y94695000D02*
X32195000Y94695000D01*
X33810000Y93662201D02*
X33810000Y88110000D01*
X30185000Y94735000D02*
X30175000Y94725000D01*
X30150857Y94715000D02*
X26725000Y94715000D01*
X33810000Y93662201D02*
G75*
G03*
X33507500Y94392500I-1032800J-1D01*
G01*
X32777200Y94695000D02*
G75*
G02*
X33507500Y94392500I0J-1032800D01*
G01*
X30150857Y94715000D02*
G75*
G03*
X30175012Y94724988I43J34100D01*
G01*
%TO.N,Board_2-+3V3*%
X45105000Y98525000D02*
X46725000Y98525000D01*
%TO.N,Board_2-GND*%
X58425000Y101015000D02*
X58425000Y99760000D01*
D17*
X58745000Y88255000D02*
X58890000Y88110000D01*
D16*
X43400857Y94715000D02*
X41775000Y94715000D01*
X43435000Y94735000D02*
X43425000Y94725000D01*
X43425000Y94725000D02*
G75*
G02*
X43400857Y94715017I-24100J24100D01*
G01*
%TO.N,Board_2-Net-(D1-A)*%
X58425000Y96304143D02*
X58425000Y97885000D01*
X58435000Y96280000D02*
X58445000Y96270000D01*
X58435000Y96280000D02*
G75*
G02*
X58425017Y96304143I24100J24100D01*
G01*
%TO.N,Board_2-Net-(JP1-B)*%
X43825000Y98505000D02*
X43845000Y98485000D01*
X43776715Y98525000D02*
X41775000Y98525000D01*
X43825000Y98505000D02*
G75*
G03*
X43776715Y98525007I-48300J-48300D01*
G01*
%TO.N,Board_2-Net-(JP2-B)*%
X42254878Y97255000D02*
X41775000Y97255000D01*
X42955000Y96965000D02*
X43245000Y96675000D01*
X42254878Y97255000D02*
G75*
G02*
X42955006Y96965006I22J-990100D01*
G01*
%TO.N,Board_2-Net-(JP3-B)*%
X43994999Y95215001D02*
X44465000Y94745000D01*
X42860317Y95685001D02*
X42287130Y95685001D01*
X41924999Y95835001D02*
X41775000Y95985000D01*
X41924999Y95835001D02*
G75*
G03*
X42287130Y95685013I362101J362099D01*
G01*
X42860317Y95685001D02*
G75*
G02*
X43994994Y95214996I-17J-1604701D01*
G01*
%TO.N,Board_2-Net-(MB1-CLK)*%
X58445000Y93315000D02*
X58445000Y94620000D01*
%TO.N,Board_2-Net-(MB1-SCL)*%
X51270000Y94269358D02*
X51270000Y88110000D01*
X49554357Y95985000D02*
X46725000Y95985000D01*
X50767500Y95482500D02*
G75*
G03*
X49554357Y95984982I-1213100J-1213100D01*
G01*
X50767500Y95482500D02*
G75*
G02*
X51269982Y94269358I-1213100J-1213100D01*
G01*
%TO.N,Board_2-Net-(MB1-SDA)*%
X53810000Y93662201D02*
X53810000Y88110000D01*
X50185000Y94735000D02*
X50175000Y94725000D01*
X50150857Y94715000D02*
X46725000Y94715000D01*
X52777200Y94695000D02*
X52195000Y94695000D01*
X52777200Y94695000D02*
G75*
G02*
X53507500Y94392500I0J-1032800D01*
G01*
X53810000Y93662201D02*
G75*
G03*
X53507500Y94392500I-1032800J-1D01*
G01*
X50150857Y94715000D02*
G75*
G03*
X50175012Y94724988I43J34100D01*
G01*
%TO.N,Board_3-+3V3*%
X65105000Y98525000D02*
X66725000Y98525000D01*
D17*
%TO.N,Board_3-GND*%
X78745000Y88255000D02*
X78890000Y88110000D01*
D16*
X78425000Y101015000D02*
X78425000Y99760000D01*
X63400857Y94715000D02*
X61775000Y94715000D01*
X63435000Y94735000D02*
X63425000Y94725000D01*
X63425000Y94725000D02*
G75*
G02*
X63400857Y94715017I-24100J24100D01*
G01*
%TO.N,Board_3-Net-(D1-A)*%
X78425000Y96304143D02*
X78425000Y97885000D01*
X78435000Y96280000D02*
X78445000Y96270000D01*
X78435000Y96280000D02*
G75*
G02*
X78425017Y96304143I24100J24100D01*
G01*
%TO.N,Board_3-Net-(JP1-B)*%
X63825000Y98505000D02*
X63845000Y98485000D01*
X63776715Y98525000D02*
X61775000Y98525000D01*
X63825000Y98505000D02*
G75*
G03*
X63776715Y98525007I-48300J-48300D01*
G01*
%TO.N,Board_3-Net-(JP2-B)*%
X62254878Y97255000D02*
X61775000Y97255000D01*
X62955000Y96965000D02*
X63245000Y96675000D01*
X62254878Y97255000D02*
G75*
G02*
X62955006Y96965006I22J-990100D01*
G01*
%TO.N,Board_3-Net-(JP3-B)*%
X62860317Y95685001D02*
X62287130Y95685001D01*
X61924999Y95835001D02*
X61775000Y95985000D01*
X63994999Y95215001D02*
X64465000Y94745000D01*
X61924999Y95835001D02*
G75*
G03*
X62287130Y95685013I362101J362099D01*
G01*
X62860317Y95685001D02*
G75*
G02*
X63994994Y95214996I-17J-1604701D01*
G01*
%TO.N,Board_3-Net-(MB1-CLK)*%
X78445000Y93315000D02*
X78445000Y94620000D01*
%TO.N,Board_3-Net-(MB1-SCL)*%
X71270000Y94269358D02*
X71270000Y88110000D01*
X69554357Y95985000D02*
X66725000Y95985000D01*
X70767500Y95482500D02*
G75*
G03*
X69554357Y95984982I-1213100J-1213100D01*
G01*
X70767500Y95482500D02*
G75*
G02*
X71269982Y94269358I-1213100J-1213100D01*
G01*
%TO.N,Board_3-Net-(MB1-SDA)*%
X70150857Y94715000D02*
X66725000Y94715000D01*
X72777200Y94695000D02*
X72195000Y94695000D01*
X70185000Y94735000D02*
X70175000Y94725000D01*
X73810000Y93662201D02*
X73810000Y88110000D01*
X72777200Y94695000D02*
G75*
G02*
X73507500Y94392500I0J-1032800D01*
G01*
X70150857Y94715000D02*
G75*
G03*
X70175012Y94724988I43J34100D01*
G01*
X73810000Y93662201D02*
G75*
G03*
X73507500Y94392500I-1032800J-1D01*
G01*
%TO.N,Board_4-+3V3*%
X85105000Y98525000D02*
X86725000Y98525000D01*
%TO.N,Board_4-GND*%
X83400857Y94715000D02*
X81775000Y94715000D01*
X83435000Y94735000D02*
X83425000Y94725000D01*
D17*
X98745000Y88255000D02*
X98890000Y88110000D01*
D16*
X98425000Y101015000D02*
X98425000Y99760000D01*
X83425000Y94725000D02*
G75*
G02*
X83400857Y94715017I-24100J24100D01*
G01*
%TO.N,Board_4-Net-(D1-A)*%
X98435000Y96280000D02*
X98445000Y96270000D01*
X98425000Y96304143D02*
X98425000Y97885000D01*
X98435000Y96280000D02*
G75*
G02*
X98425017Y96304143I24100J24100D01*
G01*
%TO.N,Board_4-Net-(JP1-B)*%
X83776715Y98525000D02*
X81775000Y98525000D01*
X83825000Y98505000D02*
X83845000Y98485000D01*
X83825000Y98505000D02*
G75*
G03*
X83776715Y98525007I-48300J-48300D01*
G01*
%TO.N,Board_4-Net-(JP2-B)*%
X82955000Y96965000D02*
X83245000Y96675000D01*
X82254878Y97255000D02*
X81775000Y97255000D01*
X82254878Y97255000D02*
G75*
G02*
X82955006Y96965006I22J-990100D01*
G01*
%TO.N,Board_4-Net-(JP3-B)*%
X83994999Y95215001D02*
X84465000Y94745000D01*
X82860317Y95685001D02*
X82287130Y95685001D01*
X81924999Y95835001D02*
X81775000Y95985000D01*
X82860317Y95685001D02*
G75*
G02*
X83994994Y95214996I-17J-1604701D01*
G01*
X81924999Y95835001D02*
G75*
G03*
X82287130Y95685013I362101J362099D01*
G01*
%TO.N,Board_4-Net-(MB1-CLK)*%
X98445000Y93315000D02*
X98445000Y94620000D01*
%TO.N,Board_4-Net-(MB1-SCL)*%
X89554357Y95985000D02*
X86725000Y95985000D01*
X91270000Y94269358D02*
X91270000Y88110000D01*
X90767500Y95482500D02*
G75*
G02*
X91269982Y94269358I-1213100J-1213100D01*
G01*
X90767500Y95482500D02*
G75*
G03*
X89554357Y95984982I-1213100J-1213100D01*
G01*
%TO.N,Board_4-Net-(MB1-SDA)*%
X90185000Y94735000D02*
X90175000Y94725000D01*
X90150857Y94715000D02*
X86725000Y94715000D01*
X93810000Y93662201D02*
X93810000Y88110000D01*
X92777200Y94695000D02*
X92195000Y94695000D01*
X92777200Y94695000D02*
G75*
G02*
X93507500Y94392500I0J-1032800D01*
G01*
X90150857Y94715000D02*
G75*
G03*
X90175012Y94724988I43J34100D01*
G01*
X93810000Y93662201D02*
G75*
G03*
X93507500Y94392500I-1032800J-1D01*
G01*
%TO.N,Board_5-+3V3*%
X5105000Y78525000D02*
X6725000Y78525000D01*
%TO.N,Board_5-GND*%
X3400857Y74715000D02*
X1775000Y74715000D01*
X3435000Y74735000D02*
X3425000Y74725000D01*
D17*
X18745000Y68255000D02*
X18890000Y68110000D01*
D16*
X18425000Y81015000D02*
X18425000Y79760000D01*
X3425000Y74725000D02*
G75*
G02*
X3400857Y74715017I-24100J24100D01*
G01*
%TO.N,Board_5-Net-(D1-A)*%
X18425000Y76304143D02*
X18425000Y77885000D01*
X18435000Y76280000D02*
X18445000Y76270000D01*
X18435000Y76280000D02*
G75*
G02*
X18425017Y76304143I24100J24100D01*
G01*
%TO.N,Board_5-Net-(JP1-B)*%
X3825000Y78505000D02*
X3845000Y78485000D01*
X3776715Y78525000D02*
X1775000Y78525000D01*
X3825000Y78505000D02*
G75*
G03*
X3776715Y78525007I-48300J-48300D01*
G01*
%TO.N,Board_5-Net-(JP2-B)*%
X2254878Y77255000D02*
X1775000Y77255000D01*
X2955000Y76965000D02*
X3245000Y76675000D01*
X2254878Y77255000D02*
G75*
G02*
X2955006Y76965006I22J-990100D01*
G01*
%TO.N,Board_5-Net-(JP3-B)*%
X2860317Y75685001D02*
X2287130Y75685001D01*
X1924999Y75835001D02*
X1775000Y75985000D01*
X3994999Y75215001D02*
X4465000Y74745000D01*
X1924999Y75835001D02*
G75*
G03*
X2287130Y75685013I362101J362099D01*
G01*
X2860317Y75685001D02*
G75*
G02*
X3994994Y75214996I-17J-1604701D01*
G01*
%TO.N,Board_5-Net-(MB1-CLK)*%
X18445000Y73315000D02*
X18445000Y74620000D01*
%TO.N,Board_5-Net-(MB1-SCL)*%
X9554357Y75985000D02*
X6725000Y75985000D01*
X11270000Y74269358D02*
X11270000Y68110000D01*
X10767500Y75482500D02*
G75*
G03*
X9554357Y75984982I-1213100J-1213100D01*
G01*
X10767500Y75482500D02*
G75*
G02*
X11269982Y74269358I-1213100J-1213100D01*
G01*
%TO.N,Board_5-Net-(MB1-SDA)*%
X10150857Y74715000D02*
X6725000Y74715000D01*
X13810000Y73662201D02*
X13810000Y68110000D01*
X12777200Y74695000D02*
X12195000Y74695000D01*
X10185000Y74735000D02*
X10175000Y74725000D01*
X12777200Y74695000D02*
G75*
G02*
X13507500Y74392500I0J-1032800D01*
G01*
X13810000Y73662201D02*
G75*
G03*
X13507500Y74392500I-1032800J-1D01*
G01*
X10150857Y74715000D02*
G75*
G03*
X10175012Y74724988I43J34100D01*
G01*
%TO.N,Board_6-+3V3*%
X25105000Y78525000D02*
X26725000Y78525000D01*
%TO.N,Board_6-GND*%
X23400857Y74715000D02*
X21775000Y74715000D01*
X38425000Y81015000D02*
X38425000Y79760000D01*
D17*
X38745000Y68255000D02*
X38890000Y68110000D01*
D16*
X23435000Y74735000D02*
X23425000Y74725000D01*
X23425000Y74725000D02*
G75*
G02*
X23400857Y74715017I-24100J24100D01*
G01*
%TO.N,Board_6-Net-(D1-A)*%
X38425000Y76304143D02*
X38425000Y77885000D01*
X38435000Y76280000D02*
X38445000Y76270000D01*
X38435000Y76280000D02*
G75*
G02*
X38425017Y76304143I24100J24100D01*
G01*
%TO.N,Board_6-Net-(JP1-B)*%
X23825000Y78505000D02*
X23845000Y78485000D01*
X23776715Y78525000D02*
X21775000Y78525000D01*
X23825000Y78505000D02*
G75*
G03*
X23776715Y78525007I-48300J-48300D01*
G01*
%TO.N,Board_6-Net-(JP2-B)*%
X22254878Y77255000D02*
X21775000Y77255000D01*
X22955000Y76965000D02*
X23245000Y76675000D01*
X22254878Y77255000D02*
G75*
G02*
X22955006Y76965006I22J-990100D01*
G01*
%TO.N,Board_6-Net-(JP3-B)*%
X22860317Y75685001D02*
X22287130Y75685001D01*
X21924999Y75835001D02*
X21775000Y75985000D01*
X23994999Y75215001D02*
X24465000Y74745000D01*
X21924999Y75835001D02*
G75*
G03*
X22287130Y75685013I362101J362099D01*
G01*
X22860317Y75685001D02*
G75*
G02*
X23994994Y75214996I-17J-1604701D01*
G01*
%TO.N,Board_6-Net-(MB1-CLK)*%
X38445000Y73315000D02*
X38445000Y74620000D01*
%TO.N,Board_6-Net-(MB1-SCL)*%
X29554357Y75985000D02*
X26725000Y75985000D01*
X31270000Y74269358D02*
X31270000Y68110000D01*
X30767500Y75482500D02*
G75*
G02*
X31269982Y74269358I-1213100J-1213100D01*
G01*
X30767500Y75482500D02*
G75*
G03*
X29554357Y75984982I-1213100J-1213100D01*
G01*
%TO.N,Board_6-Net-(MB1-SDA)*%
X33810000Y73662201D02*
X33810000Y68110000D01*
X30150857Y74715000D02*
X26725000Y74715000D01*
X30185000Y74735000D02*
X30175000Y74725000D01*
X32777200Y74695000D02*
X32195000Y74695000D01*
X33810000Y73662201D02*
G75*
G03*
X33507500Y74392500I-1032800J-1D01*
G01*
X32777200Y74695000D02*
G75*
G02*
X33507500Y74392500I0J-1032800D01*
G01*
X30150857Y74715000D02*
G75*
G03*
X30175012Y74724988I43J34100D01*
G01*
%TO.N,Board_7-+3V3*%
X45105000Y78525000D02*
X46725000Y78525000D01*
D17*
%TO.N,Board_7-GND*%
X58745000Y68255000D02*
X58890000Y68110000D01*
D16*
X43400857Y74715000D02*
X41775000Y74715000D01*
X43435000Y74735000D02*
X43425000Y74725000D01*
X58425000Y81015000D02*
X58425000Y79760000D01*
X43425000Y74725000D02*
G75*
G02*
X43400857Y74715017I-24100J24100D01*
G01*
%TO.N,Board_7-Net-(D1-A)*%
X58435000Y76280000D02*
X58445000Y76270000D01*
X58425000Y76304143D02*
X58425000Y77885000D01*
X58435000Y76280000D02*
G75*
G02*
X58425017Y76304143I24100J24100D01*
G01*
%TO.N,Board_7-Net-(JP1-B)*%
X43825000Y78505000D02*
X43845000Y78485000D01*
X43776715Y78525000D02*
X41775000Y78525000D01*
X43825000Y78505000D02*
G75*
G03*
X43776715Y78525007I-48300J-48300D01*
G01*
%TO.N,Board_7-Net-(JP2-B)*%
X42955000Y76965000D02*
X43245000Y76675000D01*
X42254878Y77255000D02*
X41775000Y77255000D01*
X42254878Y77255000D02*
G75*
G02*
X42955006Y76965006I22J-990100D01*
G01*
%TO.N,Board_7-Net-(JP3-B)*%
X42860317Y75685001D02*
X42287130Y75685001D01*
X41924999Y75835001D02*
X41775000Y75985000D01*
X43994999Y75215001D02*
X44465000Y74745000D01*
X42860317Y75685001D02*
G75*
G02*
X43994994Y75214996I-17J-1604701D01*
G01*
X41924999Y75835001D02*
G75*
G03*
X42287130Y75685013I362101J362099D01*
G01*
%TO.N,Board_7-Net-(MB1-CLK)*%
X58445000Y73315000D02*
X58445000Y74620000D01*
%TO.N,Board_7-Net-(MB1-SCL)*%
X51270000Y74269358D02*
X51270000Y68110000D01*
X49554357Y75985000D02*
X46725000Y75985000D01*
X50767500Y75482500D02*
G75*
G03*
X49554357Y75984982I-1213100J-1213100D01*
G01*
X50767500Y75482500D02*
G75*
G02*
X51269982Y74269358I-1213100J-1213100D01*
G01*
%TO.N,Board_7-Net-(MB1-SDA)*%
X50150857Y74715000D02*
X46725000Y74715000D01*
X50185000Y74735000D02*
X50175000Y74725000D01*
X52777200Y74695000D02*
X52195000Y74695000D01*
X53810000Y73662201D02*
X53810000Y68110000D01*
X50150857Y74715000D02*
G75*
G03*
X50175012Y74724988I43J34100D01*
G01*
X52777200Y74695000D02*
G75*
G02*
X53507500Y74392500I0J-1032800D01*
G01*
X53810000Y73662201D02*
G75*
G03*
X53507500Y74392500I-1032800J-1D01*
G01*
%TO.N,Board_8-+3V3*%
X65105000Y78525000D02*
X66725000Y78525000D01*
%TO.N,Board_8-GND*%
X63435000Y74735000D02*
X63425000Y74725000D01*
X63400857Y74715000D02*
X61775000Y74715000D01*
D17*
X78745000Y68255000D02*
X78890000Y68110000D01*
D16*
X78425000Y81015000D02*
X78425000Y79760000D01*
X63425000Y74725000D02*
G75*
G02*
X63400857Y74715017I-24100J24100D01*
G01*
%TO.N,Board_8-Net-(D1-A)*%
X78435000Y76280000D02*
X78445000Y76270000D01*
X78425000Y76304143D02*
X78425000Y77885000D01*
X78435000Y76280000D02*
G75*
G02*
X78425017Y76304143I24100J24100D01*
G01*
%TO.N,Board_8-Net-(JP1-B)*%
X63776715Y78525000D02*
X61775000Y78525000D01*
X63825000Y78505000D02*
X63845000Y78485000D01*
X63825000Y78505000D02*
G75*
G03*
X63776715Y78525007I-48300J-48300D01*
G01*
%TO.N,Board_8-Net-(JP2-B)*%
X62254878Y77255000D02*
X61775000Y77255000D01*
X62955000Y76965000D02*
X63245000Y76675000D01*
X62254878Y77255000D02*
G75*
G02*
X62955006Y76965006I22J-990100D01*
G01*
%TO.N,Board_8-Net-(JP3-B)*%
X61924999Y75835001D02*
X61775000Y75985000D01*
X63994999Y75215001D02*
X64465000Y74745000D01*
X62860317Y75685001D02*
X62287130Y75685001D01*
X62860317Y75685001D02*
G75*
G02*
X63994994Y75214996I-17J-1604701D01*
G01*
X61924999Y75835001D02*
G75*
G03*
X62287130Y75685013I362101J362099D01*
G01*
%TO.N,Board_8-Net-(MB1-CLK)*%
X78445000Y73315000D02*
X78445000Y74620000D01*
%TO.N,Board_8-Net-(MB1-SCL)*%
X71270000Y74269358D02*
X71270000Y68110000D01*
X69554357Y75985000D02*
X66725000Y75985000D01*
X70767500Y75482500D02*
G75*
G03*
X69554357Y75984982I-1213100J-1213100D01*
G01*
X70767500Y75482500D02*
G75*
G02*
X71269982Y74269358I-1213100J-1213100D01*
G01*
%TO.N,Board_8-Net-(MB1-SDA)*%
X73810000Y73662201D02*
X73810000Y68110000D01*
X72777200Y74695000D02*
X72195000Y74695000D01*
X70185000Y74735000D02*
X70175000Y74725000D01*
X70150857Y74715000D02*
X66725000Y74715000D01*
X70150857Y74715000D02*
G75*
G03*
X70175012Y74724988I43J34100D01*
G01*
X73810000Y73662201D02*
G75*
G03*
X73507500Y74392500I-1032800J-1D01*
G01*
X72777200Y74695000D02*
G75*
G02*
X73507500Y74392500I0J-1032800D01*
G01*
%TO.N,Board_9-+3V3*%
X85105000Y78525000D02*
X86725000Y78525000D01*
%TO.N,Board_9-GND*%
X83435000Y74735000D02*
X83425000Y74725000D01*
X83400857Y74715000D02*
X81775000Y74715000D01*
D17*
X98745000Y68255000D02*
X98890000Y68110000D01*
D16*
X98425000Y81015000D02*
X98425000Y79760000D01*
X83425000Y74725000D02*
G75*
G02*
X83400857Y74715017I-24100J24100D01*
G01*
%TO.N,Board_9-Net-(D1-A)*%
X98435000Y76280000D02*
X98445000Y76270000D01*
X98425000Y76304143D02*
X98425000Y77885000D01*
X98435000Y76280000D02*
G75*
G02*
X98425017Y76304143I24100J24100D01*
G01*
%TO.N,Board_9-Net-(JP1-B)*%
X83776715Y78525000D02*
X81775000Y78525000D01*
X83825000Y78505000D02*
X83845000Y78485000D01*
X83825000Y78505000D02*
G75*
G03*
X83776715Y78525007I-48300J-48300D01*
G01*
%TO.N,Board_9-Net-(JP2-B)*%
X82254878Y77255000D02*
X81775000Y77255000D01*
X82955000Y76965000D02*
X83245000Y76675000D01*
X82254878Y77255000D02*
G75*
G02*
X82955006Y76965006I22J-990100D01*
G01*
%TO.N,Board_9-Net-(JP3-B)*%
X81924999Y75835001D02*
X81775000Y75985000D01*
X82860317Y75685001D02*
X82287130Y75685001D01*
X83994999Y75215001D02*
X84465000Y74745000D01*
X81924999Y75835001D02*
G75*
G03*
X82287130Y75685013I362101J362099D01*
G01*
X82860317Y75685001D02*
G75*
G02*
X83994994Y75214996I-17J-1604701D01*
G01*
%TO.N,Board_9-Net-(MB1-CLK)*%
X98445000Y73315000D02*
X98445000Y74620000D01*
%TO.N,Board_9-Net-(MB1-SCL)*%
X89554357Y75985000D02*
X86725000Y75985000D01*
X91270000Y74269358D02*
X91270000Y68110000D01*
X90767500Y75482500D02*
G75*
G02*
X91269982Y74269358I-1213100J-1213100D01*
G01*
X90767500Y75482500D02*
G75*
G03*
X89554357Y75984982I-1213100J-1213100D01*
G01*
%TO.N,Board_9-Net-(MB1-SDA)*%
X92777200Y74695000D02*
X92195000Y74695000D01*
X90150857Y74715000D02*
X86725000Y74715000D01*
X90185000Y74735000D02*
X90175000Y74725000D01*
X93810000Y73662201D02*
X93810000Y68110000D01*
X93810000Y73662201D02*
G75*
G03*
X93507500Y74392500I-1032800J-1D01*
G01*
X92777200Y74695000D02*
G75*
G02*
X93507500Y74392500I0J-1032800D01*
G01*
X90150857Y74715000D02*
G75*
G03*
X90175012Y74724988I43J34100D01*
G01*
%TO.N,Board_10-+3V3*%
X5105000Y58525000D02*
X6725000Y58525000D01*
D17*
%TO.N,Board_10-GND*%
X18745000Y48255000D02*
X18890000Y48110000D01*
D16*
X3400857Y54715000D02*
X1775000Y54715000D01*
X18425000Y61015000D02*
X18425000Y59760000D01*
X3435000Y54735000D02*
X3425000Y54725000D01*
X3425000Y54725000D02*
G75*
G02*
X3400857Y54715017I-24100J24100D01*
G01*
%TO.N,Board_10-Net-(D1-A)*%
X18435000Y56280000D02*
X18445000Y56270000D01*
X18425000Y56304143D02*
X18425000Y57885000D01*
X18435000Y56280000D02*
G75*
G02*
X18425017Y56304143I24100J24100D01*
G01*
%TO.N,Board_10-Net-(JP1-B)*%
X3776715Y58525000D02*
X1775000Y58525000D01*
X3825000Y58505000D02*
X3845000Y58485000D01*
X3825000Y58505000D02*
G75*
G03*
X3776715Y58525007I-48300J-48300D01*
G01*
%TO.N,Board_10-Net-(JP2-B)*%
X2955000Y56965000D02*
X3245000Y56675000D01*
X2254878Y57255000D02*
X1775000Y57255000D01*
X2254878Y57255000D02*
G75*
G02*
X2955006Y56965006I22J-990100D01*
G01*
%TO.N,Board_10-Net-(JP3-B)*%
X3994999Y55215001D02*
X4465000Y54745000D01*
X2860317Y55685001D02*
X2287130Y55685001D01*
X1924999Y55835001D02*
X1775000Y55985000D01*
X2860317Y55685001D02*
G75*
G02*
X3994994Y55214996I-17J-1604701D01*
G01*
X1924999Y55835001D02*
G75*
G03*
X2287130Y55685013I362101J362099D01*
G01*
%TO.N,Board_10-Net-(MB1-CLK)*%
X18445000Y53315000D02*
X18445000Y54620000D01*
%TO.N,Board_10-Net-(MB1-SCL)*%
X11270000Y54269358D02*
X11270000Y48110000D01*
X9554357Y55985000D02*
X6725000Y55985000D01*
X10767500Y55482500D02*
G75*
G03*
X9554357Y55984982I-1213100J-1213100D01*
G01*
X10767500Y55482500D02*
G75*
G02*
X11269982Y54269358I-1213100J-1213100D01*
G01*
%TO.N,Board_10-Net-(MB1-SDA)*%
X10185000Y54735000D02*
X10175000Y54725000D01*
X10150857Y54715000D02*
X6725000Y54715000D01*
X12777200Y54695000D02*
X12195000Y54695000D01*
X13810000Y53662201D02*
X13810000Y48110000D01*
X10150857Y54715000D02*
G75*
G03*
X10175012Y54724988I43J34100D01*
G01*
X12777200Y54695000D02*
G75*
G02*
X13507500Y54392500I0J-1032800D01*
G01*
X13810000Y53662201D02*
G75*
G03*
X13507500Y54392500I-1032800J-1D01*
G01*
%TO.N,Board_11-+3V3*%
X25105000Y58525000D02*
X26725000Y58525000D01*
%TO.N,Board_11-GND*%
X23400857Y54715000D02*
X21775000Y54715000D01*
X38425000Y61015000D02*
X38425000Y59760000D01*
X23435000Y54735000D02*
X23425000Y54725000D01*
D17*
X38745000Y48255000D02*
X38890000Y48110000D01*
D16*
X23425000Y54725000D02*
G75*
G02*
X23400857Y54715017I-24100J24100D01*
G01*
%TO.N,Board_11-Net-(D1-A)*%
X38435000Y56280000D02*
X38445000Y56270000D01*
X38425000Y56304143D02*
X38425000Y57885000D01*
X38435000Y56280000D02*
G75*
G02*
X38425017Y56304143I24100J24100D01*
G01*
%TO.N,Board_11-Net-(JP1-B)*%
X23825000Y58505000D02*
X23845000Y58485000D01*
X23776715Y58525000D02*
X21775000Y58525000D01*
X23825000Y58505000D02*
G75*
G03*
X23776715Y58525007I-48300J-48300D01*
G01*
%TO.N,Board_11-Net-(JP2-B)*%
X22955000Y56965000D02*
X23245000Y56675000D01*
X22254878Y57255000D02*
X21775000Y57255000D01*
X22254878Y57255000D02*
G75*
G02*
X22955006Y56965006I22J-990100D01*
G01*
%TO.N,Board_11-Net-(JP3-B)*%
X21924999Y55835001D02*
X21775000Y55985000D01*
X23994999Y55215001D02*
X24465000Y54745000D01*
X22860317Y55685001D02*
X22287130Y55685001D01*
X22860317Y55685001D02*
G75*
G02*
X23994994Y55214996I-17J-1604701D01*
G01*
X21924999Y55835001D02*
G75*
G03*
X22287130Y55685013I362101J362099D01*
G01*
%TO.N,Board_11-Net-(MB1-CLK)*%
X38445000Y53315000D02*
X38445000Y54620000D01*
%TO.N,Board_11-Net-(MB1-SCL)*%
X31270000Y54269358D02*
X31270000Y48110000D01*
X29554357Y55985000D02*
X26725000Y55985000D01*
X30767500Y55482500D02*
G75*
G02*
X31269982Y54269358I-1213100J-1213100D01*
G01*
X30767500Y55482500D02*
G75*
G03*
X29554357Y55984982I-1213100J-1213100D01*
G01*
%TO.N,Board_11-Net-(MB1-SDA)*%
X33810000Y53662201D02*
X33810000Y48110000D01*
X30185000Y54735000D02*
X30175000Y54725000D01*
X32777200Y54695000D02*
X32195000Y54695000D01*
X30150857Y54715000D02*
X26725000Y54715000D01*
X32777200Y54695000D02*
G75*
G02*
X33507500Y54392500I0J-1032800D01*
G01*
X30150857Y54715000D02*
G75*
G03*
X30175012Y54724988I43J34100D01*
G01*
X33810000Y53662201D02*
G75*
G03*
X33507500Y54392500I-1032800J-1D01*
G01*
%TO.N,Board_12-+3V3*%
X45105000Y58525000D02*
X46725000Y58525000D01*
%TO.N,Board_12-GND*%
X58425000Y61015000D02*
X58425000Y59760000D01*
X43435000Y54735000D02*
X43425000Y54725000D01*
D17*
X58745000Y48255000D02*
X58890000Y48110000D01*
D16*
X43400857Y54715000D02*
X41775000Y54715000D01*
X43425000Y54725000D02*
G75*
G02*
X43400857Y54715017I-24100J24100D01*
G01*
%TO.N,Board_12-Net-(D1-A)*%
X58435000Y56280000D02*
X58445000Y56270000D01*
X58425000Y56304143D02*
X58425000Y57885000D01*
X58435000Y56280000D02*
G75*
G02*
X58425017Y56304143I24100J24100D01*
G01*
%TO.N,Board_12-Net-(JP1-B)*%
X43776715Y58525000D02*
X41775000Y58525000D01*
X43825000Y58505000D02*
X43845000Y58485000D01*
X43825000Y58505000D02*
G75*
G03*
X43776715Y58525007I-48300J-48300D01*
G01*
%TO.N,Board_12-Net-(JP2-B)*%
X42254878Y57255000D02*
X41775000Y57255000D01*
X42955000Y56965000D02*
X43245000Y56675000D01*
X42254878Y57255000D02*
G75*
G02*
X42955006Y56965006I22J-990100D01*
G01*
%TO.N,Board_12-Net-(JP3-B)*%
X41924999Y55835001D02*
X41775000Y55985000D01*
X42860317Y55685001D02*
X42287130Y55685001D01*
X43994999Y55215001D02*
X44465000Y54745000D01*
X42860317Y55685001D02*
G75*
G02*
X43994994Y55214996I-17J-1604701D01*
G01*
X41924999Y55835001D02*
G75*
G03*
X42287130Y55685013I362101J362099D01*
G01*
%TO.N,Board_12-Net-(MB1-CLK)*%
X58445000Y53315000D02*
X58445000Y54620000D01*
%TO.N,Board_12-Net-(MB1-SCL)*%
X49554357Y55985000D02*
X46725000Y55985000D01*
X51270000Y54269358D02*
X51270000Y48110000D01*
X50767500Y55482500D02*
G75*
G03*
X49554357Y55984982I-1213100J-1213100D01*
G01*
X50767500Y55482500D02*
G75*
G02*
X51269982Y54269358I-1213100J-1213100D01*
G01*
%TO.N,Board_12-Net-(MB1-SDA)*%
X50185000Y54735000D02*
X50175000Y54725000D01*
X52777200Y54695000D02*
X52195000Y54695000D01*
X50150857Y54715000D02*
X46725000Y54715000D01*
X53810000Y53662201D02*
X53810000Y48110000D01*
X52777200Y54695000D02*
G75*
G02*
X53507500Y54392500I0J-1032800D01*
G01*
X50150857Y54715000D02*
G75*
G03*
X50175012Y54724988I43J34100D01*
G01*
X53810000Y53662201D02*
G75*
G03*
X53507500Y54392500I-1032800J-1D01*
G01*
%TO.N,Board_13-+3V3*%
X65105000Y58525000D02*
X66725000Y58525000D01*
%TO.N,Board_13-GND*%
X63435000Y54735000D02*
X63425000Y54725000D01*
X63400857Y54715000D02*
X61775000Y54715000D01*
X78425000Y61015000D02*
X78425000Y59760000D01*
D17*
X78745000Y48255000D02*
X78890000Y48110000D01*
D16*
X63425000Y54725000D02*
G75*
G02*
X63400857Y54715017I-24100J24100D01*
G01*
%TO.N,Board_13-Net-(D1-A)*%
X78425000Y56304143D02*
X78425000Y57885000D01*
X78435000Y56280000D02*
X78445000Y56270000D01*
X78435000Y56280000D02*
G75*
G02*
X78425017Y56304143I24100J24100D01*
G01*
%TO.N,Board_13-Net-(JP1-B)*%
X63776715Y58525000D02*
X61775000Y58525000D01*
X63825000Y58505000D02*
X63845000Y58485000D01*
X63825000Y58505000D02*
G75*
G03*
X63776715Y58525007I-48300J-48300D01*
G01*
%TO.N,Board_13-Net-(JP2-B)*%
X62955000Y56965000D02*
X63245000Y56675000D01*
X62254878Y57255000D02*
X61775000Y57255000D01*
X62254878Y57255000D02*
G75*
G02*
X62955006Y56965006I22J-990100D01*
G01*
%TO.N,Board_13-Net-(JP3-B)*%
X63994999Y55215001D02*
X64465000Y54745000D01*
X61924999Y55835001D02*
X61775000Y55985000D01*
X62860317Y55685001D02*
X62287130Y55685001D01*
X62860317Y55685001D02*
G75*
G02*
X63994994Y55214996I-17J-1604701D01*
G01*
X61924999Y55835001D02*
G75*
G03*
X62287130Y55685013I362101J362099D01*
G01*
%TO.N,Board_13-Net-(MB1-CLK)*%
X78445000Y53315000D02*
X78445000Y54620000D01*
%TO.N,Board_13-Net-(MB1-SCL)*%
X69554357Y55985000D02*
X66725000Y55985000D01*
X71270000Y54269358D02*
X71270000Y48110000D01*
X70767500Y55482500D02*
G75*
G03*
X69554357Y55984982I-1213100J-1213100D01*
G01*
X70767500Y55482500D02*
G75*
G02*
X71269982Y54269358I-1213100J-1213100D01*
G01*
%TO.N,Board_13-Net-(MB1-SDA)*%
X70185000Y54735000D02*
X70175000Y54725000D01*
X73810000Y53662201D02*
X73810000Y48110000D01*
X72777200Y54695000D02*
X72195000Y54695000D01*
X70150857Y54715000D02*
X66725000Y54715000D01*
X70150857Y54715000D02*
G75*
G03*
X70175012Y54724988I43J34100D01*
G01*
X72777200Y54695000D02*
G75*
G02*
X73507500Y54392500I0J-1032800D01*
G01*
X73810000Y53662201D02*
G75*
G03*
X73507500Y54392500I-1032800J-1D01*
G01*
%TO.N,Board_14-+3V3*%
X85105000Y58525000D02*
X86725000Y58525000D01*
%TO.N,Board_14-GND*%
X83435000Y54735000D02*
X83425000Y54725000D01*
D17*
X98745000Y48255000D02*
X98890000Y48110000D01*
D16*
X83400857Y54715000D02*
X81775000Y54715000D01*
X98425000Y61015000D02*
X98425000Y59760000D01*
X83425000Y54725000D02*
G75*
G02*
X83400857Y54715017I-24100J24100D01*
G01*
%TO.N,Board_14-Net-(D1-A)*%
X98425000Y56304143D02*
X98425000Y57885000D01*
X98435000Y56280000D02*
X98445000Y56270000D01*
X98435000Y56280000D02*
G75*
G02*
X98425017Y56304143I24100J24100D01*
G01*
%TO.N,Board_14-Net-(JP1-B)*%
X83825000Y58505000D02*
X83845000Y58485000D01*
X83776715Y58525000D02*
X81775000Y58525000D01*
X83825000Y58505000D02*
G75*
G03*
X83776715Y58525007I-48300J-48300D01*
G01*
%TO.N,Board_14-Net-(JP2-B)*%
X82955000Y56965000D02*
X83245000Y56675000D01*
X82254878Y57255000D02*
X81775000Y57255000D01*
X82254878Y57255000D02*
G75*
G02*
X82955006Y56965006I22J-990100D01*
G01*
%TO.N,Board_14-Net-(JP3-B)*%
X83994999Y55215001D02*
X84465000Y54745000D01*
X82860317Y55685001D02*
X82287130Y55685001D01*
X81924999Y55835001D02*
X81775000Y55985000D01*
X81924999Y55835001D02*
G75*
G03*
X82287130Y55685013I362101J362099D01*
G01*
X82860317Y55685001D02*
G75*
G02*
X83994994Y55214996I-17J-1604701D01*
G01*
%TO.N,Board_14-Net-(MB1-CLK)*%
X98445000Y53315000D02*
X98445000Y54620000D01*
%TO.N,Board_14-Net-(MB1-SCL)*%
X91270000Y54269358D02*
X91270000Y48110000D01*
X89554357Y55985000D02*
X86725000Y55985000D01*
X90767500Y55482500D02*
G75*
G02*
X91269982Y54269358I-1213100J-1213100D01*
G01*
X90767500Y55482500D02*
G75*
G03*
X89554357Y55984982I-1213100J-1213100D01*
G01*
%TO.N,Board_14-Net-(MB1-SDA)*%
X92777200Y54695000D02*
X92195000Y54695000D01*
X90150857Y54715000D02*
X86725000Y54715000D01*
X90185000Y54735000D02*
X90175000Y54725000D01*
X93810000Y53662201D02*
X93810000Y48110000D01*
X93810000Y53662201D02*
G75*
G03*
X93507500Y54392500I-1032800J-1D01*
G01*
X92777200Y54695000D02*
G75*
G02*
X93507500Y54392500I0J-1032800D01*
G01*
X90150857Y54715000D02*
G75*
G03*
X90175012Y54724988I43J34100D01*
G01*
%TO.N,Board_15-+3V3*%
X5105000Y38525000D02*
X6725000Y38525000D01*
%TO.N,Board_15-GND*%
X3400857Y34715000D02*
X1775000Y34715000D01*
X18425000Y41015000D02*
X18425000Y39760000D01*
X3435000Y34735000D02*
X3425000Y34725000D01*
D17*
X18745000Y28255000D02*
X18890000Y28110000D01*
D16*
X3425000Y34725000D02*
G75*
G02*
X3400857Y34715017I-24100J24100D01*
G01*
%TO.N,Board_15-Net-(D1-A)*%
X18425000Y36304143D02*
X18425000Y37885000D01*
X18435000Y36280000D02*
X18445000Y36270000D01*
X18435000Y36280000D02*
G75*
G02*
X18425017Y36304143I24100J24100D01*
G01*
%TO.N,Board_15-Net-(JP1-B)*%
X3825000Y38505000D02*
X3845000Y38485000D01*
X3776715Y38525000D02*
X1775000Y38525000D01*
X3825000Y38505000D02*
G75*
G03*
X3776715Y38525007I-48300J-48300D01*
G01*
%TO.N,Board_15-Net-(JP2-B)*%
X2254878Y37255000D02*
X1775000Y37255000D01*
X2955000Y36965000D02*
X3245000Y36675000D01*
X2254878Y37255000D02*
G75*
G02*
X2955006Y36965006I22J-990100D01*
G01*
%TO.N,Board_15-Net-(JP3-B)*%
X2860317Y35685001D02*
X2287130Y35685001D01*
X1924999Y35835001D02*
X1775000Y35985000D01*
X3994999Y35215001D02*
X4465000Y34745000D01*
X2860317Y35685001D02*
G75*
G02*
X3994994Y35214996I-17J-1604701D01*
G01*
X1924999Y35835001D02*
G75*
G03*
X2287130Y35685013I362101J362099D01*
G01*
%TO.N,Board_15-Net-(MB1-CLK)*%
X18445000Y33315000D02*
X18445000Y34620000D01*
%TO.N,Board_15-Net-(MB1-SCL)*%
X11270000Y34269358D02*
X11270000Y28110000D01*
X9554357Y35985000D02*
X6725000Y35985000D01*
X10767500Y35482500D02*
G75*
G03*
X9554357Y35984982I-1213100J-1213100D01*
G01*
X10767500Y35482500D02*
G75*
G02*
X11269982Y34269358I-1213100J-1213100D01*
G01*
%TO.N,Board_15-Net-(MB1-SDA)*%
X10150857Y34715000D02*
X6725000Y34715000D01*
X12777200Y34695000D02*
X12195000Y34695000D01*
X10185000Y34735000D02*
X10175000Y34725000D01*
X13810000Y33662201D02*
X13810000Y28110000D01*
X13810000Y33662201D02*
G75*
G03*
X13507500Y34392500I-1032800J-1D01*
G01*
X12777200Y34695000D02*
G75*
G02*
X13507500Y34392500I0J-1032800D01*
G01*
X10150857Y34715000D02*
G75*
G03*
X10175012Y34724988I43J34100D01*
G01*
%TO.N,Board_16-+3V3*%
X25105000Y38525000D02*
X26725000Y38525000D01*
D17*
%TO.N,Board_16-GND*%
X38745000Y28255000D02*
X38890000Y28110000D01*
D16*
X23435000Y34735000D02*
X23425000Y34725000D01*
X23400857Y34715000D02*
X21775000Y34715000D01*
X38425000Y41015000D02*
X38425000Y39760000D01*
X23425000Y34725000D02*
G75*
G02*
X23400857Y34715017I-24100J24100D01*
G01*
%TO.N,Board_16-Net-(D1-A)*%
X38435000Y36280000D02*
X38445000Y36270000D01*
X38425000Y36304143D02*
X38425000Y37885000D01*
X38435000Y36280000D02*
G75*
G02*
X38425017Y36304143I24100J24100D01*
G01*
%TO.N,Board_16-Net-(JP1-B)*%
X23776715Y38525000D02*
X21775000Y38525000D01*
X23825000Y38505000D02*
X23845000Y38485000D01*
X23825000Y38505000D02*
G75*
G03*
X23776715Y38525007I-48300J-48300D01*
G01*
%TO.N,Board_16-Net-(JP2-B)*%
X22955000Y36965000D02*
X23245000Y36675000D01*
X22254878Y37255000D02*
X21775000Y37255000D01*
X22254878Y37255000D02*
G75*
G02*
X22955006Y36965006I22J-990100D01*
G01*
%TO.N,Board_16-Net-(JP3-B)*%
X21924999Y35835001D02*
X21775000Y35985000D01*
X22860317Y35685001D02*
X22287130Y35685001D01*
X23994999Y35215001D02*
X24465000Y34745000D01*
X21924999Y35835001D02*
G75*
G03*
X22287130Y35685013I362101J362099D01*
G01*
X22860317Y35685001D02*
G75*
G02*
X23994994Y35214996I-17J-1604701D01*
G01*
%TO.N,Board_16-Net-(MB1-CLK)*%
X38445000Y33315000D02*
X38445000Y34620000D01*
%TO.N,Board_16-Net-(MB1-SCL)*%
X31270000Y34269358D02*
X31270000Y28110000D01*
X29554357Y35985000D02*
X26725000Y35985000D01*
X30767500Y35482500D02*
G75*
G03*
X29554357Y35984982I-1213100J-1213100D01*
G01*
X30767500Y35482500D02*
G75*
G02*
X31269982Y34269358I-1213100J-1213100D01*
G01*
%TO.N,Board_16-Net-(MB1-SDA)*%
X30150857Y34715000D02*
X26725000Y34715000D01*
X30185000Y34735000D02*
X30175000Y34725000D01*
X33810000Y33662201D02*
X33810000Y28110000D01*
X32777200Y34695000D02*
X32195000Y34695000D01*
X32777200Y34695000D02*
G75*
G02*
X33507500Y34392500I0J-1032800D01*
G01*
X33810000Y33662201D02*
G75*
G03*
X33507500Y34392500I-1032800J-1D01*
G01*
X30150857Y34715000D02*
G75*
G03*
X30175012Y34724988I43J34100D01*
G01*
%TO.N,Board_17-+3V3*%
X45105000Y38525000D02*
X46725000Y38525000D01*
D17*
%TO.N,Board_17-GND*%
X58745000Y28255000D02*
X58890000Y28110000D01*
D16*
X43435000Y34735000D02*
X43425000Y34725000D01*
X58425000Y41015000D02*
X58425000Y39760000D01*
X43400857Y34715000D02*
X41775000Y34715000D01*
X43425000Y34725000D02*
G75*
G02*
X43400857Y34715017I-24100J24100D01*
G01*
%TO.N,Board_17-Net-(D1-A)*%
X58425000Y36304143D02*
X58425000Y37885000D01*
X58435000Y36280000D02*
X58445000Y36270000D01*
X58435000Y36280000D02*
G75*
G02*
X58425017Y36304143I24100J24100D01*
G01*
%TO.N,Board_17-Net-(JP1-B)*%
X43825000Y38505000D02*
X43845000Y38485000D01*
X43776715Y38525000D02*
X41775000Y38525000D01*
X43825000Y38505000D02*
G75*
G03*
X43776715Y38525007I-48300J-48300D01*
G01*
%TO.N,Board_17-Net-(JP2-B)*%
X42955000Y36965000D02*
X43245000Y36675000D01*
X42254878Y37255000D02*
X41775000Y37255000D01*
X42254878Y37255000D02*
G75*
G02*
X42955006Y36965006I22J-990100D01*
G01*
%TO.N,Board_17-Net-(JP3-B)*%
X42860317Y35685001D02*
X42287130Y35685001D01*
X41924999Y35835001D02*
X41775000Y35985000D01*
X43994999Y35215001D02*
X44465000Y34745000D01*
X41924999Y35835001D02*
G75*
G03*
X42287130Y35685013I362101J362099D01*
G01*
X42860317Y35685001D02*
G75*
G02*
X43994994Y35214996I-17J-1604701D01*
G01*
%TO.N,Board_17-Net-(MB1-CLK)*%
X58445000Y33315000D02*
X58445000Y34620000D01*
%TO.N,Board_17-Net-(MB1-SCL)*%
X51270000Y34269358D02*
X51270000Y28110000D01*
X49554357Y35985000D02*
X46725000Y35985000D01*
X50767500Y35482500D02*
G75*
G02*
X51269982Y34269358I-1213100J-1213100D01*
G01*
X50767500Y35482500D02*
G75*
G03*
X49554357Y35984982I-1213100J-1213100D01*
G01*
%TO.N,Board_17-Net-(MB1-SDA)*%
X52777200Y34695000D02*
X52195000Y34695000D01*
X50185000Y34735000D02*
X50175000Y34725000D01*
X53810000Y33662201D02*
X53810000Y28110000D01*
X50150857Y34715000D02*
X46725000Y34715000D01*
X52777200Y34695000D02*
G75*
G02*
X53507500Y34392500I0J-1032800D01*
G01*
X50150857Y34715000D02*
G75*
G03*
X50175012Y34724988I43J34100D01*
G01*
X53810000Y33662201D02*
G75*
G03*
X53507500Y34392500I-1032800J-1D01*
G01*
%TO.N,Board_18-+3V3*%
X65105000Y38525000D02*
X66725000Y38525000D01*
D17*
%TO.N,Board_18-GND*%
X78745000Y28255000D02*
X78890000Y28110000D01*
D16*
X63400857Y34715000D02*
X61775000Y34715000D01*
X78425000Y41015000D02*
X78425000Y39760000D01*
X63435000Y34735000D02*
X63425000Y34725000D01*
X63425000Y34725000D02*
G75*
G02*
X63400857Y34715017I-24100J24100D01*
G01*
%TO.N,Board_18-Net-(D1-A)*%
X78435000Y36280000D02*
X78445000Y36270000D01*
X78425000Y36304143D02*
X78425000Y37885000D01*
X78435000Y36280000D02*
G75*
G02*
X78425017Y36304143I24100J24100D01*
G01*
%TO.N,Board_18-Net-(JP1-B)*%
X63825000Y38505000D02*
X63845000Y38485000D01*
X63776715Y38525000D02*
X61775000Y38525000D01*
X63825000Y38505000D02*
G75*
G03*
X63776715Y38525007I-48300J-48300D01*
G01*
%TO.N,Board_18-Net-(JP2-B)*%
X62955000Y36965000D02*
X63245000Y36675000D01*
X62254878Y37255000D02*
X61775000Y37255000D01*
X62254878Y37255000D02*
G75*
G02*
X62955006Y36965006I22J-990100D01*
G01*
%TO.N,Board_18-Net-(JP3-B)*%
X61924999Y35835001D02*
X61775000Y35985000D01*
X62860317Y35685001D02*
X62287130Y35685001D01*
X63994999Y35215001D02*
X64465000Y34745000D01*
X61924999Y35835001D02*
G75*
G03*
X62287130Y35685013I362101J362099D01*
G01*
X62860317Y35685001D02*
G75*
G02*
X63994994Y35214996I-17J-1604701D01*
G01*
%TO.N,Board_18-Net-(MB1-CLK)*%
X78445000Y33315000D02*
X78445000Y34620000D01*
%TO.N,Board_18-Net-(MB1-SCL)*%
X69554357Y35985000D02*
X66725000Y35985000D01*
X71270000Y34269358D02*
X71270000Y28110000D01*
X70767500Y35482500D02*
G75*
G02*
X71269982Y34269358I-1213100J-1213100D01*
G01*
X70767500Y35482500D02*
G75*
G03*
X69554357Y35984982I-1213100J-1213100D01*
G01*
%TO.N,Board_18-Net-(MB1-SDA)*%
X73810000Y33662201D02*
X73810000Y28110000D01*
X70150857Y34715000D02*
X66725000Y34715000D01*
X72777200Y34695000D02*
X72195000Y34695000D01*
X70185000Y34735000D02*
X70175000Y34725000D01*
X73810000Y33662201D02*
G75*
G03*
X73507500Y34392500I-1032800J-1D01*
G01*
X72777200Y34695000D02*
G75*
G02*
X73507500Y34392500I0J-1032800D01*
G01*
X70150857Y34715000D02*
G75*
G03*
X70175012Y34724988I43J34100D01*
G01*
%TO.N,Board_19-+3V3*%
X85105000Y38525000D02*
X86725000Y38525000D01*
D17*
%TO.N,Board_19-GND*%
X98745000Y28255000D02*
X98890000Y28110000D01*
D16*
X83435000Y34735000D02*
X83425000Y34725000D01*
X83400857Y34715000D02*
X81775000Y34715000D01*
X98425000Y41015000D02*
X98425000Y39760000D01*
X83425000Y34725000D02*
G75*
G02*
X83400857Y34715017I-24100J24100D01*
G01*
%TO.N,Board_19-Net-(D1-A)*%
X98435000Y36280000D02*
X98445000Y36270000D01*
X98425000Y36304143D02*
X98425000Y37885000D01*
X98435000Y36280000D02*
G75*
G02*
X98425017Y36304143I24100J24100D01*
G01*
%TO.N,Board_19-Net-(JP1-B)*%
X83776715Y38525000D02*
X81775000Y38525000D01*
X83825000Y38505000D02*
X83845000Y38485000D01*
X83825000Y38505000D02*
G75*
G03*
X83776715Y38525007I-48300J-48300D01*
G01*
%TO.N,Board_19-Net-(JP2-B)*%
X82955000Y36965000D02*
X83245000Y36675000D01*
X82254878Y37255000D02*
X81775000Y37255000D01*
X82254878Y37255000D02*
G75*
G02*
X82955006Y36965006I22J-990100D01*
G01*
%TO.N,Board_19-Net-(JP3-B)*%
X81924999Y35835001D02*
X81775000Y35985000D01*
X82860317Y35685001D02*
X82287130Y35685001D01*
X83994999Y35215001D02*
X84465000Y34745000D01*
X82860317Y35685001D02*
G75*
G02*
X83994994Y35214996I-17J-1604701D01*
G01*
X81924999Y35835001D02*
G75*
G03*
X82287130Y35685013I362101J362099D01*
G01*
%TO.N,Board_19-Net-(MB1-CLK)*%
X98445000Y33315000D02*
X98445000Y34620000D01*
%TO.N,Board_19-Net-(MB1-SCL)*%
X91270000Y34269358D02*
X91270000Y28110000D01*
X89554357Y35985000D02*
X86725000Y35985000D01*
X90767500Y35482500D02*
G75*
G03*
X89554357Y35984982I-1213100J-1213100D01*
G01*
X90767500Y35482500D02*
G75*
G02*
X91269982Y34269358I-1213100J-1213100D01*
G01*
%TO.N,Board_19-Net-(MB1-SDA)*%
X90150857Y34715000D02*
X86725000Y34715000D01*
X92777200Y34695000D02*
X92195000Y34695000D01*
X93810000Y33662201D02*
X93810000Y28110000D01*
X90185000Y34735000D02*
X90175000Y34725000D01*
X93810000Y33662201D02*
G75*
G03*
X93507500Y34392500I-1032800J-1D01*
G01*
X90150857Y34715000D02*
G75*
G03*
X90175012Y34724988I43J34100D01*
G01*
X92777200Y34695000D02*
G75*
G02*
X93507500Y34392500I0J-1032800D01*
G01*
%TO.N,Board_20-+3V3*%
X5105000Y18525000D02*
X6725000Y18525000D01*
%TO.N,Board_20-GND*%
X3435000Y14735000D02*
X3425000Y14725000D01*
X18425000Y21015000D02*
X18425000Y19760000D01*
D17*
X18745000Y8255000D02*
X18890000Y8110000D01*
D16*
X3400857Y14715000D02*
X1775000Y14715000D01*
X3425000Y14725000D02*
G75*
G02*
X3400857Y14715017I-24100J24100D01*
G01*
%TO.N,Board_20-Net-(D1-A)*%
X18425000Y16304143D02*
X18425000Y17885000D01*
X18435000Y16280000D02*
X18445000Y16270000D01*
X18435000Y16280000D02*
G75*
G02*
X18425017Y16304143I24100J24100D01*
G01*
%TO.N,Board_20-Net-(JP1-B)*%
X3776715Y18525000D02*
X1775000Y18525000D01*
X3825000Y18505000D02*
X3845000Y18485000D01*
X3825000Y18505000D02*
G75*
G03*
X3776715Y18525007I-48300J-48300D01*
G01*
%TO.N,Board_20-Net-(JP2-B)*%
X2254878Y17255000D02*
X1775000Y17255000D01*
X2955000Y16965000D02*
X3245000Y16675000D01*
X2254878Y17255000D02*
G75*
G02*
X2955006Y16965006I22J-990100D01*
G01*
%TO.N,Board_20-Net-(JP3-B)*%
X1924999Y15835001D02*
X1775000Y15985000D01*
X3994999Y15215001D02*
X4465000Y14745000D01*
X2860317Y15685001D02*
X2287130Y15685001D01*
X1924999Y15835001D02*
G75*
G03*
X2287130Y15685013I362101J362099D01*
G01*
X2860317Y15685001D02*
G75*
G02*
X3994994Y15214996I-17J-1604701D01*
G01*
%TO.N,Board_20-Net-(MB1-CLK)*%
X18445000Y13315000D02*
X18445000Y14620000D01*
%TO.N,Board_20-Net-(MB1-SCL)*%
X11270000Y14269358D02*
X11270000Y8110000D01*
X9554357Y15985000D02*
X6725000Y15985000D01*
X10767500Y15482500D02*
G75*
G03*
X9554357Y15984982I-1213100J-1213100D01*
G01*
X10767500Y15482500D02*
G75*
G02*
X11269982Y14269358I-1213100J-1213100D01*
G01*
%TO.N,Board_20-Net-(MB1-SDA)*%
X12777200Y14695000D02*
X12195000Y14695000D01*
X10185000Y14735000D02*
X10175000Y14725000D01*
X13810000Y13662201D02*
X13810000Y8110000D01*
X10150857Y14715000D02*
X6725000Y14715000D01*
X13810000Y13662201D02*
G75*
G03*
X13507500Y14392500I-1032800J-1D01*
G01*
X12777200Y14695000D02*
G75*
G02*
X13507500Y14392500I0J-1032800D01*
G01*
X10150857Y14715000D02*
G75*
G03*
X10175012Y14724988I43J34100D01*
G01*
%TO.N,Board_21-+3V3*%
X25105000Y18525000D02*
X26725000Y18525000D01*
%TO.N,Board_21-GND*%
X23400857Y14715000D02*
X21775000Y14715000D01*
X38425000Y21015000D02*
X38425000Y19760000D01*
D17*
X38745000Y8255000D02*
X38890000Y8110000D01*
D16*
X23435000Y14735000D02*
X23425000Y14725000D01*
X23425000Y14725000D02*
G75*
G02*
X23400857Y14715017I-24100J24100D01*
G01*
%TO.N,Board_21-Net-(D1-A)*%
X38425000Y16304143D02*
X38425000Y17885000D01*
X38435000Y16280000D02*
X38445000Y16270000D01*
X38435000Y16280000D02*
G75*
G02*
X38425017Y16304143I24100J24100D01*
G01*
%TO.N,Board_21-Net-(JP1-B)*%
X23825000Y18505000D02*
X23845000Y18485000D01*
X23776715Y18525000D02*
X21775000Y18525000D01*
X23825000Y18505000D02*
G75*
G03*
X23776715Y18525007I-48300J-48300D01*
G01*
%TO.N,Board_21-Net-(JP2-B)*%
X22254878Y17255000D02*
X21775000Y17255000D01*
X22955000Y16965000D02*
X23245000Y16675000D01*
X22254878Y17255000D02*
G75*
G02*
X22955006Y16965006I22J-990100D01*
G01*
%TO.N,Board_21-Net-(JP3-B)*%
X22860317Y15685001D02*
X22287130Y15685001D01*
X21924999Y15835001D02*
X21775000Y15985000D01*
X23994999Y15215001D02*
X24465000Y14745000D01*
X21924999Y15835001D02*
G75*
G03*
X22287130Y15685013I362101J362099D01*
G01*
X22860317Y15685001D02*
G75*
G02*
X23994994Y15214996I-17J-1604701D01*
G01*
%TO.N,Board_21-Net-(MB1-CLK)*%
X38445000Y13315000D02*
X38445000Y14620000D01*
%TO.N,Board_21-Net-(MB1-SCL)*%
X29554357Y15985000D02*
X26725000Y15985000D01*
X31270000Y14269358D02*
X31270000Y8110000D01*
X30767500Y15482500D02*
G75*
G03*
X29554357Y15984982I-1213100J-1213100D01*
G01*
X30767500Y15482500D02*
G75*
G02*
X31269982Y14269358I-1213100J-1213100D01*
G01*
%TO.N,Board_21-Net-(MB1-SDA)*%
X30150857Y14715000D02*
X26725000Y14715000D01*
X33810000Y13662201D02*
X33810000Y8110000D01*
X30185000Y14735000D02*
X30175000Y14725000D01*
X32777200Y14695000D02*
X32195000Y14695000D01*
X33810000Y13662201D02*
G75*
G03*
X33507500Y14392500I-1032800J-1D01*
G01*
X32777200Y14695000D02*
G75*
G02*
X33507500Y14392500I0J-1032800D01*
G01*
X30150857Y14715000D02*
G75*
G03*
X30175012Y14724988I43J34100D01*
G01*
%TO.N,Board_22-+3V3*%
X45105000Y18525000D02*
X46725000Y18525000D01*
%TO.N,Board_22-GND*%
X58425000Y21015000D02*
X58425000Y19760000D01*
X43435000Y14735000D02*
X43425000Y14725000D01*
D17*
X58745000Y8255000D02*
X58890000Y8110000D01*
D16*
X43400857Y14715000D02*
X41775000Y14715000D01*
X43425000Y14725000D02*
G75*
G02*
X43400857Y14715017I-24100J24100D01*
G01*
%TO.N,Board_22-Net-(D1-A)*%
X58435000Y16280000D02*
X58445000Y16270000D01*
X58425000Y16304143D02*
X58425000Y17885000D01*
X58435000Y16280000D02*
G75*
G02*
X58425017Y16304143I24100J24100D01*
G01*
%TO.N,Board_22-Net-(JP1-B)*%
X43776715Y18525000D02*
X41775000Y18525000D01*
X43825000Y18505000D02*
X43845000Y18485000D01*
X43825000Y18505000D02*
G75*
G03*
X43776715Y18525007I-48300J-48300D01*
G01*
%TO.N,Board_22-Net-(JP2-B)*%
X42955000Y16965000D02*
X43245000Y16675000D01*
X42254878Y17255000D02*
X41775000Y17255000D01*
X42254878Y17255000D02*
G75*
G02*
X42955006Y16965006I22J-990100D01*
G01*
%TO.N,Board_22-Net-(JP3-B)*%
X43994999Y15215001D02*
X44465000Y14745000D01*
X42860317Y15685001D02*
X42287130Y15685001D01*
X41924999Y15835001D02*
X41775000Y15985000D01*
X42860317Y15685001D02*
G75*
G02*
X43994994Y15214996I-17J-1604701D01*
G01*
X41924999Y15835001D02*
G75*
G03*
X42287130Y15685013I362101J362099D01*
G01*
%TO.N,Board_22-Net-(MB1-CLK)*%
X58445000Y13315000D02*
X58445000Y14620000D01*
%TO.N,Board_22-Net-(MB1-SCL)*%
X51270000Y14269358D02*
X51270000Y8110000D01*
X49554357Y15985000D02*
X46725000Y15985000D01*
X50767500Y15482500D02*
G75*
G03*
X49554357Y15984982I-1213100J-1213100D01*
G01*
X50767500Y15482500D02*
G75*
G02*
X51269982Y14269358I-1213100J-1213100D01*
G01*
%TO.N,Board_22-Net-(MB1-SDA)*%
X50150857Y14715000D02*
X46725000Y14715000D01*
X50185000Y14735000D02*
X50175000Y14725000D01*
X52777200Y14695000D02*
X52195000Y14695000D01*
X53810000Y13662201D02*
X53810000Y8110000D01*
X52777200Y14695000D02*
G75*
G02*
X53507500Y14392500I0J-1032800D01*
G01*
X53810000Y13662201D02*
G75*
G03*
X53507500Y14392500I-1032800J-1D01*
G01*
X50150857Y14715000D02*
G75*
G03*
X50175012Y14724988I43J34100D01*
G01*
%TO.N,Board_23-+3V3*%
X65105000Y18525000D02*
X66725000Y18525000D01*
D17*
%TO.N,Board_23-GND*%
X78745000Y8255000D02*
X78890000Y8110000D01*
D16*
X78425000Y21015000D02*
X78425000Y19760000D01*
X63435000Y14735000D02*
X63425000Y14725000D01*
X63400857Y14715000D02*
X61775000Y14715000D01*
X63425000Y14725000D02*
G75*
G02*
X63400857Y14715017I-24100J24100D01*
G01*
%TO.N,Board_23-Net-(D1-A)*%
X78435000Y16280000D02*
X78445000Y16270000D01*
X78425000Y16304143D02*
X78425000Y17885000D01*
X78435000Y16280000D02*
G75*
G02*
X78425017Y16304143I24100J24100D01*
G01*
%TO.N,Board_23-Net-(JP1-B)*%
X63825000Y18505000D02*
X63845000Y18485000D01*
X63776715Y18525000D02*
X61775000Y18525000D01*
X63825000Y18505000D02*
G75*
G03*
X63776715Y18525007I-48300J-48300D01*
G01*
%TO.N,Board_23-Net-(JP2-B)*%
X62254878Y17255000D02*
X61775000Y17255000D01*
X62955000Y16965000D02*
X63245000Y16675000D01*
X62254878Y17255000D02*
G75*
G02*
X62955006Y16965006I22J-990100D01*
G01*
%TO.N,Board_23-Net-(JP3-B)*%
X61924999Y15835001D02*
X61775000Y15985000D01*
X62860317Y15685001D02*
X62287130Y15685001D01*
X63994999Y15215001D02*
X64465000Y14745000D01*
X61924999Y15835001D02*
G75*
G03*
X62287130Y15685013I362101J362099D01*
G01*
X62860317Y15685001D02*
G75*
G02*
X63994994Y15214996I-17J-1604701D01*
G01*
%TO.N,Board_23-Net-(MB1-CLK)*%
X78445000Y13315000D02*
X78445000Y14620000D01*
%TO.N,Board_23-Net-(MB1-SCL)*%
X71270000Y14269358D02*
X71270000Y8110000D01*
X69554357Y15985000D02*
X66725000Y15985000D01*
X70767500Y15482500D02*
G75*
G03*
X69554357Y15984982I-1213100J-1213100D01*
G01*
X70767500Y15482500D02*
G75*
G02*
X71269982Y14269358I-1213100J-1213100D01*
G01*
%TO.N,Board_23-Net-(MB1-SDA)*%
X70185000Y14735000D02*
X70175000Y14725000D01*
X70150857Y14715000D02*
X66725000Y14715000D01*
X73810000Y13662201D02*
X73810000Y8110000D01*
X72777200Y14695000D02*
X72195000Y14695000D01*
X73810000Y13662201D02*
G75*
G03*
X73507500Y14392500I-1032800J-1D01*
G01*
X72777200Y14695000D02*
G75*
G02*
X73507500Y14392500I0J-1032800D01*
G01*
X70150857Y14715000D02*
G75*
G03*
X70175012Y14724988I43J34100D01*
G01*
%TO.N,Board_24-+3V3*%
X85105000Y18525000D02*
X86725000Y18525000D01*
%TO.N,Board_24-GND*%
X98425000Y21015000D02*
X98425000Y19760000D01*
D17*
X98745000Y8255000D02*
X98890000Y8110000D01*
D16*
X83435000Y14735000D02*
X83425000Y14725000D01*
X83400857Y14715000D02*
X81775000Y14715000D01*
X83425000Y14725000D02*
G75*
G02*
X83400857Y14715017I-24100J24100D01*
G01*
%TO.N,Board_24-Net-(D1-A)*%
X98435000Y16280000D02*
X98445000Y16270000D01*
X98425000Y16304143D02*
X98425000Y17885000D01*
X98435000Y16280000D02*
G75*
G02*
X98425017Y16304143I24100J24100D01*
G01*
%TO.N,Board_24-Net-(JP1-B)*%
X83776715Y18525000D02*
X81775000Y18525000D01*
X83825000Y18505000D02*
X83845000Y18485000D01*
X83825000Y18505000D02*
G75*
G03*
X83776715Y18525007I-48300J-48300D01*
G01*
%TO.N,Board_24-Net-(JP2-B)*%
X82254878Y17255000D02*
X81775000Y17255000D01*
X82955000Y16965000D02*
X83245000Y16675000D01*
X82254878Y17255000D02*
G75*
G02*
X82955006Y16965006I22J-990100D01*
G01*
%TO.N,Board_24-Net-(JP3-B)*%
X81924999Y15835001D02*
X81775000Y15985000D01*
X82860317Y15685001D02*
X82287130Y15685001D01*
X83994999Y15215001D02*
X84465000Y14745000D01*
X81924999Y15835001D02*
G75*
G03*
X82287130Y15685013I362101J362099D01*
G01*
X82860317Y15685001D02*
G75*
G02*
X83994994Y15214996I-17J-1604701D01*
G01*
%TO.N,Board_24-Net-(MB1-CLK)*%
X98445000Y13315000D02*
X98445000Y14620000D01*
%TO.N,Board_24-Net-(MB1-SCL)*%
X91270000Y14269358D02*
X91270000Y8110000D01*
X89554357Y15985000D02*
X86725000Y15985000D01*
X90767500Y15482500D02*
G75*
G03*
X89554357Y15984982I-1213100J-1213100D01*
G01*
X90767500Y15482500D02*
G75*
G02*
X91269982Y14269358I-1213100J-1213100D01*
G01*
%TO.N,Board_24-Net-(MB1-SDA)*%
X93810000Y13662201D02*
X93810000Y8110000D01*
X90185000Y14735000D02*
X90175000Y14725000D01*
X90150857Y14715000D02*
X86725000Y14715000D01*
X92777200Y14695000D02*
X92195000Y14695000D01*
X92777200Y14695000D02*
G75*
G02*
X93507500Y14392500I0J-1032800D01*
G01*
X93810000Y13662201D02*
G75*
G03*
X93507500Y14392500I-1032800J-1D01*
G01*
X90150857Y14715000D02*
G75*
G03*
X90175012Y14724988I43J34100D01*
G01*
%TD*%
M02*
