%TF.GenerationSoftware,KiCad,Pcbnew,9.0.1*%
%TF.CreationDate,2025-08-07T10:54:26-06:00*%
%TF.ProjectId,bhc-panel,6268632d-7061-46e6-956c-2e6b69636164,rev?*%
%TF.SameCoordinates,PX5defda0PY9a7ec80*%
%TF.FileFunction,Soldermask,Bot*%
%TF.FilePolarity,Negative*%
%FSLAX46Y46*%
G04 Gerber Fmt 4.6, Leading zero omitted, Abs format (unit mm)*
G04 Created by KiCad (PCBNEW 9.0.1) date 2025-08-07 10:54:26*
%MOMM*%
%LPD*%
G01*
G04 APERTURE LIST*
G04 Aperture macros list*
%AMFreePoly0*
4,1,23,0.500000,-0.750000,0.000000,-0.750000,0.000000,-0.745722,-0.065263,-0.745722,-0.191342,-0.711940,-0.304381,-0.646677,-0.396677,-0.554381,-0.461940,-0.441342,-0.495722,-0.315263,-0.495722,-0.250000,-0.500000,-0.250000,-0.500000,0.250000,-0.495722,0.250000,-0.495722,0.315263,-0.461940,0.441342,-0.396677,0.554381,-0.304381,0.646677,-0.191342,0.711940,-0.065263,0.745722,0.000000,0.745722,
0.000000,0.750000,0.500000,0.750000,0.500000,-0.750000,0.500000,-0.750000,$1*%
%AMFreePoly1*
4,1,23,0.000000,0.745722,0.065263,0.745722,0.191342,0.711940,0.304381,0.646677,0.396677,0.554381,0.461940,0.441342,0.495722,0.315263,0.495722,0.250000,0.500000,0.250000,0.500000,-0.250000,0.495722,-0.250000,0.495722,-0.315263,0.461940,-0.441342,0.396677,-0.554381,0.304381,-0.646677,0.191342,-0.711940,0.065263,-0.745722,0.000000,-0.745722,0.000000,-0.750000,-0.500000,-0.750000,
-0.500000,0.750000,0.000000,0.750000,0.000000,0.745722,0.000000,0.745722,$1*%
G04 Aperture macros list end*
%ADD10C,0.200000*%
%ADD11C,1.750000*%
%ADD12C,2.000000*%
%ADD13FreePoly0,180.000000*%
%ADD14FreePoly1,180.000000*%
G04 APERTURE END LIST*
D10*
X72886279Y105733972D02*
X72933898Y105781591D01*
X72933898Y105781591D02*
X73029136Y105829210D01*
X73029136Y105829210D02*
X73124374Y105829210D01*
X73124374Y105829210D02*
X73219612Y105781591D01*
X73219612Y105781591D02*
X73267231Y105733972D01*
X73267231Y105733972D02*
X73314850Y105638734D01*
X73314850Y105638734D02*
X73314850Y105543496D01*
X73314850Y105543496D02*
X73267231Y105448258D01*
X73267231Y105448258D02*
X73219612Y105400639D01*
X73219612Y105400639D02*
X73124374Y105353020D01*
X73124374Y105353020D02*
X73029136Y105353020D01*
X73029136Y105353020D02*
X72933898Y105400639D01*
X72933898Y105400639D02*
X72886279Y105448258D01*
X72886279Y105829210D02*
X72886279Y105448258D01*
X72886279Y105448258D02*
X72838660Y105400639D01*
X72838660Y105400639D02*
X72791041Y105400639D01*
X72791041Y105400639D02*
X72695802Y105448258D01*
X72695802Y105448258D02*
X72648183Y105543496D01*
X72648183Y105543496D02*
X72648183Y105781591D01*
X72648183Y105781591D02*
X72743422Y105924448D01*
X72743422Y105924448D02*
X72886279Y106019686D01*
X72886279Y106019686D02*
X73076755Y106067305D01*
X73076755Y106067305D02*
X73267231Y106019686D01*
X73267231Y106019686D02*
X73410088Y105924448D01*
X73410088Y105924448D02*
X73505326Y105781591D01*
X73505326Y105781591D02*
X73552945Y105591115D01*
X73552945Y105591115D02*
X73505326Y105400639D01*
X73505326Y105400639D02*
X73410088Y105257781D01*
X73410088Y105257781D02*
X73267231Y105162543D01*
X73267231Y105162543D02*
X73076755Y105114924D01*
X73076755Y105114924D02*
X72886279Y105162543D01*
X72886279Y105162543D02*
X72743422Y105257781D01*
X72219612Y105257781D02*
X72219612Y106257781D01*
X71791041Y105257781D02*
X71791041Y105781591D01*
X71791041Y105781591D02*
X71838660Y105876829D01*
X71838660Y105876829D02*
X71933898Y105924448D01*
X71933898Y105924448D02*
X72076755Y105924448D01*
X72076755Y105924448D02*
X72171993Y105876829D01*
X72171993Y105876829D02*
X72219612Y105829210D01*
X70886279Y105257781D02*
X70886279Y105781591D01*
X70886279Y105781591D02*
X70933898Y105876829D01*
X70933898Y105876829D02*
X71029136Y105924448D01*
X71029136Y105924448D02*
X71219612Y105924448D01*
X71219612Y105924448D02*
X71314850Y105876829D01*
X70886279Y105305400D02*
X70981517Y105257781D01*
X70981517Y105257781D02*
X71219612Y105257781D01*
X71219612Y105257781D02*
X71314850Y105305400D01*
X71314850Y105305400D02*
X71362469Y105400639D01*
X71362469Y105400639D02*
X71362469Y105495877D01*
X71362469Y105495877D02*
X71314850Y105591115D01*
X71314850Y105591115D02*
X71219612Y105638734D01*
X71219612Y105638734D02*
X70981517Y105638734D01*
X70981517Y105638734D02*
X70886279Y105686353D01*
X70410088Y105257781D02*
X70410088Y105924448D01*
X70410088Y105829210D02*
X70362469Y105876829D01*
X70362469Y105876829D02*
X70267231Y105924448D01*
X70267231Y105924448D02*
X70124374Y105924448D01*
X70124374Y105924448D02*
X70029136Y105876829D01*
X70029136Y105876829D02*
X69981517Y105781591D01*
X69981517Y105781591D02*
X69981517Y105257781D01*
X69981517Y105781591D02*
X69933898Y105876829D01*
X69933898Y105876829D02*
X69838660Y105924448D01*
X69838660Y105924448D02*
X69695803Y105924448D01*
X69695803Y105924448D02*
X69600564Y105876829D01*
X69600564Y105876829D02*
X69552945Y105781591D01*
X69552945Y105781591D02*
X69552945Y105257781D01*
X69124374Y105305400D02*
X69029136Y105257781D01*
X69029136Y105257781D02*
X68838660Y105257781D01*
X68838660Y105257781D02*
X68743422Y105305400D01*
X68743422Y105305400D02*
X68695803Y105400639D01*
X68695803Y105400639D02*
X68695803Y105448258D01*
X68695803Y105448258D02*
X68743422Y105543496D01*
X68743422Y105543496D02*
X68838660Y105591115D01*
X68838660Y105591115D02*
X68981517Y105591115D01*
X68981517Y105591115D02*
X69076755Y105638734D01*
X69076755Y105638734D02*
X69124374Y105733972D01*
X69124374Y105733972D02*
X69124374Y105781591D01*
X69124374Y105781591D02*
X69076755Y105876829D01*
X69076755Y105876829D02*
X68981517Y105924448D01*
X68981517Y105924448D02*
X68838660Y105924448D01*
X68838660Y105924448D02*
X68743422Y105876829D01*
X68410088Y105924448D02*
X68029136Y105924448D01*
X68267231Y106257781D02*
X68267231Y105400639D01*
X68267231Y105400639D02*
X68219612Y105305400D01*
X68219612Y105305400D02*
X68124374Y105257781D01*
X68124374Y105257781D02*
X68029136Y105257781D01*
X67314850Y105305400D02*
X67410088Y105257781D01*
X67410088Y105257781D02*
X67600564Y105257781D01*
X67600564Y105257781D02*
X67695802Y105305400D01*
X67695802Y105305400D02*
X67743421Y105400639D01*
X67743421Y105400639D02*
X67743421Y105781591D01*
X67743421Y105781591D02*
X67695802Y105876829D01*
X67695802Y105876829D02*
X67600564Y105924448D01*
X67600564Y105924448D02*
X67410088Y105924448D01*
X67410088Y105924448D02*
X67314850Y105876829D01*
X67314850Y105876829D02*
X67267231Y105781591D01*
X67267231Y105781591D02*
X67267231Y105686353D01*
X67267231Y105686353D02*
X67743421Y105591115D01*
X66838659Y105257781D02*
X66838659Y105924448D01*
X66838659Y105733972D02*
X66791040Y105829210D01*
X66791040Y105829210D02*
X66743421Y105876829D01*
X66743421Y105876829D02*
X66648183Y105924448D01*
X66648183Y105924448D02*
X66552945Y105924448D01*
X52886279Y25733972D02*
X52933898Y25781591D01*
X52933898Y25781591D02*
X53029136Y25829210D01*
X53029136Y25829210D02*
X53124374Y25829210D01*
X53124374Y25829210D02*
X53219612Y25781591D01*
X53219612Y25781591D02*
X53267231Y25733972D01*
X53267231Y25733972D02*
X53314850Y25638734D01*
X53314850Y25638734D02*
X53314850Y25543496D01*
X53314850Y25543496D02*
X53267231Y25448258D01*
X53267231Y25448258D02*
X53219612Y25400639D01*
X53219612Y25400639D02*
X53124374Y25353020D01*
X53124374Y25353020D02*
X53029136Y25353020D01*
X53029136Y25353020D02*
X52933898Y25400639D01*
X52933898Y25400639D02*
X52886279Y25448258D01*
X52886279Y25829210D02*
X52886279Y25448258D01*
X52886279Y25448258D02*
X52838660Y25400639D01*
X52838660Y25400639D02*
X52791041Y25400639D01*
X52791041Y25400639D02*
X52695802Y25448258D01*
X52695802Y25448258D02*
X52648183Y25543496D01*
X52648183Y25543496D02*
X52648183Y25781591D01*
X52648183Y25781591D02*
X52743422Y25924448D01*
X52743422Y25924448D02*
X52886279Y26019686D01*
X52886279Y26019686D02*
X53076755Y26067305D01*
X53076755Y26067305D02*
X53267231Y26019686D01*
X53267231Y26019686D02*
X53410088Y25924448D01*
X53410088Y25924448D02*
X53505326Y25781591D01*
X53505326Y25781591D02*
X53552945Y25591115D01*
X53552945Y25591115D02*
X53505326Y25400639D01*
X53505326Y25400639D02*
X53410088Y25257781D01*
X53410088Y25257781D02*
X53267231Y25162543D01*
X53267231Y25162543D02*
X53076755Y25114924D01*
X53076755Y25114924D02*
X52886279Y25162543D01*
X52886279Y25162543D02*
X52743422Y25257781D01*
X52219612Y25257781D02*
X52219612Y26257781D01*
X51791041Y25257781D02*
X51791041Y25781591D01*
X51791041Y25781591D02*
X51838660Y25876829D01*
X51838660Y25876829D02*
X51933898Y25924448D01*
X51933898Y25924448D02*
X52076755Y25924448D01*
X52076755Y25924448D02*
X52171993Y25876829D01*
X52171993Y25876829D02*
X52219612Y25829210D01*
X50886279Y25257781D02*
X50886279Y25781591D01*
X50886279Y25781591D02*
X50933898Y25876829D01*
X50933898Y25876829D02*
X51029136Y25924448D01*
X51029136Y25924448D02*
X51219612Y25924448D01*
X51219612Y25924448D02*
X51314850Y25876829D01*
X50886279Y25305400D02*
X50981517Y25257781D01*
X50981517Y25257781D02*
X51219612Y25257781D01*
X51219612Y25257781D02*
X51314850Y25305400D01*
X51314850Y25305400D02*
X51362469Y25400639D01*
X51362469Y25400639D02*
X51362469Y25495877D01*
X51362469Y25495877D02*
X51314850Y25591115D01*
X51314850Y25591115D02*
X51219612Y25638734D01*
X51219612Y25638734D02*
X50981517Y25638734D01*
X50981517Y25638734D02*
X50886279Y25686353D01*
X50410088Y25257781D02*
X50410088Y25924448D01*
X50410088Y25829210D02*
X50362469Y25876829D01*
X50362469Y25876829D02*
X50267231Y25924448D01*
X50267231Y25924448D02*
X50124374Y25924448D01*
X50124374Y25924448D02*
X50029136Y25876829D01*
X50029136Y25876829D02*
X49981517Y25781591D01*
X49981517Y25781591D02*
X49981517Y25257781D01*
X49981517Y25781591D02*
X49933898Y25876829D01*
X49933898Y25876829D02*
X49838660Y25924448D01*
X49838660Y25924448D02*
X49695803Y25924448D01*
X49695803Y25924448D02*
X49600564Y25876829D01*
X49600564Y25876829D02*
X49552945Y25781591D01*
X49552945Y25781591D02*
X49552945Y25257781D01*
X49124374Y25305400D02*
X49029136Y25257781D01*
X49029136Y25257781D02*
X48838660Y25257781D01*
X48838660Y25257781D02*
X48743422Y25305400D01*
X48743422Y25305400D02*
X48695803Y25400639D01*
X48695803Y25400639D02*
X48695803Y25448258D01*
X48695803Y25448258D02*
X48743422Y25543496D01*
X48743422Y25543496D02*
X48838660Y25591115D01*
X48838660Y25591115D02*
X48981517Y25591115D01*
X48981517Y25591115D02*
X49076755Y25638734D01*
X49076755Y25638734D02*
X49124374Y25733972D01*
X49124374Y25733972D02*
X49124374Y25781591D01*
X49124374Y25781591D02*
X49076755Y25876829D01*
X49076755Y25876829D02*
X48981517Y25924448D01*
X48981517Y25924448D02*
X48838660Y25924448D01*
X48838660Y25924448D02*
X48743422Y25876829D01*
X48410088Y25924448D02*
X48029136Y25924448D01*
X48267231Y26257781D02*
X48267231Y25400639D01*
X48267231Y25400639D02*
X48219612Y25305400D01*
X48219612Y25305400D02*
X48124374Y25257781D01*
X48124374Y25257781D02*
X48029136Y25257781D01*
X47314850Y25305400D02*
X47410088Y25257781D01*
X47410088Y25257781D02*
X47600564Y25257781D01*
X47600564Y25257781D02*
X47695802Y25305400D01*
X47695802Y25305400D02*
X47743421Y25400639D01*
X47743421Y25400639D02*
X47743421Y25781591D01*
X47743421Y25781591D02*
X47695802Y25876829D01*
X47695802Y25876829D02*
X47600564Y25924448D01*
X47600564Y25924448D02*
X47410088Y25924448D01*
X47410088Y25924448D02*
X47314850Y25876829D01*
X47314850Y25876829D02*
X47267231Y25781591D01*
X47267231Y25781591D02*
X47267231Y25686353D01*
X47267231Y25686353D02*
X47743421Y25591115D01*
X46838659Y25257781D02*
X46838659Y25924448D01*
X46838659Y25733972D02*
X46791040Y25829210D01*
X46791040Y25829210D02*
X46743421Y25876829D01*
X46743421Y25876829D02*
X46648183Y25924448D01*
X46648183Y25924448D02*
X46552945Y25924448D01*
X92886279Y45733972D02*
X92933898Y45781591D01*
X92933898Y45781591D02*
X93029136Y45829210D01*
X93029136Y45829210D02*
X93124374Y45829210D01*
X93124374Y45829210D02*
X93219612Y45781591D01*
X93219612Y45781591D02*
X93267231Y45733972D01*
X93267231Y45733972D02*
X93314850Y45638734D01*
X93314850Y45638734D02*
X93314850Y45543496D01*
X93314850Y45543496D02*
X93267231Y45448258D01*
X93267231Y45448258D02*
X93219612Y45400639D01*
X93219612Y45400639D02*
X93124374Y45353020D01*
X93124374Y45353020D02*
X93029136Y45353020D01*
X93029136Y45353020D02*
X92933898Y45400639D01*
X92933898Y45400639D02*
X92886279Y45448258D01*
X92886279Y45829210D02*
X92886279Y45448258D01*
X92886279Y45448258D02*
X92838660Y45400639D01*
X92838660Y45400639D02*
X92791041Y45400639D01*
X92791041Y45400639D02*
X92695802Y45448258D01*
X92695802Y45448258D02*
X92648183Y45543496D01*
X92648183Y45543496D02*
X92648183Y45781591D01*
X92648183Y45781591D02*
X92743422Y45924448D01*
X92743422Y45924448D02*
X92886279Y46019686D01*
X92886279Y46019686D02*
X93076755Y46067305D01*
X93076755Y46067305D02*
X93267231Y46019686D01*
X93267231Y46019686D02*
X93410088Y45924448D01*
X93410088Y45924448D02*
X93505326Y45781591D01*
X93505326Y45781591D02*
X93552945Y45591115D01*
X93552945Y45591115D02*
X93505326Y45400639D01*
X93505326Y45400639D02*
X93410088Y45257781D01*
X93410088Y45257781D02*
X93267231Y45162543D01*
X93267231Y45162543D02*
X93076755Y45114924D01*
X93076755Y45114924D02*
X92886279Y45162543D01*
X92886279Y45162543D02*
X92743422Y45257781D01*
X92219612Y45257781D02*
X92219612Y46257781D01*
X91791041Y45257781D02*
X91791041Y45781591D01*
X91791041Y45781591D02*
X91838660Y45876829D01*
X91838660Y45876829D02*
X91933898Y45924448D01*
X91933898Y45924448D02*
X92076755Y45924448D01*
X92076755Y45924448D02*
X92171993Y45876829D01*
X92171993Y45876829D02*
X92219612Y45829210D01*
X90886279Y45257781D02*
X90886279Y45781591D01*
X90886279Y45781591D02*
X90933898Y45876829D01*
X90933898Y45876829D02*
X91029136Y45924448D01*
X91029136Y45924448D02*
X91219612Y45924448D01*
X91219612Y45924448D02*
X91314850Y45876829D01*
X90886279Y45305400D02*
X90981517Y45257781D01*
X90981517Y45257781D02*
X91219612Y45257781D01*
X91219612Y45257781D02*
X91314850Y45305400D01*
X91314850Y45305400D02*
X91362469Y45400639D01*
X91362469Y45400639D02*
X91362469Y45495877D01*
X91362469Y45495877D02*
X91314850Y45591115D01*
X91314850Y45591115D02*
X91219612Y45638734D01*
X91219612Y45638734D02*
X90981517Y45638734D01*
X90981517Y45638734D02*
X90886279Y45686353D01*
X90410088Y45257781D02*
X90410088Y45924448D01*
X90410088Y45829210D02*
X90362469Y45876829D01*
X90362469Y45876829D02*
X90267231Y45924448D01*
X90267231Y45924448D02*
X90124374Y45924448D01*
X90124374Y45924448D02*
X90029136Y45876829D01*
X90029136Y45876829D02*
X89981517Y45781591D01*
X89981517Y45781591D02*
X89981517Y45257781D01*
X89981517Y45781591D02*
X89933898Y45876829D01*
X89933898Y45876829D02*
X89838660Y45924448D01*
X89838660Y45924448D02*
X89695803Y45924448D01*
X89695803Y45924448D02*
X89600564Y45876829D01*
X89600564Y45876829D02*
X89552945Y45781591D01*
X89552945Y45781591D02*
X89552945Y45257781D01*
X89124374Y45305400D02*
X89029136Y45257781D01*
X89029136Y45257781D02*
X88838660Y45257781D01*
X88838660Y45257781D02*
X88743422Y45305400D01*
X88743422Y45305400D02*
X88695803Y45400639D01*
X88695803Y45400639D02*
X88695803Y45448258D01*
X88695803Y45448258D02*
X88743422Y45543496D01*
X88743422Y45543496D02*
X88838660Y45591115D01*
X88838660Y45591115D02*
X88981517Y45591115D01*
X88981517Y45591115D02*
X89076755Y45638734D01*
X89076755Y45638734D02*
X89124374Y45733972D01*
X89124374Y45733972D02*
X89124374Y45781591D01*
X89124374Y45781591D02*
X89076755Y45876829D01*
X89076755Y45876829D02*
X88981517Y45924448D01*
X88981517Y45924448D02*
X88838660Y45924448D01*
X88838660Y45924448D02*
X88743422Y45876829D01*
X88410088Y45924448D02*
X88029136Y45924448D01*
X88267231Y46257781D02*
X88267231Y45400639D01*
X88267231Y45400639D02*
X88219612Y45305400D01*
X88219612Y45305400D02*
X88124374Y45257781D01*
X88124374Y45257781D02*
X88029136Y45257781D01*
X87314850Y45305400D02*
X87410088Y45257781D01*
X87410088Y45257781D02*
X87600564Y45257781D01*
X87600564Y45257781D02*
X87695802Y45305400D01*
X87695802Y45305400D02*
X87743421Y45400639D01*
X87743421Y45400639D02*
X87743421Y45781591D01*
X87743421Y45781591D02*
X87695802Y45876829D01*
X87695802Y45876829D02*
X87600564Y45924448D01*
X87600564Y45924448D02*
X87410088Y45924448D01*
X87410088Y45924448D02*
X87314850Y45876829D01*
X87314850Y45876829D02*
X87267231Y45781591D01*
X87267231Y45781591D02*
X87267231Y45686353D01*
X87267231Y45686353D02*
X87743421Y45591115D01*
X86838659Y45257781D02*
X86838659Y45924448D01*
X86838659Y45733972D02*
X86791040Y45829210D01*
X86791040Y45829210D02*
X86743421Y45876829D01*
X86743421Y45876829D02*
X86648183Y45924448D01*
X86648183Y45924448D02*
X86552945Y45924448D01*
X72886279Y85733972D02*
X72933898Y85781591D01*
X72933898Y85781591D02*
X73029136Y85829210D01*
X73029136Y85829210D02*
X73124374Y85829210D01*
X73124374Y85829210D02*
X73219612Y85781591D01*
X73219612Y85781591D02*
X73267231Y85733972D01*
X73267231Y85733972D02*
X73314850Y85638734D01*
X73314850Y85638734D02*
X73314850Y85543496D01*
X73314850Y85543496D02*
X73267231Y85448258D01*
X73267231Y85448258D02*
X73219612Y85400639D01*
X73219612Y85400639D02*
X73124374Y85353020D01*
X73124374Y85353020D02*
X73029136Y85353020D01*
X73029136Y85353020D02*
X72933898Y85400639D01*
X72933898Y85400639D02*
X72886279Y85448258D01*
X72886279Y85829210D02*
X72886279Y85448258D01*
X72886279Y85448258D02*
X72838660Y85400639D01*
X72838660Y85400639D02*
X72791041Y85400639D01*
X72791041Y85400639D02*
X72695802Y85448258D01*
X72695802Y85448258D02*
X72648183Y85543496D01*
X72648183Y85543496D02*
X72648183Y85781591D01*
X72648183Y85781591D02*
X72743422Y85924448D01*
X72743422Y85924448D02*
X72886279Y86019686D01*
X72886279Y86019686D02*
X73076755Y86067305D01*
X73076755Y86067305D02*
X73267231Y86019686D01*
X73267231Y86019686D02*
X73410088Y85924448D01*
X73410088Y85924448D02*
X73505326Y85781591D01*
X73505326Y85781591D02*
X73552945Y85591115D01*
X73552945Y85591115D02*
X73505326Y85400639D01*
X73505326Y85400639D02*
X73410088Y85257781D01*
X73410088Y85257781D02*
X73267231Y85162543D01*
X73267231Y85162543D02*
X73076755Y85114924D01*
X73076755Y85114924D02*
X72886279Y85162543D01*
X72886279Y85162543D02*
X72743422Y85257781D01*
X72219612Y85257781D02*
X72219612Y86257781D01*
X71791041Y85257781D02*
X71791041Y85781591D01*
X71791041Y85781591D02*
X71838660Y85876829D01*
X71838660Y85876829D02*
X71933898Y85924448D01*
X71933898Y85924448D02*
X72076755Y85924448D01*
X72076755Y85924448D02*
X72171993Y85876829D01*
X72171993Y85876829D02*
X72219612Y85829210D01*
X70886279Y85257781D02*
X70886279Y85781591D01*
X70886279Y85781591D02*
X70933898Y85876829D01*
X70933898Y85876829D02*
X71029136Y85924448D01*
X71029136Y85924448D02*
X71219612Y85924448D01*
X71219612Y85924448D02*
X71314850Y85876829D01*
X70886279Y85305400D02*
X70981517Y85257781D01*
X70981517Y85257781D02*
X71219612Y85257781D01*
X71219612Y85257781D02*
X71314850Y85305400D01*
X71314850Y85305400D02*
X71362469Y85400639D01*
X71362469Y85400639D02*
X71362469Y85495877D01*
X71362469Y85495877D02*
X71314850Y85591115D01*
X71314850Y85591115D02*
X71219612Y85638734D01*
X71219612Y85638734D02*
X70981517Y85638734D01*
X70981517Y85638734D02*
X70886279Y85686353D01*
X70410088Y85257781D02*
X70410088Y85924448D01*
X70410088Y85829210D02*
X70362469Y85876829D01*
X70362469Y85876829D02*
X70267231Y85924448D01*
X70267231Y85924448D02*
X70124374Y85924448D01*
X70124374Y85924448D02*
X70029136Y85876829D01*
X70029136Y85876829D02*
X69981517Y85781591D01*
X69981517Y85781591D02*
X69981517Y85257781D01*
X69981517Y85781591D02*
X69933898Y85876829D01*
X69933898Y85876829D02*
X69838660Y85924448D01*
X69838660Y85924448D02*
X69695803Y85924448D01*
X69695803Y85924448D02*
X69600564Y85876829D01*
X69600564Y85876829D02*
X69552945Y85781591D01*
X69552945Y85781591D02*
X69552945Y85257781D01*
X69124374Y85305400D02*
X69029136Y85257781D01*
X69029136Y85257781D02*
X68838660Y85257781D01*
X68838660Y85257781D02*
X68743422Y85305400D01*
X68743422Y85305400D02*
X68695803Y85400639D01*
X68695803Y85400639D02*
X68695803Y85448258D01*
X68695803Y85448258D02*
X68743422Y85543496D01*
X68743422Y85543496D02*
X68838660Y85591115D01*
X68838660Y85591115D02*
X68981517Y85591115D01*
X68981517Y85591115D02*
X69076755Y85638734D01*
X69076755Y85638734D02*
X69124374Y85733972D01*
X69124374Y85733972D02*
X69124374Y85781591D01*
X69124374Y85781591D02*
X69076755Y85876829D01*
X69076755Y85876829D02*
X68981517Y85924448D01*
X68981517Y85924448D02*
X68838660Y85924448D01*
X68838660Y85924448D02*
X68743422Y85876829D01*
X68410088Y85924448D02*
X68029136Y85924448D01*
X68267231Y86257781D02*
X68267231Y85400639D01*
X68267231Y85400639D02*
X68219612Y85305400D01*
X68219612Y85305400D02*
X68124374Y85257781D01*
X68124374Y85257781D02*
X68029136Y85257781D01*
X67314850Y85305400D02*
X67410088Y85257781D01*
X67410088Y85257781D02*
X67600564Y85257781D01*
X67600564Y85257781D02*
X67695802Y85305400D01*
X67695802Y85305400D02*
X67743421Y85400639D01*
X67743421Y85400639D02*
X67743421Y85781591D01*
X67743421Y85781591D02*
X67695802Y85876829D01*
X67695802Y85876829D02*
X67600564Y85924448D01*
X67600564Y85924448D02*
X67410088Y85924448D01*
X67410088Y85924448D02*
X67314850Y85876829D01*
X67314850Y85876829D02*
X67267231Y85781591D01*
X67267231Y85781591D02*
X67267231Y85686353D01*
X67267231Y85686353D02*
X67743421Y85591115D01*
X66838659Y85257781D02*
X66838659Y85924448D01*
X66838659Y85733972D02*
X66791040Y85829210D01*
X66791040Y85829210D02*
X66743421Y85876829D01*
X66743421Y85876829D02*
X66648183Y85924448D01*
X66648183Y85924448D02*
X66552945Y85924448D01*
X92886279Y105733972D02*
X92933898Y105781591D01*
X92933898Y105781591D02*
X93029136Y105829210D01*
X93029136Y105829210D02*
X93124374Y105829210D01*
X93124374Y105829210D02*
X93219612Y105781591D01*
X93219612Y105781591D02*
X93267231Y105733972D01*
X93267231Y105733972D02*
X93314850Y105638734D01*
X93314850Y105638734D02*
X93314850Y105543496D01*
X93314850Y105543496D02*
X93267231Y105448258D01*
X93267231Y105448258D02*
X93219612Y105400639D01*
X93219612Y105400639D02*
X93124374Y105353020D01*
X93124374Y105353020D02*
X93029136Y105353020D01*
X93029136Y105353020D02*
X92933898Y105400639D01*
X92933898Y105400639D02*
X92886279Y105448258D01*
X92886279Y105829210D02*
X92886279Y105448258D01*
X92886279Y105448258D02*
X92838660Y105400639D01*
X92838660Y105400639D02*
X92791041Y105400639D01*
X92791041Y105400639D02*
X92695802Y105448258D01*
X92695802Y105448258D02*
X92648183Y105543496D01*
X92648183Y105543496D02*
X92648183Y105781591D01*
X92648183Y105781591D02*
X92743422Y105924448D01*
X92743422Y105924448D02*
X92886279Y106019686D01*
X92886279Y106019686D02*
X93076755Y106067305D01*
X93076755Y106067305D02*
X93267231Y106019686D01*
X93267231Y106019686D02*
X93410088Y105924448D01*
X93410088Y105924448D02*
X93505326Y105781591D01*
X93505326Y105781591D02*
X93552945Y105591115D01*
X93552945Y105591115D02*
X93505326Y105400639D01*
X93505326Y105400639D02*
X93410088Y105257781D01*
X93410088Y105257781D02*
X93267231Y105162543D01*
X93267231Y105162543D02*
X93076755Y105114924D01*
X93076755Y105114924D02*
X92886279Y105162543D01*
X92886279Y105162543D02*
X92743422Y105257781D01*
X92219612Y105257781D02*
X92219612Y106257781D01*
X91791041Y105257781D02*
X91791041Y105781591D01*
X91791041Y105781591D02*
X91838660Y105876829D01*
X91838660Y105876829D02*
X91933898Y105924448D01*
X91933898Y105924448D02*
X92076755Y105924448D01*
X92076755Y105924448D02*
X92171993Y105876829D01*
X92171993Y105876829D02*
X92219612Y105829210D01*
X90886279Y105257781D02*
X90886279Y105781591D01*
X90886279Y105781591D02*
X90933898Y105876829D01*
X90933898Y105876829D02*
X91029136Y105924448D01*
X91029136Y105924448D02*
X91219612Y105924448D01*
X91219612Y105924448D02*
X91314850Y105876829D01*
X90886279Y105305400D02*
X90981517Y105257781D01*
X90981517Y105257781D02*
X91219612Y105257781D01*
X91219612Y105257781D02*
X91314850Y105305400D01*
X91314850Y105305400D02*
X91362469Y105400639D01*
X91362469Y105400639D02*
X91362469Y105495877D01*
X91362469Y105495877D02*
X91314850Y105591115D01*
X91314850Y105591115D02*
X91219612Y105638734D01*
X91219612Y105638734D02*
X90981517Y105638734D01*
X90981517Y105638734D02*
X90886279Y105686353D01*
X90410088Y105257781D02*
X90410088Y105924448D01*
X90410088Y105829210D02*
X90362469Y105876829D01*
X90362469Y105876829D02*
X90267231Y105924448D01*
X90267231Y105924448D02*
X90124374Y105924448D01*
X90124374Y105924448D02*
X90029136Y105876829D01*
X90029136Y105876829D02*
X89981517Y105781591D01*
X89981517Y105781591D02*
X89981517Y105257781D01*
X89981517Y105781591D02*
X89933898Y105876829D01*
X89933898Y105876829D02*
X89838660Y105924448D01*
X89838660Y105924448D02*
X89695803Y105924448D01*
X89695803Y105924448D02*
X89600564Y105876829D01*
X89600564Y105876829D02*
X89552945Y105781591D01*
X89552945Y105781591D02*
X89552945Y105257781D01*
X89124374Y105305400D02*
X89029136Y105257781D01*
X89029136Y105257781D02*
X88838660Y105257781D01*
X88838660Y105257781D02*
X88743422Y105305400D01*
X88743422Y105305400D02*
X88695803Y105400639D01*
X88695803Y105400639D02*
X88695803Y105448258D01*
X88695803Y105448258D02*
X88743422Y105543496D01*
X88743422Y105543496D02*
X88838660Y105591115D01*
X88838660Y105591115D02*
X88981517Y105591115D01*
X88981517Y105591115D02*
X89076755Y105638734D01*
X89076755Y105638734D02*
X89124374Y105733972D01*
X89124374Y105733972D02*
X89124374Y105781591D01*
X89124374Y105781591D02*
X89076755Y105876829D01*
X89076755Y105876829D02*
X88981517Y105924448D01*
X88981517Y105924448D02*
X88838660Y105924448D01*
X88838660Y105924448D02*
X88743422Y105876829D01*
X88410088Y105924448D02*
X88029136Y105924448D01*
X88267231Y106257781D02*
X88267231Y105400639D01*
X88267231Y105400639D02*
X88219612Y105305400D01*
X88219612Y105305400D02*
X88124374Y105257781D01*
X88124374Y105257781D02*
X88029136Y105257781D01*
X87314850Y105305400D02*
X87410088Y105257781D01*
X87410088Y105257781D02*
X87600564Y105257781D01*
X87600564Y105257781D02*
X87695802Y105305400D01*
X87695802Y105305400D02*
X87743421Y105400639D01*
X87743421Y105400639D02*
X87743421Y105781591D01*
X87743421Y105781591D02*
X87695802Y105876829D01*
X87695802Y105876829D02*
X87600564Y105924448D01*
X87600564Y105924448D02*
X87410088Y105924448D01*
X87410088Y105924448D02*
X87314850Y105876829D01*
X87314850Y105876829D02*
X87267231Y105781591D01*
X87267231Y105781591D02*
X87267231Y105686353D01*
X87267231Y105686353D02*
X87743421Y105591115D01*
X86838659Y105257781D02*
X86838659Y105924448D01*
X86838659Y105733972D02*
X86791040Y105829210D01*
X86791040Y105829210D02*
X86743421Y105876829D01*
X86743421Y105876829D02*
X86648183Y105924448D01*
X86648183Y105924448D02*
X86552945Y105924448D01*
X52886279Y85733972D02*
X52933898Y85781591D01*
X52933898Y85781591D02*
X53029136Y85829210D01*
X53029136Y85829210D02*
X53124374Y85829210D01*
X53124374Y85829210D02*
X53219612Y85781591D01*
X53219612Y85781591D02*
X53267231Y85733972D01*
X53267231Y85733972D02*
X53314850Y85638734D01*
X53314850Y85638734D02*
X53314850Y85543496D01*
X53314850Y85543496D02*
X53267231Y85448258D01*
X53267231Y85448258D02*
X53219612Y85400639D01*
X53219612Y85400639D02*
X53124374Y85353020D01*
X53124374Y85353020D02*
X53029136Y85353020D01*
X53029136Y85353020D02*
X52933898Y85400639D01*
X52933898Y85400639D02*
X52886279Y85448258D01*
X52886279Y85829210D02*
X52886279Y85448258D01*
X52886279Y85448258D02*
X52838660Y85400639D01*
X52838660Y85400639D02*
X52791041Y85400639D01*
X52791041Y85400639D02*
X52695802Y85448258D01*
X52695802Y85448258D02*
X52648183Y85543496D01*
X52648183Y85543496D02*
X52648183Y85781591D01*
X52648183Y85781591D02*
X52743422Y85924448D01*
X52743422Y85924448D02*
X52886279Y86019686D01*
X52886279Y86019686D02*
X53076755Y86067305D01*
X53076755Y86067305D02*
X53267231Y86019686D01*
X53267231Y86019686D02*
X53410088Y85924448D01*
X53410088Y85924448D02*
X53505326Y85781591D01*
X53505326Y85781591D02*
X53552945Y85591115D01*
X53552945Y85591115D02*
X53505326Y85400639D01*
X53505326Y85400639D02*
X53410088Y85257781D01*
X53410088Y85257781D02*
X53267231Y85162543D01*
X53267231Y85162543D02*
X53076755Y85114924D01*
X53076755Y85114924D02*
X52886279Y85162543D01*
X52886279Y85162543D02*
X52743422Y85257781D01*
X52219612Y85257781D02*
X52219612Y86257781D01*
X51791041Y85257781D02*
X51791041Y85781591D01*
X51791041Y85781591D02*
X51838660Y85876829D01*
X51838660Y85876829D02*
X51933898Y85924448D01*
X51933898Y85924448D02*
X52076755Y85924448D01*
X52076755Y85924448D02*
X52171993Y85876829D01*
X52171993Y85876829D02*
X52219612Y85829210D01*
X50886279Y85257781D02*
X50886279Y85781591D01*
X50886279Y85781591D02*
X50933898Y85876829D01*
X50933898Y85876829D02*
X51029136Y85924448D01*
X51029136Y85924448D02*
X51219612Y85924448D01*
X51219612Y85924448D02*
X51314850Y85876829D01*
X50886279Y85305400D02*
X50981517Y85257781D01*
X50981517Y85257781D02*
X51219612Y85257781D01*
X51219612Y85257781D02*
X51314850Y85305400D01*
X51314850Y85305400D02*
X51362469Y85400639D01*
X51362469Y85400639D02*
X51362469Y85495877D01*
X51362469Y85495877D02*
X51314850Y85591115D01*
X51314850Y85591115D02*
X51219612Y85638734D01*
X51219612Y85638734D02*
X50981517Y85638734D01*
X50981517Y85638734D02*
X50886279Y85686353D01*
X50410088Y85257781D02*
X50410088Y85924448D01*
X50410088Y85829210D02*
X50362469Y85876829D01*
X50362469Y85876829D02*
X50267231Y85924448D01*
X50267231Y85924448D02*
X50124374Y85924448D01*
X50124374Y85924448D02*
X50029136Y85876829D01*
X50029136Y85876829D02*
X49981517Y85781591D01*
X49981517Y85781591D02*
X49981517Y85257781D01*
X49981517Y85781591D02*
X49933898Y85876829D01*
X49933898Y85876829D02*
X49838660Y85924448D01*
X49838660Y85924448D02*
X49695803Y85924448D01*
X49695803Y85924448D02*
X49600564Y85876829D01*
X49600564Y85876829D02*
X49552945Y85781591D01*
X49552945Y85781591D02*
X49552945Y85257781D01*
X49124374Y85305400D02*
X49029136Y85257781D01*
X49029136Y85257781D02*
X48838660Y85257781D01*
X48838660Y85257781D02*
X48743422Y85305400D01*
X48743422Y85305400D02*
X48695803Y85400639D01*
X48695803Y85400639D02*
X48695803Y85448258D01*
X48695803Y85448258D02*
X48743422Y85543496D01*
X48743422Y85543496D02*
X48838660Y85591115D01*
X48838660Y85591115D02*
X48981517Y85591115D01*
X48981517Y85591115D02*
X49076755Y85638734D01*
X49076755Y85638734D02*
X49124374Y85733972D01*
X49124374Y85733972D02*
X49124374Y85781591D01*
X49124374Y85781591D02*
X49076755Y85876829D01*
X49076755Y85876829D02*
X48981517Y85924448D01*
X48981517Y85924448D02*
X48838660Y85924448D01*
X48838660Y85924448D02*
X48743422Y85876829D01*
X48410088Y85924448D02*
X48029136Y85924448D01*
X48267231Y86257781D02*
X48267231Y85400639D01*
X48267231Y85400639D02*
X48219612Y85305400D01*
X48219612Y85305400D02*
X48124374Y85257781D01*
X48124374Y85257781D02*
X48029136Y85257781D01*
X47314850Y85305400D02*
X47410088Y85257781D01*
X47410088Y85257781D02*
X47600564Y85257781D01*
X47600564Y85257781D02*
X47695802Y85305400D01*
X47695802Y85305400D02*
X47743421Y85400639D01*
X47743421Y85400639D02*
X47743421Y85781591D01*
X47743421Y85781591D02*
X47695802Y85876829D01*
X47695802Y85876829D02*
X47600564Y85924448D01*
X47600564Y85924448D02*
X47410088Y85924448D01*
X47410088Y85924448D02*
X47314850Y85876829D01*
X47314850Y85876829D02*
X47267231Y85781591D01*
X47267231Y85781591D02*
X47267231Y85686353D01*
X47267231Y85686353D02*
X47743421Y85591115D01*
X46838659Y85257781D02*
X46838659Y85924448D01*
X46838659Y85733972D02*
X46791040Y85829210D01*
X46791040Y85829210D02*
X46743421Y85876829D01*
X46743421Y85876829D02*
X46648183Y85924448D01*
X46648183Y85924448D02*
X46552945Y85924448D01*
X12886279Y45733972D02*
X12933898Y45781591D01*
X12933898Y45781591D02*
X13029136Y45829210D01*
X13029136Y45829210D02*
X13124374Y45829210D01*
X13124374Y45829210D02*
X13219612Y45781591D01*
X13219612Y45781591D02*
X13267231Y45733972D01*
X13267231Y45733972D02*
X13314850Y45638734D01*
X13314850Y45638734D02*
X13314850Y45543496D01*
X13314850Y45543496D02*
X13267231Y45448258D01*
X13267231Y45448258D02*
X13219612Y45400639D01*
X13219612Y45400639D02*
X13124374Y45353020D01*
X13124374Y45353020D02*
X13029136Y45353020D01*
X13029136Y45353020D02*
X12933898Y45400639D01*
X12933898Y45400639D02*
X12886279Y45448258D01*
X12886279Y45829210D02*
X12886279Y45448258D01*
X12886279Y45448258D02*
X12838660Y45400639D01*
X12838660Y45400639D02*
X12791041Y45400639D01*
X12791041Y45400639D02*
X12695802Y45448258D01*
X12695802Y45448258D02*
X12648183Y45543496D01*
X12648183Y45543496D02*
X12648183Y45781591D01*
X12648183Y45781591D02*
X12743422Y45924448D01*
X12743422Y45924448D02*
X12886279Y46019686D01*
X12886279Y46019686D02*
X13076755Y46067305D01*
X13076755Y46067305D02*
X13267231Y46019686D01*
X13267231Y46019686D02*
X13410088Y45924448D01*
X13410088Y45924448D02*
X13505326Y45781591D01*
X13505326Y45781591D02*
X13552945Y45591115D01*
X13552945Y45591115D02*
X13505326Y45400639D01*
X13505326Y45400639D02*
X13410088Y45257781D01*
X13410088Y45257781D02*
X13267231Y45162543D01*
X13267231Y45162543D02*
X13076755Y45114924D01*
X13076755Y45114924D02*
X12886279Y45162543D01*
X12886279Y45162543D02*
X12743422Y45257781D01*
X12219612Y45257781D02*
X12219612Y46257781D01*
X11791041Y45257781D02*
X11791041Y45781591D01*
X11791041Y45781591D02*
X11838660Y45876829D01*
X11838660Y45876829D02*
X11933898Y45924448D01*
X11933898Y45924448D02*
X12076755Y45924448D01*
X12076755Y45924448D02*
X12171993Y45876829D01*
X12171993Y45876829D02*
X12219612Y45829210D01*
X10886279Y45257781D02*
X10886279Y45781591D01*
X10886279Y45781591D02*
X10933898Y45876829D01*
X10933898Y45876829D02*
X11029136Y45924448D01*
X11029136Y45924448D02*
X11219612Y45924448D01*
X11219612Y45924448D02*
X11314850Y45876829D01*
X10886279Y45305400D02*
X10981517Y45257781D01*
X10981517Y45257781D02*
X11219612Y45257781D01*
X11219612Y45257781D02*
X11314850Y45305400D01*
X11314850Y45305400D02*
X11362469Y45400639D01*
X11362469Y45400639D02*
X11362469Y45495877D01*
X11362469Y45495877D02*
X11314850Y45591115D01*
X11314850Y45591115D02*
X11219612Y45638734D01*
X11219612Y45638734D02*
X10981517Y45638734D01*
X10981517Y45638734D02*
X10886279Y45686353D01*
X10410088Y45257781D02*
X10410088Y45924448D01*
X10410088Y45829210D02*
X10362469Y45876829D01*
X10362469Y45876829D02*
X10267231Y45924448D01*
X10267231Y45924448D02*
X10124374Y45924448D01*
X10124374Y45924448D02*
X10029136Y45876829D01*
X10029136Y45876829D02*
X9981517Y45781591D01*
X9981517Y45781591D02*
X9981517Y45257781D01*
X9981517Y45781591D02*
X9933898Y45876829D01*
X9933898Y45876829D02*
X9838660Y45924448D01*
X9838660Y45924448D02*
X9695803Y45924448D01*
X9695803Y45924448D02*
X9600564Y45876829D01*
X9600564Y45876829D02*
X9552945Y45781591D01*
X9552945Y45781591D02*
X9552945Y45257781D01*
X9124374Y45305400D02*
X9029136Y45257781D01*
X9029136Y45257781D02*
X8838660Y45257781D01*
X8838660Y45257781D02*
X8743422Y45305400D01*
X8743422Y45305400D02*
X8695803Y45400639D01*
X8695803Y45400639D02*
X8695803Y45448258D01*
X8695803Y45448258D02*
X8743422Y45543496D01*
X8743422Y45543496D02*
X8838660Y45591115D01*
X8838660Y45591115D02*
X8981517Y45591115D01*
X8981517Y45591115D02*
X9076755Y45638734D01*
X9076755Y45638734D02*
X9124374Y45733972D01*
X9124374Y45733972D02*
X9124374Y45781591D01*
X9124374Y45781591D02*
X9076755Y45876829D01*
X9076755Y45876829D02*
X8981517Y45924448D01*
X8981517Y45924448D02*
X8838660Y45924448D01*
X8838660Y45924448D02*
X8743422Y45876829D01*
X8410088Y45924448D02*
X8029136Y45924448D01*
X8267231Y46257781D02*
X8267231Y45400639D01*
X8267231Y45400639D02*
X8219612Y45305400D01*
X8219612Y45305400D02*
X8124374Y45257781D01*
X8124374Y45257781D02*
X8029136Y45257781D01*
X7314850Y45305400D02*
X7410088Y45257781D01*
X7410088Y45257781D02*
X7600564Y45257781D01*
X7600564Y45257781D02*
X7695802Y45305400D01*
X7695802Y45305400D02*
X7743421Y45400639D01*
X7743421Y45400639D02*
X7743421Y45781591D01*
X7743421Y45781591D02*
X7695802Y45876829D01*
X7695802Y45876829D02*
X7600564Y45924448D01*
X7600564Y45924448D02*
X7410088Y45924448D01*
X7410088Y45924448D02*
X7314850Y45876829D01*
X7314850Y45876829D02*
X7267231Y45781591D01*
X7267231Y45781591D02*
X7267231Y45686353D01*
X7267231Y45686353D02*
X7743421Y45591115D01*
X6838659Y45257781D02*
X6838659Y45924448D01*
X6838659Y45733972D02*
X6791040Y45829210D01*
X6791040Y45829210D02*
X6743421Y45876829D01*
X6743421Y45876829D02*
X6648183Y45924448D01*
X6648183Y45924448D02*
X6552945Y45924448D01*
X32886279Y85733972D02*
X32933898Y85781591D01*
X32933898Y85781591D02*
X33029136Y85829210D01*
X33029136Y85829210D02*
X33124374Y85829210D01*
X33124374Y85829210D02*
X33219612Y85781591D01*
X33219612Y85781591D02*
X33267231Y85733972D01*
X33267231Y85733972D02*
X33314850Y85638734D01*
X33314850Y85638734D02*
X33314850Y85543496D01*
X33314850Y85543496D02*
X33267231Y85448258D01*
X33267231Y85448258D02*
X33219612Y85400639D01*
X33219612Y85400639D02*
X33124374Y85353020D01*
X33124374Y85353020D02*
X33029136Y85353020D01*
X33029136Y85353020D02*
X32933898Y85400639D01*
X32933898Y85400639D02*
X32886279Y85448258D01*
X32886279Y85829210D02*
X32886279Y85448258D01*
X32886279Y85448258D02*
X32838660Y85400639D01*
X32838660Y85400639D02*
X32791041Y85400639D01*
X32791041Y85400639D02*
X32695802Y85448258D01*
X32695802Y85448258D02*
X32648183Y85543496D01*
X32648183Y85543496D02*
X32648183Y85781591D01*
X32648183Y85781591D02*
X32743422Y85924448D01*
X32743422Y85924448D02*
X32886279Y86019686D01*
X32886279Y86019686D02*
X33076755Y86067305D01*
X33076755Y86067305D02*
X33267231Y86019686D01*
X33267231Y86019686D02*
X33410088Y85924448D01*
X33410088Y85924448D02*
X33505326Y85781591D01*
X33505326Y85781591D02*
X33552945Y85591115D01*
X33552945Y85591115D02*
X33505326Y85400639D01*
X33505326Y85400639D02*
X33410088Y85257781D01*
X33410088Y85257781D02*
X33267231Y85162543D01*
X33267231Y85162543D02*
X33076755Y85114924D01*
X33076755Y85114924D02*
X32886279Y85162543D01*
X32886279Y85162543D02*
X32743422Y85257781D01*
X32219612Y85257781D02*
X32219612Y86257781D01*
X31791041Y85257781D02*
X31791041Y85781591D01*
X31791041Y85781591D02*
X31838660Y85876829D01*
X31838660Y85876829D02*
X31933898Y85924448D01*
X31933898Y85924448D02*
X32076755Y85924448D01*
X32076755Y85924448D02*
X32171993Y85876829D01*
X32171993Y85876829D02*
X32219612Y85829210D01*
X30886279Y85257781D02*
X30886279Y85781591D01*
X30886279Y85781591D02*
X30933898Y85876829D01*
X30933898Y85876829D02*
X31029136Y85924448D01*
X31029136Y85924448D02*
X31219612Y85924448D01*
X31219612Y85924448D02*
X31314850Y85876829D01*
X30886279Y85305400D02*
X30981517Y85257781D01*
X30981517Y85257781D02*
X31219612Y85257781D01*
X31219612Y85257781D02*
X31314850Y85305400D01*
X31314850Y85305400D02*
X31362469Y85400639D01*
X31362469Y85400639D02*
X31362469Y85495877D01*
X31362469Y85495877D02*
X31314850Y85591115D01*
X31314850Y85591115D02*
X31219612Y85638734D01*
X31219612Y85638734D02*
X30981517Y85638734D01*
X30981517Y85638734D02*
X30886279Y85686353D01*
X30410088Y85257781D02*
X30410088Y85924448D01*
X30410088Y85829210D02*
X30362469Y85876829D01*
X30362469Y85876829D02*
X30267231Y85924448D01*
X30267231Y85924448D02*
X30124374Y85924448D01*
X30124374Y85924448D02*
X30029136Y85876829D01*
X30029136Y85876829D02*
X29981517Y85781591D01*
X29981517Y85781591D02*
X29981517Y85257781D01*
X29981517Y85781591D02*
X29933898Y85876829D01*
X29933898Y85876829D02*
X29838660Y85924448D01*
X29838660Y85924448D02*
X29695803Y85924448D01*
X29695803Y85924448D02*
X29600564Y85876829D01*
X29600564Y85876829D02*
X29552945Y85781591D01*
X29552945Y85781591D02*
X29552945Y85257781D01*
X29124374Y85305400D02*
X29029136Y85257781D01*
X29029136Y85257781D02*
X28838660Y85257781D01*
X28838660Y85257781D02*
X28743422Y85305400D01*
X28743422Y85305400D02*
X28695803Y85400639D01*
X28695803Y85400639D02*
X28695803Y85448258D01*
X28695803Y85448258D02*
X28743422Y85543496D01*
X28743422Y85543496D02*
X28838660Y85591115D01*
X28838660Y85591115D02*
X28981517Y85591115D01*
X28981517Y85591115D02*
X29076755Y85638734D01*
X29076755Y85638734D02*
X29124374Y85733972D01*
X29124374Y85733972D02*
X29124374Y85781591D01*
X29124374Y85781591D02*
X29076755Y85876829D01*
X29076755Y85876829D02*
X28981517Y85924448D01*
X28981517Y85924448D02*
X28838660Y85924448D01*
X28838660Y85924448D02*
X28743422Y85876829D01*
X28410088Y85924448D02*
X28029136Y85924448D01*
X28267231Y86257781D02*
X28267231Y85400639D01*
X28267231Y85400639D02*
X28219612Y85305400D01*
X28219612Y85305400D02*
X28124374Y85257781D01*
X28124374Y85257781D02*
X28029136Y85257781D01*
X27314850Y85305400D02*
X27410088Y85257781D01*
X27410088Y85257781D02*
X27600564Y85257781D01*
X27600564Y85257781D02*
X27695802Y85305400D01*
X27695802Y85305400D02*
X27743421Y85400639D01*
X27743421Y85400639D02*
X27743421Y85781591D01*
X27743421Y85781591D02*
X27695802Y85876829D01*
X27695802Y85876829D02*
X27600564Y85924448D01*
X27600564Y85924448D02*
X27410088Y85924448D01*
X27410088Y85924448D02*
X27314850Y85876829D01*
X27314850Y85876829D02*
X27267231Y85781591D01*
X27267231Y85781591D02*
X27267231Y85686353D01*
X27267231Y85686353D02*
X27743421Y85591115D01*
X26838659Y85257781D02*
X26838659Y85924448D01*
X26838659Y85733972D02*
X26791040Y85829210D01*
X26791040Y85829210D02*
X26743421Y85876829D01*
X26743421Y85876829D02*
X26648183Y85924448D01*
X26648183Y85924448D02*
X26552945Y85924448D01*
X72886279Y65733972D02*
X72933898Y65781591D01*
X72933898Y65781591D02*
X73029136Y65829210D01*
X73029136Y65829210D02*
X73124374Y65829210D01*
X73124374Y65829210D02*
X73219612Y65781591D01*
X73219612Y65781591D02*
X73267231Y65733972D01*
X73267231Y65733972D02*
X73314850Y65638734D01*
X73314850Y65638734D02*
X73314850Y65543496D01*
X73314850Y65543496D02*
X73267231Y65448258D01*
X73267231Y65448258D02*
X73219612Y65400639D01*
X73219612Y65400639D02*
X73124374Y65353020D01*
X73124374Y65353020D02*
X73029136Y65353020D01*
X73029136Y65353020D02*
X72933898Y65400639D01*
X72933898Y65400639D02*
X72886279Y65448258D01*
X72886279Y65829210D02*
X72886279Y65448258D01*
X72886279Y65448258D02*
X72838660Y65400639D01*
X72838660Y65400639D02*
X72791041Y65400639D01*
X72791041Y65400639D02*
X72695802Y65448258D01*
X72695802Y65448258D02*
X72648183Y65543496D01*
X72648183Y65543496D02*
X72648183Y65781591D01*
X72648183Y65781591D02*
X72743422Y65924448D01*
X72743422Y65924448D02*
X72886279Y66019686D01*
X72886279Y66019686D02*
X73076755Y66067305D01*
X73076755Y66067305D02*
X73267231Y66019686D01*
X73267231Y66019686D02*
X73410088Y65924448D01*
X73410088Y65924448D02*
X73505326Y65781591D01*
X73505326Y65781591D02*
X73552945Y65591115D01*
X73552945Y65591115D02*
X73505326Y65400639D01*
X73505326Y65400639D02*
X73410088Y65257781D01*
X73410088Y65257781D02*
X73267231Y65162543D01*
X73267231Y65162543D02*
X73076755Y65114924D01*
X73076755Y65114924D02*
X72886279Y65162543D01*
X72886279Y65162543D02*
X72743422Y65257781D01*
X72219612Y65257781D02*
X72219612Y66257781D01*
X71791041Y65257781D02*
X71791041Y65781591D01*
X71791041Y65781591D02*
X71838660Y65876829D01*
X71838660Y65876829D02*
X71933898Y65924448D01*
X71933898Y65924448D02*
X72076755Y65924448D01*
X72076755Y65924448D02*
X72171993Y65876829D01*
X72171993Y65876829D02*
X72219612Y65829210D01*
X70886279Y65257781D02*
X70886279Y65781591D01*
X70886279Y65781591D02*
X70933898Y65876829D01*
X70933898Y65876829D02*
X71029136Y65924448D01*
X71029136Y65924448D02*
X71219612Y65924448D01*
X71219612Y65924448D02*
X71314850Y65876829D01*
X70886279Y65305400D02*
X70981517Y65257781D01*
X70981517Y65257781D02*
X71219612Y65257781D01*
X71219612Y65257781D02*
X71314850Y65305400D01*
X71314850Y65305400D02*
X71362469Y65400639D01*
X71362469Y65400639D02*
X71362469Y65495877D01*
X71362469Y65495877D02*
X71314850Y65591115D01*
X71314850Y65591115D02*
X71219612Y65638734D01*
X71219612Y65638734D02*
X70981517Y65638734D01*
X70981517Y65638734D02*
X70886279Y65686353D01*
X70410088Y65257781D02*
X70410088Y65924448D01*
X70410088Y65829210D02*
X70362469Y65876829D01*
X70362469Y65876829D02*
X70267231Y65924448D01*
X70267231Y65924448D02*
X70124374Y65924448D01*
X70124374Y65924448D02*
X70029136Y65876829D01*
X70029136Y65876829D02*
X69981517Y65781591D01*
X69981517Y65781591D02*
X69981517Y65257781D01*
X69981517Y65781591D02*
X69933898Y65876829D01*
X69933898Y65876829D02*
X69838660Y65924448D01*
X69838660Y65924448D02*
X69695803Y65924448D01*
X69695803Y65924448D02*
X69600564Y65876829D01*
X69600564Y65876829D02*
X69552945Y65781591D01*
X69552945Y65781591D02*
X69552945Y65257781D01*
X69124374Y65305400D02*
X69029136Y65257781D01*
X69029136Y65257781D02*
X68838660Y65257781D01*
X68838660Y65257781D02*
X68743422Y65305400D01*
X68743422Y65305400D02*
X68695803Y65400639D01*
X68695803Y65400639D02*
X68695803Y65448258D01*
X68695803Y65448258D02*
X68743422Y65543496D01*
X68743422Y65543496D02*
X68838660Y65591115D01*
X68838660Y65591115D02*
X68981517Y65591115D01*
X68981517Y65591115D02*
X69076755Y65638734D01*
X69076755Y65638734D02*
X69124374Y65733972D01*
X69124374Y65733972D02*
X69124374Y65781591D01*
X69124374Y65781591D02*
X69076755Y65876829D01*
X69076755Y65876829D02*
X68981517Y65924448D01*
X68981517Y65924448D02*
X68838660Y65924448D01*
X68838660Y65924448D02*
X68743422Y65876829D01*
X68410088Y65924448D02*
X68029136Y65924448D01*
X68267231Y66257781D02*
X68267231Y65400639D01*
X68267231Y65400639D02*
X68219612Y65305400D01*
X68219612Y65305400D02*
X68124374Y65257781D01*
X68124374Y65257781D02*
X68029136Y65257781D01*
X67314850Y65305400D02*
X67410088Y65257781D01*
X67410088Y65257781D02*
X67600564Y65257781D01*
X67600564Y65257781D02*
X67695802Y65305400D01*
X67695802Y65305400D02*
X67743421Y65400639D01*
X67743421Y65400639D02*
X67743421Y65781591D01*
X67743421Y65781591D02*
X67695802Y65876829D01*
X67695802Y65876829D02*
X67600564Y65924448D01*
X67600564Y65924448D02*
X67410088Y65924448D01*
X67410088Y65924448D02*
X67314850Y65876829D01*
X67314850Y65876829D02*
X67267231Y65781591D01*
X67267231Y65781591D02*
X67267231Y65686353D01*
X67267231Y65686353D02*
X67743421Y65591115D01*
X66838659Y65257781D02*
X66838659Y65924448D01*
X66838659Y65733972D02*
X66791040Y65829210D01*
X66791040Y65829210D02*
X66743421Y65876829D01*
X66743421Y65876829D02*
X66648183Y65924448D01*
X66648183Y65924448D02*
X66552945Y65924448D01*
X72886279Y25733972D02*
X72933898Y25781591D01*
X72933898Y25781591D02*
X73029136Y25829210D01*
X73029136Y25829210D02*
X73124374Y25829210D01*
X73124374Y25829210D02*
X73219612Y25781591D01*
X73219612Y25781591D02*
X73267231Y25733972D01*
X73267231Y25733972D02*
X73314850Y25638734D01*
X73314850Y25638734D02*
X73314850Y25543496D01*
X73314850Y25543496D02*
X73267231Y25448258D01*
X73267231Y25448258D02*
X73219612Y25400639D01*
X73219612Y25400639D02*
X73124374Y25353020D01*
X73124374Y25353020D02*
X73029136Y25353020D01*
X73029136Y25353020D02*
X72933898Y25400639D01*
X72933898Y25400639D02*
X72886279Y25448258D01*
X72886279Y25829210D02*
X72886279Y25448258D01*
X72886279Y25448258D02*
X72838660Y25400639D01*
X72838660Y25400639D02*
X72791041Y25400639D01*
X72791041Y25400639D02*
X72695802Y25448258D01*
X72695802Y25448258D02*
X72648183Y25543496D01*
X72648183Y25543496D02*
X72648183Y25781591D01*
X72648183Y25781591D02*
X72743422Y25924448D01*
X72743422Y25924448D02*
X72886279Y26019686D01*
X72886279Y26019686D02*
X73076755Y26067305D01*
X73076755Y26067305D02*
X73267231Y26019686D01*
X73267231Y26019686D02*
X73410088Y25924448D01*
X73410088Y25924448D02*
X73505326Y25781591D01*
X73505326Y25781591D02*
X73552945Y25591115D01*
X73552945Y25591115D02*
X73505326Y25400639D01*
X73505326Y25400639D02*
X73410088Y25257781D01*
X73410088Y25257781D02*
X73267231Y25162543D01*
X73267231Y25162543D02*
X73076755Y25114924D01*
X73076755Y25114924D02*
X72886279Y25162543D01*
X72886279Y25162543D02*
X72743422Y25257781D01*
X72219612Y25257781D02*
X72219612Y26257781D01*
X71791041Y25257781D02*
X71791041Y25781591D01*
X71791041Y25781591D02*
X71838660Y25876829D01*
X71838660Y25876829D02*
X71933898Y25924448D01*
X71933898Y25924448D02*
X72076755Y25924448D01*
X72076755Y25924448D02*
X72171993Y25876829D01*
X72171993Y25876829D02*
X72219612Y25829210D01*
X70886279Y25257781D02*
X70886279Y25781591D01*
X70886279Y25781591D02*
X70933898Y25876829D01*
X70933898Y25876829D02*
X71029136Y25924448D01*
X71029136Y25924448D02*
X71219612Y25924448D01*
X71219612Y25924448D02*
X71314850Y25876829D01*
X70886279Y25305400D02*
X70981517Y25257781D01*
X70981517Y25257781D02*
X71219612Y25257781D01*
X71219612Y25257781D02*
X71314850Y25305400D01*
X71314850Y25305400D02*
X71362469Y25400639D01*
X71362469Y25400639D02*
X71362469Y25495877D01*
X71362469Y25495877D02*
X71314850Y25591115D01*
X71314850Y25591115D02*
X71219612Y25638734D01*
X71219612Y25638734D02*
X70981517Y25638734D01*
X70981517Y25638734D02*
X70886279Y25686353D01*
X70410088Y25257781D02*
X70410088Y25924448D01*
X70410088Y25829210D02*
X70362469Y25876829D01*
X70362469Y25876829D02*
X70267231Y25924448D01*
X70267231Y25924448D02*
X70124374Y25924448D01*
X70124374Y25924448D02*
X70029136Y25876829D01*
X70029136Y25876829D02*
X69981517Y25781591D01*
X69981517Y25781591D02*
X69981517Y25257781D01*
X69981517Y25781591D02*
X69933898Y25876829D01*
X69933898Y25876829D02*
X69838660Y25924448D01*
X69838660Y25924448D02*
X69695803Y25924448D01*
X69695803Y25924448D02*
X69600564Y25876829D01*
X69600564Y25876829D02*
X69552945Y25781591D01*
X69552945Y25781591D02*
X69552945Y25257781D01*
X69124374Y25305400D02*
X69029136Y25257781D01*
X69029136Y25257781D02*
X68838660Y25257781D01*
X68838660Y25257781D02*
X68743422Y25305400D01*
X68743422Y25305400D02*
X68695803Y25400639D01*
X68695803Y25400639D02*
X68695803Y25448258D01*
X68695803Y25448258D02*
X68743422Y25543496D01*
X68743422Y25543496D02*
X68838660Y25591115D01*
X68838660Y25591115D02*
X68981517Y25591115D01*
X68981517Y25591115D02*
X69076755Y25638734D01*
X69076755Y25638734D02*
X69124374Y25733972D01*
X69124374Y25733972D02*
X69124374Y25781591D01*
X69124374Y25781591D02*
X69076755Y25876829D01*
X69076755Y25876829D02*
X68981517Y25924448D01*
X68981517Y25924448D02*
X68838660Y25924448D01*
X68838660Y25924448D02*
X68743422Y25876829D01*
X68410088Y25924448D02*
X68029136Y25924448D01*
X68267231Y26257781D02*
X68267231Y25400639D01*
X68267231Y25400639D02*
X68219612Y25305400D01*
X68219612Y25305400D02*
X68124374Y25257781D01*
X68124374Y25257781D02*
X68029136Y25257781D01*
X67314850Y25305400D02*
X67410088Y25257781D01*
X67410088Y25257781D02*
X67600564Y25257781D01*
X67600564Y25257781D02*
X67695802Y25305400D01*
X67695802Y25305400D02*
X67743421Y25400639D01*
X67743421Y25400639D02*
X67743421Y25781591D01*
X67743421Y25781591D02*
X67695802Y25876829D01*
X67695802Y25876829D02*
X67600564Y25924448D01*
X67600564Y25924448D02*
X67410088Y25924448D01*
X67410088Y25924448D02*
X67314850Y25876829D01*
X67314850Y25876829D02*
X67267231Y25781591D01*
X67267231Y25781591D02*
X67267231Y25686353D01*
X67267231Y25686353D02*
X67743421Y25591115D01*
X66838659Y25257781D02*
X66838659Y25924448D01*
X66838659Y25733972D02*
X66791040Y25829210D01*
X66791040Y25829210D02*
X66743421Y25876829D01*
X66743421Y25876829D02*
X66648183Y25924448D01*
X66648183Y25924448D02*
X66552945Y25924448D01*
X32886279Y105733972D02*
X32933898Y105781591D01*
X32933898Y105781591D02*
X33029136Y105829210D01*
X33029136Y105829210D02*
X33124374Y105829210D01*
X33124374Y105829210D02*
X33219612Y105781591D01*
X33219612Y105781591D02*
X33267231Y105733972D01*
X33267231Y105733972D02*
X33314850Y105638734D01*
X33314850Y105638734D02*
X33314850Y105543496D01*
X33314850Y105543496D02*
X33267231Y105448258D01*
X33267231Y105448258D02*
X33219612Y105400639D01*
X33219612Y105400639D02*
X33124374Y105353020D01*
X33124374Y105353020D02*
X33029136Y105353020D01*
X33029136Y105353020D02*
X32933898Y105400639D01*
X32933898Y105400639D02*
X32886279Y105448258D01*
X32886279Y105829210D02*
X32886279Y105448258D01*
X32886279Y105448258D02*
X32838660Y105400639D01*
X32838660Y105400639D02*
X32791041Y105400639D01*
X32791041Y105400639D02*
X32695802Y105448258D01*
X32695802Y105448258D02*
X32648183Y105543496D01*
X32648183Y105543496D02*
X32648183Y105781591D01*
X32648183Y105781591D02*
X32743422Y105924448D01*
X32743422Y105924448D02*
X32886279Y106019686D01*
X32886279Y106019686D02*
X33076755Y106067305D01*
X33076755Y106067305D02*
X33267231Y106019686D01*
X33267231Y106019686D02*
X33410088Y105924448D01*
X33410088Y105924448D02*
X33505326Y105781591D01*
X33505326Y105781591D02*
X33552945Y105591115D01*
X33552945Y105591115D02*
X33505326Y105400639D01*
X33505326Y105400639D02*
X33410088Y105257781D01*
X33410088Y105257781D02*
X33267231Y105162543D01*
X33267231Y105162543D02*
X33076755Y105114924D01*
X33076755Y105114924D02*
X32886279Y105162543D01*
X32886279Y105162543D02*
X32743422Y105257781D01*
X32219612Y105257781D02*
X32219612Y106257781D01*
X31791041Y105257781D02*
X31791041Y105781591D01*
X31791041Y105781591D02*
X31838660Y105876829D01*
X31838660Y105876829D02*
X31933898Y105924448D01*
X31933898Y105924448D02*
X32076755Y105924448D01*
X32076755Y105924448D02*
X32171993Y105876829D01*
X32171993Y105876829D02*
X32219612Y105829210D01*
X30886279Y105257781D02*
X30886279Y105781591D01*
X30886279Y105781591D02*
X30933898Y105876829D01*
X30933898Y105876829D02*
X31029136Y105924448D01*
X31029136Y105924448D02*
X31219612Y105924448D01*
X31219612Y105924448D02*
X31314850Y105876829D01*
X30886279Y105305400D02*
X30981517Y105257781D01*
X30981517Y105257781D02*
X31219612Y105257781D01*
X31219612Y105257781D02*
X31314850Y105305400D01*
X31314850Y105305400D02*
X31362469Y105400639D01*
X31362469Y105400639D02*
X31362469Y105495877D01*
X31362469Y105495877D02*
X31314850Y105591115D01*
X31314850Y105591115D02*
X31219612Y105638734D01*
X31219612Y105638734D02*
X30981517Y105638734D01*
X30981517Y105638734D02*
X30886279Y105686353D01*
X30410088Y105257781D02*
X30410088Y105924448D01*
X30410088Y105829210D02*
X30362469Y105876829D01*
X30362469Y105876829D02*
X30267231Y105924448D01*
X30267231Y105924448D02*
X30124374Y105924448D01*
X30124374Y105924448D02*
X30029136Y105876829D01*
X30029136Y105876829D02*
X29981517Y105781591D01*
X29981517Y105781591D02*
X29981517Y105257781D01*
X29981517Y105781591D02*
X29933898Y105876829D01*
X29933898Y105876829D02*
X29838660Y105924448D01*
X29838660Y105924448D02*
X29695803Y105924448D01*
X29695803Y105924448D02*
X29600564Y105876829D01*
X29600564Y105876829D02*
X29552945Y105781591D01*
X29552945Y105781591D02*
X29552945Y105257781D01*
X29124374Y105305400D02*
X29029136Y105257781D01*
X29029136Y105257781D02*
X28838660Y105257781D01*
X28838660Y105257781D02*
X28743422Y105305400D01*
X28743422Y105305400D02*
X28695803Y105400639D01*
X28695803Y105400639D02*
X28695803Y105448258D01*
X28695803Y105448258D02*
X28743422Y105543496D01*
X28743422Y105543496D02*
X28838660Y105591115D01*
X28838660Y105591115D02*
X28981517Y105591115D01*
X28981517Y105591115D02*
X29076755Y105638734D01*
X29076755Y105638734D02*
X29124374Y105733972D01*
X29124374Y105733972D02*
X29124374Y105781591D01*
X29124374Y105781591D02*
X29076755Y105876829D01*
X29076755Y105876829D02*
X28981517Y105924448D01*
X28981517Y105924448D02*
X28838660Y105924448D01*
X28838660Y105924448D02*
X28743422Y105876829D01*
X28410088Y105924448D02*
X28029136Y105924448D01*
X28267231Y106257781D02*
X28267231Y105400639D01*
X28267231Y105400639D02*
X28219612Y105305400D01*
X28219612Y105305400D02*
X28124374Y105257781D01*
X28124374Y105257781D02*
X28029136Y105257781D01*
X27314850Y105305400D02*
X27410088Y105257781D01*
X27410088Y105257781D02*
X27600564Y105257781D01*
X27600564Y105257781D02*
X27695802Y105305400D01*
X27695802Y105305400D02*
X27743421Y105400639D01*
X27743421Y105400639D02*
X27743421Y105781591D01*
X27743421Y105781591D02*
X27695802Y105876829D01*
X27695802Y105876829D02*
X27600564Y105924448D01*
X27600564Y105924448D02*
X27410088Y105924448D01*
X27410088Y105924448D02*
X27314850Y105876829D01*
X27314850Y105876829D02*
X27267231Y105781591D01*
X27267231Y105781591D02*
X27267231Y105686353D01*
X27267231Y105686353D02*
X27743421Y105591115D01*
X26838659Y105257781D02*
X26838659Y105924448D01*
X26838659Y105733972D02*
X26791040Y105829210D01*
X26791040Y105829210D02*
X26743421Y105876829D01*
X26743421Y105876829D02*
X26648183Y105924448D01*
X26648183Y105924448D02*
X26552945Y105924448D01*
X52886279Y45733972D02*
X52933898Y45781591D01*
X52933898Y45781591D02*
X53029136Y45829210D01*
X53029136Y45829210D02*
X53124374Y45829210D01*
X53124374Y45829210D02*
X53219612Y45781591D01*
X53219612Y45781591D02*
X53267231Y45733972D01*
X53267231Y45733972D02*
X53314850Y45638734D01*
X53314850Y45638734D02*
X53314850Y45543496D01*
X53314850Y45543496D02*
X53267231Y45448258D01*
X53267231Y45448258D02*
X53219612Y45400639D01*
X53219612Y45400639D02*
X53124374Y45353020D01*
X53124374Y45353020D02*
X53029136Y45353020D01*
X53029136Y45353020D02*
X52933898Y45400639D01*
X52933898Y45400639D02*
X52886279Y45448258D01*
X52886279Y45829210D02*
X52886279Y45448258D01*
X52886279Y45448258D02*
X52838660Y45400639D01*
X52838660Y45400639D02*
X52791041Y45400639D01*
X52791041Y45400639D02*
X52695802Y45448258D01*
X52695802Y45448258D02*
X52648183Y45543496D01*
X52648183Y45543496D02*
X52648183Y45781591D01*
X52648183Y45781591D02*
X52743422Y45924448D01*
X52743422Y45924448D02*
X52886279Y46019686D01*
X52886279Y46019686D02*
X53076755Y46067305D01*
X53076755Y46067305D02*
X53267231Y46019686D01*
X53267231Y46019686D02*
X53410088Y45924448D01*
X53410088Y45924448D02*
X53505326Y45781591D01*
X53505326Y45781591D02*
X53552945Y45591115D01*
X53552945Y45591115D02*
X53505326Y45400639D01*
X53505326Y45400639D02*
X53410088Y45257781D01*
X53410088Y45257781D02*
X53267231Y45162543D01*
X53267231Y45162543D02*
X53076755Y45114924D01*
X53076755Y45114924D02*
X52886279Y45162543D01*
X52886279Y45162543D02*
X52743422Y45257781D01*
X52219612Y45257781D02*
X52219612Y46257781D01*
X51791041Y45257781D02*
X51791041Y45781591D01*
X51791041Y45781591D02*
X51838660Y45876829D01*
X51838660Y45876829D02*
X51933898Y45924448D01*
X51933898Y45924448D02*
X52076755Y45924448D01*
X52076755Y45924448D02*
X52171993Y45876829D01*
X52171993Y45876829D02*
X52219612Y45829210D01*
X50886279Y45257781D02*
X50886279Y45781591D01*
X50886279Y45781591D02*
X50933898Y45876829D01*
X50933898Y45876829D02*
X51029136Y45924448D01*
X51029136Y45924448D02*
X51219612Y45924448D01*
X51219612Y45924448D02*
X51314850Y45876829D01*
X50886279Y45305400D02*
X50981517Y45257781D01*
X50981517Y45257781D02*
X51219612Y45257781D01*
X51219612Y45257781D02*
X51314850Y45305400D01*
X51314850Y45305400D02*
X51362469Y45400639D01*
X51362469Y45400639D02*
X51362469Y45495877D01*
X51362469Y45495877D02*
X51314850Y45591115D01*
X51314850Y45591115D02*
X51219612Y45638734D01*
X51219612Y45638734D02*
X50981517Y45638734D01*
X50981517Y45638734D02*
X50886279Y45686353D01*
X50410088Y45257781D02*
X50410088Y45924448D01*
X50410088Y45829210D02*
X50362469Y45876829D01*
X50362469Y45876829D02*
X50267231Y45924448D01*
X50267231Y45924448D02*
X50124374Y45924448D01*
X50124374Y45924448D02*
X50029136Y45876829D01*
X50029136Y45876829D02*
X49981517Y45781591D01*
X49981517Y45781591D02*
X49981517Y45257781D01*
X49981517Y45781591D02*
X49933898Y45876829D01*
X49933898Y45876829D02*
X49838660Y45924448D01*
X49838660Y45924448D02*
X49695803Y45924448D01*
X49695803Y45924448D02*
X49600564Y45876829D01*
X49600564Y45876829D02*
X49552945Y45781591D01*
X49552945Y45781591D02*
X49552945Y45257781D01*
X49124374Y45305400D02*
X49029136Y45257781D01*
X49029136Y45257781D02*
X48838660Y45257781D01*
X48838660Y45257781D02*
X48743422Y45305400D01*
X48743422Y45305400D02*
X48695803Y45400639D01*
X48695803Y45400639D02*
X48695803Y45448258D01*
X48695803Y45448258D02*
X48743422Y45543496D01*
X48743422Y45543496D02*
X48838660Y45591115D01*
X48838660Y45591115D02*
X48981517Y45591115D01*
X48981517Y45591115D02*
X49076755Y45638734D01*
X49076755Y45638734D02*
X49124374Y45733972D01*
X49124374Y45733972D02*
X49124374Y45781591D01*
X49124374Y45781591D02*
X49076755Y45876829D01*
X49076755Y45876829D02*
X48981517Y45924448D01*
X48981517Y45924448D02*
X48838660Y45924448D01*
X48838660Y45924448D02*
X48743422Y45876829D01*
X48410088Y45924448D02*
X48029136Y45924448D01*
X48267231Y46257781D02*
X48267231Y45400639D01*
X48267231Y45400639D02*
X48219612Y45305400D01*
X48219612Y45305400D02*
X48124374Y45257781D01*
X48124374Y45257781D02*
X48029136Y45257781D01*
X47314850Y45305400D02*
X47410088Y45257781D01*
X47410088Y45257781D02*
X47600564Y45257781D01*
X47600564Y45257781D02*
X47695802Y45305400D01*
X47695802Y45305400D02*
X47743421Y45400639D01*
X47743421Y45400639D02*
X47743421Y45781591D01*
X47743421Y45781591D02*
X47695802Y45876829D01*
X47695802Y45876829D02*
X47600564Y45924448D01*
X47600564Y45924448D02*
X47410088Y45924448D01*
X47410088Y45924448D02*
X47314850Y45876829D01*
X47314850Y45876829D02*
X47267231Y45781591D01*
X47267231Y45781591D02*
X47267231Y45686353D01*
X47267231Y45686353D02*
X47743421Y45591115D01*
X46838659Y45257781D02*
X46838659Y45924448D01*
X46838659Y45733972D02*
X46791040Y45829210D01*
X46791040Y45829210D02*
X46743421Y45876829D01*
X46743421Y45876829D02*
X46648183Y45924448D01*
X46648183Y45924448D02*
X46552945Y45924448D01*
X32886279Y25733972D02*
X32933898Y25781591D01*
X32933898Y25781591D02*
X33029136Y25829210D01*
X33029136Y25829210D02*
X33124374Y25829210D01*
X33124374Y25829210D02*
X33219612Y25781591D01*
X33219612Y25781591D02*
X33267231Y25733972D01*
X33267231Y25733972D02*
X33314850Y25638734D01*
X33314850Y25638734D02*
X33314850Y25543496D01*
X33314850Y25543496D02*
X33267231Y25448258D01*
X33267231Y25448258D02*
X33219612Y25400639D01*
X33219612Y25400639D02*
X33124374Y25353020D01*
X33124374Y25353020D02*
X33029136Y25353020D01*
X33029136Y25353020D02*
X32933898Y25400639D01*
X32933898Y25400639D02*
X32886279Y25448258D01*
X32886279Y25829210D02*
X32886279Y25448258D01*
X32886279Y25448258D02*
X32838660Y25400639D01*
X32838660Y25400639D02*
X32791041Y25400639D01*
X32791041Y25400639D02*
X32695802Y25448258D01*
X32695802Y25448258D02*
X32648183Y25543496D01*
X32648183Y25543496D02*
X32648183Y25781591D01*
X32648183Y25781591D02*
X32743422Y25924448D01*
X32743422Y25924448D02*
X32886279Y26019686D01*
X32886279Y26019686D02*
X33076755Y26067305D01*
X33076755Y26067305D02*
X33267231Y26019686D01*
X33267231Y26019686D02*
X33410088Y25924448D01*
X33410088Y25924448D02*
X33505326Y25781591D01*
X33505326Y25781591D02*
X33552945Y25591115D01*
X33552945Y25591115D02*
X33505326Y25400639D01*
X33505326Y25400639D02*
X33410088Y25257781D01*
X33410088Y25257781D02*
X33267231Y25162543D01*
X33267231Y25162543D02*
X33076755Y25114924D01*
X33076755Y25114924D02*
X32886279Y25162543D01*
X32886279Y25162543D02*
X32743422Y25257781D01*
X32219612Y25257781D02*
X32219612Y26257781D01*
X31791041Y25257781D02*
X31791041Y25781591D01*
X31791041Y25781591D02*
X31838660Y25876829D01*
X31838660Y25876829D02*
X31933898Y25924448D01*
X31933898Y25924448D02*
X32076755Y25924448D01*
X32076755Y25924448D02*
X32171993Y25876829D01*
X32171993Y25876829D02*
X32219612Y25829210D01*
X30886279Y25257781D02*
X30886279Y25781591D01*
X30886279Y25781591D02*
X30933898Y25876829D01*
X30933898Y25876829D02*
X31029136Y25924448D01*
X31029136Y25924448D02*
X31219612Y25924448D01*
X31219612Y25924448D02*
X31314850Y25876829D01*
X30886279Y25305400D02*
X30981517Y25257781D01*
X30981517Y25257781D02*
X31219612Y25257781D01*
X31219612Y25257781D02*
X31314850Y25305400D01*
X31314850Y25305400D02*
X31362469Y25400639D01*
X31362469Y25400639D02*
X31362469Y25495877D01*
X31362469Y25495877D02*
X31314850Y25591115D01*
X31314850Y25591115D02*
X31219612Y25638734D01*
X31219612Y25638734D02*
X30981517Y25638734D01*
X30981517Y25638734D02*
X30886279Y25686353D01*
X30410088Y25257781D02*
X30410088Y25924448D01*
X30410088Y25829210D02*
X30362469Y25876829D01*
X30362469Y25876829D02*
X30267231Y25924448D01*
X30267231Y25924448D02*
X30124374Y25924448D01*
X30124374Y25924448D02*
X30029136Y25876829D01*
X30029136Y25876829D02*
X29981517Y25781591D01*
X29981517Y25781591D02*
X29981517Y25257781D01*
X29981517Y25781591D02*
X29933898Y25876829D01*
X29933898Y25876829D02*
X29838660Y25924448D01*
X29838660Y25924448D02*
X29695803Y25924448D01*
X29695803Y25924448D02*
X29600564Y25876829D01*
X29600564Y25876829D02*
X29552945Y25781591D01*
X29552945Y25781591D02*
X29552945Y25257781D01*
X29124374Y25305400D02*
X29029136Y25257781D01*
X29029136Y25257781D02*
X28838660Y25257781D01*
X28838660Y25257781D02*
X28743422Y25305400D01*
X28743422Y25305400D02*
X28695803Y25400639D01*
X28695803Y25400639D02*
X28695803Y25448258D01*
X28695803Y25448258D02*
X28743422Y25543496D01*
X28743422Y25543496D02*
X28838660Y25591115D01*
X28838660Y25591115D02*
X28981517Y25591115D01*
X28981517Y25591115D02*
X29076755Y25638734D01*
X29076755Y25638734D02*
X29124374Y25733972D01*
X29124374Y25733972D02*
X29124374Y25781591D01*
X29124374Y25781591D02*
X29076755Y25876829D01*
X29076755Y25876829D02*
X28981517Y25924448D01*
X28981517Y25924448D02*
X28838660Y25924448D01*
X28838660Y25924448D02*
X28743422Y25876829D01*
X28410088Y25924448D02*
X28029136Y25924448D01*
X28267231Y26257781D02*
X28267231Y25400639D01*
X28267231Y25400639D02*
X28219612Y25305400D01*
X28219612Y25305400D02*
X28124374Y25257781D01*
X28124374Y25257781D02*
X28029136Y25257781D01*
X27314850Y25305400D02*
X27410088Y25257781D01*
X27410088Y25257781D02*
X27600564Y25257781D01*
X27600564Y25257781D02*
X27695802Y25305400D01*
X27695802Y25305400D02*
X27743421Y25400639D01*
X27743421Y25400639D02*
X27743421Y25781591D01*
X27743421Y25781591D02*
X27695802Y25876829D01*
X27695802Y25876829D02*
X27600564Y25924448D01*
X27600564Y25924448D02*
X27410088Y25924448D01*
X27410088Y25924448D02*
X27314850Y25876829D01*
X27314850Y25876829D02*
X27267231Y25781591D01*
X27267231Y25781591D02*
X27267231Y25686353D01*
X27267231Y25686353D02*
X27743421Y25591115D01*
X26838659Y25257781D02*
X26838659Y25924448D01*
X26838659Y25733972D02*
X26791040Y25829210D01*
X26791040Y25829210D02*
X26743421Y25876829D01*
X26743421Y25876829D02*
X26648183Y25924448D01*
X26648183Y25924448D02*
X26552945Y25924448D01*
X12886279Y105733972D02*
X12933898Y105781591D01*
X12933898Y105781591D02*
X13029136Y105829210D01*
X13029136Y105829210D02*
X13124374Y105829210D01*
X13124374Y105829210D02*
X13219612Y105781591D01*
X13219612Y105781591D02*
X13267231Y105733972D01*
X13267231Y105733972D02*
X13314850Y105638734D01*
X13314850Y105638734D02*
X13314850Y105543496D01*
X13314850Y105543496D02*
X13267231Y105448258D01*
X13267231Y105448258D02*
X13219612Y105400639D01*
X13219612Y105400639D02*
X13124374Y105353020D01*
X13124374Y105353020D02*
X13029136Y105353020D01*
X13029136Y105353020D02*
X12933898Y105400639D01*
X12933898Y105400639D02*
X12886279Y105448258D01*
X12886279Y105829210D02*
X12886279Y105448258D01*
X12886279Y105448258D02*
X12838660Y105400639D01*
X12838660Y105400639D02*
X12791041Y105400639D01*
X12791041Y105400639D02*
X12695802Y105448258D01*
X12695802Y105448258D02*
X12648183Y105543496D01*
X12648183Y105543496D02*
X12648183Y105781591D01*
X12648183Y105781591D02*
X12743422Y105924448D01*
X12743422Y105924448D02*
X12886279Y106019686D01*
X12886279Y106019686D02*
X13076755Y106067305D01*
X13076755Y106067305D02*
X13267231Y106019686D01*
X13267231Y106019686D02*
X13410088Y105924448D01*
X13410088Y105924448D02*
X13505326Y105781591D01*
X13505326Y105781591D02*
X13552945Y105591115D01*
X13552945Y105591115D02*
X13505326Y105400639D01*
X13505326Y105400639D02*
X13410088Y105257781D01*
X13410088Y105257781D02*
X13267231Y105162543D01*
X13267231Y105162543D02*
X13076755Y105114924D01*
X13076755Y105114924D02*
X12886279Y105162543D01*
X12886279Y105162543D02*
X12743422Y105257781D01*
X12219612Y105257781D02*
X12219612Y106257781D01*
X11791041Y105257781D02*
X11791041Y105781591D01*
X11791041Y105781591D02*
X11838660Y105876829D01*
X11838660Y105876829D02*
X11933898Y105924448D01*
X11933898Y105924448D02*
X12076755Y105924448D01*
X12076755Y105924448D02*
X12171993Y105876829D01*
X12171993Y105876829D02*
X12219612Y105829210D01*
X10886279Y105257781D02*
X10886279Y105781591D01*
X10886279Y105781591D02*
X10933898Y105876829D01*
X10933898Y105876829D02*
X11029136Y105924448D01*
X11029136Y105924448D02*
X11219612Y105924448D01*
X11219612Y105924448D02*
X11314850Y105876829D01*
X10886279Y105305400D02*
X10981517Y105257781D01*
X10981517Y105257781D02*
X11219612Y105257781D01*
X11219612Y105257781D02*
X11314850Y105305400D01*
X11314850Y105305400D02*
X11362469Y105400639D01*
X11362469Y105400639D02*
X11362469Y105495877D01*
X11362469Y105495877D02*
X11314850Y105591115D01*
X11314850Y105591115D02*
X11219612Y105638734D01*
X11219612Y105638734D02*
X10981517Y105638734D01*
X10981517Y105638734D02*
X10886279Y105686353D01*
X10410088Y105257781D02*
X10410088Y105924448D01*
X10410088Y105829210D02*
X10362469Y105876829D01*
X10362469Y105876829D02*
X10267231Y105924448D01*
X10267231Y105924448D02*
X10124374Y105924448D01*
X10124374Y105924448D02*
X10029136Y105876829D01*
X10029136Y105876829D02*
X9981517Y105781591D01*
X9981517Y105781591D02*
X9981517Y105257781D01*
X9981517Y105781591D02*
X9933898Y105876829D01*
X9933898Y105876829D02*
X9838660Y105924448D01*
X9838660Y105924448D02*
X9695803Y105924448D01*
X9695803Y105924448D02*
X9600564Y105876829D01*
X9600564Y105876829D02*
X9552945Y105781591D01*
X9552945Y105781591D02*
X9552945Y105257781D01*
X9124374Y105305400D02*
X9029136Y105257781D01*
X9029136Y105257781D02*
X8838660Y105257781D01*
X8838660Y105257781D02*
X8743422Y105305400D01*
X8743422Y105305400D02*
X8695803Y105400639D01*
X8695803Y105400639D02*
X8695803Y105448258D01*
X8695803Y105448258D02*
X8743422Y105543496D01*
X8743422Y105543496D02*
X8838660Y105591115D01*
X8838660Y105591115D02*
X8981517Y105591115D01*
X8981517Y105591115D02*
X9076755Y105638734D01*
X9076755Y105638734D02*
X9124374Y105733972D01*
X9124374Y105733972D02*
X9124374Y105781591D01*
X9124374Y105781591D02*
X9076755Y105876829D01*
X9076755Y105876829D02*
X8981517Y105924448D01*
X8981517Y105924448D02*
X8838660Y105924448D01*
X8838660Y105924448D02*
X8743422Y105876829D01*
X8410088Y105924448D02*
X8029136Y105924448D01*
X8267231Y106257781D02*
X8267231Y105400639D01*
X8267231Y105400639D02*
X8219612Y105305400D01*
X8219612Y105305400D02*
X8124374Y105257781D01*
X8124374Y105257781D02*
X8029136Y105257781D01*
X7314850Y105305400D02*
X7410088Y105257781D01*
X7410088Y105257781D02*
X7600564Y105257781D01*
X7600564Y105257781D02*
X7695802Y105305400D01*
X7695802Y105305400D02*
X7743421Y105400639D01*
X7743421Y105400639D02*
X7743421Y105781591D01*
X7743421Y105781591D02*
X7695802Y105876829D01*
X7695802Y105876829D02*
X7600564Y105924448D01*
X7600564Y105924448D02*
X7410088Y105924448D01*
X7410088Y105924448D02*
X7314850Y105876829D01*
X7314850Y105876829D02*
X7267231Y105781591D01*
X7267231Y105781591D02*
X7267231Y105686353D01*
X7267231Y105686353D02*
X7743421Y105591115D01*
X6838659Y105257781D02*
X6838659Y105924448D01*
X6838659Y105733972D02*
X6791040Y105829210D01*
X6791040Y105829210D02*
X6743421Y105876829D01*
X6743421Y105876829D02*
X6648183Y105924448D01*
X6648183Y105924448D02*
X6552945Y105924448D01*
X12886279Y85733972D02*
X12933898Y85781591D01*
X12933898Y85781591D02*
X13029136Y85829210D01*
X13029136Y85829210D02*
X13124374Y85829210D01*
X13124374Y85829210D02*
X13219612Y85781591D01*
X13219612Y85781591D02*
X13267231Y85733972D01*
X13267231Y85733972D02*
X13314850Y85638734D01*
X13314850Y85638734D02*
X13314850Y85543496D01*
X13314850Y85543496D02*
X13267231Y85448258D01*
X13267231Y85448258D02*
X13219612Y85400639D01*
X13219612Y85400639D02*
X13124374Y85353020D01*
X13124374Y85353020D02*
X13029136Y85353020D01*
X13029136Y85353020D02*
X12933898Y85400639D01*
X12933898Y85400639D02*
X12886279Y85448258D01*
X12886279Y85829210D02*
X12886279Y85448258D01*
X12886279Y85448258D02*
X12838660Y85400639D01*
X12838660Y85400639D02*
X12791041Y85400639D01*
X12791041Y85400639D02*
X12695802Y85448258D01*
X12695802Y85448258D02*
X12648183Y85543496D01*
X12648183Y85543496D02*
X12648183Y85781591D01*
X12648183Y85781591D02*
X12743422Y85924448D01*
X12743422Y85924448D02*
X12886279Y86019686D01*
X12886279Y86019686D02*
X13076755Y86067305D01*
X13076755Y86067305D02*
X13267231Y86019686D01*
X13267231Y86019686D02*
X13410088Y85924448D01*
X13410088Y85924448D02*
X13505326Y85781591D01*
X13505326Y85781591D02*
X13552945Y85591115D01*
X13552945Y85591115D02*
X13505326Y85400639D01*
X13505326Y85400639D02*
X13410088Y85257781D01*
X13410088Y85257781D02*
X13267231Y85162543D01*
X13267231Y85162543D02*
X13076755Y85114924D01*
X13076755Y85114924D02*
X12886279Y85162543D01*
X12886279Y85162543D02*
X12743422Y85257781D01*
X12219612Y85257781D02*
X12219612Y86257781D01*
X11791041Y85257781D02*
X11791041Y85781591D01*
X11791041Y85781591D02*
X11838660Y85876829D01*
X11838660Y85876829D02*
X11933898Y85924448D01*
X11933898Y85924448D02*
X12076755Y85924448D01*
X12076755Y85924448D02*
X12171993Y85876829D01*
X12171993Y85876829D02*
X12219612Y85829210D01*
X10886279Y85257781D02*
X10886279Y85781591D01*
X10886279Y85781591D02*
X10933898Y85876829D01*
X10933898Y85876829D02*
X11029136Y85924448D01*
X11029136Y85924448D02*
X11219612Y85924448D01*
X11219612Y85924448D02*
X11314850Y85876829D01*
X10886279Y85305400D02*
X10981517Y85257781D01*
X10981517Y85257781D02*
X11219612Y85257781D01*
X11219612Y85257781D02*
X11314850Y85305400D01*
X11314850Y85305400D02*
X11362469Y85400639D01*
X11362469Y85400639D02*
X11362469Y85495877D01*
X11362469Y85495877D02*
X11314850Y85591115D01*
X11314850Y85591115D02*
X11219612Y85638734D01*
X11219612Y85638734D02*
X10981517Y85638734D01*
X10981517Y85638734D02*
X10886279Y85686353D01*
X10410088Y85257781D02*
X10410088Y85924448D01*
X10410088Y85829210D02*
X10362469Y85876829D01*
X10362469Y85876829D02*
X10267231Y85924448D01*
X10267231Y85924448D02*
X10124374Y85924448D01*
X10124374Y85924448D02*
X10029136Y85876829D01*
X10029136Y85876829D02*
X9981517Y85781591D01*
X9981517Y85781591D02*
X9981517Y85257781D01*
X9981517Y85781591D02*
X9933898Y85876829D01*
X9933898Y85876829D02*
X9838660Y85924448D01*
X9838660Y85924448D02*
X9695803Y85924448D01*
X9695803Y85924448D02*
X9600564Y85876829D01*
X9600564Y85876829D02*
X9552945Y85781591D01*
X9552945Y85781591D02*
X9552945Y85257781D01*
X9124374Y85305400D02*
X9029136Y85257781D01*
X9029136Y85257781D02*
X8838660Y85257781D01*
X8838660Y85257781D02*
X8743422Y85305400D01*
X8743422Y85305400D02*
X8695803Y85400639D01*
X8695803Y85400639D02*
X8695803Y85448258D01*
X8695803Y85448258D02*
X8743422Y85543496D01*
X8743422Y85543496D02*
X8838660Y85591115D01*
X8838660Y85591115D02*
X8981517Y85591115D01*
X8981517Y85591115D02*
X9076755Y85638734D01*
X9076755Y85638734D02*
X9124374Y85733972D01*
X9124374Y85733972D02*
X9124374Y85781591D01*
X9124374Y85781591D02*
X9076755Y85876829D01*
X9076755Y85876829D02*
X8981517Y85924448D01*
X8981517Y85924448D02*
X8838660Y85924448D01*
X8838660Y85924448D02*
X8743422Y85876829D01*
X8410088Y85924448D02*
X8029136Y85924448D01*
X8267231Y86257781D02*
X8267231Y85400639D01*
X8267231Y85400639D02*
X8219612Y85305400D01*
X8219612Y85305400D02*
X8124374Y85257781D01*
X8124374Y85257781D02*
X8029136Y85257781D01*
X7314850Y85305400D02*
X7410088Y85257781D01*
X7410088Y85257781D02*
X7600564Y85257781D01*
X7600564Y85257781D02*
X7695802Y85305400D01*
X7695802Y85305400D02*
X7743421Y85400639D01*
X7743421Y85400639D02*
X7743421Y85781591D01*
X7743421Y85781591D02*
X7695802Y85876829D01*
X7695802Y85876829D02*
X7600564Y85924448D01*
X7600564Y85924448D02*
X7410088Y85924448D01*
X7410088Y85924448D02*
X7314850Y85876829D01*
X7314850Y85876829D02*
X7267231Y85781591D01*
X7267231Y85781591D02*
X7267231Y85686353D01*
X7267231Y85686353D02*
X7743421Y85591115D01*
X6838659Y85257781D02*
X6838659Y85924448D01*
X6838659Y85733972D02*
X6791040Y85829210D01*
X6791040Y85829210D02*
X6743421Y85876829D01*
X6743421Y85876829D02*
X6648183Y85924448D01*
X6648183Y85924448D02*
X6552945Y85924448D01*
X72886279Y45733972D02*
X72933898Y45781591D01*
X72933898Y45781591D02*
X73029136Y45829210D01*
X73029136Y45829210D02*
X73124374Y45829210D01*
X73124374Y45829210D02*
X73219612Y45781591D01*
X73219612Y45781591D02*
X73267231Y45733972D01*
X73267231Y45733972D02*
X73314850Y45638734D01*
X73314850Y45638734D02*
X73314850Y45543496D01*
X73314850Y45543496D02*
X73267231Y45448258D01*
X73267231Y45448258D02*
X73219612Y45400639D01*
X73219612Y45400639D02*
X73124374Y45353020D01*
X73124374Y45353020D02*
X73029136Y45353020D01*
X73029136Y45353020D02*
X72933898Y45400639D01*
X72933898Y45400639D02*
X72886279Y45448258D01*
X72886279Y45829210D02*
X72886279Y45448258D01*
X72886279Y45448258D02*
X72838660Y45400639D01*
X72838660Y45400639D02*
X72791041Y45400639D01*
X72791041Y45400639D02*
X72695802Y45448258D01*
X72695802Y45448258D02*
X72648183Y45543496D01*
X72648183Y45543496D02*
X72648183Y45781591D01*
X72648183Y45781591D02*
X72743422Y45924448D01*
X72743422Y45924448D02*
X72886279Y46019686D01*
X72886279Y46019686D02*
X73076755Y46067305D01*
X73076755Y46067305D02*
X73267231Y46019686D01*
X73267231Y46019686D02*
X73410088Y45924448D01*
X73410088Y45924448D02*
X73505326Y45781591D01*
X73505326Y45781591D02*
X73552945Y45591115D01*
X73552945Y45591115D02*
X73505326Y45400639D01*
X73505326Y45400639D02*
X73410088Y45257781D01*
X73410088Y45257781D02*
X73267231Y45162543D01*
X73267231Y45162543D02*
X73076755Y45114924D01*
X73076755Y45114924D02*
X72886279Y45162543D01*
X72886279Y45162543D02*
X72743422Y45257781D01*
X72219612Y45257781D02*
X72219612Y46257781D01*
X71791041Y45257781D02*
X71791041Y45781591D01*
X71791041Y45781591D02*
X71838660Y45876829D01*
X71838660Y45876829D02*
X71933898Y45924448D01*
X71933898Y45924448D02*
X72076755Y45924448D01*
X72076755Y45924448D02*
X72171993Y45876829D01*
X72171993Y45876829D02*
X72219612Y45829210D01*
X70886279Y45257781D02*
X70886279Y45781591D01*
X70886279Y45781591D02*
X70933898Y45876829D01*
X70933898Y45876829D02*
X71029136Y45924448D01*
X71029136Y45924448D02*
X71219612Y45924448D01*
X71219612Y45924448D02*
X71314850Y45876829D01*
X70886279Y45305400D02*
X70981517Y45257781D01*
X70981517Y45257781D02*
X71219612Y45257781D01*
X71219612Y45257781D02*
X71314850Y45305400D01*
X71314850Y45305400D02*
X71362469Y45400639D01*
X71362469Y45400639D02*
X71362469Y45495877D01*
X71362469Y45495877D02*
X71314850Y45591115D01*
X71314850Y45591115D02*
X71219612Y45638734D01*
X71219612Y45638734D02*
X70981517Y45638734D01*
X70981517Y45638734D02*
X70886279Y45686353D01*
X70410088Y45257781D02*
X70410088Y45924448D01*
X70410088Y45829210D02*
X70362469Y45876829D01*
X70362469Y45876829D02*
X70267231Y45924448D01*
X70267231Y45924448D02*
X70124374Y45924448D01*
X70124374Y45924448D02*
X70029136Y45876829D01*
X70029136Y45876829D02*
X69981517Y45781591D01*
X69981517Y45781591D02*
X69981517Y45257781D01*
X69981517Y45781591D02*
X69933898Y45876829D01*
X69933898Y45876829D02*
X69838660Y45924448D01*
X69838660Y45924448D02*
X69695803Y45924448D01*
X69695803Y45924448D02*
X69600564Y45876829D01*
X69600564Y45876829D02*
X69552945Y45781591D01*
X69552945Y45781591D02*
X69552945Y45257781D01*
X69124374Y45305400D02*
X69029136Y45257781D01*
X69029136Y45257781D02*
X68838660Y45257781D01*
X68838660Y45257781D02*
X68743422Y45305400D01*
X68743422Y45305400D02*
X68695803Y45400639D01*
X68695803Y45400639D02*
X68695803Y45448258D01*
X68695803Y45448258D02*
X68743422Y45543496D01*
X68743422Y45543496D02*
X68838660Y45591115D01*
X68838660Y45591115D02*
X68981517Y45591115D01*
X68981517Y45591115D02*
X69076755Y45638734D01*
X69076755Y45638734D02*
X69124374Y45733972D01*
X69124374Y45733972D02*
X69124374Y45781591D01*
X69124374Y45781591D02*
X69076755Y45876829D01*
X69076755Y45876829D02*
X68981517Y45924448D01*
X68981517Y45924448D02*
X68838660Y45924448D01*
X68838660Y45924448D02*
X68743422Y45876829D01*
X68410088Y45924448D02*
X68029136Y45924448D01*
X68267231Y46257781D02*
X68267231Y45400639D01*
X68267231Y45400639D02*
X68219612Y45305400D01*
X68219612Y45305400D02*
X68124374Y45257781D01*
X68124374Y45257781D02*
X68029136Y45257781D01*
X67314850Y45305400D02*
X67410088Y45257781D01*
X67410088Y45257781D02*
X67600564Y45257781D01*
X67600564Y45257781D02*
X67695802Y45305400D01*
X67695802Y45305400D02*
X67743421Y45400639D01*
X67743421Y45400639D02*
X67743421Y45781591D01*
X67743421Y45781591D02*
X67695802Y45876829D01*
X67695802Y45876829D02*
X67600564Y45924448D01*
X67600564Y45924448D02*
X67410088Y45924448D01*
X67410088Y45924448D02*
X67314850Y45876829D01*
X67314850Y45876829D02*
X67267231Y45781591D01*
X67267231Y45781591D02*
X67267231Y45686353D01*
X67267231Y45686353D02*
X67743421Y45591115D01*
X66838659Y45257781D02*
X66838659Y45924448D01*
X66838659Y45733972D02*
X66791040Y45829210D01*
X66791040Y45829210D02*
X66743421Y45876829D01*
X66743421Y45876829D02*
X66648183Y45924448D01*
X66648183Y45924448D02*
X66552945Y45924448D01*
X52886279Y105733972D02*
X52933898Y105781591D01*
X52933898Y105781591D02*
X53029136Y105829210D01*
X53029136Y105829210D02*
X53124374Y105829210D01*
X53124374Y105829210D02*
X53219612Y105781591D01*
X53219612Y105781591D02*
X53267231Y105733972D01*
X53267231Y105733972D02*
X53314850Y105638734D01*
X53314850Y105638734D02*
X53314850Y105543496D01*
X53314850Y105543496D02*
X53267231Y105448258D01*
X53267231Y105448258D02*
X53219612Y105400639D01*
X53219612Y105400639D02*
X53124374Y105353020D01*
X53124374Y105353020D02*
X53029136Y105353020D01*
X53029136Y105353020D02*
X52933898Y105400639D01*
X52933898Y105400639D02*
X52886279Y105448258D01*
X52886279Y105829210D02*
X52886279Y105448258D01*
X52886279Y105448258D02*
X52838660Y105400639D01*
X52838660Y105400639D02*
X52791041Y105400639D01*
X52791041Y105400639D02*
X52695802Y105448258D01*
X52695802Y105448258D02*
X52648183Y105543496D01*
X52648183Y105543496D02*
X52648183Y105781591D01*
X52648183Y105781591D02*
X52743422Y105924448D01*
X52743422Y105924448D02*
X52886279Y106019686D01*
X52886279Y106019686D02*
X53076755Y106067305D01*
X53076755Y106067305D02*
X53267231Y106019686D01*
X53267231Y106019686D02*
X53410088Y105924448D01*
X53410088Y105924448D02*
X53505326Y105781591D01*
X53505326Y105781591D02*
X53552945Y105591115D01*
X53552945Y105591115D02*
X53505326Y105400639D01*
X53505326Y105400639D02*
X53410088Y105257781D01*
X53410088Y105257781D02*
X53267231Y105162543D01*
X53267231Y105162543D02*
X53076755Y105114924D01*
X53076755Y105114924D02*
X52886279Y105162543D01*
X52886279Y105162543D02*
X52743422Y105257781D01*
X52219612Y105257781D02*
X52219612Y106257781D01*
X51791041Y105257781D02*
X51791041Y105781591D01*
X51791041Y105781591D02*
X51838660Y105876829D01*
X51838660Y105876829D02*
X51933898Y105924448D01*
X51933898Y105924448D02*
X52076755Y105924448D01*
X52076755Y105924448D02*
X52171993Y105876829D01*
X52171993Y105876829D02*
X52219612Y105829210D01*
X50886279Y105257781D02*
X50886279Y105781591D01*
X50886279Y105781591D02*
X50933898Y105876829D01*
X50933898Y105876829D02*
X51029136Y105924448D01*
X51029136Y105924448D02*
X51219612Y105924448D01*
X51219612Y105924448D02*
X51314850Y105876829D01*
X50886279Y105305400D02*
X50981517Y105257781D01*
X50981517Y105257781D02*
X51219612Y105257781D01*
X51219612Y105257781D02*
X51314850Y105305400D01*
X51314850Y105305400D02*
X51362469Y105400639D01*
X51362469Y105400639D02*
X51362469Y105495877D01*
X51362469Y105495877D02*
X51314850Y105591115D01*
X51314850Y105591115D02*
X51219612Y105638734D01*
X51219612Y105638734D02*
X50981517Y105638734D01*
X50981517Y105638734D02*
X50886279Y105686353D01*
X50410088Y105257781D02*
X50410088Y105924448D01*
X50410088Y105829210D02*
X50362469Y105876829D01*
X50362469Y105876829D02*
X50267231Y105924448D01*
X50267231Y105924448D02*
X50124374Y105924448D01*
X50124374Y105924448D02*
X50029136Y105876829D01*
X50029136Y105876829D02*
X49981517Y105781591D01*
X49981517Y105781591D02*
X49981517Y105257781D01*
X49981517Y105781591D02*
X49933898Y105876829D01*
X49933898Y105876829D02*
X49838660Y105924448D01*
X49838660Y105924448D02*
X49695803Y105924448D01*
X49695803Y105924448D02*
X49600564Y105876829D01*
X49600564Y105876829D02*
X49552945Y105781591D01*
X49552945Y105781591D02*
X49552945Y105257781D01*
X49124374Y105305400D02*
X49029136Y105257781D01*
X49029136Y105257781D02*
X48838660Y105257781D01*
X48838660Y105257781D02*
X48743422Y105305400D01*
X48743422Y105305400D02*
X48695803Y105400639D01*
X48695803Y105400639D02*
X48695803Y105448258D01*
X48695803Y105448258D02*
X48743422Y105543496D01*
X48743422Y105543496D02*
X48838660Y105591115D01*
X48838660Y105591115D02*
X48981517Y105591115D01*
X48981517Y105591115D02*
X49076755Y105638734D01*
X49076755Y105638734D02*
X49124374Y105733972D01*
X49124374Y105733972D02*
X49124374Y105781591D01*
X49124374Y105781591D02*
X49076755Y105876829D01*
X49076755Y105876829D02*
X48981517Y105924448D01*
X48981517Y105924448D02*
X48838660Y105924448D01*
X48838660Y105924448D02*
X48743422Y105876829D01*
X48410088Y105924448D02*
X48029136Y105924448D01*
X48267231Y106257781D02*
X48267231Y105400639D01*
X48267231Y105400639D02*
X48219612Y105305400D01*
X48219612Y105305400D02*
X48124374Y105257781D01*
X48124374Y105257781D02*
X48029136Y105257781D01*
X47314850Y105305400D02*
X47410088Y105257781D01*
X47410088Y105257781D02*
X47600564Y105257781D01*
X47600564Y105257781D02*
X47695802Y105305400D01*
X47695802Y105305400D02*
X47743421Y105400639D01*
X47743421Y105400639D02*
X47743421Y105781591D01*
X47743421Y105781591D02*
X47695802Y105876829D01*
X47695802Y105876829D02*
X47600564Y105924448D01*
X47600564Y105924448D02*
X47410088Y105924448D01*
X47410088Y105924448D02*
X47314850Y105876829D01*
X47314850Y105876829D02*
X47267231Y105781591D01*
X47267231Y105781591D02*
X47267231Y105686353D01*
X47267231Y105686353D02*
X47743421Y105591115D01*
X46838659Y105257781D02*
X46838659Y105924448D01*
X46838659Y105733972D02*
X46791040Y105829210D01*
X46791040Y105829210D02*
X46743421Y105876829D01*
X46743421Y105876829D02*
X46648183Y105924448D01*
X46648183Y105924448D02*
X46552945Y105924448D01*
X32886279Y65733972D02*
X32933898Y65781591D01*
X32933898Y65781591D02*
X33029136Y65829210D01*
X33029136Y65829210D02*
X33124374Y65829210D01*
X33124374Y65829210D02*
X33219612Y65781591D01*
X33219612Y65781591D02*
X33267231Y65733972D01*
X33267231Y65733972D02*
X33314850Y65638734D01*
X33314850Y65638734D02*
X33314850Y65543496D01*
X33314850Y65543496D02*
X33267231Y65448258D01*
X33267231Y65448258D02*
X33219612Y65400639D01*
X33219612Y65400639D02*
X33124374Y65353020D01*
X33124374Y65353020D02*
X33029136Y65353020D01*
X33029136Y65353020D02*
X32933898Y65400639D01*
X32933898Y65400639D02*
X32886279Y65448258D01*
X32886279Y65829210D02*
X32886279Y65448258D01*
X32886279Y65448258D02*
X32838660Y65400639D01*
X32838660Y65400639D02*
X32791041Y65400639D01*
X32791041Y65400639D02*
X32695802Y65448258D01*
X32695802Y65448258D02*
X32648183Y65543496D01*
X32648183Y65543496D02*
X32648183Y65781591D01*
X32648183Y65781591D02*
X32743422Y65924448D01*
X32743422Y65924448D02*
X32886279Y66019686D01*
X32886279Y66019686D02*
X33076755Y66067305D01*
X33076755Y66067305D02*
X33267231Y66019686D01*
X33267231Y66019686D02*
X33410088Y65924448D01*
X33410088Y65924448D02*
X33505326Y65781591D01*
X33505326Y65781591D02*
X33552945Y65591115D01*
X33552945Y65591115D02*
X33505326Y65400639D01*
X33505326Y65400639D02*
X33410088Y65257781D01*
X33410088Y65257781D02*
X33267231Y65162543D01*
X33267231Y65162543D02*
X33076755Y65114924D01*
X33076755Y65114924D02*
X32886279Y65162543D01*
X32886279Y65162543D02*
X32743422Y65257781D01*
X32219612Y65257781D02*
X32219612Y66257781D01*
X31791041Y65257781D02*
X31791041Y65781591D01*
X31791041Y65781591D02*
X31838660Y65876829D01*
X31838660Y65876829D02*
X31933898Y65924448D01*
X31933898Y65924448D02*
X32076755Y65924448D01*
X32076755Y65924448D02*
X32171993Y65876829D01*
X32171993Y65876829D02*
X32219612Y65829210D01*
X30886279Y65257781D02*
X30886279Y65781591D01*
X30886279Y65781591D02*
X30933898Y65876829D01*
X30933898Y65876829D02*
X31029136Y65924448D01*
X31029136Y65924448D02*
X31219612Y65924448D01*
X31219612Y65924448D02*
X31314850Y65876829D01*
X30886279Y65305400D02*
X30981517Y65257781D01*
X30981517Y65257781D02*
X31219612Y65257781D01*
X31219612Y65257781D02*
X31314850Y65305400D01*
X31314850Y65305400D02*
X31362469Y65400639D01*
X31362469Y65400639D02*
X31362469Y65495877D01*
X31362469Y65495877D02*
X31314850Y65591115D01*
X31314850Y65591115D02*
X31219612Y65638734D01*
X31219612Y65638734D02*
X30981517Y65638734D01*
X30981517Y65638734D02*
X30886279Y65686353D01*
X30410088Y65257781D02*
X30410088Y65924448D01*
X30410088Y65829210D02*
X30362469Y65876829D01*
X30362469Y65876829D02*
X30267231Y65924448D01*
X30267231Y65924448D02*
X30124374Y65924448D01*
X30124374Y65924448D02*
X30029136Y65876829D01*
X30029136Y65876829D02*
X29981517Y65781591D01*
X29981517Y65781591D02*
X29981517Y65257781D01*
X29981517Y65781591D02*
X29933898Y65876829D01*
X29933898Y65876829D02*
X29838660Y65924448D01*
X29838660Y65924448D02*
X29695803Y65924448D01*
X29695803Y65924448D02*
X29600564Y65876829D01*
X29600564Y65876829D02*
X29552945Y65781591D01*
X29552945Y65781591D02*
X29552945Y65257781D01*
X29124374Y65305400D02*
X29029136Y65257781D01*
X29029136Y65257781D02*
X28838660Y65257781D01*
X28838660Y65257781D02*
X28743422Y65305400D01*
X28743422Y65305400D02*
X28695803Y65400639D01*
X28695803Y65400639D02*
X28695803Y65448258D01*
X28695803Y65448258D02*
X28743422Y65543496D01*
X28743422Y65543496D02*
X28838660Y65591115D01*
X28838660Y65591115D02*
X28981517Y65591115D01*
X28981517Y65591115D02*
X29076755Y65638734D01*
X29076755Y65638734D02*
X29124374Y65733972D01*
X29124374Y65733972D02*
X29124374Y65781591D01*
X29124374Y65781591D02*
X29076755Y65876829D01*
X29076755Y65876829D02*
X28981517Y65924448D01*
X28981517Y65924448D02*
X28838660Y65924448D01*
X28838660Y65924448D02*
X28743422Y65876829D01*
X28410088Y65924448D02*
X28029136Y65924448D01*
X28267231Y66257781D02*
X28267231Y65400639D01*
X28267231Y65400639D02*
X28219612Y65305400D01*
X28219612Y65305400D02*
X28124374Y65257781D01*
X28124374Y65257781D02*
X28029136Y65257781D01*
X27314850Y65305400D02*
X27410088Y65257781D01*
X27410088Y65257781D02*
X27600564Y65257781D01*
X27600564Y65257781D02*
X27695802Y65305400D01*
X27695802Y65305400D02*
X27743421Y65400639D01*
X27743421Y65400639D02*
X27743421Y65781591D01*
X27743421Y65781591D02*
X27695802Y65876829D01*
X27695802Y65876829D02*
X27600564Y65924448D01*
X27600564Y65924448D02*
X27410088Y65924448D01*
X27410088Y65924448D02*
X27314850Y65876829D01*
X27314850Y65876829D02*
X27267231Y65781591D01*
X27267231Y65781591D02*
X27267231Y65686353D01*
X27267231Y65686353D02*
X27743421Y65591115D01*
X26838659Y65257781D02*
X26838659Y65924448D01*
X26838659Y65733972D02*
X26791040Y65829210D01*
X26791040Y65829210D02*
X26743421Y65876829D01*
X26743421Y65876829D02*
X26648183Y65924448D01*
X26648183Y65924448D02*
X26552945Y65924448D01*
X12886279Y25733972D02*
X12933898Y25781591D01*
X12933898Y25781591D02*
X13029136Y25829210D01*
X13029136Y25829210D02*
X13124374Y25829210D01*
X13124374Y25829210D02*
X13219612Y25781591D01*
X13219612Y25781591D02*
X13267231Y25733972D01*
X13267231Y25733972D02*
X13314850Y25638734D01*
X13314850Y25638734D02*
X13314850Y25543496D01*
X13314850Y25543496D02*
X13267231Y25448258D01*
X13267231Y25448258D02*
X13219612Y25400639D01*
X13219612Y25400639D02*
X13124374Y25353020D01*
X13124374Y25353020D02*
X13029136Y25353020D01*
X13029136Y25353020D02*
X12933898Y25400639D01*
X12933898Y25400639D02*
X12886279Y25448258D01*
X12886279Y25829210D02*
X12886279Y25448258D01*
X12886279Y25448258D02*
X12838660Y25400639D01*
X12838660Y25400639D02*
X12791041Y25400639D01*
X12791041Y25400639D02*
X12695802Y25448258D01*
X12695802Y25448258D02*
X12648183Y25543496D01*
X12648183Y25543496D02*
X12648183Y25781591D01*
X12648183Y25781591D02*
X12743422Y25924448D01*
X12743422Y25924448D02*
X12886279Y26019686D01*
X12886279Y26019686D02*
X13076755Y26067305D01*
X13076755Y26067305D02*
X13267231Y26019686D01*
X13267231Y26019686D02*
X13410088Y25924448D01*
X13410088Y25924448D02*
X13505326Y25781591D01*
X13505326Y25781591D02*
X13552945Y25591115D01*
X13552945Y25591115D02*
X13505326Y25400639D01*
X13505326Y25400639D02*
X13410088Y25257781D01*
X13410088Y25257781D02*
X13267231Y25162543D01*
X13267231Y25162543D02*
X13076755Y25114924D01*
X13076755Y25114924D02*
X12886279Y25162543D01*
X12886279Y25162543D02*
X12743422Y25257781D01*
X12219612Y25257781D02*
X12219612Y26257781D01*
X11791041Y25257781D02*
X11791041Y25781591D01*
X11791041Y25781591D02*
X11838660Y25876829D01*
X11838660Y25876829D02*
X11933898Y25924448D01*
X11933898Y25924448D02*
X12076755Y25924448D01*
X12076755Y25924448D02*
X12171993Y25876829D01*
X12171993Y25876829D02*
X12219612Y25829210D01*
X10886279Y25257781D02*
X10886279Y25781591D01*
X10886279Y25781591D02*
X10933898Y25876829D01*
X10933898Y25876829D02*
X11029136Y25924448D01*
X11029136Y25924448D02*
X11219612Y25924448D01*
X11219612Y25924448D02*
X11314850Y25876829D01*
X10886279Y25305400D02*
X10981517Y25257781D01*
X10981517Y25257781D02*
X11219612Y25257781D01*
X11219612Y25257781D02*
X11314850Y25305400D01*
X11314850Y25305400D02*
X11362469Y25400639D01*
X11362469Y25400639D02*
X11362469Y25495877D01*
X11362469Y25495877D02*
X11314850Y25591115D01*
X11314850Y25591115D02*
X11219612Y25638734D01*
X11219612Y25638734D02*
X10981517Y25638734D01*
X10981517Y25638734D02*
X10886279Y25686353D01*
X10410088Y25257781D02*
X10410088Y25924448D01*
X10410088Y25829210D02*
X10362469Y25876829D01*
X10362469Y25876829D02*
X10267231Y25924448D01*
X10267231Y25924448D02*
X10124374Y25924448D01*
X10124374Y25924448D02*
X10029136Y25876829D01*
X10029136Y25876829D02*
X9981517Y25781591D01*
X9981517Y25781591D02*
X9981517Y25257781D01*
X9981517Y25781591D02*
X9933898Y25876829D01*
X9933898Y25876829D02*
X9838660Y25924448D01*
X9838660Y25924448D02*
X9695803Y25924448D01*
X9695803Y25924448D02*
X9600564Y25876829D01*
X9600564Y25876829D02*
X9552945Y25781591D01*
X9552945Y25781591D02*
X9552945Y25257781D01*
X9124374Y25305400D02*
X9029136Y25257781D01*
X9029136Y25257781D02*
X8838660Y25257781D01*
X8838660Y25257781D02*
X8743422Y25305400D01*
X8743422Y25305400D02*
X8695803Y25400639D01*
X8695803Y25400639D02*
X8695803Y25448258D01*
X8695803Y25448258D02*
X8743422Y25543496D01*
X8743422Y25543496D02*
X8838660Y25591115D01*
X8838660Y25591115D02*
X8981517Y25591115D01*
X8981517Y25591115D02*
X9076755Y25638734D01*
X9076755Y25638734D02*
X9124374Y25733972D01*
X9124374Y25733972D02*
X9124374Y25781591D01*
X9124374Y25781591D02*
X9076755Y25876829D01*
X9076755Y25876829D02*
X8981517Y25924448D01*
X8981517Y25924448D02*
X8838660Y25924448D01*
X8838660Y25924448D02*
X8743422Y25876829D01*
X8410088Y25924448D02*
X8029136Y25924448D01*
X8267231Y26257781D02*
X8267231Y25400639D01*
X8267231Y25400639D02*
X8219612Y25305400D01*
X8219612Y25305400D02*
X8124374Y25257781D01*
X8124374Y25257781D02*
X8029136Y25257781D01*
X7314850Y25305400D02*
X7410088Y25257781D01*
X7410088Y25257781D02*
X7600564Y25257781D01*
X7600564Y25257781D02*
X7695802Y25305400D01*
X7695802Y25305400D02*
X7743421Y25400639D01*
X7743421Y25400639D02*
X7743421Y25781591D01*
X7743421Y25781591D02*
X7695802Y25876829D01*
X7695802Y25876829D02*
X7600564Y25924448D01*
X7600564Y25924448D02*
X7410088Y25924448D01*
X7410088Y25924448D02*
X7314850Y25876829D01*
X7314850Y25876829D02*
X7267231Y25781591D01*
X7267231Y25781591D02*
X7267231Y25686353D01*
X7267231Y25686353D02*
X7743421Y25591115D01*
X6838659Y25257781D02*
X6838659Y25924448D01*
X6838659Y25733972D02*
X6791040Y25829210D01*
X6791040Y25829210D02*
X6743421Y25876829D01*
X6743421Y25876829D02*
X6648183Y25924448D01*
X6648183Y25924448D02*
X6552945Y25924448D01*
X92886279Y85733972D02*
X92933898Y85781591D01*
X92933898Y85781591D02*
X93029136Y85829210D01*
X93029136Y85829210D02*
X93124374Y85829210D01*
X93124374Y85829210D02*
X93219612Y85781591D01*
X93219612Y85781591D02*
X93267231Y85733972D01*
X93267231Y85733972D02*
X93314850Y85638734D01*
X93314850Y85638734D02*
X93314850Y85543496D01*
X93314850Y85543496D02*
X93267231Y85448258D01*
X93267231Y85448258D02*
X93219612Y85400639D01*
X93219612Y85400639D02*
X93124374Y85353020D01*
X93124374Y85353020D02*
X93029136Y85353020D01*
X93029136Y85353020D02*
X92933898Y85400639D01*
X92933898Y85400639D02*
X92886279Y85448258D01*
X92886279Y85829210D02*
X92886279Y85448258D01*
X92886279Y85448258D02*
X92838660Y85400639D01*
X92838660Y85400639D02*
X92791041Y85400639D01*
X92791041Y85400639D02*
X92695802Y85448258D01*
X92695802Y85448258D02*
X92648183Y85543496D01*
X92648183Y85543496D02*
X92648183Y85781591D01*
X92648183Y85781591D02*
X92743422Y85924448D01*
X92743422Y85924448D02*
X92886279Y86019686D01*
X92886279Y86019686D02*
X93076755Y86067305D01*
X93076755Y86067305D02*
X93267231Y86019686D01*
X93267231Y86019686D02*
X93410088Y85924448D01*
X93410088Y85924448D02*
X93505326Y85781591D01*
X93505326Y85781591D02*
X93552945Y85591115D01*
X93552945Y85591115D02*
X93505326Y85400639D01*
X93505326Y85400639D02*
X93410088Y85257781D01*
X93410088Y85257781D02*
X93267231Y85162543D01*
X93267231Y85162543D02*
X93076755Y85114924D01*
X93076755Y85114924D02*
X92886279Y85162543D01*
X92886279Y85162543D02*
X92743422Y85257781D01*
X92219612Y85257781D02*
X92219612Y86257781D01*
X91791041Y85257781D02*
X91791041Y85781591D01*
X91791041Y85781591D02*
X91838660Y85876829D01*
X91838660Y85876829D02*
X91933898Y85924448D01*
X91933898Y85924448D02*
X92076755Y85924448D01*
X92076755Y85924448D02*
X92171993Y85876829D01*
X92171993Y85876829D02*
X92219612Y85829210D01*
X90886279Y85257781D02*
X90886279Y85781591D01*
X90886279Y85781591D02*
X90933898Y85876829D01*
X90933898Y85876829D02*
X91029136Y85924448D01*
X91029136Y85924448D02*
X91219612Y85924448D01*
X91219612Y85924448D02*
X91314850Y85876829D01*
X90886279Y85305400D02*
X90981517Y85257781D01*
X90981517Y85257781D02*
X91219612Y85257781D01*
X91219612Y85257781D02*
X91314850Y85305400D01*
X91314850Y85305400D02*
X91362469Y85400639D01*
X91362469Y85400639D02*
X91362469Y85495877D01*
X91362469Y85495877D02*
X91314850Y85591115D01*
X91314850Y85591115D02*
X91219612Y85638734D01*
X91219612Y85638734D02*
X90981517Y85638734D01*
X90981517Y85638734D02*
X90886279Y85686353D01*
X90410088Y85257781D02*
X90410088Y85924448D01*
X90410088Y85829210D02*
X90362469Y85876829D01*
X90362469Y85876829D02*
X90267231Y85924448D01*
X90267231Y85924448D02*
X90124374Y85924448D01*
X90124374Y85924448D02*
X90029136Y85876829D01*
X90029136Y85876829D02*
X89981517Y85781591D01*
X89981517Y85781591D02*
X89981517Y85257781D01*
X89981517Y85781591D02*
X89933898Y85876829D01*
X89933898Y85876829D02*
X89838660Y85924448D01*
X89838660Y85924448D02*
X89695803Y85924448D01*
X89695803Y85924448D02*
X89600564Y85876829D01*
X89600564Y85876829D02*
X89552945Y85781591D01*
X89552945Y85781591D02*
X89552945Y85257781D01*
X89124374Y85305400D02*
X89029136Y85257781D01*
X89029136Y85257781D02*
X88838660Y85257781D01*
X88838660Y85257781D02*
X88743422Y85305400D01*
X88743422Y85305400D02*
X88695803Y85400639D01*
X88695803Y85400639D02*
X88695803Y85448258D01*
X88695803Y85448258D02*
X88743422Y85543496D01*
X88743422Y85543496D02*
X88838660Y85591115D01*
X88838660Y85591115D02*
X88981517Y85591115D01*
X88981517Y85591115D02*
X89076755Y85638734D01*
X89076755Y85638734D02*
X89124374Y85733972D01*
X89124374Y85733972D02*
X89124374Y85781591D01*
X89124374Y85781591D02*
X89076755Y85876829D01*
X89076755Y85876829D02*
X88981517Y85924448D01*
X88981517Y85924448D02*
X88838660Y85924448D01*
X88838660Y85924448D02*
X88743422Y85876829D01*
X88410088Y85924448D02*
X88029136Y85924448D01*
X88267231Y86257781D02*
X88267231Y85400639D01*
X88267231Y85400639D02*
X88219612Y85305400D01*
X88219612Y85305400D02*
X88124374Y85257781D01*
X88124374Y85257781D02*
X88029136Y85257781D01*
X87314850Y85305400D02*
X87410088Y85257781D01*
X87410088Y85257781D02*
X87600564Y85257781D01*
X87600564Y85257781D02*
X87695802Y85305400D01*
X87695802Y85305400D02*
X87743421Y85400639D01*
X87743421Y85400639D02*
X87743421Y85781591D01*
X87743421Y85781591D02*
X87695802Y85876829D01*
X87695802Y85876829D02*
X87600564Y85924448D01*
X87600564Y85924448D02*
X87410088Y85924448D01*
X87410088Y85924448D02*
X87314850Y85876829D01*
X87314850Y85876829D02*
X87267231Y85781591D01*
X87267231Y85781591D02*
X87267231Y85686353D01*
X87267231Y85686353D02*
X87743421Y85591115D01*
X86838659Y85257781D02*
X86838659Y85924448D01*
X86838659Y85733972D02*
X86791040Y85829210D01*
X86791040Y85829210D02*
X86743421Y85876829D01*
X86743421Y85876829D02*
X86648183Y85924448D01*
X86648183Y85924448D02*
X86552945Y85924448D01*
X92886279Y65733972D02*
X92933898Y65781591D01*
X92933898Y65781591D02*
X93029136Y65829210D01*
X93029136Y65829210D02*
X93124374Y65829210D01*
X93124374Y65829210D02*
X93219612Y65781591D01*
X93219612Y65781591D02*
X93267231Y65733972D01*
X93267231Y65733972D02*
X93314850Y65638734D01*
X93314850Y65638734D02*
X93314850Y65543496D01*
X93314850Y65543496D02*
X93267231Y65448258D01*
X93267231Y65448258D02*
X93219612Y65400639D01*
X93219612Y65400639D02*
X93124374Y65353020D01*
X93124374Y65353020D02*
X93029136Y65353020D01*
X93029136Y65353020D02*
X92933898Y65400639D01*
X92933898Y65400639D02*
X92886279Y65448258D01*
X92886279Y65829210D02*
X92886279Y65448258D01*
X92886279Y65448258D02*
X92838660Y65400639D01*
X92838660Y65400639D02*
X92791041Y65400639D01*
X92791041Y65400639D02*
X92695802Y65448258D01*
X92695802Y65448258D02*
X92648183Y65543496D01*
X92648183Y65543496D02*
X92648183Y65781591D01*
X92648183Y65781591D02*
X92743422Y65924448D01*
X92743422Y65924448D02*
X92886279Y66019686D01*
X92886279Y66019686D02*
X93076755Y66067305D01*
X93076755Y66067305D02*
X93267231Y66019686D01*
X93267231Y66019686D02*
X93410088Y65924448D01*
X93410088Y65924448D02*
X93505326Y65781591D01*
X93505326Y65781591D02*
X93552945Y65591115D01*
X93552945Y65591115D02*
X93505326Y65400639D01*
X93505326Y65400639D02*
X93410088Y65257781D01*
X93410088Y65257781D02*
X93267231Y65162543D01*
X93267231Y65162543D02*
X93076755Y65114924D01*
X93076755Y65114924D02*
X92886279Y65162543D01*
X92886279Y65162543D02*
X92743422Y65257781D01*
X92219612Y65257781D02*
X92219612Y66257781D01*
X91791041Y65257781D02*
X91791041Y65781591D01*
X91791041Y65781591D02*
X91838660Y65876829D01*
X91838660Y65876829D02*
X91933898Y65924448D01*
X91933898Y65924448D02*
X92076755Y65924448D01*
X92076755Y65924448D02*
X92171993Y65876829D01*
X92171993Y65876829D02*
X92219612Y65829210D01*
X90886279Y65257781D02*
X90886279Y65781591D01*
X90886279Y65781591D02*
X90933898Y65876829D01*
X90933898Y65876829D02*
X91029136Y65924448D01*
X91029136Y65924448D02*
X91219612Y65924448D01*
X91219612Y65924448D02*
X91314850Y65876829D01*
X90886279Y65305400D02*
X90981517Y65257781D01*
X90981517Y65257781D02*
X91219612Y65257781D01*
X91219612Y65257781D02*
X91314850Y65305400D01*
X91314850Y65305400D02*
X91362469Y65400639D01*
X91362469Y65400639D02*
X91362469Y65495877D01*
X91362469Y65495877D02*
X91314850Y65591115D01*
X91314850Y65591115D02*
X91219612Y65638734D01*
X91219612Y65638734D02*
X90981517Y65638734D01*
X90981517Y65638734D02*
X90886279Y65686353D01*
X90410088Y65257781D02*
X90410088Y65924448D01*
X90410088Y65829210D02*
X90362469Y65876829D01*
X90362469Y65876829D02*
X90267231Y65924448D01*
X90267231Y65924448D02*
X90124374Y65924448D01*
X90124374Y65924448D02*
X90029136Y65876829D01*
X90029136Y65876829D02*
X89981517Y65781591D01*
X89981517Y65781591D02*
X89981517Y65257781D01*
X89981517Y65781591D02*
X89933898Y65876829D01*
X89933898Y65876829D02*
X89838660Y65924448D01*
X89838660Y65924448D02*
X89695803Y65924448D01*
X89695803Y65924448D02*
X89600564Y65876829D01*
X89600564Y65876829D02*
X89552945Y65781591D01*
X89552945Y65781591D02*
X89552945Y65257781D01*
X89124374Y65305400D02*
X89029136Y65257781D01*
X89029136Y65257781D02*
X88838660Y65257781D01*
X88838660Y65257781D02*
X88743422Y65305400D01*
X88743422Y65305400D02*
X88695803Y65400639D01*
X88695803Y65400639D02*
X88695803Y65448258D01*
X88695803Y65448258D02*
X88743422Y65543496D01*
X88743422Y65543496D02*
X88838660Y65591115D01*
X88838660Y65591115D02*
X88981517Y65591115D01*
X88981517Y65591115D02*
X89076755Y65638734D01*
X89076755Y65638734D02*
X89124374Y65733972D01*
X89124374Y65733972D02*
X89124374Y65781591D01*
X89124374Y65781591D02*
X89076755Y65876829D01*
X89076755Y65876829D02*
X88981517Y65924448D01*
X88981517Y65924448D02*
X88838660Y65924448D01*
X88838660Y65924448D02*
X88743422Y65876829D01*
X88410088Y65924448D02*
X88029136Y65924448D01*
X88267231Y66257781D02*
X88267231Y65400639D01*
X88267231Y65400639D02*
X88219612Y65305400D01*
X88219612Y65305400D02*
X88124374Y65257781D01*
X88124374Y65257781D02*
X88029136Y65257781D01*
X87314850Y65305400D02*
X87410088Y65257781D01*
X87410088Y65257781D02*
X87600564Y65257781D01*
X87600564Y65257781D02*
X87695802Y65305400D01*
X87695802Y65305400D02*
X87743421Y65400639D01*
X87743421Y65400639D02*
X87743421Y65781591D01*
X87743421Y65781591D02*
X87695802Y65876829D01*
X87695802Y65876829D02*
X87600564Y65924448D01*
X87600564Y65924448D02*
X87410088Y65924448D01*
X87410088Y65924448D02*
X87314850Y65876829D01*
X87314850Y65876829D02*
X87267231Y65781591D01*
X87267231Y65781591D02*
X87267231Y65686353D01*
X87267231Y65686353D02*
X87743421Y65591115D01*
X86838659Y65257781D02*
X86838659Y65924448D01*
X86838659Y65733972D02*
X86791040Y65829210D01*
X86791040Y65829210D02*
X86743421Y65876829D01*
X86743421Y65876829D02*
X86648183Y65924448D01*
X86648183Y65924448D02*
X86552945Y65924448D01*
X92886279Y25733972D02*
X92933898Y25781591D01*
X92933898Y25781591D02*
X93029136Y25829210D01*
X93029136Y25829210D02*
X93124374Y25829210D01*
X93124374Y25829210D02*
X93219612Y25781591D01*
X93219612Y25781591D02*
X93267231Y25733972D01*
X93267231Y25733972D02*
X93314850Y25638734D01*
X93314850Y25638734D02*
X93314850Y25543496D01*
X93314850Y25543496D02*
X93267231Y25448258D01*
X93267231Y25448258D02*
X93219612Y25400639D01*
X93219612Y25400639D02*
X93124374Y25353020D01*
X93124374Y25353020D02*
X93029136Y25353020D01*
X93029136Y25353020D02*
X92933898Y25400639D01*
X92933898Y25400639D02*
X92886279Y25448258D01*
X92886279Y25829210D02*
X92886279Y25448258D01*
X92886279Y25448258D02*
X92838660Y25400639D01*
X92838660Y25400639D02*
X92791041Y25400639D01*
X92791041Y25400639D02*
X92695802Y25448258D01*
X92695802Y25448258D02*
X92648183Y25543496D01*
X92648183Y25543496D02*
X92648183Y25781591D01*
X92648183Y25781591D02*
X92743422Y25924448D01*
X92743422Y25924448D02*
X92886279Y26019686D01*
X92886279Y26019686D02*
X93076755Y26067305D01*
X93076755Y26067305D02*
X93267231Y26019686D01*
X93267231Y26019686D02*
X93410088Y25924448D01*
X93410088Y25924448D02*
X93505326Y25781591D01*
X93505326Y25781591D02*
X93552945Y25591115D01*
X93552945Y25591115D02*
X93505326Y25400639D01*
X93505326Y25400639D02*
X93410088Y25257781D01*
X93410088Y25257781D02*
X93267231Y25162543D01*
X93267231Y25162543D02*
X93076755Y25114924D01*
X93076755Y25114924D02*
X92886279Y25162543D01*
X92886279Y25162543D02*
X92743422Y25257781D01*
X92219612Y25257781D02*
X92219612Y26257781D01*
X91791041Y25257781D02*
X91791041Y25781591D01*
X91791041Y25781591D02*
X91838660Y25876829D01*
X91838660Y25876829D02*
X91933898Y25924448D01*
X91933898Y25924448D02*
X92076755Y25924448D01*
X92076755Y25924448D02*
X92171993Y25876829D01*
X92171993Y25876829D02*
X92219612Y25829210D01*
X90886279Y25257781D02*
X90886279Y25781591D01*
X90886279Y25781591D02*
X90933898Y25876829D01*
X90933898Y25876829D02*
X91029136Y25924448D01*
X91029136Y25924448D02*
X91219612Y25924448D01*
X91219612Y25924448D02*
X91314850Y25876829D01*
X90886279Y25305400D02*
X90981517Y25257781D01*
X90981517Y25257781D02*
X91219612Y25257781D01*
X91219612Y25257781D02*
X91314850Y25305400D01*
X91314850Y25305400D02*
X91362469Y25400639D01*
X91362469Y25400639D02*
X91362469Y25495877D01*
X91362469Y25495877D02*
X91314850Y25591115D01*
X91314850Y25591115D02*
X91219612Y25638734D01*
X91219612Y25638734D02*
X90981517Y25638734D01*
X90981517Y25638734D02*
X90886279Y25686353D01*
X90410088Y25257781D02*
X90410088Y25924448D01*
X90410088Y25829210D02*
X90362469Y25876829D01*
X90362469Y25876829D02*
X90267231Y25924448D01*
X90267231Y25924448D02*
X90124374Y25924448D01*
X90124374Y25924448D02*
X90029136Y25876829D01*
X90029136Y25876829D02*
X89981517Y25781591D01*
X89981517Y25781591D02*
X89981517Y25257781D01*
X89981517Y25781591D02*
X89933898Y25876829D01*
X89933898Y25876829D02*
X89838660Y25924448D01*
X89838660Y25924448D02*
X89695803Y25924448D01*
X89695803Y25924448D02*
X89600564Y25876829D01*
X89600564Y25876829D02*
X89552945Y25781591D01*
X89552945Y25781591D02*
X89552945Y25257781D01*
X89124374Y25305400D02*
X89029136Y25257781D01*
X89029136Y25257781D02*
X88838660Y25257781D01*
X88838660Y25257781D02*
X88743422Y25305400D01*
X88743422Y25305400D02*
X88695803Y25400639D01*
X88695803Y25400639D02*
X88695803Y25448258D01*
X88695803Y25448258D02*
X88743422Y25543496D01*
X88743422Y25543496D02*
X88838660Y25591115D01*
X88838660Y25591115D02*
X88981517Y25591115D01*
X88981517Y25591115D02*
X89076755Y25638734D01*
X89076755Y25638734D02*
X89124374Y25733972D01*
X89124374Y25733972D02*
X89124374Y25781591D01*
X89124374Y25781591D02*
X89076755Y25876829D01*
X89076755Y25876829D02*
X88981517Y25924448D01*
X88981517Y25924448D02*
X88838660Y25924448D01*
X88838660Y25924448D02*
X88743422Y25876829D01*
X88410088Y25924448D02*
X88029136Y25924448D01*
X88267231Y26257781D02*
X88267231Y25400639D01*
X88267231Y25400639D02*
X88219612Y25305400D01*
X88219612Y25305400D02*
X88124374Y25257781D01*
X88124374Y25257781D02*
X88029136Y25257781D01*
X87314850Y25305400D02*
X87410088Y25257781D01*
X87410088Y25257781D02*
X87600564Y25257781D01*
X87600564Y25257781D02*
X87695802Y25305400D01*
X87695802Y25305400D02*
X87743421Y25400639D01*
X87743421Y25400639D02*
X87743421Y25781591D01*
X87743421Y25781591D02*
X87695802Y25876829D01*
X87695802Y25876829D02*
X87600564Y25924448D01*
X87600564Y25924448D02*
X87410088Y25924448D01*
X87410088Y25924448D02*
X87314850Y25876829D01*
X87314850Y25876829D02*
X87267231Y25781591D01*
X87267231Y25781591D02*
X87267231Y25686353D01*
X87267231Y25686353D02*
X87743421Y25591115D01*
X86838659Y25257781D02*
X86838659Y25924448D01*
X86838659Y25733972D02*
X86791040Y25829210D01*
X86791040Y25829210D02*
X86743421Y25876829D01*
X86743421Y25876829D02*
X86648183Y25924448D01*
X86648183Y25924448D02*
X86552945Y25924448D01*
X12886279Y65733972D02*
X12933898Y65781591D01*
X12933898Y65781591D02*
X13029136Y65829210D01*
X13029136Y65829210D02*
X13124374Y65829210D01*
X13124374Y65829210D02*
X13219612Y65781591D01*
X13219612Y65781591D02*
X13267231Y65733972D01*
X13267231Y65733972D02*
X13314850Y65638734D01*
X13314850Y65638734D02*
X13314850Y65543496D01*
X13314850Y65543496D02*
X13267231Y65448258D01*
X13267231Y65448258D02*
X13219612Y65400639D01*
X13219612Y65400639D02*
X13124374Y65353020D01*
X13124374Y65353020D02*
X13029136Y65353020D01*
X13029136Y65353020D02*
X12933898Y65400639D01*
X12933898Y65400639D02*
X12886279Y65448258D01*
X12886279Y65829210D02*
X12886279Y65448258D01*
X12886279Y65448258D02*
X12838660Y65400639D01*
X12838660Y65400639D02*
X12791041Y65400639D01*
X12791041Y65400639D02*
X12695802Y65448258D01*
X12695802Y65448258D02*
X12648183Y65543496D01*
X12648183Y65543496D02*
X12648183Y65781591D01*
X12648183Y65781591D02*
X12743422Y65924448D01*
X12743422Y65924448D02*
X12886279Y66019686D01*
X12886279Y66019686D02*
X13076755Y66067305D01*
X13076755Y66067305D02*
X13267231Y66019686D01*
X13267231Y66019686D02*
X13410088Y65924448D01*
X13410088Y65924448D02*
X13505326Y65781591D01*
X13505326Y65781591D02*
X13552945Y65591115D01*
X13552945Y65591115D02*
X13505326Y65400639D01*
X13505326Y65400639D02*
X13410088Y65257781D01*
X13410088Y65257781D02*
X13267231Y65162543D01*
X13267231Y65162543D02*
X13076755Y65114924D01*
X13076755Y65114924D02*
X12886279Y65162543D01*
X12886279Y65162543D02*
X12743422Y65257781D01*
X12219612Y65257781D02*
X12219612Y66257781D01*
X11791041Y65257781D02*
X11791041Y65781591D01*
X11791041Y65781591D02*
X11838660Y65876829D01*
X11838660Y65876829D02*
X11933898Y65924448D01*
X11933898Y65924448D02*
X12076755Y65924448D01*
X12076755Y65924448D02*
X12171993Y65876829D01*
X12171993Y65876829D02*
X12219612Y65829210D01*
X10886279Y65257781D02*
X10886279Y65781591D01*
X10886279Y65781591D02*
X10933898Y65876829D01*
X10933898Y65876829D02*
X11029136Y65924448D01*
X11029136Y65924448D02*
X11219612Y65924448D01*
X11219612Y65924448D02*
X11314850Y65876829D01*
X10886279Y65305400D02*
X10981517Y65257781D01*
X10981517Y65257781D02*
X11219612Y65257781D01*
X11219612Y65257781D02*
X11314850Y65305400D01*
X11314850Y65305400D02*
X11362469Y65400639D01*
X11362469Y65400639D02*
X11362469Y65495877D01*
X11362469Y65495877D02*
X11314850Y65591115D01*
X11314850Y65591115D02*
X11219612Y65638734D01*
X11219612Y65638734D02*
X10981517Y65638734D01*
X10981517Y65638734D02*
X10886279Y65686353D01*
X10410088Y65257781D02*
X10410088Y65924448D01*
X10410088Y65829210D02*
X10362469Y65876829D01*
X10362469Y65876829D02*
X10267231Y65924448D01*
X10267231Y65924448D02*
X10124374Y65924448D01*
X10124374Y65924448D02*
X10029136Y65876829D01*
X10029136Y65876829D02*
X9981517Y65781591D01*
X9981517Y65781591D02*
X9981517Y65257781D01*
X9981517Y65781591D02*
X9933898Y65876829D01*
X9933898Y65876829D02*
X9838660Y65924448D01*
X9838660Y65924448D02*
X9695803Y65924448D01*
X9695803Y65924448D02*
X9600564Y65876829D01*
X9600564Y65876829D02*
X9552945Y65781591D01*
X9552945Y65781591D02*
X9552945Y65257781D01*
X9124374Y65305400D02*
X9029136Y65257781D01*
X9029136Y65257781D02*
X8838660Y65257781D01*
X8838660Y65257781D02*
X8743422Y65305400D01*
X8743422Y65305400D02*
X8695803Y65400639D01*
X8695803Y65400639D02*
X8695803Y65448258D01*
X8695803Y65448258D02*
X8743422Y65543496D01*
X8743422Y65543496D02*
X8838660Y65591115D01*
X8838660Y65591115D02*
X8981517Y65591115D01*
X8981517Y65591115D02*
X9076755Y65638734D01*
X9076755Y65638734D02*
X9124374Y65733972D01*
X9124374Y65733972D02*
X9124374Y65781591D01*
X9124374Y65781591D02*
X9076755Y65876829D01*
X9076755Y65876829D02*
X8981517Y65924448D01*
X8981517Y65924448D02*
X8838660Y65924448D01*
X8838660Y65924448D02*
X8743422Y65876829D01*
X8410088Y65924448D02*
X8029136Y65924448D01*
X8267231Y66257781D02*
X8267231Y65400639D01*
X8267231Y65400639D02*
X8219612Y65305400D01*
X8219612Y65305400D02*
X8124374Y65257781D01*
X8124374Y65257781D02*
X8029136Y65257781D01*
X7314850Y65305400D02*
X7410088Y65257781D01*
X7410088Y65257781D02*
X7600564Y65257781D01*
X7600564Y65257781D02*
X7695802Y65305400D01*
X7695802Y65305400D02*
X7743421Y65400639D01*
X7743421Y65400639D02*
X7743421Y65781591D01*
X7743421Y65781591D02*
X7695802Y65876829D01*
X7695802Y65876829D02*
X7600564Y65924448D01*
X7600564Y65924448D02*
X7410088Y65924448D01*
X7410088Y65924448D02*
X7314850Y65876829D01*
X7314850Y65876829D02*
X7267231Y65781591D01*
X7267231Y65781591D02*
X7267231Y65686353D01*
X7267231Y65686353D02*
X7743421Y65591115D01*
X6838659Y65257781D02*
X6838659Y65924448D01*
X6838659Y65733972D02*
X6791040Y65829210D01*
X6791040Y65829210D02*
X6743421Y65876829D01*
X6743421Y65876829D02*
X6648183Y65924448D01*
X6648183Y65924448D02*
X6552945Y65924448D01*
X52886279Y65733972D02*
X52933898Y65781591D01*
X52933898Y65781591D02*
X53029136Y65829210D01*
X53029136Y65829210D02*
X53124374Y65829210D01*
X53124374Y65829210D02*
X53219612Y65781591D01*
X53219612Y65781591D02*
X53267231Y65733972D01*
X53267231Y65733972D02*
X53314850Y65638734D01*
X53314850Y65638734D02*
X53314850Y65543496D01*
X53314850Y65543496D02*
X53267231Y65448258D01*
X53267231Y65448258D02*
X53219612Y65400639D01*
X53219612Y65400639D02*
X53124374Y65353020D01*
X53124374Y65353020D02*
X53029136Y65353020D01*
X53029136Y65353020D02*
X52933898Y65400639D01*
X52933898Y65400639D02*
X52886279Y65448258D01*
X52886279Y65829210D02*
X52886279Y65448258D01*
X52886279Y65448258D02*
X52838660Y65400639D01*
X52838660Y65400639D02*
X52791041Y65400639D01*
X52791041Y65400639D02*
X52695802Y65448258D01*
X52695802Y65448258D02*
X52648183Y65543496D01*
X52648183Y65543496D02*
X52648183Y65781591D01*
X52648183Y65781591D02*
X52743422Y65924448D01*
X52743422Y65924448D02*
X52886279Y66019686D01*
X52886279Y66019686D02*
X53076755Y66067305D01*
X53076755Y66067305D02*
X53267231Y66019686D01*
X53267231Y66019686D02*
X53410088Y65924448D01*
X53410088Y65924448D02*
X53505326Y65781591D01*
X53505326Y65781591D02*
X53552945Y65591115D01*
X53552945Y65591115D02*
X53505326Y65400639D01*
X53505326Y65400639D02*
X53410088Y65257781D01*
X53410088Y65257781D02*
X53267231Y65162543D01*
X53267231Y65162543D02*
X53076755Y65114924D01*
X53076755Y65114924D02*
X52886279Y65162543D01*
X52886279Y65162543D02*
X52743422Y65257781D01*
X52219612Y65257781D02*
X52219612Y66257781D01*
X51791041Y65257781D02*
X51791041Y65781591D01*
X51791041Y65781591D02*
X51838660Y65876829D01*
X51838660Y65876829D02*
X51933898Y65924448D01*
X51933898Y65924448D02*
X52076755Y65924448D01*
X52076755Y65924448D02*
X52171993Y65876829D01*
X52171993Y65876829D02*
X52219612Y65829210D01*
X50886279Y65257781D02*
X50886279Y65781591D01*
X50886279Y65781591D02*
X50933898Y65876829D01*
X50933898Y65876829D02*
X51029136Y65924448D01*
X51029136Y65924448D02*
X51219612Y65924448D01*
X51219612Y65924448D02*
X51314850Y65876829D01*
X50886279Y65305400D02*
X50981517Y65257781D01*
X50981517Y65257781D02*
X51219612Y65257781D01*
X51219612Y65257781D02*
X51314850Y65305400D01*
X51314850Y65305400D02*
X51362469Y65400639D01*
X51362469Y65400639D02*
X51362469Y65495877D01*
X51362469Y65495877D02*
X51314850Y65591115D01*
X51314850Y65591115D02*
X51219612Y65638734D01*
X51219612Y65638734D02*
X50981517Y65638734D01*
X50981517Y65638734D02*
X50886279Y65686353D01*
X50410088Y65257781D02*
X50410088Y65924448D01*
X50410088Y65829210D02*
X50362469Y65876829D01*
X50362469Y65876829D02*
X50267231Y65924448D01*
X50267231Y65924448D02*
X50124374Y65924448D01*
X50124374Y65924448D02*
X50029136Y65876829D01*
X50029136Y65876829D02*
X49981517Y65781591D01*
X49981517Y65781591D02*
X49981517Y65257781D01*
X49981517Y65781591D02*
X49933898Y65876829D01*
X49933898Y65876829D02*
X49838660Y65924448D01*
X49838660Y65924448D02*
X49695803Y65924448D01*
X49695803Y65924448D02*
X49600564Y65876829D01*
X49600564Y65876829D02*
X49552945Y65781591D01*
X49552945Y65781591D02*
X49552945Y65257781D01*
X49124374Y65305400D02*
X49029136Y65257781D01*
X49029136Y65257781D02*
X48838660Y65257781D01*
X48838660Y65257781D02*
X48743422Y65305400D01*
X48743422Y65305400D02*
X48695803Y65400639D01*
X48695803Y65400639D02*
X48695803Y65448258D01*
X48695803Y65448258D02*
X48743422Y65543496D01*
X48743422Y65543496D02*
X48838660Y65591115D01*
X48838660Y65591115D02*
X48981517Y65591115D01*
X48981517Y65591115D02*
X49076755Y65638734D01*
X49076755Y65638734D02*
X49124374Y65733972D01*
X49124374Y65733972D02*
X49124374Y65781591D01*
X49124374Y65781591D02*
X49076755Y65876829D01*
X49076755Y65876829D02*
X48981517Y65924448D01*
X48981517Y65924448D02*
X48838660Y65924448D01*
X48838660Y65924448D02*
X48743422Y65876829D01*
X48410088Y65924448D02*
X48029136Y65924448D01*
X48267231Y66257781D02*
X48267231Y65400639D01*
X48267231Y65400639D02*
X48219612Y65305400D01*
X48219612Y65305400D02*
X48124374Y65257781D01*
X48124374Y65257781D02*
X48029136Y65257781D01*
X47314850Y65305400D02*
X47410088Y65257781D01*
X47410088Y65257781D02*
X47600564Y65257781D01*
X47600564Y65257781D02*
X47695802Y65305400D01*
X47695802Y65305400D02*
X47743421Y65400639D01*
X47743421Y65400639D02*
X47743421Y65781591D01*
X47743421Y65781591D02*
X47695802Y65876829D01*
X47695802Y65876829D02*
X47600564Y65924448D01*
X47600564Y65924448D02*
X47410088Y65924448D01*
X47410088Y65924448D02*
X47314850Y65876829D01*
X47314850Y65876829D02*
X47267231Y65781591D01*
X47267231Y65781591D02*
X47267231Y65686353D01*
X47267231Y65686353D02*
X47743421Y65591115D01*
X46838659Y65257781D02*
X46838659Y65924448D01*
X46838659Y65733972D02*
X46791040Y65829210D01*
X46791040Y65829210D02*
X46743421Y65876829D01*
X46743421Y65876829D02*
X46648183Y65924448D01*
X46648183Y65924448D02*
X46552945Y65924448D01*
X32886279Y45733972D02*
X32933898Y45781591D01*
X32933898Y45781591D02*
X33029136Y45829210D01*
X33029136Y45829210D02*
X33124374Y45829210D01*
X33124374Y45829210D02*
X33219612Y45781591D01*
X33219612Y45781591D02*
X33267231Y45733972D01*
X33267231Y45733972D02*
X33314850Y45638734D01*
X33314850Y45638734D02*
X33314850Y45543496D01*
X33314850Y45543496D02*
X33267231Y45448258D01*
X33267231Y45448258D02*
X33219612Y45400639D01*
X33219612Y45400639D02*
X33124374Y45353020D01*
X33124374Y45353020D02*
X33029136Y45353020D01*
X33029136Y45353020D02*
X32933898Y45400639D01*
X32933898Y45400639D02*
X32886279Y45448258D01*
X32886279Y45829210D02*
X32886279Y45448258D01*
X32886279Y45448258D02*
X32838660Y45400639D01*
X32838660Y45400639D02*
X32791041Y45400639D01*
X32791041Y45400639D02*
X32695802Y45448258D01*
X32695802Y45448258D02*
X32648183Y45543496D01*
X32648183Y45543496D02*
X32648183Y45781591D01*
X32648183Y45781591D02*
X32743422Y45924448D01*
X32743422Y45924448D02*
X32886279Y46019686D01*
X32886279Y46019686D02*
X33076755Y46067305D01*
X33076755Y46067305D02*
X33267231Y46019686D01*
X33267231Y46019686D02*
X33410088Y45924448D01*
X33410088Y45924448D02*
X33505326Y45781591D01*
X33505326Y45781591D02*
X33552945Y45591115D01*
X33552945Y45591115D02*
X33505326Y45400639D01*
X33505326Y45400639D02*
X33410088Y45257781D01*
X33410088Y45257781D02*
X33267231Y45162543D01*
X33267231Y45162543D02*
X33076755Y45114924D01*
X33076755Y45114924D02*
X32886279Y45162543D01*
X32886279Y45162543D02*
X32743422Y45257781D01*
X32219612Y45257781D02*
X32219612Y46257781D01*
X31791041Y45257781D02*
X31791041Y45781591D01*
X31791041Y45781591D02*
X31838660Y45876829D01*
X31838660Y45876829D02*
X31933898Y45924448D01*
X31933898Y45924448D02*
X32076755Y45924448D01*
X32076755Y45924448D02*
X32171993Y45876829D01*
X32171993Y45876829D02*
X32219612Y45829210D01*
X30886279Y45257781D02*
X30886279Y45781591D01*
X30886279Y45781591D02*
X30933898Y45876829D01*
X30933898Y45876829D02*
X31029136Y45924448D01*
X31029136Y45924448D02*
X31219612Y45924448D01*
X31219612Y45924448D02*
X31314850Y45876829D01*
X30886279Y45305400D02*
X30981517Y45257781D01*
X30981517Y45257781D02*
X31219612Y45257781D01*
X31219612Y45257781D02*
X31314850Y45305400D01*
X31314850Y45305400D02*
X31362469Y45400639D01*
X31362469Y45400639D02*
X31362469Y45495877D01*
X31362469Y45495877D02*
X31314850Y45591115D01*
X31314850Y45591115D02*
X31219612Y45638734D01*
X31219612Y45638734D02*
X30981517Y45638734D01*
X30981517Y45638734D02*
X30886279Y45686353D01*
X30410088Y45257781D02*
X30410088Y45924448D01*
X30410088Y45829210D02*
X30362469Y45876829D01*
X30362469Y45876829D02*
X30267231Y45924448D01*
X30267231Y45924448D02*
X30124374Y45924448D01*
X30124374Y45924448D02*
X30029136Y45876829D01*
X30029136Y45876829D02*
X29981517Y45781591D01*
X29981517Y45781591D02*
X29981517Y45257781D01*
X29981517Y45781591D02*
X29933898Y45876829D01*
X29933898Y45876829D02*
X29838660Y45924448D01*
X29838660Y45924448D02*
X29695803Y45924448D01*
X29695803Y45924448D02*
X29600564Y45876829D01*
X29600564Y45876829D02*
X29552945Y45781591D01*
X29552945Y45781591D02*
X29552945Y45257781D01*
X29124374Y45305400D02*
X29029136Y45257781D01*
X29029136Y45257781D02*
X28838660Y45257781D01*
X28838660Y45257781D02*
X28743422Y45305400D01*
X28743422Y45305400D02*
X28695803Y45400639D01*
X28695803Y45400639D02*
X28695803Y45448258D01*
X28695803Y45448258D02*
X28743422Y45543496D01*
X28743422Y45543496D02*
X28838660Y45591115D01*
X28838660Y45591115D02*
X28981517Y45591115D01*
X28981517Y45591115D02*
X29076755Y45638734D01*
X29076755Y45638734D02*
X29124374Y45733972D01*
X29124374Y45733972D02*
X29124374Y45781591D01*
X29124374Y45781591D02*
X29076755Y45876829D01*
X29076755Y45876829D02*
X28981517Y45924448D01*
X28981517Y45924448D02*
X28838660Y45924448D01*
X28838660Y45924448D02*
X28743422Y45876829D01*
X28410088Y45924448D02*
X28029136Y45924448D01*
X28267231Y46257781D02*
X28267231Y45400639D01*
X28267231Y45400639D02*
X28219612Y45305400D01*
X28219612Y45305400D02*
X28124374Y45257781D01*
X28124374Y45257781D02*
X28029136Y45257781D01*
X27314850Y45305400D02*
X27410088Y45257781D01*
X27410088Y45257781D02*
X27600564Y45257781D01*
X27600564Y45257781D02*
X27695802Y45305400D01*
X27695802Y45305400D02*
X27743421Y45400639D01*
X27743421Y45400639D02*
X27743421Y45781591D01*
X27743421Y45781591D02*
X27695802Y45876829D01*
X27695802Y45876829D02*
X27600564Y45924448D01*
X27600564Y45924448D02*
X27410088Y45924448D01*
X27410088Y45924448D02*
X27314850Y45876829D01*
X27314850Y45876829D02*
X27267231Y45781591D01*
X27267231Y45781591D02*
X27267231Y45686353D01*
X27267231Y45686353D02*
X27743421Y45591115D01*
X26838659Y45257781D02*
X26838659Y45924448D01*
X26838659Y45733972D02*
X26791040Y45829210D01*
X26791040Y45829210D02*
X26743421Y45876829D01*
X26743421Y45876829D02*
X26648183Y45924448D01*
X26648183Y45924448D02*
X26552945Y45924448D01*
%TO.C,JP2*%
G36*
X65195000Y17435000D02*
G01*
X64895000Y17435000D01*
X64895000Y15935000D01*
X65195000Y15935000D01*
X65195000Y17435000D01*
G37*
%TO.C,JP3*%
G36*
X25195000Y73885000D02*
G01*
X24895000Y73885000D01*
X24895000Y72385000D01*
X25195000Y72385000D01*
X25195000Y73885000D01*
G37*
%TO.C,JP2*%
G36*
X25195000Y57435000D02*
G01*
X24895000Y57435000D01*
X24895000Y55935000D01*
X25195000Y55935000D01*
X25195000Y57435000D01*
G37*
%TO.C,JP1*%
G36*
X85195000Y60985000D02*
G01*
X84895000Y60985000D01*
X84895000Y59485000D01*
X85195000Y59485000D01*
X85195000Y60985000D01*
G37*
%TO.C,JP2*%
G36*
X85195000Y57435000D02*
G01*
X84895000Y57435000D01*
X84895000Y55935000D01*
X85195000Y55935000D01*
X85195000Y57435000D01*
G37*
G36*
X25195000Y37435000D02*
G01*
X24895000Y37435000D01*
X24895000Y35935000D01*
X25195000Y35935000D01*
X25195000Y37435000D01*
G37*
%TO.C,JP3*%
G36*
X45195000Y73885000D02*
G01*
X44895000Y73885000D01*
X44895000Y72385000D01*
X45195000Y72385000D01*
X45195000Y73885000D01*
G37*
%TO.C,JP1*%
G36*
X5195000Y40985000D02*
G01*
X4895000Y40985000D01*
X4895000Y39485000D01*
X5195000Y39485000D01*
X5195000Y40985000D01*
G37*
%TO.C,JP3*%
G36*
X5195000Y33885000D02*
G01*
X4895000Y33885000D01*
X4895000Y32385000D01*
X5195000Y32385000D01*
X5195000Y33885000D01*
G37*
G36*
X85195000Y53885000D02*
G01*
X84895000Y53885000D01*
X84895000Y52385000D01*
X85195000Y52385000D01*
X85195000Y53885000D01*
G37*
%TO.C,JP2*%
G36*
X85195000Y17435000D02*
G01*
X84895000Y17435000D01*
X84895000Y15935000D01*
X85195000Y15935000D01*
X85195000Y17435000D01*
G37*
G36*
X25195000Y97435000D02*
G01*
X24895000Y97435000D01*
X24895000Y95935000D01*
X25195000Y95935000D01*
X25195000Y97435000D01*
G37*
%TO.C,JP3*%
G36*
X45195000Y33885000D02*
G01*
X44895000Y33885000D01*
X44895000Y32385000D01*
X45195000Y32385000D01*
X45195000Y33885000D01*
G37*
G36*
X25195000Y33885000D02*
G01*
X24895000Y33885000D01*
X24895000Y32385000D01*
X25195000Y32385000D01*
X25195000Y33885000D01*
G37*
%TO.C,JP1*%
G36*
X85195000Y100985000D02*
G01*
X84895000Y100985000D01*
X84895000Y99485000D01*
X85195000Y99485000D01*
X85195000Y100985000D01*
G37*
%TO.C,JP3*%
G36*
X5195000Y93885000D02*
G01*
X4895000Y93885000D01*
X4895000Y92385000D01*
X5195000Y92385000D01*
X5195000Y93885000D01*
G37*
%TO.C,JP2*%
G36*
X85195000Y97435000D02*
G01*
X84895000Y97435000D01*
X84895000Y95935000D01*
X85195000Y95935000D01*
X85195000Y97435000D01*
G37*
%TO.C,JP1*%
G36*
X25195000Y60985000D02*
G01*
X24895000Y60985000D01*
X24895000Y59485000D01*
X25195000Y59485000D01*
X25195000Y60985000D01*
G37*
%TO.C,JP3*%
G36*
X65195000Y93885000D02*
G01*
X64895000Y93885000D01*
X64895000Y92385000D01*
X65195000Y92385000D01*
X65195000Y93885000D01*
G37*
%TO.C,JP1*%
G36*
X65195000Y20985000D02*
G01*
X64895000Y20985000D01*
X64895000Y19485000D01*
X65195000Y19485000D01*
X65195000Y20985000D01*
G37*
%TO.C,JP3*%
G36*
X5195000Y53885000D02*
G01*
X4895000Y53885000D01*
X4895000Y52385000D01*
X5195000Y52385000D01*
X5195000Y53885000D01*
G37*
%TO.C,JP1*%
G36*
X65195000Y100985000D02*
G01*
X64895000Y100985000D01*
X64895000Y99485000D01*
X65195000Y99485000D01*
X65195000Y100985000D01*
G37*
%TO.C,JP2*%
G36*
X25195000Y77435000D02*
G01*
X24895000Y77435000D01*
X24895000Y75935000D01*
X25195000Y75935000D01*
X25195000Y77435000D01*
G37*
%TO.C,JP3*%
G36*
X65195000Y33885000D02*
G01*
X64895000Y33885000D01*
X64895000Y32385000D01*
X65195000Y32385000D01*
X65195000Y33885000D01*
G37*
%TO.C,JP1*%
G36*
X25195000Y80985000D02*
G01*
X24895000Y80985000D01*
X24895000Y79485000D01*
X25195000Y79485000D01*
X25195000Y80985000D01*
G37*
G36*
X25195000Y20985000D02*
G01*
X24895000Y20985000D01*
X24895000Y19485000D01*
X25195000Y19485000D01*
X25195000Y20985000D01*
G37*
%TO.C,JP2*%
G36*
X85195000Y77435000D02*
G01*
X84895000Y77435000D01*
X84895000Y75935000D01*
X85195000Y75935000D01*
X85195000Y77435000D01*
G37*
%TO.C,JP3*%
G36*
X5195000Y73885000D02*
G01*
X4895000Y73885000D01*
X4895000Y72385000D01*
X5195000Y72385000D01*
X5195000Y73885000D01*
G37*
%TO.C,JP1*%
G36*
X45195000Y40985000D02*
G01*
X44895000Y40985000D01*
X44895000Y39485000D01*
X45195000Y39485000D01*
X45195000Y40985000D01*
G37*
G36*
X65195000Y80985000D02*
G01*
X64895000Y80985000D01*
X64895000Y79485000D01*
X65195000Y79485000D01*
X65195000Y80985000D01*
G37*
G36*
X25195000Y40985000D02*
G01*
X24895000Y40985000D01*
X24895000Y39485000D01*
X25195000Y39485000D01*
X25195000Y40985000D01*
G37*
%TO.C,JP3*%
G36*
X25195000Y93885000D02*
G01*
X24895000Y93885000D01*
X24895000Y92385000D01*
X25195000Y92385000D01*
X25195000Y93885000D01*
G37*
%TO.C,JP1*%
G36*
X5195000Y100985000D02*
G01*
X4895000Y100985000D01*
X4895000Y99485000D01*
X5195000Y99485000D01*
X5195000Y100985000D01*
G37*
%TO.C,JP2*%
G36*
X45195000Y97435000D02*
G01*
X44895000Y97435000D01*
X44895000Y95935000D01*
X45195000Y95935000D01*
X45195000Y97435000D01*
G37*
%TO.C,JP1*%
G36*
X5195000Y60985000D02*
G01*
X4895000Y60985000D01*
X4895000Y59485000D01*
X5195000Y59485000D01*
X5195000Y60985000D01*
G37*
%TO.C,JP3*%
G36*
X85195000Y93885000D02*
G01*
X84895000Y93885000D01*
X84895000Y92385000D01*
X85195000Y92385000D01*
X85195000Y93885000D01*
G37*
G36*
X85195000Y73885000D02*
G01*
X84895000Y73885000D01*
X84895000Y72385000D01*
X85195000Y72385000D01*
X85195000Y73885000D01*
G37*
%TO.C,JP2*%
G36*
X45195000Y17435000D02*
G01*
X44895000Y17435000D01*
X44895000Y15935000D01*
X45195000Y15935000D01*
X45195000Y17435000D01*
G37*
%TO.C,JP1*%
G36*
X45195000Y20985000D02*
G01*
X44895000Y20985000D01*
X44895000Y19485000D01*
X45195000Y19485000D01*
X45195000Y20985000D01*
G37*
%TO.C,JP3*%
G36*
X25195000Y13885000D02*
G01*
X24895000Y13885000D01*
X24895000Y12385000D01*
X25195000Y12385000D01*
X25195000Y13885000D01*
G37*
%TO.C,JP2*%
G36*
X45195000Y77435000D02*
G01*
X44895000Y77435000D01*
X44895000Y75935000D01*
X45195000Y75935000D01*
X45195000Y77435000D01*
G37*
%TO.C,JP1*%
G36*
X65195000Y40985000D02*
G01*
X64895000Y40985000D01*
X64895000Y39485000D01*
X65195000Y39485000D01*
X65195000Y40985000D01*
G37*
%TO.C,JP2*%
G36*
X5195000Y17435000D02*
G01*
X4895000Y17435000D01*
X4895000Y15935000D01*
X5195000Y15935000D01*
X5195000Y17435000D01*
G37*
%TO.C,JP3*%
G36*
X65195000Y73885000D02*
G01*
X64895000Y73885000D01*
X64895000Y72385000D01*
X65195000Y72385000D01*
X65195000Y73885000D01*
G37*
%TO.C,JP1*%
G36*
X85195000Y40985000D02*
G01*
X84895000Y40985000D01*
X84895000Y39485000D01*
X85195000Y39485000D01*
X85195000Y40985000D01*
G37*
%TO.C,JP2*%
G36*
X45195000Y37435000D02*
G01*
X44895000Y37435000D01*
X44895000Y35935000D01*
X45195000Y35935000D01*
X45195000Y37435000D01*
G37*
%TO.C,JP1*%
G36*
X65195000Y60985000D02*
G01*
X64895000Y60985000D01*
X64895000Y59485000D01*
X65195000Y59485000D01*
X65195000Y60985000D01*
G37*
%TO.C,JP3*%
G36*
X45195000Y13885000D02*
G01*
X44895000Y13885000D01*
X44895000Y12385000D01*
X45195000Y12385000D01*
X45195000Y13885000D01*
G37*
G36*
X65195000Y13885000D02*
G01*
X64895000Y13885000D01*
X64895000Y12385000D01*
X65195000Y12385000D01*
X65195000Y13885000D01*
G37*
%TO.C,JP1*%
G36*
X45195000Y80985000D02*
G01*
X44895000Y80985000D01*
X44895000Y79485000D01*
X45195000Y79485000D01*
X45195000Y80985000D01*
G37*
%TO.C,JP2*%
G36*
X85195000Y37435000D02*
G01*
X84895000Y37435000D01*
X84895000Y35935000D01*
X85195000Y35935000D01*
X85195000Y37435000D01*
G37*
%TO.C,JP1*%
G36*
X25195000Y100985000D02*
G01*
X24895000Y100985000D01*
X24895000Y99485000D01*
X25195000Y99485000D01*
X25195000Y100985000D01*
G37*
%TO.C,JP2*%
G36*
X65195000Y37435000D02*
G01*
X64895000Y37435000D01*
X64895000Y35935000D01*
X65195000Y35935000D01*
X65195000Y37435000D01*
G37*
%TO.C,JP1*%
G36*
X45195000Y100985000D02*
G01*
X44895000Y100985000D01*
X44895000Y99485000D01*
X45195000Y99485000D01*
X45195000Y100985000D01*
G37*
G36*
X5195000Y20985000D02*
G01*
X4895000Y20985000D01*
X4895000Y19485000D01*
X5195000Y19485000D01*
X5195000Y20985000D01*
G37*
G36*
X45195000Y60985000D02*
G01*
X44895000Y60985000D01*
X44895000Y59485000D01*
X45195000Y59485000D01*
X45195000Y60985000D01*
G37*
%TO.C,JP2*%
G36*
X45195000Y57435000D02*
G01*
X44895000Y57435000D01*
X44895000Y55935000D01*
X45195000Y55935000D01*
X45195000Y57435000D01*
G37*
%TO.C,JP3*%
G36*
X85195000Y13885000D02*
G01*
X84895000Y13885000D01*
X84895000Y12385000D01*
X85195000Y12385000D01*
X85195000Y13885000D01*
G37*
%TO.C,JP2*%
G36*
X5195000Y97435000D02*
G01*
X4895000Y97435000D01*
X4895000Y95935000D01*
X5195000Y95935000D01*
X5195000Y97435000D01*
G37*
%TO.C,JP1*%
G36*
X5195000Y80985000D02*
G01*
X4895000Y80985000D01*
X4895000Y79485000D01*
X5195000Y79485000D01*
X5195000Y80985000D01*
G37*
%TO.C,JP2*%
G36*
X65195000Y97435000D02*
G01*
X64895000Y97435000D01*
X64895000Y95935000D01*
X65195000Y95935000D01*
X65195000Y97435000D01*
G37*
G36*
X65195000Y57435000D02*
G01*
X64895000Y57435000D01*
X64895000Y55935000D01*
X65195000Y55935000D01*
X65195000Y57435000D01*
G37*
%TO.C,JP3*%
G36*
X65195000Y53885000D02*
G01*
X64895000Y53885000D01*
X64895000Y52385000D01*
X65195000Y52385000D01*
X65195000Y53885000D01*
G37*
G36*
X45195000Y93885000D02*
G01*
X44895000Y93885000D01*
X44895000Y92385000D01*
X45195000Y92385000D01*
X45195000Y93885000D01*
G37*
%TO.C,JP2*%
G36*
X5195000Y77435000D02*
G01*
X4895000Y77435000D01*
X4895000Y75935000D01*
X5195000Y75935000D01*
X5195000Y77435000D01*
G37*
%TO.C,JP3*%
G36*
X45195000Y53885000D02*
G01*
X44895000Y53885000D01*
X44895000Y52385000D01*
X45195000Y52385000D01*
X45195000Y53885000D01*
G37*
%TO.C,JP2*%
G36*
X5195000Y37435000D02*
G01*
X4895000Y37435000D01*
X4895000Y35935000D01*
X5195000Y35935000D01*
X5195000Y37435000D01*
G37*
G36*
X65195000Y77435000D02*
G01*
X64895000Y77435000D01*
X64895000Y75935000D01*
X65195000Y75935000D01*
X65195000Y77435000D01*
G37*
%TO.C,JP1*%
G36*
X85195000Y80985000D02*
G01*
X84895000Y80985000D01*
X84895000Y79485000D01*
X85195000Y79485000D01*
X85195000Y80985000D01*
G37*
%TO.C,JP2*%
G36*
X5195000Y57435000D02*
G01*
X4895000Y57435000D01*
X4895000Y55935000D01*
X5195000Y55935000D01*
X5195000Y57435000D01*
G37*
G36*
X25195000Y17435000D02*
G01*
X24895000Y17435000D01*
X24895000Y15935000D01*
X25195000Y15935000D01*
X25195000Y17435000D01*
G37*
%TO.C,JP3*%
G36*
X85195000Y33885000D02*
G01*
X84895000Y33885000D01*
X84895000Y32385000D01*
X85195000Y32385000D01*
X85195000Y33885000D01*
G37*
%TO.C,JP1*%
G36*
X85195000Y20985000D02*
G01*
X84895000Y20985000D01*
X84895000Y19485000D01*
X85195000Y19485000D01*
X85195000Y20985000D01*
G37*
%TO.C,JP3*%
G36*
X5195000Y13885000D02*
G01*
X4895000Y13885000D01*
X4895000Y12385000D01*
X5195000Y12385000D01*
X5195000Y13885000D01*
G37*
G36*
X25195000Y53885000D02*
G01*
X24895000Y53885000D01*
X24895000Y52385000D01*
X25195000Y52385000D01*
X25195000Y53885000D01*
G37*
%TD*%
D11*
%TO.C,MB1*%
X1110000Y85890000D03*
X3650000Y85890000D03*
X16350000Y85890000D03*
X18890000Y85890000D03*
X1110000Y68110000D03*
X11270000Y68110000D03*
X13810000Y68110000D03*
X16350000Y68110000D03*
X18890000Y68110000D03*
%TD*%
%TO.C,MB1*%
X81110000Y65890000D03*
X83650000Y65890000D03*
X96350000Y65890000D03*
X98890000Y65890000D03*
X81110000Y48110000D03*
X91270000Y48110000D03*
X93810000Y48110000D03*
X96350000Y48110000D03*
X98890000Y48110000D03*
%TD*%
%TO.C,MB1*%
X21110000Y85890000D03*
X23650000Y85890000D03*
X36350000Y85890000D03*
X38890000Y85890000D03*
X21110000Y68110000D03*
X31270000Y68110000D03*
X33810000Y68110000D03*
X36350000Y68110000D03*
X38890000Y68110000D03*
%TD*%
%TO.C,MB1*%
X41110000Y85890000D03*
X43650000Y85890000D03*
X56350000Y85890000D03*
X58890000Y85890000D03*
X41110000Y68110000D03*
X51270000Y68110000D03*
X53810000Y68110000D03*
X56350000Y68110000D03*
X58890000Y68110000D03*
%TD*%
%TO.C,MB1*%
X21110000Y65890000D03*
X23650000Y65890000D03*
X36350000Y65890000D03*
X38890000Y65890000D03*
X21110000Y48110000D03*
X31270000Y48110000D03*
X33810000Y48110000D03*
X36350000Y48110000D03*
X38890000Y48110000D03*
%TD*%
D12*
%TO.C,KiKit_TO_4*%
X95000000Y4000000D03*
%TD*%
D11*
%TO.C,MB1*%
X81110000Y85890000D03*
X83650000Y85890000D03*
X96350000Y85890000D03*
X98890000Y85890000D03*
X81110000Y68110000D03*
X91270000Y68110000D03*
X93810000Y68110000D03*
X96350000Y68110000D03*
X98890000Y68110000D03*
%TD*%
%TO.C,MB1*%
X61110000Y85890000D03*
X63650000Y85890000D03*
X76350000Y85890000D03*
X78890000Y85890000D03*
X61110000Y68110000D03*
X71270000Y68110000D03*
X73810000Y68110000D03*
X76350000Y68110000D03*
X78890000Y68110000D03*
%TD*%
%TO.C,MB1*%
X41110000Y65890000D03*
X43650000Y65890000D03*
X56350000Y65890000D03*
X58890000Y65890000D03*
X41110000Y48110000D03*
X51270000Y48110000D03*
X53810000Y48110000D03*
X56350000Y48110000D03*
X58890000Y48110000D03*
%TD*%
%TO.C,MB1*%
X21110000Y25890000D03*
X23650000Y25890000D03*
X36350000Y25890000D03*
X38890000Y25890000D03*
X21110000Y8110000D03*
X31270000Y8110000D03*
X33810000Y8110000D03*
X36350000Y8110000D03*
X38890000Y8110000D03*
%TD*%
%TO.C,MB1*%
X41110000Y25890000D03*
X43650000Y25890000D03*
X56350000Y25890000D03*
X58890000Y25890000D03*
X41110000Y8110000D03*
X51270000Y8110000D03*
X53810000Y8110000D03*
X56350000Y8110000D03*
X58890000Y8110000D03*
%TD*%
D12*
%TO.C,KiKit_TO_1*%
X5000000Y110000000D03*
%TD*%
D11*
%TO.C,MB1*%
X41110000Y105890000D03*
X43650000Y105890000D03*
X56350000Y105890000D03*
X58890000Y105890000D03*
X41110000Y88110000D03*
X51270000Y88110000D03*
X53810000Y88110000D03*
X56350000Y88110000D03*
X58890000Y88110000D03*
%TD*%
%TO.C,MB1*%
X81110000Y25890000D03*
X83650000Y25890000D03*
X96350000Y25890000D03*
X98890000Y25890000D03*
X81110000Y8110000D03*
X91270000Y8110000D03*
X93810000Y8110000D03*
X96350000Y8110000D03*
X98890000Y8110000D03*
%TD*%
%TO.C,MB1*%
X21110000Y105890000D03*
X23650000Y105890000D03*
X36350000Y105890000D03*
X38890000Y105890000D03*
X21110000Y88110000D03*
X31270000Y88110000D03*
X33810000Y88110000D03*
X36350000Y88110000D03*
X38890000Y88110000D03*
%TD*%
%TO.C,MB1*%
X61110000Y105890000D03*
X63650000Y105890000D03*
X76350000Y105890000D03*
X78890000Y105890000D03*
X61110000Y88110000D03*
X71270000Y88110000D03*
X73810000Y88110000D03*
X76350000Y88110000D03*
X78890000Y88110000D03*
%TD*%
%TO.C,MB1*%
X21110000Y45890000D03*
X23650000Y45890000D03*
X36350000Y45890000D03*
X38890000Y45890000D03*
X21110000Y28110000D03*
X31270000Y28110000D03*
X33810000Y28110000D03*
X36350000Y28110000D03*
X38890000Y28110000D03*
%TD*%
%TO.C,MB1*%
X41110000Y45890000D03*
X43650000Y45890000D03*
X56350000Y45890000D03*
X58890000Y45890000D03*
X41110000Y28110000D03*
X51270000Y28110000D03*
X53810000Y28110000D03*
X56350000Y28110000D03*
X58890000Y28110000D03*
%TD*%
D12*
%TO.C,KiKit_TO_3*%
X5000000Y4000000D03*
%TD*%
D11*
%TO.C,MB1*%
X61110000Y45890000D03*
X63650000Y45890000D03*
X76350000Y45890000D03*
X78890000Y45890000D03*
X61110000Y28110000D03*
X71270000Y28110000D03*
X73810000Y28110000D03*
X76350000Y28110000D03*
X78890000Y28110000D03*
%TD*%
%TO.C,MB1*%
X81110000Y105890000D03*
X83650000Y105890000D03*
X96350000Y105890000D03*
X98890000Y105890000D03*
X81110000Y88110000D03*
X91270000Y88110000D03*
X93810000Y88110000D03*
X96350000Y88110000D03*
X98890000Y88110000D03*
%TD*%
%TO.C,MB1*%
X1110000Y65890000D03*
X3650000Y65890000D03*
X16350000Y65890000D03*
X18890000Y65890000D03*
X1110000Y48110000D03*
X11270000Y48110000D03*
X13810000Y48110000D03*
X16350000Y48110000D03*
X18890000Y48110000D03*
%TD*%
%TO.C,MB1*%
X81110000Y45890000D03*
X83650000Y45890000D03*
X96350000Y45890000D03*
X98890000Y45890000D03*
X81110000Y28110000D03*
X91270000Y28110000D03*
X93810000Y28110000D03*
X96350000Y28110000D03*
X98890000Y28110000D03*
%TD*%
%TO.C,MB1*%
X1110000Y45890000D03*
X3650000Y45890000D03*
X16350000Y45890000D03*
X18890000Y45890000D03*
X1110000Y28110000D03*
X11270000Y28110000D03*
X13810000Y28110000D03*
X16350000Y28110000D03*
X18890000Y28110000D03*
%TD*%
%TO.C,MB1*%
X1110000Y25890000D03*
X3650000Y25890000D03*
X16350000Y25890000D03*
X18890000Y25890000D03*
X1110000Y8110000D03*
X11270000Y8110000D03*
X13810000Y8110000D03*
X16350000Y8110000D03*
X18890000Y8110000D03*
%TD*%
%TO.C,MB1*%
X61110000Y25890000D03*
X63650000Y25890000D03*
X76350000Y25890000D03*
X78890000Y25890000D03*
X61110000Y8110000D03*
X71270000Y8110000D03*
X73810000Y8110000D03*
X76350000Y8110000D03*
X78890000Y8110000D03*
%TD*%
%TO.C,MB1*%
X1110000Y105890000D03*
X3650000Y105890000D03*
X16350000Y105890000D03*
X18890000Y105890000D03*
X1110000Y88110000D03*
X11270000Y88110000D03*
X13810000Y88110000D03*
X16350000Y88110000D03*
X18890000Y88110000D03*
%TD*%
%TO.C,MB1*%
X61110000Y65890000D03*
X63650000Y65890000D03*
X76350000Y65890000D03*
X78890000Y65890000D03*
X61110000Y48110000D03*
X71270000Y48110000D03*
X73810000Y48110000D03*
X76350000Y48110000D03*
X78890000Y48110000D03*
%TD*%
D12*
%TO.C,KiKit_TO_2*%
X95000000Y110000000D03*
%TD*%
D13*
%TO.C,JP2*%
X65695000Y16685000D03*
D14*
X64395000Y16685000D03*
%TD*%
D13*
%TO.C,JP3*%
X25695000Y73135000D03*
D14*
X24395000Y73135000D03*
%TD*%
D13*
%TO.C,JP2*%
X25695000Y56685000D03*
D14*
X24395000Y56685000D03*
%TD*%
D12*
%TO.C,KiKit_FID_B_4*%
X90000000Y4000000D03*
%TD*%
D13*
%TO.C,JP1*%
X85695000Y60235000D03*
D14*
X84395000Y60235000D03*
%TD*%
D12*
%TO.C,KiKit_FID_B_2*%
X90000000Y110000000D03*
%TD*%
D13*
%TO.C,JP2*%
X85695000Y56685000D03*
D14*
X84395000Y56685000D03*
%TD*%
D13*
%TO.C,JP2*%
X25695000Y36685000D03*
D14*
X24395000Y36685000D03*
%TD*%
D13*
%TO.C,JP3*%
X45695000Y73135000D03*
D14*
X44395000Y73135000D03*
%TD*%
D13*
%TO.C,JP1*%
X5695000Y40235000D03*
D14*
X4395000Y40235000D03*
%TD*%
D13*
%TO.C,JP3*%
X5695000Y33135000D03*
D14*
X4395000Y33135000D03*
%TD*%
D13*
%TO.C,JP3*%
X85695000Y53135000D03*
D14*
X84395000Y53135000D03*
%TD*%
D13*
%TO.C,JP2*%
X85695000Y16685000D03*
D14*
X84395000Y16685000D03*
%TD*%
D13*
%TO.C,JP2*%
X25695000Y96685000D03*
D14*
X24395000Y96685000D03*
%TD*%
D13*
%TO.C,JP3*%
X45695000Y33135000D03*
D14*
X44395000Y33135000D03*
%TD*%
D13*
%TO.C,JP3*%
X25695000Y33135000D03*
D14*
X24395000Y33135000D03*
%TD*%
D13*
%TO.C,JP1*%
X85695000Y100235000D03*
D14*
X84395000Y100235000D03*
%TD*%
D13*
%TO.C,JP3*%
X5695000Y93135000D03*
D14*
X4395000Y93135000D03*
%TD*%
D13*
%TO.C,JP2*%
X85695000Y96685000D03*
D14*
X84395000Y96685000D03*
%TD*%
D13*
%TO.C,JP1*%
X25695000Y60235000D03*
D14*
X24395000Y60235000D03*
%TD*%
D13*
%TO.C,JP3*%
X65695000Y93135000D03*
D14*
X64395000Y93135000D03*
%TD*%
D13*
%TO.C,JP1*%
X65695000Y20235000D03*
D14*
X64395000Y20235000D03*
%TD*%
D13*
%TO.C,JP3*%
X5695000Y53135000D03*
D14*
X4395000Y53135000D03*
%TD*%
D13*
%TO.C,JP1*%
X65695000Y100235000D03*
D14*
X64395000Y100235000D03*
%TD*%
D13*
%TO.C,JP2*%
X25695000Y76685000D03*
D14*
X24395000Y76685000D03*
%TD*%
D13*
%TO.C,JP3*%
X65695000Y33135000D03*
D14*
X64395000Y33135000D03*
%TD*%
D13*
%TO.C,JP1*%
X25695000Y80235000D03*
D14*
X24395000Y80235000D03*
%TD*%
D13*
%TO.C,JP1*%
X25695000Y20235000D03*
D14*
X24395000Y20235000D03*
%TD*%
D13*
%TO.C,JP2*%
X85695000Y76685000D03*
D14*
X84395000Y76685000D03*
%TD*%
D13*
%TO.C,JP3*%
X5695000Y73135000D03*
D14*
X4395000Y73135000D03*
%TD*%
D13*
%TO.C,JP1*%
X45695000Y40235000D03*
D14*
X44395000Y40235000D03*
%TD*%
D13*
%TO.C,JP1*%
X65695000Y80235000D03*
D14*
X64395000Y80235000D03*
%TD*%
D13*
%TO.C,JP1*%
X25695000Y40235000D03*
D14*
X24395000Y40235000D03*
%TD*%
D13*
%TO.C,JP3*%
X25695000Y93135000D03*
D14*
X24395000Y93135000D03*
%TD*%
D13*
%TO.C,JP1*%
X5695000Y100235000D03*
D14*
X4395000Y100235000D03*
%TD*%
D13*
%TO.C,JP2*%
X45695000Y96685000D03*
D14*
X44395000Y96685000D03*
%TD*%
D13*
%TO.C,JP1*%
X5695000Y60235000D03*
D14*
X4395000Y60235000D03*
%TD*%
D13*
%TO.C,JP3*%
X85695000Y93135000D03*
D14*
X84395000Y93135000D03*
%TD*%
D13*
%TO.C,JP3*%
X85695000Y73135000D03*
D14*
X84395000Y73135000D03*
%TD*%
D13*
%TO.C,JP2*%
X45695000Y16685000D03*
D14*
X44395000Y16685000D03*
%TD*%
D13*
%TO.C,JP1*%
X45695000Y20235000D03*
D14*
X44395000Y20235000D03*
%TD*%
D13*
%TO.C,JP3*%
X25695000Y13135000D03*
D14*
X24395000Y13135000D03*
%TD*%
D13*
%TO.C,JP2*%
X45695000Y76685000D03*
D14*
X44395000Y76685000D03*
%TD*%
D13*
%TO.C,JP1*%
X65695000Y40235000D03*
D14*
X64395000Y40235000D03*
%TD*%
D13*
%TO.C,JP2*%
X5695000Y16685000D03*
D14*
X4395000Y16685000D03*
%TD*%
D13*
%TO.C,JP3*%
X65695000Y73135000D03*
D14*
X64395000Y73135000D03*
%TD*%
D13*
%TO.C,JP1*%
X85695000Y40235000D03*
D14*
X84395000Y40235000D03*
%TD*%
D13*
%TO.C,JP2*%
X45695000Y36685000D03*
D14*
X44395000Y36685000D03*
%TD*%
D13*
%TO.C,JP1*%
X65695000Y60235000D03*
D14*
X64395000Y60235000D03*
%TD*%
D12*
%TO.C,KiKit_FID_B_1*%
X10000000Y110000000D03*
%TD*%
D13*
%TO.C,JP3*%
X45695000Y13135000D03*
D14*
X44395000Y13135000D03*
%TD*%
D13*
%TO.C,JP3*%
X65695000Y13135000D03*
D14*
X64395000Y13135000D03*
%TD*%
D13*
%TO.C,JP1*%
X45695000Y80235000D03*
D14*
X44395000Y80235000D03*
%TD*%
D13*
%TO.C,JP2*%
X85695000Y36685000D03*
D14*
X84395000Y36685000D03*
%TD*%
D13*
%TO.C,JP1*%
X25695000Y100235000D03*
D14*
X24395000Y100235000D03*
%TD*%
D13*
%TO.C,JP2*%
X65695000Y36685000D03*
D14*
X64395000Y36685000D03*
%TD*%
D13*
%TO.C,JP1*%
X45695000Y100235000D03*
D14*
X44395000Y100235000D03*
%TD*%
D13*
%TO.C,JP1*%
X5695000Y20235000D03*
D14*
X4395000Y20235000D03*
%TD*%
D13*
%TO.C,JP1*%
X45695000Y60235000D03*
D14*
X44395000Y60235000D03*
%TD*%
D13*
%TO.C,JP2*%
X45695000Y56685000D03*
D14*
X44395000Y56685000D03*
%TD*%
D13*
%TO.C,JP3*%
X85695000Y13135000D03*
D14*
X84395000Y13135000D03*
%TD*%
D13*
%TO.C,JP2*%
X5695000Y96685000D03*
D14*
X4395000Y96685000D03*
%TD*%
D13*
%TO.C,JP1*%
X5695000Y80235000D03*
D14*
X4395000Y80235000D03*
%TD*%
D13*
%TO.C,JP2*%
X65695000Y96685000D03*
D14*
X64395000Y96685000D03*
%TD*%
D13*
%TO.C,JP2*%
X65695000Y56685000D03*
D14*
X64395000Y56685000D03*
%TD*%
D13*
%TO.C,JP3*%
X65695000Y53135000D03*
D14*
X64395000Y53135000D03*
%TD*%
D13*
%TO.C,JP3*%
X45695000Y93135000D03*
D14*
X44395000Y93135000D03*
%TD*%
D13*
%TO.C,JP2*%
X5695000Y76685000D03*
D14*
X4395000Y76685000D03*
%TD*%
D13*
%TO.C,JP3*%
X45695000Y53135000D03*
D14*
X44395000Y53135000D03*
%TD*%
D13*
%TO.C,JP2*%
X5695000Y36685000D03*
D14*
X4395000Y36685000D03*
%TD*%
D13*
%TO.C,JP2*%
X65695000Y76685000D03*
D14*
X64395000Y76685000D03*
%TD*%
D12*
%TO.C,KiKit_FID_B_3*%
X10000000Y4000000D03*
%TD*%
D13*
%TO.C,JP1*%
X85695000Y80235000D03*
D14*
X84395000Y80235000D03*
%TD*%
D13*
%TO.C,JP2*%
X5695000Y56685000D03*
D14*
X4395000Y56685000D03*
%TD*%
D13*
%TO.C,JP2*%
X25695000Y16685000D03*
D14*
X24395000Y16685000D03*
%TD*%
D13*
%TO.C,JP3*%
X85695000Y33135000D03*
D14*
X84395000Y33135000D03*
%TD*%
D13*
%TO.C,JP1*%
X85695000Y20235000D03*
D14*
X84395000Y20235000D03*
%TD*%
D13*
%TO.C,JP3*%
X5695000Y13135000D03*
D14*
X4395000Y13135000D03*
%TD*%
D13*
%TO.C,JP3*%
X25695000Y53135000D03*
D14*
X24395000Y53135000D03*
%TD*%
M02*
