%TF.GenerationSoftware,KiCad,Pcbnew,9.0.1*%
%TF.CreationDate,2025-08-07T10:54:26-06:00*%
%TF.ProjectId,bhc-panel,6268632d-7061-46e6-956c-2e6b69636164,rev?*%
%TF.SameCoordinates,PX5defda0PY9a7ec80*%
%TF.FileFunction,Profile,NP*%
%FSLAX46Y46*%
G04 Gerber Fmt 4.6, Leading zero omitted, Abs format (unit mm)*
G04 Created by KiCad (PCBNEW 9.0.1) date 2025-08-07 10:54:26*
%MOMM*%
%LPD*%
G01*
G04 APERTURE LIST*
%TA.AperFunction,Profile*%
%ADD10C,0.100000*%
%TD*%
G04 APERTURE END LIST*
D10*
X100000000Y7000000D02*
X100000000Y27000000D01*
X100000000Y67000000D02*
X100000000Y87000000D01*
X0Y7000000D02*
X0Y999000D01*
X100000000Y107000000D02*
X100000000Y113001000D01*
X0Y27000000D02*
X0Y7000000D01*
X100000000Y113001000D02*
X99001000Y114000000D01*
X100000000Y27000000D02*
X100000000Y47000000D01*
X0Y47000000D02*
X0Y27000000D01*
X100000000Y999000D02*
X100000000Y7000000D01*
X0Y67000000D02*
X0Y47000000D01*
X0Y999000D02*
X999000Y0D01*
X100000000Y47000000D02*
X100000000Y67000000D01*
X999000Y0D02*
X99001000Y0D01*
X100000000Y87000000D02*
X100000000Y106999501D01*
X99001000Y0D02*
X100000000Y999000D01*
X99001000Y114000000D02*
X999000Y114000000D01*
X0Y87000000D02*
X0Y67000000D01*
X0Y106999501D02*
X0Y87000000D01*
X999000Y114000000D02*
X0Y113001000D01*
X0Y113001000D02*
X0Y107000000D01*
M02*
