%TF.GenerationSoftware,KiCad,Pcbnew,9.0.1*%
%TF.CreationDate,2025-08-07T10:54:26-06:00*%
%TF.ProjectId,bhc-panel,6268632d-7061-46e6-956c-2e6b69636164,rev?*%
%TF.SameCoordinates,PX5defda0PY9a7ec80*%
%TF.FileFunction,Paste,Top*%
%TF.FilePolarity,Positive*%
%FSLAX46Y46*%
G04 Gerber Fmt 4.6, Leading zero omitted, Abs format (unit mm)*
G04 Created by KiCad (PCBNEW 9.0.1) date 2025-08-07 10:54:26*
%MOMM*%
%LPD*%
G01*
G04 APERTURE LIST*
G04 Aperture macros list*
%AMRoundRect*
0 Rectangle with rounded corners*
0 $1 Rounding radius*
0 $2 $3 $4 $5 $6 $7 $8 $9 X,Y pos of 4 corners*
0 Add a 4 corners polygon primitive as box body*
4,1,4,$2,$3,$4,$5,$6,$7,$8,$9,$2,$3,0*
0 Add four circle primitives for the rounded corners*
1,1,$1+$1,$2,$3*
1,1,$1+$1,$4,$5*
1,1,$1+$1,$6,$7*
1,1,$1+$1,$8,$9*
0 Add four rect primitives between the rounded corners*
20,1,$1+$1,$2,$3,$4,$5,0*
20,1,$1+$1,$4,$5,$6,$7,0*
20,1,$1+$1,$6,$7,$8,$9,0*
20,1,$1+$1,$8,$9,$2,$3,0*%
G04 Aperture macros list end*
%ADD10RoundRect,0.200000X-0.275000X0.200000X-0.275000X-0.200000X0.275000X-0.200000X0.275000X0.200000X0*%
%ADD11RoundRect,0.243750X-0.456250X0.243750X-0.456250X-0.243750X0.456250X-0.243750X0.456250X0.243750X0*%
%ADD12RoundRect,0.150000X-0.825000X-0.150000X0.825000X-0.150000X0.825000X0.150000X-0.825000X0.150000X0*%
G04 APERTURE END LIST*
D10*
%TO.C,R1*%
X18445000Y16270000D03*
X18445000Y14620000D03*
%TD*%
D11*
%TO.C,D1*%
X58425000Y39760000D03*
X58425000Y37885000D03*
%TD*%
D10*
%TO.C,R1*%
X38445000Y76270000D03*
X38445000Y74620000D03*
%TD*%
D12*
%TO.C,U1*%
X21775000Y78525000D03*
X21775000Y77255000D03*
X21775000Y75985000D03*
X21775000Y74715000D03*
X26725000Y74715000D03*
X26725000Y75985000D03*
X26725000Y77255000D03*
X26725000Y78525000D03*
%TD*%
D10*
%TO.C,R1*%
X58445000Y56270000D03*
X58445000Y54620000D03*
%TD*%
%TO.C,R1*%
X18445000Y36270000D03*
X18445000Y34620000D03*
%TD*%
%TO.C,R1*%
X38445000Y96270000D03*
X38445000Y94620000D03*
%TD*%
%TO.C,R1*%
X98445000Y56270000D03*
X98445000Y54620000D03*
%TD*%
D11*
%TO.C,D1*%
X18425000Y59760000D03*
X18425000Y57885000D03*
%TD*%
D10*
%TO.C,R1*%
X78445000Y96270000D03*
X78445000Y94620000D03*
%TD*%
D11*
%TO.C,D1*%
X58425000Y79760000D03*
X58425000Y77885000D03*
%TD*%
%TO.C,D1*%
X98425000Y39760000D03*
X98425000Y37885000D03*
%TD*%
D10*
%TO.C,R1*%
X38445000Y16270000D03*
X38445000Y14620000D03*
%TD*%
D12*
%TO.C,U1*%
X61775000Y18525000D03*
X61775000Y17255000D03*
X61775000Y15985000D03*
X61775000Y14715000D03*
X66725000Y14715000D03*
X66725000Y15985000D03*
X66725000Y17255000D03*
X66725000Y18525000D03*
%TD*%
D11*
%TO.C,D1*%
X98425000Y99760000D03*
X98425000Y97885000D03*
%TD*%
D10*
%TO.C,R1*%
X98445000Y36270000D03*
X98445000Y34620000D03*
%TD*%
D12*
%TO.C,U1*%
X1775000Y58525000D03*
X1775000Y57255000D03*
X1775000Y55985000D03*
X1775000Y54715000D03*
X6725000Y54715000D03*
X6725000Y55985000D03*
X6725000Y57255000D03*
X6725000Y58525000D03*
%TD*%
%TO.C,U1*%
X41775000Y38525000D03*
X41775000Y37255000D03*
X41775000Y35985000D03*
X41775000Y34715000D03*
X46725000Y34715000D03*
X46725000Y35985000D03*
X46725000Y37255000D03*
X46725000Y38525000D03*
%TD*%
D10*
%TO.C,R1*%
X98445000Y76270000D03*
X98445000Y74620000D03*
%TD*%
D12*
%TO.C,U1*%
X81775000Y38525000D03*
X81775000Y37255000D03*
X81775000Y35985000D03*
X81775000Y34715000D03*
X86725000Y34715000D03*
X86725000Y35985000D03*
X86725000Y37255000D03*
X86725000Y38525000D03*
%TD*%
D11*
%TO.C,D1*%
X58425000Y59760000D03*
X58425000Y57885000D03*
%TD*%
D10*
%TO.C,R1*%
X98445000Y96270000D03*
X98445000Y94620000D03*
%TD*%
D12*
%TO.C,U1*%
X41775000Y18525000D03*
X41775000Y17255000D03*
X41775000Y15985000D03*
X41775000Y14715000D03*
X46725000Y14715000D03*
X46725000Y15985000D03*
X46725000Y17255000D03*
X46725000Y18525000D03*
%TD*%
D11*
%TO.C,D1*%
X98425000Y19760000D03*
X98425000Y17885000D03*
%TD*%
D10*
%TO.C,R1*%
X58445000Y16270000D03*
X58445000Y14620000D03*
%TD*%
%TO.C,R1*%
X78445000Y56270000D03*
X78445000Y54620000D03*
%TD*%
D12*
%TO.C,U1*%
X81775000Y18525000D03*
X81775000Y17255000D03*
X81775000Y15985000D03*
X81775000Y14715000D03*
X86725000Y14715000D03*
X86725000Y15985000D03*
X86725000Y17255000D03*
X86725000Y18525000D03*
%TD*%
D11*
%TO.C,D1*%
X78425000Y39760000D03*
X78425000Y37885000D03*
%TD*%
D12*
%TO.C,U1*%
X21775000Y18525000D03*
X21775000Y17255000D03*
X21775000Y15985000D03*
X21775000Y14715000D03*
X26725000Y14715000D03*
X26725000Y15985000D03*
X26725000Y17255000D03*
X26725000Y18525000D03*
%TD*%
%TO.C,U1*%
X81775000Y78525000D03*
X81775000Y77255000D03*
X81775000Y75985000D03*
X81775000Y74715000D03*
X86725000Y74715000D03*
X86725000Y75985000D03*
X86725000Y77255000D03*
X86725000Y78525000D03*
%TD*%
D11*
%TO.C,D1*%
X38425000Y99760000D03*
X38425000Y97885000D03*
%TD*%
%TO.C,D1*%
X38425000Y59760000D03*
X38425000Y57885000D03*
%TD*%
%TO.C,D1*%
X78425000Y19760000D03*
X78425000Y17885000D03*
%TD*%
D10*
%TO.C,R1*%
X38445000Y36270000D03*
X38445000Y34620000D03*
%TD*%
D11*
%TO.C,D1*%
X38425000Y19760000D03*
X38425000Y17885000D03*
%TD*%
D10*
%TO.C,R1*%
X98445000Y16270000D03*
X98445000Y14620000D03*
%TD*%
D12*
%TO.C,U1*%
X1775000Y98525000D03*
X1775000Y97255000D03*
X1775000Y95985000D03*
X1775000Y94715000D03*
X6725000Y94715000D03*
X6725000Y95985000D03*
X6725000Y97255000D03*
X6725000Y98525000D03*
%TD*%
%TO.C,U1*%
X81775000Y58525000D03*
X81775000Y57255000D03*
X81775000Y55985000D03*
X81775000Y54715000D03*
X86725000Y54715000D03*
X86725000Y55985000D03*
X86725000Y57255000D03*
X86725000Y58525000D03*
%TD*%
%TO.C,U1*%
X41775000Y58525000D03*
X41775000Y57255000D03*
X41775000Y55985000D03*
X41775000Y54715000D03*
X46725000Y54715000D03*
X46725000Y55985000D03*
X46725000Y57255000D03*
X46725000Y58525000D03*
%TD*%
D10*
%TO.C,R1*%
X58445000Y36270000D03*
X58445000Y34620000D03*
%TD*%
D11*
%TO.C,D1*%
X58425000Y99760000D03*
X58425000Y97885000D03*
%TD*%
D12*
%TO.C,U1*%
X81775000Y98525000D03*
X81775000Y97255000D03*
X81775000Y95985000D03*
X81775000Y94715000D03*
X86725000Y94715000D03*
X86725000Y95985000D03*
X86725000Y97255000D03*
X86725000Y98525000D03*
%TD*%
%TO.C,U1*%
X41775000Y78525000D03*
X41775000Y77255000D03*
X41775000Y75985000D03*
X41775000Y74715000D03*
X46725000Y74715000D03*
X46725000Y75985000D03*
X46725000Y77255000D03*
X46725000Y78525000D03*
%TD*%
D10*
%TO.C,R1*%
X58445000Y76270000D03*
X58445000Y74620000D03*
%TD*%
D11*
%TO.C,D1*%
X18425000Y19760000D03*
X18425000Y17885000D03*
%TD*%
D10*
%TO.C,R1*%
X18445000Y76270000D03*
X18445000Y74620000D03*
%TD*%
%TO.C,R1*%
X78445000Y76270000D03*
X78445000Y74620000D03*
%TD*%
D11*
%TO.C,D1*%
X18425000Y99760000D03*
X18425000Y97885000D03*
%TD*%
%TO.C,D1*%
X18425000Y79760000D03*
X18425000Y77885000D03*
%TD*%
D12*
%TO.C,U1*%
X21775000Y38525000D03*
X21775000Y37255000D03*
X21775000Y35985000D03*
X21775000Y34715000D03*
X26725000Y34715000D03*
X26725000Y35985000D03*
X26725000Y37255000D03*
X26725000Y38525000D03*
%TD*%
%TO.C,U1*%
X41775000Y98525000D03*
X41775000Y97255000D03*
X41775000Y95985000D03*
X41775000Y94715000D03*
X46725000Y94715000D03*
X46725000Y95985000D03*
X46725000Y97255000D03*
X46725000Y98525000D03*
%TD*%
%TO.C,U1*%
X21775000Y98525000D03*
X21775000Y97255000D03*
X21775000Y95985000D03*
X21775000Y94715000D03*
X26725000Y94715000D03*
X26725000Y95985000D03*
X26725000Y97255000D03*
X26725000Y98525000D03*
%TD*%
%TO.C,U1*%
X61775000Y38525000D03*
X61775000Y37255000D03*
X61775000Y35985000D03*
X61775000Y34715000D03*
X66725000Y34715000D03*
X66725000Y35985000D03*
X66725000Y37255000D03*
X66725000Y38525000D03*
%TD*%
%TO.C,U1*%
X61775000Y58525000D03*
X61775000Y57255000D03*
X61775000Y55985000D03*
X61775000Y54715000D03*
X66725000Y54715000D03*
X66725000Y55985000D03*
X66725000Y57255000D03*
X66725000Y58525000D03*
%TD*%
D10*
%TO.C,R1*%
X78445000Y16270000D03*
X78445000Y14620000D03*
%TD*%
D11*
%TO.C,D1*%
X38425000Y79760000D03*
X38425000Y77885000D03*
%TD*%
%TO.C,D1*%
X78425000Y79760000D03*
X78425000Y77885000D03*
%TD*%
D10*
%TO.C,R1*%
X78445000Y36270000D03*
X78445000Y34620000D03*
%TD*%
D12*
%TO.C,U1*%
X61775000Y98525000D03*
X61775000Y97255000D03*
X61775000Y95985000D03*
X61775000Y94715000D03*
X66725000Y94715000D03*
X66725000Y95985000D03*
X66725000Y97255000D03*
X66725000Y98525000D03*
%TD*%
D10*
%TO.C,R1*%
X58445000Y96270000D03*
X58445000Y94620000D03*
%TD*%
D12*
%TO.C,U1*%
X61775000Y78525000D03*
X61775000Y77255000D03*
X61775000Y75985000D03*
X61775000Y74715000D03*
X66725000Y74715000D03*
X66725000Y75985000D03*
X66725000Y77255000D03*
X66725000Y78525000D03*
%TD*%
D10*
%TO.C,R1*%
X38445000Y56270000D03*
X38445000Y54620000D03*
%TD*%
D11*
%TO.C,D1*%
X78425000Y59760000D03*
X78425000Y57885000D03*
%TD*%
%TO.C,D1*%
X38425000Y39760000D03*
X38425000Y37885000D03*
%TD*%
%TO.C,D1*%
X98425000Y59760000D03*
X98425000Y57885000D03*
%TD*%
D10*
%TO.C,R1*%
X18445000Y56270000D03*
X18445000Y54620000D03*
%TD*%
D12*
%TO.C,U1*%
X1775000Y18525000D03*
X1775000Y17255000D03*
X1775000Y15985000D03*
X1775000Y14715000D03*
X6725000Y14715000D03*
X6725000Y15985000D03*
X6725000Y17255000D03*
X6725000Y18525000D03*
%TD*%
%TO.C,U1*%
X1775000Y78525000D03*
X1775000Y77255000D03*
X1775000Y75985000D03*
X1775000Y74715000D03*
X6725000Y74715000D03*
X6725000Y75985000D03*
X6725000Y77255000D03*
X6725000Y78525000D03*
%TD*%
D10*
%TO.C,R1*%
X18445000Y96270000D03*
X18445000Y94620000D03*
%TD*%
D11*
%TO.C,D1*%
X78425000Y99760000D03*
X78425000Y97885000D03*
%TD*%
%TO.C,D1*%
X98425000Y79760000D03*
X98425000Y77885000D03*
%TD*%
D12*
%TO.C,U1*%
X21775000Y58525000D03*
X21775000Y57255000D03*
X21775000Y55985000D03*
X21775000Y54715000D03*
X26725000Y54715000D03*
X26725000Y55985000D03*
X26725000Y57255000D03*
X26725000Y58525000D03*
%TD*%
%TO.C,U1*%
X1775000Y38525000D03*
X1775000Y37255000D03*
X1775000Y35985000D03*
X1775000Y34715000D03*
X6725000Y34715000D03*
X6725000Y35985000D03*
X6725000Y37255000D03*
X6725000Y38525000D03*
%TD*%
D11*
%TO.C,D1*%
X18425000Y39760000D03*
X18425000Y37885000D03*
%TD*%
%TO.C,D1*%
X58425000Y19760000D03*
X58425000Y17885000D03*
%TD*%
M02*
