M48
; DRILL file {KiCad 9.0.1} date 2025-08-07T10:54:35-0600
; FORMAT={-:-/ absolute / metric / decimal}
; #@! TF.CreationDate,2025-08-07T10:54:35-06:00
; #@! TF.GenerationSoftware,Kicad,Pcbnew,9.0.1
; #@! TF.FileFunction,Plated,1,2,PTH
FMAT,2
METRIC
; #@! TA.AperFunction,Plated,PTH,ViaDrill
T1C0.400
; #@! TA.AperFunction,Plated,PTH,ComponentDrill
T2C0.950
%
G90
G05
T1
X3.245Y96.675
X3.245Y76.675
X3.245Y56.675
X3.245Y36.675
X3.245Y16.675
X3.435Y94.735
X3.435Y74.735
X3.435Y54.735
X3.435Y34.735
X3.435Y14.735
X3.845Y98.485
X3.845Y78.485
X3.845Y58.485
X3.845Y38.485
X3.845Y18.485
X4.465Y94.745
X4.465Y74.745
X4.465Y54.745
X4.465Y34.745
X4.465Y14.745
X5.105Y98.525
X5.105Y78.525
X5.105Y58.525
X5.105Y38.525
X5.105Y18.525
X10.185Y94.735
X10.185Y74.735
X10.185Y54.735
X10.185Y34.735
X10.185Y14.735
X12.195Y94.695
X12.195Y74.695
X12.195Y54.695
X12.195Y34.695
X12.195Y14.695
X18.425Y101.015
X18.425Y81.015
X18.425Y61.015
X18.425Y41.015
X18.425Y21.015
X18.445Y93.315
X18.445Y73.315
X18.445Y53.315
X18.445Y33.315
X18.445Y13.315
X23.245Y96.675
X23.245Y76.675
X23.245Y56.675
X23.245Y36.675
X23.245Y16.675
X23.435Y94.735
X23.435Y74.735
X23.435Y54.735
X23.435Y34.735
X23.435Y14.735
X23.845Y98.485
X23.845Y78.485
X23.845Y58.485
X23.845Y38.485
X23.845Y18.485
X24.465Y94.745
X24.465Y74.745
X24.465Y54.745
X24.465Y34.745
X24.465Y14.745
X25.105Y98.525
X25.105Y78.525
X25.105Y58.525
X25.105Y38.525
X25.105Y18.525
X30.185Y94.735
X30.185Y74.735
X30.185Y54.735
X30.185Y34.735
X30.185Y14.735
X32.195Y94.695
X32.195Y74.695
X32.195Y54.695
X32.195Y34.695
X32.195Y14.695
X38.425Y101.015
X38.425Y81.015
X38.425Y61.015
X38.425Y41.015
X38.425Y21.015
X38.445Y93.315
X38.445Y73.315
X38.445Y53.315
X38.445Y33.315
X38.445Y13.315
X43.245Y96.675
X43.245Y76.675
X43.245Y56.675
X43.245Y36.675
X43.245Y16.675
X43.435Y94.735
X43.435Y74.735
X43.435Y54.735
X43.435Y34.735
X43.435Y14.735
X43.845Y98.485
X43.845Y78.485
X43.845Y58.485
X43.845Y38.485
X43.845Y18.485
X44.465Y94.745
X44.465Y74.745
X44.465Y54.745
X44.465Y34.745
X44.465Y14.745
X45.105Y98.525
X45.105Y78.525
X45.105Y58.525
X45.105Y38.525
X45.105Y18.525
X50.185Y94.735
X50.185Y74.735
X50.185Y54.735
X50.185Y34.735
X50.185Y14.735
X52.195Y94.695
X52.195Y74.695
X52.195Y54.695
X52.195Y34.695
X52.195Y14.695
X58.425Y101.015
X58.425Y81.015
X58.425Y61.015
X58.425Y41.015
X58.425Y21.015
X58.445Y93.315
X58.445Y73.315
X58.445Y53.315
X58.445Y33.315
X58.445Y13.315
X63.245Y96.675
X63.245Y76.675
X63.245Y56.675
X63.245Y36.675
X63.245Y16.675
X63.435Y94.735
X63.435Y74.735
X63.435Y54.735
X63.435Y34.735
X63.435Y14.735
X63.845Y98.485
X63.845Y78.485
X63.845Y58.485
X63.845Y38.485
X63.845Y18.485
X64.465Y94.745
X64.465Y74.745
X64.465Y54.745
X64.465Y34.745
X64.465Y14.745
X65.105Y98.525
X65.105Y78.525
X65.105Y58.525
X65.105Y38.525
X65.105Y18.525
X70.185Y94.735
X70.185Y74.735
X70.185Y54.735
X70.185Y34.735
X70.185Y14.735
X72.195Y94.695
X72.195Y74.695
X72.195Y54.695
X72.195Y34.695
X72.195Y14.695
X78.425Y101.015
X78.425Y81.015
X78.425Y61.015
X78.425Y41.015
X78.425Y21.015
X78.445Y93.315
X78.445Y73.315
X78.445Y53.315
X78.445Y33.315
X78.445Y13.315
X83.245Y96.675
X83.245Y76.675
X83.245Y56.675
X83.245Y36.675
X83.245Y16.675
X83.435Y94.735
X83.435Y74.735
X83.435Y54.735
X83.435Y34.735
X83.435Y14.735
X83.845Y98.485
X83.845Y78.485
X83.845Y58.485
X83.845Y38.485
X83.845Y18.485
X84.465Y94.745
X84.465Y74.745
X84.465Y54.745
X84.465Y34.745
X84.465Y14.745
X85.105Y98.525
X85.105Y78.525
X85.105Y58.525
X85.105Y38.525
X85.105Y18.525
X90.185Y94.735
X90.185Y74.735
X90.185Y54.735
X90.185Y34.735
X90.185Y14.735
X92.195Y94.695
X92.195Y74.695
X92.195Y54.695
X92.195Y34.695
X92.195Y14.695
X98.425Y101.015
X98.425Y81.015
X98.425Y61.015
X98.425Y41.015
X98.425Y21.015
X98.445Y93.315
X98.445Y73.315
X98.445Y53.315
X98.445Y33.315
X98.445Y13.315
T2
X1.11Y105.89
X1.11Y88.11
X1.11Y85.89
X1.11Y68.11
X1.11Y65.89
X1.11Y48.11
X1.11Y45.89
X1.11Y28.11
X1.11Y25.89
X1.11Y8.11
X3.65Y105.89
X3.65Y85.89
X3.65Y65.89
X3.65Y45.89
X3.65Y25.89
X11.27Y88.11
X11.27Y68.11
X11.27Y48.11
X11.27Y28.11
X11.27Y8.11
X13.81Y88.11
X13.81Y68.11
X13.81Y48.11
X13.81Y28.11
X13.81Y8.11
X16.35Y105.89
X16.35Y88.11
X16.35Y85.89
X16.35Y68.11
X16.35Y65.89
X16.35Y48.11
X16.35Y45.89
X16.35Y28.11
X16.35Y25.89
X16.35Y8.11
X18.89Y105.89
X18.89Y88.11
X18.89Y85.89
X18.89Y68.11
X18.89Y65.89
X18.89Y48.11
X18.89Y45.89
X18.89Y28.11
X18.89Y25.89
X18.89Y8.11
X21.11Y105.89
X21.11Y88.11
X21.11Y85.89
X21.11Y68.11
X21.11Y65.89
X21.11Y48.11
X21.11Y45.89
X21.11Y28.11
X21.11Y25.89
X21.11Y8.11
X23.65Y105.89
X23.65Y85.89
X23.65Y65.89
X23.65Y45.89
X23.65Y25.89
X31.27Y88.11
X31.27Y68.11
X31.27Y48.11
X31.27Y28.11
X31.27Y8.11
X33.81Y88.11
X33.81Y68.11
X33.81Y48.11
X33.81Y28.11
X33.81Y8.11
X36.35Y105.89
X36.35Y88.11
X36.35Y85.89
X36.35Y68.11
X36.35Y65.89
X36.35Y48.11
X36.35Y45.89
X36.35Y28.11
X36.35Y25.89
X36.35Y8.11
X38.89Y105.89
X38.89Y88.11
X38.89Y85.89
X38.89Y68.11
X38.89Y65.89
X38.89Y48.11
X38.89Y45.89
X38.89Y28.11
X38.89Y25.89
X38.89Y8.11
X41.11Y105.89
X41.11Y88.11
X41.11Y85.89
X41.11Y68.11
X41.11Y65.89
X41.11Y48.11
X41.11Y45.89
X41.11Y28.11
X41.11Y25.89
X41.11Y8.11
X43.65Y105.89
X43.65Y85.89
X43.65Y65.89
X43.65Y45.89
X43.65Y25.89
X51.27Y88.11
X51.27Y68.11
X51.27Y48.11
X51.27Y28.11
X51.27Y8.11
X53.81Y88.11
X53.81Y68.11
X53.81Y48.11
X53.81Y28.11
X53.81Y8.11
X56.35Y105.89
X56.35Y88.11
X56.35Y85.89
X56.35Y68.11
X56.35Y65.89
X56.35Y48.11
X56.35Y45.89
X56.35Y28.11
X56.35Y25.89
X56.35Y8.11
X58.89Y105.89
X58.89Y88.11
X58.89Y85.89
X58.89Y68.11
X58.89Y65.89
X58.89Y48.11
X58.89Y45.89
X58.89Y28.11
X58.89Y25.89
X58.89Y8.11
X61.11Y105.89
X61.11Y88.11
X61.11Y85.89
X61.11Y68.11
X61.11Y65.89
X61.11Y48.11
X61.11Y45.89
X61.11Y28.11
X61.11Y25.89
X61.11Y8.11
X63.65Y105.89
X63.65Y85.89
X63.65Y65.89
X63.65Y45.89
X63.65Y25.89
X71.27Y88.11
X71.27Y68.11
X71.27Y48.11
X71.27Y28.11
X71.27Y8.11
X73.81Y88.11
X73.81Y68.11
X73.81Y48.11
X73.81Y28.11
X73.81Y8.11
X76.35Y105.89
X76.35Y88.11
X76.35Y85.89
X76.35Y68.11
X76.35Y65.89
X76.35Y48.11
X76.35Y45.89
X76.35Y28.11
X76.35Y25.89
X76.35Y8.11
X78.89Y105.89
X78.89Y88.11
X78.89Y85.89
X78.89Y68.11
X78.89Y65.89
X78.89Y48.11
X78.89Y45.89
X78.89Y28.11
X78.89Y25.89
X78.89Y8.11
X81.11Y105.89
X81.11Y88.11
X81.11Y85.89
X81.11Y68.11
X81.11Y65.89
X81.11Y48.11
X81.11Y45.89
X81.11Y28.11
X81.11Y25.89
X81.11Y8.11
X83.65Y105.89
X83.65Y85.89
X83.65Y65.89
X83.65Y45.89
X83.65Y25.89
X91.27Y88.11
X91.27Y68.11
X91.27Y48.11
X91.27Y28.11
X91.27Y8.11
X93.81Y88.11
X93.81Y68.11
X93.81Y48.11
X93.81Y28.11
X93.81Y8.11
X96.35Y105.89
X96.35Y88.11
X96.35Y85.89
X96.35Y68.11
X96.35Y65.89
X96.35Y48.11
X96.35Y45.89
X96.35Y28.11
X96.35Y25.89
X96.35Y8.11
X98.89Y105.89
X98.89Y88.11
X98.89Y85.89
X98.89Y68.11
X98.89Y65.89
X98.89Y48.11
X98.89Y45.89
X98.89Y28.11
X98.89Y25.89
X98.89Y8.11
M30
