%TF.GenerationSoftware,KiCad,Pcbnew,9.0.1*%
%TF.CreationDate,2025-08-07T10:54:35-06:00*%
%TF.ProjectId,bhc-panel,6268632d-7061-46e6-956c-2e6b69636164,rev?*%
%TF.SameCoordinates,PX5defda0PY9a7ec80*%
%TF.FileFunction,Drillmap*%
%TF.FilePolarity,Positive*%
%FSLAX45Y45*%
G04 Gerber Fmt 4.5, Leading zero omitted, Abs format (unit mm)*
G04 Created by KiCad (PCBNEW 9.0.1) date 2025-08-07 10:54:35*
%MOMM*%
%LPD*%
G01*
G04 APERTURE LIST*
%ADD10C,0.100000*%
%ADD11C,0.200000*%
G04 APERTURE END LIST*
D10*
X10000000Y700000D02*
X10000000Y2700000D01*
X10000000Y6700000D02*
X10000000Y8700000D01*
X0Y700000D02*
X0Y99900D01*
X10000000Y10700000D02*
X10000000Y11300100D01*
X0Y2700000D02*
X0Y700000D01*
X10000000Y11300100D02*
X9900100Y11400000D01*
X10000000Y2700000D02*
X10000000Y4700000D01*
X0Y4700000D02*
X0Y2700000D01*
X10000000Y99900D02*
X10000000Y700000D01*
X0Y6700000D02*
X0Y4700000D01*
X0Y99900D02*
X99900Y0D01*
X10000000Y4700000D02*
X10000000Y6700000D01*
X99900Y0D02*
X9900100Y0D01*
X10000000Y8700000D02*
X10000000Y10699950D01*
X9900100Y0D02*
X10000000Y99900D01*
X9900100Y11400000D02*
X99900Y11400000D01*
X0Y8700000D02*
X0Y6700000D01*
X0Y10699950D02*
X0Y8700000D01*
X99900Y11400000D02*
X0Y11300100D01*
X0Y11300100D02*
X0Y10700000D01*
D11*
D10*
X304500Y9687500D02*
X344500Y9647500D01*
X344500Y9687500D02*
X304500Y9647500D01*
X304500Y7687500D02*
X344500Y7647500D01*
X344500Y7687500D02*
X304500Y7647500D01*
X304500Y5687500D02*
X344500Y5647500D01*
X344500Y5687500D02*
X304500Y5647500D01*
X304500Y3687500D02*
X344500Y3647500D01*
X344500Y3687500D02*
X304500Y3647500D01*
X304500Y1687500D02*
X344500Y1647500D01*
X344500Y1687500D02*
X304500Y1647500D01*
X323500Y9493500D02*
X363500Y9453500D01*
X363500Y9493500D02*
X323500Y9453500D01*
X323500Y7493500D02*
X363500Y7453500D01*
X363500Y7493500D02*
X323500Y7453500D01*
X323500Y5493500D02*
X363500Y5453500D01*
X363500Y5493500D02*
X323500Y5453500D01*
X323500Y3493500D02*
X363500Y3453500D01*
X363500Y3493500D02*
X323500Y3453500D01*
X323500Y1493500D02*
X363500Y1453500D01*
X363500Y1493500D02*
X323500Y1453500D01*
X364500Y9868500D02*
X404500Y9828500D01*
X404500Y9868500D02*
X364500Y9828500D01*
X364500Y7868500D02*
X404500Y7828500D01*
X404500Y7868500D02*
X364500Y7828500D01*
X364500Y5868500D02*
X404500Y5828500D01*
X404500Y5868500D02*
X364500Y5828500D01*
X364500Y3868500D02*
X404500Y3828500D01*
X404500Y3868500D02*
X364500Y3828500D01*
X364500Y1868500D02*
X404500Y1828500D01*
X404500Y1868500D02*
X364500Y1828500D01*
X426500Y9494500D02*
X466500Y9454500D01*
X466500Y9494500D02*
X426500Y9454500D01*
X426500Y7494500D02*
X466500Y7454500D01*
X466500Y7494500D02*
X426500Y7454500D01*
X426500Y5494500D02*
X466500Y5454500D01*
X466500Y5494500D02*
X426500Y5454500D01*
X426500Y3494500D02*
X466500Y3454500D01*
X466500Y3494500D02*
X426500Y3454500D01*
X426500Y1494500D02*
X466500Y1454500D01*
X466500Y1494500D02*
X426500Y1454500D01*
X490500Y9872500D02*
X530500Y9832500D01*
X530500Y9872500D02*
X490500Y9832500D01*
X490500Y7872500D02*
X530500Y7832500D01*
X530500Y7872500D02*
X490500Y7832500D01*
X490500Y5872500D02*
X530500Y5832500D01*
X530500Y5872500D02*
X490500Y5832500D01*
X490500Y3872500D02*
X530500Y3832500D01*
X530500Y3872500D02*
X490500Y3832500D01*
X490500Y1872500D02*
X530500Y1832500D01*
X530500Y1872500D02*
X490500Y1832500D01*
X998500Y9493500D02*
X1038500Y9453500D01*
X1038500Y9493500D02*
X998500Y9453500D01*
X998500Y7493500D02*
X1038500Y7453500D01*
X1038500Y7493500D02*
X998500Y7453500D01*
X998500Y5493500D02*
X1038500Y5453500D01*
X1038500Y5493500D02*
X998500Y5453500D01*
X998500Y3493500D02*
X1038500Y3453500D01*
X1038500Y3493500D02*
X998500Y3453500D01*
X998500Y1493500D02*
X1038500Y1453500D01*
X1038500Y1493500D02*
X998500Y1453500D01*
X1199500Y9489500D02*
X1239500Y9449500D01*
X1239500Y9489500D02*
X1199500Y9449500D01*
X1199500Y7489500D02*
X1239500Y7449500D01*
X1239500Y7489500D02*
X1199500Y7449500D01*
X1199500Y5489500D02*
X1239500Y5449500D01*
X1239500Y5489500D02*
X1199500Y5449500D01*
X1199500Y3489500D02*
X1239500Y3449500D01*
X1239500Y3489500D02*
X1199500Y3449500D01*
X1199500Y1489500D02*
X1239500Y1449500D01*
X1239500Y1489500D02*
X1199500Y1449500D01*
X1822500Y10121500D02*
X1862500Y10081500D01*
X1862500Y10121500D02*
X1822500Y10081500D01*
X1822500Y8121500D02*
X1862500Y8081500D01*
X1862500Y8121500D02*
X1822500Y8081500D01*
X1822500Y6121500D02*
X1862500Y6081500D01*
X1862500Y6121500D02*
X1822500Y6081500D01*
X1822500Y4121500D02*
X1862500Y4081500D01*
X1862500Y4121500D02*
X1822500Y4081500D01*
X1822500Y2121500D02*
X1862500Y2081500D01*
X1862500Y2121500D02*
X1822500Y2081500D01*
X1824500Y9351500D02*
X1864500Y9311500D01*
X1864500Y9351500D02*
X1824500Y9311500D01*
X1824500Y7351500D02*
X1864500Y7311500D01*
X1864500Y7351500D02*
X1824500Y7311500D01*
X1824500Y5351500D02*
X1864500Y5311500D01*
X1864500Y5351500D02*
X1824500Y5311500D01*
X1824500Y3351500D02*
X1864500Y3311500D01*
X1864500Y3351500D02*
X1824500Y3311500D01*
X1824500Y1351500D02*
X1864500Y1311500D01*
X1864500Y1351500D02*
X1824500Y1311500D01*
X2304500Y9687500D02*
X2344500Y9647500D01*
X2344500Y9687500D02*
X2304500Y9647500D01*
X2304500Y7687500D02*
X2344500Y7647500D01*
X2344500Y7687500D02*
X2304500Y7647500D01*
X2304500Y5687500D02*
X2344500Y5647500D01*
X2344500Y5687500D02*
X2304500Y5647500D01*
X2304500Y3687500D02*
X2344500Y3647500D01*
X2344500Y3687500D02*
X2304500Y3647500D01*
X2304500Y1687500D02*
X2344500Y1647500D01*
X2344500Y1687500D02*
X2304500Y1647500D01*
X2323500Y9493500D02*
X2363500Y9453500D01*
X2363500Y9493500D02*
X2323500Y9453500D01*
X2323500Y7493500D02*
X2363500Y7453500D01*
X2363500Y7493500D02*
X2323500Y7453500D01*
X2323500Y5493500D02*
X2363500Y5453500D01*
X2363500Y5493500D02*
X2323500Y5453500D01*
X2323500Y3493500D02*
X2363500Y3453500D01*
X2363500Y3493500D02*
X2323500Y3453500D01*
X2323500Y1493500D02*
X2363500Y1453500D01*
X2363500Y1493500D02*
X2323500Y1453500D01*
X2364500Y9868500D02*
X2404500Y9828500D01*
X2404500Y9868500D02*
X2364500Y9828500D01*
X2364500Y7868500D02*
X2404500Y7828500D01*
X2404500Y7868500D02*
X2364500Y7828500D01*
X2364500Y5868500D02*
X2404500Y5828500D01*
X2404500Y5868500D02*
X2364500Y5828500D01*
X2364500Y3868500D02*
X2404500Y3828500D01*
X2404500Y3868500D02*
X2364500Y3828500D01*
X2364500Y1868500D02*
X2404500Y1828500D01*
X2404500Y1868500D02*
X2364500Y1828500D01*
X2426500Y9494500D02*
X2466500Y9454500D01*
X2466500Y9494500D02*
X2426500Y9454500D01*
X2426500Y7494500D02*
X2466500Y7454500D01*
X2466500Y7494500D02*
X2426500Y7454500D01*
X2426500Y5494500D02*
X2466500Y5454500D01*
X2466500Y5494500D02*
X2426500Y5454500D01*
X2426500Y3494500D02*
X2466500Y3454500D01*
X2466500Y3494500D02*
X2426500Y3454500D01*
X2426500Y1494500D02*
X2466500Y1454500D01*
X2466500Y1494500D02*
X2426500Y1454500D01*
X2490500Y9872500D02*
X2530500Y9832500D01*
X2530500Y9872500D02*
X2490500Y9832500D01*
X2490500Y7872500D02*
X2530500Y7832500D01*
X2530500Y7872500D02*
X2490500Y7832500D01*
X2490500Y5872500D02*
X2530500Y5832500D01*
X2530500Y5872500D02*
X2490500Y5832500D01*
X2490500Y3872500D02*
X2530500Y3832500D01*
X2530500Y3872500D02*
X2490500Y3832500D01*
X2490500Y1872500D02*
X2530500Y1832500D01*
X2530500Y1872500D02*
X2490500Y1832500D01*
X2998500Y9493500D02*
X3038500Y9453500D01*
X3038500Y9493500D02*
X2998500Y9453500D01*
X2998500Y7493500D02*
X3038500Y7453500D01*
X3038500Y7493500D02*
X2998500Y7453500D01*
X2998500Y5493500D02*
X3038500Y5453500D01*
X3038500Y5493500D02*
X2998500Y5453500D01*
X2998500Y3493500D02*
X3038500Y3453500D01*
X3038500Y3493500D02*
X2998500Y3453500D01*
X2998500Y1493500D02*
X3038500Y1453500D01*
X3038500Y1493500D02*
X2998500Y1453500D01*
X3199500Y9489500D02*
X3239500Y9449500D01*
X3239500Y9489500D02*
X3199500Y9449500D01*
X3199500Y7489500D02*
X3239500Y7449500D01*
X3239500Y7489500D02*
X3199500Y7449500D01*
X3199500Y5489500D02*
X3239500Y5449500D01*
X3239500Y5489500D02*
X3199500Y5449500D01*
X3199500Y3489500D02*
X3239500Y3449500D01*
X3239500Y3489500D02*
X3199500Y3449500D01*
X3199500Y1489500D02*
X3239500Y1449500D01*
X3239500Y1489500D02*
X3199500Y1449500D01*
X3822500Y10121500D02*
X3862500Y10081500D01*
X3862500Y10121500D02*
X3822500Y10081500D01*
X3822500Y8121500D02*
X3862500Y8081500D01*
X3862500Y8121500D02*
X3822500Y8081500D01*
X3822500Y6121500D02*
X3862500Y6081500D01*
X3862500Y6121500D02*
X3822500Y6081500D01*
X3822500Y4121500D02*
X3862500Y4081500D01*
X3862500Y4121500D02*
X3822500Y4081500D01*
X3822500Y2121500D02*
X3862500Y2081500D01*
X3862500Y2121500D02*
X3822500Y2081500D01*
X3824500Y9351500D02*
X3864500Y9311500D01*
X3864500Y9351500D02*
X3824500Y9311500D01*
X3824500Y7351500D02*
X3864500Y7311500D01*
X3864500Y7351500D02*
X3824500Y7311500D01*
X3824500Y5351500D02*
X3864500Y5311500D01*
X3864500Y5351500D02*
X3824500Y5311500D01*
X3824500Y3351500D02*
X3864500Y3311500D01*
X3864500Y3351500D02*
X3824500Y3311500D01*
X3824500Y1351500D02*
X3864500Y1311500D01*
X3864500Y1351500D02*
X3824500Y1311500D01*
X4304500Y9687500D02*
X4344500Y9647500D01*
X4344500Y9687500D02*
X4304500Y9647500D01*
X4304500Y7687500D02*
X4344500Y7647500D01*
X4344500Y7687500D02*
X4304500Y7647500D01*
X4304500Y5687500D02*
X4344500Y5647500D01*
X4344500Y5687500D02*
X4304500Y5647500D01*
X4304500Y3687500D02*
X4344500Y3647500D01*
X4344500Y3687500D02*
X4304500Y3647500D01*
X4304500Y1687500D02*
X4344500Y1647500D01*
X4344500Y1687500D02*
X4304500Y1647500D01*
X4323500Y9493500D02*
X4363500Y9453500D01*
X4363500Y9493500D02*
X4323500Y9453500D01*
X4323500Y7493500D02*
X4363500Y7453500D01*
X4363500Y7493500D02*
X4323500Y7453500D01*
X4323500Y5493500D02*
X4363500Y5453500D01*
X4363500Y5493500D02*
X4323500Y5453500D01*
X4323500Y3493500D02*
X4363500Y3453500D01*
X4363500Y3493500D02*
X4323500Y3453500D01*
X4323500Y1493500D02*
X4363500Y1453500D01*
X4363500Y1493500D02*
X4323500Y1453500D01*
X4364500Y9868500D02*
X4404500Y9828500D01*
X4404500Y9868500D02*
X4364500Y9828500D01*
X4364500Y7868500D02*
X4404500Y7828500D01*
X4404500Y7868500D02*
X4364500Y7828500D01*
X4364500Y5868500D02*
X4404500Y5828500D01*
X4404500Y5868500D02*
X4364500Y5828500D01*
X4364500Y3868500D02*
X4404500Y3828500D01*
X4404500Y3868500D02*
X4364500Y3828500D01*
X4364500Y1868500D02*
X4404500Y1828500D01*
X4404500Y1868500D02*
X4364500Y1828500D01*
X4426500Y9494500D02*
X4466500Y9454500D01*
X4466500Y9494500D02*
X4426500Y9454500D01*
X4426500Y7494500D02*
X4466500Y7454500D01*
X4466500Y7494500D02*
X4426500Y7454500D01*
X4426500Y5494500D02*
X4466500Y5454500D01*
X4466500Y5494500D02*
X4426500Y5454500D01*
X4426500Y3494500D02*
X4466500Y3454500D01*
X4466500Y3494500D02*
X4426500Y3454500D01*
X4426500Y1494500D02*
X4466500Y1454500D01*
X4466500Y1494500D02*
X4426500Y1454500D01*
X4490500Y9872500D02*
X4530500Y9832500D01*
X4530500Y9872500D02*
X4490500Y9832500D01*
X4490500Y7872500D02*
X4530500Y7832500D01*
X4530500Y7872500D02*
X4490500Y7832500D01*
X4490500Y5872500D02*
X4530500Y5832500D01*
X4530500Y5872500D02*
X4490500Y5832500D01*
X4490500Y3872500D02*
X4530500Y3832500D01*
X4530500Y3872500D02*
X4490500Y3832500D01*
X4490500Y1872500D02*
X4530500Y1832500D01*
X4530500Y1872500D02*
X4490500Y1832500D01*
X4998500Y9493500D02*
X5038500Y9453500D01*
X5038500Y9493500D02*
X4998500Y9453500D01*
X4998500Y7493500D02*
X5038500Y7453500D01*
X5038500Y7493500D02*
X4998500Y7453500D01*
X4998500Y5493500D02*
X5038500Y5453500D01*
X5038500Y5493500D02*
X4998500Y5453500D01*
X4998500Y3493500D02*
X5038500Y3453500D01*
X5038500Y3493500D02*
X4998500Y3453500D01*
X4998500Y1493500D02*
X5038500Y1453500D01*
X5038500Y1493500D02*
X4998500Y1453500D01*
X5199500Y9489500D02*
X5239500Y9449500D01*
X5239500Y9489500D02*
X5199500Y9449500D01*
X5199500Y7489500D02*
X5239500Y7449500D01*
X5239500Y7489500D02*
X5199500Y7449500D01*
X5199500Y5489500D02*
X5239500Y5449500D01*
X5239500Y5489500D02*
X5199500Y5449500D01*
X5199500Y3489500D02*
X5239500Y3449500D01*
X5239500Y3489500D02*
X5199500Y3449500D01*
X5199500Y1489500D02*
X5239500Y1449500D01*
X5239500Y1489500D02*
X5199500Y1449500D01*
X5822500Y10121500D02*
X5862500Y10081500D01*
X5862500Y10121500D02*
X5822500Y10081500D01*
X5822500Y8121500D02*
X5862500Y8081500D01*
X5862500Y8121500D02*
X5822500Y8081500D01*
X5822500Y6121500D02*
X5862500Y6081500D01*
X5862500Y6121500D02*
X5822500Y6081500D01*
X5822500Y4121500D02*
X5862500Y4081500D01*
X5862500Y4121500D02*
X5822500Y4081500D01*
X5822500Y2121500D02*
X5862500Y2081500D01*
X5862500Y2121500D02*
X5822500Y2081500D01*
X5824500Y9351500D02*
X5864500Y9311500D01*
X5864500Y9351500D02*
X5824500Y9311500D01*
X5824500Y7351500D02*
X5864500Y7311500D01*
X5864500Y7351500D02*
X5824500Y7311500D01*
X5824500Y5351500D02*
X5864500Y5311500D01*
X5864500Y5351500D02*
X5824500Y5311500D01*
X5824500Y3351500D02*
X5864500Y3311500D01*
X5864500Y3351500D02*
X5824500Y3311500D01*
X5824500Y1351500D02*
X5864500Y1311500D01*
X5864500Y1351500D02*
X5824500Y1311500D01*
X6304500Y9687500D02*
X6344500Y9647500D01*
X6344500Y9687500D02*
X6304500Y9647500D01*
X6304500Y7687500D02*
X6344500Y7647500D01*
X6344500Y7687500D02*
X6304500Y7647500D01*
X6304500Y5687500D02*
X6344500Y5647500D01*
X6344500Y5687500D02*
X6304500Y5647500D01*
X6304500Y3687500D02*
X6344500Y3647500D01*
X6344500Y3687500D02*
X6304500Y3647500D01*
X6304500Y1687500D02*
X6344500Y1647500D01*
X6344500Y1687500D02*
X6304500Y1647500D01*
X6323500Y9493500D02*
X6363500Y9453500D01*
X6363500Y9493500D02*
X6323500Y9453500D01*
X6323500Y7493500D02*
X6363500Y7453500D01*
X6363500Y7493500D02*
X6323500Y7453500D01*
X6323500Y5493500D02*
X6363500Y5453500D01*
X6363500Y5493500D02*
X6323500Y5453500D01*
X6323500Y3493500D02*
X6363500Y3453500D01*
X6363500Y3493500D02*
X6323500Y3453500D01*
X6323500Y1493500D02*
X6363500Y1453500D01*
X6363500Y1493500D02*
X6323500Y1453500D01*
X6364500Y9868500D02*
X6404500Y9828500D01*
X6404500Y9868500D02*
X6364500Y9828500D01*
X6364500Y7868500D02*
X6404500Y7828500D01*
X6404500Y7868500D02*
X6364500Y7828500D01*
X6364500Y5868500D02*
X6404500Y5828500D01*
X6404500Y5868500D02*
X6364500Y5828500D01*
X6364500Y3868500D02*
X6404500Y3828500D01*
X6404500Y3868500D02*
X6364500Y3828500D01*
X6364500Y1868500D02*
X6404500Y1828500D01*
X6404500Y1868500D02*
X6364500Y1828500D01*
X6426500Y9494500D02*
X6466500Y9454500D01*
X6466500Y9494500D02*
X6426500Y9454500D01*
X6426500Y7494500D02*
X6466500Y7454500D01*
X6466500Y7494500D02*
X6426500Y7454500D01*
X6426500Y5494500D02*
X6466500Y5454500D01*
X6466500Y5494500D02*
X6426500Y5454500D01*
X6426500Y3494500D02*
X6466500Y3454500D01*
X6466500Y3494500D02*
X6426500Y3454500D01*
X6426500Y1494500D02*
X6466500Y1454500D01*
X6466500Y1494500D02*
X6426500Y1454500D01*
X6490500Y9872500D02*
X6530500Y9832500D01*
X6530500Y9872500D02*
X6490500Y9832500D01*
X6490500Y7872500D02*
X6530500Y7832500D01*
X6530500Y7872500D02*
X6490500Y7832500D01*
X6490500Y5872500D02*
X6530500Y5832500D01*
X6530500Y5872500D02*
X6490500Y5832500D01*
X6490500Y3872500D02*
X6530500Y3832500D01*
X6530500Y3872500D02*
X6490500Y3832500D01*
X6490500Y1872500D02*
X6530500Y1832500D01*
X6530500Y1872500D02*
X6490500Y1832500D01*
X6998500Y9493500D02*
X7038500Y9453500D01*
X7038500Y9493500D02*
X6998500Y9453500D01*
X6998500Y7493500D02*
X7038500Y7453500D01*
X7038500Y7493500D02*
X6998500Y7453500D01*
X6998500Y5493500D02*
X7038500Y5453500D01*
X7038500Y5493500D02*
X6998500Y5453500D01*
X6998500Y3493500D02*
X7038500Y3453500D01*
X7038500Y3493500D02*
X6998500Y3453500D01*
X6998500Y1493500D02*
X7038500Y1453500D01*
X7038500Y1493500D02*
X6998500Y1453500D01*
X7199500Y9489500D02*
X7239500Y9449500D01*
X7239500Y9489500D02*
X7199500Y9449500D01*
X7199500Y7489500D02*
X7239500Y7449500D01*
X7239500Y7489500D02*
X7199500Y7449500D01*
X7199500Y5489500D02*
X7239500Y5449500D01*
X7239500Y5489500D02*
X7199500Y5449500D01*
X7199500Y3489500D02*
X7239500Y3449500D01*
X7239500Y3489500D02*
X7199500Y3449500D01*
X7199500Y1489500D02*
X7239500Y1449500D01*
X7239500Y1489500D02*
X7199500Y1449500D01*
X7822500Y10121500D02*
X7862500Y10081500D01*
X7862500Y10121500D02*
X7822500Y10081500D01*
X7822500Y8121500D02*
X7862500Y8081500D01*
X7862500Y8121500D02*
X7822500Y8081500D01*
X7822500Y6121500D02*
X7862500Y6081500D01*
X7862500Y6121500D02*
X7822500Y6081500D01*
X7822500Y4121500D02*
X7862500Y4081500D01*
X7862500Y4121500D02*
X7822500Y4081500D01*
X7822500Y2121500D02*
X7862500Y2081500D01*
X7862500Y2121500D02*
X7822500Y2081500D01*
X7824500Y9351500D02*
X7864500Y9311500D01*
X7864500Y9351500D02*
X7824500Y9311500D01*
X7824500Y7351500D02*
X7864500Y7311500D01*
X7864500Y7351500D02*
X7824500Y7311500D01*
X7824500Y5351500D02*
X7864500Y5311500D01*
X7864500Y5351500D02*
X7824500Y5311500D01*
X7824500Y3351500D02*
X7864500Y3311500D01*
X7864500Y3351500D02*
X7824500Y3311500D01*
X7824500Y1351500D02*
X7864500Y1311500D01*
X7864500Y1351500D02*
X7824500Y1311500D01*
X8304500Y9687500D02*
X8344500Y9647500D01*
X8344500Y9687500D02*
X8304500Y9647500D01*
X8304500Y7687500D02*
X8344500Y7647500D01*
X8344500Y7687500D02*
X8304500Y7647500D01*
X8304500Y5687500D02*
X8344500Y5647500D01*
X8344500Y5687500D02*
X8304500Y5647500D01*
X8304500Y3687500D02*
X8344500Y3647500D01*
X8344500Y3687500D02*
X8304500Y3647500D01*
X8304500Y1687500D02*
X8344500Y1647500D01*
X8344500Y1687500D02*
X8304500Y1647500D01*
X8323500Y9493500D02*
X8363500Y9453500D01*
X8363500Y9493500D02*
X8323500Y9453500D01*
X8323500Y7493500D02*
X8363500Y7453500D01*
X8363500Y7493500D02*
X8323500Y7453500D01*
X8323500Y5493500D02*
X8363500Y5453500D01*
X8363500Y5493500D02*
X8323500Y5453500D01*
X8323500Y3493500D02*
X8363500Y3453500D01*
X8363500Y3493500D02*
X8323500Y3453500D01*
X8323500Y1493500D02*
X8363500Y1453500D01*
X8363500Y1493500D02*
X8323500Y1453500D01*
X8364500Y9868500D02*
X8404500Y9828500D01*
X8404500Y9868500D02*
X8364500Y9828500D01*
X8364500Y7868500D02*
X8404500Y7828500D01*
X8404500Y7868500D02*
X8364500Y7828500D01*
X8364500Y5868500D02*
X8404500Y5828500D01*
X8404500Y5868500D02*
X8364500Y5828500D01*
X8364500Y3868500D02*
X8404500Y3828500D01*
X8404500Y3868500D02*
X8364500Y3828500D01*
X8364500Y1868500D02*
X8404500Y1828500D01*
X8404500Y1868500D02*
X8364500Y1828500D01*
X8426500Y9494500D02*
X8466500Y9454500D01*
X8466500Y9494500D02*
X8426500Y9454500D01*
X8426500Y7494500D02*
X8466500Y7454500D01*
X8466500Y7494500D02*
X8426500Y7454500D01*
X8426500Y5494500D02*
X8466500Y5454500D01*
X8466500Y5494500D02*
X8426500Y5454500D01*
X8426500Y3494500D02*
X8466500Y3454500D01*
X8466500Y3494500D02*
X8426500Y3454500D01*
X8426500Y1494500D02*
X8466500Y1454500D01*
X8466500Y1494500D02*
X8426500Y1454500D01*
X8490500Y9872500D02*
X8530500Y9832500D01*
X8530500Y9872500D02*
X8490500Y9832500D01*
X8490500Y7872500D02*
X8530500Y7832500D01*
X8530500Y7872500D02*
X8490500Y7832500D01*
X8490500Y5872500D02*
X8530500Y5832500D01*
X8530500Y5872500D02*
X8490500Y5832500D01*
X8490500Y3872500D02*
X8530500Y3832500D01*
X8530500Y3872500D02*
X8490500Y3832500D01*
X8490500Y1872500D02*
X8530500Y1832500D01*
X8530500Y1872500D02*
X8490500Y1832500D01*
X8998500Y9493500D02*
X9038500Y9453500D01*
X9038500Y9493500D02*
X8998500Y9453500D01*
X8998500Y7493500D02*
X9038500Y7453500D01*
X9038500Y7493500D02*
X8998500Y7453500D01*
X8998500Y5493500D02*
X9038500Y5453500D01*
X9038500Y5493500D02*
X8998500Y5453500D01*
X8998500Y3493500D02*
X9038500Y3453500D01*
X9038500Y3493500D02*
X8998500Y3453500D01*
X8998500Y1493500D02*
X9038500Y1453500D01*
X9038500Y1493500D02*
X8998500Y1453500D01*
X9199500Y9489500D02*
X9239500Y9449500D01*
X9239500Y9489500D02*
X9199500Y9449500D01*
X9199500Y7489500D02*
X9239500Y7449500D01*
X9239500Y7489500D02*
X9199500Y7449500D01*
X9199500Y5489500D02*
X9239500Y5449500D01*
X9239500Y5489500D02*
X9199500Y5449500D01*
X9199500Y3489500D02*
X9239500Y3449500D01*
X9239500Y3489500D02*
X9199500Y3449500D01*
X9199500Y1489500D02*
X9239500Y1449500D01*
X9239500Y1489500D02*
X9199500Y1449500D01*
X9822500Y10121500D02*
X9862500Y10081500D01*
X9862500Y10121500D02*
X9822500Y10081500D01*
X9822500Y8121500D02*
X9862500Y8081500D01*
X9862500Y8121500D02*
X9822500Y8081500D01*
X9822500Y6121500D02*
X9862500Y6081500D01*
X9862500Y6121500D02*
X9822500Y6081500D01*
X9822500Y4121500D02*
X9862500Y4081500D01*
X9862500Y4121500D02*
X9822500Y4081500D01*
X9822500Y2121500D02*
X9862500Y2081500D01*
X9862500Y2121500D02*
X9822500Y2081500D01*
X9824500Y9351500D02*
X9864500Y9311500D01*
X9864500Y9351500D02*
X9824500Y9311500D01*
X9824500Y7351500D02*
X9864500Y7311500D01*
X9864500Y7351500D02*
X9824500Y7311500D01*
X9824500Y5351500D02*
X9864500Y5311500D01*
X9864500Y5351500D02*
X9824500Y5311500D01*
X9824500Y3351500D02*
X9864500Y3311500D01*
X9864500Y3351500D02*
X9824500Y3311500D01*
X9824500Y1351500D02*
X9864500Y1311500D01*
X9864500Y1351500D02*
X9824500Y1311500D01*
X158500Y10589000D02*
G75*
G02*
X63500Y10589000I-47500J0D01*
G01*
X63500Y10589000D02*
G75*
G02*
X158500Y10589000I47500J0D01*
G01*
X158500Y8811000D02*
G75*
G02*
X63500Y8811000I-47500J0D01*
G01*
X63500Y8811000D02*
G75*
G02*
X158500Y8811000I47500J0D01*
G01*
X158500Y8589000D02*
G75*
G02*
X63500Y8589000I-47500J0D01*
G01*
X63500Y8589000D02*
G75*
G02*
X158500Y8589000I47500J0D01*
G01*
X158500Y6811000D02*
G75*
G02*
X63500Y6811000I-47500J0D01*
G01*
X63500Y6811000D02*
G75*
G02*
X158500Y6811000I47500J0D01*
G01*
X158500Y6589000D02*
G75*
G02*
X63500Y6589000I-47500J0D01*
G01*
X63500Y6589000D02*
G75*
G02*
X158500Y6589000I47500J0D01*
G01*
X158500Y4811000D02*
G75*
G02*
X63500Y4811000I-47500J0D01*
G01*
X63500Y4811000D02*
G75*
G02*
X158500Y4811000I47500J0D01*
G01*
X158500Y4589000D02*
G75*
G02*
X63500Y4589000I-47500J0D01*
G01*
X63500Y4589000D02*
G75*
G02*
X158500Y4589000I47500J0D01*
G01*
X158500Y2811000D02*
G75*
G02*
X63500Y2811000I-47500J0D01*
G01*
X63500Y2811000D02*
G75*
G02*
X158500Y2811000I47500J0D01*
G01*
X158500Y2589000D02*
G75*
G02*
X63500Y2589000I-47500J0D01*
G01*
X63500Y2589000D02*
G75*
G02*
X158500Y2589000I47500J0D01*
G01*
X158500Y811000D02*
G75*
G02*
X63500Y811000I-47500J0D01*
G01*
X63500Y811000D02*
G75*
G02*
X158500Y811000I47500J0D01*
G01*
X412500Y10589000D02*
G75*
G02*
X317500Y10589000I-47500J0D01*
G01*
X317500Y10589000D02*
G75*
G02*
X412500Y10589000I47500J0D01*
G01*
X412500Y8589000D02*
G75*
G02*
X317500Y8589000I-47500J0D01*
G01*
X317500Y8589000D02*
G75*
G02*
X412500Y8589000I47500J0D01*
G01*
X412500Y6589000D02*
G75*
G02*
X317500Y6589000I-47500J0D01*
G01*
X317500Y6589000D02*
G75*
G02*
X412500Y6589000I47500J0D01*
G01*
X412500Y4589000D02*
G75*
G02*
X317500Y4589000I-47500J0D01*
G01*
X317500Y4589000D02*
G75*
G02*
X412500Y4589000I47500J0D01*
G01*
X412500Y2589000D02*
G75*
G02*
X317500Y2589000I-47500J0D01*
G01*
X317500Y2589000D02*
G75*
G02*
X412500Y2589000I47500J0D01*
G01*
X1174500Y8811000D02*
G75*
G02*
X1079500Y8811000I-47500J0D01*
G01*
X1079500Y8811000D02*
G75*
G02*
X1174500Y8811000I47500J0D01*
G01*
X1174500Y6811000D02*
G75*
G02*
X1079500Y6811000I-47500J0D01*
G01*
X1079500Y6811000D02*
G75*
G02*
X1174500Y6811000I47500J0D01*
G01*
X1174500Y4811000D02*
G75*
G02*
X1079500Y4811000I-47500J0D01*
G01*
X1079500Y4811000D02*
G75*
G02*
X1174500Y4811000I47500J0D01*
G01*
X1174500Y2811000D02*
G75*
G02*
X1079500Y2811000I-47500J0D01*
G01*
X1079500Y2811000D02*
G75*
G02*
X1174500Y2811000I47500J0D01*
G01*
X1174500Y811000D02*
G75*
G02*
X1079500Y811000I-47500J0D01*
G01*
X1079500Y811000D02*
G75*
G02*
X1174500Y811000I47500J0D01*
G01*
X1428500Y8811000D02*
G75*
G02*
X1333500Y8811000I-47500J0D01*
G01*
X1333500Y8811000D02*
G75*
G02*
X1428500Y8811000I47500J0D01*
G01*
X1428500Y6811000D02*
G75*
G02*
X1333500Y6811000I-47500J0D01*
G01*
X1333500Y6811000D02*
G75*
G02*
X1428500Y6811000I47500J0D01*
G01*
X1428500Y4811000D02*
G75*
G02*
X1333500Y4811000I-47500J0D01*
G01*
X1333500Y4811000D02*
G75*
G02*
X1428500Y4811000I47500J0D01*
G01*
X1428500Y2811000D02*
G75*
G02*
X1333500Y2811000I-47500J0D01*
G01*
X1333500Y2811000D02*
G75*
G02*
X1428500Y2811000I47500J0D01*
G01*
X1428500Y811000D02*
G75*
G02*
X1333500Y811000I-47500J0D01*
G01*
X1333500Y811000D02*
G75*
G02*
X1428500Y811000I47500J0D01*
G01*
X1682500Y10589000D02*
G75*
G02*
X1587500Y10589000I-47500J0D01*
G01*
X1587500Y10589000D02*
G75*
G02*
X1682500Y10589000I47500J0D01*
G01*
X1682500Y8811000D02*
G75*
G02*
X1587500Y8811000I-47500J0D01*
G01*
X1587500Y8811000D02*
G75*
G02*
X1682500Y8811000I47500J0D01*
G01*
X1682500Y8589000D02*
G75*
G02*
X1587500Y8589000I-47500J0D01*
G01*
X1587500Y8589000D02*
G75*
G02*
X1682500Y8589000I47500J0D01*
G01*
X1682500Y6811000D02*
G75*
G02*
X1587500Y6811000I-47500J0D01*
G01*
X1587500Y6811000D02*
G75*
G02*
X1682500Y6811000I47500J0D01*
G01*
X1682500Y6589000D02*
G75*
G02*
X1587500Y6589000I-47500J0D01*
G01*
X1587500Y6589000D02*
G75*
G02*
X1682500Y6589000I47500J0D01*
G01*
X1682500Y4811000D02*
G75*
G02*
X1587500Y4811000I-47500J0D01*
G01*
X1587500Y4811000D02*
G75*
G02*
X1682500Y4811000I47500J0D01*
G01*
X1682500Y4589000D02*
G75*
G02*
X1587500Y4589000I-47500J0D01*
G01*
X1587500Y4589000D02*
G75*
G02*
X1682500Y4589000I47500J0D01*
G01*
X1682500Y2811000D02*
G75*
G02*
X1587500Y2811000I-47500J0D01*
G01*
X1587500Y2811000D02*
G75*
G02*
X1682500Y2811000I47500J0D01*
G01*
X1682500Y2589000D02*
G75*
G02*
X1587500Y2589000I-47500J0D01*
G01*
X1587500Y2589000D02*
G75*
G02*
X1682500Y2589000I47500J0D01*
G01*
X1682500Y811000D02*
G75*
G02*
X1587500Y811000I-47500J0D01*
G01*
X1587500Y811000D02*
G75*
G02*
X1682500Y811000I47500J0D01*
G01*
X1936500Y10589000D02*
G75*
G02*
X1841500Y10589000I-47500J0D01*
G01*
X1841500Y10589000D02*
G75*
G02*
X1936500Y10589000I47500J0D01*
G01*
X1936500Y8811000D02*
G75*
G02*
X1841500Y8811000I-47500J0D01*
G01*
X1841500Y8811000D02*
G75*
G02*
X1936500Y8811000I47500J0D01*
G01*
X1936500Y8589000D02*
G75*
G02*
X1841500Y8589000I-47500J0D01*
G01*
X1841500Y8589000D02*
G75*
G02*
X1936500Y8589000I47500J0D01*
G01*
X1936500Y6811000D02*
G75*
G02*
X1841500Y6811000I-47500J0D01*
G01*
X1841500Y6811000D02*
G75*
G02*
X1936500Y6811000I47500J0D01*
G01*
X1936500Y6589000D02*
G75*
G02*
X1841500Y6589000I-47500J0D01*
G01*
X1841500Y6589000D02*
G75*
G02*
X1936500Y6589000I47500J0D01*
G01*
X1936500Y4811000D02*
G75*
G02*
X1841500Y4811000I-47500J0D01*
G01*
X1841500Y4811000D02*
G75*
G02*
X1936500Y4811000I47500J0D01*
G01*
X1936500Y4589000D02*
G75*
G02*
X1841500Y4589000I-47500J0D01*
G01*
X1841500Y4589000D02*
G75*
G02*
X1936500Y4589000I47500J0D01*
G01*
X1936500Y2811000D02*
G75*
G02*
X1841500Y2811000I-47500J0D01*
G01*
X1841500Y2811000D02*
G75*
G02*
X1936500Y2811000I47500J0D01*
G01*
X1936500Y2589000D02*
G75*
G02*
X1841500Y2589000I-47500J0D01*
G01*
X1841500Y2589000D02*
G75*
G02*
X1936500Y2589000I47500J0D01*
G01*
X1936500Y811000D02*
G75*
G02*
X1841500Y811000I-47500J0D01*
G01*
X1841500Y811000D02*
G75*
G02*
X1936500Y811000I47500J0D01*
G01*
X2158500Y10589000D02*
G75*
G02*
X2063500Y10589000I-47500J0D01*
G01*
X2063500Y10589000D02*
G75*
G02*
X2158500Y10589000I47500J0D01*
G01*
X2158500Y8811000D02*
G75*
G02*
X2063500Y8811000I-47500J0D01*
G01*
X2063500Y8811000D02*
G75*
G02*
X2158500Y8811000I47500J0D01*
G01*
X2158500Y8589000D02*
G75*
G02*
X2063500Y8589000I-47500J0D01*
G01*
X2063500Y8589000D02*
G75*
G02*
X2158500Y8589000I47500J0D01*
G01*
X2158500Y6811000D02*
G75*
G02*
X2063500Y6811000I-47500J0D01*
G01*
X2063500Y6811000D02*
G75*
G02*
X2158500Y6811000I47500J0D01*
G01*
X2158500Y6589000D02*
G75*
G02*
X2063500Y6589000I-47500J0D01*
G01*
X2063500Y6589000D02*
G75*
G02*
X2158500Y6589000I47500J0D01*
G01*
X2158500Y4811000D02*
G75*
G02*
X2063500Y4811000I-47500J0D01*
G01*
X2063500Y4811000D02*
G75*
G02*
X2158500Y4811000I47500J0D01*
G01*
X2158500Y4589000D02*
G75*
G02*
X2063500Y4589000I-47500J0D01*
G01*
X2063500Y4589000D02*
G75*
G02*
X2158500Y4589000I47500J0D01*
G01*
X2158500Y2811000D02*
G75*
G02*
X2063500Y2811000I-47500J0D01*
G01*
X2063500Y2811000D02*
G75*
G02*
X2158500Y2811000I47500J0D01*
G01*
X2158500Y2589000D02*
G75*
G02*
X2063500Y2589000I-47500J0D01*
G01*
X2063500Y2589000D02*
G75*
G02*
X2158500Y2589000I47500J0D01*
G01*
X2158500Y811000D02*
G75*
G02*
X2063500Y811000I-47500J0D01*
G01*
X2063500Y811000D02*
G75*
G02*
X2158500Y811000I47500J0D01*
G01*
X2412500Y10589000D02*
G75*
G02*
X2317500Y10589000I-47500J0D01*
G01*
X2317500Y10589000D02*
G75*
G02*
X2412500Y10589000I47500J0D01*
G01*
X2412500Y8589000D02*
G75*
G02*
X2317500Y8589000I-47500J0D01*
G01*
X2317500Y8589000D02*
G75*
G02*
X2412500Y8589000I47500J0D01*
G01*
X2412500Y6589000D02*
G75*
G02*
X2317500Y6589000I-47500J0D01*
G01*
X2317500Y6589000D02*
G75*
G02*
X2412500Y6589000I47500J0D01*
G01*
X2412500Y4589000D02*
G75*
G02*
X2317500Y4589000I-47500J0D01*
G01*
X2317500Y4589000D02*
G75*
G02*
X2412500Y4589000I47500J0D01*
G01*
X2412500Y2589000D02*
G75*
G02*
X2317500Y2589000I-47500J0D01*
G01*
X2317500Y2589000D02*
G75*
G02*
X2412500Y2589000I47500J0D01*
G01*
X3174500Y8811000D02*
G75*
G02*
X3079500Y8811000I-47500J0D01*
G01*
X3079500Y8811000D02*
G75*
G02*
X3174500Y8811000I47500J0D01*
G01*
X3174500Y6811000D02*
G75*
G02*
X3079500Y6811000I-47500J0D01*
G01*
X3079500Y6811000D02*
G75*
G02*
X3174500Y6811000I47500J0D01*
G01*
X3174500Y4811000D02*
G75*
G02*
X3079500Y4811000I-47500J0D01*
G01*
X3079500Y4811000D02*
G75*
G02*
X3174500Y4811000I47500J0D01*
G01*
X3174500Y2811000D02*
G75*
G02*
X3079500Y2811000I-47500J0D01*
G01*
X3079500Y2811000D02*
G75*
G02*
X3174500Y2811000I47500J0D01*
G01*
X3174500Y811000D02*
G75*
G02*
X3079500Y811000I-47500J0D01*
G01*
X3079500Y811000D02*
G75*
G02*
X3174500Y811000I47500J0D01*
G01*
X3428500Y8811000D02*
G75*
G02*
X3333500Y8811000I-47500J0D01*
G01*
X3333500Y8811000D02*
G75*
G02*
X3428500Y8811000I47500J0D01*
G01*
X3428500Y6811000D02*
G75*
G02*
X3333500Y6811000I-47500J0D01*
G01*
X3333500Y6811000D02*
G75*
G02*
X3428500Y6811000I47500J0D01*
G01*
X3428500Y4811000D02*
G75*
G02*
X3333500Y4811000I-47500J0D01*
G01*
X3333500Y4811000D02*
G75*
G02*
X3428500Y4811000I47500J0D01*
G01*
X3428500Y2811000D02*
G75*
G02*
X3333500Y2811000I-47500J0D01*
G01*
X3333500Y2811000D02*
G75*
G02*
X3428500Y2811000I47500J0D01*
G01*
X3428500Y811000D02*
G75*
G02*
X3333500Y811000I-47500J0D01*
G01*
X3333500Y811000D02*
G75*
G02*
X3428500Y811000I47500J0D01*
G01*
X3682500Y10589000D02*
G75*
G02*
X3587500Y10589000I-47500J0D01*
G01*
X3587500Y10589000D02*
G75*
G02*
X3682500Y10589000I47500J0D01*
G01*
X3682500Y8811000D02*
G75*
G02*
X3587500Y8811000I-47500J0D01*
G01*
X3587500Y8811000D02*
G75*
G02*
X3682500Y8811000I47500J0D01*
G01*
X3682500Y8589000D02*
G75*
G02*
X3587500Y8589000I-47500J0D01*
G01*
X3587500Y8589000D02*
G75*
G02*
X3682500Y8589000I47500J0D01*
G01*
X3682500Y6811000D02*
G75*
G02*
X3587500Y6811000I-47500J0D01*
G01*
X3587500Y6811000D02*
G75*
G02*
X3682500Y6811000I47500J0D01*
G01*
X3682500Y6589000D02*
G75*
G02*
X3587500Y6589000I-47500J0D01*
G01*
X3587500Y6589000D02*
G75*
G02*
X3682500Y6589000I47500J0D01*
G01*
X3682500Y4811000D02*
G75*
G02*
X3587500Y4811000I-47500J0D01*
G01*
X3587500Y4811000D02*
G75*
G02*
X3682500Y4811000I47500J0D01*
G01*
X3682500Y4589000D02*
G75*
G02*
X3587500Y4589000I-47500J0D01*
G01*
X3587500Y4589000D02*
G75*
G02*
X3682500Y4589000I47500J0D01*
G01*
X3682500Y2811000D02*
G75*
G02*
X3587500Y2811000I-47500J0D01*
G01*
X3587500Y2811000D02*
G75*
G02*
X3682500Y2811000I47500J0D01*
G01*
X3682500Y2589000D02*
G75*
G02*
X3587500Y2589000I-47500J0D01*
G01*
X3587500Y2589000D02*
G75*
G02*
X3682500Y2589000I47500J0D01*
G01*
X3682500Y811000D02*
G75*
G02*
X3587500Y811000I-47500J0D01*
G01*
X3587500Y811000D02*
G75*
G02*
X3682500Y811000I47500J0D01*
G01*
X3936500Y10589000D02*
G75*
G02*
X3841500Y10589000I-47500J0D01*
G01*
X3841500Y10589000D02*
G75*
G02*
X3936500Y10589000I47500J0D01*
G01*
X3936500Y8811000D02*
G75*
G02*
X3841500Y8811000I-47500J0D01*
G01*
X3841500Y8811000D02*
G75*
G02*
X3936500Y8811000I47500J0D01*
G01*
X3936500Y8589000D02*
G75*
G02*
X3841500Y8589000I-47500J0D01*
G01*
X3841500Y8589000D02*
G75*
G02*
X3936500Y8589000I47500J0D01*
G01*
X3936500Y6811000D02*
G75*
G02*
X3841500Y6811000I-47500J0D01*
G01*
X3841500Y6811000D02*
G75*
G02*
X3936500Y6811000I47500J0D01*
G01*
X3936500Y6589000D02*
G75*
G02*
X3841500Y6589000I-47500J0D01*
G01*
X3841500Y6589000D02*
G75*
G02*
X3936500Y6589000I47500J0D01*
G01*
X3936500Y4811000D02*
G75*
G02*
X3841500Y4811000I-47500J0D01*
G01*
X3841500Y4811000D02*
G75*
G02*
X3936500Y4811000I47500J0D01*
G01*
X3936500Y4589000D02*
G75*
G02*
X3841500Y4589000I-47500J0D01*
G01*
X3841500Y4589000D02*
G75*
G02*
X3936500Y4589000I47500J0D01*
G01*
X3936500Y2811000D02*
G75*
G02*
X3841500Y2811000I-47500J0D01*
G01*
X3841500Y2811000D02*
G75*
G02*
X3936500Y2811000I47500J0D01*
G01*
X3936500Y2589000D02*
G75*
G02*
X3841500Y2589000I-47500J0D01*
G01*
X3841500Y2589000D02*
G75*
G02*
X3936500Y2589000I47500J0D01*
G01*
X3936500Y811000D02*
G75*
G02*
X3841500Y811000I-47500J0D01*
G01*
X3841500Y811000D02*
G75*
G02*
X3936500Y811000I47500J0D01*
G01*
X4158500Y10589000D02*
G75*
G02*
X4063500Y10589000I-47500J0D01*
G01*
X4063500Y10589000D02*
G75*
G02*
X4158500Y10589000I47500J0D01*
G01*
X4158500Y8811000D02*
G75*
G02*
X4063500Y8811000I-47500J0D01*
G01*
X4063500Y8811000D02*
G75*
G02*
X4158500Y8811000I47500J0D01*
G01*
X4158500Y8589000D02*
G75*
G02*
X4063500Y8589000I-47500J0D01*
G01*
X4063500Y8589000D02*
G75*
G02*
X4158500Y8589000I47500J0D01*
G01*
X4158500Y6811000D02*
G75*
G02*
X4063500Y6811000I-47500J0D01*
G01*
X4063500Y6811000D02*
G75*
G02*
X4158500Y6811000I47500J0D01*
G01*
X4158500Y6589000D02*
G75*
G02*
X4063500Y6589000I-47500J0D01*
G01*
X4063500Y6589000D02*
G75*
G02*
X4158500Y6589000I47500J0D01*
G01*
X4158500Y4811000D02*
G75*
G02*
X4063500Y4811000I-47500J0D01*
G01*
X4063500Y4811000D02*
G75*
G02*
X4158500Y4811000I47500J0D01*
G01*
X4158500Y4589000D02*
G75*
G02*
X4063500Y4589000I-47500J0D01*
G01*
X4063500Y4589000D02*
G75*
G02*
X4158500Y4589000I47500J0D01*
G01*
X4158500Y2811000D02*
G75*
G02*
X4063500Y2811000I-47500J0D01*
G01*
X4063500Y2811000D02*
G75*
G02*
X4158500Y2811000I47500J0D01*
G01*
X4158500Y2589000D02*
G75*
G02*
X4063500Y2589000I-47500J0D01*
G01*
X4063500Y2589000D02*
G75*
G02*
X4158500Y2589000I47500J0D01*
G01*
X4158500Y811000D02*
G75*
G02*
X4063500Y811000I-47500J0D01*
G01*
X4063500Y811000D02*
G75*
G02*
X4158500Y811000I47500J0D01*
G01*
X4412500Y10589000D02*
G75*
G02*
X4317500Y10589000I-47500J0D01*
G01*
X4317500Y10589000D02*
G75*
G02*
X4412500Y10589000I47500J0D01*
G01*
X4412500Y8589000D02*
G75*
G02*
X4317500Y8589000I-47500J0D01*
G01*
X4317500Y8589000D02*
G75*
G02*
X4412500Y8589000I47500J0D01*
G01*
X4412500Y6589000D02*
G75*
G02*
X4317500Y6589000I-47500J0D01*
G01*
X4317500Y6589000D02*
G75*
G02*
X4412500Y6589000I47500J0D01*
G01*
X4412500Y4589000D02*
G75*
G02*
X4317500Y4589000I-47500J0D01*
G01*
X4317500Y4589000D02*
G75*
G02*
X4412500Y4589000I47500J0D01*
G01*
X4412500Y2589000D02*
G75*
G02*
X4317500Y2589000I-47500J0D01*
G01*
X4317500Y2589000D02*
G75*
G02*
X4412500Y2589000I47500J0D01*
G01*
X5174500Y8811000D02*
G75*
G02*
X5079500Y8811000I-47500J0D01*
G01*
X5079500Y8811000D02*
G75*
G02*
X5174500Y8811000I47500J0D01*
G01*
X5174500Y6811000D02*
G75*
G02*
X5079500Y6811000I-47500J0D01*
G01*
X5079500Y6811000D02*
G75*
G02*
X5174500Y6811000I47500J0D01*
G01*
X5174500Y4811000D02*
G75*
G02*
X5079500Y4811000I-47500J0D01*
G01*
X5079500Y4811000D02*
G75*
G02*
X5174500Y4811000I47500J0D01*
G01*
X5174500Y2811000D02*
G75*
G02*
X5079500Y2811000I-47500J0D01*
G01*
X5079500Y2811000D02*
G75*
G02*
X5174500Y2811000I47500J0D01*
G01*
X5174500Y811000D02*
G75*
G02*
X5079500Y811000I-47500J0D01*
G01*
X5079500Y811000D02*
G75*
G02*
X5174500Y811000I47500J0D01*
G01*
X5428500Y8811000D02*
G75*
G02*
X5333500Y8811000I-47500J0D01*
G01*
X5333500Y8811000D02*
G75*
G02*
X5428500Y8811000I47500J0D01*
G01*
X5428500Y6811000D02*
G75*
G02*
X5333500Y6811000I-47500J0D01*
G01*
X5333500Y6811000D02*
G75*
G02*
X5428500Y6811000I47500J0D01*
G01*
X5428500Y4811000D02*
G75*
G02*
X5333500Y4811000I-47500J0D01*
G01*
X5333500Y4811000D02*
G75*
G02*
X5428500Y4811000I47500J0D01*
G01*
X5428500Y2811000D02*
G75*
G02*
X5333500Y2811000I-47500J0D01*
G01*
X5333500Y2811000D02*
G75*
G02*
X5428500Y2811000I47500J0D01*
G01*
X5428500Y811000D02*
G75*
G02*
X5333500Y811000I-47500J0D01*
G01*
X5333500Y811000D02*
G75*
G02*
X5428500Y811000I47500J0D01*
G01*
X5682500Y10589000D02*
G75*
G02*
X5587500Y10589000I-47500J0D01*
G01*
X5587500Y10589000D02*
G75*
G02*
X5682500Y10589000I47500J0D01*
G01*
X5682500Y8811000D02*
G75*
G02*
X5587500Y8811000I-47500J0D01*
G01*
X5587500Y8811000D02*
G75*
G02*
X5682500Y8811000I47500J0D01*
G01*
X5682500Y8589000D02*
G75*
G02*
X5587500Y8589000I-47500J0D01*
G01*
X5587500Y8589000D02*
G75*
G02*
X5682500Y8589000I47500J0D01*
G01*
X5682500Y6811000D02*
G75*
G02*
X5587500Y6811000I-47500J0D01*
G01*
X5587500Y6811000D02*
G75*
G02*
X5682500Y6811000I47500J0D01*
G01*
X5682500Y6589000D02*
G75*
G02*
X5587500Y6589000I-47500J0D01*
G01*
X5587500Y6589000D02*
G75*
G02*
X5682500Y6589000I47500J0D01*
G01*
X5682500Y4811000D02*
G75*
G02*
X5587500Y4811000I-47500J0D01*
G01*
X5587500Y4811000D02*
G75*
G02*
X5682500Y4811000I47500J0D01*
G01*
X5682500Y4589000D02*
G75*
G02*
X5587500Y4589000I-47500J0D01*
G01*
X5587500Y4589000D02*
G75*
G02*
X5682500Y4589000I47500J0D01*
G01*
X5682500Y2811000D02*
G75*
G02*
X5587500Y2811000I-47500J0D01*
G01*
X5587500Y2811000D02*
G75*
G02*
X5682500Y2811000I47500J0D01*
G01*
X5682500Y2589000D02*
G75*
G02*
X5587500Y2589000I-47500J0D01*
G01*
X5587500Y2589000D02*
G75*
G02*
X5682500Y2589000I47500J0D01*
G01*
X5682500Y811000D02*
G75*
G02*
X5587500Y811000I-47500J0D01*
G01*
X5587500Y811000D02*
G75*
G02*
X5682500Y811000I47500J0D01*
G01*
X5936500Y10589000D02*
G75*
G02*
X5841500Y10589000I-47500J0D01*
G01*
X5841500Y10589000D02*
G75*
G02*
X5936500Y10589000I47500J0D01*
G01*
X5936500Y8811000D02*
G75*
G02*
X5841500Y8811000I-47500J0D01*
G01*
X5841500Y8811000D02*
G75*
G02*
X5936500Y8811000I47500J0D01*
G01*
X5936500Y8589000D02*
G75*
G02*
X5841500Y8589000I-47500J0D01*
G01*
X5841500Y8589000D02*
G75*
G02*
X5936500Y8589000I47500J0D01*
G01*
X5936500Y6811000D02*
G75*
G02*
X5841500Y6811000I-47500J0D01*
G01*
X5841500Y6811000D02*
G75*
G02*
X5936500Y6811000I47500J0D01*
G01*
X5936500Y6589000D02*
G75*
G02*
X5841500Y6589000I-47500J0D01*
G01*
X5841500Y6589000D02*
G75*
G02*
X5936500Y6589000I47500J0D01*
G01*
X5936500Y4811000D02*
G75*
G02*
X5841500Y4811000I-47500J0D01*
G01*
X5841500Y4811000D02*
G75*
G02*
X5936500Y4811000I47500J0D01*
G01*
X5936500Y4589000D02*
G75*
G02*
X5841500Y4589000I-47500J0D01*
G01*
X5841500Y4589000D02*
G75*
G02*
X5936500Y4589000I47500J0D01*
G01*
X5936500Y2811000D02*
G75*
G02*
X5841500Y2811000I-47500J0D01*
G01*
X5841500Y2811000D02*
G75*
G02*
X5936500Y2811000I47500J0D01*
G01*
X5936500Y2589000D02*
G75*
G02*
X5841500Y2589000I-47500J0D01*
G01*
X5841500Y2589000D02*
G75*
G02*
X5936500Y2589000I47500J0D01*
G01*
X5936500Y811000D02*
G75*
G02*
X5841500Y811000I-47500J0D01*
G01*
X5841500Y811000D02*
G75*
G02*
X5936500Y811000I47500J0D01*
G01*
X6158500Y10589000D02*
G75*
G02*
X6063500Y10589000I-47500J0D01*
G01*
X6063500Y10589000D02*
G75*
G02*
X6158500Y10589000I47500J0D01*
G01*
X6158500Y8811000D02*
G75*
G02*
X6063500Y8811000I-47500J0D01*
G01*
X6063500Y8811000D02*
G75*
G02*
X6158500Y8811000I47500J0D01*
G01*
X6158500Y8589000D02*
G75*
G02*
X6063500Y8589000I-47500J0D01*
G01*
X6063500Y8589000D02*
G75*
G02*
X6158500Y8589000I47500J0D01*
G01*
X6158500Y6811000D02*
G75*
G02*
X6063500Y6811000I-47500J0D01*
G01*
X6063500Y6811000D02*
G75*
G02*
X6158500Y6811000I47500J0D01*
G01*
X6158500Y6589000D02*
G75*
G02*
X6063500Y6589000I-47500J0D01*
G01*
X6063500Y6589000D02*
G75*
G02*
X6158500Y6589000I47500J0D01*
G01*
X6158500Y4811000D02*
G75*
G02*
X6063500Y4811000I-47500J0D01*
G01*
X6063500Y4811000D02*
G75*
G02*
X6158500Y4811000I47500J0D01*
G01*
X6158500Y4589000D02*
G75*
G02*
X6063500Y4589000I-47500J0D01*
G01*
X6063500Y4589000D02*
G75*
G02*
X6158500Y4589000I47500J0D01*
G01*
X6158500Y2811000D02*
G75*
G02*
X6063500Y2811000I-47500J0D01*
G01*
X6063500Y2811000D02*
G75*
G02*
X6158500Y2811000I47500J0D01*
G01*
X6158500Y2589000D02*
G75*
G02*
X6063500Y2589000I-47500J0D01*
G01*
X6063500Y2589000D02*
G75*
G02*
X6158500Y2589000I47500J0D01*
G01*
X6158500Y811000D02*
G75*
G02*
X6063500Y811000I-47500J0D01*
G01*
X6063500Y811000D02*
G75*
G02*
X6158500Y811000I47500J0D01*
G01*
X6412500Y10589000D02*
G75*
G02*
X6317500Y10589000I-47500J0D01*
G01*
X6317500Y10589000D02*
G75*
G02*
X6412500Y10589000I47500J0D01*
G01*
X6412500Y8589000D02*
G75*
G02*
X6317500Y8589000I-47500J0D01*
G01*
X6317500Y8589000D02*
G75*
G02*
X6412500Y8589000I47500J0D01*
G01*
X6412500Y6589000D02*
G75*
G02*
X6317500Y6589000I-47500J0D01*
G01*
X6317500Y6589000D02*
G75*
G02*
X6412500Y6589000I47500J0D01*
G01*
X6412500Y4589000D02*
G75*
G02*
X6317500Y4589000I-47500J0D01*
G01*
X6317500Y4589000D02*
G75*
G02*
X6412500Y4589000I47500J0D01*
G01*
X6412500Y2589000D02*
G75*
G02*
X6317500Y2589000I-47500J0D01*
G01*
X6317500Y2589000D02*
G75*
G02*
X6412500Y2589000I47500J0D01*
G01*
X7174500Y8811000D02*
G75*
G02*
X7079500Y8811000I-47500J0D01*
G01*
X7079500Y8811000D02*
G75*
G02*
X7174500Y8811000I47500J0D01*
G01*
X7174500Y6811000D02*
G75*
G02*
X7079500Y6811000I-47500J0D01*
G01*
X7079500Y6811000D02*
G75*
G02*
X7174500Y6811000I47500J0D01*
G01*
X7174500Y4811000D02*
G75*
G02*
X7079500Y4811000I-47500J0D01*
G01*
X7079500Y4811000D02*
G75*
G02*
X7174500Y4811000I47500J0D01*
G01*
X7174500Y2811000D02*
G75*
G02*
X7079500Y2811000I-47500J0D01*
G01*
X7079500Y2811000D02*
G75*
G02*
X7174500Y2811000I47500J0D01*
G01*
X7174500Y811000D02*
G75*
G02*
X7079500Y811000I-47500J0D01*
G01*
X7079500Y811000D02*
G75*
G02*
X7174500Y811000I47500J0D01*
G01*
X7428500Y8811000D02*
G75*
G02*
X7333500Y8811000I-47500J0D01*
G01*
X7333500Y8811000D02*
G75*
G02*
X7428500Y8811000I47500J0D01*
G01*
X7428500Y6811000D02*
G75*
G02*
X7333500Y6811000I-47500J0D01*
G01*
X7333500Y6811000D02*
G75*
G02*
X7428500Y6811000I47500J0D01*
G01*
X7428500Y4811000D02*
G75*
G02*
X7333500Y4811000I-47500J0D01*
G01*
X7333500Y4811000D02*
G75*
G02*
X7428500Y4811000I47500J0D01*
G01*
X7428500Y2811000D02*
G75*
G02*
X7333500Y2811000I-47500J0D01*
G01*
X7333500Y2811000D02*
G75*
G02*
X7428500Y2811000I47500J0D01*
G01*
X7428500Y811000D02*
G75*
G02*
X7333500Y811000I-47500J0D01*
G01*
X7333500Y811000D02*
G75*
G02*
X7428500Y811000I47500J0D01*
G01*
X7682500Y10589000D02*
G75*
G02*
X7587500Y10589000I-47500J0D01*
G01*
X7587500Y10589000D02*
G75*
G02*
X7682500Y10589000I47500J0D01*
G01*
X7682500Y8811000D02*
G75*
G02*
X7587500Y8811000I-47500J0D01*
G01*
X7587500Y8811000D02*
G75*
G02*
X7682500Y8811000I47500J0D01*
G01*
X7682500Y8589000D02*
G75*
G02*
X7587500Y8589000I-47500J0D01*
G01*
X7587500Y8589000D02*
G75*
G02*
X7682500Y8589000I47500J0D01*
G01*
X7682500Y6811000D02*
G75*
G02*
X7587500Y6811000I-47500J0D01*
G01*
X7587500Y6811000D02*
G75*
G02*
X7682500Y6811000I47500J0D01*
G01*
X7682500Y6589000D02*
G75*
G02*
X7587500Y6589000I-47500J0D01*
G01*
X7587500Y6589000D02*
G75*
G02*
X7682500Y6589000I47500J0D01*
G01*
X7682500Y4811000D02*
G75*
G02*
X7587500Y4811000I-47500J0D01*
G01*
X7587500Y4811000D02*
G75*
G02*
X7682500Y4811000I47500J0D01*
G01*
X7682500Y4589000D02*
G75*
G02*
X7587500Y4589000I-47500J0D01*
G01*
X7587500Y4589000D02*
G75*
G02*
X7682500Y4589000I47500J0D01*
G01*
X7682500Y2811000D02*
G75*
G02*
X7587500Y2811000I-47500J0D01*
G01*
X7587500Y2811000D02*
G75*
G02*
X7682500Y2811000I47500J0D01*
G01*
X7682500Y2589000D02*
G75*
G02*
X7587500Y2589000I-47500J0D01*
G01*
X7587500Y2589000D02*
G75*
G02*
X7682500Y2589000I47500J0D01*
G01*
X7682500Y811000D02*
G75*
G02*
X7587500Y811000I-47500J0D01*
G01*
X7587500Y811000D02*
G75*
G02*
X7682500Y811000I47500J0D01*
G01*
X7936500Y10589000D02*
G75*
G02*
X7841500Y10589000I-47500J0D01*
G01*
X7841500Y10589000D02*
G75*
G02*
X7936500Y10589000I47500J0D01*
G01*
X7936500Y8811000D02*
G75*
G02*
X7841500Y8811000I-47500J0D01*
G01*
X7841500Y8811000D02*
G75*
G02*
X7936500Y8811000I47500J0D01*
G01*
X7936500Y8589000D02*
G75*
G02*
X7841500Y8589000I-47500J0D01*
G01*
X7841500Y8589000D02*
G75*
G02*
X7936500Y8589000I47500J0D01*
G01*
X7936500Y6811000D02*
G75*
G02*
X7841500Y6811000I-47500J0D01*
G01*
X7841500Y6811000D02*
G75*
G02*
X7936500Y6811000I47500J0D01*
G01*
X7936500Y6589000D02*
G75*
G02*
X7841500Y6589000I-47500J0D01*
G01*
X7841500Y6589000D02*
G75*
G02*
X7936500Y6589000I47500J0D01*
G01*
X7936500Y4811000D02*
G75*
G02*
X7841500Y4811000I-47500J0D01*
G01*
X7841500Y4811000D02*
G75*
G02*
X7936500Y4811000I47500J0D01*
G01*
X7936500Y4589000D02*
G75*
G02*
X7841500Y4589000I-47500J0D01*
G01*
X7841500Y4589000D02*
G75*
G02*
X7936500Y4589000I47500J0D01*
G01*
X7936500Y2811000D02*
G75*
G02*
X7841500Y2811000I-47500J0D01*
G01*
X7841500Y2811000D02*
G75*
G02*
X7936500Y2811000I47500J0D01*
G01*
X7936500Y2589000D02*
G75*
G02*
X7841500Y2589000I-47500J0D01*
G01*
X7841500Y2589000D02*
G75*
G02*
X7936500Y2589000I47500J0D01*
G01*
X7936500Y811000D02*
G75*
G02*
X7841500Y811000I-47500J0D01*
G01*
X7841500Y811000D02*
G75*
G02*
X7936500Y811000I47500J0D01*
G01*
X8158500Y10589000D02*
G75*
G02*
X8063500Y10589000I-47500J0D01*
G01*
X8063500Y10589000D02*
G75*
G02*
X8158500Y10589000I47500J0D01*
G01*
X8158500Y8811000D02*
G75*
G02*
X8063500Y8811000I-47500J0D01*
G01*
X8063500Y8811000D02*
G75*
G02*
X8158500Y8811000I47500J0D01*
G01*
X8158500Y8589000D02*
G75*
G02*
X8063500Y8589000I-47500J0D01*
G01*
X8063500Y8589000D02*
G75*
G02*
X8158500Y8589000I47500J0D01*
G01*
X8158500Y6811000D02*
G75*
G02*
X8063500Y6811000I-47500J0D01*
G01*
X8063500Y6811000D02*
G75*
G02*
X8158500Y6811000I47500J0D01*
G01*
X8158500Y6589000D02*
G75*
G02*
X8063500Y6589000I-47500J0D01*
G01*
X8063500Y6589000D02*
G75*
G02*
X8158500Y6589000I47500J0D01*
G01*
X8158500Y4811000D02*
G75*
G02*
X8063500Y4811000I-47500J0D01*
G01*
X8063500Y4811000D02*
G75*
G02*
X8158500Y4811000I47500J0D01*
G01*
X8158500Y4589000D02*
G75*
G02*
X8063500Y4589000I-47500J0D01*
G01*
X8063500Y4589000D02*
G75*
G02*
X8158500Y4589000I47500J0D01*
G01*
X8158500Y2811000D02*
G75*
G02*
X8063500Y2811000I-47500J0D01*
G01*
X8063500Y2811000D02*
G75*
G02*
X8158500Y2811000I47500J0D01*
G01*
X8158500Y2589000D02*
G75*
G02*
X8063500Y2589000I-47500J0D01*
G01*
X8063500Y2589000D02*
G75*
G02*
X8158500Y2589000I47500J0D01*
G01*
X8158500Y811000D02*
G75*
G02*
X8063500Y811000I-47500J0D01*
G01*
X8063500Y811000D02*
G75*
G02*
X8158500Y811000I47500J0D01*
G01*
X8412500Y10589000D02*
G75*
G02*
X8317500Y10589000I-47500J0D01*
G01*
X8317500Y10589000D02*
G75*
G02*
X8412500Y10589000I47500J0D01*
G01*
X8412500Y8589000D02*
G75*
G02*
X8317500Y8589000I-47500J0D01*
G01*
X8317500Y8589000D02*
G75*
G02*
X8412500Y8589000I47500J0D01*
G01*
X8412500Y6589000D02*
G75*
G02*
X8317500Y6589000I-47500J0D01*
G01*
X8317500Y6589000D02*
G75*
G02*
X8412500Y6589000I47500J0D01*
G01*
X8412500Y4589000D02*
G75*
G02*
X8317500Y4589000I-47500J0D01*
G01*
X8317500Y4589000D02*
G75*
G02*
X8412500Y4589000I47500J0D01*
G01*
X8412500Y2589000D02*
G75*
G02*
X8317500Y2589000I-47500J0D01*
G01*
X8317500Y2589000D02*
G75*
G02*
X8412500Y2589000I47500J0D01*
G01*
X9174500Y8811000D02*
G75*
G02*
X9079500Y8811000I-47500J0D01*
G01*
X9079500Y8811000D02*
G75*
G02*
X9174500Y8811000I47500J0D01*
G01*
X9174500Y6811000D02*
G75*
G02*
X9079500Y6811000I-47500J0D01*
G01*
X9079500Y6811000D02*
G75*
G02*
X9174500Y6811000I47500J0D01*
G01*
X9174500Y4811000D02*
G75*
G02*
X9079500Y4811000I-47500J0D01*
G01*
X9079500Y4811000D02*
G75*
G02*
X9174500Y4811000I47500J0D01*
G01*
X9174500Y2811000D02*
G75*
G02*
X9079500Y2811000I-47500J0D01*
G01*
X9079500Y2811000D02*
G75*
G02*
X9174500Y2811000I47500J0D01*
G01*
X9174500Y811000D02*
G75*
G02*
X9079500Y811000I-47500J0D01*
G01*
X9079500Y811000D02*
G75*
G02*
X9174500Y811000I47500J0D01*
G01*
X9428500Y8811000D02*
G75*
G02*
X9333500Y8811000I-47500J0D01*
G01*
X9333500Y8811000D02*
G75*
G02*
X9428500Y8811000I47500J0D01*
G01*
X9428500Y6811000D02*
G75*
G02*
X9333500Y6811000I-47500J0D01*
G01*
X9333500Y6811000D02*
G75*
G02*
X9428500Y6811000I47500J0D01*
G01*
X9428500Y4811000D02*
G75*
G02*
X9333500Y4811000I-47500J0D01*
G01*
X9333500Y4811000D02*
G75*
G02*
X9428500Y4811000I47500J0D01*
G01*
X9428500Y2811000D02*
G75*
G02*
X9333500Y2811000I-47500J0D01*
G01*
X9333500Y2811000D02*
G75*
G02*
X9428500Y2811000I47500J0D01*
G01*
X9428500Y811000D02*
G75*
G02*
X9333500Y811000I-47500J0D01*
G01*
X9333500Y811000D02*
G75*
G02*
X9428500Y811000I47500J0D01*
G01*
X9682500Y10589000D02*
G75*
G02*
X9587500Y10589000I-47500J0D01*
G01*
X9587500Y10589000D02*
G75*
G02*
X9682500Y10589000I47500J0D01*
G01*
X9682500Y8811000D02*
G75*
G02*
X9587500Y8811000I-47500J0D01*
G01*
X9587500Y8811000D02*
G75*
G02*
X9682500Y8811000I47500J0D01*
G01*
X9682500Y8589000D02*
G75*
G02*
X9587500Y8589000I-47500J0D01*
G01*
X9587500Y8589000D02*
G75*
G02*
X9682500Y8589000I47500J0D01*
G01*
X9682500Y6811000D02*
G75*
G02*
X9587500Y6811000I-47500J0D01*
G01*
X9587500Y6811000D02*
G75*
G02*
X9682500Y6811000I47500J0D01*
G01*
X9682500Y6589000D02*
G75*
G02*
X9587500Y6589000I-47500J0D01*
G01*
X9587500Y6589000D02*
G75*
G02*
X9682500Y6589000I47500J0D01*
G01*
X9682500Y4811000D02*
G75*
G02*
X9587500Y4811000I-47500J0D01*
G01*
X9587500Y4811000D02*
G75*
G02*
X9682500Y4811000I47500J0D01*
G01*
X9682500Y4589000D02*
G75*
G02*
X9587500Y4589000I-47500J0D01*
G01*
X9587500Y4589000D02*
G75*
G02*
X9682500Y4589000I47500J0D01*
G01*
X9682500Y2811000D02*
G75*
G02*
X9587500Y2811000I-47500J0D01*
G01*
X9587500Y2811000D02*
G75*
G02*
X9682500Y2811000I47500J0D01*
G01*
X9682500Y2589000D02*
G75*
G02*
X9587500Y2589000I-47500J0D01*
G01*
X9587500Y2589000D02*
G75*
G02*
X9682500Y2589000I47500J0D01*
G01*
X9682500Y811000D02*
G75*
G02*
X9587500Y811000I-47500J0D01*
G01*
X9587500Y811000D02*
G75*
G02*
X9682500Y811000I47500J0D01*
G01*
X9936500Y10589000D02*
G75*
G02*
X9841500Y10589000I-47500J0D01*
G01*
X9841500Y10589000D02*
G75*
G02*
X9936500Y10589000I47500J0D01*
G01*
X9936500Y8811000D02*
G75*
G02*
X9841500Y8811000I-47500J0D01*
G01*
X9841500Y8811000D02*
G75*
G02*
X9936500Y8811000I47500J0D01*
G01*
X9936500Y8589000D02*
G75*
G02*
X9841500Y8589000I-47500J0D01*
G01*
X9841500Y8589000D02*
G75*
G02*
X9936500Y8589000I47500J0D01*
G01*
X9936500Y6811000D02*
G75*
G02*
X9841500Y6811000I-47500J0D01*
G01*
X9841500Y6811000D02*
G75*
G02*
X9936500Y6811000I47500J0D01*
G01*
X9936500Y6589000D02*
G75*
G02*
X9841500Y6589000I-47500J0D01*
G01*
X9841500Y6589000D02*
G75*
G02*
X9936500Y6589000I47500J0D01*
G01*
X9936500Y4811000D02*
G75*
G02*
X9841500Y4811000I-47500J0D01*
G01*
X9841500Y4811000D02*
G75*
G02*
X9936500Y4811000I47500J0D01*
G01*
X9936500Y4589000D02*
G75*
G02*
X9841500Y4589000I-47500J0D01*
G01*
X9841500Y4589000D02*
G75*
G02*
X9936500Y4589000I47500J0D01*
G01*
X9936500Y2811000D02*
G75*
G02*
X9841500Y2811000I-47500J0D01*
G01*
X9841500Y2811000D02*
G75*
G02*
X9936500Y2811000I47500J0D01*
G01*
X9936500Y2589000D02*
G75*
G02*
X9841500Y2589000I-47500J0D01*
G01*
X9841500Y2589000D02*
G75*
G02*
X9936500Y2589000I47500J0D01*
G01*
X9936500Y811000D02*
G75*
G02*
X9841500Y811000I-47500J0D01*
G01*
X9841500Y811000D02*
G75*
G02*
X9936500Y811000I47500J0D01*
G01*
D11*
X255777Y-316484D02*
X255777Y-116484D01*
X255777Y-116484D02*
X303396Y-116484D01*
X303396Y-116484D02*
X331967Y-126008D01*
X331967Y-126008D02*
X351015Y-145055D01*
X351015Y-145055D02*
X360539Y-164103D01*
X360539Y-164103D02*
X370062Y-202198D01*
X370062Y-202198D02*
X370062Y-230769D01*
X370062Y-230769D02*
X360539Y-268865D01*
X360539Y-268865D02*
X351015Y-287912D01*
X351015Y-287912D02*
X331967Y-306960D01*
X331967Y-306960D02*
X303396Y-316484D01*
X303396Y-316484D02*
X255777Y-316484D01*
X455777Y-316484D02*
X455777Y-183150D01*
X455777Y-221246D02*
X465301Y-202198D01*
X465301Y-202198D02*
X474824Y-192674D01*
X474824Y-192674D02*
X493872Y-183150D01*
X493872Y-183150D02*
X512920Y-183150D01*
X579586Y-316484D02*
X579586Y-183150D01*
X579586Y-116484D02*
X570063Y-126008D01*
X570063Y-126008D02*
X579586Y-135531D01*
X579586Y-135531D02*
X589110Y-126008D01*
X589110Y-126008D02*
X579586Y-116484D01*
X579586Y-116484D02*
X579586Y-135531D01*
X703396Y-316484D02*
X684348Y-306960D01*
X684348Y-306960D02*
X674824Y-287912D01*
X674824Y-287912D02*
X674824Y-116484D01*
X808158Y-316484D02*
X789110Y-306960D01*
X789110Y-306960D02*
X779586Y-287912D01*
X779586Y-287912D02*
X779586Y-116484D01*
X1036729Y-316484D02*
X1036729Y-116484D01*
X1036729Y-116484D02*
X1103396Y-259341D01*
X1103396Y-259341D02*
X1170063Y-116484D01*
X1170063Y-116484D02*
X1170063Y-316484D01*
X1351015Y-316484D02*
X1351015Y-211722D01*
X1351015Y-211722D02*
X1341491Y-192674D01*
X1341491Y-192674D02*
X1322444Y-183150D01*
X1322444Y-183150D02*
X1284348Y-183150D01*
X1284348Y-183150D02*
X1265301Y-192674D01*
X1351015Y-306960D02*
X1331967Y-316484D01*
X1331967Y-316484D02*
X1284348Y-316484D01*
X1284348Y-316484D02*
X1265301Y-306960D01*
X1265301Y-306960D02*
X1255777Y-287912D01*
X1255777Y-287912D02*
X1255777Y-268865D01*
X1255777Y-268865D02*
X1265301Y-249817D01*
X1265301Y-249817D02*
X1284348Y-240293D01*
X1284348Y-240293D02*
X1331967Y-240293D01*
X1331967Y-240293D02*
X1351015Y-230769D01*
X1446253Y-183150D02*
X1446253Y-383150D01*
X1446253Y-192674D02*
X1465301Y-183150D01*
X1465301Y-183150D02*
X1503396Y-183150D01*
X1503396Y-183150D02*
X1522443Y-192674D01*
X1522443Y-192674D02*
X1531967Y-202198D01*
X1531967Y-202198D02*
X1541491Y-221246D01*
X1541491Y-221246D02*
X1541491Y-278389D01*
X1541491Y-278389D02*
X1531967Y-297436D01*
X1531967Y-297436D02*
X1522443Y-306960D01*
X1522443Y-306960D02*
X1503396Y-316484D01*
X1503396Y-316484D02*
X1465301Y-316484D01*
X1465301Y-316484D02*
X1446253Y-306960D01*
X1627205Y-297436D02*
X1636729Y-306960D01*
X1636729Y-306960D02*
X1627205Y-316484D01*
X1627205Y-316484D02*
X1617682Y-306960D01*
X1617682Y-306960D02*
X1627205Y-297436D01*
X1627205Y-297436D02*
X1627205Y-316484D01*
X1627205Y-192674D02*
X1636729Y-202198D01*
X1636729Y-202198D02*
X1627205Y-211722D01*
X1627205Y-211722D02*
X1617682Y-202198D01*
X1617682Y-202198D02*
X1627205Y-192674D01*
X1627205Y-192674D02*
X1627205Y-211722D01*
D10*
X-45000Y-625000D02*
X-5000Y-665000D01*
X-5000Y-625000D02*
X-45000Y-665000D01*
D11*
X293872Y-536484D02*
X312920Y-536484D01*
X312920Y-536484D02*
X331967Y-546008D01*
X331967Y-546008D02*
X341491Y-555531D01*
X341491Y-555531D02*
X351015Y-574579D01*
X351015Y-574579D02*
X360539Y-612674D01*
X360539Y-612674D02*
X360539Y-660293D01*
X360539Y-660293D02*
X351015Y-698389D01*
X351015Y-698389D02*
X341491Y-717436D01*
X341491Y-717436D02*
X331967Y-726960D01*
X331967Y-726960D02*
X312920Y-736484D01*
X312920Y-736484D02*
X293872Y-736484D01*
X293872Y-736484D02*
X274824Y-726960D01*
X274824Y-726960D02*
X265301Y-717436D01*
X265301Y-717436D02*
X255777Y-698389D01*
X255777Y-698389D02*
X246253Y-660293D01*
X246253Y-660293D02*
X246253Y-612674D01*
X246253Y-612674D02*
X255777Y-574579D01*
X255777Y-574579D02*
X265301Y-555531D01*
X265301Y-555531D02*
X274824Y-546008D01*
X274824Y-546008D02*
X293872Y-536484D01*
X446253Y-717436D02*
X455777Y-726960D01*
X455777Y-726960D02*
X446253Y-736484D01*
X446253Y-736484D02*
X436729Y-726960D01*
X436729Y-726960D02*
X446253Y-717436D01*
X446253Y-717436D02*
X446253Y-736484D01*
X627205Y-603150D02*
X627205Y-736484D01*
X579586Y-526960D02*
X531967Y-669817D01*
X531967Y-669817D02*
X655777Y-669817D01*
X770062Y-536484D02*
X789110Y-536484D01*
X789110Y-536484D02*
X808158Y-546008D01*
X808158Y-546008D02*
X817682Y-555531D01*
X817682Y-555531D02*
X827205Y-574579D01*
X827205Y-574579D02*
X836729Y-612674D01*
X836729Y-612674D02*
X836729Y-660293D01*
X836729Y-660293D02*
X827205Y-698389D01*
X827205Y-698389D02*
X817682Y-717436D01*
X817682Y-717436D02*
X808158Y-726960D01*
X808158Y-726960D02*
X789110Y-736484D01*
X789110Y-736484D02*
X770062Y-736484D01*
X770062Y-736484D02*
X751015Y-726960D01*
X751015Y-726960D02*
X741491Y-717436D01*
X741491Y-717436D02*
X731967Y-698389D01*
X731967Y-698389D02*
X722443Y-660293D01*
X722443Y-660293D02*
X722443Y-612674D01*
X722443Y-612674D02*
X731967Y-574579D01*
X731967Y-574579D02*
X741491Y-555531D01*
X741491Y-555531D02*
X751015Y-546008D01*
X751015Y-546008D02*
X770062Y-536484D01*
X960539Y-536484D02*
X979586Y-536484D01*
X979586Y-536484D02*
X998634Y-546008D01*
X998634Y-546008D02*
X1008158Y-555531D01*
X1008158Y-555531D02*
X1017682Y-574579D01*
X1017682Y-574579D02*
X1027205Y-612674D01*
X1027205Y-612674D02*
X1027205Y-660293D01*
X1027205Y-660293D02*
X1017682Y-698389D01*
X1017682Y-698389D02*
X1008158Y-717436D01*
X1008158Y-717436D02*
X998634Y-726960D01*
X998634Y-726960D02*
X979586Y-736484D01*
X979586Y-736484D02*
X960539Y-736484D01*
X960539Y-736484D02*
X941491Y-726960D01*
X941491Y-726960D02*
X931967Y-717436D01*
X931967Y-717436D02*
X922443Y-698389D01*
X922443Y-698389D02*
X912920Y-660293D01*
X912920Y-660293D02*
X912920Y-612674D01*
X912920Y-612674D02*
X922443Y-574579D01*
X922443Y-574579D02*
X931967Y-555531D01*
X931967Y-555531D02*
X941491Y-546008D01*
X941491Y-546008D02*
X960539Y-536484D01*
X1112920Y-736484D02*
X1112920Y-603150D01*
X1112920Y-622198D02*
X1122444Y-612674D01*
X1122444Y-612674D02*
X1141491Y-603150D01*
X1141491Y-603150D02*
X1170063Y-603150D01*
X1170063Y-603150D02*
X1189110Y-612674D01*
X1189110Y-612674D02*
X1198634Y-631722D01*
X1198634Y-631722D02*
X1198634Y-736484D01*
X1198634Y-631722D02*
X1208158Y-612674D01*
X1208158Y-612674D02*
X1227205Y-603150D01*
X1227205Y-603150D02*
X1255777Y-603150D01*
X1255777Y-603150D02*
X1274825Y-612674D01*
X1274825Y-612674D02*
X1284348Y-631722D01*
X1284348Y-631722D02*
X1284348Y-736484D01*
X1379586Y-736484D02*
X1379586Y-603150D01*
X1379586Y-622198D02*
X1389110Y-612674D01*
X1389110Y-612674D02*
X1408158Y-603150D01*
X1408158Y-603150D02*
X1436729Y-603150D01*
X1436729Y-603150D02*
X1455777Y-612674D01*
X1455777Y-612674D02*
X1465301Y-631722D01*
X1465301Y-631722D02*
X1465301Y-736484D01*
X1465301Y-631722D02*
X1474824Y-612674D01*
X1474824Y-612674D02*
X1493872Y-603150D01*
X1493872Y-603150D02*
X1522443Y-603150D01*
X1522443Y-603150D02*
X1541491Y-612674D01*
X1541491Y-612674D02*
X1551015Y-631722D01*
X1551015Y-631722D02*
X1551015Y-736484D01*
X1941491Y-526960D02*
X1770063Y-784103D01*
X2198634Y-536484D02*
X2217682Y-536484D01*
X2217682Y-536484D02*
X2236729Y-546008D01*
X2236729Y-546008D02*
X2246253Y-555531D01*
X2246253Y-555531D02*
X2255777Y-574579D01*
X2255777Y-574579D02*
X2265301Y-612674D01*
X2265301Y-612674D02*
X2265301Y-660293D01*
X2265301Y-660293D02*
X2255777Y-698389D01*
X2255777Y-698389D02*
X2246253Y-717436D01*
X2246253Y-717436D02*
X2236729Y-726960D01*
X2236729Y-726960D02*
X2217682Y-736484D01*
X2217682Y-736484D02*
X2198634Y-736484D01*
X2198634Y-736484D02*
X2179587Y-726960D01*
X2179587Y-726960D02*
X2170063Y-717436D01*
X2170063Y-717436D02*
X2160539Y-698389D01*
X2160539Y-698389D02*
X2151015Y-660293D01*
X2151015Y-660293D02*
X2151015Y-612674D01*
X2151015Y-612674D02*
X2160539Y-574579D01*
X2160539Y-574579D02*
X2170063Y-555531D01*
X2170063Y-555531D02*
X2179587Y-546008D01*
X2179587Y-546008D02*
X2198634Y-536484D01*
X2351015Y-717436D02*
X2360539Y-726960D01*
X2360539Y-726960D02*
X2351015Y-736484D01*
X2351015Y-736484D02*
X2341491Y-726960D01*
X2341491Y-726960D02*
X2351015Y-717436D01*
X2351015Y-717436D02*
X2351015Y-736484D01*
X2484348Y-536484D02*
X2503396Y-536484D01*
X2503396Y-536484D02*
X2522444Y-546008D01*
X2522444Y-546008D02*
X2531968Y-555531D01*
X2531968Y-555531D02*
X2541491Y-574579D01*
X2541491Y-574579D02*
X2551015Y-612674D01*
X2551015Y-612674D02*
X2551015Y-660293D01*
X2551015Y-660293D02*
X2541491Y-698389D01*
X2541491Y-698389D02*
X2531968Y-717436D01*
X2531968Y-717436D02*
X2522444Y-726960D01*
X2522444Y-726960D02*
X2503396Y-736484D01*
X2503396Y-736484D02*
X2484348Y-736484D01*
X2484348Y-736484D02*
X2465301Y-726960D01*
X2465301Y-726960D02*
X2455777Y-717436D01*
X2455777Y-717436D02*
X2446253Y-698389D01*
X2446253Y-698389D02*
X2436729Y-660293D01*
X2436729Y-660293D02*
X2436729Y-612674D01*
X2436729Y-612674D02*
X2446253Y-574579D01*
X2446253Y-574579D02*
X2455777Y-555531D01*
X2455777Y-555531D02*
X2465301Y-546008D01*
X2465301Y-546008D02*
X2484348Y-536484D01*
X2741491Y-736484D02*
X2627206Y-736484D01*
X2684348Y-736484D02*
X2684348Y-536484D01*
X2684348Y-536484D02*
X2665301Y-565055D01*
X2665301Y-565055D02*
X2646253Y-584103D01*
X2646253Y-584103D02*
X2627206Y-593627D01*
X2922444Y-536484D02*
X2827206Y-536484D01*
X2827206Y-536484D02*
X2817682Y-631722D01*
X2817682Y-631722D02*
X2827206Y-622198D01*
X2827206Y-622198D02*
X2846253Y-612674D01*
X2846253Y-612674D02*
X2893872Y-612674D01*
X2893872Y-612674D02*
X2912920Y-622198D01*
X2912920Y-622198D02*
X2922444Y-631722D01*
X2922444Y-631722D02*
X2931967Y-650770D01*
X2931967Y-650770D02*
X2931967Y-698389D01*
X2931967Y-698389D02*
X2922444Y-717436D01*
X2922444Y-717436D02*
X2912920Y-726960D01*
X2912920Y-726960D02*
X2893872Y-736484D01*
X2893872Y-736484D02*
X2846253Y-736484D01*
X2846253Y-736484D02*
X2827206Y-726960D01*
X2827206Y-726960D02*
X2817682Y-717436D01*
X2998634Y-536484D02*
X3131967Y-536484D01*
X3131967Y-536484D02*
X3046253Y-736484D01*
X3198634Y-536484D02*
X3198634Y-574579D01*
X3274825Y-536484D02*
X3274825Y-574579D01*
X3570063Y-812674D02*
X3560539Y-803150D01*
X3560539Y-803150D02*
X3541491Y-774579D01*
X3541491Y-774579D02*
X3531968Y-755531D01*
X3531968Y-755531D02*
X3522444Y-726960D01*
X3522444Y-726960D02*
X3512920Y-679341D01*
X3512920Y-679341D02*
X3512920Y-641246D01*
X3512920Y-641246D02*
X3522444Y-593627D01*
X3522444Y-593627D02*
X3531968Y-565055D01*
X3531968Y-565055D02*
X3541491Y-546008D01*
X3541491Y-546008D02*
X3560539Y-517436D01*
X3560539Y-517436D02*
X3570063Y-507912D01*
X3636729Y-555531D02*
X3646253Y-546008D01*
X3646253Y-546008D02*
X3665301Y-536484D01*
X3665301Y-536484D02*
X3712920Y-536484D01*
X3712920Y-536484D02*
X3731968Y-546008D01*
X3731968Y-546008D02*
X3741491Y-555531D01*
X3741491Y-555531D02*
X3751015Y-574579D01*
X3751015Y-574579D02*
X3751015Y-593627D01*
X3751015Y-593627D02*
X3741491Y-622198D01*
X3741491Y-622198D02*
X3627206Y-736484D01*
X3627206Y-736484D02*
X3751015Y-736484D01*
X3827206Y-555531D02*
X3836729Y-546008D01*
X3836729Y-546008D02*
X3855777Y-536484D01*
X3855777Y-536484D02*
X3903396Y-536484D01*
X3903396Y-536484D02*
X3922444Y-546008D01*
X3922444Y-546008D02*
X3931968Y-555531D01*
X3931968Y-555531D02*
X3941491Y-574579D01*
X3941491Y-574579D02*
X3941491Y-593627D01*
X3941491Y-593627D02*
X3931968Y-622198D01*
X3931968Y-622198D02*
X3817682Y-736484D01*
X3817682Y-736484D02*
X3941491Y-736484D01*
X4122444Y-536484D02*
X4027206Y-536484D01*
X4027206Y-536484D02*
X4017682Y-631722D01*
X4017682Y-631722D02*
X4027206Y-622198D01*
X4027206Y-622198D02*
X4046253Y-612674D01*
X4046253Y-612674D02*
X4093872Y-612674D01*
X4093872Y-612674D02*
X4112920Y-622198D01*
X4112920Y-622198D02*
X4122444Y-631722D01*
X4122444Y-631722D02*
X4131968Y-650770D01*
X4131968Y-650770D02*
X4131968Y-698389D01*
X4131968Y-698389D02*
X4122444Y-717436D01*
X4122444Y-717436D02*
X4112920Y-726960D01*
X4112920Y-726960D02*
X4093872Y-736484D01*
X4093872Y-736484D02*
X4046253Y-736484D01*
X4046253Y-736484D02*
X4027206Y-726960D01*
X4027206Y-726960D02*
X4017682Y-717436D01*
X4370063Y-736484D02*
X4370063Y-536484D01*
X4455777Y-736484D02*
X4455777Y-631722D01*
X4455777Y-631722D02*
X4446253Y-612674D01*
X4446253Y-612674D02*
X4427206Y-603150D01*
X4427206Y-603150D02*
X4398634Y-603150D01*
X4398634Y-603150D02*
X4379587Y-612674D01*
X4379587Y-612674D02*
X4370063Y-622198D01*
X4579587Y-736484D02*
X4560539Y-726960D01*
X4560539Y-726960D02*
X4551015Y-717436D01*
X4551015Y-717436D02*
X4541492Y-698389D01*
X4541492Y-698389D02*
X4541492Y-641246D01*
X4541492Y-641246D02*
X4551015Y-622198D01*
X4551015Y-622198D02*
X4560539Y-612674D01*
X4560539Y-612674D02*
X4579587Y-603150D01*
X4579587Y-603150D02*
X4608158Y-603150D01*
X4608158Y-603150D02*
X4627206Y-612674D01*
X4627206Y-612674D02*
X4636730Y-622198D01*
X4636730Y-622198D02*
X4646253Y-641246D01*
X4646253Y-641246D02*
X4646253Y-698389D01*
X4646253Y-698389D02*
X4636730Y-717436D01*
X4636730Y-717436D02*
X4627206Y-726960D01*
X4627206Y-726960D02*
X4608158Y-736484D01*
X4608158Y-736484D02*
X4579587Y-736484D01*
X4760539Y-736484D02*
X4741492Y-726960D01*
X4741492Y-726960D02*
X4731968Y-707912D01*
X4731968Y-707912D02*
X4731968Y-536484D01*
X4912920Y-726960D02*
X4893873Y-736484D01*
X4893873Y-736484D02*
X4855777Y-736484D01*
X4855777Y-736484D02*
X4836730Y-726960D01*
X4836730Y-726960D02*
X4827206Y-707912D01*
X4827206Y-707912D02*
X4827206Y-631722D01*
X4827206Y-631722D02*
X4836730Y-612674D01*
X4836730Y-612674D02*
X4855777Y-603150D01*
X4855777Y-603150D02*
X4893873Y-603150D01*
X4893873Y-603150D02*
X4912920Y-612674D01*
X4912920Y-612674D02*
X4922444Y-631722D01*
X4922444Y-631722D02*
X4922444Y-650770D01*
X4922444Y-650770D02*
X4827206Y-669817D01*
X4998634Y-726960D02*
X5017682Y-736484D01*
X5017682Y-736484D02*
X5055777Y-736484D01*
X5055777Y-736484D02*
X5074825Y-726960D01*
X5074825Y-726960D02*
X5084349Y-707912D01*
X5084349Y-707912D02*
X5084349Y-698389D01*
X5084349Y-698389D02*
X5074825Y-679341D01*
X5074825Y-679341D02*
X5055777Y-669817D01*
X5055777Y-669817D02*
X5027206Y-669817D01*
X5027206Y-669817D02*
X5008158Y-660293D01*
X5008158Y-660293D02*
X4998634Y-641246D01*
X4998634Y-641246D02*
X4998634Y-631722D01*
X4998634Y-631722D02*
X5008158Y-612674D01*
X5008158Y-612674D02*
X5027206Y-603150D01*
X5027206Y-603150D02*
X5055777Y-603150D01*
X5055777Y-603150D02*
X5074825Y-612674D01*
X5151015Y-812674D02*
X5160539Y-803150D01*
X5160539Y-803150D02*
X5179587Y-774579D01*
X5179587Y-774579D02*
X5189111Y-755531D01*
X5189111Y-755531D02*
X5198634Y-726960D01*
X5198634Y-726960D02*
X5208158Y-679341D01*
X5208158Y-679341D02*
X5208158Y-641246D01*
X5208158Y-641246D02*
X5198634Y-593627D01*
X5198634Y-593627D02*
X5189111Y-565055D01*
X5189111Y-565055D02*
X5179587Y-546008D01*
X5179587Y-546008D02*
X5160539Y-517436D01*
X5160539Y-517436D02*
X5151015Y-507912D01*
D10*
X-5000Y-909000D02*
G75*
G02*
X-100000Y-909000I-47500J0D01*
G01*
X-100000Y-909000D02*
G75*
G02*
X-5000Y-909000I47500J0D01*
G01*
D11*
X293872Y-800484D02*
X312920Y-800484D01*
X312920Y-800484D02*
X331967Y-810008D01*
X331967Y-810008D02*
X341491Y-819531D01*
X341491Y-819531D02*
X351015Y-838579D01*
X351015Y-838579D02*
X360539Y-876674D01*
X360539Y-876674D02*
X360539Y-924293D01*
X360539Y-924293D02*
X351015Y-962388D01*
X351015Y-962388D02*
X341491Y-981436D01*
X341491Y-981436D02*
X331967Y-990960D01*
X331967Y-990960D02*
X312920Y-1000484D01*
X312920Y-1000484D02*
X293872Y-1000484D01*
X293872Y-1000484D02*
X274824Y-990960D01*
X274824Y-990960D02*
X265301Y-981436D01*
X265301Y-981436D02*
X255777Y-962388D01*
X255777Y-962388D02*
X246253Y-924293D01*
X246253Y-924293D02*
X246253Y-876674D01*
X246253Y-876674D02*
X255777Y-838579D01*
X255777Y-838579D02*
X265301Y-819531D01*
X265301Y-819531D02*
X274824Y-810008D01*
X274824Y-810008D02*
X293872Y-800484D01*
X446253Y-981436D02*
X455777Y-990960D01*
X455777Y-990960D02*
X446253Y-1000484D01*
X446253Y-1000484D02*
X436729Y-990960D01*
X436729Y-990960D02*
X446253Y-981436D01*
X446253Y-981436D02*
X446253Y-1000484D01*
X551015Y-1000484D02*
X589110Y-1000484D01*
X589110Y-1000484D02*
X608158Y-990960D01*
X608158Y-990960D02*
X617682Y-981436D01*
X617682Y-981436D02*
X636729Y-952865D01*
X636729Y-952865D02*
X646253Y-914769D01*
X646253Y-914769D02*
X646253Y-838579D01*
X646253Y-838579D02*
X636729Y-819531D01*
X636729Y-819531D02*
X627205Y-810008D01*
X627205Y-810008D02*
X608158Y-800484D01*
X608158Y-800484D02*
X570063Y-800484D01*
X570063Y-800484D02*
X551015Y-810008D01*
X551015Y-810008D02*
X541491Y-819531D01*
X541491Y-819531D02*
X531967Y-838579D01*
X531967Y-838579D02*
X531967Y-886198D01*
X531967Y-886198D02*
X541491Y-905246D01*
X541491Y-905246D02*
X551015Y-914769D01*
X551015Y-914769D02*
X570063Y-924293D01*
X570063Y-924293D02*
X608158Y-924293D01*
X608158Y-924293D02*
X627205Y-914769D01*
X627205Y-914769D02*
X636729Y-905246D01*
X636729Y-905246D02*
X646253Y-886198D01*
X827205Y-800484D02*
X731967Y-800484D01*
X731967Y-800484D02*
X722443Y-895722D01*
X722443Y-895722D02*
X731967Y-886198D01*
X731967Y-886198D02*
X751015Y-876674D01*
X751015Y-876674D02*
X798634Y-876674D01*
X798634Y-876674D02*
X817682Y-886198D01*
X817682Y-886198D02*
X827205Y-895722D01*
X827205Y-895722D02*
X836729Y-914769D01*
X836729Y-914769D02*
X836729Y-962388D01*
X836729Y-962388D02*
X827205Y-981436D01*
X827205Y-981436D02*
X817682Y-990960D01*
X817682Y-990960D02*
X798634Y-1000484D01*
X798634Y-1000484D02*
X751015Y-1000484D01*
X751015Y-1000484D02*
X731967Y-990960D01*
X731967Y-990960D02*
X722443Y-981436D01*
X960539Y-800484D02*
X979586Y-800484D01*
X979586Y-800484D02*
X998634Y-810008D01*
X998634Y-810008D02*
X1008158Y-819531D01*
X1008158Y-819531D02*
X1017682Y-838579D01*
X1017682Y-838579D02*
X1027205Y-876674D01*
X1027205Y-876674D02*
X1027205Y-924293D01*
X1027205Y-924293D02*
X1017682Y-962388D01*
X1017682Y-962388D02*
X1008158Y-981436D01*
X1008158Y-981436D02*
X998634Y-990960D01*
X998634Y-990960D02*
X979586Y-1000484D01*
X979586Y-1000484D02*
X960539Y-1000484D01*
X960539Y-1000484D02*
X941491Y-990960D01*
X941491Y-990960D02*
X931967Y-981436D01*
X931967Y-981436D02*
X922443Y-962388D01*
X922443Y-962388D02*
X912920Y-924293D01*
X912920Y-924293D02*
X912920Y-876674D01*
X912920Y-876674D02*
X922443Y-838579D01*
X922443Y-838579D02*
X931967Y-819531D01*
X931967Y-819531D02*
X941491Y-810008D01*
X941491Y-810008D02*
X960539Y-800484D01*
X1112920Y-1000484D02*
X1112920Y-867150D01*
X1112920Y-886198D02*
X1122444Y-876674D01*
X1122444Y-876674D02*
X1141491Y-867150D01*
X1141491Y-867150D02*
X1170063Y-867150D01*
X1170063Y-867150D02*
X1189110Y-876674D01*
X1189110Y-876674D02*
X1198634Y-895722D01*
X1198634Y-895722D02*
X1198634Y-1000484D01*
X1198634Y-895722D02*
X1208158Y-876674D01*
X1208158Y-876674D02*
X1227205Y-867150D01*
X1227205Y-867150D02*
X1255777Y-867150D01*
X1255777Y-867150D02*
X1274825Y-876674D01*
X1274825Y-876674D02*
X1284348Y-895722D01*
X1284348Y-895722D02*
X1284348Y-1000484D01*
X1379586Y-1000484D02*
X1379586Y-867150D01*
X1379586Y-886198D02*
X1389110Y-876674D01*
X1389110Y-876674D02*
X1408158Y-867150D01*
X1408158Y-867150D02*
X1436729Y-867150D01*
X1436729Y-867150D02*
X1455777Y-876674D01*
X1455777Y-876674D02*
X1465301Y-895722D01*
X1465301Y-895722D02*
X1465301Y-1000484D01*
X1465301Y-895722D02*
X1474824Y-876674D01*
X1474824Y-876674D02*
X1493872Y-867150D01*
X1493872Y-867150D02*
X1522443Y-867150D01*
X1522443Y-867150D02*
X1541491Y-876674D01*
X1541491Y-876674D02*
X1551015Y-895722D01*
X1551015Y-895722D02*
X1551015Y-1000484D01*
X1941491Y-790960D02*
X1770063Y-1048103D01*
X2198634Y-800484D02*
X2217682Y-800484D01*
X2217682Y-800484D02*
X2236729Y-810008D01*
X2236729Y-810008D02*
X2246253Y-819531D01*
X2246253Y-819531D02*
X2255777Y-838579D01*
X2255777Y-838579D02*
X2265301Y-876674D01*
X2265301Y-876674D02*
X2265301Y-924293D01*
X2265301Y-924293D02*
X2255777Y-962388D01*
X2255777Y-962388D02*
X2246253Y-981436D01*
X2246253Y-981436D02*
X2236729Y-990960D01*
X2236729Y-990960D02*
X2217682Y-1000484D01*
X2217682Y-1000484D02*
X2198634Y-1000484D01*
X2198634Y-1000484D02*
X2179587Y-990960D01*
X2179587Y-990960D02*
X2170063Y-981436D01*
X2170063Y-981436D02*
X2160539Y-962388D01*
X2160539Y-962388D02*
X2151015Y-924293D01*
X2151015Y-924293D02*
X2151015Y-876674D01*
X2151015Y-876674D02*
X2160539Y-838579D01*
X2160539Y-838579D02*
X2170063Y-819531D01*
X2170063Y-819531D02*
X2179587Y-810008D01*
X2179587Y-810008D02*
X2198634Y-800484D01*
X2351015Y-981436D02*
X2360539Y-990960D01*
X2360539Y-990960D02*
X2351015Y-1000484D01*
X2351015Y-1000484D02*
X2341491Y-990960D01*
X2341491Y-990960D02*
X2351015Y-981436D01*
X2351015Y-981436D02*
X2351015Y-1000484D01*
X2484348Y-800484D02*
X2503396Y-800484D01*
X2503396Y-800484D02*
X2522444Y-810008D01*
X2522444Y-810008D02*
X2531968Y-819531D01*
X2531968Y-819531D02*
X2541491Y-838579D01*
X2541491Y-838579D02*
X2551015Y-876674D01*
X2551015Y-876674D02*
X2551015Y-924293D01*
X2551015Y-924293D02*
X2541491Y-962388D01*
X2541491Y-962388D02*
X2531968Y-981436D01*
X2531968Y-981436D02*
X2522444Y-990960D01*
X2522444Y-990960D02*
X2503396Y-1000484D01*
X2503396Y-1000484D02*
X2484348Y-1000484D01*
X2484348Y-1000484D02*
X2465301Y-990960D01*
X2465301Y-990960D02*
X2455777Y-981436D01*
X2455777Y-981436D02*
X2446253Y-962388D01*
X2446253Y-962388D02*
X2436729Y-924293D01*
X2436729Y-924293D02*
X2436729Y-876674D01*
X2436729Y-876674D02*
X2446253Y-838579D01*
X2446253Y-838579D02*
X2455777Y-819531D01*
X2455777Y-819531D02*
X2465301Y-810008D01*
X2465301Y-810008D02*
X2484348Y-800484D01*
X2617682Y-800484D02*
X2741491Y-800484D01*
X2741491Y-800484D02*
X2674825Y-876674D01*
X2674825Y-876674D02*
X2703396Y-876674D01*
X2703396Y-876674D02*
X2722444Y-886198D01*
X2722444Y-886198D02*
X2731968Y-895722D01*
X2731968Y-895722D02*
X2741491Y-914769D01*
X2741491Y-914769D02*
X2741491Y-962388D01*
X2741491Y-962388D02*
X2731968Y-981436D01*
X2731968Y-981436D02*
X2722444Y-990960D01*
X2722444Y-990960D02*
X2703396Y-1000484D01*
X2703396Y-1000484D02*
X2646253Y-1000484D01*
X2646253Y-1000484D02*
X2627206Y-990960D01*
X2627206Y-990960D02*
X2617682Y-981436D01*
X2808158Y-800484D02*
X2941491Y-800484D01*
X2941491Y-800484D02*
X2855777Y-1000484D01*
X3103396Y-867150D02*
X3103396Y-1000484D01*
X3055777Y-790960D02*
X3008158Y-933817D01*
X3008158Y-933817D02*
X3131967Y-933817D01*
X3198634Y-800484D02*
X3198634Y-838579D01*
X3274825Y-800484D02*
X3274825Y-838579D01*
X3570063Y-1076674D02*
X3560539Y-1067150D01*
X3560539Y-1067150D02*
X3541491Y-1038579D01*
X3541491Y-1038579D02*
X3531968Y-1019531D01*
X3531968Y-1019531D02*
X3522444Y-990960D01*
X3522444Y-990960D02*
X3512920Y-943341D01*
X3512920Y-943341D02*
X3512920Y-905246D01*
X3512920Y-905246D02*
X3522444Y-857627D01*
X3522444Y-857627D02*
X3531968Y-829055D01*
X3531968Y-829055D02*
X3541491Y-810008D01*
X3541491Y-810008D02*
X3560539Y-781436D01*
X3560539Y-781436D02*
X3570063Y-771912D01*
X3636729Y-819531D02*
X3646253Y-810008D01*
X3646253Y-810008D02*
X3665301Y-800484D01*
X3665301Y-800484D02*
X3712920Y-800484D01*
X3712920Y-800484D02*
X3731968Y-810008D01*
X3731968Y-810008D02*
X3741491Y-819531D01*
X3741491Y-819531D02*
X3751015Y-838579D01*
X3751015Y-838579D02*
X3751015Y-857627D01*
X3751015Y-857627D02*
X3741491Y-886198D01*
X3741491Y-886198D02*
X3627206Y-1000484D01*
X3627206Y-1000484D02*
X3751015Y-1000484D01*
X3827206Y-819531D02*
X3836729Y-810008D01*
X3836729Y-810008D02*
X3855777Y-800484D01*
X3855777Y-800484D02*
X3903396Y-800484D01*
X3903396Y-800484D02*
X3922444Y-810008D01*
X3922444Y-810008D02*
X3931968Y-819531D01*
X3931968Y-819531D02*
X3941491Y-838579D01*
X3941491Y-838579D02*
X3941491Y-857627D01*
X3941491Y-857627D02*
X3931968Y-886198D01*
X3931968Y-886198D02*
X3817682Y-1000484D01*
X3817682Y-1000484D02*
X3941491Y-1000484D01*
X4122444Y-800484D02*
X4027206Y-800484D01*
X4027206Y-800484D02*
X4017682Y-895722D01*
X4017682Y-895722D02*
X4027206Y-886198D01*
X4027206Y-886198D02*
X4046253Y-876674D01*
X4046253Y-876674D02*
X4093872Y-876674D01*
X4093872Y-876674D02*
X4112920Y-886198D01*
X4112920Y-886198D02*
X4122444Y-895722D01*
X4122444Y-895722D02*
X4131968Y-914769D01*
X4131968Y-914769D02*
X4131968Y-962388D01*
X4131968Y-962388D02*
X4122444Y-981436D01*
X4122444Y-981436D02*
X4112920Y-990960D01*
X4112920Y-990960D02*
X4093872Y-1000484D01*
X4093872Y-1000484D02*
X4046253Y-1000484D01*
X4046253Y-1000484D02*
X4027206Y-990960D01*
X4027206Y-990960D02*
X4017682Y-981436D01*
X4370063Y-1000484D02*
X4370063Y-800484D01*
X4455777Y-1000484D02*
X4455777Y-895722D01*
X4455777Y-895722D02*
X4446253Y-876674D01*
X4446253Y-876674D02*
X4427206Y-867150D01*
X4427206Y-867150D02*
X4398634Y-867150D01*
X4398634Y-867150D02*
X4379587Y-876674D01*
X4379587Y-876674D02*
X4370063Y-886198D01*
X4579587Y-1000484D02*
X4560539Y-990960D01*
X4560539Y-990960D02*
X4551015Y-981436D01*
X4551015Y-981436D02*
X4541492Y-962388D01*
X4541492Y-962388D02*
X4541492Y-905246D01*
X4541492Y-905246D02*
X4551015Y-886198D01*
X4551015Y-886198D02*
X4560539Y-876674D01*
X4560539Y-876674D02*
X4579587Y-867150D01*
X4579587Y-867150D02*
X4608158Y-867150D01*
X4608158Y-867150D02*
X4627206Y-876674D01*
X4627206Y-876674D02*
X4636730Y-886198D01*
X4636730Y-886198D02*
X4646253Y-905246D01*
X4646253Y-905246D02*
X4646253Y-962388D01*
X4646253Y-962388D02*
X4636730Y-981436D01*
X4636730Y-981436D02*
X4627206Y-990960D01*
X4627206Y-990960D02*
X4608158Y-1000484D01*
X4608158Y-1000484D02*
X4579587Y-1000484D01*
X4760539Y-1000484D02*
X4741492Y-990960D01*
X4741492Y-990960D02*
X4731968Y-971912D01*
X4731968Y-971912D02*
X4731968Y-800484D01*
X4912920Y-990960D02*
X4893873Y-1000484D01*
X4893873Y-1000484D02*
X4855777Y-1000484D01*
X4855777Y-1000484D02*
X4836730Y-990960D01*
X4836730Y-990960D02*
X4827206Y-971912D01*
X4827206Y-971912D02*
X4827206Y-895722D01*
X4827206Y-895722D02*
X4836730Y-876674D01*
X4836730Y-876674D02*
X4855777Y-867150D01*
X4855777Y-867150D02*
X4893873Y-867150D01*
X4893873Y-867150D02*
X4912920Y-876674D01*
X4912920Y-876674D02*
X4922444Y-895722D01*
X4922444Y-895722D02*
X4922444Y-914769D01*
X4922444Y-914769D02*
X4827206Y-933817D01*
X4998634Y-990960D02*
X5017682Y-1000484D01*
X5017682Y-1000484D02*
X5055777Y-1000484D01*
X5055777Y-1000484D02*
X5074825Y-990960D01*
X5074825Y-990960D02*
X5084349Y-971912D01*
X5084349Y-971912D02*
X5084349Y-962388D01*
X5084349Y-962388D02*
X5074825Y-943341D01*
X5074825Y-943341D02*
X5055777Y-933817D01*
X5055777Y-933817D02*
X5027206Y-933817D01*
X5027206Y-933817D02*
X5008158Y-924293D01*
X5008158Y-924293D02*
X4998634Y-905246D01*
X4998634Y-905246D02*
X4998634Y-895722D01*
X4998634Y-895722D02*
X5008158Y-876674D01*
X5008158Y-876674D02*
X5027206Y-867150D01*
X5027206Y-867150D02*
X5055777Y-867150D01*
X5055777Y-867150D02*
X5074825Y-876674D01*
X5151015Y-1076674D02*
X5160539Y-1067150D01*
X5160539Y-1067150D02*
X5179587Y-1038579D01*
X5179587Y-1038579D02*
X5189111Y-1019531D01*
X5189111Y-1019531D02*
X5198634Y-990960D01*
X5198634Y-990960D02*
X5208158Y-943341D01*
X5208158Y-943341D02*
X5208158Y-905246D01*
X5208158Y-905246D02*
X5198634Y-857627D01*
X5198634Y-857627D02*
X5189111Y-829055D01*
X5189111Y-829055D02*
X5179587Y-810008D01*
X5179587Y-810008D02*
X5160539Y-781436D01*
X5160539Y-781436D02*
X5151015Y-771912D01*
M02*
