%TF.GenerationSoftware,KiCad,Pcbnew,7.0.7*%
%TF.CreationDate,2023-09-01T19:11:28-06:00*%
%TF.ProjectId,chc-panel-1.0,6368632d-7061-46e6-956c-2d312e302e6b,1.0*%
%TF.SameCoordinates,PX558b6a0PY92dda80*%
%TF.FileFunction,Profile,NP*%
%FSLAX46Y46*%
G04 Gerber Fmt 4.6, Leading zero omitted, Abs format (unit mm)*
G04 Created by KiCad (PCBNEW 7.0.7) date 2023-09-01 19:11:28*
%MOMM*%
%LPD*%
G01*
G04 APERTURE LIST*
%TA.AperFunction,Profile*%
%ADD10C,0.100000*%
%TD*%
G04 APERTURE END LIST*
D10*
X999000Y114000000D02*
X0Y113001000D01*
X0Y999000D02*
X999000Y0D01*
X0Y107000000D02*
X0Y87000000D01*
X100000000Y47000000D02*
X100000000Y67000000D01*
X0Y67000000D02*
X0Y47000000D01*
X100000000Y999000D02*
X100000000Y5000000D01*
X99001000Y0D02*
X100000000Y999000D01*
X0Y47000000D02*
X0Y27000000D01*
X0Y109000000D02*
X0Y108000000D01*
X0Y27000000D02*
X0Y7000000D01*
X100000000Y5000000D02*
X100000000Y6000000D01*
X100000000Y87000000D02*
X100000000Y107000000D01*
X100000000Y108000000D02*
X100000000Y109000000D01*
X100000000Y6000000D02*
X100000000Y7000000D01*
X100000000Y113001000D02*
X99001000Y114000000D01*
X0Y5000000D02*
X0Y999000D01*
X0Y6000000D02*
X0Y5000000D01*
X100000000Y109000000D02*
X100000000Y113001000D01*
X0Y87000000D02*
X0Y67000000D01*
X99001000Y114000000D02*
X999000Y114000000D01*
X999000Y0D02*
X99001000Y0D01*
X100000000Y7000000D02*
X100000000Y27000000D01*
X100000000Y67000000D02*
X100000000Y87000000D01*
X0Y108000000D02*
X0Y107000000D01*
X0Y108000000D02*
X0Y108000000D01*
X100000000Y107000000D02*
X100000000Y108000000D01*
X0Y7000000D02*
X0Y6000000D01*
X100000000Y27000000D02*
X100000000Y47000000D01*
X0Y113001000D02*
X0Y109000000D01*
M02*
