M48
; DRILL file {KiCad 7.0.7} date Fri Sep  1 19:07:30 2023
; FORMAT={-:-/ absolute / inch / decimal}
; #@! TF.CreationDate,2023-09-01T19:07:30-06:00
; #@! TF.GenerationSoftware,Kicad,Pcbnew,7.0.7
; #@! TF.FileFunction,Plated,1,2,PTH
FMAT,2
INCH
; #@! TA.AperFunction,Plated,PTH,ViaDrill
T1C0.0157
; #@! TA.AperFunction,Plated,PTH,ComponentDrill
T2C0.0276
; #@! TA.AperFunction,Plated,PTH,ComponentDrill
T3C0.0374
%
G90
G05
T1
X0.0437Y3.9293
X0.0437Y3.1419
X0.0437Y2.3545
X0.0437Y1.5671
X0.0437Y0.7797
X0.6789Y3.7959
X0.6789Y3.0085
X0.6789Y2.2211
X0.6789Y1.4337
X0.6789Y0.6463
X0.8311Y3.9293
X0.8311Y3.1419
X0.8311Y2.3545
X0.8311Y1.5671
X0.8311Y0.7797
X1.4663Y3.7959
X1.4663Y3.0085
X1.4663Y2.2211
X1.4663Y1.4337
X1.4663Y0.6463
X1.6185Y3.9293
X1.6185Y3.1419
X1.6185Y2.3545
X1.6185Y1.5671
X1.6185Y0.7797
X2.2537Y3.7959
X2.2537Y3.0085
X2.2537Y2.2211
X2.2537Y1.4337
X2.2537Y0.6463
X2.4059Y3.9293
X2.4059Y3.1419
X2.4059Y2.3545
X2.4059Y1.5671
X2.4059Y0.7797
X3.0411Y3.7959
X3.0411Y3.0085
X3.0411Y2.2211
X3.0411Y1.4337
X3.0411Y0.6463
X3.1933Y3.9293
X3.1933Y3.1419
X3.1933Y2.3545
X3.1933Y1.5671
X3.1933Y0.7797
X3.8285Y3.7959
X3.8285Y3.0085
X3.8285Y2.2211
X3.8285Y1.4337
X3.8285Y0.6463
T2
X0.2372Y4.0758
X0.2372Y3.2884
X0.2372Y2.501
X0.2372Y1.7136
X0.2372Y0.9262
X0.5376Y4.0758
X0.5376Y3.2884
X0.5376Y2.501
X0.5376Y1.7136
X0.5376Y0.9262
X1.0246Y4.0758
X1.0246Y3.2884
X1.0246Y2.501
X1.0246Y1.7136
X1.0246Y0.9262
X1.325Y4.0758
X1.325Y3.2884
X1.325Y2.501
X1.325Y1.7136
X1.325Y0.9262
X1.812Y4.0758
X1.812Y3.2884
X1.812Y2.501
X1.812Y1.7136
X1.812Y0.9262
X2.1124Y4.0758
X2.1124Y3.2884
X2.1124Y2.501
X2.1124Y1.7136
X2.1124Y0.9262
X2.5994Y4.0758
X2.5994Y3.2884
X2.5994Y2.501
X2.5994Y1.7136
X2.5994Y0.9262
X2.8998Y4.0758
X2.8998Y3.2884
X2.8998Y2.501
X2.8998Y1.7136
X2.8998Y0.9262
X3.3868Y4.0758
X3.3868Y3.2884
X3.3868Y2.501
X3.3868Y1.7136
X3.3868Y0.9262
X3.6872Y4.0758
X3.6872Y3.2884
X3.6872Y2.501
X3.6872Y1.7136
X3.6872Y0.9262
T3
X0.0437Y4.1689
X0.0437Y3.4689
X0.0437Y3.3815
X0.0437Y2.6815
X0.0437Y2.5941
X0.0437Y1.8941
X0.0437Y1.8067
X0.0437Y1.1067
X0.0437Y1.0193
X0.0437Y0.3193
X0.1437Y4.1689
X0.1437Y3.4689
X0.1437Y3.3815
X0.1437Y2.6815
X0.1437Y2.5941
X0.1437Y1.8941
X0.1437Y1.8067
X0.1437Y1.1067
X0.1437Y1.0193
X0.1437Y0.3193
X0.6437Y4.1689
X0.6437Y3.4689
X0.6437Y3.3815
X0.6437Y2.6815
X0.6437Y2.5941
X0.6437Y1.8941
X0.6437Y1.8067
X0.6437Y1.1067
X0.6437Y1.0193
X0.6437Y0.3193
X0.7437Y4.1689
X0.7437Y3.4689
X0.7437Y3.3815
X0.7437Y2.6815
X0.7437Y2.5941
X0.7437Y1.8941
X0.7437Y1.8067
X0.7437Y1.1067
X0.7437Y1.0193
X0.7437Y0.3193
X0.8311Y4.1689
X0.8311Y3.4689
X0.8311Y3.3815
X0.8311Y2.6815
X0.8311Y2.5941
X0.8311Y1.8941
X0.8311Y1.8067
X0.8311Y1.1067
X0.8311Y1.0193
X0.8311Y0.3193
X0.9311Y4.1689
X0.9311Y3.4689
X0.9311Y3.3815
X0.9311Y2.6815
X0.9311Y2.5941
X0.9311Y1.8941
X0.9311Y1.8067
X0.9311Y1.1067
X0.9311Y1.0193
X0.9311Y0.3193
X1.4311Y4.1689
X1.4311Y3.4689
X1.4311Y3.3815
X1.4311Y2.6815
X1.4311Y2.5941
X1.4311Y1.8941
X1.4311Y1.8067
X1.4311Y1.1067
X1.4311Y1.0193
X1.4311Y0.3193
X1.5311Y4.1689
X1.5311Y3.4689
X1.5311Y3.3815
X1.5311Y2.6815
X1.5311Y2.5941
X1.5311Y1.8941
X1.5311Y1.8067
X1.5311Y1.1067
X1.5311Y1.0193
X1.5311Y0.3193
X1.6185Y4.1689
X1.6185Y3.4689
X1.6185Y3.3815
X1.6185Y2.6815
X1.6185Y2.5941
X1.6185Y1.8941
X1.6185Y1.8067
X1.6185Y1.1067
X1.6185Y1.0193
X1.6185Y0.3193
X1.7185Y4.1689
X1.7185Y3.4689
X1.7185Y3.3815
X1.7185Y2.6815
X1.7185Y2.5941
X1.7185Y1.8941
X1.7185Y1.8067
X1.7185Y1.1067
X1.7185Y1.0193
X1.7185Y0.3193
X2.2185Y4.1689
X2.2185Y3.4689
X2.2185Y3.3815
X2.2185Y2.6815
X2.2185Y2.5941
X2.2185Y1.8941
X2.2185Y1.8067
X2.2185Y1.1067
X2.2185Y1.0193
X2.2185Y0.3193
X2.3185Y4.1689
X2.3185Y3.4689
X2.3185Y3.3815
X2.3185Y2.6815
X2.3185Y2.5941
X2.3185Y1.8941
X2.3185Y1.8067
X2.3185Y1.1067
X2.3185Y1.0193
X2.3185Y0.3193
X2.4059Y4.1689
X2.4059Y3.4689
X2.4059Y3.3815
X2.4059Y2.6815
X2.4059Y2.5941
X2.4059Y1.8941
X2.4059Y1.8067
X2.4059Y1.1067
X2.4059Y1.0193
X2.4059Y0.3193
X2.5059Y4.1689
X2.5059Y3.4689
X2.5059Y3.3815
X2.5059Y2.6815
X2.5059Y2.5941
X2.5059Y1.8941
X2.5059Y1.8067
X2.5059Y1.1067
X2.5059Y1.0193
X2.5059Y0.3193
X3.0059Y4.1689
X3.0059Y3.4689
X3.0059Y3.3815
X3.0059Y2.6815
X3.0059Y2.5941
X3.0059Y1.8941
X3.0059Y1.8067
X3.0059Y1.1067
X3.0059Y1.0193
X3.0059Y0.3193
X3.1059Y4.1689
X3.1059Y3.4689
X3.1059Y3.3815
X3.1059Y2.6815
X3.1059Y2.5941
X3.1059Y1.8941
X3.1059Y1.8067
X3.1059Y1.1067
X3.1059Y1.0193
X3.1059Y0.3193
X3.1933Y4.1689
X3.1933Y3.4689
X3.1933Y3.3815
X3.1933Y2.6815
X3.1933Y2.5941
X3.1933Y1.8941
X3.1933Y1.8067
X3.1933Y1.1067
X3.1933Y1.0193
X3.1933Y0.3193
X3.2933Y4.1689
X3.2933Y3.4689
X3.2933Y3.3815
X3.2933Y2.6815
X3.2933Y2.5941
X3.2933Y1.8941
X3.2933Y1.8067
X3.2933Y1.1067
X3.2933Y1.0193
X3.2933Y0.3193
X3.7933Y4.1689
X3.7933Y3.4689
X3.7933Y3.3815
X3.7933Y2.6815
X3.7933Y2.5941
X3.7933Y1.8941
X3.7933Y1.8067
X3.7933Y1.1067
X3.7933Y1.0193
X3.7933Y0.3193
X3.8933Y4.1689
X3.8933Y3.4689
X3.8933Y3.3815
X3.8933Y2.6815
X3.8933Y2.5941
X3.8933Y1.8941
X3.8933Y1.8067
X3.8933Y1.1067
X3.8933Y1.0193
X3.8933Y0.3193
T0
M30
