%TF.GenerationSoftware,KiCad,Pcbnew,7.0.7*%
%TF.CreationDate,2023-09-01T19:11:28-06:00*%
%TF.ProjectId,chc-panel-1.0,6368632d-7061-46e6-956c-2d312e302e6b,1.0*%
%TF.SameCoordinates,PX558b6a0PY92dda80*%
%TF.FileFunction,Soldermask,Bot*%
%TF.FilePolarity,Negative*%
%FSLAX46Y46*%
G04 Gerber Fmt 4.6, Leading zero omitted, Abs format (unit mm)*
G04 Created by KiCad (PCBNEW 7.0.7) date 2023-09-01 19:11:28*
%MOMM*%
%LPD*%
G01*
G04 APERTURE LIST*
%ADD10C,0.200000*%
%ADD11C,2.000000*%
%ADD12C,1.500000*%
%ADD13C,1.750000*%
G04 APERTURE END LIST*
D10*
X92716279Y48323972D02*
X92763898Y48371591D01*
X92763898Y48371591D02*
X92859136Y48419210D01*
X92859136Y48419210D02*
X92954374Y48419210D01*
X92954374Y48419210D02*
X93049612Y48371591D01*
X93049612Y48371591D02*
X93097231Y48323972D01*
X93097231Y48323972D02*
X93144850Y48228734D01*
X93144850Y48228734D02*
X93144850Y48133496D01*
X93144850Y48133496D02*
X93097231Y48038258D01*
X93097231Y48038258D02*
X93049612Y47990639D01*
X93049612Y47990639D02*
X92954374Y47943020D01*
X92954374Y47943020D02*
X92859136Y47943020D01*
X92859136Y47943020D02*
X92763898Y47990639D01*
X92763898Y47990639D02*
X92716279Y48038258D01*
X92716279Y48419210D02*
X92716279Y48038258D01*
X92716279Y48038258D02*
X92668660Y47990639D01*
X92668660Y47990639D02*
X92621041Y47990639D01*
X92621041Y47990639D02*
X92525802Y48038258D01*
X92525802Y48038258D02*
X92478183Y48133496D01*
X92478183Y48133496D02*
X92478183Y48371591D01*
X92478183Y48371591D02*
X92573422Y48514448D01*
X92573422Y48514448D02*
X92716279Y48609686D01*
X92716279Y48609686D02*
X92906755Y48657305D01*
X92906755Y48657305D02*
X93097231Y48609686D01*
X93097231Y48609686D02*
X93240088Y48514448D01*
X93240088Y48514448D02*
X93335326Y48371591D01*
X93335326Y48371591D02*
X93382945Y48181115D01*
X93382945Y48181115D02*
X93335326Y47990639D01*
X93335326Y47990639D02*
X93240088Y47847781D01*
X93240088Y47847781D02*
X93097231Y47752543D01*
X93097231Y47752543D02*
X92906755Y47704924D01*
X92906755Y47704924D02*
X92716279Y47752543D01*
X92716279Y47752543D02*
X92573422Y47847781D01*
X92049612Y47847781D02*
X92049612Y48847781D01*
X91621041Y47847781D02*
X91621041Y48371591D01*
X91621041Y48371591D02*
X91668660Y48466829D01*
X91668660Y48466829D02*
X91763898Y48514448D01*
X91763898Y48514448D02*
X91906755Y48514448D01*
X91906755Y48514448D02*
X92001993Y48466829D01*
X92001993Y48466829D02*
X92049612Y48419210D01*
X90716279Y47847781D02*
X90716279Y48371591D01*
X90716279Y48371591D02*
X90763898Y48466829D01*
X90763898Y48466829D02*
X90859136Y48514448D01*
X90859136Y48514448D02*
X91049612Y48514448D01*
X91049612Y48514448D02*
X91144850Y48466829D01*
X90716279Y47895400D02*
X90811517Y47847781D01*
X90811517Y47847781D02*
X91049612Y47847781D01*
X91049612Y47847781D02*
X91144850Y47895400D01*
X91144850Y47895400D02*
X91192469Y47990639D01*
X91192469Y47990639D02*
X91192469Y48085877D01*
X91192469Y48085877D02*
X91144850Y48181115D01*
X91144850Y48181115D02*
X91049612Y48228734D01*
X91049612Y48228734D02*
X90811517Y48228734D01*
X90811517Y48228734D02*
X90716279Y48276353D01*
X90240088Y47847781D02*
X90240088Y48514448D01*
X90240088Y48419210D02*
X90192469Y48466829D01*
X90192469Y48466829D02*
X90097231Y48514448D01*
X90097231Y48514448D02*
X89954374Y48514448D01*
X89954374Y48514448D02*
X89859136Y48466829D01*
X89859136Y48466829D02*
X89811517Y48371591D01*
X89811517Y48371591D02*
X89811517Y47847781D01*
X89811517Y48371591D02*
X89763898Y48466829D01*
X89763898Y48466829D02*
X89668660Y48514448D01*
X89668660Y48514448D02*
X89525803Y48514448D01*
X89525803Y48514448D02*
X89430564Y48466829D01*
X89430564Y48466829D02*
X89382945Y48371591D01*
X89382945Y48371591D02*
X89382945Y47847781D01*
X88954374Y47895400D02*
X88859136Y47847781D01*
X88859136Y47847781D02*
X88668660Y47847781D01*
X88668660Y47847781D02*
X88573422Y47895400D01*
X88573422Y47895400D02*
X88525803Y47990639D01*
X88525803Y47990639D02*
X88525803Y48038258D01*
X88525803Y48038258D02*
X88573422Y48133496D01*
X88573422Y48133496D02*
X88668660Y48181115D01*
X88668660Y48181115D02*
X88811517Y48181115D01*
X88811517Y48181115D02*
X88906755Y48228734D01*
X88906755Y48228734D02*
X88954374Y48323972D01*
X88954374Y48323972D02*
X88954374Y48371591D01*
X88954374Y48371591D02*
X88906755Y48466829D01*
X88906755Y48466829D02*
X88811517Y48514448D01*
X88811517Y48514448D02*
X88668660Y48514448D01*
X88668660Y48514448D02*
X88573422Y48466829D01*
X88240088Y48514448D02*
X87859136Y48514448D01*
X88097231Y48847781D02*
X88097231Y47990639D01*
X88097231Y47990639D02*
X88049612Y47895400D01*
X88049612Y47895400D02*
X87954374Y47847781D01*
X87954374Y47847781D02*
X87859136Y47847781D01*
X87144850Y47895400D02*
X87240088Y47847781D01*
X87240088Y47847781D02*
X87430564Y47847781D01*
X87430564Y47847781D02*
X87525802Y47895400D01*
X87525802Y47895400D02*
X87573421Y47990639D01*
X87573421Y47990639D02*
X87573421Y48371591D01*
X87573421Y48371591D02*
X87525802Y48466829D01*
X87525802Y48466829D02*
X87430564Y48514448D01*
X87430564Y48514448D02*
X87240088Y48514448D01*
X87240088Y48514448D02*
X87144850Y48466829D01*
X87144850Y48466829D02*
X87097231Y48371591D01*
X87097231Y48371591D02*
X87097231Y48276353D01*
X87097231Y48276353D02*
X87573421Y48181115D01*
X86668659Y47847781D02*
X86668659Y48514448D01*
X86668659Y48323972D02*
X86621040Y48419210D01*
X86621040Y48419210D02*
X86573421Y48466829D01*
X86573421Y48466829D02*
X86478183Y48514448D01*
X86478183Y48514448D02*
X86382945Y48514448D01*
X12716279Y28323972D02*
X12763898Y28371591D01*
X12763898Y28371591D02*
X12859136Y28419210D01*
X12859136Y28419210D02*
X12954374Y28419210D01*
X12954374Y28419210D02*
X13049612Y28371591D01*
X13049612Y28371591D02*
X13097231Y28323972D01*
X13097231Y28323972D02*
X13144850Y28228734D01*
X13144850Y28228734D02*
X13144850Y28133496D01*
X13144850Y28133496D02*
X13097231Y28038258D01*
X13097231Y28038258D02*
X13049612Y27990639D01*
X13049612Y27990639D02*
X12954374Y27943020D01*
X12954374Y27943020D02*
X12859136Y27943020D01*
X12859136Y27943020D02*
X12763898Y27990639D01*
X12763898Y27990639D02*
X12716279Y28038258D01*
X12716279Y28419210D02*
X12716279Y28038258D01*
X12716279Y28038258D02*
X12668660Y27990639D01*
X12668660Y27990639D02*
X12621041Y27990639D01*
X12621041Y27990639D02*
X12525802Y28038258D01*
X12525802Y28038258D02*
X12478183Y28133496D01*
X12478183Y28133496D02*
X12478183Y28371591D01*
X12478183Y28371591D02*
X12573422Y28514448D01*
X12573422Y28514448D02*
X12716279Y28609686D01*
X12716279Y28609686D02*
X12906755Y28657305D01*
X12906755Y28657305D02*
X13097231Y28609686D01*
X13097231Y28609686D02*
X13240088Y28514448D01*
X13240088Y28514448D02*
X13335326Y28371591D01*
X13335326Y28371591D02*
X13382945Y28181115D01*
X13382945Y28181115D02*
X13335326Y27990639D01*
X13335326Y27990639D02*
X13240088Y27847781D01*
X13240088Y27847781D02*
X13097231Y27752543D01*
X13097231Y27752543D02*
X12906755Y27704924D01*
X12906755Y27704924D02*
X12716279Y27752543D01*
X12716279Y27752543D02*
X12573422Y27847781D01*
X12049612Y27847781D02*
X12049612Y28847781D01*
X11621041Y27847781D02*
X11621041Y28371591D01*
X11621041Y28371591D02*
X11668660Y28466829D01*
X11668660Y28466829D02*
X11763898Y28514448D01*
X11763898Y28514448D02*
X11906755Y28514448D01*
X11906755Y28514448D02*
X12001993Y28466829D01*
X12001993Y28466829D02*
X12049612Y28419210D01*
X10716279Y27847781D02*
X10716279Y28371591D01*
X10716279Y28371591D02*
X10763898Y28466829D01*
X10763898Y28466829D02*
X10859136Y28514448D01*
X10859136Y28514448D02*
X11049612Y28514448D01*
X11049612Y28514448D02*
X11144850Y28466829D01*
X10716279Y27895400D02*
X10811517Y27847781D01*
X10811517Y27847781D02*
X11049612Y27847781D01*
X11049612Y27847781D02*
X11144850Y27895400D01*
X11144850Y27895400D02*
X11192469Y27990639D01*
X11192469Y27990639D02*
X11192469Y28085877D01*
X11192469Y28085877D02*
X11144850Y28181115D01*
X11144850Y28181115D02*
X11049612Y28228734D01*
X11049612Y28228734D02*
X10811517Y28228734D01*
X10811517Y28228734D02*
X10716279Y28276353D01*
X10240088Y27847781D02*
X10240088Y28514448D01*
X10240088Y28419210D02*
X10192469Y28466829D01*
X10192469Y28466829D02*
X10097231Y28514448D01*
X10097231Y28514448D02*
X9954374Y28514448D01*
X9954374Y28514448D02*
X9859136Y28466829D01*
X9859136Y28466829D02*
X9811517Y28371591D01*
X9811517Y28371591D02*
X9811517Y27847781D01*
X9811517Y28371591D02*
X9763898Y28466829D01*
X9763898Y28466829D02*
X9668660Y28514448D01*
X9668660Y28514448D02*
X9525803Y28514448D01*
X9525803Y28514448D02*
X9430564Y28466829D01*
X9430564Y28466829D02*
X9382945Y28371591D01*
X9382945Y28371591D02*
X9382945Y27847781D01*
X8954374Y27895400D02*
X8859136Y27847781D01*
X8859136Y27847781D02*
X8668660Y27847781D01*
X8668660Y27847781D02*
X8573422Y27895400D01*
X8573422Y27895400D02*
X8525803Y27990639D01*
X8525803Y27990639D02*
X8525803Y28038258D01*
X8525803Y28038258D02*
X8573422Y28133496D01*
X8573422Y28133496D02*
X8668660Y28181115D01*
X8668660Y28181115D02*
X8811517Y28181115D01*
X8811517Y28181115D02*
X8906755Y28228734D01*
X8906755Y28228734D02*
X8954374Y28323972D01*
X8954374Y28323972D02*
X8954374Y28371591D01*
X8954374Y28371591D02*
X8906755Y28466829D01*
X8906755Y28466829D02*
X8811517Y28514448D01*
X8811517Y28514448D02*
X8668660Y28514448D01*
X8668660Y28514448D02*
X8573422Y28466829D01*
X8240088Y28514448D02*
X7859136Y28514448D01*
X8097231Y28847781D02*
X8097231Y27990639D01*
X8097231Y27990639D02*
X8049612Y27895400D01*
X8049612Y27895400D02*
X7954374Y27847781D01*
X7954374Y27847781D02*
X7859136Y27847781D01*
X7144850Y27895400D02*
X7240088Y27847781D01*
X7240088Y27847781D02*
X7430564Y27847781D01*
X7430564Y27847781D02*
X7525802Y27895400D01*
X7525802Y27895400D02*
X7573421Y27990639D01*
X7573421Y27990639D02*
X7573421Y28371591D01*
X7573421Y28371591D02*
X7525802Y28466829D01*
X7525802Y28466829D02*
X7430564Y28514448D01*
X7430564Y28514448D02*
X7240088Y28514448D01*
X7240088Y28514448D02*
X7144850Y28466829D01*
X7144850Y28466829D02*
X7097231Y28371591D01*
X7097231Y28371591D02*
X7097231Y28276353D01*
X7097231Y28276353D02*
X7573421Y28181115D01*
X6668659Y27847781D02*
X6668659Y28514448D01*
X6668659Y28323972D02*
X6621040Y28419210D01*
X6621040Y28419210D02*
X6573421Y28466829D01*
X6573421Y28466829D02*
X6478183Y28514448D01*
X6478183Y28514448D02*
X6382945Y28514448D01*
X52716279Y48323972D02*
X52763898Y48371591D01*
X52763898Y48371591D02*
X52859136Y48419210D01*
X52859136Y48419210D02*
X52954374Y48419210D01*
X52954374Y48419210D02*
X53049612Y48371591D01*
X53049612Y48371591D02*
X53097231Y48323972D01*
X53097231Y48323972D02*
X53144850Y48228734D01*
X53144850Y48228734D02*
X53144850Y48133496D01*
X53144850Y48133496D02*
X53097231Y48038258D01*
X53097231Y48038258D02*
X53049612Y47990639D01*
X53049612Y47990639D02*
X52954374Y47943020D01*
X52954374Y47943020D02*
X52859136Y47943020D01*
X52859136Y47943020D02*
X52763898Y47990639D01*
X52763898Y47990639D02*
X52716279Y48038258D01*
X52716279Y48419210D02*
X52716279Y48038258D01*
X52716279Y48038258D02*
X52668660Y47990639D01*
X52668660Y47990639D02*
X52621041Y47990639D01*
X52621041Y47990639D02*
X52525802Y48038258D01*
X52525802Y48038258D02*
X52478183Y48133496D01*
X52478183Y48133496D02*
X52478183Y48371591D01*
X52478183Y48371591D02*
X52573422Y48514448D01*
X52573422Y48514448D02*
X52716279Y48609686D01*
X52716279Y48609686D02*
X52906755Y48657305D01*
X52906755Y48657305D02*
X53097231Y48609686D01*
X53097231Y48609686D02*
X53240088Y48514448D01*
X53240088Y48514448D02*
X53335326Y48371591D01*
X53335326Y48371591D02*
X53382945Y48181115D01*
X53382945Y48181115D02*
X53335326Y47990639D01*
X53335326Y47990639D02*
X53240088Y47847781D01*
X53240088Y47847781D02*
X53097231Y47752543D01*
X53097231Y47752543D02*
X52906755Y47704924D01*
X52906755Y47704924D02*
X52716279Y47752543D01*
X52716279Y47752543D02*
X52573422Y47847781D01*
X52049612Y47847781D02*
X52049612Y48847781D01*
X51621041Y47847781D02*
X51621041Y48371591D01*
X51621041Y48371591D02*
X51668660Y48466829D01*
X51668660Y48466829D02*
X51763898Y48514448D01*
X51763898Y48514448D02*
X51906755Y48514448D01*
X51906755Y48514448D02*
X52001993Y48466829D01*
X52001993Y48466829D02*
X52049612Y48419210D01*
X50716279Y47847781D02*
X50716279Y48371591D01*
X50716279Y48371591D02*
X50763898Y48466829D01*
X50763898Y48466829D02*
X50859136Y48514448D01*
X50859136Y48514448D02*
X51049612Y48514448D01*
X51049612Y48514448D02*
X51144850Y48466829D01*
X50716279Y47895400D02*
X50811517Y47847781D01*
X50811517Y47847781D02*
X51049612Y47847781D01*
X51049612Y47847781D02*
X51144850Y47895400D01*
X51144850Y47895400D02*
X51192469Y47990639D01*
X51192469Y47990639D02*
X51192469Y48085877D01*
X51192469Y48085877D02*
X51144850Y48181115D01*
X51144850Y48181115D02*
X51049612Y48228734D01*
X51049612Y48228734D02*
X50811517Y48228734D01*
X50811517Y48228734D02*
X50716279Y48276353D01*
X50240088Y47847781D02*
X50240088Y48514448D01*
X50240088Y48419210D02*
X50192469Y48466829D01*
X50192469Y48466829D02*
X50097231Y48514448D01*
X50097231Y48514448D02*
X49954374Y48514448D01*
X49954374Y48514448D02*
X49859136Y48466829D01*
X49859136Y48466829D02*
X49811517Y48371591D01*
X49811517Y48371591D02*
X49811517Y47847781D01*
X49811517Y48371591D02*
X49763898Y48466829D01*
X49763898Y48466829D02*
X49668660Y48514448D01*
X49668660Y48514448D02*
X49525803Y48514448D01*
X49525803Y48514448D02*
X49430564Y48466829D01*
X49430564Y48466829D02*
X49382945Y48371591D01*
X49382945Y48371591D02*
X49382945Y47847781D01*
X48954374Y47895400D02*
X48859136Y47847781D01*
X48859136Y47847781D02*
X48668660Y47847781D01*
X48668660Y47847781D02*
X48573422Y47895400D01*
X48573422Y47895400D02*
X48525803Y47990639D01*
X48525803Y47990639D02*
X48525803Y48038258D01*
X48525803Y48038258D02*
X48573422Y48133496D01*
X48573422Y48133496D02*
X48668660Y48181115D01*
X48668660Y48181115D02*
X48811517Y48181115D01*
X48811517Y48181115D02*
X48906755Y48228734D01*
X48906755Y48228734D02*
X48954374Y48323972D01*
X48954374Y48323972D02*
X48954374Y48371591D01*
X48954374Y48371591D02*
X48906755Y48466829D01*
X48906755Y48466829D02*
X48811517Y48514448D01*
X48811517Y48514448D02*
X48668660Y48514448D01*
X48668660Y48514448D02*
X48573422Y48466829D01*
X48240088Y48514448D02*
X47859136Y48514448D01*
X48097231Y48847781D02*
X48097231Y47990639D01*
X48097231Y47990639D02*
X48049612Y47895400D01*
X48049612Y47895400D02*
X47954374Y47847781D01*
X47954374Y47847781D02*
X47859136Y47847781D01*
X47144850Y47895400D02*
X47240088Y47847781D01*
X47240088Y47847781D02*
X47430564Y47847781D01*
X47430564Y47847781D02*
X47525802Y47895400D01*
X47525802Y47895400D02*
X47573421Y47990639D01*
X47573421Y47990639D02*
X47573421Y48371591D01*
X47573421Y48371591D02*
X47525802Y48466829D01*
X47525802Y48466829D02*
X47430564Y48514448D01*
X47430564Y48514448D02*
X47240088Y48514448D01*
X47240088Y48514448D02*
X47144850Y48466829D01*
X47144850Y48466829D02*
X47097231Y48371591D01*
X47097231Y48371591D02*
X47097231Y48276353D01*
X47097231Y48276353D02*
X47573421Y48181115D01*
X46668659Y47847781D02*
X46668659Y48514448D01*
X46668659Y48323972D02*
X46621040Y48419210D01*
X46621040Y48419210D02*
X46573421Y48466829D01*
X46573421Y48466829D02*
X46478183Y48514448D01*
X46478183Y48514448D02*
X46382945Y48514448D01*
X72716279Y48323972D02*
X72763898Y48371591D01*
X72763898Y48371591D02*
X72859136Y48419210D01*
X72859136Y48419210D02*
X72954374Y48419210D01*
X72954374Y48419210D02*
X73049612Y48371591D01*
X73049612Y48371591D02*
X73097231Y48323972D01*
X73097231Y48323972D02*
X73144850Y48228734D01*
X73144850Y48228734D02*
X73144850Y48133496D01*
X73144850Y48133496D02*
X73097231Y48038258D01*
X73097231Y48038258D02*
X73049612Y47990639D01*
X73049612Y47990639D02*
X72954374Y47943020D01*
X72954374Y47943020D02*
X72859136Y47943020D01*
X72859136Y47943020D02*
X72763898Y47990639D01*
X72763898Y47990639D02*
X72716279Y48038258D01*
X72716279Y48419210D02*
X72716279Y48038258D01*
X72716279Y48038258D02*
X72668660Y47990639D01*
X72668660Y47990639D02*
X72621041Y47990639D01*
X72621041Y47990639D02*
X72525802Y48038258D01*
X72525802Y48038258D02*
X72478183Y48133496D01*
X72478183Y48133496D02*
X72478183Y48371591D01*
X72478183Y48371591D02*
X72573422Y48514448D01*
X72573422Y48514448D02*
X72716279Y48609686D01*
X72716279Y48609686D02*
X72906755Y48657305D01*
X72906755Y48657305D02*
X73097231Y48609686D01*
X73097231Y48609686D02*
X73240088Y48514448D01*
X73240088Y48514448D02*
X73335326Y48371591D01*
X73335326Y48371591D02*
X73382945Y48181115D01*
X73382945Y48181115D02*
X73335326Y47990639D01*
X73335326Y47990639D02*
X73240088Y47847781D01*
X73240088Y47847781D02*
X73097231Y47752543D01*
X73097231Y47752543D02*
X72906755Y47704924D01*
X72906755Y47704924D02*
X72716279Y47752543D01*
X72716279Y47752543D02*
X72573422Y47847781D01*
X72049612Y47847781D02*
X72049612Y48847781D01*
X71621041Y47847781D02*
X71621041Y48371591D01*
X71621041Y48371591D02*
X71668660Y48466829D01*
X71668660Y48466829D02*
X71763898Y48514448D01*
X71763898Y48514448D02*
X71906755Y48514448D01*
X71906755Y48514448D02*
X72001993Y48466829D01*
X72001993Y48466829D02*
X72049612Y48419210D01*
X70716279Y47847781D02*
X70716279Y48371591D01*
X70716279Y48371591D02*
X70763898Y48466829D01*
X70763898Y48466829D02*
X70859136Y48514448D01*
X70859136Y48514448D02*
X71049612Y48514448D01*
X71049612Y48514448D02*
X71144850Y48466829D01*
X70716279Y47895400D02*
X70811517Y47847781D01*
X70811517Y47847781D02*
X71049612Y47847781D01*
X71049612Y47847781D02*
X71144850Y47895400D01*
X71144850Y47895400D02*
X71192469Y47990639D01*
X71192469Y47990639D02*
X71192469Y48085877D01*
X71192469Y48085877D02*
X71144850Y48181115D01*
X71144850Y48181115D02*
X71049612Y48228734D01*
X71049612Y48228734D02*
X70811517Y48228734D01*
X70811517Y48228734D02*
X70716279Y48276353D01*
X70240088Y47847781D02*
X70240088Y48514448D01*
X70240088Y48419210D02*
X70192469Y48466829D01*
X70192469Y48466829D02*
X70097231Y48514448D01*
X70097231Y48514448D02*
X69954374Y48514448D01*
X69954374Y48514448D02*
X69859136Y48466829D01*
X69859136Y48466829D02*
X69811517Y48371591D01*
X69811517Y48371591D02*
X69811517Y47847781D01*
X69811517Y48371591D02*
X69763898Y48466829D01*
X69763898Y48466829D02*
X69668660Y48514448D01*
X69668660Y48514448D02*
X69525803Y48514448D01*
X69525803Y48514448D02*
X69430564Y48466829D01*
X69430564Y48466829D02*
X69382945Y48371591D01*
X69382945Y48371591D02*
X69382945Y47847781D01*
X68954374Y47895400D02*
X68859136Y47847781D01*
X68859136Y47847781D02*
X68668660Y47847781D01*
X68668660Y47847781D02*
X68573422Y47895400D01*
X68573422Y47895400D02*
X68525803Y47990639D01*
X68525803Y47990639D02*
X68525803Y48038258D01*
X68525803Y48038258D02*
X68573422Y48133496D01*
X68573422Y48133496D02*
X68668660Y48181115D01*
X68668660Y48181115D02*
X68811517Y48181115D01*
X68811517Y48181115D02*
X68906755Y48228734D01*
X68906755Y48228734D02*
X68954374Y48323972D01*
X68954374Y48323972D02*
X68954374Y48371591D01*
X68954374Y48371591D02*
X68906755Y48466829D01*
X68906755Y48466829D02*
X68811517Y48514448D01*
X68811517Y48514448D02*
X68668660Y48514448D01*
X68668660Y48514448D02*
X68573422Y48466829D01*
X68240088Y48514448D02*
X67859136Y48514448D01*
X68097231Y48847781D02*
X68097231Y47990639D01*
X68097231Y47990639D02*
X68049612Y47895400D01*
X68049612Y47895400D02*
X67954374Y47847781D01*
X67954374Y47847781D02*
X67859136Y47847781D01*
X67144850Y47895400D02*
X67240088Y47847781D01*
X67240088Y47847781D02*
X67430564Y47847781D01*
X67430564Y47847781D02*
X67525802Y47895400D01*
X67525802Y47895400D02*
X67573421Y47990639D01*
X67573421Y47990639D02*
X67573421Y48371591D01*
X67573421Y48371591D02*
X67525802Y48466829D01*
X67525802Y48466829D02*
X67430564Y48514448D01*
X67430564Y48514448D02*
X67240088Y48514448D01*
X67240088Y48514448D02*
X67144850Y48466829D01*
X67144850Y48466829D02*
X67097231Y48371591D01*
X67097231Y48371591D02*
X67097231Y48276353D01*
X67097231Y48276353D02*
X67573421Y48181115D01*
X66668659Y47847781D02*
X66668659Y48514448D01*
X66668659Y48323972D02*
X66621040Y48419210D01*
X66621040Y48419210D02*
X66573421Y48466829D01*
X66573421Y48466829D02*
X66478183Y48514448D01*
X66478183Y48514448D02*
X66382945Y48514448D01*
X52716279Y8323972D02*
X52763898Y8371591D01*
X52763898Y8371591D02*
X52859136Y8419210D01*
X52859136Y8419210D02*
X52954374Y8419210D01*
X52954374Y8419210D02*
X53049612Y8371591D01*
X53049612Y8371591D02*
X53097231Y8323972D01*
X53097231Y8323972D02*
X53144850Y8228734D01*
X53144850Y8228734D02*
X53144850Y8133496D01*
X53144850Y8133496D02*
X53097231Y8038258D01*
X53097231Y8038258D02*
X53049612Y7990639D01*
X53049612Y7990639D02*
X52954374Y7943020D01*
X52954374Y7943020D02*
X52859136Y7943020D01*
X52859136Y7943020D02*
X52763898Y7990639D01*
X52763898Y7990639D02*
X52716279Y8038258D01*
X52716279Y8419210D02*
X52716279Y8038258D01*
X52716279Y8038258D02*
X52668660Y7990639D01*
X52668660Y7990639D02*
X52621041Y7990639D01*
X52621041Y7990639D02*
X52525802Y8038258D01*
X52525802Y8038258D02*
X52478183Y8133496D01*
X52478183Y8133496D02*
X52478183Y8371591D01*
X52478183Y8371591D02*
X52573422Y8514448D01*
X52573422Y8514448D02*
X52716279Y8609686D01*
X52716279Y8609686D02*
X52906755Y8657305D01*
X52906755Y8657305D02*
X53097231Y8609686D01*
X53097231Y8609686D02*
X53240088Y8514448D01*
X53240088Y8514448D02*
X53335326Y8371591D01*
X53335326Y8371591D02*
X53382945Y8181115D01*
X53382945Y8181115D02*
X53335326Y7990639D01*
X53335326Y7990639D02*
X53240088Y7847781D01*
X53240088Y7847781D02*
X53097231Y7752543D01*
X53097231Y7752543D02*
X52906755Y7704924D01*
X52906755Y7704924D02*
X52716279Y7752543D01*
X52716279Y7752543D02*
X52573422Y7847781D01*
X52049612Y7847781D02*
X52049612Y8847781D01*
X51621041Y7847781D02*
X51621041Y8371591D01*
X51621041Y8371591D02*
X51668660Y8466829D01*
X51668660Y8466829D02*
X51763898Y8514448D01*
X51763898Y8514448D02*
X51906755Y8514448D01*
X51906755Y8514448D02*
X52001993Y8466829D01*
X52001993Y8466829D02*
X52049612Y8419210D01*
X50716279Y7847781D02*
X50716279Y8371591D01*
X50716279Y8371591D02*
X50763898Y8466829D01*
X50763898Y8466829D02*
X50859136Y8514448D01*
X50859136Y8514448D02*
X51049612Y8514448D01*
X51049612Y8514448D02*
X51144850Y8466829D01*
X50716279Y7895400D02*
X50811517Y7847781D01*
X50811517Y7847781D02*
X51049612Y7847781D01*
X51049612Y7847781D02*
X51144850Y7895400D01*
X51144850Y7895400D02*
X51192469Y7990639D01*
X51192469Y7990639D02*
X51192469Y8085877D01*
X51192469Y8085877D02*
X51144850Y8181115D01*
X51144850Y8181115D02*
X51049612Y8228734D01*
X51049612Y8228734D02*
X50811517Y8228734D01*
X50811517Y8228734D02*
X50716279Y8276353D01*
X50240088Y7847781D02*
X50240088Y8514448D01*
X50240088Y8419210D02*
X50192469Y8466829D01*
X50192469Y8466829D02*
X50097231Y8514448D01*
X50097231Y8514448D02*
X49954374Y8514448D01*
X49954374Y8514448D02*
X49859136Y8466829D01*
X49859136Y8466829D02*
X49811517Y8371591D01*
X49811517Y8371591D02*
X49811517Y7847781D01*
X49811517Y8371591D02*
X49763898Y8466829D01*
X49763898Y8466829D02*
X49668660Y8514448D01*
X49668660Y8514448D02*
X49525803Y8514448D01*
X49525803Y8514448D02*
X49430564Y8466829D01*
X49430564Y8466829D02*
X49382945Y8371591D01*
X49382945Y8371591D02*
X49382945Y7847781D01*
X48954374Y7895400D02*
X48859136Y7847781D01*
X48859136Y7847781D02*
X48668660Y7847781D01*
X48668660Y7847781D02*
X48573422Y7895400D01*
X48573422Y7895400D02*
X48525803Y7990639D01*
X48525803Y7990639D02*
X48525803Y8038258D01*
X48525803Y8038258D02*
X48573422Y8133496D01*
X48573422Y8133496D02*
X48668660Y8181115D01*
X48668660Y8181115D02*
X48811517Y8181115D01*
X48811517Y8181115D02*
X48906755Y8228734D01*
X48906755Y8228734D02*
X48954374Y8323972D01*
X48954374Y8323972D02*
X48954374Y8371591D01*
X48954374Y8371591D02*
X48906755Y8466829D01*
X48906755Y8466829D02*
X48811517Y8514448D01*
X48811517Y8514448D02*
X48668660Y8514448D01*
X48668660Y8514448D02*
X48573422Y8466829D01*
X48240088Y8514448D02*
X47859136Y8514448D01*
X48097231Y8847781D02*
X48097231Y7990639D01*
X48097231Y7990639D02*
X48049612Y7895400D01*
X48049612Y7895400D02*
X47954374Y7847781D01*
X47954374Y7847781D02*
X47859136Y7847781D01*
X47144850Y7895400D02*
X47240088Y7847781D01*
X47240088Y7847781D02*
X47430564Y7847781D01*
X47430564Y7847781D02*
X47525802Y7895400D01*
X47525802Y7895400D02*
X47573421Y7990639D01*
X47573421Y7990639D02*
X47573421Y8371591D01*
X47573421Y8371591D02*
X47525802Y8466829D01*
X47525802Y8466829D02*
X47430564Y8514448D01*
X47430564Y8514448D02*
X47240088Y8514448D01*
X47240088Y8514448D02*
X47144850Y8466829D01*
X47144850Y8466829D02*
X47097231Y8371591D01*
X47097231Y8371591D02*
X47097231Y8276353D01*
X47097231Y8276353D02*
X47573421Y8181115D01*
X46668659Y7847781D02*
X46668659Y8514448D01*
X46668659Y8323972D02*
X46621040Y8419210D01*
X46621040Y8419210D02*
X46573421Y8466829D01*
X46573421Y8466829D02*
X46478183Y8514448D01*
X46478183Y8514448D02*
X46382945Y8514448D01*
X12716279Y88323972D02*
X12763898Y88371591D01*
X12763898Y88371591D02*
X12859136Y88419210D01*
X12859136Y88419210D02*
X12954374Y88419210D01*
X12954374Y88419210D02*
X13049612Y88371591D01*
X13049612Y88371591D02*
X13097231Y88323972D01*
X13097231Y88323972D02*
X13144850Y88228734D01*
X13144850Y88228734D02*
X13144850Y88133496D01*
X13144850Y88133496D02*
X13097231Y88038258D01*
X13097231Y88038258D02*
X13049612Y87990639D01*
X13049612Y87990639D02*
X12954374Y87943020D01*
X12954374Y87943020D02*
X12859136Y87943020D01*
X12859136Y87943020D02*
X12763898Y87990639D01*
X12763898Y87990639D02*
X12716279Y88038258D01*
X12716279Y88419210D02*
X12716279Y88038258D01*
X12716279Y88038258D02*
X12668660Y87990639D01*
X12668660Y87990639D02*
X12621041Y87990639D01*
X12621041Y87990639D02*
X12525802Y88038258D01*
X12525802Y88038258D02*
X12478183Y88133496D01*
X12478183Y88133496D02*
X12478183Y88371591D01*
X12478183Y88371591D02*
X12573422Y88514448D01*
X12573422Y88514448D02*
X12716279Y88609686D01*
X12716279Y88609686D02*
X12906755Y88657305D01*
X12906755Y88657305D02*
X13097231Y88609686D01*
X13097231Y88609686D02*
X13240088Y88514448D01*
X13240088Y88514448D02*
X13335326Y88371591D01*
X13335326Y88371591D02*
X13382945Y88181115D01*
X13382945Y88181115D02*
X13335326Y87990639D01*
X13335326Y87990639D02*
X13240088Y87847781D01*
X13240088Y87847781D02*
X13097231Y87752543D01*
X13097231Y87752543D02*
X12906755Y87704924D01*
X12906755Y87704924D02*
X12716279Y87752543D01*
X12716279Y87752543D02*
X12573422Y87847781D01*
X12049612Y87847781D02*
X12049612Y88847781D01*
X11621041Y87847781D02*
X11621041Y88371591D01*
X11621041Y88371591D02*
X11668660Y88466829D01*
X11668660Y88466829D02*
X11763898Y88514448D01*
X11763898Y88514448D02*
X11906755Y88514448D01*
X11906755Y88514448D02*
X12001993Y88466829D01*
X12001993Y88466829D02*
X12049612Y88419210D01*
X10716279Y87847781D02*
X10716279Y88371591D01*
X10716279Y88371591D02*
X10763898Y88466829D01*
X10763898Y88466829D02*
X10859136Y88514448D01*
X10859136Y88514448D02*
X11049612Y88514448D01*
X11049612Y88514448D02*
X11144850Y88466829D01*
X10716279Y87895400D02*
X10811517Y87847781D01*
X10811517Y87847781D02*
X11049612Y87847781D01*
X11049612Y87847781D02*
X11144850Y87895400D01*
X11144850Y87895400D02*
X11192469Y87990639D01*
X11192469Y87990639D02*
X11192469Y88085877D01*
X11192469Y88085877D02*
X11144850Y88181115D01*
X11144850Y88181115D02*
X11049612Y88228734D01*
X11049612Y88228734D02*
X10811517Y88228734D01*
X10811517Y88228734D02*
X10716279Y88276353D01*
X10240088Y87847781D02*
X10240088Y88514448D01*
X10240088Y88419210D02*
X10192469Y88466829D01*
X10192469Y88466829D02*
X10097231Y88514448D01*
X10097231Y88514448D02*
X9954374Y88514448D01*
X9954374Y88514448D02*
X9859136Y88466829D01*
X9859136Y88466829D02*
X9811517Y88371591D01*
X9811517Y88371591D02*
X9811517Y87847781D01*
X9811517Y88371591D02*
X9763898Y88466829D01*
X9763898Y88466829D02*
X9668660Y88514448D01*
X9668660Y88514448D02*
X9525803Y88514448D01*
X9525803Y88514448D02*
X9430564Y88466829D01*
X9430564Y88466829D02*
X9382945Y88371591D01*
X9382945Y88371591D02*
X9382945Y87847781D01*
X8954374Y87895400D02*
X8859136Y87847781D01*
X8859136Y87847781D02*
X8668660Y87847781D01*
X8668660Y87847781D02*
X8573422Y87895400D01*
X8573422Y87895400D02*
X8525803Y87990639D01*
X8525803Y87990639D02*
X8525803Y88038258D01*
X8525803Y88038258D02*
X8573422Y88133496D01*
X8573422Y88133496D02*
X8668660Y88181115D01*
X8668660Y88181115D02*
X8811517Y88181115D01*
X8811517Y88181115D02*
X8906755Y88228734D01*
X8906755Y88228734D02*
X8954374Y88323972D01*
X8954374Y88323972D02*
X8954374Y88371591D01*
X8954374Y88371591D02*
X8906755Y88466829D01*
X8906755Y88466829D02*
X8811517Y88514448D01*
X8811517Y88514448D02*
X8668660Y88514448D01*
X8668660Y88514448D02*
X8573422Y88466829D01*
X8240088Y88514448D02*
X7859136Y88514448D01*
X8097231Y88847781D02*
X8097231Y87990639D01*
X8097231Y87990639D02*
X8049612Y87895400D01*
X8049612Y87895400D02*
X7954374Y87847781D01*
X7954374Y87847781D02*
X7859136Y87847781D01*
X7144850Y87895400D02*
X7240088Y87847781D01*
X7240088Y87847781D02*
X7430564Y87847781D01*
X7430564Y87847781D02*
X7525802Y87895400D01*
X7525802Y87895400D02*
X7573421Y87990639D01*
X7573421Y87990639D02*
X7573421Y88371591D01*
X7573421Y88371591D02*
X7525802Y88466829D01*
X7525802Y88466829D02*
X7430564Y88514448D01*
X7430564Y88514448D02*
X7240088Y88514448D01*
X7240088Y88514448D02*
X7144850Y88466829D01*
X7144850Y88466829D02*
X7097231Y88371591D01*
X7097231Y88371591D02*
X7097231Y88276353D01*
X7097231Y88276353D02*
X7573421Y88181115D01*
X6668659Y87847781D02*
X6668659Y88514448D01*
X6668659Y88323972D02*
X6621040Y88419210D01*
X6621040Y88419210D02*
X6573421Y88466829D01*
X6573421Y88466829D02*
X6478183Y88514448D01*
X6478183Y88514448D02*
X6382945Y88514448D01*
X72716279Y88323972D02*
X72763898Y88371591D01*
X72763898Y88371591D02*
X72859136Y88419210D01*
X72859136Y88419210D02*
X72954374Y88419210D01*
X72954374Y88419210D02*
X73049612Y88371591D01*
X73049612Y88371591D02*
X73097231Y88323972D01*
X73097231Y88323972D02*
X73144850Y88228734D01*
X73144850Y88228734D02*
X73144850Y88133496D01*
X73144850Y88133496D02*
X73097231Y88038258D01*
X73097231Y88038258D02*
X73049612Y87990639D01*
X73049612Y87990639D02*
X72954374Y87943020D01*
X72954374Y87943020D02*
X72859136Y87943020D01*
X72859136Y87943020D02*
X72763898Y87990639D01*
X72763898Y87990639D02*
X72716279Y88038258D01*
X72716279Y88419210D02*
X72716279Y88038258D01*
X72716279Y88038258D02*
X72668660Y87990639D01*
X72668660Y87990639D02*
X72621041Y87990639D01*
X72621041Y87990639D02*
X72525802Y88038258D01*
X72525802Y88038258D02*
X72478183Y88133496D01*
X72478183Y88133496D02*
X72478183Y88371591D01*
X72478183Y88371591D02*
X72573422Y88514448D01*
X72573422Y88514448D02*
X72716279Y88609686D01*
X72716279Y88609686D02*
X72906755Y88657305D01*
X72906755Y88657305D02*
X73097231Y88609686D01*
X73097231Y88609686D02*
X73240088Y88514448D01*
X73240088Y88514448D02*
X73335326Y88371591D01*
X73335326Y88371591D02*
X73382945Y88181115D01*
X73382945Y88181115D02*
X73335326Y87990639D01*
X73335326Y87990639D02*
X73240088Y87847781D01*
X73240088Y87847781D02*
X73097231Y87752543D01*
X73097231Y87752543D02*
X72906755Y87704924D01*
X72906755Y87704924D02*
X72716279Y87752543D01*
X72716279Y87752543D02*
X72573422Y87847781D01*
X72049612Y87847781D02*
X72049612Y88847781D01*
X71621041Y87847781D02*
X71621041Y88371591D01*
X71621041Y88371591D02*
X71668660Y88466829D01*
X71668660Y88466829D02*
X71763898Y88514448D01*
X71763898Y88514448D02*
X71906755Y88514448D01*
X71906755Y88514448D02*
X72001993Y88466829D01*
X72001993Y88466829D02*
X72049612Y88419210D01*
X70716279Y87847781D02*
X70716279Y88371591D01*
X70716279Y88371591D02*
X70763898Y88466829D01*
X70763898Y88466829D02*
X70859136Y88514448D01*
X70859136Y88514448D02*
X71049612Y88514448D01*
X71049612Y88514448D02*
X71144850Y88466829D01*
X70716279Y87895400D02*
X70811517Y87847781D01*
X70811517Y87847781D02*
X71049612Y87847781D01*
X71049612Y87847781D02*
X71144850Y87895400D01*
X71144850Y87895400D02*
X71192469Y87990639D01*
X71192469Y87990639D02*
X71192469Y88085877D01*
X71192469Y88085877D02*
X71144850Y88181115D01*
X71144850Y88181115D02*
X71049612Y88228734D01*
X71049612Y88228734D02*
X70811517Y88228734D01*
X70811517Y88228734D02*
X70716279Y88276353D01*
X70240088Y87847781D02*
X70240088Y88514448D01*
X70240088Y88419210D02*
X70192469Y88466829D01*
X70192469Y88466829D02*
X70097231Y88514448D01*
X70097231Y88514448D02*
X69954374Y88514448D01*
X69954374Y88514448D02*
X69859136Y88466829D01*
X69859136Y88466829D02*
X69811517Y88371591D01*
X69811517Y88371591D02*
X69811517Y87847781D01*
X69811517Y88371591D02*
X69763898Y88466829D01*
X69763898Y88466829D02*
X69668660Y88514448D01*
X69668660Y88514448D02*
X69525803Y88514448D01*
X69525803Y88514448D02*
X69430564Y88466829D01*
X69430564Y88466829D02*
X69382945Y88371591D01*
X69382945Y88371591D02*
X69382945Y87847781D01*
X68954374Y87895400D02*
X68859136Y87847781D01*
X68859136Y87847781D02*
X68668660Y87847781D01*
X68668660Y87847781D02*
X68573422Y87895400D01*
X68573422Y87895400D02*
X68525803Y87990639D01*
X68525803Y87990639D02*
X68525803Y88038258D01*
X68525803Y88038258D02*
X68573422Y88133496D01*
X68573422Y88133496D02*
X68668660Y88181115D01*
X68668660Y88181115D02*
X68811517Y88181115D01*
X68811517Y88181115D02*
X68906755Y88228734D01*
X68906755Y88228734D02*
X68954374Y88323972D01*
X68954374Y88323972D02*
X68954374Y88371591D01*
X68954374Y88371591D02*
X68906755Y88466829D01*
X68906755Y88466829D02*
X68811517Y88514448D01*
X68811517Y88514448D02*
X68668660Y88514448D01*
X68668660Y88514448D02*
X68573422Y88466829D01*
X68240088Y88514448D02*
X67859136Y88514448D01*
X68097231Y88847781D02*
X68097231Y87990639D01*
X68097231Y87990639D02*
X68049612Y87895400D01*
X68049612Y87895400D02*
X67954374Y87847781D01*
X67954374Y87847781D02*
X67859136Y87847781D01*
X67144850Y87895400D02*
X67240088Y87847781D01*
X67240088Y87847781D02*
X67430564Y87847781D01*
X67430564Y87847781D02*
X67525802Y87895400D01*
X67525802Y87895400D02*
X67573421Y87990639D01*
X67573421Y87990639D02*
X67573421Y88371591D01*
X67573421Y88371591D02*
X67525802Y88466829D01*
X67525802Y88466829D02*
X67430564Y88514448D01*
X67430564Y88514448D02*
X67240088Y88514448D01*
X67240088Y88514448D02*
X67144850Y88466829D01*
X67144850Y88466829D02*
X67097231Y88371591D01*
X67097231Y88371591D02*
X67097231Y88276353D01*
X67097231Y88276353D02*
X67573421Y88181115D01*
X66668659Y87847781D02*
X66668659Y88514448D01*
X66668659Y88323972D02*
X66621040Y88419210D01*
X66621040Y88419210D02*
X66573421Y88466829D01*
X66573421Y88466829D02*
X66478183Y88514448D01*
X66478183Y88514448D02*
X66382945Y88514448D01*
X32716279Y48323972D02*
X32763898Y48371591D01*
X32763898Y48371591D02*
X32859136Y48419210D01*
X32859136Y48419210D02*
X32954374Y48419210D01*
X32954374Y48419210D02*
X33049612Y48371591D01*
X33049612Y48371591D02*
X33097231Y48323972D01*
X33097231Y48323972D02*
X33144850Y48228734D01*
X33144850Y48228734D02*
X33144850Y48133496D01*
X33144850Y48133496D02*
X33097231Y48038258D01*
X33097231Y48038258D02*
X33049612Y47990639D01*
X33049612Y47990639D02*
X32954374Y47943020D01*
X32954374Y47943020D02*
X32859136Y47943020D01*
X32859136Y47943020D02*
X32763898Y47990639D01*
X32763898Y47990639D02*
X32716279Y48038258D01*
X32716279Y48419210D02*
X32716279Y48038258D01*
X32716279Y48038258D02*
X32668660Y47990639D01*
X32668660Y47990639D02*
X32621041Y47990639D01*
X32621041Y47990639D02*
X32525802Y48038258D01*
X32525802Y48038258D02*
X32478183Y48133496D01*
X32478183Y48133496D02*
X32478183Y48371591D01*
X32478183Y48371591D02*
X32573422Y48514448D01*
X32573422Y48514448D02*
X32716279Y48609686D01*
X32716279Y48609686D02*
X32906755Y48657305D01*
X32906755Y48657305D02*
X33097231Y48609686D01*
X33097231Y48609686D02*
X33240088Y48514448D01*
X33240088Y48514448D02*
X33335326Y48371591D01*
X33335326Y48371591D02*
X33382945Y48181115D01*
X33382945Y48181115D02*
X33335326Y47990639D01*
X33335326Y47990639D02*
X33240088Y47847781D01*
X33240088Y47847781D02*
X33097231Y47752543D01*
X33097231Y47752543D02*
X32906755Y47704924D01*
X32906755Y47704924D02*
X32716279Y47752543D01*
X32716279Y47752543D02*
X32573422Y47847781D01*
X32049612Y47847781D02*
X32049612Y48847781D01*
X31621041Y47847781D02*
X31621041Y48371591D01*
X31621041Y48371591D02*
X31668660Y48466829D01*
X31668660Y48466829D02*
X31763898Y48514448D01*
X31763898Y48514448D02*
X31906755Y48514448D01*
X31906755Y48514448D02*
X32001993Y48466829D01*
X32001993Y48466829D02*
X32049612Y48419210D01*
X30716279Y47847781D02*
X30716279Y48371591D01*
X30716279Y48371591D02*
X30763898Y48466829D01*
X30763898Y48466829D02*
X30859136Y48514448D01*
X30859136Y48514448D02*
X31049612Y48514448D01*
X31049612Y48514448D02*
X31144850Y48466829D01*
X30716279Y47895400D02*
X30811517Y47847781D01*
X30811517Y47847781D02*
X31049612Y47847781D01*
X31049612Y47847781D02*
X31144850Y47895400D01*
X31144850Y47895400D02*
X31192469Y47990639D01*
X31192469Y47990639D02*
X31192469Y48085877D01*
X31192469Y48085877D02*
X31144850Y48181115D01*
X31144850Y48181115D02*
X31049612Y48228734D01*
X31049612Y48228734D02*
X30811517Y48228734D01*
X30811517Y48228734D02*
X30716279Y48276353D01*
X30240088Y47847781D02*
X30240088Y48514448D01*
X30240088Y48419210D02*
X30192469Y48466829D01*
X30192469Y48466829D02*
X30097231Y48514448D01*
X30097231Y48514448D02*
X29954374Y48514448D01*
X29954374Y48514448D02*
X29859136Y48466829D01*
X29859136Y48466829D02*
X29811517Y48371591D01*
X29811517Y48371591D02*
X29811517Y47847781D01*
X29811517Y48371591D02*
X29763898Y48466829D01*
X29763898Y48466829D02*
X29668660Y48514448D01*
X29668660Y48514448D02*
X29525803Y48514448D01*
X29525803Y48514448D02*
X29430564Y48466829D01*
X29430564Y48466829D02*
X29382945Y48371591D01*
X29382945Y48371591D02*
X29382945Y47847781D01*
X28954374Y47895400D02*
X28859136Y47847781D01*
X28859136Y47847781D02*
X28668660Y47847781D01*
X28668660Y47847781D02*
X28573422Y47895400D01*
X28573422Y47895400D02*
X28525803Y47990639D01*
X28525803Y47990639D02*
X28525803Y48038258D01*
X28525803Y48038258D02*
X28573422Y48133496D01*
X28573422Y48133496D02*
X28668660Y48181115D01*
X28668660Y48181115D02*
X28811517Y48181115D01*
X28811517Y48181115D02*
X28906755Y48228734D01*
X28906755Y48228734D02*
X28954374Y48323972D01*
X28954374Y48323972D02*
X28954374Y48371591D01*
X28954374Y48371591D02*
X28906755Y48466829D01*
X28906755Y48466829D02*
X28811517Y48514448D01*
X28811517Y48514448D02*
X28668660Y48514448D01*
X28668660Y48514448D02*
X28573422Y48466829D01*
X28240088Y48514448D02*
X27859136Y48514448D01*
X28097231Y48847781D02*
X28097231Y47990639D01*
X28097231Y47990639D02*
X28049612Y47895400D01*
X28049612Y47895400D02*
X27954374Y47847781D01*
X27954374Y47847781D02*
X27859136Y47847781D01*
X27144850Y47895400D02*
X27240088Y47847781D01*
X27240088Y47847781D02*
X27430564Y47847781D01*
X27430564Y47847781D02*
X27525802Y47895400D01*
X27525802Y47895400D02*
X27573421Y47990639D01*
X27573421Y47990639D02*
X27573421Y48371591D01*
X27573421Y48371591D02*
X27525802Y48466829D01*
X27525802Y48466829D02*
X27430564Y48514448D01*
X27430564Y48514448D02*
X27240088Y48514448D01*
X27240088Y48514448D02*
X27144850Y48466829D01*
X27144850Y48466829D02*
X27097231Y48371591D01*
X27097231Y48371591D02*
X27097231Y48276353D01*
X27097231Y48276353D02*
X27573421Y48181115D01*
X26668659Y47847781D02*
X26668659Y48514448D01*
X26668659Y48323972D02*
X26621040Y48419210D01*
X26621040Y48419210D02*
X26573421Y48466829D01*
X26573421Y48466829D02*
X26478183Y48514448D01*
X26478183Y48514448D02*
X26382945Y48514448D01*
X52716279Y68323972D02*
X52763898Y68371591D01*
X52763898Y68371591D02*
X52859136Y68419210D01*
X52859136Y68419210D02*
X52954374Y68419210D01*
X52954374Y68419210D02*
X53049612Y68371591D01*
X53049612Y68371591D02*
X53097231Y68323972D01*
X53097231Y68323972D02*
X53144850Y68228734D01*
X53144850Y68228734D02*
X53144850Y68133496D01*
X53144850Y68133496D02*
X53097231Y68038258D01*
X53097231Y68038258D02*
X53049612Y67990639D01*
X53049612Y67990639D02*
X52954374Y67943020D01*
X52954374Y67943020D02*
X52859136Y67943020D01*
X52859136Y67943020D02*
X52763898Y67990639D01*
X52763898Y67990639D02*
X52716279Y68038258D01*
X52716279Y68419210D02*
X52716279Y68038258D01*
X52716279Y68038258D02*
X52668660Y67990639D01*
X52668660Y67990639D02*
X52621041Y67990639D01*
X52621041Y67990639D02*
X52525802Y68038258D01*
X52525802Y68038258D02*
X52478183Y68133496D01*
X52478183Y68133496D02*
X52478183Y68371591D01*
X52478183Y68371591D02*
X52573422Y68514448D01*
X52573422Y68514448D02*
X52716279Y68609686D01*
X52716279Y68609686D02*
X52906755Y68657305D01*
X52906755Y68657305D02*
X53097231Y68609686D01*
X53097231Y68609686D02*
X53240088Y68514448D01*
X53240088Y68514448D02*
X53335326Y68371591D01*
X53335326Y68371591D02*
X53382945Y68181115D01*
X53382945Y68181115D02*
X53335326Y67990639D01*
X53335326Y67990639D02*
X53240088Y67847781D01*
X53240088Y67847781D02*
X53097231Y67752543D01*
X53097231Y67752543D02*
X52906755Y67704924D01*
X52906755Y67704924D02*
X52716279Y67752543D01*
X52716279Y67752543D02*
X52573422Y67847781D01*
X52049612Y67847781D02*
X52049612Y68847781D01*
X51621041Y67847781D02*
X51621041Y68371591D01*
X51621041Y68371591D02*
X51668660Y68466829D01*
X51668660Y68466829D02*
X51763898Y68514448D01*
X51763898Y68514448D02*
X51906755Y68514448D01*
X51906755Y68514448D02*
X52001993Y68466829D01*
X52001993Y68466829D02*
X52049612Y68419210D01*
X50716279Y67847781D02*
X50716279Y68371591D01*
X50716279Y68371591D02*
X50763898Y68466829D01*
X50763898Y68466829D02*
X50859136Y68514448D01*
X50859136Y68514448D02*
X51049612Y68514448D01*
X51049612Y68514448D02*
X51144850Y68466829D01*
X50716279Y67895400D02*
X50811517Y67847781D01*
X50811517Y67847781D02*
X51049612Y67847781D01*
X51049612Y67847781D02*
X51144850Y67895400D01*
X51144850Y67895400D02*
X51192469Y67990639D01*
X51192469Y67990639D02*
X51192469Y68085877D01*
X51192469Y68085877D02*
X51144850Y68181115D01*
X51144850Y68181115D02*
X51049612Y68228734D01*
X51049612Y68228734D02*
X50811517Y68228734D01*
X50811517Y68228734D02*
X50716279Y68276353D01*
X50240088Y67847781D02*
X50240088Y68514448D01*
X50240088Y68419210D02*
X50192469Y68466829D01*
X50192469Y68466829D02*
X50097231Y68514448D01*
X50097231Y68514448D02*
X49954374Y68514448D01*
X49954374Y68514448D02*
X49859136Y68466829D01*
X49859136Y68466829D02*
X49811517Y68371591D01*
X49811517Y68371591D02*
X49811517Y67847781D01*
X49811517Y68371591D02*
X49763898Y68466829D01*
X49763898Y68466829D02*
X49668660Y68514448D01*
X49668660Y68514448D02*
X49525803Y68514448D01*
X49525803Y68514448D02*
X49430564Y68466829D01*
X49430564Y68466829D02*
X49382945Y68371591D01*
X49382945Y68371591D02*
X49382945Y67847781D01*
X48954374Y67895400D02*
X48859136Y67847781D01*
X48859136Y67847781D02*
X48668660Y67847781D01*
X48668660Y67847781D02*
X48573422Y67895400D01*
X48573422Y67895400D02*
X48525803Y67990639D01*
X48525803Y67990639D02*
X48525803Y68038258D01*
X48525803Y68038258D02*
X48573422Y68133496D01*
X48573422Y68133496D02*
X48668660Y68181115D01*
X48668660Y68181115D02*
X48811517Y68181115D01*
X48811517Y68181115D02*
X48906755Y68228734D01*
X48906755Y68228734D02*
X48954374Y68323972D01*
X48954374Y68323972D02*
X48954374Y68371591D01*
X48954374Y68371591D02*
X48906755Y68466829D01*
X48906755Y68466829D02*
X48811517Y68514448D01*
X48811517Y68514448D02*
X48668660Y68514448D01*
X48668660Y68514448D02*
X48573422Y68466829D01*
X48240088Y68514448D02*
X47859136Y68514448D01*
X48097231Y68847781D02*
X48097231Y67990639D01*
X48097231Y67990639D02*
X48049612Y67895400D01*
X48049612Y67895400D02*
X47954374Y67847781D01*
X47954374Y67847781D02*
X47859136Y67847781D01*
X47144850Y67895400D02*
X47240088Y67847781D01*
X47240088Y67847781D02*
X47430564Y67847781D01*
X47430564Y67847781D02*
X47525802Y67895400D01*
X47525802Y67895400D02*
X47573421Y67990639D01*
X47573421Y67990639D02*
X47573421Y68371591D01*
X47573421Y68371591D02*
X47525802Y68466829D01*
X47525802Y68466829D02*
X47430564Y68514448D01*
X47430564Y68514448D02*
X47240088Y68514448D01*
X47240088Y68514448D02*
X47144850Y68466829D01*
X47144850Y68466829D02*
X47097231Y68371591D01*
X47097231Y68371591D02*
X47097231Y68276353D01*
X47097231Y68276353D02*
X47573421Y68181115D01*
X46668659Y67847781D02*
X46668659Y68514448D01*
X46668659Y68323972D02*
X46621040Y68419210D01*
X46621040Y68419210D02*
X46573421Y68466829D01*
X46573421Y68466829D02*
X46478183Y68514448D01*
X46478183Y68514448D02*
X46382945Y68514448D01*
X12716279Y8323972D02*
X12763898Y8371591D01*
X12763898Y8371591D02*
X12859136Y8419210D01*
X12859136Y8419210D02*
X12954374Y8419210D01*
X12954374Y8419210D02*
X13049612Y8371591D01*
X13049612Y8371591D02*
X13097231Y8323972D01*
X13097231Y8323972D02*
X13144850Y8228734D01*
X13144850Y8228734D02*
X13144850Y8133496D01*
X13144850Y8133496D02*
X13097231Y8038258D01*
X13097231Y8038258D02*
X13049612Y7990639D01*
X13049612Y7990639D02*
X12954374Y7943020D01*
X12954374Y7943020D02*
X12859136Y7943020D01*
X12859136Y7943020D02*
X12763898Y7990639D01*
X12763898Y7990639D02*
X12716279Y8038258D01*
X12716279Y8419210D02*
X12716279Y8038258D01*
X12716279Y8038258D02*
X12668660Y7990639D01*
X12668660Y7990639D02*
X12621041Y7990639D01*
X12621041Y7990639D02*
X12525802Y8038258D01*
X12525802Y8038258D02*
X12478183Y8133496D01*
X12478183Y8133496D02*
X12478183Y8371591D01*
X12478183Y8371591D02*
X12573422Y8514448D01*
X12573422Y8514448D02*
X12716279Y8609686D01*
X12716279Y8609686D02*
X12906755Y8657305D01*
X12906755Y8657305D02*
X13097231Y8609686D01*
X13097231Y8609686D02*
X13240088Y8514448D01*
X13240088Y8514448D02*
X13335326Y8371591D01*
X13335326Y8371591D02*
X13382945Y8181115D01*
X13382945Y8181115D02*
X13335326Y7990639D01*
X13335326Y7990639D02*
X13240088Y7847781D01*
X13240088Y7847781D02*
X13097231Y7752543D01*
X13097231Y7752543D02*
X12906755Y7704924D01*
X12906755Y7704924D02*
X12716279Y7752543D01*
X12716279Y7752543D02*
X12573422Y7847781D01*
X12049612Y7847781D02*
X12049612Y8847781D01*
X11621041Y7847781D02*
X11621041Y8371591D01*
X11621041Y8371591D02*
X11668660Y8466829D01*
X11668660Y8466829D02*
X11763898Y8514448D01*
X11763898Y8514448D02*
X11906755Y8514448D01*
X11906755Y8514448D02*
X12001993Y8466829D01*
X12001993Y8466829D02*
X12049612Y8419210D01*
X10716279Y7847781D02*
X10716279Y8371591D01*
X10716279Y8371591D02*
X10763898Y8466829D01*
X10763898Y8466829D02*
X10859136Y8514448D01*
X10859136Y8514448D02*
X11049612Y8514448D01*
X11049612Y8514448D02*
X11144850Y8466829D01*
X10716279Y7895400D02*
X10811517Y7847781D01*
X10811517Y7847781D02*
X11049612Y7847781D01*
X11049612Y7847781D02*
X11144850Y7895400D01*
X11144850Y7895400D02*
X11192469Y7990639D01*
X11192469Y7990639D02*
X11192469Y8085877D01*
X11192469Y8085877D02*
X11144850Y8181115D01*
X11144850Y8181115D02*
X11049612Y8228734D01*
X11049612Y8228734D02*
X10811517Y8228734D01*
X10811517Y8228734D02*
X10716279Y8276353D01*
X10240088Y7847781D02*
X10240088Y8514448D01*
X10240088Y8419210D02*
X10192469Y8466829D01*
X10192469Y8466829D02*
X10097231Y8514448D01*
X10097231Y8514448D02*
X9954374Y8514448D01*
X9954374Y8514448D02*
X9859136Y8466829D01*
X9859136Y8466829D02*
X9811517Y8371591D01*
X9811517Y8371591D02*
X9811517Y7847781D01*
X9811517Y8371591D02*
X9763898Y8466829D01*
X9763898Y8466829D02*
X9668660Y8514448D01*
X9668660Y8514448D02*
X9525803Y8514448D01*
X9525803Y8514448D02*
X9430564Y8466829D01*
X9430564Y8466829D02*
X9382945Y8371591D01*
X9382945Y8371591D02*
X9382945Y7847781D01*
X8954374Y7895400D02*
X8859136Y7847781D01*
X8859136Y7847781D02*
X8668660Y7847781D01*
X8668660Y7847781D02*
X8573422Y7895400D01*
X8573422Y7895400D02*
X8525803Y7990639D01*
X8525803Y7990639D02*
X8525803Y8038258D01*
X8525803Y8038258D02*
X8573422Y8133496D01*
X8573422Y8133496D02*
X8668660Y8181115D01*
X8668660Y8181115D02*
X8811517Y8181115D01*
X8811517Y8181115D02*
X8906755Y8228734D01*
X8906755Y8228734D02*
X8954374Y8323972D01*
X8954374Y8323972D02*
X8954374Y8371591D01*
X8954374Y8371591D02*
X8906755Y8466829D01*
X8906755Y8466829D02*
X8811517Y8514448D01*
X8811517Y8514448D02*
X8668660Y8514448D01*
X8668660Y8514448D02*
X8573422Y8466829D01*
X8240088Y8514448D02*
X7859136Y8514448D01*
X8097231Y8847781D02*
X8097231Y7990639D01*
X8097231Y7990639D02*
X8049612Y7895400D01*
X8049612Y7895400D02*
X7954374Y7847781D01*
X7954374Y7847781D02*
X7859136Y7847781D01*
X7144850Y7895400D02*
X7240088Y7847781D01*
X7240088Y7847781D02*
X7430564Y7847781D01*
X7430564Y7847781D02*
X7525802Y7895400D01*
X7525802Y7895400D02*
X7573421Y7990639D01*
X7573421Y7990639D02*
X7573421Y8371591D01*
X7573421Y8371591D02*
X7525802Y8466829D01*
X7525802Y8466829D02*
X7430564Y8514448D01*
X7430564Y8514448D02*
X7240088Y8514448D01*
X7240088Y8514448D02*
X7144850Y8466829D01*
X7144850Y8466829D02*
X7097231Y8371591D01*
X7097231Y8371591D02*
X7097231Y8276353D01*
X7097231Y8276353D02*
X7573421Y8181115D01*
X6668659Y7847781D02*
X6668659Y8514448D01*
X6668659Y8323972D02*
X6621040Y8419210D01*
X6621040Y8419210D02*
X6573421Y8466829D01*
X6573421Y8466829D02*
X6478183Y8514448D01*
X6478183Y8514448D02*
X6382945Y8514448D01*
X92716279Y88323972D02*
X92763898Y88371591D01*
X92763898Y88371591D02*
X92859136Y88419210D01*
X92859136Y88419210D02*
X92954374Y88419210D01*
X92954374Y88419210D02*
X93049612Y88371591D01*
X93049612Y88371591D02*
X93097231Y88323972D01*
X93097231Y88323972D02*
X93144850Y88228734D01*
X93144850Y88228734D02*
X93144850Y88133496D01*
X93144850Y88133496D02*
X93097231Y88038258D01*
X93097231Y88038258D02*
X93049612Y87990639D01*
X93049612Y87990639D02*
X92954374Y87943020D01*
X92954374Y87943020D02*
X92859136Y87943020D01*
X92859136Y87943020D02*
X92763898Y87990639D01*
X92763898Y87990639D02*
X92716279Y88038258D01*
X92716279Y88419210D02*
X92716279Y88038258D01*
X92716279Y88038258D02*
X92668660Y87990639D01*
X92668660Y87990639D02*
X92621041Y87990639D01*
X92621041Y87990639D02*
X92525802Y88038258D01*
X92525802Y88038258D02*
X92478183Y88133496D01*
X92478183Y88133496D02*
X92478183Y88371591D01*
X92478183Y88371591D02*
X92573422Y88514448D01*
X92573422Y88514448D02*
X92716279Y88609686D01*
X92716279Y88609686D02*
X92906755Y88657305D01*
X92906755Y88657305D02*
X93097231Y88609686D01*
X93097231Y88609686D02*
X93240088Y88514448D01*
X93240088Y88514448D02*
X93335326Y88371591D01*
X93335326Y88371591D02*
X93382945Y88181115D01*
X93382945Y88181115D02*
X93335326Y87990639D01*
X93335326Y87990639D02*
X93240088Y87847781D01*
X93240088Y87847781D02*
X93097231Y87752543D01*
X93097231Y87752543D02*
X92906755Y87704924D01*
X92906755Y87704924D02*
X92716279Y87752543D01*
X92716279Y87752543D02*
X92573422Y87847781D01*
X92049612Y87847781D02*
X92049612Y88847781D01*
X91621041Y87847781D02*
X91621041Y88371591D01*
X91621041Y88371591D02*
X91668660Y88466829D01*
X91668660Y88466829D02*
X91763898Y88514448D01*
X91763898Y88514448D02*
X91906755Y88514448D01*
X91906755Y88514448D02*
X92001993Y88466829D01*
X92001993Y88466829D02*
X92049612Y88419210D01*
X90716279Y87847781D02*
X90716279Y88371591D01*
X90716279Y88371591D02*
X90763898Y88466829D01*
X90763898Y88466829D02*
X90859136Y88514448D01*
X90859136Y88514448D02*
X91049612Y88514448D01*
X91049612Y88514448D02*
X91144850Y88466829D01*
X90716279Y87895400D02*
X90811517Y87847781D01*
X90811517Y87847781D02*
X91049612Y87847781D01*
X91049612Y87847781D02*
X91144850Y87895400D01*
X91144850Y87895400D02*
X91192469Y87990639D01*
X91192469Y87990639D02*
X91192469Y88085877D01*
X91192469Y88085877D02*
X91144850Y88181115D01*
X91144850Y88181115D02*
X91049612Y88228734D01*
X91049612Y88228734D02*
X90811517Y88228734D01*
X90811517Y88228734D02*
X90716279Y88276353D01*
X90240088Y87847781D02*
X90240088Y88514448D01*
X90240088Y88419210D02*
X90192469Y88466829D01*
X90192469Y88466829D02*
X90097231Y88514448D01*
X90097231Y88514448D02*
X89954374Y88514448D01*
X89954374Y88514448D02*
X89859136Y88466829D01*
X89859136Y88466829D02*
X89811517Y88371591D01*
X89811517Y88371591D02*
X89811517Y87847781D01*
X89811517Y88371591D02*
X89763898Y88466829D01*
X89763898Y88466829D02*
X89668660Y88514448D01*
X89668660Y88514448D02*
X89525803Y88514448D01*
X89525803Y88514448D02*
X89430564Y88466829D01*
X89430564Y88466829D02*
X89382945Y88371591D01*
X89382945Y88371591D02*
X89382945Y87847781D01*
X88954374Y87895400D02*
X88859136Y87847781D01*
X88859136Y87847781D02*
X88668660Y87847781D01*
X88668660Y87847781D02*
X88573422Y87895400D01*
X88573422Y87895400D02*
X88525803Y87990639D01*
X88525803Y87990639D02*
X88525803Y88038258D01*
X88525803Y88038258D02*
X88573422Y88133496D01*
X88573422Y88133496D02*
X88668660Y88181115D01*
X88668660Y88181115D02*
X88811517Y88181115D01*
X88811517Y88181115D02*
X88906755Y88228734D01*
X88906755Y88228734D02*
X88954374Y88323972D01*
X88954374Y88323972D02*
X88954374Y88371591D01*
X88954374Y88371591D02*
X88906755Y88466829D01*
X88906755Y88466829D02*
X88811517Y88514448D01*
X88811517Y88514448D02*
X88668660Y88514448D01*
X88668660Y88514448D02*
X88573422Y88466829D01*
X88240088Y88514448D02*
X87859136Y88514448D01*
X88097231Y88847781D02*
X88097231Y87990639D01*
X88097231Y87990639D02*
X88049612Y87895400D01*
X88049612Y87895400D02*
X87954374Y87847781D01*
X87954374Y87847781D02*
X87859136Y87847781D01*
X87144850Y87895400D02*
X87240088Y87847781D01*
X87240088Y87847781D02*
X87430564Y87847781D01*
X87430564Y87847781D02*
X87525802Y87895400D01*
X87525802Y87895400D02*
X87573421Y87990639D01*
X87573421Y87990639D02*
X87573421Y88371591D01*
X87573421Y88371591D02*
X87525802Y88466829D01*
X87525802Y88466829D02*
X87430564Y88514448D01*
X87430564Y88514448D02*
X87240088Y88514448D01*
X87240088Y88514448D02*
X87144850Y88466829D01*
X87144850Y88466829D02*
X87097231Y88371591D01*
X87097231Y88371591D02*
X87097231Y88276353D01*
X87097231Y88276353D02*
X87573421Y88181115D01*
X86668659Y87847781D02*
X86668659Y88514448D01*
X86668659Y88323972D02*
X86621040Y88419210D01*
X86621040Y88419210D02*
X86573421Y88466829D01*
X86573421Y88466829D02*
X86478183Y88514448D01*
X86478183Y88514448D02*
X86382945Y88514448D01*
X52716279Y88323972D02*
X52763898Y88371591D01*
X52763898Y88371591D02*
X52859136Y88419210D01*
X52859136Y88419210D02*
X52954374Y88419210D01*
X52954374Y88419210D02*
X53049612Y88371591D01*
X53049612Y88371591D02*
X53097231Y88323972D01*
X53097231Y88323972D02*
X53144850Y88228734D01*
X53144850Y88228734D02*
X53144850Y88133496D01*
X53144850Y88133496D02*
X53097231Y88038258D01*
X53097231Y88038258D02*
X53049612Y87990639D01*
X53049612Y87990639D02*
X52954374Y87943020D01*
X52954374Y87943020D02*
X52859136Y87943020D01*
X52859136Y87943020D02*
X52763898Y87990639D01*
X52763898Y87990639D02*
X52716279Y88038258D01*
X52716279Y88419210D02*
X52716279Y88038258D01*
X52716279Y88038258D02*
X52668660Y87990639D01*
X52668660Y87990639D02*
X52621041Y87990639D01*
X52621041Y87990639D02*
X52525802Y88038258D01*
X52525802Y88038258D02*
X52478183Y88133496D01*
X52478183Y88133496D02*
X52478183Y88371591D01*
X52478183Y88371591D02*
X52573422Y88514448D01*
X52573422Y88514448D02*
X52716279Y88609686D01*
X52716279Y88609686D02*
X52906755Y88657305D01*
X52906755Y88657305D02*
X53097231Y88609686D01*
X53097231Y88609686D02*
X53240088Y88514448D01*
X53240088Y88514448D02*
X53335326Y88371591D01*
X53335326Y88371591D02*
X53382945Y88181115D01*
X53382945Y88181115D02*
X53335326Y87990639D01*
X53335326Y87990639D02*
X53240088Y87847781D01*
X53240088Y87847781D02*
X53097231Y87752543D01*
X53097231Y87752543D02*
X52906755Y87704924D01*
X52906755Y87704924D02*
X52716279Y87752543D01*
X52716279Y87752543D02*
X52573422Y87847781D01*
X52049612Y87847781D02*
X52049612Y88847781D01*
X51621041Y87847781D02*
X51621041Y88371591D01*
X51621041Y88371591D02*
X51668660Y88466829D01*
X51668660Y88466829D02*
X51763898Y88514448D01*
X51763898Y88514448D02*
X51906755Y88514448D01*
X51906755Y88514448D02*
X52001993Y88466829D01*
X52001993Y88466829D02*
X52049612Y88419210D01*
X50716279Y87847781D02*
X50716279Y88371591D01*
X50716279Y88371591D02*
X50763898Y88466829D01*
X50763898Y88466829D02*
X50859136Y88514448D01*
X50859136Y88514448D02*
X51049612Y88514448D01*
X51049612Y88514448D02*
X51144850Y88466829D01*
X50716279Y87895400D02*
X50811517Y87847781D01*
X50811517Y87847781D02*
X51049612Y87847781D01*
X51049612Y87847781D02*
X51144850Y87895400D01*
X51144850Y87895400D02*
X51192469Y87990639D01*
X51192469Y87990639D02*
X51192469Y88085877D01*
X51192469Y88085877D02*
X51144850Y88181115D01*
X51144850Y88181115D02*
X51049612Y88228734D01*
X51049612Y88228734D02*
X50811517Y88228734D01*
X50811517Y88228734D02*
X50716279Y88276353D01*
X50240088Y87847781D02*
X50240088Y88514448D01*
X50240088Y88419210D02*
X50192469Y88466829D01*
X50192469Y88466829D02*
X50097231Y88514448D01*
X50097231Y88514448D02*
X49954374Y88514448D01*
X49954374Y88514448D02*
X49859136Y88466829D01*
X49859136Y88466829D02*
X49811517Y88371591D01*
X49811517Y88371591D02*
X49811517Y87847781D01*
X49811517Y88371591D02*
X49763898Y88466829D01*
X49763898Y88466829D02*
X49668660Y88514448D01*
X49668660Y88514448D02*
X49525803Y88514448D01*
X49525803Y88514448D02*
X49430564Y88466829D01*
X49430564Y88466829D02*
X49382945Y88371591D01*
X49382945Y88371591D02*
X49382945Y87847781D01*
X48954374Y87895400D02*
X48859136Y87847781D01*
X48859136Y87847781D02*
X48668660Y87847781D01*
X48668660Y87847781D02*
X48573422Y87895400D01*
X48573422Y87895400D02*
X48525803Y87990639D01*
X48525803Y87990639D02*
X48525803Y88038258D01*
X48525803Y88038258D02*
X48573422Y88133496D01*
X48573422Y88133496D02*
X48668660Y88181115D01*
X48668660Y88181115D02*
X48811517Y88181115D01*
X48811517Y88181115D02*
X48906755Y88228734D01*
X48906755Y88228734D02*
X48954374Y88323972D01*
X48954374Y88323972D02*
X48954374Y88371591D01*
X48954374Y88371591D02*
X48906755Y88466829D01*
X48906755Y88466829D02*
X48811517Y88514448D01*
X48811517Y88514448D02*
X48668660Y88514448D01*
X48668660Y88514448D02*
X48573422Y88466829D01*
X48240088Y88514448D02*
X47859136Y88514448D01*
X48097231Y88847781D02*
X48097231Y87990639D01*
X48097231Y87990639D02*
X48049612Y87895400D01*
X48049612Y87895400D02*
X47954374Y87847781D01*
X47954374Y87847781D02*
X47859136Y87847781D01*
X47144850Y87895400D02*
X47240088Y87847781D01*
X47240088Y87847781D02*
X47430564Y87847781D01*
X47430564Y87847781D02*
X47525802Y87895400D01*
X47525802Y87895400D02*
X47573421Y87990639D01*
X47573421Y87990639D02*
X47573421Y88371591D01*
X47573421Y88371591D02*
X47525802Y88466829D01*
X47525802Y88466829D02*
X47430564Y88514448D01*
X47430564Y88514448D02*
X47240088Y88514448D01*
X47240088Y88514448D02*
X47144850Y88466829D01*
X47144850Y88466829D02*
X47097231Y88371591D01*
X47097231Y88371591D02*
X47097231Y88276353D01*
X47097231Y88276353D02*
X47573421Y88181115D01*
X46668659Y87847781D02*
X46668659Y88514448D01*
X46668659Y88323972D02*
X46621040Y88419210D01*
X46621040Y88419210D02*
X46573421Y88466829D01*
X46573421Y88466829D02*
X46478183Y88514448D01*
X46478183Y88514448D02*
X46382945Y88514448D01*
X12716279Y48323972D02*
X12763898Y48371591D01*
X12763898Y48371591D02*
X12859136Y48419210D01*
X12859136Y48419210D02*
X12954374Y48419210D01*
X12954374Y48419210D02*
X13049612Y48371591D01*
X13049612Y48371591D02*
X13097231Y48323972D01*
X13097231Y48323972D02*
X13144850Y48228734D01*
X13144850Y48228734D02*
X13144850Y48133496D01*
X13144850Y48133496D02*
X13097231Y48038258D01*
X13097231Y48038258D02*
X13049612Y47990639D01*
X13049612Y47990639D02*
X12954374Y47943020D01*
X12954374Y47943020D02*
X12859136Y47943020D01*
X12859136Y47943020D02*
X12763898Y47990639D01*
X12763898Y47990639D02*
X12716279Y48038258D01*
X12716279Y48419210D02*
X12716279Y48038258D01*
X12716279Y48038258D02*
X12668660Y47990639D01*
X12668660Y47990639D02*
X12621041Y47990639D01*
X12621041Y47990639D02*
X12525802Y48038258D01*
X12525802Y48038258D02*
X12478183Y48133496D01*
X12478183Y48133496D02*
X12478183Y48371591D01*
X12478183Y48371591D02*
X12573422Y48514448D01*
X12573422Y48514448D02*
X12716279Y48609686D01*
X12716279Y48609686D02*
X12906755Y48657305D01*
X12906755Y48657305D02*
X13097231Y48609686D01*
X13097231Y48609686D02*
X13240088Y48514448D01*
X13240088Y48514448D02*
X13335326Y48371591D01*
X13335326Y48371591D02*
X13382945Y48181115D01*
X13382945Y48181115D02*
X13335326Y47990639D01*
X13335326Y47990639D02*
X13240088Y47847781D01*
X13240088Y47847781D02*
X13097231Y47752543D01*
X13097231Y47752543D02*
X12906755Y47704924D01*
X12906755Y47704924D02*
X12716279Y47752543D01*
X12716279Y47752543D02*
X12573422Y47847781D01*
X12049612Y47847781D02*
X12049612Y48847781D01*
X11621041Y47847781D02*
X11621041Y48371591D01*
X11621041Y48371591D02*
X11668660Y48466829D01*
X11668660Y48466829D02*
X11763898Y48514448D01*
X11763898Y48514448D02*
X11906755Y48514448D01*
X11906755Y48514448D02*
X12001993Y48466829D01*
X12001993Y48466829D02*
X12049612Y48419210D01*
X10716279Y47847781D02*
X10716279Y48371591D01*
X10716279Y48371591D02*
X10763898Y48466829D01*
X10763898Y48466829D02*
X10859136Y48514448D01*
X10859136Y48514448D02*
X11049612Y48514448D01*
X11049612Y48514448D02*
X11144850Y48466829D01*
X10716279Y47895400D02*
X10811517Y47847781D01*
X10811517Y47847781D02*
X11049612Y47847781D01*
X11049612Y47847781D02*
X11144850Y47895400D01*
X11144850Y47895400D02*
X11192469Y47990639D01*
X11192469Y47990639D02*
X11192469Y48085877D01*
X11192469Y48085877D02*
X11144850Y48181115D01*
X11144850Y48181115D02*
X11049612Y48228734D01*
X11049612Y48228734D02*
X10811517Y48228734D01*
X10811517Y48228734D02*
X10716279Y48276353D01*
X10240088Y47847781D02*
X10240088Y48514448D01*
X10240088Y48419210D02*
X10192469Y48466829D01*
X10192469Y48466829D02*
X10097231Y48514448D01*
X10097231Y48514448D02*
X9954374Y48514448D01*
X9954374Y48514448D02*
X9859136Y48466829D01*
X9859136Y48466829D02*
X9811517Y48371591D01*
X9811517Y48371591D02*
X9811517Y47847781D01*
X9811517Y48371591D02*
X9763898Y48466829D01*
X9763898Y48466829D02*
X9668660Y48514448D01*
X9668660Y48514448D02*
X9525803Y48514448D01*
X9525803Y48514448D02*
X9430564Y48466829D01*
X9430564Y48466829D02*
X9382945Y48371591D01*
X9382945Y48371591D02*
X9382945Y47847781D01*
X8954374Y47895400D02*
X8859136Y47847781D01*
X8859136Y47847781D02*
X8668660Y47847781D01*
X8668660Y47847781D02*
X8573422Y47895400D01*
X8573422Y47895400D02*
X8525803Y47990639D01*
X8525803Y47990639D02*
X8525803Y48038258D01*
X8525803Y48038258D02*
X8573422Y48133496D01*
X8573422Y48133496D02*
X8668660Y48181115D01*
X8668660Y48181115D02*
X8811517Y48181115D01*
X8811517Y48181115D02*
X8906755Y48228734D01*
X8906755Y48228734D02*
X8954374Y48323972D01*
X8954374Y48323972D02*
X8954374Y48371591D01*
X8954374Y48371591D02*
X8906755Y48466829D01*
X8906755Y48466829D02*
X8811517Y48514448D01*
X8811517Y48514448D02*
X8668660Y48514448D01*
X8668660Y48514448D02*
X8573422Y48466829D01*
X8240088Y48514448D02*
X7859136Y48514448D01*
X8097231Y48847781D02*
X8097231Y47990639D01*
X8097231Y47990639D02*
X8049612Y47895400D01*
X8049612Y47895400D02*
X7954374Y47847781D01*
X7954374Y47847781D02*
X7859136Y47847781D01*
X7144850Y47895400D02*
X7240088Y47847781D01*
X7240088Y47847781D02*
X7430564Y47847781D01*
X7430564Y47847781D02*
X7525802Y47895400D01*
X7525802Y47895400D02*
X7573421Y47990639D01*
X7573421Y47990639D02*
X7573421Y48371591D01*
X7573421Y48371591D02*
X7525802Y48466829D01*
X7525802Y48466829D02*
X7430564Y48514448D01*
X7430564Y48514448D02*
X7240088Y48514448D01*
X7240088Y48514448D02*
X7144850Y48466829D01*
X7144850Y48466829D02*
X7097231Y48371591D01*
X7097231Y48371591D02*
X7097231Y48276353D01*
X7097231Y48276353D02*
X7573421Y48181115D01*
X6668659Y47847781D02*
X6668659Y48514448D01*
X6668659Y48323972D02*
X6621040Y48419210D01*
X6621040Y48419210D02*
X6573421Y48466829D01*
X6573421Y48466829D02*
X6478183Y48514448D01*
X6478183Y48514448D02*
X6382945Y48514448D01*
X72716279Y28323972D02*
X72763898Y28371591D01*
X72763898Y28371591D02*
X72859136Y28419210D01*
X72859136Y28419210D02*
X72954374Y28419210D01*
X72954374Y28419210D02*
X73049612Y28371591D01*
X73049612Y28371591D02*
X73097231Y28323972D01*
X73097231Y28323972D02*
X73144850Y28228734D01*
X73144850Y28228734D02*
X73144850Y28133496D01*
X73144850Y28133496D02*
X73097231Y28038258D01*
X73097231Y28038258D02*
X73049612Y27990639D01*
X73049612Y27990639D02*
X72954374Y27943020D01*
X72954374Y27943020D02*
X72859136Y27943020D01*
X72859136Y27943020D02*
X72763898Y27990639D01*
X72763898Y27990639D02*
X72716279Y28038258D01*
X72716279Y28419210D02*
X72716279Y28038258D01*
X72716279Y28038258D02*
X72668660Y27990639D01*
X72668660Y27990639D02*
X72621041Y27990639D01*
X72621041Y27990639D02*
X72525802Y28038258D01*
X72525802Y28038258D02*
X72478183Y28133496D01*
X72478183Y28133496D02*
X72478183Y28371591D01*
X72478183Y28371591D02*
X72573422Y28514448D01*
X72573422Y28514448D02*
X72716279Y28609686D01*
X72716279Y28609686D02*
X72906755Y28657305D01*
X72906755Y28657305D02*
X73097231Y28609686D01*
X73097231Y28609686D02*
X73240088Y28514448D01*
X73240088Y28514448D02*
X73335326Y28371591D01*
X73335326Y28371591D02*
X73382945Y28181115D01*
X73382945Y28181115D02*
X73335326Y27990639D01*
X73335326Y27990639D02*
X73240088Y27847781D01*
X73240088Y27847781D02*
X73097231Y27752543D01*
X73097231Y27752543D02*
X72906755Y27704924D01*
X72906755Y27704924D02*
X72716279Y27752543D01*
X72716279Y27752543D02*
X72573422Y27847781D01*
X72049612Y27847781D02*
X72049612Y28847781D01*
X71621041Y27847781D02*
X71621041Y28371591D01*
X71621041Y28371591D02*
X71668660Y28466829D01*
X71668660Y28466829D02*
X71763898Y28514448D01*
X71763898Y28514448D02*
X71906755Y28514448D01*
X71906755Y28514448D02*
X72001993Y28466829D01*
X72001993Y28466829D02*
X72049612Y28419210D01*
X70716279Y27847781D02*
X70716279Y28371591D01*
X70716279Y28371591D02*
X70763898Y28466829D01*
X70763898Y28466829D02*
X70859136Y28514448D01*
X70859136Y28514448D02*
X71049612Y28514448D01*
X71049612Y28514448D02*
X71144850Y28466829D01*
X70716279Y27895400D02*
X70811517Y27847781D01*
X70811517Y27847781D02*
X71049612Y27847781D01*
X71049612Y27847781D02*
X71144850Y27895400D01*
X71144850Y27895400D02*
X71192469Y27990639D01*
X71192469Y27990639D02*
X71192469Y28085877D01*
X71192469Y28085877D02*
X71144850Y28181115D01*
X71144850Y28181115D02*
X71049612Y28228734D01*
X71049612Y28228734D02*
X70811517Y28228734D01*
X70811517Y28228734D02*
X70716279Y28276353D01*
X70240088Y27847781D02*
X70240088Y28514448D01*
X70240088Y28419210D02*
X70192469Y28466829D01*
X70192469Y28466829D02*
X70097231Y28514448D01*
X70097231Y28514448D02*
X69954374Y28514448D01*
X69954374Y28514448D02*
X69859136Y28466829D01*
X69859136Y28466829D02*
X69811517Y28371591D01*
X69811517Y28371591D02*
X69811517Y27847781D01*
X69811517Y28371591D02*
X69763898Y28466829D01*
X69763898Y28466829D02*
X69668660Y28514448D01*
X69668660Y28514448D02*
X69525803Y28514448D01*
X69525803Y28514448D02*
X69430564Y28466829D01*
X69430564Y28466829D02*
X69382945Y28371591D01*
X69382945Y28371591D02*
X69382945Y27847781D01*
X68954374Y27895400D02*
X68859136Y27847781D01*
X68859136Y27847781D02*
X68668660Y27847781D01*
X68668660Y27847781D02*
X68573422Y27895400D01*
X68573422Y27895400D02*
X68525803Y27990639D01*
X68525803Y27990639D02*
X68525803Y28038258D01*
X68525803Y28038258D02*
X68573422Y28133496D01*
X68573422Y28133496D02*
X68668660Y28181115D01*
X68668660Y28181115D02*
X68811517Y28181115D01*
X68811517Y28181115D02*
X68906755Y28228734D01*
X68906755Y28228734D02*
X68954374Y28323972D01*
X68954374Y28323972D02*
X68954374Y28371591D01*
X68954374Y28371591D02*
X68906755Y28466829D01*
X68906755Y28466829D02*
X68811517Y28514448D01*
X68811517Y28514448D02*
X68668660Y28514448D01*
X68668660Y28514448D02*
X68573422Y28466829D01*
X68240088Y28514448D02*
X67859136Y28514448D01*
X68097231Y28847781D02*
X68097231Y27990639D01*
X68097231Y27990639D02*
X68049612Y27895400D01*
X68049612Y27895400D02*
X67954374Y27847781D01*
X67954374Y27847781D02*
X67859136Y27847781D01*
X67144850Y27895400D02*
X67240088Y27847781D01*
X67240088Y27847781D02*
X67430564Y27847781D01*
X67430564Y27847781D02*
X67525802Y27895400D01*
X67525802Y27895400D02*
X67573421Y27990639D01*
X67573421Y27990639D02*
X67573421Y28371591D01*
X67573421Y28371591D02*
X67525802Y28466829D01*
X67525802Y28466829D02*
X67430564Y28514448D01*
X67430564Y28514448D02*
X67240088Y28514448D01*
X67240088Y28514448D02*
X67144850Y28466829D01*
X67144850Y28466829D02*
X67097231Y28371591D01*
X67097231Y28371591D02*
X67097231Y28276353D01*
X67097231Y28276353D02*
X67573421Y28181115D01*
X66668659Y27847781D02*
X66668659Y28514448D01*
X66668659Y28323972D02*
X66621040Y28419210D01*
X66621040Y28419210D02*
X66573421Y28466829D01*
X66573421Y28466829D02*
X66478183Y28514448D01*
X66478183Y28514448D02*
X66382945Y28514448D01*
X32716279Y88323972D02*
X32763898Y88371591D01*
X32763898Y88371591D02*
X32859136Y88419210D01*
X32859136Y88419210D02*
X32954374Y88419210D01*
X32954374Y88419210D02*
X33049612Y88371591D01*
X33049612Y88371591D02*
X33097231Y88323972D01*
X33097231Y88323972D02*
X33144850Y88228734D01*
X33144850Y88228734D02*
X33144850Y88133496D01*
X33144850Y88133496D02*
X33097231Y88038258D01*
X33097231Y88038258D02*
X33049612Y87990639D01*
X33049612Y87990639D02*
X32954374Y87943020D01*
X32954374Y87943020D02*
X32859136Y87943020D01*
X32859136Y87943020D02*
X32763898Y87990639D01*
X32763898Y87990639D02*
X32716279Y88038258D01*
X32716279Y88419210D02*
X32716279Y88038258D01*
X32716279Y88038258D02*
X32668660Y87990639D01*
X32668660Y87990639D02*
X32621041Y87990639D01*
X32621041Y87990639D02*
X32525802Y88038258D01*
X32525802Y88038258D02*
X32478183Y88133496D01*
X32478183Y88133496D02*
X32478183Y88371591D01*
X32478183Y88371591D02*
X32573422Y88514448D01*
X32573422Y88514448D02*
X32716279Y88609686D01*
X32716279Y88609686D02*
X32906755Y88657305D01*
X32906755Y88657305D02*
X33097231Y88609686D01*
X33097231Y88609686D02*
X33240088Y88514448D01*
X33240088Y88514448D02*
X33335326Y88371591D01*
X33335326Y88371591D02*
X33382945Y88181115D01*
X33382945Y88181115D02*
X33335326Y87990639D01*
X33335326Y87990639D02*
X33240088Y87847781D01*
X33240088Y87847781D02*
X33097231Y87752543D01*
X33097231Y87752543D02*
X32906755Y87704924D01*
X32906755Y87704924D02*
X32716279Y87752543D01*
X32716279Y87752543D02*
X32573422Y87847781D01*
X32049612Y87847781D02*
X32049612Y88847781D01*
X31621041Y87847781D02*
X31621041Y88371591D01*
X31621041Y88371591D02*
X31668660Y88466829D01*
X31668660Y88466829D02*
X31763898Y88514448D01*
X31763898Y88514448D02*
X31906755Y88514448D01*
X31906755Y88514448D02*
X32001993Y88466829D01*
X32001993Y88466829D02*
X32049612Y88419210D01*
X30716279Y87847781D02*
X30716279Y88371591D01*
X30716279Y88371591D02*
X30763898Y88466829D01*
X30763898Y88466829D02*
X30859136Y88514448D01*
X30859136Y88514448D02*
X31049612Y88514448D01*
X31049612Y88514448D02*
X31144850Y88466829D01*
X30716279Y87895400D02*
X30811517Y87847781D01*
X30811517Y87847781D02*
X31049612Y87847781D01*
X31049612Y87847781D02*
X31144850Y87895400D01*
X31144850Y87895400D02*
X31192469Y87990639D01*
X31192469Y87990639D02*
X31192469Y88085877D01*
X31192469Y88085877D02*
X31144850Y88181115D01*
X31144850Y88181115D02*
X31049612Y88228734D01*
X31049612Y88228734D02*
X30811517Y88228734D01*
X30811517Y88228734D02*
X30716279Y88276353D01*
X30240088Y87847781D02*
X30240088Y88514448D01*
X30240088Y88419210D02*
X30192469Y88466829D01*
X30192469Y88466829D02*
X30097231Y88514448D01*
X30097231Y88514448D02*
X29954374Y88514448D01*
X29954374Y88514448D02*
X29859136Y88466829D01*
X29859136Y88466829D02*
X29811517Y88371591D01*
X29811517Y88371591D02*
X29811517Y87847781D01*
X29811517Y88371591D02*
X29763898Y88466829D01*
X29763898Y88466829D02*
X29668660Y88514448D01*
X29668660Y88514448D02*
X29525803Y88514448D01*
X29525803Y88514448D02*
X29430564Y88466829D01*
X29430564Y88466829D02*
X29382945Y88371591D01*
X29382945Y88371591D02*
X29382945Y87847781D01*
X28954374Y87895400D02*
X28859136Y87847781D01*
X28859136Y87847781D02*
X28668660Y87847781D01*
X28668660Y87847781D02*
X28573422Y87895400D01*
X28573422Y87895400D02*
X28525803Y87990639D01*
X28525803Y87990639D02*
X28525803Y88038258D01*
X28525803Y88038258D02*
X28573422Y88133496D01*
X28573422Y88133496D02*
X28668660Y88181115D01*
X28668660Y88181115D02*
X28811517Y88181115D01*
X28811517Y88181115D02*
X28906755Y88228734D01*
X28906755Y88228734D02*
X28954374Y88323972D01*
X28954374Y88323972D02*
X28954374Y88371591D01*
X28954374Y88371591D02*
X28906755Y88466829D01*
X28906755Y88466829D02*
X28811517Y88514448D01*
X28811517Y88514448D02*
X28668660Y88514448D01*
X28668660Y88514448D02*
X28573422Y88466829D01*
X28240088Y88514448D02*
X27859136Y88514448D01*
X28097231Y88847781D02*
X28097231Y87990639D01*
X28097231Y87990639D02*
X28049612Y87895400D01*
X28049612Y87895400D02*
X27954374Y87847781D01*
X27954374Y87847781D02*
X27859136Y87847781D01*
X27144850Y87895400D02*
X27240088Y87847781D01*
X27240088Y87847781D02*
X27430564Y87847781D01*
X27430564Y87847781D02*
X27525802Y87895400D01*
X27525802Y87895400D02*
X27573421Y87990639D01*
X27573421Y87990639D02*
X27573421Y88371591D01*
X27573421Y88371591D02*
X27525802Y88466829D01*
X27525802Y88466829D02*
X27430564Y88514448D01*
X27430564Y88514448D02*
X27240088Y88514448D01*
X27240088Y88514448D02*
X27144850Y88466829D01*
X27144850Y88466829D02*
X27097231Y88371591D01*
X27097231Y88371591D02*
X27097231Y88276353D01*
X27097231Y88276353D02*
X27573421Y88181115D01*
X26668659Y87847781D02*
X26668659Y88514448D01*
X26668659Y88323972D02*
X26621040Y88419210D01*
X26621040Y88419210D02*
X26573421Y88466829D01*
X26573421Y88466829D02*
X26478183Y88514448D01*
X26478183Y88514448D02*
X26382945Y88514448D01*
X92716279Y8323972D02*
X92763898Y8371591D01*
X92763898Y8371591D02*
X92859136Y8419210D01*
X92859136Y8419210D02*
X92954374Y8419210D01*
X92954374Y8419210D02*
X93049612Y8371591D01*
X93049612Y8371591D02*
X93097231Y8323972D01*
X93097231Y8323972D02*
X93144850Y8228734D01*
X93144850Y8228734D02*
X93144850Y8133496D01*
X93144850Y8133496D02*
X93097231Y8038258D01*
X93097231Y8038258D02*
X93049612Y7990639D01*
X93049612Y7990639D02*
X92954374Y7943020D01*
X92954374Y7943020D02*
X92859136Y7943020D01*
X92859136Y7943020D02*
X92763898Y7990639D01*
X92763898Y7990639D02*
X92716279Y8038258D01*
X92716279Y8419210D02*
X92716279Y8038258D01*
X92716279Y8038258D02*
X92668660Y7990639D01*
X92668660Y7990639D02*
X92621041Y7990639D01*
X92621041Y7990639D02*
X92525802Y8038258D01*
X92525802Y8038258D02*
X92478183Y8133496D01*
X92478183Y8133496D02*
X92478183Y8371591D01*
X92478183Y8371591D02*
X92573422Y8514448D01*
X92573422Y8514448D02*
X92716279Y8609686D01*
X92716279Y8609686D02*
X92906755Y8657305D01*
X92906755Y8657305D02*
X93097231Y8609686D01*
X93097231Y8609686D02*
X93240088Y8514448D01*
X93240088Y8514448D02*
X93335326Y8371591D01*
X93335326Y8371591D02*
X93382945Y8181115D01*
X93382945Y8181115D02*
X93335326Y7990639D01*
X93335326Y7990639D02*
X93240088Y7847781D01*
X93240088Y7847781D02*
X93097231Y7752543D01*
X93097231Y7752543D02*
X92906755Y7704924D01*
X92906755Y7704924D02*
X92716279Y7752543D01*
X92716279Y7752543D02*
X92573422Y7847781D01*
X92049612Y7847781D02*
X92049612Y8847781D01*
X91621041Y7847781D02*
X91621041Y8371591D01*
X91621041Y8371591D02*
X91668660Y8466829D01*
X91668660Y8466829D02*
X91763898Y8514448D01*
X91763898Y8514448D02*
X91906755Y8514448D01*
X91906755Y8514448D02*
X92001993Y8466829D01*
X92001993Y8466829D02*
X92049612Y8419210D01*
X90716279Y7847781D02*
X90716279Y8371591D01*
X90716279Y8371591D02*
X90763898Y8466829D01*
X90763898Y8466829D02*
X90859136Y8514448D01*
X90859136Y8514448D02*
X91049612Y8514448D01*
X91049612Y8514448D02*
X91144850Y8466829D01*
X90716279Y7895400D02*
X90811517Y7847781D01*
X90811517Y7847781D02*
X91049612Y7847781D01*
X91049612Y7847781D02*
X91144850Y7895400D01*
X91144850Y7895400D02*
X91192469Y7990639D01*
X91192469Y7990639D02*
X91192469Y8085877D01*
X91192469Y8085877D02*
X91144850Y8181115D01*
X91144850Y8181115D02*
X91049612Y8228734D01*
X91049612Y8228734D02*
X90811517Y8228734D01*
X90811517Y8228734D02*
X90716279Y8276353D01*
X90240088Y7847781D02*
X90240088Y8514448D01*
X90240088Y8419210D02*
X90192469Y8466829D01*
X90192469Y8466829D02*
X90097231Y8514448D01*
X90097231Y8514448D02*
X89954374Y8514448D01*
X89954374Y8514448D02*
X89859136Y8466829D01*
X89859136Y8466829D02*
X89811517Y8371591D01*
X89811517Y8371591D02*
X89811517Y7847781D01*
X89811517Y8371591D02*
X89763898Y8466829D01*
X89763898Y8466829D02*
X89668660Y8514448D01*
X89668660Y8514448D02*
X89525803Y8514448D01*
X89525803Y8514448D02*
X89430564Y8466829D01*
X89430564Y8466829D02*
X89382945Y8371591D01*
X89382945Y8371591D02*
X89382945Y7847781D01*
X88954374Y7895400D02*
X88859136Y7847781D01*
X88859136Y7847781D02*
X88668660Y7847781D01*
X88668660Y7847781D02*
X88573422Y7895400D01*
X88573422Y7895400D02*
X88525803Y7990639D01*
X88525803Y7990639D02*
X88525803Y8038258D01*
X88525803Y8038258D02*
X88573422Y8133496D01*
X88573422Y8133496D02*
X88668660Y8181115D01*
X88668660Y8181115D02*
X88811517Y8181115D01*
X88811517Y8181115D02*
X88906755Y8228734D01*
X88906755Y8228734D02*
X88954374Y8323972D01*
X88954374Y8323972D02*
X88954374Y8371591D01*
X88954374Y8371591D02*
X88906755Y8466829D01*
X88906755Y8466829D02*
X88811517Y8514448D01*
X88811517Y8514448D02*
X88668660Y8514448D01*
X88668660Y8514448D02*
X88573422Y8466829D01*
X88240088Y8514448D02*
X87859136Y8514448D01*
X88097231Y8847781D02*
X88097231Y7990639D01*
X88097231Y7990639D02*
X88049612Y7895400D01*
X88049612Y7895400D02*
X87954374Y7847781D01*
X87954374Y7847781D02*
X87859136Y7847781D01*
X87144850Y7895400D02*
X87240088Y7847781D01*
X87240088Y7847781D02*
X87430564Y7847781D01*
X87430564Y7847781D02*
X87525802Y7895400D01*
X87525802Y7895400D02*
X87573421Y7990639D01*
X87573421Y7990639D02*
X87573421Y8371591D01*
X87573421Y8371591D02*
X87525802Y8466829D01*
X87525802Y8466829D02*
X87430564Y8514448D01*
X87430564Y8514448D02*
X87240088Y8514448D01*
X87240088Y8514448D02*
X87144850Y8466829D01*
X87144850Y8466829D02*
X87097231Y8371591D01*
X87097231Y8371591D02*
X87097231Y8276353D01*
X87097231Y8276353D02*
X87573421Y8181115D01*
X86668659Y7847781D02*
X86668659Y8514448D01*
X86668659Y8323972D02*
X86621040Y8419210D01*
X86621040Y8419210D02*
X86573421Y8466829D01*
X86573421Y8466829D02*
X86478183Y8514448D01*
X86478183Y8514448D02*
X86382945Y8514448D01*
X12716279Y68323972D02*
X12763898Y68371591D01*
X12763898Y68371591D02*
X12859136Y68419210D01*
X12859136Y68419210D02*
X12954374Y68419210D01*
X12954374Y68419210D02*
X13049612Y68371591D01*
X13049612Y68371591D02*
X13097231Y68323972D01*
X13097231Y68323972D02*
X13144850Y68228734D01*
X13144850Y68228734D02*
X13144850Y68133496D01*
X13144850Y68133496D02*
X13097231Y68038258D01*
X13097231Y68038258D02*
X13049612Y67990639D01*
X13049612Y67990639D02*
X12954374Y67943020D01*
X12954374Y67943020D02*
X12859136Y67943020D01*
X12859136Y67943020D02*
X12763898Y67990639D01*
X12763898Y67990639D02*
X12716279Y68038258D01*
X12716279Y68419210D02*
X12716279Y68038258D01*
X12716279Y68038258D02*
X12668660Y67990639D01*
X12668660Y67990639D02*
X12621041Y67990639D01*
X12621041Y67990639D02*
X12525802Y68038258D01*
X12525802Y68038258D02*
X12478183Y68133496D01*
X12478183Y68133496D02*
X12478183Y68371591D01*
X12478183Y68371591D02*
X12573422Y68514448D01*
X12573422Y68514448D02*
X12716279Y68609686D01*
X12716279Y68609686D02*
X12906755Y68657305D01*
X12906755Y68657305D02*
X13097231Y68609686D01*
X13097231Y68609686D02*
X13240088Y68514448D01*
X13240088Y68514448D02*
X13335326Y68371591D01*
X13335326Y68371591D02*
X13382945Y68181115D01*
X13382945Y68181115D02*
X13335326Y67990639D01*
X13335326Y67990639D02*
X13240088Y67847781D01*
X13240088Y67847781D02*
X13097231Y67752543D01*
X13097231Y67752543D02*
X12906755Y67704924D01*
X12906755Y67704924D02*
X12716279Y67752543D01*
X12716279Y67752543D02*
X12573422Y67847781D01*
X12049612Y67847781D02*
X12049612Y68847781D01*
X11621041Y67847781D02*
X11621041Y68371591D01*
X11621041Y68371591D02*
X11668660Y68466829D01*
X11668660Y68466829D02*
X11763898Y68514448D01*
X11763898Y68514448D02*
X11906755Y68514448D01*
X11906755Y68514448D02*
X12001993Y68466829D01*
X12001993Y68466829D02*
X12049612Y68419210D01*
X10716279Y67847781D02*
X10716279Y68371591D01*
X10716279Y68371591D02*
X10763898Y68466829D01*
X10763898Y68466829D02*
X10859136Y68514448D01*
X10859136Y68514448D02*
X11049612Y68514448D01*
X11049612Y68514448D02*
X11144850Y68466829D01*
X10716279Y67895400D02*
X10811517Y67847781D01*
X10811517Y67847781D02*
X11049612Y67847781D01*
X11049612Y67847781D02*
X11144850Y67895400D01*
X11144850Y67895400D02*
X11192469Y67990639D01*
X11192469Y67990639D02*
X11192469Y68085877D01*
X11192469Y68085877D02*
X11144850Y68181115D01*
X11144850Y68181115D02*
X11049612Y68228734D01*
X11049612Y68228734D02*
X10811517Y68228734D01*
X10811517Y68228734D02*
X10716279Y68276353D01*
X10240088Y67847781D02*
X10240088Y68514448D01*
X10240088Y68419210D02*
X10192469Y68466829D01*
X10192469Y68466829D02*
X10097231Y68514448D01*
X10097231Y68514448D02*
X9954374Y68514448D01*
X9954374Y68514448D02*
X9859136Y68466829D01*
X9859136Y68466829D02*
X9811517Y68371591D01*
X9811517Y68371591D02*
X9811517Y67847781D01*
X9811517Y68371591D02*
X9763898Y68466829D01*
X9763898Y68466829D02*
X9668660Y68514448D01*
X9668660Y68514448D02*
X9525803Y68514448D01*
X9525803Y68514448D02*
X9430564Y68466829D01*
X9430564Y68466829D02*
X9382945Y68371591D01*
X9382945Y68371591D02*
X9382945Y67847781D01*
X8954374Y67895400D02*
X8859136Y67847781D01*
X8859136Y67847781D02*
X8668660Y67847781D01*
X8668660Y67847781D02*
X8573422Y67895400D01*
X8573422Y67895400D02*
X8525803Y67990639D01*
X8525803Y67990639D02*
X8525803Y68038258D01*
X8525803Y68038258D02*
X8573422Y68133496D01*
X8573422Y68133496D02*
X8668660Y68181115D01*
X8668660Y68181115D02*
X8811517Y68181115D01*
X8811517Y68181115D02*
X8906755Y68228734D01*
X8906755Y68228734D02*
X8954374Y68323972D01*
X8954374Y68323972D02*
X8954374Y68371591D01*
X8954374Y68371591D02*
X8906755Y68466829D01*
X8906755Y68466829D02*
X8811517Y68514448D01*
X8811517Y68514448D02*
X8668660Y68514448D01*
X8668660Y68514448D02*
X8573422Y68466829D01*
X8240088Y68514448D02*
X7859136Y68514448D01*
X8097231Y68847781D02*
X8097231Y67990639D01*
X8097231Y67990639D02*
X8049612Y67895400D01*
X8049612Y67895400D02*
X7954374Y67847781D01*
X7954374Y67847781D02*
X7859136Y67847781D01*
X7144850Y67895400D02*
X7240088Y67847781D01*
X7240088Y67847781D02*
X7430564Y67847781D01*
X7430564Y67847781D02*
X7525802Y67895400D01*
X7525802Y67895400D02*
X7573421Y67990639D01*
X7573421Y67990639D02*
X7573421Y68371591D01*
X7573421Y68371591D02*
X7525802Y68466829D01*
X7525802Y68466829D02*
X7430564Y68514448D01*
X7430564Y68514448D02*
X7240088Y68514448D01*
X7240088Y68514448D02*
X7144850Y68466829D01*
X7144850Y68466829D02*
X7097231Y68371591D01*
X7097231Y68371591D02*
X7097231Y68276353D01*
X7097231Y68276353D02*
X7573421Y68181115D01*
X6668659Y67847781D02*
X6668659Y68514448D01*
X6668659Y68323972D02*
X6621040Y68419210D01*
X6621040Y68419210D02*
X6573421Y68466829D01*
X6573421Y68466829D02*
X6478183Y68514448D01*
X6478183Y68514448D02*
X6382945Y68514448D01*
X32716279Y68323972D02*
X32763898Y68371591D01*
X32763898Y68371591D02*
X32859136Y68419210D01*
X32859136Y68419210D02*
X32954374Y68419210D01*
X32954374Y68419210D02*
X33049612Y68371591D01*
X33049612Y68371591D02*
X33097231Y68323972D01*
X33097231Y68323972D02*
X33144850Y68228734D01*
X33144850Y68228734D02*
X33144850Y68133496D01*
X33144850Y68133496D02*
X33097231Y68038258D01*
X33097231Y68038258D02*
X33049612Y67990639D01*
X33049612Y67990639D02*
X32954374Y67943020D01*
X32954374Y67943020D02*
X32859136Y67943020D01*
X32859136Y67943020D02*
X32763898Y67990639D01*
X32763898Y67990639D02*
X32716279Y68038258D01*
X32716279Y68419210D02*
X32716279Y68038258D01*
X32716279Y68038258D02*
X32668660Y67990639D01*
X32668660Y67990639D02*
X32621041Y67990639D01*
X32621041Y67990639D02*
X32525802Y68038258D01*
X32525802Y68038258D02*
X32478183Y68133496D01*
X32478183Y68133496D02*
X32478183Y68371591D01*
X32478183Y68371591D02*
X32573422Y68514448D01*
X32573422Y68514448D02*
X32716279Y68609686D01*
X32716279Y68609686D02*
X32906755Y68657305D01*
X32906755Y68657305D02*
X33097231Y68609686D01*
X33097231Y68609686D02*
X33240088Y68514448D01*
X33240088Y68514448D02*
X33335326Y68371591D01*
X33335326Y68371591D02*
X33382945Y68181115D01*
X33382945Y68181115D02*
X33335326Y67990639D01*
X33335326Y67990639D02*
X33240088Y67847781D01*
X33240088Y67847781D02*
X33097231Y67752543D01*
X33097231Y67752543D02*
X32906755Y67704924D01*
X32906755Y67704924D02*
X32716279Y67752543D01*
X32716279Y67752543D02*
X32573422Y67847781D01*
X32049612Y67847781D02*
X32049612Y68847781D01*
X31621041Y67847781D02*
X31621041Y68371591D01*
X31621041Y68371591D02*
X31668660Y68466829D01*
X31668660Y68466829D02*
X31763898Y68514448D01*
X31763898Y68514448D02*
X31906755Y68514448D01*
X31906755Y68514448D02*
X32001993Y68466829D01*
X32001993Y68466829D02*
X32049612Y68419210D01*
X30716279Y67847781D02*
X30716279Y68371591D01*
X30716279Y68371591D02*
X30763898Y68466829D01*
X30763898Y68466829D02*
X30859136Y68514448D01*
X30859136Y68514448D02*
X31049612Y68514448D01*
X31049612Y68514448D02*
X31144850Y68466829D01*
X30716279Y67895400D02*
X30811517Y67847781D01*
X30811517Y67847781D02*
X31049612Y67847781D01*
X31049612Y67847781D02*
X31144850Y67895400D01*
X31144850Y67895400D02*
X31192469Y67990639D01*
X31192469Y67990639D02*
X31192469Y68085877D01*
X31192469Y68085877D02*
X31144850Y68181115D01*
X31144850Y68181115D02*
X31049612Y68228734D01*
X31049612Y68228734D02*
X30811517Y68228734D01*
X30811517Y68228734D02*
X30716279Y68276353D01*
X30240088Y67847781D02*
X30240088Y68514448D01*
X30240088Y68419210D02*
X30192469Y68466829D01*
X30192469Y68466829D02*
X30097231Y68514448D01*
X30097231Y68514448D02*
X29954374Y68514448D01*
X29954374Y68514448D02*
X29859136Y68466829D01*
X29859136Y68466829D02*
X29811517Y68371591D01*
X29811517Y68371591D02*
X29811517Y67847781D01*
X29811517Y68371591D02*
X29763898Y68466829D01*
X29763898Y68466829D02*
X29668660Y68514448D01*
X29668660Y68514448D02*
X29525803Y68514448D01*
X29525803Y68514448D02*
X29430564Y68466829D01*
X29430564Y68466829D02*
X29382945Y68371591D01*
X29382945Y68371591D02*
X29382945Y67847781D01*
X28954374Y67895400D02*
X28859136Y67847781D01*
X28859136Y67847781D02*
X28668660Y67847781D01*
X28668660Y67847781D02*
X28573422Y67895400D01*
X28573422Y67895400D02*
X28525803Y67990639D01*
X28525803Y67990639D02*
X28525803Y68038258D01*
X28525803Y68038258D02*
X28573422Y68133496D01*
X28573422Y68133496D02*
X28668660Y68181115D01*
X28668660Y68181115D02*
X28811517Y68181115D01*
X28811517Y68181115D02*
X28906755Y68228734D01*
X28906755Y68228734D02*
X28954374Y68323972D01*
X28954374Y68323972D02*
X28954374Y68371591D01*
X28954374Y68371591D02*
X28906755Y68466829D01*
X28906755Y68466829D02*
X28811517Y68514448D01*
X28811517Y68514448D02*
X28668660Y68514448D01*
X28668660Y68514448D02*
X28573422Y68466829D01*
X28240088Y68514448D02*
X27859136Y68514448D01*
X28097231Y68847781D02*
X28097231Y67990639D01*
X28097231Y67990639D02*
X28049612Y67895400D01*
X28049612Y67895400D02*
X27954374Y67847781D01*
X27954374Y67847781D02*
X27859136Y67847781D01*
X27144850Y67895400D02*
X27240088Y67847781D01*
X27240088Y67847781D02*
X27430564Y67847781D01*
X27430564Y67847781D02*
X27525802Y67895400D01*
X27525802Y67895400D02*
X27573421Y67990639D01*
X27573421Y67990639D02*
X27573421Y68371591D01*
X27573421Y68371591D02*
X27525802Y68466829D01*
X27525802Y68466829D02*
X27430564Y68514448D01*
X27430564Y68514448D02*
X27240088Y68514448D01*
X27240088Y68514448D02*
X27144850Y68466829D01*
X27144850Y68466829D02*
X27097231Y68371591D01*
X27097231Y68371591D02*
X27097231Y68276353D01*
X27097231Y68276353D02*
X27573421Y68181115D01*
X26668659Y67847781D02*
X26668659Y68514448D01*
X26668659Y68323972D02*
X26621040Y68419210D01*
X26621040Y68419210D02*
X26573421Y68466829D01*
X26573421Y68466829D02*
X26478183Y68514448D01*
X26478183Y68514448D02*
X26382945Y68514448D01*
X72716279Y8323972D02*
X72763898Y8371591D01*
X72763898Y8371591D02*
X72859136Y8419210D01*
X72859136Y8419210D02*
X72954374Y8419210D01*
X72954374Y8419210D02*
X73049612Y8371591D01*
X73049612Y8371591D02*
X73097231Y8323972D01*
X73097231Y8323972D02*
X73144850Y8228734D01*
X73144850Y8228734D02*
X73144850Y8133496D01*
X73144850Y8133496D02*
X73097231Y8038258D01*
X73097231Y8038258D02*
X73049612Y7990639D01*
X73049612Y7990639D02*
X72954374Y7943020D01*
X72954374Y7943020D02*
X72859136Y7943020D01*
X72859136Y7943020D02*
X72763898Y7990639D01*
X72763898Y7990639D02*
X72716279Y8038258D01*
X72716279Y8419210D02*
X72716279Y8038258D01*
X72716279Y8038258D02*
X72668660Y7990639D01*
X72668660Y7990639D02*
X72621041Y7990639D01*
X72621041Y7990639D02*
X72525802Y8038258D01*
X72525802Y8038258D02*
X72478183Y8133496D01*
X72478183Y8133496D02*
X72478183Y8371591D01*
X72478183Y8371591D02*
X72573422Y8514448D01*
X72573422Y8514448D02*
X72716279Y8609686D01*
X72716279Y8609686D02*
X72906755Y8657305D01*
X72906755Y8657305D02*
X73097231Y8609686D01*
X73097231Y8609686D02*
X73240088Y8514448D01*
X73240088Y8514448D02*
X73335326Y8371591D01*
X73335326Y8371591D02*
X73382945Y8181115D01*
X73382945Y8181115D02*
X73335326Y7990639D01*
X73335326Y7990639D02*
X73240088Y7847781D01*
X73240088Y7847781D02*
X73097231Y7752543D01*
X73097231Y7752543D02*
X72906755Y7704924D01*
X72906755Y7704924D02*
X72716279Y7752543D01*
X72716279Y7752543D02*
X72573422Y7847781D01*
X72049612Y7847781D02*
X72049612Y8847781D01*
X71621041Y7847781D02*
X71621041Y8371591D01*
X71621041Y8371591D02*
X71668660Y8466829D01*
X71668660Y8466829D02*
X71763898Y8514448D01*
X71763898Y8514448D02*
X71906755Y8514448D01*
X71906755Y8514448D02*
X72001993Y8466829D01*
X72001993Y8466829D02*
X72049612Y8419210D01*
X70716279Y7847781D02*
X70716279Y8371591D01*
X70716279Y8371591D02*
X70763898Y8466829D01*
X70763898Y8466829D02*
X70859136Y8514448D01*
X70859136Y8514448D02*
X71049612Y8514448D01*
X71049612Y8514448D02*
X71144850Y8466829D01*
X70716279Y7895400D02*
X70811517Y7847781D01*
X70811517Y7847781D02*
X71049612Y7847781D01*
X71049612Y7847781D02*
X71144850Y7895400D01*
X71144850Y7895400D02*
X71192469Y7990639D01*
X71192469Y7990639D02*
X71192469Y8085877D01*
X71192469Y8085877D02*
X71144850Y8181115D01*
X71144850Y8181115D02*
X71049612Y8228734D01*
X71049612Y8228734D02*
X70811517Y8228734D01*
X70811517Y8228734D02*
X70716279Y8276353D01*
X70240088Y7847781D02*
X70240088Y8514448D01*
X70240088Y8419210D02*
X70192469Y8466829D01*
X70192469Y8466829D02*
X70097231Y8514448D01*
X70097231Y8514448D02*
X69954374Y8514448D01*
X69954374Y8514448D02*
X69859136Y8466829D01*
X69859136Y8466829D02*
X69811517Y8371591D01*
X69811517Y8371591D02*
X69811517Y7847781D01*
X69811517Y8371591D02*
X69763898Y8466829D01*
X69763898Y8466829D02*
X69668660Y8514448D01*
X69668660Y8514448D02*
X69525803Y8514448D01*
X69525803Y8514448D02*
X69430564Y8466829D01*
X69430564Y8466829D02*
X69382945Y8371591D01*
X69382945Y8371591D02*
X69382945Y7847781D01*
X68954374Y7895400D02*
X68859136Y7847781D01*
X68859136Y7847781D02*
X68668660Y7847781D01*
X68668660Y7847781D02*
X68573422Y7895400D01*
X68573422Y7895400D02*
X68525803Y7990639D01*
X68525803Y7990639D02*
X68525803Y8038258D01*
X68525803Y8038258D02*
X68573422Y8133496D01*
X68573422Y8133496D02*
X68668660Y8181115D01*
X68668660Y8181115D02*
X68811517Y8181115D01*
X68811517Y8181115D02*
X68906755Y8228734D01*
X68906755Y8228734D02*
X68954374Y8323972D01*
X68954374Y8323972D02*
X68954374Y8371591D01*
X68954374Y8371591D02*
X68906755Y8466829D01*
X68906755Y8466829D02*
X68811517Y8514448D01*
X68811517Y8514448D02*
X68668660Y8514448D01*
X68668660Y8514448D02*
X68573422Y8466829D01*
X68240088Y8514448D02*
X67859136Y8514448D01*
X68097231Y8847781D02*
X68097231Y7990639D01*
X68097231Y7990639D02*
X68049612Y7895400D01*
X68049612Y7895400D02*
X67954374Y7847781D01*
X67954374Y7847781D02*
X67859136Y7847781D01*
X67144850Y7895400D02*
X67240088Y7847781D01*
X67240088Y7847781D02*
X67430564Y7847781D01*
X67430564Y7847781D02*
X67525802Y7895400D01*
X67525802Y7895400D02*
X67573421Y7990639D01*
X67573421Y7990639D02*
X67573421Y8371591D01*
X67573421Y8371591D02*
X67525802Y8466829D01*
X67525802Y8466829D02*
X67430564Y8514448D01*
X67430564Y8514448D02*
X67240088Y8514448D01*
X67240088Y8514448D02*
X67144850Y8466829D01*
X67144850Y8466829D02*
X67097231Y8371591D01*
X67097231Y8371591D02*
X67097231Y8276353D01*
X67097231Y8276353D02*
X67573421Y8181115D01*
X66668659Y7847781D02*
X66668659Y8514448D01*
X66668659Y8323972D02*
X66621040Y8419210D01*
X66621040Y8419210D02*
X66573421Y8466829D01*
X66573421Y8466829D02*
X66478183Y8514448D01*
X66478183Y8514448D02*
X66382945Y8514448D01*
X32716279Y8323972D02*
X32763898Y8371591D01*
X32763898Y8371591D02*
X32859136Y8419210D01*
X32859136Y8419210D02*
X32954374Y8419210D01*
X32954374Y8419210D02*
X33049612Y8371591D01*
X33049612Y8371591D02*
X33097231Y8323972D01*
X33097231Y8323972D02*
X33144850Y8228734D01*
X33144850Y8228734D02*
X33144850Y8133496D01*
X33144850Y8133496D02*
X33097231Y8038258D01*
X33097231Y8038258D02*
X33049612Y7990639D01*
X33049612Y7990639D02*
X32954374Y7943020D01*
X32954374Y7943020D02*
X32859136Y7943020D01*
X32859136Y7943020D02*
X32763898Y7990639D01*
X32763898Y7990639D02*
X32716279Y8038258D01*
X32716279Y8419210D02*
X32716279Y8038258D01*
X32716279Y8038258D02*
X32668660Y7990639D01*
X32668660Y7990639D02*
X32621041Y7990639D01*
X32621041Y7990639D02*
X32525802Y8038258D01*
X32525802Y8038258D02*
X32478183Y8133496D01*
X32478183Y8133496D02*
X32478183Y8371591D01*
X32478183Y8371591D02*
X32573422Y8514448D01*
X32573422Y8514448D02*
X32716279Y8609686D01*
X32716279Y8609686D02*
X32906755Y8657305D01*
X32906755Y8657305D02*
X33097231Y8609686D01*
X33097231Y8609686D02*
X33240088Y8514448D01*
X33240088Y8514448D02*
X33335326Y8371591D01*
X33335326Y8371591D02*
X33382945Y8181115D01*
X33382945Y8181115D02*
X33335326Y7990639D01*
X33335326Y7990639D02*
X33240088Y7847781D01*
X33240088Y7847781D02*
X33097231Y7752543D01*
X33097231Y7752543D02*
X32906755Y7704924D01*
X32906755Y7704924D02*
X32716279Y7752543D01*
X32716279Y7752543D02*
X32573422Y7847781D01*
X32049612Y7847781D02*
X32049612Y8847781D01*
X31621041Y7847781D02*
X31621041Y8371591D01*
X31621041Y8371591D02*
X31668660Y8466829D01*
X31668660Y8466829D02*
X31763898Y8514448D01*
X31763898Y8514448D02*
X31906755Y8514448D01*
X31906755Y8514448D02*
X32001993Y8466829D01*
X32001993Y8466829D02*
X32049612Y8419210D01*
X30716279Y7847781D02*
X30716279Y8371591D01*
X30716279Y8371591D02*
X30763898Y8466829D01*
X30763898Y8466829D02*
X30859136Y8514448D01*
X30859136Y8514448D02*
X31049612Y8514448D01*
X31049612Y8514448D02*
X31144850Y8466829D01*
X30716279Y7895400D02*
X30811517Y7847781D01*
X30811517Y7847781D02*
X31049612Y7847781D01*
X31049612Y7847781D02*
X31144850Y7895400D01*
X31144850Y7895400D02*
X31192469Y7990639D01*
X31192469Y7990639D02*
X31192469Y8085877D01*
X31192469Y8085877D02*
X31144850Y8181115D01*
X31144850Y8181115D02*
X31049612Y8228734D01*
X31049612Y8228734D02*
X30811517Y8228734D01*
X30811517Y8228734D02*
X30716279Y8276353D01*
X30240088Y7847781D02*
X30240088Y8514448D01*
X30240088Y8419210D02*
X30192469Y8466829D01*
X30192469Y8466829D02*
X30097231Y8514448D01*
X30097231Y8514448D02*
X29954374Y8514448D01*
X29954374Y8514448D02*
X29859136Y8466829D01*
X29859136Y8466829D02*
X29811517Y8371591D01*
X29811517Y8371591D02*
X29811517Y7847781D01*
X29811517Y8371591D02*
X29763898Y8466829D01*
X29763898Y8466829D02*
X29668660Y8514448D01*
X29668660Y8514448D02*
X29525803Y8514448D01*
X29525803Y8514448D02*
X29430564Y8466829D01*
X29430564Y8466829D02*
X29382945Y8371591D01*
X29382945Y8371591D02*
X29382945Y7847781D01*
X28954374Y7895400D02*
X28859136Y7847781D01*
X28859136Y7847781D02*
X28668660Y7847781D01*
X28668660Y7847781D02*
X28573422Y7895400D01*
X28573422Y7895400D02*
X28525803Y7990639D01*
X28525803Y7990639D02*
X28525803Y8038258D01*
X28525803Y8038258D02*
X28573422Y8133496D01*
X28573422Y8133496D02*
X28668660Y8181115D01*
X28668660Y8181115D02*
X28811517Y8181115D01*
X28811517Y8181115D02*
X28906755Y8228734D01*
X28906755Y8228734D02*
X28954374Y8323972D01*
X28954374Y8323972D02*
X28954374Y8371591D01*
X28954374Y8371591D02*
X28906755Y8466829D01*
X28906755Y8466829D02*
X28811517Y8514448D01*
X28811517Y8514448D02*
X28668660Y8514448D01*
X28668660Y8514448D02*
X28573422Y8466829D01*
X28240088Y8514448D02*
X27859136Y8514448D01*
X28097231Y8847781D02*
X28097231Y7990639D01*
X28097231Y7990639D02*
X28049612Y7895400D01*
X28049612Y7895400D02*
X27954374Y7847781D01*
X27954374Y7847781D02*
X27859136Y7847781D01*
X27144850Y7895400D02*
X27240088Y7847781D01*
X27240088Y7847781D02*
X27430564Y7847781D01*
X27430564Y7847781D02*
X27525802Y7895400D01*
X27525802Y7895400D02*
X27573421Y7990639D01*
X27573421Y7990639D02*
X27573421Y8371591D01*
X27573421Y8371591D02*
X27525802Y8466829D01*
X27525802Y8466829D02*
X27430564Y8514448D01*
X27430564Y8514448D02*
X27240088Y8514448D01*
X27240088Y8514448D02*
X27144850Y8466829D01*
X27144850Y8466829D02*
X27097231Y8371591D01*
X27097231Y8371591D02*
X27097231Y8276353D01*
X27097231Y8276353D02*
X27573421Y8181115D01*
X26668659Y7847781D02*
X26668659Y8514448D01*
X26668659Y8323972D02*
X26621040Y8419210D01*
X26621040Y8419210D02*
X26573421Y8466829D01*
X26573421Y8466829D02*
X26478183Y8514448D01*
X26478183Y8514448D02*
X26382945Y8514448D01*
X32716279Y28323972D02*
X32763898Y28371591D01*
X32763898Y28371591D02*
X32859136Y28419210D01*
X32859136Y28419210D02*
X32954374Y28419210D01*
X32954374Y28419210D02*
X33049612Y28371591D01*
X33049612Y28371591D02*
X33097231Y28323972D01*
X33097231Y28323972D02*
X33144850Y28228734D01*
X33144850Y28228734D02*
X33144850Y28133496D01*
X33144850Y28133496D02*
X33097231Y28038258D01*
X33097231Y28038258D02*
X33049612Y27990639D01*
X33049612Y27990639D02*
X32954374Y27943020D01*
X32954374Y27943020D02*
X32859136Y27943020D01*
X32859136Y27943020D02*
X32763898Y27990639D01*
X32763898Y27990639D02*
X32716279Y28038258D01*
X32716279Y28419210D02*
X32716279Y28038258D01*
X32716279Y28038258D02*
X32668660Y27990639D01*
X32668660Y27990639D02*
X32621041Y27990639D01*
X32621041Y27990639D02*
X32525802Y28038258D01*
X32525802Y28038258D02*
X32478183Y28133496D01*
X32478183Y28133496D02*
X32478183Y28371591D01*
X32478183Y28371591D02*
X32573422Y28514448D01*
X32573422Y28514448D02*
X32716279Y28609686D01*
X32716279Y28609686D02*
X32906755Y28657305D01*
X32906755Y28657305D02*
X33097231Y28609686D01*
X33097231Y28609686D02*
X33240088Y28514448D01*
X33240088Y28514448D02*
X33335326Y28371591D01*
X33335326Y28371591D02*
X33382945Y28181115D01*
X33382945Y28181115D02*
X33335326Y27990639D01*
X33335326Y27990639D02*
X33240088Y27847781D01*
X33240088Y27847781D02*
X33097231Y27752543D01*
X33097231Y27752543D02*
X32906755Y27704924D01*
X32906755Y27704924D02*
X32716279Y27752543D01*
X32716279Y27752543D02*
X32573422Y27847781D01*
X32049612Y27847781D02*
X32049612Y28847781D01*
X31621041Y27847781D02*
X31621041Y28371591D01*
X31621041Y28371591D02*
X31668660Y28466829D01*
X31668660Y28466829D02*
X31763898Y28514448D01*
X31763898Y28514448D02*
X31906755Y28514448D01*
X31906755Y28514448D02*
X32001993Y28466829D01*
X32001993Y28466829D02*
X32049612Y28419210D01*
X30716279Y27847781D02*
X30716279Y28371591D01*
X30716279Y28371591D02*
X30763898Y28466829D01*
X30763898Y28466829D02*
X30859136Y28514448D01*
X30859136Y28514448D02*
X31049612Y28514448D01*
X31049612Y28514448D02*
X31144850Y28466829D01*
X30716279Y27895400D02*
X30811517Y27847781D01*
X30811517Y27847781D02*
X31049612Y27847781D01*
X31049612Y27847781D02*
X31144850Y27895400D01*
X31144850Y27895400D02*
X31192469Y27990639D01*
X31192469Y27990639D02*
X31192469Y28085877D01*
X31192469Y28085877D02*
X31144850Y28181115D01*
X31144850Y28181115D02*
X31049612Y28228734D01*
X31049612Y28228734D02*
X30811517Y28228734D01*
X30811517Y28228734D02*
X30716279Y28276353D01*
X30240088Y27847781D02*
X30240088Y28514448D01*
X30240088Y28419210D02*
X30192469Y28466829D01*
X30192469Y28466829D02*
X30097231Y28514448D01*
X30097231Y28514448D02*
X29954374Y28514448D01*
X29954374Y28514448D02*
X29859136Y28466829D01*
X29859136Y28466829D02*
X29811517Y28371591D01*
X29811517Y28371591D02*
X29811517Y27847781D01*
X29811517Y28371591D02*
X29763898Y28466829D01*
X29763898Y28466829D02*
X29668660Y28514448D01*
X29668660Y28514448D02*
X29525803Y28514448D01*
X29525803Y28514448D02*
X29430564Y28466829D01*
X29430564Y28466829D02*
X29382945Y28371591D01*
X29382945Y28371591D02*
X29382945Y27847781D01*
X28954374Y27895400D02*
X28859136Y27847781D01*
X28859136Y27847781D02*
X28668660Y27847781D01*
X28668660Y27847781D02*
X28573422Y27895400D01*
X28573422Y27895400D02*
X28525803Y27990639D01*
X28525803Y27990639D02*
X28525803Y28038258D01*
X28525803Y28038258D02*
X28573422Y28133496D01*
X28573422Y28133496D02*
X28668660Y28181115D01*
X28668660Y28181115D02*
X28811517Y28181115D01*
X28811517Y28181115D02*
X28906755Y28228734D01*
X28906755Y28228734D02*
X28954374Y28323972D01*
X28954374Y28323972D02*
X28954374Y28371591D01*
X28954374Y28371591D02*
X28906755Y28466829D01*
X28906755Y28466829D02*
X28811517Y28514448D01*
X28811517Y28514448D02*
X28668660Y28514448D01*
X28668660Y28514448D02*
X28573422Y28466829D01*
X28240088Y28514448D02*
X27859136Y28514448D01*
X28097231Y28847781D02*
X28097231Y27990639D01*
X28097231Y27990639D02*
X28049612Y27895400D01*
X28049612Y27895400D02*
X27954374Y27847781D01*
X27954374Y27847781D02*
X27859136Y27847781D01*
X27144850Y27895400D02*
X27240088Y27847781D01*
X27240088Y27847781D02*
X27430564Y27847781D01*
X27430564Y27847781D02*
X27525802Y27895400D01*
X27525802Y27895400D02*
X27573421Y27990639D01*
X27573421Y27990639D02*
X27573421Y28371591D01*
X27573421Y28371591D02*
X27525802Y28466829D01*
X27525802Y28466829D02*
X27430564Y28514448D01*
X27430564Y28514448D02*
X27240088Y28514448D01*
X27240088Y28514448D02*
X27144850Y28466829D01*
X27144850Y28466829D02*
X27097231Y28371591D01*
X27097231Y28371591D02*
X27097231Y28276353D01*
X27097231Y28276353D02*
X27573421Y28181115D01*
X26668659Y27847781D02*
X26668659Y28514448D01*
X26668659Y28323972D02*
X26621040Y28419210D01*
X26621040Y28419210D02*
X26573421Y28466829D01*
X26573421Y28466829D02*
X26478183Y28514448D01*
X26478183Y28514448D02*
X26382945Y28514448D01*
X92716279Y68323972D02*
X92763898Y68371591D01*
X92763898Y68371591D02*
X92859136Y68419210D01*
X92859136Y68419210D02*
X92954374Y68419210D01*
X92954374Y68419210D02*
X93049612Y68371591D01*
X93049612Y68371591D02*
X93097231Y68323972D01*
X93097231Y68323972D02*
X93144850Y68228734D01*
X93144850Y68228734D02*
X93144850Y68133496D01*
X93144850Y68133496D02*
X93097231Y68038258D01*
X93097231Y68038258D02*
X93049612Y67990639D01*
X93049612Y67990639D02*
X92954374Y67943020D01*
X92954374Y67943020D02*
X92859136Y67943020D01*
X92859136Y67943020D02*
X92763898Y67990639D01*
X92763898Y67990639D02*
X92716279Y68038258D01*
X92716279Y68419210D02*
X92716279Y68038258D01*
X92716279Y68038258D02*
X92668660Y67990639D01*
X92668660Y67990639D02*
X92621041Y67990639D01*
X92621041Y67990639D02*
X92525802Y68038258D01*
X92525802Y68038258D02*
X92478183Y68133496D01*
X92478183Y68133496D02*
X92478183Y68371591D01*
X92478183Y68371591D02*
X92573422Y68514448D01*
X92573422Y68514448D02*
X92716279Y68609686D01*
X92716279Y68609686D02*
X92906755Y68657305D01*
X92906755Y68657305D02*
X93097231Y68609686D01*
X93097231Y68609686D02*
X93240088Y68514448D01*
X93240088Y68514448D02*
X93335326Y68371591D01*
X93335326Y68371591D02*
X93382945Y68181115D01*
X93382945Y68181115D02*
X93335326Y67990639D01*
X93335326Y67990639D02*
X93240088Y67847781D01*
X93240088Y67847781D02*
X93097231Y67752543D01*
X93097231Y67752543D02*
X92906755Y67704924D01*
X92906755Y67704924D02*
X92716279Y67752543D01*
X92716279Y67752543D02*
X92573422Y67847781D01*
X92049612Y67847781D02*
X92049612Y68847781D01*
X91621041Y67847781D02*
X91621041Y68371591D01*
X91621041Y68371591D02*
X91668660Y68466829D01*
X91668660Y68466829D02*
X91763898Y68514448D01*
X91763898Y68514448D02*
X91906755Y68514448D01*
X91906755Y68514448D02*
X92001993Y68466829D01*
X92001993Y68466829D02*
X92049612Y68419210D01*
X90716279Y67847781D02*
X90716279Y68371591D01*
X90716279Y68371591D02*
X90763898Y68466829D01*
X90763898Y68466829D02*
X90859136Y68514448D01*
X90859136Y68514448D02*
X91049612Y68514448D01*
X91049612Y68514448D02*
X91144850Y68466829D01*
X90716279Y67895400D02*
X90811517Y67847781D01*
X90811517Y67847781D02*
X91049612Y67847781D01*
X91049612Y67847781D02*
X91144850Y67895400D01*
X91144850Y67895400D02*
X91192469Y67990639D01*
X91192469Y67990639D02*
X91192469Y68085877D01*
X91192469Y68085877D02*
X91144850Y68181115D01*
X91144850Y68181115D02*
X91049612Y68228734D01*
X91049612Y68228734D02*
X90811517Y68228734D01*
X90811517Y68228734D02*
X90716279Y68276353D01*
X90240088Y67847781D02*
X90240088Y68514448D01*
X90240088Y68419210D02*
X90192469Y68466829D01*
X90192469Y68466829D02*
X90097231Y68514448D01*
X90097231Y68514448D02*
X89954374Y68514448D01*
X89954374Y68514448D02*
X89859136Y68466829D01*
X89859136Y68466829D02*
X89811517Y68371591D01*
X89811517Y68371591D02*
X89811517Y67847781D01*
X89811517Y68371591D02*
X89763898Y68466829D01*
X89763898Y68466829D02*
X89668660Y68514448D01*
X89668660Y68514448D02*
X89525803Y68514448D01*
X89525803Y68514448D02*
X89430564Y68466829D01*
X89430564Y68466829D02*
X89382945Y68371591D01*
X89382945Y68371591D02*
X89382945Y67847781D01*
X88954374Y67895400D02*
X88859136Y67847781D01*
X88859136Y67847781D02*
X88668660Y67847781D01*
X88668660Y67847781D02*
X88573422Y67895400D01*
X88573422Y67895400D02*
X88525803Y67990639D01*
X88525803Y67990639D02*
X88525803Y68038258D01*
X88525803Y68038258D02*
X88573422Y68133496D01*
X88573422Y68133496D02*
X88668660Y68181115D01*
X88668660Y68181115D02*
X88811517Y68181115D01*
X88811517Y68181115D02*
X88906755Y68228734D01*
X88906755Y68228734D02*
X88954374Y68323972D01*
X88954374Y68323972D02*
X88954374Y68371591D01*
X88954374Y68371591D02*
X88906755Y68466829D01*
X88906755Y68466829D02*
X88811517Y68514448D01*
X88811517Y68514448D02*
X88668660Y68514448D01*
X88668660Y68514448D02*
X88573422Y68466829D01*
X88240088Y68514448D02*
X87859136Y68514448D01*
X88097231Y68847781D02*
X88097231Y67990639D01*
X88097231Y67990639D02*
X88049612Y67895400D01*
X88049612Y67895400D02*
X87954374Y67847781D01*
X87954374Y67847781D02*
X87859136Y67847781D01*
X87144850Y67895400D02*
X87240088Y67847781D01*
X87240088Y67847781D02*
X87430564Y67847781D01*
X87430564Y67847781D02*
X87525802Y67895400D01*
X87525802Y67895400D02*
X87573421Y67990639D01*
X87573421Y67990639D02*
X87573421Y68371591D01*
X87573421Y68371591D02*
X87525802Y68466829D01*
X87525802Y68466829D02*
X87430564Y68514448D01*
X87430564Y68514448D02*
X87240088Y68514448D01*
X87240088Y68514448D02*
X87144850Y68466829D01*
X87144850Y68466829D02*
X87097231Y68371591D01*
X87097231Y68371591D02*
X87097231Y68276353D01*
X87097231Y68276353D02*
X87573421Y68181115D01*
X86668659Y67847781D02*
X86668659Y68514448D01*
X86668659Y68323972D02*
X86621040Y68419210D01*
X86621040Y68419210D02*
X86573421Y68466829D01*
X86573421Y68466829D02*
X86478183Y68514448D01*
X86478183Y68514448D02*
X86382945Y68514448D01*
X52716279Y28323972D02*
X52763898Y28371591D01*
X52763898Y28371591D02*
X52859136Y28419210D01*
X52859136Y28419210D02*
X52954374Y28419210D01*
X52954374Y28419210D02*
X53049612Y28371591D01*
X53049612Y28371591D02*
X53097231Y28323972D01*
X53097231Y28323972D02*
X53144850Y28228734D01*
X53144850Y28228734D02*
X53144850Y28133496D01*
X53144850Y28133496D02*
X53097231Y28038258D01*
X53097231Y28038258D02*
X53049612Y27990639D01*
X53049612Y27990639D02*
X52954374Y27943020D01*
X52954374Y27943020D02*
X52859136Y27943020D01*
X52859136Y27943020D02*
X52763898Y27990639D01*
X52763898Y27990639D02*
X52716279Y28038258D01*
X52716279Y28419210D02*
X52716279Y28038258D01*
X52716279Y28038258D02*
X52668660Y27990639D01*
X52668660Y27990639D02*
X52621041Y27990639D01*
X52621041Y27990639D02*
X52525802Y28038258D01*
X52525802Y28038258D02*
X52478183Y28133496D01*
X52478183Y28133496D02*
X52478183Y28371591D01*
X52478183Y28371591D02*
X52573422Y28514448D01*
X52573422Y28514448D02*
X52716279Y28609686D01*
X52716279Y28609686D02*
X52906755Y28657305D01*
X52906755Y28657305D02*
X53097231Y28609686D01*
X53097231Y28609686D02*
X53240088Y28514448D01*
X53240088Y28514448D02*
X53335326Y28371591D01*
X53335326Y28371591D02*
X53382945Y28181115D01*
X53382945Y28181115D02*
X53335326Y27990639D01*
X53335326Y27990639D02*
X53240088Y27847781D01*
X53240088Y27847781D02*
X53097231Y27752543D01*
X53097231Y27752543D02*
X52906755Y27704924D01*
X52906755Y27704924D02*
X52716279Y27752543D01*
X52716279Y27752543D02*
X52573422Y27847781D01*
X52049612Y27847781D02*
X52049612Y28847781D01*
X51621041Y27847781D02*
X51621041Y28371591D01*
X51621041Y28371591D02*
X51668660Y28466829D01*
X51668660Y28466829D02*
X51763898Y28514448D01*
X51763898Y28514448D02*
X51906755Y28514448D01*
X51906755Y28514448D02*
X52001993Y28466829D01*
X52001993Y28466829D02*
X52049612Y28419210D01*
X50716279Y27847781D02*
X50716279Y28371591D01*
X50716279Y28371591D02*
X50763898Y28466829D01*
X50763898Y28466829D02*
X50859136Y28514448D01*
X50859136Y28514448D02*
X51049612Y28514448D01*
X51049612Y28514448D02*
X51144850Y28466829D01*
X50716279Y27895400D02*
X50811517Y27847781D01*
X50811517Y27847781D02*
X51049612Y27847781D01*
X51049612Y27847781D02*
X51144850Y27895400D01*
X51144850Y27895400D02*
X51192469Y27990639D01*
X51192469Y27990639D02*
X51192469Y28085877D01*
X51192469Y28085877D02*
X51144850Y28181115D01*
X51144850Y28181115D02*
X51049612Y28228734D01*
X51049612Y28228734D02*
X50811517Y28228734D01*
X50811517Y28228734D02*
X50716279Y28276353D01*
X50240088Y27847781D02*
X50240088Y28514448D01*
X50240088Y28419210D02*
X50192469Y28466829D01*
X50192469Y28466829D02*
X50097231Y28514448D01*
X50097231Y28514448D02*
X49954374Y28514448D01*
X49954374Y28514448D02*
X49859136Y28466829D01*
X49859136Y28466829D02*
X49811517Y28371591D01*
X49811517Y28371591D02*
X49811517Y27847781D01*
X49811517Y28371591D02*
X49763898Y28466829D01*
X49763898Y28466829D02*
X49668660Y28514448D01*
X49668660Y28514448D02*
X49525803Y28514448D01*
X49525803Y28514448D02*
X49430564Y28466829D01*
X49430564Y28466829D02*
X49382945Y28371591D01*
X49382945Y28371591D02*
X49382945Y27847781D01*
X48954374Y27895400D02*
X48859136Y27847781D01*
X48859136Y27847781D02*
X48668660Y27847781D01*
X48668660Y27847781D02*
X48573422Y27895400D01*
X48573422Y27895400D02*
X48525803Y27990639D01*
X48525803Y27990639D02*
X48525803Y28038258D01*
X48525803Y28038258D02*
X48573422Y28133496D01*
X48573422Y28133496D02*
X48668660Y28181115D01*
X48668660Y28181115D02*
X48811517Y28181115D01*
X48811517Y28181115D02*
X48906755Y28228734D01*
X48906755Y28228734D02*
X48954374Y28323972D01*
X48954374Y28323972D02*
X48954374Y28371591D01*
X48954374Y28371591D02*
X48906755Y28466829D01*
X48906755Y28466829D02*
X48811517Y28514448D01*
X48811517Y28514448D02*
X48668660Y28514448D01*
X48668660Y28514448D02*
X48573422Y28466829D01*
X48240088Y28514448D02*
X47859136Y28514448D01*
X48097231Y28847781D02*
X48097231Y27990639D01*
X48097231Y27990639D02*
X48049612Y27895400D01*
X48049612Y27895400D02*
X47954374Y27847781D01*
X47954374Y27847781D02*
X47859136Y27847781D01*
X47144850Y27895400D02*
X47240088Y27847781D01*
X47240088Y27847781D02*
X47430564Y27847781D01*
X47430564Y27847781D02*
X47525802Y27895400D01*
X47525802Y27895400D02*
X47573421Y27990639D01*
X47573421Y27990639D02*
X47573421Y28371591D01*
X47573421Y28371591D02*
X47525802Y28466829D01*
X47525802Y28466829D02*
X47430564Y28514448D01*
X47430564Y28514448D02*
X47240088Y28514448D01*
X47240088Y28514448D02*
X47144850Y28466829D01*
X47144850Y28466829D02*
X47097231Y28371591D01*
X47097231Y28371591D02*
X47097231Y28276353D01*
X47097231Y28276353D02*
X47573421Y28181115D01*
X46668659Y27847781D02*
X46668659Y28514448D01*
X46668659Y28323972D02*
X46621040Y28419210D01*
X46621040Y28419210D02*
X46573421Y28466829D01*
X46573421Y28466829D02*
X46478183Y28514448D01*
X46478183Y28514448D02*
X46382945Y28514448D01*
X92716279Y28323972D02*
X92763898Y28371591D01*
X92763898Y28371591D02*
X92859136Y28419210D01*
X92859136Y28419210D02*
X92954374Y28419210D01*
X92954374Y28419210D02*
X93049612Y28371591D01*
X93049612Y28371591D02*
X93097231Y28323972D01*
X93097231Y28323972D02*
X93144850Y28228734D01*
X93144850Y28228734D02*
X93144850Y28133496D01*
X93144850Y28133496D02*
X93097231Y28038258D01*
X93097231Y28038258D02*
X93049612Y27990639D01*
X93049612Y27990639D02*
X92954374Y27943020D01*
X92954374Y27943020D02*
X92859136Y27943020D01*
X92859136Y27943020D02*
X92763898Y27990639D01*
X92763898Y27990639D02*
X92716279Y28038258D01*
X92716279Y28419210D02*
X92716279Y28038258D01*
X92716279Y28038258D02*
X92668660Y27990639D01*
X92668660Y27990639D02*
X92621041Y27990639D01*
X92621041Y27990639D02*
X92525802Y28038258D01*
X92525802Y28038258D02*
X92478183Y28133496D01*
X92478183Y28133496D02*
X92478183Y28371591D01*
X92478183Y28371591D02*
X92573422Y28514448D01*
X92573422Y28514448D02*
X92716279Y28609686D01*
X92716279Y28609686D02*
X92906755Y28657305D01*
X92906755Y28657305D02*
X93097231Y28609686D01*
X93097231Y28609686D02*
X93240088Y28514448D01*
X93240088Y28514448D02*
X93335326Y28371591D01*
X93335326Y28371591D02*
X93382945Y28181115D01*
X93382945Y28181115D02*
X93335326Y27990639D01*
X93335326Y27990639D02*
X93240088Y27847781D01*
X93240088Y27847781D02*
X93097231Y27752543D01*
X93097231Y27752543D02*
X92906755Y27704924D01*
X92906755Y27704924D02*
X92716279Y27752543D01*
X92716279Y27752543D02*
X92573422Y27847781D01*
X92049612Y27847781D02*
X92049612Y28847781D01*
X91621041Y27847781D02*
X91621041Y28371591D01*
X91621041Y28371591D02*
X91668660Y28466829D01*
X91668660Y28466829D02*
X91763898Y28514448D01*
X91763898Y28514448D02*
X91906755Y28514448D01*
X91906755Y28514448D02*
X92001993Y28466829D01*
X92001993Y28466829D02*
X92049612Y28419210D01*
X90716279Y27847781D02*
X90716279Y28371591D01*
X90716279Y28371591D02*
X90763898Y28466829D01*
X90763898Y28466829D02*
X90859136Y28514448D01*
X90859136Y28514448D02*
X91049612Y28514448D01*
X91049612Y28514448D02*
X91144850Y28466829D01*
X90716279Y27895400D02*
X90811517Y27847781D01*
X90811517Y27847781D02*
X91049612Y27847781D01*
X91049612Y27847781D02*
X91144850Y27895400D01*
X91144850Y27895400D02*
X91192469Y27990639D01*
X91192469Y27990639D02*
X91192469Y28085877D01*
X91192469Y28085877D02*
X91144850Y28181115D01*
X91144850Y28181115D02*
X91049612Y28228734D01*
X91049612Y28228734D02*
X90811517Y28228734D01*
X90811517Y28228734D02*
X90716279Y28276353D01*
X90240088Y27847781D02*
X90240088Y28514448D01*
X90240088Y28419210D02*
X90192469Y28466829D01*
X90192469Y28466829D02*
X90097231Y28514448D01*
X90097231Y28514448D02*
X89954374Y28514448D01*
X89954374Y28514448D02*
X89859136Y28466829D01*
X89859136Y28466829D02*
X89811517Y28371591D01*
X89811517Y28371591D02*
X89811517Y27847781D01*
X89811517Y28371591D02*
X89763898Y28466829D01*
X89763898Y28466829D02*
X89668660Y28514448D01*
X89668660Y28514448D02*
X89525803Y28514448D01*
X89525803Y28514448D02*
X89430564Y28466829D01*
X89430564Y28466829D02*
X89382945Y28371591D01*
X89382945Y28371591D02*
X89382945Y27847781D01*
X88954374Y27895400D02*
X88859136Y27847781D01*
X88859136Y27847781D02*
X88668660Y27847781D01*
X88668660Y27847781D02*
X88573422Y27895400D01*
X88573422Y27895400D02*
X88525803Y27990639D01*
X88525803Y27990639D02*
X88525803Y28038258D01*
X88525803Y28038258D02*
X88573422Y28133496D01*
X88573422Y28133496D02*
X88668660Y28181115D01*
X88668660Y28181115D02*
X88811517Y28181115D01*
X88811517Y28181115D02*
X88906755Y28228734D01*
X88906755Y28228734D02*
X88954374Y28323972D01*
X88954374Y28323972D02*
X88954374Y28371591D01*
X88954374Y28371591D02*
X88906755Y28466829D01*
X88906755Y28466829D02*
X88811517Y28514448D01*
X88811517Y28514448D02*
X88668660Y28514448D01*
X88668660Y28514448D02*
X88573422Y28466829D01*
X88240088Y28514448D02*
X87859136Y28514448D01*
X88097231Y28847781D02*
X88097231Y27990639D01*
X88097231Y27990639D02*
X88049612Y27895400D01*
X88049612Y27895400D02*
X87954374Y27847781D01*
X87954374Y27847781D02*
X87859136Y27847781D01*
X87144850Y27895400D02*
X87240088Y27847781D01*
X87240088Y27847781D02*
X87430564Y27847781D01*
X87430564Y27847781D02*
X87525802Y27895400D01*
X87525802Y27895400D02*
X87573421Y27990639D01*
X87573421Y27990639D02*
X87573421Y28371591D01*
X87573421Y28371591D02*
X87525802Y28466829D01*
X87525802Y28466829D02*
X87430564Y28514448D01*
X87430564Y28514448D02*
X87240088Y28514448D01*
X87240088Y28514448D02*
X87144850Y28466829D01*
X87144850Y28466829D02*
X87097231Y28371591D01*
X87097231Y28371591D02*
X87097231Y28276353D01*
X87097231Y28276353D02*
X87573421Y28181115D01*
X86668659Y27847781D02*
X86668659Y28514448D01*
X86668659Y28323972D02*
X86621040Y28419210D01*
X86621040Y28419210D02*
X86573421Y28466829D01*
X86573421Y28466829D02*
X86478183Y28514448D01*
X86478183Y28514448D02*
X86382945Y28514448D01*
X72716279Y68323972D02*
X72763898Y68371591D01*
X72763898Y68371591D02*
X72859136Y68419210D01*
X72859136Y68419210D02*
X72954374Y68419210D01*
X72954374Y68419210D02*
X73049612Y68371591D01*
X73049612Y68371591D02*
X73097231Y68323972D01*
X73097231Y68323972D02*
X73144850Y68228734D01*
X73144850Y68228734D02*
X73144850Y68133496D01*
X73144850Y68133496D02*
X73097231Y68038258D01*
X73097231Y68038258D02*
X73049612Y67990639D01*
X73049612Y67990639D02*
X72954374Y67943020D01*
X72954374Y67943020D02*
X72859136Y67943020D01*
X72859136Y67943020D02*
X72763898Y67990639D01*
X72763898Y67990639D02*
X72716279Y68038258D01*
X72716279Y68419210D02*
X72716279Y68038258D01*
X72716279Y68038258D02*
X72668660Y67990639D01*
X72668660Y67990639D02*
X72621041Y67990639D01*
X72621041Y67990639D02*
X72525802Y68038258D01*
X72525802Y68038258D02*
X72478183Y68133496D01*
X72478183Y68133496D02*
X72478183Y68371591D01*
X72478183Y68371591D02*
X72573422Y68514448D01*
X72573422Y68514448D02*
X72716279Y68609686D01*
X72716279Y68609686D02*
X72906755Y68657305D01*
X72906755Y68657305D02*
X73097231Y68609686D01*
X73097231Y68609686D02*
X73240088Y68514448D01*
X73240088Y68514448D02*
X73335326Y68371591D01*
X73335326Y68371591D02*
X73382945Y68181115D01*
X73382945Y68181115D02*
X73335326Y67990639D01*
X73335326Y67990639D02*
X73240088Y67847781D01*
X73240088Y67847781D02*
X73097231Y67752543D01*
X73097231Y67752543D02*
X72906755Y67704924D01*
X72906755Y67704924D02*
X72716279Y67752543D01*
X72716279Y67752543D02*
X72573422Y67847781D01*
X72049612Y67847781D02*
X72049612Y68847781D01*
X71621041Y67847781D02*
X71621041Y68371591D01*
X71621041Y68371591D02*
X71668660Y68466829D01*
X71668660Y68466829D02*
X71763898Y68514448D01*
X71763898Y68514448D02*
X71906755Y68514448D01*
X71906755Y68514448D02*
X72001993Y68466829D01*
X72001993Y68466829D02*
X72049612Y68419210D01*
X70716279Y67847781D02*
X70716279Y68371591D01*
X70716279Y68371591D02*
X70763898Y68466829D01*
X70763898Y68466829D02*
X70859136Y68514448D01*
X70859136Y68514448D02*
X71049612Y68514448D01*
X71049612Y68514448D02*
X71144850Y68466829D01*
X70716279Y67895400D02*
X70811517Y67847781D01*
X70811517Y67847781D02*
X71049612Y67847781D01*
X71049612Y67847781D02*
X71144850Y67895400D01*
X71144850Y67895400D02*
X71192469Y67990639D01*
X71192469Y67990639D02*
X71192469Y68085877D01*
X71192469Y68085877D02*
X71144850Y68181115D01*
X71144850Y68181115D02*
X71049612Y68228734D01*
X71049612Y68228734D02*
X70811517Y68228734D01*
X70811517Y68228734D02*
X70716279Y68276353D01*
X70240088Y67847781D02*
X70240088Y68514448D01*
X70240088Y68419210D02*
X70192469Y68466829D01*
X70192469Y68466829D02*
X70097231Y68514448D01*
X70097231Y68514448D02*
X69954374Y68514448D01*
X69954374Y68514448D02*
X69859136Y68466829D01*
X69859136Y68466829D02*
X69811517Y68371591D01*
X69811517Y68371591D02*
X69811517Y67847781D01*
X69811517Y68371591D02*
X69763898Y68466829D01*
X69763898Y68466829D02*
X69668660Y68514448D01*
X69668660Y68514448D02*
X69525803Y68514448D01*
X69525803Y68514448D02*
X69430564Y68466829D01*
X69430564Y68466829D02*
X69382945Y68371591D01*
X69382945Y68371591D02*
X69382945Y67847781D01*
X68954374Y67895400D02*
X68859136Y67847781D01*
X68859136Y67847781D02*
X68668660Y67847781D01*
X68668660Y67847781D02*
X68573422Y67895400D01*
X68573422Y67895400D02*
X68525803Y67990639D01*
X68525803Y67990639D02*
X68525803Y68038258D01*
X68525803Y68038258D02*
X68573422Y68133496D01*
X68573422Y68133496D02*
X68668660Y68181115D01*
X68668660Y68181115D02*
X68811517Y68181115D01*
X68811517Y68181115D02*
X68906755Y68228734D01*
X68906755Y68228734D02*
X68954374Y68323972D01*
X68954374Y68323972D02*
X68954374Y68371591D01*
X68954374Y68371591D02*
X68906755Y68466829D01*
X68906755Y68466829D02*
X68811517Y68514448D01*
X68811517Y68514448D02*
X68668660Y68514448D01*
X68668660Y68514448D02*
X68573422Y68466829D01*
X68240088Y68514448D02*
X67859136Y68514448D01*
X68097231Y68847781D02*
X68097231Y67990639D01*
X68097231Y67990639D02*
X68049612Y67895400D01*
X68049612Y67895400D02*
X67954374Y67847781D01*
X67954374Y67847781D02*
X67859136Y67847781D01*
X67144850Y67895400D02*
X67240088Y67847781D01*
X67240088Y67847781D02*
X67430564Y67847781D01*
X67430564Y67847781D02*
X67525802Y67895400D01*
X67525802Y67895400D02*
X67573421Y67990639D01*
X67573421Y67990639D02*
X67573421Y68371591D01*
X67573421Y68371591D02*
X67525802Y68466829D01*
X67525802Y68466829D02*
X67430564Y68514448D01*
X67430564Y68514448D02*
X67240088Y68514448D01*
X67240088Y68514448D02*
X67144850Y68466829D01*
X67144850Y68466829D02*
X67097231Y68371591D01*
X67097231Y68371591D02*
X67097231Y68276353D01*
X67097231Y68276353D02*
X67573421Y68181115D01*
X66668659Y67847781D02*
X66668659Y68514448D01*
X66668659Y68323972D02*
X66621040Y68419210D01*
X66621040Y68419210D02*
X66573421Y68466829D01*
X66573421Y68466829D02*
X66478183Y68514448D01*
X66478183Y68514448D02*
X66382945Y68514448D01*
D11*
%TO.C,REF\u002A\u002A*%
X10000000Y110000000D03*
%TD*%
%TO.C,REF\u002A\u002A*%
X90000000Y4000000D03*
%TD*%
%TO.C,REF\u002A\u002A*%
X10000000Y4000000D03*
%TD*%
%TO.C,REF\u002A\u002A*%
X90000000Y110000000D03*
%TD*%
D12*
%TO.C,TP2-12*%
X53655000Y63525000D03*
%TD*%
%TO.C,TP2-3*%
X73655000Y103525000D03*
%TD*%
D13*
%TO.C,MB1-9*%
X81110000Y85890000D03*
X83650000Y85890000D03*
X96350000Y85890000D03*
X98890000Y85890000D03*
X81110000Y68110000D03*
X83650000Y68110000D03*
X96350000Y68110000D03*
X98890000Y68110000D03*
%TD*%
D12*
%TO.C,TP1-13*%
X66025000Y63525000D03*
%TD*%
%TO.C,TP2-10*%
X13655000Y63525000D03*
%TD*%
%TO.C,TP1-18*%
X66025000Y43525000D03*
%TD*%
%TO.C,TP2-21*%
X33655000Y23525000D03*
%TD*%
D13*
%TO.C,MB1-7*%
X41110000Y85890000D03*
X43650000Y85890000D03*
X56350000Y85890000D03*
X58890000Y85890000D03*
X41110000Y68110000D03*
X43650000Y68110000D03*
X56350000Y68110000D03*
X58890000Y68110000D03*
%TD*%
D12*
%TO.C,TP2-8*%
X73655000Y83525000D03*
%TD*%
%TO.C,TP1-22*%
X46025000Y23525000D03*
%TD*%
%TO.C,TP1-8*%
X66025000Y83525000D03*
%TD*%
D13*
%TO.C,MB1-1*%
X21110000Y105890000D03*
X23650000Y105890000D03*
X36350000Y105890000D03*
X38890000Y105890000D03*
X21110000Y88110000D03*
X23650000Y88110000D03*
X36350000Y88110000D03*
X38890000Y88110000D03*
%TD*%
D12*
%TO.C,TP1-17*%
X46025000Y43525000D03*
%TD*%
%TO.C,TP2-13*%
X73655000Y63525000D03*
%TD*%
%TO.C,TP1-23*%
X66025000Y23525000D03*
%TD*%
D13*
%TO.C,MB1-21*%
X21110000Y25890000D03*
X23650000Y25890000D03*
X36350000Y25890000D03*
X38890000Y25890000D03*
X21110000Y8110000D03*
X23650000Y8110000D03*
X36350000Y8110000D03*
X38890000Y8110000D03*
%TD*%
D12*
%TO.C,TP2-0*%
X13655000Y103525000D03*
%TD*%
%TO.C,TP2-20*%
X13655000Y23525000D03*
%TD*%
D13*
%TO.C,MB1-20*%
X1110000Y25890000D03*
X3650000Y25890000D03*
X16350000Y25890000D03*
X18890000Y25890000D03*
X1110000Y8110000D03*
X3650000Y8110000D03*
X16350000Y8110000D03*
X18890000Y8110000D03*
%TD*%
D12*
%TO.C,TP1-1*%
X26025000Y103525000D03*
%TD*%
%TO.C,TP1-7*%
X46025000Y83525000D03*
%TD*%
%TO.C,TP1-3*%
X66025000Y103525000D03*
%TD*%
%TO.C,TP2-24*%
X93655000Y23525000D03*
%TD*%
%TO.C,TP2-11*%
X33655000Y63525000D03*
%TD*%
%TO.C,TP2-6*%
X33655000Y83525000D03*
%TD*%
D11*
%TO.C,REF\u002A\u002A*%
X5000000Y4000000D03*
%TD*%
D12*
%TO.C,TP2-18*%
X73655000Y43525000D03*
%TD*%
%TO.C,TP2-16*%
X33655000Y43525000D03*
%TD*%
%TO.C,TP2-22*%
X53655000Y23525000D03*
%TD*%
D13*
%TO.C,MB1-17*%
X41110000Y45890000D03*
X43650000Y45890000D03*
X56350000Y45890000D03*
X58890000Y45890000D03*
X41110000Y28110000D03*
X43650000Y28110000D03*
X56350000Y28110000D03*
X58890000Y28110000D03*
%TD*%
D12*
%TO.C,TP1-5*%
X6025000Y83525000D03*
%TD*%
%TO.C,TP1-6*%
X26025000Y83525000D03*
%TD*%
%TO.C,TP2-1*%
X33655000Y103525000D03*
%TD*%
%TO.C,TP2-14*%
X93655000Y63525000D03*
%TD*%
%TO.C,TP2-23*%
X73655000Y23525000D03*
%TD*%
%TO.C,TP2-5*%
X13655000Y83525000D03*
%TD*%
D13*
%TO.C,MB1-19*%
X81110000Y45890000D03*
X83650000Y45890000D03*
X96350000Y45890000D03*
X98890000Y45890000D03*
X81110000Y28110000D03*
X83650000Y28110000D03*
X96350000Y28110000D03*
X98890000Y28110000D03*
%TD*%
%TO.C,MB1-12*%
X41110000Y65890000D03*
X43650000Y65890000D03*
X56350000Y65890000D03*
X58890000Y65890000D03*
X41110000Y48110000D03*
X43650000Y48110000D03*
X56350000Y48110000D03*
X58890000Y48110000D03*
%TD*%
D12*
%TO.C,TP2-9*%
X93655000Y83525000D03*
%TD*%
%TO.C,TP1-10*%
X6025000Y63525000D03*
%TD*%
D13*
%TO.C,MB1-11*%
X21110000Y65890000D03*
X23650000Y65890000D03*
X36350000Y65890000D03*
X38890000Y65890000D03*
X21110000Y48110000D03*
X23650000Y48110000D03*
X36350000Y48110000D03*
X38890000Y48110000D03*
%TD*%
D12*
%TO.C,TP1-0*%
X6025000Y103525000D03*
%TD*%
D13*
%TO.C,MB1-15*%
X1110000Y45890000D03*
X3650000Y45890000D03*
X16350000Y45890000D03*
X18890000Y45890000D03*
X1110000Y28110000D03*
X3650000Y28110000D03*
X16350000Y28110000D03*
X18890000Y28110000D03*
%TD*%
D12*
%TO.C,TP1-15*%
X6025000Y43525000D03*
%TD*%
%TO.C,TP1-12*%
X46025000Y63525000D03*
%TD*%
D13*
%TO.C,MB1-10*%
X1110000Y65890000D03*
X3650000Y65890000D03*
X16350000Y65890000D03*
X18890000Y65890000D03*
X1110000Y48110000D03*
X3650000Y48110000D03*
X16350000Y48110000D03*
X18890000Y48110000D03*
%TD*%
D12*
%TO.C,TP1-14*%
X86025000Y63525000D03*
%TD*%
D13*
%TO.C,MB1-24*%
X81110000Y25890000D03*
X83650000Y25890000D03*
X96350000Y25890000D03*
X98890000Y25890000D03*
X81110000Y8110000D03*
X83650000Y8110000D03*
X96350000Y8110000D03*
X98890000Y8110000D03*
%TD*%
%TO.C,MB1-6*%
X21110000Y85890000D03*
X23650000Y85890000D03*
X36350000Y85890000D03*
X38890000Y85890000D03*
X21110000Y68110000D03*
X23650000Y68110000D03*
X36350000Y68110000D03*
X38890000Y68110000D03*
%TD*%
D12*
%TO.C,TP2-7*%
X53655000Y83525000D03*
%TD*%
D13*
%TO.C,MB1-3*%
X61110000Y105890000D03*
X63650000Y105890000D03*
X76350000Y105890000D03*
X78890000Y105890000D03*
X61110000Y88110000D03*
X63650000Y88110000D03*
X76350000Y88110000D03*
X78890000Y88110000D03*
%TD*%
D12*
%TO.C,TP1-21*%
X26025000Y23525000D03*
%TD*%
%TO.C,TP2-15*%
X13655000Y43525000D03*
%TD*%
%TO.C,TP1-4*%
X86025000Y103525000D03*
%TD*%
D13*
%TO.C,MB1-16*%
X21110000Y45890000D03*
X23650000Y45890000D03*
X36350000Y45890000D03*
X38890000Y45890000D03*
X21110000Y28110000D03*
X23650000Y28110000D03*
X36350000Y28110000D03*
X38890000Y28110000D03*
%TD*%
%TO.C,MB1-5*%
X1110000Y85890000D03*
X3650000Y85890000D03*
X16350000Y85890000D03*
X18890000Y85890000D03*
X1110000Y68110000D03*
X3650000Y68110000D03*
X16350000Y68110000D03*
X18890000Y68110000D03*
%TD*%
%TO.C,MB1-0*%
X1110000Y105890000D03*
X3650000Y105890000D03*
X16350000Y105890000D03*
X18890000Y105890000D03*
X1110000Y88110000D03*
X3650000Y88110000D03*
X16350000Y88110000D03*
X18890000Y88110000D03*
%TD*%
D12*
%TO.C,TP1-2*%
X46025000Y103525000D03*
%TD*%
%TO.C,TP1-20*%
X6025000Y23525000D03*
%TD*%
%TO.C,TP2-17*%
X53655000Y43525000D03*
%TD*%
D13*
%TO.C,MB1-4*%
X81110000Y105890000D03*
X83650000Y105890000D03*
X96350000Y105890000D03*
X98890000Y105890000D03*
X81110000Y88110000D03*
X83650000Y88110000D03*
X96350000Y88110000D03*
X98890000Y88110000D03*
%TD*%
D11*
%TO.C,REF\u002A\u002A*%
X95000000Y110000000D03*
%TD*%
D13*
%TO.C,MB1-14*%
X81110000Y65890000D03*
X83650000Y65890000D03*
X96350000Y65890000D03*
X98890000Y65890000D03*
X81110000Y48110000D03*
X83650000Y48110000D03*
X96350000Y48110000D03*
X98890000Y48110000D03*
%TD*%
%TO.C,MB1-18*%
X61110000Y45890000D03*
X63650000Y45890000D03*
X76350000Y45890000D03*
X78890000Y45890000D03*
X61110000Y28110000D03*
X63650000Y28110000D03*
X76350000Y28110000D03*
X78890000Y28110000D03*
%TD*%
D12*
%TO.C,TP2-2*%
X53655000Y103525000D03*
%TD*%
%TO.C,TP1-16*%
X26025000Y43525000D03*
%TD*%
%TO.C,TP1-19*%
X86025000Y43525000D03*
%TD*%
%TO.C,TP1-9*%
X86025000Y83525000D03*
%TD*%
D11*
%TO.C,REF\u002A\u002A*%
X95000000Y4000000D03*
%TD*%
D13*
%TO.C,MB1-23*%
X61110000Y25890000D03*
X63650000Y25890000D03*
X76350000Y25890000D03*
X78890000Y25890000D03*
X61110000Y8110000D03*
X63650000Y8110000D03*
X76350000Y8110000D03*
X78890000Y8110000D03*
%TD*%
D12*
%TO.C,TP2-19*%
X93655000Y43525000D03*
%TD*%
%TO.C,TP2-4*%
X93655000Y103525000D03*
%TD*%
%TO.C,TP1-11*%
X26025000Y63525000D03*
%TD*%
D13*
%TO.C,MB1-8*%
X61110000Y85890000D03*
X63650000Y85890000D03*
X76350000Y85890000D03*
X78890000Y85890000D03*
X61110000Y68110000D03*
X63650000Y68110000D03*
X76350000Y68110000D03*
X78890000Y68110000D03*
%TD*%
%TO.C,MB1-2*%
X41110000Y105890000D03*
X43650000Y105890000D03*
X56350000Y105890000D03*
X58890000Y105890000D03*
X41110000Y88110000D03*
X43650000Y88110000D03*
X56350000Y88110000D03*
X58890000Y88110000D03*
%TD*%
%TO.C,MB1-13*%
X61110000Y65890000D03*
X63650000Y65890000D03*
X76350000Y65890000D03*
X78890000Y65890000D03*
X61110000Y48110000D03*
X63650000Y48110000D03*
X76350000Y48110000D03*
X78890000Y48110000D03*
%TD*%
%TO.C,MB1-22*%
X41110000Y25890000D03*
X43650000Y25890000D03*
X56350000Y25890000D03*
X58890000Y25890000D03*
X41110000Y8110000D03*
X43650000Y8110000D03*
X56350000Y8110000D03*
X58890000Y8110000D03*
%TD*%
D11*
%TO.C,REF\u002A\u002A*%
X5000000Y110000000D03*
%TD*%
D12*
%TO.C,TP1-24*%
X86025000Y23525000D03*
%TD*%
M02*
