%TF.GenerationSoftware,KiCad,Pcbnew,7.0.7*%
%TF.CreationDate,2023-09-01T19:11:28-06:00*%
%TF.ProjectId,chc-panel-1.0,6368632d-7061-46e6-956c-2d312e302e6b,1.0*%
%TF.SameCoordinates,PX558b6a0PY92dda80*%
%TF.FileFunction,Paste,Top*%
%TF.FilePolarity,Positive*%
%FSLAX46Y46*%
G04 Gerber Fmt 4.6, Leading zero omitted, Abs format (unit mm)*
G04 Created by KiCad (PCBNEW 7.0.7) date 2023-09-01 19:11:28*
%MOMM*%
%LPD*%
G01*
G04 APERTURE LIST*
G04 Aperture macros list*
%AMRoundRect*
0 Rectangle with rounded corners*
0 $1 Rounding radius*
0 $2 $3 $4 $5 $6 $7 $8 $9 X,Y pos of 4 corners*
0 Add a 4 corners polygon primitive as box body*
4,1,4,$2,$3,$4,$5,$6,$7,$8,$9,$2,$3,0*
0 Add four circle primitives for the rounded corners*
1,1,$1+$1,$2,$3*
1,1,$1+$1,$4,$5*
1,1,$1+$1,$6,$7*
1,1,$1+$1,$8,$9*
0 Add four rect primitives between the rounded corners*
20,1,$1+$1,$2,$3,$4,$5,0*
20,1,$1+$1,$4,$5,$6,$7,0*
20,1,$1+$1,$6,$7,$8,$9,0*
20,1,$1+$1,$8,$9,$2,$3,0*%
G04 Aperture macros list end*
%ADD10RoundRect,0.243750X-0.243750X-0.456250X0.243750X-0.456250X0.243750X0.456250X-0.243750X0.456250X0*%
%ADD11RoundRect,0.250000X-0.475000X0.250000X-0.475000X-0.250000X0.475000X-0.250000X0.475000X0.250000X0*%
%ADD12RoundRect,0.200000X0.200000X0.275000X-0.200000X0.275000X-0.200000X-0.275000X0.200000X-0.275000X0*%
%ADD13RoundRect,0.200000X-0.275000X0.200000X-0.275000X-0.200000X0.275000X-0.200000X0.275000X0.200000X0*%
G04 APERTURE END LIST*
D10*
%TO.C,D1-13*%
X61307500Y63455000D03*
X63182500Y63455000D03*
%TD*%
D11*
%TO.C,C1-22*%
X58745000Y19325000D03*
X58745000Y17425000D03*
%TD*%
D12*
%TO.C,R3-14*%
X98650000Y61267500D03*
X97000000Y61267500D03*
%TD*%
D10*
%TO.C,D2-8*%
X76907500Y83455000D03*
X78782500Y83455000D03*
%TD*%
%TO.C,D1-23*%
X61307500Y23455000D03*
X63182500Y23455000D03*
%TD*%
D11*
%TO.C,C1-15*%
X18745000Y39325000D03*
X18745000Y37425000D03*
%TD*%
D12*
%TO.C,R1-19*%
X83050000Y41267500D03*
X81400000Y41267500D03*
%TD*%
D11*
%TO.C,C1-24*%
X98745000Y19325000D03*
X98745000Y17425000D03*
%TD*%
D10*
%TO.C,D1-19*%
X81307500Y43455000D03*
X83182500Y43455000D03*
%TD*%
D12*
%TO.C,R3-6*%
X38650000Y81267500D03*
X37000000Y81267500D03*
%TD*%
D11*
%TO.C,C1-0*%
X18745000Y99325000D03*
X18745000Y97425000D03*
%TD*%
D13*
%TO.C,R2-14*%
X96855000Y59420000D03*
X96855000Y57770000D03*
%TD*%
D12*
%TO.C,R3-5*%
X18650000Y81267500D03*
X17000000Y81267500D03*
%TD*%
%TO.C,R3-4*%
X98650000Y101267500D03*
X97000000Y101267500D03*
%TD*%
D11*
%TO.C,C1-17*%
X58745000Y39325000D03*
X58745000Y37425000D03*
%TD*%
D10*
%TO.C,D1-17*%
X41307500Y43455000D03*
X43182500Y43455000D03*
%TD*%
D12*
%TO.C,R1-24*%
X83050000Y21267500D03*
X81400000Y21267500D03*
%TD*%
D13*
%TO.C,R2-2*%
X56855000Y99420000D03*
X56855000Y97770000D03*
%TD*%
D10*
%TO.C,D1-3*%
X61307500Y103455000D03*
X63182500Y103455000D03*
%TD*%
%TO.C,D2-2*%
X56907500Y103455000D03*
X58782500Y103455000D03*
%TD*%
%TO.C,D2-15*%
X16907500Y43455000D03*
X18782500Y43455000D03*
%TD*%
%TO.C,D2-17*%
X56907500Y43455000D03*
X58782500Y43455000D03*
%TD*%
D12*
%TO.C,R3-16*%
X38650000Y41267500D03*
X37000000Y41267500D03*
%TD*%
D10*
%TO.C,D2-10*%
X16907500Y63455000D03*
X18782500Y63455000D03*
%TD*%
D12*
%TO.C,R3-13*%
X78650000Y61267500D03*
X77000000Y61267500D03*
%TD*%
%TO.C,R3-0*%
X18650000Y101267500D03*
X17000000Y101267500D03*
%TD*%
D13*
%TO.C,R2-7*%
X56855000Y79420000D03*
X56855000Y77770000D03*
%TD*%
%TO.C,R2-6*%
X36855000Y79420000D03*
X36855000Y77770000D03*
%TD*%
%TO.C,R2-5*%
X16855000Y79420000D03*
X16855000Y77770000D03*
%TD*%
D10*
%TO.C,D1-4*%
X81307500Y103455000D03*
X83182500Y103455000D03*
%TD*%
%TO.C,D2-0*%
X16907500Y103455000D03*
X18782500Y103455000D03*
%TD*%
D12*
%TO.C,R1-14*%
X83050000Y61267500D03*
X81400000Y61267500D03*
%TD*%
D13*
%TO.C,R2-4*%
X96855000Y99420000D03*
X96855000Y97770000D03*
%TD*%
D10*
%TO.C,D1-18*%
X61307500Y43455000D03*
X63182500Y43455000D03*
%TD*%
D12*
%TO.C,R1-23*%
X63050000Y21267500D03*
X61400000Y21267500D03*
%TD*%
%TO.C,R3-8*%
X78650000Y81267500D03*
X77000000Y81267500D03*
%TD*%
D13*
%TO.C,R2-24*%
X96855000Y19420000D03*
X96855000Y17770000D03*
%TD*%
D10*
%TO.C,D1-11*%
X21307500Y63455000D03*
X23182500Y63455000D03*
%TD*%
D12*
%TO.C,R1-9*%
X83050000Y81267500D03*
X81400000Y81267500D03*
%TD*%
%TO.C,R1-18*%
X63050000Y41267500D03*
X61400000Y41267500D03*
%TD*%
D10*
%TO.C,D2-11*%
X36907500Y63455000D03*
X38782500Y63455000D03*
%TD*%
%TO.C,D2-19*%
X96907500Y43455000D03*
X98782500Y43455000D03*
%TD*%
%TO.C,D1-2*%
X41307500Y103455000D03*
X43182500Y103455000D03*
%TD*%
D13*
%TO.C,R2-15*%
X16855000Y39420000D03*
X16855000Y37770000D03*
%TD*%
D12*
%TO.C,R3-19*%
X98650000Y41267500D03*
X97000000Y41267500D03*
%TD*%
%TO.C,R1-2*%
X43050000Y101267500D03*
X41400000Y101267500D03*
%TD*%
D13*
%TO.C,R2-16*%
X36855000Y39420000D03*
X36855000Y37770000D03*
%TD*%
D10*
%TO.C,D1-20*%
X1307500Y23455000D03*
X3182500Y23455000D03*
%TD*%
D12*
%TO.C,R1-12*%
X43050000Y61267500D03*
X41400000Y61267500D03*
%TD*%
%TO.C,R3-12*%
X58650000Y61267500D03*
X57000000Y61267500D03*
%TD*%
%TO.C,R3-3*%
X78650000Y101267500D03*
X77000000Y101267500D03*
%TD*%
%TO.C,R3-22*%
X58650000Y21267500D03*
X57000000Y21267500D03*
%TD*%
D11*
%TO.C,C1-20*%
X18745000Y19325000D03*
X18745000Y17425000D03*
%TD*%
D13*
%TO.C,R2-3*%
X76855000Y99420000D03*
X76855000Y97770000D03*
%TD*%
D12*
%TO.C,R3-2*%
X58650000Y101267500D03*
X57000000Y101267500D03*
%TD*%
%TO.C,R1-15*%
X3050000Y41267500D03*
X1400000Y41267500D03*
%TD*%
D10*
%TO.C,D2-20*%
X16907500Y23455000D03*
X18782500Y23455000D03*
%TD*%
D12*
%TO.C,R3-7*%
X58650000Y81267500D03*
X57000000Y81267500D03*
%TD*%
D10*
%TO.C,D1-21*%
X21307500Y23455000D03*
X23182500Y23455000D03*
%TD*%
%TO.C,D2-4*%
X96907500Y103455000D03*
X98782500Y103455000D03*
%TD*%
D12*
%TO.C,R1-4*%
X83050000Y101267500D03*
X81400000Y101267500D03*
%TD*%
D11*
%TO.C,C1-5*%
X18745000Y79325000D03*
X18745000Y77425000D03*
%TD*%
%TO.C,C1-10*%
X18745000Y59325000D03*
X18745000Y57425000D03*
%TD*%
D10*
%TO.C,D1-1*%
X21307500Y103455000D03*
X23182500Y103455000D03*
%TD*%
D12*
%TO.C,R1-1*%
X23050000Y101267500D03*
X21400000Y101267500D03*
%TD*%
D10*
%TO.C,D1-16*%
X21307500Y43455000D03*
X23182500Y43455000D03*
%TD*%
D11*
%TO.C,C1-12*%
X58745000Y59325000D03*
X58745000Y57425000D03*
%TD*%
%TO.C,C1-4*%
X98745000Y99325000D03*
X98745000Y97425000D03*
%TD*%
D13*
%TO.C,R2-20*%
X16855000Y19420000D03*
X16855000Y17770000D03*
%TD*%
D12*
%TO.C,R1-3*%
X63050000Y101267500D03*
X61400000Y101267500D03*
%TD*%
D11*
%TO.C,C1-23*%
X78745000Y19325000D03*
X78745000Y17425000D03*
%TD*%
D10*
%TO.C,D1-14*%
X81307500Y63455000D03*
X83182500Y63455000D03*
%TD*%
%TO.C,D2-1*%
X36907500Y103455000D03*
X38782500Y103455000D03*
%TD*%
D11*
%TO.C,C1-13*%
X78745000Y59325000D03*
X78745000Y57425000D03*
%TD*%
D13*
%TO.C,R2-13*%
X76855000Y59420000D03*
X76855000Y57770000D03*
%TD*%
D11*
%TO.C,C1-3*%
X78745000Y99325000D03*
X78745000Y97425000D03*
%TD*%
D10*
%TO.C,D1-6*%
X21307500Y83455000D03*
X23182500Y83455000D03*
%TD*%
D12*
%TO.C,R1-16*%
X23050000Y41267500D03*
X21400000Y41267500D03*
%TD*%
%TO.C,R1-5*%
X3050000Y81267500D03*
X1400000Y81267500D03*
%TD*%
%TO.C,R1-6*%
X23050000Y81267500D03*
X21400000Y81267500D03*
%TD*%
%TO.C,R3-1*%
X38650000Y101267500D03*
X37000000Y101267500D03*
%TD*%
%TO.C,R1-7*%
X43050000Y81267500D03*
X41400000Y81267500D03*
%TD*%
D13*
%TO.C,R2-18*%
X76855000Y39420000D03*
X76855000Y37770000D03*
%TD*%
%TO.C,R2-12*%
X56855000Y59420000D03*
X56855000Y57770000D03*
%TD*%
D10*
%TO.C,D1-10*%
X1307500Y63455000D03*
X3182500Y63455000D03*
%TD*%
D12*
%TO.C,R1-13*%
X63050000Y61267500D03*
X61400000Y61267500D03*
%TD*%
D13*
%TO.C,R2-10*%
X16855000Y59420000D03*
X16855000Y57770000D03*
%TD*%
D10*
%TO.C,D2-14*%
X96907500Y63455000D03*
X98782500Y63455000D03*
%TD*%
%TO.C,D2-3*%
X76907500Y103455000D03*
X78782500Y103455000D03*
%TD*%
%TO.C,D2-18*%
X76907500Y43455000D03*
X78782500Y43455000D03*
%TD*%
D13*
%TO.C,R2-1*%
X36855000Y99420000D03*
X36855000Y97770000D03*
%TD*%
D10*
%TO.C,D1-22*%
X41307500Y23455000D03*
X43182500Y23455000D03*
%TD*%
D11*
%TO.C,C1-6*%
X38745000Y79325000D03*
X38745000Y77425000D03*
%TD*%
D10*
%TO.C,D2-21*%
X36907500Y23455000D03*
X38782500Y23455000D03*
%TD*%
%TO.C,D2-12*%
X56907500Y63455000D03*
X58782500Y63455000D03*
%TD*%
%TO.C,D1-24*%
X81307500Y23455000D03*
X83182500Y23455000D03*
%TD*%
D12*
%TO.C,R1-20*%
X3050000Y21267500D03*
X1400000Y21267500D03*
%TD*%
D10*
%TO.C,D2-24*%
X96907500Y23455000D03*
X98782500Y23455000D03*
%TD*%
D11*
%TO.C,C1-14*%
X98745000Y59325000D03*
X98745000Y57425000D03*
%TD*%
D10*
%TO.C,D2-22*%
X56907500Y23455000D03*
X58782500Y23455000D03*
%TD*%
%TO.C,D1-9*%
X81307500Y83455000D03*
X83182500Y83455000D03*
%TD*%
D12*
%TO.C,R3-24*%
X98650000Y21267500D03*
X97000000Y21267500D03*
%TD*%
%TO.C,R3-23*%
X78650000Y21267500D03*
X77000000Y21267500D03*
%TD*%
%TO.C,R1-10*%
X3050000Y61267500D03*
X1400000Y61267500D03*
%TD*%
D10*
%TO.C,D2-6*%
X36907500Y83455000D03*
X38782500Y83455000D03*
%TD*%
%TO.C,D1-15*%
X1307500Y43455000D03*
X3182500Y43455000D03*
%TD*%
%TO.C,D1-12*%
X41307500Y63455000D03*
X43182500Y63455000D03*
%TD*%
%TO.C,D1-5*%
X1307500Y83455000D03*
X3182500Y83455000D03*
%TD*%
D11*
%TO.C,C1-19*%
X98745000Y39325000D03*
X98745000Y37425000D03*
%TD*%
D12*
%TO.C,R3-21*%
X38650000Y21267500D03*
X37000000Y21267500D03*
%TD*%
D10*
%TO.C,D1-0*%
X1307500Y103455000D03*
X3182500Y103455000D03*
%TD*%
%TO.C,D2-5*%
X16907500Y83455000D03*
X18782500Y83455000D03*
%TD*%
D11*
%TO.C,C1-9*%
X98745000Y79325000D03*
X98745000Y77425000D03*
%TD*%
D13*
%TO.C,R2-17*%
X56855000Y39420000D03*
X56855000Y37770000D03*
%TD*%
D11*
%TO.C,C1-16*%
X38745000Y39325000D03*
X38745000Y37425000D03*
%TD*%
%TO.C,C1-21*%
X38745000Y19325000D03*
X38745000Y17425000D03*
%TD*%
D13*
%TO.C,R2-21*%
X36855000Y19420000D03*
X36855000Y17770000D03*
%TD*%
%TO.C,R2-22*%
X56855000Y19420000D03*
X56855000Y17770000D03*
%TD*%
D11*
%TO.C,C1-7*%
X58745000Y79325000D03*
X58745000Y77425000D03*
%TD*%
D10*
%TO.C,D1-7*%
X41307500Y83455000D03*
X43182500Y83455000D03*
%TD*%
%TO.C,D2-23*%
X76907500Y23455000D03*
X78782500Y23455000D03*
%TD*%
D13*
%TO.C,R2-0*%
X16855000Y99420000D03*
X16855000Y97770000D03*
%TD*%
D11*
%TO.C,C1-18*%
X78745000Y39325000D03*
X78745000Y37425000D03*
%TD*%
D12*
%TO.C,R1-0*%
X3050000Y101267500D03*
X1400000Y101267500D03*
%TD*%
%TO.C,R1-11*%
X23050000Y61267500D03*
X21400000Y61267500D03*
%TD*%
D11*
%TO.C,C1-11*%
X38745000Y59325000D03*
X38745000Y57425000D03*
%TD*%
D12*
%TO.C,R1-8*%
X63050000Y81267500D03*
X61400000Y81267500D03*
%TD*%
D13*
%TO.C,R2-11*%
X36855000Y59420000D03*
X36855000Y57770000D03*
%TD*%
D12*
%TO.C,R1-21*%
X23050000Y21267500D03*
X21400000Y21267500D03*
%TD*%
D10*
%TO.C,D2-9*%
X96907500Y83455000D03*
X98782500Y83455000D03*
%TD*%
%TO.C,D2-16*%
X36907500Y43455000D03*
X38782500Y43455000D03*
%TD*%
D11*
%TO.C,C1-8*%
X78745000Y79325000D03*
X78745000Y77425000D03*
%TD*%
D12*
%TO.C,R3-18*%
X78650000Y41267500D03*
X77000000Y41267500D03*
%TD*%
D13*
%TO.C,R2-23*%
X76855000Y19420000D03*
X76855000Y17770000D03*
%TD*%
D12*
%TO.C,R1-17*%
X43050000Y41267500D03*
X41400000Y41267500D03*
%TD*%
D11*
%TO.C,C1-2*%
X58745000Y99325000D03*
X58745000Y97425000D03*
%TD*%
D12*
%TO.C,R3-10*%
X18650000Y61267500D03*
X17000000Y61267500D03*
%TD*%
D10*
%TO.C,D2-7*%
X56907500Y83455000D03*
X58782500Y83455000D03*
%TD*%
D12*
%TO.C,R3-9*%
X98650000Y81267500D03*
X97000000Y81267500D03*
%TD*%
D13*
%TO.C,R2-19*%
X96855000Y39420000D03*
X96855000Y37770000D03*
%TD*%
D12*
%TO.C,R1-22*%
X43050000Y21267500D03*
X41400000Y21267500D03*
%TD*%
D10*
%TO.C,D1-8*%
X61307500Y83455000D03*
X63182500Y83455000D03*
%TD*%
D11*
%TO.C,C1-1*%
X38745000Y99325000D03*
X38745000Y97425000D03*
%TD*%
D13*
%TO.C,R2-8*%
X76855000Y79420000D03*
X76855000Y77770000D03*
%TD*%
D12*
%TO.C,R3-20*%
X18650000Y21267500D03*
X17000000Y21267500D03*
%TD*%
D10*
%TO.C,D2-13*%
X76907500Y63455000D03*
X78782500Y63455000D03*
%TD*%
D12*
%TO.C,R3-11*%
X38650000Y61267500D03*
X37000000Y61267500D03*
%TD*%
D13*
%TO.C,R2-9*%
X96855000Y79420000D03*
X96855000Y77770000D03*
%TD*%
D12*
%TO.C,R3-17*%
X58650000Y41267500D03*
X57000000Y41267500D03*
%TD*%
%TO.C,R3-15*%
X18650000Y41267500D03*
X17000000Y41267500D03*
%TD*%
M02*
