%TF.GenerationSoftware,KiCad,Pcbnew,(6.0.7)*%
%TF.CreationDate,2022-09-26T02:54:28-06:00*%
%TF.ProjectId,HHC-MiniBadge-2022,4848432d-4d69-46e6-9942-616467652d32,v1.0*%
%TF.SameCoordinates,Original*%
%TF.FileFunction,Soldermask,Top*%
%TF.FilePolarity,Negative*%
%FSLAX46Y46*%
G04 Gerber Fmt 4.6, Leading zero omitted, Abs format (unit mm)*
G04 Created by KiCad (PCBNEW (6.0.7)) date 2022-09-26 02:54:28*
%MOMM*%
%LPD*%
G01*
G04 APERTURE LIST*
%ADD10R,1.700000X1.700000*%
%ADD11O,1.700000X1.700000*%
%ADD12C,1.778000*%
%ADD13R,1.600000X1.600000*%
%ADD14O,1.600000X1.600000*%
%ADD15C,2.000000*%
%ADD16O,1.400000X1.400000*%
%ADD17C,1.400000*%
%ADD18C,1.800000*%
%ADD19R,1.800000X1.800000*%
%ADD20C,1.600000*%
G04 APERTURE END LIST*
D10*
%TO.C,J29*%
X126952500Y-65805000D03*
D11*
X129492500Y-65805000D03*
%TD*%
D10*
%TO.C,J28*%
X126952500Y-83585000D03*
D11*
X129492500Y-83585000D03*
%TD*%
D10*
%TO.C,J5*%
X134680000Y-75970000D03*
D11*
X137220000Y-75970000D03*
%TD*%
D12*
%TO.C,U5*%
X139920000Y-65810000D03*
X142460000Y-65810000D03*
X155160000Y-65810000D03*
X157700000Y-65810000D03*
X139920000Y-83590000D03*
X142460000Y-83590000D03*
X155160000Y-83590000D03*
X157700000Y-83590000D03*
%TD*%
%TO.C,U4*%
X137180000Y-104110000D03*
X134640000Y-104110000D03*
X121940000Y-104110000D03*
X119400000Y-104110000D03*
X137180000Y-86330000D03*
X134640000Y-86330000D03*
X121940000Y-86330000D03*
X119400000Y-86330000D03*
%TD*%
%TO.C,U3*%
X157700000Y-104110000D03*
X155160000Y-104110000D03*
X142460000Y-104110000D03*
X139920000Y-104110000D03*
X157700000Y-86330000D03*
X155160000Y-86330000D03*
X142460000Y-86330000D03*
X139920000Y-86330000D03*
%TD*%
%TO.C,U2*%
X119400000Y-65810000D03*
X121940000Y-65810000D03*
X134640000Y-65810000D03*
X137180000Y-65810000D03*
X119400000Y-83590000D03*
X121940000Y-83590000D03*
X134640000Y-83590000D03*
X137180000Y-83590000D03*
%TD*%
D13*
%TO.C,U1*%
X124520000Y-70890000D03*
D14*
X124520000Y-73430000D03*
X124520000Y-75970000D03*
X124520000Y-78510000D03*
X132140000Y-78510000D03*
X132140000Y-75970000D03*
X132140000Y-73430000D03*
X132140000Y-70890000D03*
%TD*%
D15*
%TO.C,SW1*%
X151972500Y-101860000D03*
X145472500Y-101860000D03*
X145472500Y-97360000D03*
X151972500Y-97360000D03*
%TD*%
D16*
%TO.C,R8*%
X153060000Y-94400000D03*
D17*
X150520000Y-94400000D03*
%TD*%
D16*
%TO.C,R7*%
X144020000Y-94390000D03*
D17*
X146560000Y-94390000D03*
%TD*%
%TO.C,R6*%
X133322500Y-91330000D03*
D16*
X133322500Y-88790000D03*
%TD*%
D17*
%TO.C,R5*%
X123265278Y-96532500D03*
D16*
X123265278Y-93992500D03*
%TD*%
%TO.C,R4*%
X123265278Y-99195000D03*
D17*
X123265278Y-101735000D03*
%TD*%
%TO.C,R3*%
X123265278Y-91330000D03*
D16*
X123265278Y-88790000D03*
%TD*%
D17*
%TO.C,R2*%
X133322500Y-96532500D03*
D16*
X133322500Y-93992500D03*
%TD*%
%TO.C,R1*%
X133322500Y-99195000D03*
D17*
X133322500Y-101735000D03*
%TD*%
D10*
%TO.C,J27*%
X156775000Y-90115000D03*
%TD*%
%TO.C,J26*%
X140370000Y-90115000D03*
%TD*%
%TO.C,J25*%
X156410000Y-99635000D03*
%TD*%
%TO.C,J24*%
X141140000Y-99630000D03*
%TD*%
%TO.C,J23*%
X136510000Y-90605000D03*
%TD*%
%TO.C,J22*%
X126450000Y-95807500D03*
%TD*%
%TO.C,J21*%
X126450000Y-101010000D03*
%TD*%
%TO.C,J20*%
X130185000Y-90605000D03*
%TD*%
%TO.C,J19*%
X120130278Y-95807500D03*
%TD*%
%TO.C,J18*%
X120130278Y-101010000D03*
%TD*%
%TO.C,J17*%
X126450000Y-90605000D03*
%TD*%
%TO.C,J16*%
X136510000Y-95807500D03*
%TD*%
%TO.C,J15*%
X136510000Y-101010000D03*
%TD*%
%TO.C,J14*%
X120130278Y-90605000D03*
%TD*%
%TO.C,J13*%
X130185000Y-95807500D03*
%TD*%
%TO.C,J12*%
X130185000Y-101010000D03*
%TD*%
%TO.C,J11*%
X155655000Y-80945000D03*
%TD*%
%TO.C,J10*%
X155670000Y-75627500D03*
%TD*%
%TO.C,J9*%
X155670000Y-70310000D03*
%TD*%
%TO.C,J8*%
X141990000Y-80945000D03*
%TD*%
%TO.C,J7*%
X142005000Y-75627500D03*
%TD*%
%TO.C,J6*%
X142005000Y-70310000D03*
%TD*%
%TO.C,J4*%
X134680000Y-73430000D03*
D11*
X137220000Y-73430000D03*
%TD*%
D10*
%TO.C,J3*%
X119440000Y-75970000D03*
D11*
X121980000Y-75970000D03*
%TD*%
D10*
%TO.C,J2*%
X134680000Y-78510000D03*
D11*
X137220000Y-78510000D03*
%TD*%
D10*
%TO.C,J1*%
X119440000Y-73430000D03*
D11*
X121980000Y-73430000D03*
%TD*%
D18*
%TO.C,D2*%
X153005000Y-90090000D03*
D19*
X150465000Y-90090000D03*
%TD*%
D18*
%TO.C,D1*%
X144080000Y-90090000D03*
D19*
X146620000Y-90090000D03*
%TD*%
D20*
%TO.C,C3*%
X147410000Y-81410000D03*
X149910000Y-81410000D03*
%TD*%
D13*
%TO.C,C2*%
X147454888Y-76500000D03*
D20*
X149954888Y-76500000D03*
%TD*%
D13*
%TO.C,C1*%
X147007349Y-69070000D03*
D20*
X150507349Y-69070000D03*
%TD*%
M02*
