%TF.GenerationSoftware,KiCad,Pcbnew,(6.0.7)*%
%TF.CreationDate,2022-09-26T02:54:27-06:00*%
%TF.ProjectId,HHC-MiniBadge-2022,4848432d-4d69-46e6-9942-616467652d32,v1.0*%
%TF.SameCoordinates,Original*%
%TF.FileFunction,Copper,L2,Bot*%
%TF.FilePolarity,Positive*%
%FSLAX46Y46*%
G04 Gerber Fmt 4.6, Leading zero omitted, Abs format (unit mm)*
G04 Created by KiCad (PCBNEW (6.0.7)) date 2022-09-26 02:54:27*
%MOMM*%
%LPD*%
G01*
G04 APERTURE LIST*
%ADD10C,0.150000*%
%TA.AperFunction,NonConductor*%
%ADD11C,0.150000*%
%TD*%
%TA.AperFunction,ComponentPad*%
%ADD12R,1.700000X1.700000*%
%TD*%
%TA.AperFunction,ComponentPad*%
%ADD13O,1.700000X1.700000*%
%TD*%
%TA.AperFunction,ComponentPad*%
%ADD14C,1.778000*%
%TD*%
%TA.AperFunction,ComponentPad*%
%ADD15R,1.600000X1.600000*%
%TD*%
%TA.AperFunction,ComponentPad*%
%ADD16O,1.600000X1.600000*%
%TD*%
%TA.AperFunction,ComponentPad*%
%ADD17C,2.000000*%
%TD*%
%TA.AperFunction,ComponentPad*%
%ADD18O,1.400000X1.400000*%
%TD*%
%TA.AperFunction,ComponentPad*%
%ADD19C,1.400000*%
%TD*%
%TA.AperFunction,ComponentPad*%
%ADD20C,1.800000*%
%TD*%
%TA.AperFunction,ComponentPad*%
%ADD21R,1.800000X1.800000*%
%TD*%
%TA.AperFunction,ComponentPad*%
%ADD22C,1.600000*%
%TD*%
%TA.AperFunction,Conductor*%
%ADD23C,0.250000*%
%TD*%
G04 APERTURE END LIST*
D10*
D11*
X128166190Y-71774285D02*
X128118571Y-71726666D01*
X128070952Y-71631428D01*
X128070952Y-71536190D01*
X128118571Y-71440952D01*
X128166190Y-71393333D01*
X128261428Y-71345714D01*
X128356666Y-71345714D01*
X128451904Y-71393333D01*
X128499523Y-71440952D01*
X128547142Y-71536190D01*
X128547142Y-71631428D01*
X128499523Y-71726666D01*
X128451904Y-71774285D01*
X128070952Y-71774285D02*
X128451904Y-71774285D01*
X128499523Y-71821904D01*
X128499523Y-71869523D01*
X128451904Y-71964761D01*
X128356666Y-72012380D01*
X128118571Y-72012380D01*
X127975714Y-71917142D01*
X127880476Y-71774285D01*
X127832857Y-71583809D01*
X127880476Y-71393333D01*
X127975714Y-71250476D01*
X128118571Y-71155238D01*
X128309047Y-71107619D01*
X128499523Y-71155238D01*
X128642380Y-71250476D01*
X128737619Y-71393333D01*
X128785238Y-71583809D01*
X128737619Y-71774285D01*
X128642380Y-71917142D01*
X128642380Y-72440952D02*
X127642380Y-72440952D01*
X128642380Y-72869523D02*
X128118571Y-72869523D01*
X128023333Y-72821904D01*
X127975714Y-72726666D01*
X127975714Y-72583809D01*
X128023333Y-72488571D01*
X128070952Y-72440952D01*
X128642380Y-73774285D02*
X128118571Y-73774285D01*
X128023333Y-73726666D01*
X127975714Y-73631428D01*
X127975714Y-73440952D01*
X128023333Y-73345714D01*
X128594761Y-73774285D02*
X128642380Y-73679047D01*
X128642380Y-73440952D01*
X128594761Y-73345714D01*
X128499523Y-73298095D01*
X128404285Y-73298095D01*
X128309047Y-73345714D01*
X128261428Y-73440952D01*
X128261428Y-73679047D01*
X128213809Y-73774285D01*
X128642380Y-74250476D02*
X127975714Y-74250476D01*
X128070952Y-74250476D02*
X128023333Y-74298095D01*
X127975714Y-74393333D01*
X127975714Y-74536190D01*
X128023333Y-74631428D01*
X128118571Y-74679047D01*
X128642380Y-74679047D01*
X128118571Y-74679047D02*
X128023333Y-74726666D01*
X127975714Y-74821904D01*
X127975714Y-74964761D01*
X128023333Y-75060000D01*
X128118571Y-75107619D01*
X128642380Y-75107619D01*
X128594761Y-75536190D02*
X128642380Y-75631428D01*
X128642380Y-75821904D01*
X128594761Y-75917142D01*
X128499523Y-75964761D01*
X128451904Y-75964761D01*
X128356666Y-75917142D01*
X128309047Y-75821904D01*
X128309047Y-75679047D01*
X128261428Y-75583809D01*
X128166190Y-75536190D01*
X128118571Y-75536190D01*
X128023333Y-75583809D01*
X127975714Y-75679047D01*
X127975714Y-75821904D01*
X128023333Y-75917142D01*
X127975714Y-76250476D02*
X127975714Y-76631428D01*
X127642380Y-76393333D02*
X128499523Y-76393333D01*
X128594761Y-76440952D01*
X128642380Y-76536190D01*
X128642380Y-76631428D01*
X128594761Y-77345714D02*
X128642380Y-77250476D01*
X128642380Y-77060000D01*
X128594761Y-76964761D01*
X128499523Y-76917142D01*
X128118571Y-76917142D01*
X128023333Y-76964761D01*
X127975714Y-77060000D01*
X127975714Y-77250476D01*
X128023333Y-77345714D01*
X128118571Y-77393333D01*
X128213809Y-77393333D01*
X128309047Y-76917142D01*
X128642380Y-77821904D02*
X127975714Y-77821904D01*
X128166190Y-77821904D02*
X128070952Y-77869523D01*
X128023333Y-77917142D01*
X127975714Y-78012380D01*
X127975714Y-78107619D01*
D10*
D11*
X131485714Y-104426190D02*
X131533333Y-104378571D01*
X131628571Y-104330952D01*
X131723809Y-104330952D01*
X131819047Y-104378571D01*
X131866666Y-104426190D01*
X131914285Y-104521428D01*
X131914285Y-104616666D01*
X131866666Y-104711904D01*
X131819047Y-104759523D01*
X131723809Y-104807142D01*
X131628571Y-104807142D01*
X131533333Y-104759523D01*
X131485714Y-104711904D01*
X131485714Y-104330952D02*
X131485714Y-104711904D01*
X131438095Y-104759523D01*
X131390476Y-104759523D01*
X131295238Y-104711904D01*
X131247619Y-104616666D01*
X131247619Y-104378571D01*
X131342857Y-104235714D01*
X131485714Y-104140476D01*
X131676190Y-104092857D01*
X131866666Y-104140476D01*
X132009523Y-104235714D01*
X132104761Y-104378571D01*
X132152380Y-104569047D01*
X132104761Y-104759523D01*
X132009523Y-104902380D01*
X131866666Y-104997619D01*
X131676190Y-105045238D01*
X131485714Y-104997619D01*
X131342857Y-104902380D01*
X130819047Y-104902380D02*
X130819047Y-103902380D01*
X130390476Y-104902380D02*
X130390476Y-104378571D01*
X130438095Y-104283333D01*
X130533333Y-104235714D01*
X130676190Y-104235714D01*
X130771428Y-104283333D01*
X130819047Y-104330952D01*
X129485714Y-104902380D02*
X129485714Y-104378571D01*
X129533333Y-104283333D01*
X129628571Y-104235714D01*
X129819047Y-104235714D01*
X129914285Y-104283333D01*
X129485714Y-104854761D02*
X129580952Y-104902380D01*
X129819047Y-104902380D01*
X129914285Y-104854761D01*
X129961904Y-104759523D01*
X129961904Y-104664285D01*
X129914285Y-104569047D01*
X129819047Y-104521428D01*
X129580952Y-104521428D01*
X129485714Y-104473809D01*
X129009523Y-104902380D02*
X129009523Y-104235714D01*
X129009523Y-104330952D02*
X128961904Y-104283333D01*
X128866666Y-104235714D01*
X128723809Y-104235714D01*
X128628571Y-104283333D01*
X128580952Y-104378571D01*
X128580952Y-104902380D01*
X128580952Y-104378571D02*
X128533333Y-104283333D01*
X128438095Y-104235714D01*
X128295238Y-104235714D01*
X128200000Y-104283333D01*
X128152380Y-104378571D01*
X128152380Y-104902380D01*
X127723809Y-104854761D02*
X127628571Y-104902380D01*
X127438095Y-104902380D01*
X127342857Y-104854761D01*
X127295238Y-104759523D01*
X127295238Y-104711904D01*
X127342857Y-104616666D01*
X127438095Y-104569047D01*
X127580952Y-104569047D01*
X127676190Y-104521428D01*
X127723809Y-104426190D01*
X127723809Y-104378571D01*
X127676190Y-104283333D01*
X127580952Y-104235714D01*
X127438095Y-104235714D01*
X127342857Y-104283333D01*
X127009523Y-104235714D02*
X126628571Y-104235714D01*
X126866666Y-103902380D02*
X126866666Y-104759523D01*
X126819047Y-104854761D01*
X126723809Y-104902380D01*
X126628571Y-104902380D01*
X125914285Y-104854761D02*
X126009523Y-104902380D01*
X126200000Y-104902380D01*
X126295238Y-104854761D01*
X126342857Y-104759523D01*
X126342857Y-104378571D01*
X126295238Y-104283333D01*
X126200000Y-104235714D01*
X126009523Y-104235714D01*
X125914285Y-104283333D01*
X125866666Y-104378571D01*
X125866666Y-104473809D01*
X126342857Y-104569047D01*
X125438095Y-104902380D02*
X125438095Y-104235714D01*
X125438095Y-104426190D02*
X125390476Y-104330952D01*
X125342857Y-104283333D01*
X125247619Y-104235714D01*
X125152380Y-104235714D01*
D10*
D11*
X151565714Y-104396190D02*
X151613333Y-104348571D01*
X151708571Y-104300952D01*
X151803809Y-104300952D01*
X151899047Y-104348571D01*
X151946666Y-104396190D01*
X151994285Y-104491428D01*
X151994285Y-104586666D01*
X151946666Y-104681904D01*
X151899047Y-104729523D01*
X151803809Y-104777142D01*
X151708571Y-104777142D01*
X151613333Y-104729523D01*
X151565714Y-104681904D01*
X151565714Y-104300952D02*
X151565714Y-104681904D01*
X151518095Y-104729523D01*
X151470476Y-104729523D01*
X151375238Y-104681904D01*
X151327619Y-104586666D01*
X151327619Y-104348571D01*
X151422857Y-104205714D01*
X151565714Y-104110476D01*
X151756190Y-104062857D01*
X151946666Y-104110476D01*
X152089523Y-104205714D01*
X152184761Y-104348571D01*
X152232380Y-104539047D01*
X152184761Y-104729523D01*
X152089523Y-104872380D01*
X151946666Y-104967619D01*
X151756190Y-105015238D01*
X151565714Y-104967619D01*
X151422857Y-104872380D01*
X150899047Y-104872380D02*
X150899047Y-103872380D01*
X150470476Y-104872380D02*
X150470476Y-104348571D01*
X150518095Y-104253333D01*
X150613333Y-104205714D01*
X150756190Y-104205714D01*
X150851428Y-104253333D01*
X150899047Y-104300952D01*
X149565714Y-104872380D02*
X149565714Y-104348571D01*
X149613333Y-104253333D01*
X149708571Y-104205714D01*
X149899047Y-104205714D01*
X149994285Y-104253333D01*
X149565714Y-104824761D02*
X149660952Y-104872380D01*
X149899047Y-104872380D01*
X149994285Y-104824761D01*
X150041904Y-104729523D01*
X150041904Y-104634285D01*
X149994285Y-104539047D01*
X149899047Y-104491428D01*
X149660952Y-104491428D01*
X149565714Y-104443809D01*
X149089523Y-104872380D02*
X149089523Y-104205714D01*
X149089523Y-104300952D02*
X149041904Y-104253333D01*
X148946666Y-104205714D01*
X148803809Y-104205714D01*
X148708571Y-104253333D01*
X148660952Y-104348571D01*
X148660952Y-104872380D01*
X148660952Y-104348571D02*
X148613333Y-104253333D01*
X148518095Y-104205714D01*
X148375238Y-104205714D01*
X148280000Y-104253333D01*
X148232380Y-104348571D01*
X148232380Y-104872380D01*
X147803809Y-104824761D02*
X147708571Y-104872380D01*
X147518095Y-104872380D01*
X147422857Y-104824761D01*
X147375238Y-104729523D01*
X147375238Y-104681904D01*
X147422857Y-104586666D01*
X147518095Y-104539047D01*
X147660952Y-104539047D01*
X147756190Y-104491428D01*
X147803809Y-104396190D01*
X147803809Y-104348571D01*
X147756190Y-104253333D01*
X147660952Y-104205714D01*
X147518095Y-104205714D01*
X147422857Y-104253333D01*
X147089523Y-104205714D02*
X146708571Y-104205714D01*
X146946666Y-103872380D02*
X146946666Y-104729523D01*
X146899047Y-104824761D01*
X146803809Y-104872380D01*
X146708571Y-104872380D01*
X145994285Y-104824761D02*
X146089523Y-104872380D01*
X146280000Y-104872380D01*
X146375238Y-104824761D01*
X146422857Y-104729523D01*
X146422857Y-104348571D01*
X146375238Y-104253333D01*
X146280000Y-104205714D01*
X146089523Y-104205714D01*
X145994285Y-104253333D01*
X145946666Y-104348571D01*
X145946666Y-104443809D01*
X146422857Y-104539047D01*
X145518095Y-104872380D02*
X145518095Y-104205714D01*
X145518095Y-104396190D02*
X145470476Y-104300952D01*
X145422857Y-104253333D01*
X145327619Y-104205714D01*
X145232380Y-104205714D01*
D10*
D11*
X151215714Y-83806190D02*
X151263333Y-83758571D01*
X151358571Y-83710952D01*
X151453809Y-83710952D01*
X151549047Y-83758571D01*
X151596666Y-83806190D01*
X151644285Y-83901428D01*
X151644285Y-83996666D01*
X151596666Y-84091904D01*
X151549047Y-84139523D01*
X151453809Y-84187142D01*
X151358571Y-84187142D01*
X151263333Y-84139523D01*
X151215714Y-84091904D01*
X151215714Y-83710952D02*
X151215714Y-84091904D01*
X151168095Y-84139523D01*
X151120476Y-84139523D01*
X151025238Y-84091904D01*
X150977619Y-83996666D01*
X150977619Y-83758571D01*
X151072857Y-83615714D01*
X151215714Y-83520476D01*
X151406190Y-83472857D01*
X151596666Y-83520476D01*
X151739523Y-83615714D01*
X151834761Y-83758571D01*
X151882380Y-83949047D01*
X151834761Y-84139523D01*
X151739523Y-84282380D01*
X151596666Y-84377619D01*
X151406190Y-84425238D01*
X151215714Y-84377619D01*
X151072857Y-84282380D01*
X150549047Y-84282380D02*
X150549047Y-83282380D01*
X150120476Y-84282380D02*
X150120476Y-83758571D01*
X150168095Y-83663333D01*
X150263333Y-83615714D01*
X150406190Y-83615714D01*
X150501428Y-83663333D01*
X150549047Y-83710952D01*
X149215714Y-84282380D02*
X149215714Y-83758571D01*
X149263333Y-83663333D01*
X149358571Y-83615714D01*
X149549047Y-83615714D01*
X149644285Y-83663333D01*
X149215714Y-84234761D02*
X149310952Y-84282380D01*
X149549047Y-84282380D01*
X149644285Y-84234761D01*
X149691904Y-84139523D01*
X149691904Y-84044285D01*
X149644285Y-83949047D01*
X149549047Y-83901428D01*
X149310952Y-83901428D01*
X149215714Y-83853809D01*
X148739523Y-84282380D02*
X148739523Y-83615714D01*
X148739523Y-83710952D02*
X148691904Y-83663333D01*
X148596666Y-83615714D01*
X148453809Y-83615714D01*
X148358571Y-83663333D01*
X148310952Y-83758571D01*
X148310952Y-84282380D01*
X148310952Y-83758571D02*
X148263333Y-83663333D01*
X148168095Y-83615714D01*
X148025238Y-83615714D01*
X147930000Y-83663333D01*
X147882380Y-83758571D01*
X147882380Y-84282380D01*
X147453809Y-84234761D02*
X147358571Y-84282380D01*
X147168095Y-84282380D01*
X147072857Y-84234761D01*
X147025238Y-84139523D01*
X147025238Y-84091904D01*
X147072857Y-83996666D01*
X147168095Y-83949047D01*
X147310952Y-83949047D01*
X147406190Y-83901428D01*
X147453809Y-83806190D01*
X147453809Y-83758571D01*
X147406190Y-83663333D01*
X147310952Y-83615714D01*
X147168095Y-83615714D01*
X147072857Y-83663333D01*
X146739523Y-83615714D02*
X146358571Y-83615714D01*
X146596666Y-83282380D02*
X146596666Y-84139523D01*
X146549047Y-84234761D01*
X146453809Y-84282380D01*
X146358571Y-84282380D01*
X145644285Y-84234761D02*
X145739523Y-84282380D01*
X145930000Y-84282380D01*
X146025238Y-84234761D01*
X146072857Y-84139523D01*
X146072857Y-83758571D01*
X146025238Y-83663333D01*
X145930000Y-83615714D01*
X145739523Y-83615714D01*
X145644285Y-83663333D01*
X145596666Y-83758571D01*
X145596666Y-83853809D01*
X146072857Y-83949047D01*
X145168095Y-84282380D02*
X145168095Y-83615714D01*
X145168095Y-83806190D02*
X145120476Y-83710952D01*
X145072857Y-83663333D01*
X144977619Y-83615714D01*
X144882380Y-83615714D01*
D12*
%TO.P,J29,1,Pin_1*%
%TO.N,GND*%
X126952500Y-65805000D03*
D13*
%TO.P,J29,2,Pin_2*%
X129492500Y-65805000D03*
%TD*%
D12*
%TO.P,J28,1,Pin_1*%
%TO.N,+3.3V*%
X126952500Y-83585000D03*
D13*
%TO.P,J28,2,Pin_2*%
X129492500Y-83585000D03*
%TD*%
D12*
%TO.P,J5,1,Pin_1*%
%TO.N,Net-(J5-Pad1)*%
X134680000Y-75970000D03*
D13*
%TO.P,J5,2,Pin_2*%
X137220000Y-75970000D03*
%TD*%
D14*
%TO.P,U5,1,+5V*%
%TO.N,unconnected-(U5-Pad1)*%
X139920000Y-65810000D03*
%TO.P,U5,2,GND*%
%TO.N,unconnected-(U5-Pad2)*%
X142460000Y-65810000D03*
%TO.P,U5,7,+3v3*%
%TO.N,unconnected-(U5-Pad7)*%
X155160000Y-65810000D03*
%TO.P,U5,8,GND*%
%TO.N,unconnected-(U5-Pad8)*%
X157700000Y-65810000D03*
%TO.P,U5,9,NC*%
%TO.N,unconnected-(U5-Pad9)*%
X139920000Y-83590000D03*
%TO.P,U5,10,NC*%
%TO.N,unconnected-(U5-Pad10)*%
X142460000Y-83590000D03*
%TO.P,U5,15,+3v3*%
%TO.N,unconnected-(U5-Pad15)*%
X155160000Y-83590000D03*
%TO.P,U5,16,GND*%
%TO.N,unconnected-(U5-Pad16)*%
X157700000Y-83590000D03*
%TD*%
%TO.P,U4,16,GND*%
%TO.N,unconnected-(U4-Pad16)*%
X137180000Y-104110000D03*
%TO.P,U4,15,+3v3*%
%TO.N,unconnected-(U4-Pad15)*%
X134640000Y-104110000D03*
%TO.P,U4,10,NC*%
%TO.N,unconnected-(U4-Pad10)*%
X121940000Y-104110000D03*
%TO.P,U4,9,NC*%
%TO.N,unconnected-(U4-Pad9)*%
X119400000Y-104110000D03*
%TO.P,U4,8,GND*%
%TO.N,unconnected-(U4-Pad8)*%
X137180000Y-86330000D03*
%TO.P,U4,7,+3v3*%
%TO.N,unconnected-(U4-Pad7)*%
X134640000Y-86330000D03*
%TO.P,U4,2,GND*%
%TO.N,unconnected-(U4-Pad2)*%
X121940000Y-86330000D03*
%TO.P,U4,1,+5V*%
%TO.N,unconnected-(U4-Pad1)*%
X119400000Y-86330000D03*
%TD*%
%TO.P,U3,16,GND*%
%TO.N,unconnected-(U3-Pad16)*%
X157700000Y-104110000D03*
%TO.P,U3,15,+3v3*%
%TO.N,unconnected-(U3-Pad15)*%
X155160000Y-104110000D03*
%TO.P,U3,10,NC*%
%TO.N,unconnected-(U3-Pad10)*%
X142460000Y-104110000D03*
%TO.P,U3,9,NC*%
%TO.N,unconnected-(U3-Pad9)*%
X139920000Y-104110000D03*
%TO.P,U3,8,GND*%
%TO.N,GND*%
X157700000Y-86330000D03*
%TO.P,U3,7,+3v3*%
%TO.N,+3.3V*%
X155160000Y-86330000D03*
%TO.P,U3,2,GND*%
%TO.N,unconnected-(U3-Pad2)*%
X142460000Y-86330000D03*
%TO.P,U3,1,+5V*%
%TO.N,unconnected-(U3-Pad1)*%
X139920000Y-86330000D03*
%TD*%
%TO.P,U2,1,+5V*%
%TO.N,unconnected-(U2-Pad1)*%
X119400000Y-65810000D03*
%TO.P,U2,2,GND*%
%TO.N,GND*%
X121940000Y-65810000D03*
%TO.P,U2,7,+3v3*%
%TO.N,+3.3V*%
X134640000Y-65810000D03*
%TO.P,U2,8,GND*%
%TO.N,unconnected-(U2-Pad8)*%
X137180000Y-65810000D03*
%TO.P,U2,9,NC*%
%TO.N,unconnected-(U2-Pad9)*%
X119400000Y-83590000D03*
%TO.P,U2,10,NC*%
%TO.N,unconnected-(U2-Pad10)*%
X121940000Y-83590000D03*
%TO.P,U2,15,+3v3*%
%TO.N,+3.3V*%
X134640000Y-83590000D03*
%TO.P,U2,16,GND*%
%TO.N,unconnected-(U2-Pad16)*%
X137180000Y-83590000D03*
%TD*%
D15*
%TO.P,U1,1,GND*%
%TO.N,GND*%
X124520000Y-70890000D03*
D16*
%TO.P,U1,2,TR*%
%TO.N,Net-(J1-Pad1)*%
X124520000Y-73430000D03*
%TO.P,U1,3,Q*%
%TO.N,Net-(J3-Pad1)*%
X124520000Y-75970000D03*
%TO.P,U1,4,R*%
%TO.N,+3.3V*%
X124520000Y-78510000D03*
%TO.P,U1,5,CV*%
%TO.N,Net-(J2-Pad1)*%
X132140000Y-78510000D03*
%TO.P,U1,6,THR*%
%TO.N,Net-(J5-Pad1)*%
X132140000Y-75970000D03*
%TO.P,U1,7,DIS*%
%TO.N,Net-(J4-Pad1)*%
X132140000Y-73430000D03*
%TO.P,U1,8,VCC*%
%TO.N,+3.3V*%
X132140000Y-70890000D03*
%TD*%
D17*
%TO.P,SW1,2,2*%
%TO.N,Net-(J25-Pad1)*%
X151972500Y-101860000D03*
X145472500Y-101860000D03*
%TO.P,SW1,1,1*%
%TO.N,Net-(J24-Pad1)*%
X145472500Y-97360000D03*
X151972500Y-97360000D03*
%TD*%
D18*
%TO.P,R8,2*%
%TO.N,Net-(D2-Pad1)*%
X153060000Y-94400000D03*
D19*
%TO.P,R8,1*%
%TO.N,GND*%
X150520000Y-94400000D03*
%TD*%
D18*
%TO.P,R7,2*%
%TO.N,Net-(D1-Pad2)*%
X144020000Y-94390000D03*
D19*
%TO.P,R7,1*%
%TO.N,+3.3V*%
X146560000Y-94390000D03*
%TD*%
%TO.P,R6,1*%
%TO.N,Net-(J20-Pad1)*%
X133322500Y-91330000D03*
D18*
%TO.P,R6,2*%
%TO.N,Net-(J23-Pad1)*%
X133322500Y-88790000D03*
%TD*%
D19*
%TO.P,R5,1*%
%TO.N,Net-(J19-Pad1)*%
X123265278Y-96532500D03*
D18*
%TO.P,R5,2*%
%TO.N,Net-(J22-Pad1)*%
X123265278Y-93992500D03*
%TD*%
%TO.P,R4,2*%
%TO.N,Net-(J21-Pad1)*%
X123265278Y-99195000D03*
D19*
%TO.P,R4,1*%
%TO.N,Net-(J18-Pad1)*%
X123265278Y-101735000D03*
%TD*%
%TO.P,R3,1*%
%TO.N,Net-(J14-Pad1)*%
X123265278Y-91330000D03*
D18*
%TO.P,R3,2*%
%TO.N,Net-(J17-Pad1)*%
X123265278Y-88790000D03*
%TD*%
D19*
%TO.P,R2,1*%
%TO.N,Net-(J13-Pad1)*%
X133322500Y-96532500D03*
D18*
%TO.P,R2,2*%
%TO.N,Net-(J16-Pad1)*%
X133322500Y-93992500D03*
%TD*%
%TO.P,R1,2*%
%TO.N,Net-(J15-Pad1)*%
X133322500Y-99195000D03*
D19*
%TO.P,R1,1*%
%TO.N,Net-(J12-Pad1)*%
X133322500Y-101735000D03*
%TD*%
D12*
%TO.P,J27,1,Pin_1*%
%TO.N,Net-(D2-Pad2)*%
X156775000Y-90115000D03*
%TD*%
%TO.P,J26,1,Pin_1*%
%TO.N,Net-(D1-Pad1)*%
X140370000Y-90115000D03*
%TD*%
%TO.P,J25,1,Pin_1*%
%TO.N,Net-(J25-Pad1)*%
X156410000Y-99635000D03*
%TD*%
%TO.P,J24,1,Pin_1*%
%TO.N,Net-(J24-Pad1)*%
X141140000Y-99630000D03*
%TD*%
%TO.P,J23,1,Pin_1*%
%TO.N,Net-(J23-Pad1)*%
X136510000Y-90605000D03*
%TD*%
%TO.P,J22,1,Pin_1*%
%TO.N,Net-(J22-Pad1)*%
X126450000Y-95807500D03*
%TD*%
%TO.P,J21,1,Pin_1*%
%TO.N,Net-(J21-Pad1)*%
X126450000Y-101010000D03*
%TD*%
%TO.P,J20,1,Pin_1*%
%TO.N,Net-(J20-Pad1)*%
X130185000Y-90605000D03*
%TD*%
%TO.P,J19,1,Pin_1*%
%TO.N,Net-(J19-Pad1)*%
X120130278Y-95807500D03*
%TD*%
%TO.P,J18,1,Pin_1*%
%TO.N,Net-(J18-Pad1)*%
X120130278Y-101010000D03*
%TD*%
%TO.P,J17,1,Pin_1*%
%TO.N,Net-(J17-Pad1)*%
X126450000Y-90605000D03*
%TD*%
%TO.P,J16,1,Pin_1*%
%TO.N,Net-(J16-Pad1)*%
X136510000Y-95807500D03*
%TD*%
%TO.P,J15,1,Pin_1*%
%TO.N,Net-(J15-Pad1)*%
X136510000Y-101010000D03*
%TD*%
%TO.P,J14,1,Pin_1*%
%TO.N,Net-(J14-Pad1)*%
X120130278Y-90605000D03*
%TD*%
%TO.P,J13,1,Pin_1*%
%TO.N,Net-(J13-Pad1)*%
X130185000Y-95807500D03*
%TD*%
%TO.P,J12,1,Pin_1*%
%TO.N,Net-(J12-Pad1)*%
X130185000Y-101010000D03*
%TD*%
%TO.P,J11,1,Pin_1*%
%TO.N,Net-(C3-Pad2)*%
X155655000Y-80945000D03*
%TD*%
%TO.P,J10,1,Pin_1*%
%TO.N,Net-(C2-Pad2)*%
X155670000Y-75627500D03*
%TD*%
%TO.P,J9,1,Pin_1*%
%TO.N,Net-(C1-Pad2)*%
X155670000Y-70310000D03*
%TD*%
%TO.P,J8,1,Pin_1*%
%TO.N,Net-(C3-Pad1)*%
X141990000Y-80945000D03*
%TD*%
%TO.P,J7,1,Pin_1*%
%TO.N,Net-(C2-Pad1)*%
X142005000Y-75627500D03*
%TD*%
%TO.P,J6,1,Pin_1*%
%TO.N,Net-(C1-Pad1)*%
X142005000Y-70310000D03*
%TD*%
%TO.P,J4,1,Pin_1*%
%TO.N,Net-(J4-Pad1)*%
X134680000Y-73430000D03*
D13*
%TO.P,J4,2,Pin_2*%
X137220000Y-73430000D03*
%TD*%
D12*
%TO.P,J3,1,Pin_1*%
%TO.N,Net-(J3-Pad1)*%
X119440000Y-75970000D03*
D13*
%TO.P,J3,2,Pin_2*%
X121980000Y-75970000D03*
%TD*%
D12*
%TO.P,J2,1,Pin_1*%
%TO.N,Net-(J2-Pad1)*%
X134680000Y-78510000D03*
D13*
%TO.P,J2,2,Pin_2*%
X137220000Y-78510000D03*
%TD*%
D12*
%TO.P,J1,1,Pin_1*%
%TO.N,Net-(J1-Pad1)*%
X119440000Y-73430000D03*
D13*
%TO.P,J1,2,Pin_2*%
X121980000Y-73430000D03*
%TD*%
D20*
%TO.P,D2,2,A*%
%TO.N,Net-(D2-Pad2)*%
X153005000Y-90090000D03*
D21*
%TO.P,D2,1,K*%
%TO.N,Net-(D2-Pad1)*%
X150465000Y-90090000D03*
%TD*%
D20*
%TO.P,D1,2,A*%
%TO.N,Net-(D1-Pad2)*%
X144080000Y-90090000D03*
D21*
%TO.P,D1,1,K*%
%TO.N,Net-(D1-Pad1)*%
X146620000Y-90090000D03*
%TD*%
D22*
%TO.P,C3,1*%
%TO.N,Net-(C3-Pad1)*%
X147410000Y-81410000D03*
%TO.P,C3,2*%
%TO.N,Net-(C3-Pad2)*%
X149910000Y-81410000D03*
%TD*%
D15*
%TO.P,C2,1*%
%TO.N,Net-(C2-Pad1)*%
X147454888Y-76500000D03*
D22*
%TO.P,C2,2*%
%TO.N,Net-(C2-Pad2)*%
X149954888Y-76500000D03*
%TD*%
D15*
%TO.P,C1,1*%
%TO.N,Net-(C1-Pad1)*%
X147007349Y-69070000D03*
D22*
%TO.P,C1,2*%
%TO.N,Net-(C1-Pad2)*%
X150507349Y-69070000D03*
%TD*%
D23*
%TO.N,Net-(D1-Pad2)*%
X144080000Y-94330000D02*
X144020000Y-94390000D01*
X144080000Y-90090000D02*
X144080000Y-94330000D01*
%TO.N,+3.3V*%
X124520000Y-81152500D02*
X126952500Y-83585000D01*
X124520000Y-78510000D02*
X124520000Y-81152500D01*
%TD*%
M02*
