M48
; DRILL file {KiCad (6.0.7)} date Mon Sep 26 02:53:53 2022
; FORMAT={-:-/ absolute / metric / decimal}
; #@! TF.CreationDate,2022-09-26T02:53:53-06:00
; #@! TF.GenerationSoftware,Kicad,Pcbnew,(6.0.7)
; #@! TF.FileFunction,MixedPlating,1,2
FMAT,2
METRIC
; #@! TA.AperFunction,Plated,PTH,ComponentDrill
T1C0.700
; #@! TA.AperFunction,Plated,PTH,ComponentDrill
T2C0.800
; #@! TA.AperFunction,Plated,PTH,ComponentDrill
T3C0.900
; #@! TA.AperFunction,Plated,PTH,ComponentDrill
T4C1.000
; #@! TA.AperFunction,Plated,PTH,ComponentDrill
T5C1.016
; #@! TA.AperFunction,Plated,PTH,ComponentDrill
T6C1.100
%
G90
G05
T1
X123.265Y-88.79
X123.265Y-91.33
X123.265Y-93.992
X123.265Y-96.532
X123.265Y-99.195
X123.265Y-101.735
X133.322Y-88.79
X133.322Y-91.33
X133.322Y-93.992
X133.322Y-96.532
X133.322Y-99.195
X133.322Y-101.735
X144.02Y-94.39
X146.56Y-94.39
X150.52Y-94.4
X153.06Y-94.4
T2
X124.52Y-70.89
X124.52Y-73.43
X124.52Y-75.97
X124.52Y-78.51
X132.14Y-70.89
X132.14Y-73.43
X132.14Y-75.97
X132.14Y-78.51
X147.007Y-69.07
X147.41Y-81.41
X147.455Y-76.5
X149.91Y-81.41
X149.955Y-76.5
X150.507Y-69.07
T3
X144.08Y-90.09
X146.62Y-90.09
X150.465Y-90.09
X153.005Y-90.09
T4
X119.44Y-73.43
X119.44Y-75.97
X120.13Y-90.605
X120.13Y-95.807
X120.13Y-101.01
X121.98Y-73.43
X121.98Y-75.97
X126.45Y-90.605
X126.45Y-95.807
X126.45Y-101.01
X126.953Y-65.805
X126.953Y-83.585
X129.493Y-65.805
X129.493Y-83.585
X130.185Y-90.605
X130.185Y-95.807
X130.185Y-101.01
X134.68Y-73.43
X134.68Y-75.97
X134.68Y-78.51
X136.51Y-90.605
X136.51Y-95.807
X136.51Y-101.01
X137.22Y-73.43
X137.22Y-75.97
X137.22Y-78.51
X140.37Y-90.115
X141.14Y-99.63
X141.99Y-80.945
X142.005Y-70.31
X142.005Y-75.627
X155.655Y-80.945
X155.67Y-70.31
X155.67Y-75.627
X156.41Y-99.635
X156.775Y-90.115
T5
X119.4Y-65.81
X119.4Y-83.59
X119.4Y-86.33
X119.4Y-104.11
X121.94Y-65.81
X121.94Y-83.59
X121.94Y-86.33
X121.94Y-104.11
X134.64Y-65.81
X134.64Y-83.59
X134.64Y-86.33
X134.64Y-104.11
X137.18Y-65.81
X137.18Y-83.59
X137.18Y-86.33
X137.18Y-104.11
X139.92Y-65.81
X139.92Y-83.59
X139.92Y-86.33
X139.92Y-104.11
X142.46Y-65.81
X142.46Y-83.59
X142.46Y-86.33
X142.46Y-104.11
X155.16Y-65.81
X155.16Y-83.59
X155.16Y-86.33
X155.16Y-104.11
X157.7Y-65.81
X157.7Y-83.59
X157.7Y-86.33
X157.7Y-104.11
T6
X145.472Y-97.36
X145.472Y-101.86
X151.972Y-97.36
X151.972Y-101.86
T0
M30
