%TF.GenerationSoftware,KiCad,Pcbnew,(6.0.7)*%
%TF.CreationDate,2022-09-26T02:54:28-06:00*%
%TF.ProjectId,HHC-MiniBadge-2022,4848432d-4d69-46e6-9942-616467652d32,v1.0*%
%TF.SameCoordinates,Original*%
%TF.FileFunction,Legend,Top*%
%TF.FilePolarity,Positive*%
%FSLAX46Y46*%
G04 Gerber Fmt 4.6, Leading zero omitted, Abs format (unit mm)*
G04 Created by KiCad (PCBNEW (6.0.7)) date 2022-09-26 02:54:28*
%MOMM*%
%LPD*%
G01*
G04 APERTURE LIST*
%ADD10C,0.200000*%
%ADD11C,0.150000*%
%ADD12C,0.120000*%
%ADD13R,1.700000X1.700000*%
%ADD14O,1.700000X1.700000*%
%ADD15C,1.778000*%
%ADD16R,1.600000X1.600000*%
%ADD17O,1.600000X1.600000*%
%ADD18C,2.000000*%
%ADD19O,1.400000X1.400000*%
%ADD20C,1.400000*%
%ADD21C,1.800000*%
%ADD22R,1.800000X1.800000*%
%ADD23C,1.600000*%
G04 APERTURE END LIST*
D10*
X146645714Y-84578571D02*
X146645714Y-83078571D01*
X146645714Y-83792857D02*
X147502857Y-83792857D01*
X147502857Y-84578571D02*
X147502857Y-83078571D01*
X148217142Y-84578571D02*
X148217142Y-83078571D01*
X148217142Y-83792857D02*
X149074285Y-83792857D01*
X149074285Y-84578571D02*
X149074285Y-83078571D01*
X150645714Y-84435714D02*
X150574285Y-84507142D01*
X150360000Y-84578571D01*
X150217142Y-84578571D01*
X150002857Y-84507142D01*
X149860000Y-84364285D01*
X149788571Y-84221428D01*
X149717142Y-83935714D01*
X149717142Y-83721428D01*
X149788571Y-83435714D01*
X149860000Y-83292857D01*
X150002857Y-83150000D01*
X150217142Y-83078571D01*
X150360000Y-83078571D01*
X150574285Y-83150000D01*
X150645714Y-83221428D01*
X126335714Y-105158571D02*
X126335714Y-103658571D01*
X126335714Y-104372857D02*
X127192857Y-104372857D01*
X127192857Y-105158571D02*
X127192857Y-103658571D01*
X127907142Y-105158571D02*
X127907142Y-103658571D01*
X127907142Y-104372857D02*
X128764285Y-104372857D01*
X128764285Y-105158571D02*
X128764285Y-103658571D01*
X130335714Y-105015714D02*
X130264285Y-105087142D01*
X130050000Y-105158571D01*
X129907142Y-105158571D01*
X129692857Y-105087142D01*
X129550000Y-104944285D01*
X129478571Y-104801428D01*
X129407142Y-104515714D01*
X129407142Y-104301428D01*
X129478571Y-104015714D01*
X129550000Y-103872857D01*
X129692857Y-103730000D01*
X129907142Y-103658571D01*
X130050000Y-103658571D01*
X130264285Y-103730000D01*
X130335714Y-103801428D01*
X146845714Y-105128571D02*
X146845714Y-103628571D01*
X146845714Y-104342857D02*
X147702857Y-104342857D01*
X147702857Y-105128571D02*
X147702857Y-103628571D01*
X148417142Y-105128571D02*
X148417142Y-103628571D01*
X148417142Y-104342857D02*
X149274285Y-104342857D01*
X149274285Y-105128571D02*
X149274285Y-103628571D01*
X150845714Y-104985714D02*
X150774285Y-105057142D01*
X150560000Y-105128571D01*
X150417142Y-105128571D01*
X150202857Y-105057142D01*
X150060000Y-104914285D01*
X149988571Y-104771428D01*
X149917142Y-104485714D01*
X149917142Y-104271428D01*
X149988571Y-103985714D01*
X150060000Y-103842857D01*
X150202857Y-103700000D01*
X150417142Y-103628571D01*
X150560000Y-103628571D01*
X150774285Y-103700000D01*
X150845714Y-103771428D01*
D11*
X150232380Y-86632380D02*
X150232380Y-85632380D01*
X150232380Y-86108571D02*
X150803809Y-86108571D01*
X150803809Y-86632380D02*
X150803809Y-85632380D01*
X151280000Y-86632380D02*
X151280000Y-85632380D01*
X152280000Y-85680000D02*
X152184761Y-85632380D01*
X152041904Y-85632380D01*
X151899047Y-85680000D01*
X151803809Y-85775238D01*
X151756190Y-85870476D01*
X151708571Y-86060952D01*
X151708571Y-86203809D01*
X151756190Y-86394285D01*
X151803809Y-86489523D01*
X151899047Y-86584761D01*
X152041904Y-86632380D01*
X152137142Y-86632380D01*
X152280000Y-86584761D01*
X152327619Y-86537142D01*
X152327619Y-86203809D01*
X152137142Y-86203809D01*
X152756190Y-86632380D02*
X152756190Y-85632380D01*
X152756190Y-86108571D02*
X153327619Y-86108571D01*
X153327619Y-86632380D02*
X153327619Y-85632380D01*
X144554285Y-86632380D02*
X144078095Y-86632380D01*
X144078095Y-85632380D01*
X145078095Y-85632380D02*
X145268571Y-85632380D01*
X145363809Y-85680000D01*
X145459047Y-85775238D01*
X145506666Y-85965714D01*
X145506666Y-86299047D01*
X145459047Y-86489523D01*
X145363809Y-86584761D01*
X145268571Y-86632380D01*
X145078095Y-86632380D01*
X144982857Y-86584761D01*
X144887619Y-86489523D01*
X144840000Y-86299047D01*
X144840000Y-85965714D01*
X144887619Y-85775238D01*
X144982857Y-85680000D01*
X145078095Y-85632380D01*
X145840000Y-85632380D02*
X146078095Y-86632380D01*
X146268571Y-85918095D01*
X146459047Y-86632380D01*
X146697142Y-85632380D01*
X156361428Y-93618571D02*
X156361428Y-92118571D01*
X156361428Y-92832857D02*
X157218571Y-92832857D01*
X157218571Y-93618571D02*
X157218571Y-92118571D01*
X140844285Y-93628571D02*
X140130000Y-93628571D01*
X140130000Y-92128571D01*
X125947619Y-81391428D02*
X126709523Y-81391428D01*
X126328571Y-81772380D02*
X126328571Y-81010476D01*
X127090476Y-80772380D02*
X127709523Y-80772380D01*
X127376190Y-81153333D01*
X127519047Y-81153333D01*
X127614285Y-81200952D01*
X127661904Y-81248571D01*
X127709523Y-81343809D01*
X127709523Y-81581904D01*
X127661904Y-81677142D01*
X127614285Y-81724761D01*
X127519047Y-81772380D01*
X127233333Y-81772380D01*
X127138095Y-81724761D01*
X127090476Y-81677142D01*
X128138095Y-81677142D02*
X128185714Y-81724761D01*
X128138095Y-81772380D01*
X128090476Y-81724761D01*
X128138095Y-81677142D01*
X128138095Y-81772380D01*
X128519047Y-80772380D02*
X129138095Y-80772380D01*
X128804761Y-81153333D01*
X128947619Y-81153333D01*
X129042857Y-81200952D01*
X129090476Y-81248571D01*
X129138095Y-81343809D01*
X129138095Y-81581904D01*
X129090476Y-81677142D01*
X129042857Y-81724761D01*
X128947619Y-81772380D01*
X128661904Y-81772380D01*
X128566666Y-81724761D01*
X128519047Y-81677142D01*
X129471428Y-81105714D02*
X129709523Y-81772380D01*
X129947619Y-81105714D01*
X127398095Y-67470000D02*
X127302857Y-67422380D01*
X127160000Y-67422380D01*
X127017142Y-67470000D01*
X126921904Y-67565238D01*
X126874285Y-67660476D01*
X126826666Y-67850952D01*
X126826666Y-67993809D01*
X126874285Y-68184285D01*
X126921904Y-68279523D01*
X127017142Y-68374761D01*
X127160000Y-68422380D01*
X127255238Y-68422380D01*
X127398095Y-68374761D01*
X127445714Y-68327142D01*
X127445714Y-67993809D01*
X127255238Y-67993809D01*
X127874285Y-68422380D02*
X127874285Y-67422380D01*
X128445714Y-68422380D01*
X128445714Y-67422380D01*
X128921904Y-68422380D02*
X128921904Y-67422380D01*
X129160000Y-67422380D01*
X129302857Y-67470000D01*
X129398095Y-67565238D01*
X129445714Y-67660476D01*
X129493333Y-67850952D01*
X129493333Y-67993809D01*
X129445714Y-68184285D01*
X129398095Y-68279523D01*
X129302857Y-68374761D01*
X129160000Y-68422380D01*
X128921904Y-68422380D01*
X132557142Y-80188571D02*
X131842857Y-80188571D01*
X131771428Y-80902857D01*
X131842857Y-80831428D01*
X131985714Y-80760000D01*
X132342857Y-80760000D01*
X132485714Y-80831428D01*
X132557142Y-80902857D01*
X132628571Y-81045714D01*
X132628571Y-81402857D01*
X132557142Y-81545714D01*
X132485714Y-81617142D01*
X132342857Y-81688571D01*
X131985714Y-81688571D01*
X131842857Y-81617142D01*
X131771428Y-81545714D01*
X124825714Y-80758571D02*
X124825714Y-81758571D01*
X124468571Y-80187142D02*
X124111428Y-81258571D01*
X125040000Y-81258571D01*
X132037142Y-68271428D02*
X131894285Y-68200000D01*
X131822857Y-68128571D01*
X131751428Y-67985714D01*
X131751428Y-67914285D01*
X131822857Y-67771428D01*
X131894285Y-67700000D01*
X132037142Y-67628571D01*
X132322857Y-67628571D01*
X132465714Y-67700000D01*
X132537142Y-67771428D01*
X132608571Y-67914285D01*
X132608571Y-67985714D01*
X132537142Y-68128571D01*
X132465714Y-68200000D01*
X132322857Y-68271428D01*
X132037142Y-68271428D01*
X131894285Y-68342857D01*
X131822857Y-68414285D01*
X131751428Y-68557142D01*
X131751428Y-68842857D01*
X131822857Y-68985714D01*
X131894285Y-69057142D01*
X132037142Y-69128571D01*
X132322857Y-69128571D01*
X132465714Y-69057142D01*
X132537142Y-68985714D01*
X132608571Y-68842857D01*
X132608571Y-68557142D01*
X132537142Y-68414285D01*
X132465714Y-68342857D01*
X132322857Y-68271428D01*
X124948571Y-69058571D02*
X124091428Y-69058571D01*
X124520000Y-69058571D02*
X124520000Y-67558571D01*
X124377142Y-67772857D01*
X124234285Y-67915714D01*
X124091428Y-67987142D01*
X141724285Y-79008571D02*
X140867142Y-79008571D01*
X141295714Y-79008571D02*
X141295714Y-77508571D01*
X141152857Y-77722857D01*
X141010000Y-77865714D01*
X140867142Y-77937142D01*
X142652857Y-77508571D02*
X142795714Y-77508571D01*
X142938571Y-77580000D01*
X143010000Y-77651428D01*
X143081428Y-77794285D01*
X143152857Y-78080000D01*
X143152857Y-78437142D01*
X143081428Y-78722857D01*
X143010000Y-78865714D01*
X142938571Y-78937142D01*
X142795714Y-79008571D01*
X142652857Y-79008571D01*
X142510000Y-78937142D01*
X142438571Y-78865714D01*
X142367142Y-78722857D01*
X142295714Y-78437142D01*
X142295714Y-78080000D01*
X142367142Y-77794285D01*
X142438571Y-77651428D01*
X142510000Y-77580000D01*
X142652857Y-77508571D01*
X141000000Y-73698571D02*
X140142857Y-73698571D01*
X140571428Y-73698571D02*
X140571428Y-72198571D01*
X140428571Y-72412857D01*
X140285714Y-72555714D01*
X140142857Y-72627142D01*
X141928571Y-72198571D02*
X142071428Y-72198571D01*
X142214285Y-72270000D01*
X142285714Y-72341428D01*
X142357142Y-72484285D01*
X142428571Y-72770000D01*
X142428571Y-73127142D01*
X142357142Y-73412857D01*
X142285714Y-73555714D01*
X142214285Y-73627142D01*
X142071428Y-73698571D01*
X141928571Y-73698571D01*
X141785714Y-73627142D01*
X141714285Y-73555714D01*
X141642857Y-73412857D01*
X141571428Y-73127142D01*
X141571428Y-72770000D01*
X141642857Y-72484285D01*
X141714285Y-72341428D01*
X141785714Y-72270000D01*
X141928571Y-72198571D01*
X143357142Y-72198571D02*
X143500000Y-72198571D01*
X143642857Y-72270000D01*
X143714285Y-72341428D01*
X143785714Y-72484285D01*
X143857142Y-72770000D01*
X143857142Y-73127142D01*
X143785714Y-73412857D01*
X143714285Y-73555714D01*
X143642857Y-73627142D01*
X143500000Y-73698571D01*
X143357142Y-73698571D01*
X143214285Y-73627142D01*
X143142857Y-73555714D01*
X143071428Y-73412857D01*
X143000000Y-73127142D01*
X143000000Y-72770000D01*
X143071428Y-72484285D01*
X143142857Y-72341428D01*
X143214285Y-72270000D01*
X143357142Y-72198571D01*
X139955714Y-68498571D02*
X139098571Y-68498571D01*
X139527142Y-68498571D02*
X139527142Y-66998571D01*
X139384285Y-67212857D01*
X139241428Y-67355714D01*
X139098571Y-67427142D01*
X140884285Y-66998571D02*
X141027142Y-66998571D01*
X141170000Y-67070000D01*
X141241428Y-67141428D01*
X141312857Y-67284285D01*
X141384285Y-67570000D01*
X141384285Y-67927142D01*
X141312857Y-68212857D01*
X141241428Y-68355714D01*
X141170000Y-68427142D01*
X141027142Y-68498571D01*
X140884285Y-68498571D01*
X140741428Y-68427142D01*
X140670000Y-68355714D01*
X140598571Y-68212857D01*
X140527142Y-67927142D01*
X140527142Y-67570000D01*
X140598571Y-67284285D01*
X140670000Y-67141428D01*
X140741428Y-67070000D01*
X140884285Y-66998571D01*
X142312857Y-66998571D02*
X142455714Y-66998571D01*
X142598571Y-67070000D01*
X142670000Y-67141428D01*
X142741428Y-67284285D01*
X142812857Y-67570000D01*
X142812857Y-67927142D01*
X142741428Y-68212857D01*
X142670000Y-68355714D01*
X142598571Y-68427142D01*
X142455714Y-68498571D01*
X142312857Y-68498571D01*
X142170000Y-68427142D01*
X142098571Y-68355714D01*
X142027142Y-68212857D01*
X141955714Y-67927142D01*
X141955714Y-67570000D01*
X142027142Y-67284285D01*
X142098571Y-67141428D01*
X142170000Y-67070000D01*
X142312857Y-66998571D01*
X143741428Y-66998571D02*
X143884285Y-66998571D01*
X144027142Y-67070000D01*
X144098571Y-67141428D01*
X144170000Y-67284285D01*
X144241428Y-67570000D01*
X144241428Y-67927142D01*
X144170000Y-68212857D01*
X144098571Y-68355714D01*
X144027142Y-68427142D01*
X143884285Y-68498571D01*
X143741428Y-68498571D01*
X143598571Y-68427142D01*
X143527142Y-68355714D01*
X143455714Y-68212857D01*
X143384285Y-67927142D01*
X143384285Y-67570000D01*
X143455714Y-67284285D01*
X143527142Y-67141428D01*
X143598571Y-67070000D01*
X143741428Y-66998571D01*
X126682857Y-99148571D02*
X125825714Y-99148571D01*
X126254285Y-99148571D02*
X126254285Y-97648571D01*
X126111428Y-97862857D01*
X125968571Y-98005714D01*
X125825714Y-98077142D01*
X127611428Y-97648571D02*
X127754285Y-97648571D01*
X127897142Y-97720000D01*
X127968571Y-97791428D01*
X128040000Y-97934285D01*
X128111428Y-98220000D01*
X128111428Y-98577142D01*
X128040000Y-98862857D01*
X127968571Y-99005714D01*
X127897142Y-99077142D01*
X127754285Y-99148571D01*
X127611428Y-99148571D01*
X127468571Y-99077142D01*
X127397142Y-99005714D01*
X127325714Y-98862857D01*
X127254285Y-98577142D01*
X127254285Y-98220000D01*
X127325714Y-97934285D01*
X127397142Y-97791428D01*
X127468571Y-97720000D01*
X127611428Y-97648571D01*
X129040000Y-97648571D02*
X129182857Y-97648571D01*
X129325714Y-97720000D01*
X129397142Y-97791428D01*
X129468571Y-97934285D01*
X129540000Y-98220000D01*
X129540000Y-98577142D01*
X129468571Y-98862857D01*
X129397142Y-99005714D01*
X129325714Y-99077142D01*
X129182857Y-99148571D01*
X129040000Y-99148571D01*
X128897142Y-99077142D01*
X128825714Y-99005714D01*
X128754285Y-98862857D01*
X128682857Y-98577142D01*
X128682857Y-98220000D01*
X128754285Y-97934285D01*
X128825714Y-97791428D01*
X128897142Y-97720000D01*
X129040000Y-97648571D01*
X130182857Y-99148571D02*
X130182857Y-97648571D01*
X130325714Y-98577142D02*
X130754285Y-99148571D01*
X130754285Y-98148571D02*
X130182857Y-98720000D01*
X127397142Y-93938571D02*
X126540000Y-93938571D01*
X126968571Y-93938571D02*
X126968571Y-92438571D01*
X126825714Y-92652857D01*
X126682857Y-92795714D01*
X126540000Y-92867142D01*
X128325714Y-92438571D02*
X128468571Y-92438571D01*
X128611428Y-92510000D01*
X128682857Y-92581428D01*
X128754285Y-92724285D01*
X128825714Y-93010000D01*
X128825714Y-93367142D01*
X128754285Y-93652857D01*
X128682857Y-93795714D01*
X128611428Y-93867142D01*
X128468571Y-93938571D01*
X128325714Y-93938571D01*
X128182857Y-93867142D01*
X128111428Y-93795714D01*
X128040000Y-93652857D01*
X127968571Y-93367142D01*
X127968571Y-93010000D01*
X128040000Y-92724285D01*
X128111428Y-92581428D01*
X128182857Y-92510000D01*
X128325714Y-92438571D01*
X129468571Y-93938571D02*
X129468571Y-92438571D01*
X129611428Y-93367142D02*
X130040000Y-93938571D01*
X130040000Y-92938571D02*
X129468571Y-93510000D01*
X128111428Y-88728571D02*
X127254285Y-88728571D01*
X127682857Y-88728571D02*
X127682857Y-87228571D01*
X127540000Y-87442857D01*
X127397142Y-87585714D01*
X127254285Y-87657142D01*
X128754285Y-88728571D02*
X128754285Y-87228571D01*
X128897142Y-88157142D02*
X129325714Y-88728571D01*
X129325714Y-87728571D02*
X128754285Y-88300000D01*
D12*
%TO.C,J29*%
X128222500Y-67135000D02*
X130822500Y-67135000D01*
X128222500Y-64475000D02*
X130822500Y-64475000D01*
X128222500Y-67135000D02*
X128222500Y-64475000D01*
X125622500Y-65805000D02*
X125622500Y-64475000D01*
X125622500Y-64475000D02*
X126952500Y-64475000D01*
X130822500Y-67135000D02*
X130822500Y-64475000D01*
%TO.C,J28*%
X128222500Y-84915000D02*
X130822500Y-84915000D01*
X128222500Y-82255000D02*
X130822500Y-82255000D01*
X128222500Y-84915000D02*
X128222500Y-82255000D01*
X125622500Y-83585000D02*
X125622500Y-82255000D01*
X125622500Y-82255000D02*
X126952500Y-82255000D01*
X130822500Y-84915000D02*
X130822500Y-82255000D01*
%TO.C,J5*%
X135950000Y-77300000D02*
X138550000Y-77300000D01*
X135950000Y-74640000D02*
X138550000Y-74640000D01*
X135950000Y-77300000D02*
X135950000Y-74640000D01*
X133350000Y-75970000D02*
X133350000Y-74640000D01*
X133350000Y-74640000D02*
X134680000Y-74640000D01*
X138550000Y-77300000D02*
X138550000Y-74640000D01*
D11*
%TO.C,U5*%
X138650000Y-84860000D02*
X158970000Y-84860000D01*
X158970000Y-84860000D02*
X158970000Y-64540000D01*
X138650000Y-64540000D02*
X138650000Y-84860000D01*
X158970000Y-64540000D02*
X138650000Y-64540000D01*
%TO.C,U4*%
X138450000Y-85060000D02*
X118130000Y-85060000D01*
X118130000Y-85060000D02*
X118130000Y-105380000D01*
X138450000Y-105380000D02*
X138450000Y-85060000D01*
X118130000Y-105380000D02*
X138450000Y-105380000D01*
%TO.C,U3*%
X158970000Y-85060000D02*
X138650000Y-85060000D01*
X138650000Y-85060000D02*
X138650000Y-105380000D01*
X158970000Y-105380000D02*
X158970000Y-85060000D01*
X138650000Y-105380000D02*
X158970000Y-105380000D01*
%TO.C,U2*%
X118130000Y-84860000D02*
X138450000Y-84860000D01*
X138450000Y-84860000D02*
X138450000Y-64540000D01*
X118130000Y-64540000D02*
X118130000Y-84860000D01*
X138450000Y-64540000D02*
X118130000Y-64540000D01*
D12*
%TO.C,U1*%
X130980000Y-69560000D02*
X129330000Y-69560000D01*
X125680000Y-69560000D02*
X125680000Y-79840000D01*
X130980000Y-79840000D02*
X130980000Y-69560000D01*
X127330000Y-69560000D02*
X125680000Y-69560000D01*
X125680000Y-79840000D02*
X130980000Y-79840000D01*
X127330000Y-69560000D02*
G75*
G03*
X129330000Y-69560000I1000000J0D01*
G01*
%TO.C,SW1*%
X146472500Y-102860000D02*
X150972500Y-102860000D01*
X152222500Y-100360000D02*
X152222500Y-98860000D01*
X145222500Y-98860000D02*
X145222500Y-100360000D01*
X150972500Y-96360000D02*
X146472500Y-96360000D01*
%TO.C,R8*%
X151440000Y-94400000D02*
G75*
G03*
X151440000Y-94400000I-920000J0D01*
G01*
X151440000Y-94400000D02*
X152060000Y-94400000D01*
%TO.C,R7*%
X147480000Y-94390000D02*
G75*
G03*
X147480000Y-94390000I-920000J0D01*
G01*
X145640000Y-94390000D02*
X145020000Y-94390000D01*
%TO.C,R6*%
X133322500Y-90410000D02*
X133322500Y-89790000D01*
X134242500Y-91330000D02*
G75*
G03*
X134242500Y-91330000I-920000J0D01*
G01*
%TO.C,R5*%
X123265278Y-95612500D02*
X123265278Y-94992500D01*
X124185278Y-96532500D02*
G75*
G03*
X124185278Y-96532500I-920000J0D01*
G01*
%TO.C,R4*%
X124185278Y-101735000D02*
G75*
G03*
X124185278Y-101735000I-920000J0D01*
G01*
X123265278Y-100815000D02*
X123265278Y-100195000D01*
%TO.C,R3*%
X123265278Y-90410000D02*
X123265278Y-89790000D01*
X124185278Y-91330000D02*
G75*
G03*
X124185278Y-91330000I-920000J0D01*
G01*
%TO.C,R2*%
X133322500Y-95612500D02*
X133322500Y-94992500D01*
X134242500Y-96532500D02*
G75*
G03*
X134242500Y-96532500I-920000J0D01*
G01*
%TO.C,R1*%
X134242500Y-101735000D02*
G75*
G03*
X134242500Y-101735000I-920000J0D01*
G01*
X133322500Y-100815000D02*
X133322500Y-100195000D01*
%TO.C,J27*%
X156775000Y-88785000D02*
X158105000Y-88785000D01*
X158105000Y-88785000D02*
X158105000Y-90115000D01*
X158105000Y-91325000D02*
X158105000Y-91445000D01*
X155445000Y-91445000D02*
X158105000Y-91445000D01*
X155445000Y-91325000D02*
X155445000Y-91445000D01*
%TO.C,J26*%
X140370000Y-88785000D02*
X141700000Y-88785000D01*
X141700000Y-88785000D02*
X141700000Y-90115000D01*
X141700000Y-91325000D02*
X141700000Y-91445000D01*
X139040000Y-91445000D02*
X141700000Y-91445000D01*
X139040000Y-91325000D02*
X139040000Y-91445000D01*
%TO.C,J25*%
X156410000Y-98305000D02*
X157740000Y-98305000D01*
X157740000Y-98305000D02*
X157740000Y-99635000D01*
X157740000Y-100845000D02*
X157740000Y-100965000D01*
X155080000Y-100965000D02*
X157740000Y-100965000D01*
X155080000Y-100845000D02*
X155080000Y-100965000D01*
%TO.C,J24*%
X141140000Y-98300000D02*
X142470000Y-98300000D01*
X142470000Y-98300000D02*
X142470000Y-99630000D01*
X142470000Y-100840000D02*
X142470000Y-100960000D01*
X139810000Y-100960000D02*
X142470000Y-100960000D01*
X139810000Y-100840000D02*
X139810000Y-100960000D01*
%TO.C,J23*%
X135180000Y-91815000D02*
X135180000Y-91935000D01*
X135180000Y-91935000D02*
X137840000Y-91935000D01*
X137840000Y-91815000D02*
X137840000Y-91935000D01*
X137840000Y-89275000D02*
X137840000Y-90605000D01*
X136510000Y-89275000D02*
X137840000Y-89275000D01*
%TO.C,J22*%
X125120000Y-97017500D02*
X125120000Y-97137500D01*
X125120000Y-97137500D02*
X127780000Y-97137500D01*
X127780000Y-97017500D02*
X127780000Y-97137500D01*
X127780000Y-94477500D02*
X127780000Y-95807500D01*
X126450000Y-94477500D02*
X127780000Y-94477500D01*
%TO.C,J21*%
X126450000Y-99680000D02*
X127780000Y-99680000D01*
X127780000Y-99680000D02*
X127780000Y-101010000D01*
X127780000Y-102220000D02*
X127780000Y-102340000D01*
X125120000Y-102340000D02*
X127780000Y-102340000D01*
X125120000Y-102220000D02*
X125120000Y-102340000D01*
%TO.C,J20*%
X130185000Y-89275000D02*
X131515000Y-89275000D01*
X131515000Y-89275000D02*
X131515000Y-90605000D01*
X131515000Y-91815000D02*
X131515000Y-91935000D01*
X128855000Y-91935000D02*
X131515000Y-91935000D01*
X128855000Y-91815000D02*
X128855000Y-91935000D01*
%TO.C,J19*%
X118800278Y-97017500D02*
X118800278Y-97137500D01*
X118800278Y-97137500D02*
X121460278Y-97137500D01*
X121460278Y-97017500D02*
X121460278Y-97137500D01*
X121460278Y-94477500D02*
X121460278Y-95807500D01*
X120130278Y-94477500D02*
X121460278Y-94477500D01*
%TO.C,J18*%
X120130278Y-99680000D02*
X121460278Y-99680000D01*
X121460278Y-99680000D02*
X121460278Y-101010000D01*
X121460278Y-102220000D02*
X121460278Y-102340000D01*
X118800278Y-102340000D02*
X121460278Y-102340000D01*
X118800278Y-102220000D02*
X118800278Y-102340000D01*
%TO.C,J17*%
X126450000Y-89275000D02*
X127780000Y-89275000D01*
X127780000Y-89275000D02*
X127780000Y-90605000D01*
X127780000Y-91815000D02*
X127780000Y-91935000D01*
X125120000Y-91935000D02*
X127780000Y-91935000D01*
X125120000Y-91815000D02*
X125120000Y-91935000D01*
%TO.C,J16*%
X135180000Y-97017500D02*
X135180000Y-97137500D01*
X135180000Y-97137500D02*
X137840000Y-97137500D01*
X137840000Y-97017500D02*
X137840000Y-97137500D01*
X137840000Y-94477500D02*
X137840000Y-95807500D01*
X136510000Y-94477500D02*
X137840000Y-94477500D01*
%TO.C,J15*%
X136510000Y-99680000D02*
X137840000Y-99680000D01*
X137840000Y-99680000D02*
X137840000Y-101010000D01*
X137840000Y-102220000D02*
X137840000Y-102340000D01*
X135180000Y-102340000D02*
X137840000Y-102340000D01*
X135180000Y-102220000D02*
X135180000Y-102340000D01*
%TO.C,J14*%
X120130278Y-89275000D02*
X121460278Y-89275000D01*
X121460278Y-89275000D02*
X121460278Y-90605000D01*
X121460278Y-91815000D02*
X121460278Y-91935000D01*
X118800278Y-91935000D02*
X121460278Y-91935000D01*
X118800278Y-91815000D02*
X118800278Y-91935000D01*
%TO.C,J13*%
X128855000Y-97017500D02*
X128855000Y-97137500D01*
X128855000Y-97137500D02*
X131515000Y-97137500D01*
X131515000Y-97017500D02*
X131515000Y-97137500D01*
X131515000Y-94477500D02*
X131515000Y-95807500D01*
X130185000Y-94477500D02*
X131515000Y-94477500D01*
%TO.C,J12*%
X130185000Y-99680000D02*
X131515000Y-99680000D01*
X131515000Y-99680000D02*
X131515000Y-101010000D01*
X131515000Y-102220000D02*
X131515000Y-102340000D01*
X128855000Y-102340000D02*
X131515000Y-102340000D01*
X128855000Y-102220000D02*
X128855000Y-102340000D01*
%TO.C,J11*%
X154325000Y-82155000D02*
X154325000Y-82275000D01*
X154325000Y-82275000D02*
X156985000Y-82275000D01*
X156985000Y-82155000D02*
X156985000Y-82275000D01*
X156985000Y-79615000D02*
X156985000Y-80945000D01*
X155655000Y-79615000D02*
X156985000Y-79615000D01*
%TO.C,J10*%
X154340000Y-76837500D02*
X154340000Y-76957500D01*
X154340000Y-76957500D02*
X157000000Y-76957500D01*
X157000000Y-76837500D02*
X157000000Y-76957500D01*
X157000000Y-74297500D02*
X157000000Y-75627500D01*
X155670000Y-74297500D02*
X157000000Y-74297500D01*
%TO.C,J9*%
X154340000Y-71520000D02*
X154340000Y-71640000D01*
X154340000Y-71640000D02*
X157000000Y-71640000D01*
X157000000Y-71520000D02*
X157000000Y-71640000D01*
X157000000Y-68980000D02*
X157000000Y-70310000D01*
X155670000Y-68980000D02*
X157000000Y-68980000D01*
%TO.C,J8*%
X140660000Y-82155000D02*
X140660000Y-82275000D01*
X140660000Y-82275000D02*
X143320000Y-82275000D01*
X143320000Y-82155000D02*
X143320000Y-82275000D01*
X143320000Y-79615000D02*
X143320000Y-80945000D01*
X141990000Y-79615000D02*
X143320000Y-79615000D01*
%TO.C,J7*%
X140675000Y-76837500D02*
X140675000Y-76957500D01*
X140675000Y-76957500D02*
X143335000Y-76957500D01*
X143335000Y-76837500D02*
X143335000Y-76957500D01*
X143335000Y-74297500D02*
X143335000Y-75627500D01*
X142005000Y-74297500D02*
X143335000Y-74297500D01*
%TO.C,J6*%
X142005000Y-68980000D02*
X143335000Y-68980000D01*
X143335000Y-68980000D02*
X143335000Y-70310000D01*
X143335000Y-71520000D02*
X143335000Y-71640000D01*
X140675000Y-71640000D02*
X143335000Y-71640000D01*
X140675000Y-71520000D02*
X140675000Y-71640000D01*
%TO.C,J4*%
X135950000Y-74760000D02*
X138550000Y-74760000D01*
X135950000Y-72100000D02*
X138550000Y-72100000D01*
X135950000Y-74760000D02*
X135950000Y-72100000D01*
X133350000Y-73430000D02*
X133350000Y-72100000D01*
X133350000Y-72100000D02*
X134680000Y-72100000D01*
X138550000Y-74760000D02*
X138550000Y-72100000D01*
%TO.C,J3*%
X120710000Y-77300000D02*
X123310000Y-77300000D01*
X120710000Y-74640000D02*
X123310000Y-74640000D01*
X120710000Y-77300000D02*
X120710000Y-74640000D01*
X118110000Y-75970000D02*
X118110000Y-74640000D01*
X118110000Y-74640000D02*
X119440000Y-74640000D01*
X123310000Y-77300000D02*
X123310000Y-74640000D01*
%TO.C,J2*%
X135950000Y-79840000D02*
X138550000Y-79840000D01*
X135950000Y-77180000D02*
X138550000Y-77180000D01*
X135950000Y-79840000D02*
X135950000Y-77180000D01*
X133350000Y-78510000D02*
X133350000Y-77180000D01*
X133350000Y-77180000D02*
X134680000Y-77180000D01*
X138550000Y-79840000D02*
X138550000Y-77180000D01*
%TO.C,J1*%
X120710000Y-74760000D02*
X123310000Y-74760000D01*
X120710000Y-72100000D02*
X123310000Y-72100000D01*
X120710000Y-74760000D02*
X120710000Y-72100000D01*
X118110000Y-73430000D02*
X118110000Y-72100000D01*
X118110000Y-72100000D02*
X119440000Y-72100000D01*
X123310000Y-74760000D02*
X123310000Y-72100000D01*
%TO.C,D2*%
X154235000Y-90090000D02*
G75*
G03*
X154235000Y-90090000I-2500000J0D01*
G01*
X154725000Y-90090462D02*
G75*
G03*
X149175000Y-88545170I-2990000J462D01*
G01*
X149175000Y-91634830D02*
G75*
G03*
X154725000Y-90089538I2560000J1544830D01*
G01*
X149175000Y-88545000D02*
X149175000Y-91635000D01*
%TO.C,D1*%
X147850000Y-90090000D02*
G75*
G03*
X147850000Y-90090000I-2500000J0D01*
G01*
X142360000Y-90089538D02*
G75*
G03*
X147910000Y-91634830I2990000J-462D01*
G01*
X147910000Y-88545170D02*
G75*
G03*
X142360000Y-90090462I-2560000J-1544830D01*
G01*
X147910000Y-91635000D02*
X147910000Y-88545000D01*
%TO.C,C3*%
X146040000Y-80040000D02*
X146040000Y-82780000D01*
X146040000Y-80040000D02*
X151280000Y-80040000D01*
X151280000Y-80040000D02*
X151280000Y-82780000D01*
X146040000Y-82780000D02*
X151280000Y-82780000D01*
%TO.C,C2*%
X149785888Y-77540000D02*
X149785888Y-78848000D01*
X150665888Y-74801000D02*
X150665888Y-75460000D01*
X150945888Y-75181000D02*
X150945888Y-75460000D01*
X150905888Y-75117000D02*
X150905888Y-75460000D01*
X149184888Y-77540000D02*
X149184888Y-79036000D01*
X149985888Y-74253000D02*
X149985888Y-75460000D01*
X148704888Y-73920000D02*
X148704888Y-79080000D01*
X149865888Y-77540000D02*
X149865888Y-78810000D01*
X150545888Y-77540000D02*
X150545888Y-78326000D01*
X150145888Y-77540000D02*
X150145888Y-78649000D01*
X149425888Y-77540000D02*
X149425888Y-78980000D01*
X150185888Y-77540000D02*
X150185888Y-78622000D01*
X150865888Y-75057000D02*
X150865888Y-75460000D01*
X148784888Y-73921000D02*
X148784888Y-79079000D01*
X150305888Y-74465000D02*
X150305888Y-75460000D01*
X151265888Y-75982000D02*
X151265888Y-77018000D01*
X149505888Y-74045000D02*
X149505888Y-75460000D01*
X150025888Y-74276000D02*
X150025888Y-75460000D01*
X149825888Y-77540000D02*
X149825888Y-78829000D01*
X150625888Y-77540000D02*
X150625888Y-78243000D01*
X150345888Y-77540000D02*
X150345888Y-78504000D01*
X150945888Y-77540000D02*
X150945888Y-77819000D01*
X150985888Y-77540000D02*
X150985888Y-77751000D01*
X150505888Y-77540000D02*
X150505888Y-78364000D01*
X149264888Y-77540000D02*
X149264888Y-79020000D01*
X149184888Y-73964000D02*
X149184888Y-75460000D01*
X149425888Y-74020000D02*
X149425888Y-75460000D01*
X149625888Y-74086000D02*
X149625888Y-75460000D01*
X149384888Y-77540000D02*
X149384888Y-78991000D01*
X151225888Y-75823000D02*
X151225888Y-77177000D01*
X150105888Y-74325000D02*
X150105888Y-75460000D01*
X149465888Y-77540000D02*
X149465888Y-78968000D01*
X150585888Y-74715000D02*
X150585888Y-75460000D01*
X150865888Y-77540000D02*
X150865888Y-77943000D01*
X150425888Y-74563000D02*
X150425888Y-75460000D01*
X150145888Y-74351000D02*
X150145888Y-75460000D01*
X149825888Y-74171000D02*
X149825888Y-75460000D01*
X149064888Y-77540000D02*
X149064888Y-79056000D01*
X150905888Y-77540000D02*
X150905888Y-77883000D01*
X149304888Y-73989000D02*
X149304888Y-75460000D01*
X151065888Y-75402000D02*
X151065888Y-77598000D01*
X150625888Y-74757000D02*
X150625888Y-75460000D01*
X148944888Y-77540000D02*
X148944888Y-79069000D01*
X149224888Y-77540000D02*
X149224888Y-79028000D01*
X149144888Y-73957000D02*
X149144888Y-75460000D01*
X148864888Y-73924000D02*
X148864888Y-79076000D01*
X150225888Y-74405000D02*
X150225888Y-75460000D01*
X149945888Y-77540000D02*
X149945888Y-78768000D01*
X149705888Y-74118000D02*
X149705888Y-75460000D01*
X149344888Y-77540000D02*
X149344888Y-79001000D01*
X149224888Y-73972000D02*
X149224888Y-75460000D01*
X148744888Y-73920000D02*
X148744888Y-79080000D01*
X149745888Y-74135000D02*
X149745888Y-75460000D01*
X150705888Y-77540000D02*
X150705888Y-78153000D01*
X149344888Y-73999000D02*
X149344888Y-75460000D01*
X149024888Y-73939000D02*
X149024888Y-75460000D01*
X150065888Y-74300000D02*
X150065888Y-75460000D01*
X150305888Y-77540000D02*
X150305888Y-78535000D01*
X150545888Y-74674000D02*
X150545888Y-75460000D01*
X149104888Y-77540000D02*
X149104888Y-79050000D01*
X149545888Y-74058000D02*
X149545888Y-75460000D01*
X149264888Y-73980000D02*
X149264888Y-75460000D01*
X149104888Y-73950000D02*
X149104888Y-75460000D01*
X150105888Y-77540000D02*
X150105888Y-78675000D01*
X149665888Y-77540000D02*
X149665888Y-78898000D01*
X148824888Y-73922000D02*
X148824888Y-79078000D01*
X148904888Y-73927000D02*
X148904888Y-79073000D01*
X148944888Y-73931000D02*
X148944888Y-75460000D01*
X149304888Y-77540000D02*
X149304888Y-79011000D01*
X150585888Y-77540000D02*
X150585888Y-78285000D01*
X149905888Y-74210000D02*
X149905888Y-75460000D01*
X150265888Y-74435000D02*
X150265888Y-75460000D01*
X149745888Y-77540000D02*
X149745888Y-78865000D01*
X150705888Y-74847000D02*
X150705888Y-75460000D01*
X149064888Y-73944000D02*
X149064888Y-75460000D01*
X150425888Y-77540000D02*
X150425888Y-78437000D01*
X149545888Y-77540000D02*
X149545888Y-78942000D01*
X150265888Y-77540000D02*
X150265888Y-78565000D01*
X149985888Y-77540000D02*
X149985888Y-78747000D01*
X150465888Y-77540000D02*
X150465888Y-78401000D01*
X149505888Y-77540000D02*
X149505888Y-78955000D01*
X150025888Y-77540000D02*
X150025888Y-78724000D01*
X149665888Y-74102000D02*
X149665888Y-75460000D01*
X145900113Y-75025000D02*
X146400113Y-75025000D01*
X150745888Y-77540000D02*
X150745888Y-78105000D01*
X151185888Y-75695000D02*
X151185888Y-77305000D01*
X150985888Y-75249000D02*
X150985888Y-75460000D01*
X149585888Y-77540000D02*
X149585888Y-78928000D01*
X148984888Y-77540000D02*
X148984888Y-79065000D01*
X151305888Y-76216000D02*
X151305888Y-76784000D01*
X149585888Y-74072000D02*
X149585888Y-75460000D01*
X151105888Y-75489000D02*
X151105888Y-77511000D01*
X149705888Y-77540000D02*
X149705888Y-78882000D01*
X150345888Y-74496000D02*
X150345888Y-75460000D01*
X150825888Y-75000000D02*
X150825888Y-75460000D01*
X151025888Y-75322000D02*
X151025888Y-77678000D01*
X150185888Y-74378000D02*
X150185888Y-75460000D01*
X150065888Y-77540000D02*
X150065888Y-78700000D01*
X149625888Y-77540000D02*
X149625888Y-78914000D01*
X146150113Y-74775000D02*
X146150113Y-75275000D01*
X149785888Y-74152000D02*
X149785888Y-75460000D01*
X150385888Y-74529000D02*
X150385888Y-75460000D01*
X149384888Y-74009000D02*
X149384888Y-75460000D01*
X150225888Y-77540000D02*
X150225888Y-78595000D01*
X149024888Y-77540000D02*
X149024888Y-79061000D01*
X149905888Y-77540000D02*
X149905888Y-78790000D01*
X149945888Y-74232000D02*
X149945888Y-75460000D01*
X150785888Y-74946000D02*
X150785888Y-75460000D01*
X149865888Y-74190000D02*
X149865888Y-75460000D01*
X150785888Y-77540000D02*
X150785888Y-78054000D01*
X151145888Y-75585000D02*
X151145888Y-77415000D01*
X150385888Y-77540000D02*
X150385888Y-78471000D01*
X148984888Y-73935000D02*
X148984888Y-75460000D01*
X150825888Y-77540000D02*
X150825888Y-78000000D01*
X150465888Y-74599000D02*
X150465888Y-75460000D01*
X149144888Y-77540000D02*
X149144888Y-79043000D01*
X150745888Y-74895000D02*
X150745888Y-75460000D01*
X149465888Y-74032000D02*
X149465888Y-75460000D01*
X150665888Y-77540000D02*
X150665888Y-78199000D01*
X150505888Y-74636000D02*
X150505888Y-75460000D01*
X151324888Y-76500000D02*
G75*
G03*
X151324888Y-76500000I-2620000J0D01*
G01*
%TO.C,C1*%
X151598349Y-66125000D02*
X151598349Y-72015000D01*
X149317349Y-65028000D02*
X149317349Y-73112000D01*
X149598349Y-70110000D02*
X149598349Y-73064000D01*
X148957349Y-64994000D02*
X148957349Y-73146000D01*
X149157349Y-65009000D02*
X149157349Y-73131000D01*
X150038349Y-70110000D02*
X150038349Y-72947000D01*
X152158349Y-66783000D02*
X152158349Y-71357000D01*
X150118349Y-65220000D02*
X150118349Y-68030000D01*
X149798349Y-65123000D02*
X149798349Y-68030000D01*
X152518349Y-67425000D02*
X152518349Y-70715000D01*
X151998349Y-66565000D02*
X151998349Y-71575000D01*
X148917349Y-64993000D02*
X148917349Y-73147000D01*
X150798349Y-70110000D02*
X150798349Y-72610000D01*
X149718349Y-70110000D02*
X149718349Y-73037000D01*
X150318349Y-70110000D02*
X150318349Y-72844000D01*
X151638349Y-66163000D02*
X151638349Y-71977000D01*
X150518349Y-65384000D02*
X150518349Y-68030000D01*
X150398349Y-65330000D02*
X150398349Y-68030000D01*
X151838349Y-66373000D02*
X151838349Y-71767000D01*
X149558349Y-65068000D02*
X149558349Y-68030000D01*
X149518349Y-70110000D02*
X149518349Y-73080000D01*
X151038349Y-65678000D02*
X151038349Y-68030000D01*
X150278349Y-65280000D02*
X150278349Y-68030000D01*
X149958349Y-70110000D02*
X149958349Y-72972000D01*
X149998349Y-65181000D02*
X149998349Y-68030000D01*
X149718349Y-65103000D02*
X149718349Y-68030000D01*
X150878349Y-70110000D02*
X150878349Y-72563000D01*
X151958349Y-66514000D02*
X151958349Y-71626000D01*
X152438349Y-67257000D02*
X152438349Y-70883000D01*
X149518349Y-65060000D02*
X149518349Y-68030000D01*
X149397349Y-65040000D02*
X149397349Y-73100000D01*
X148797349Y-64990000D02*
X148797349Y-73150000D01*
X150918349Y-65601000D02*
X150918349Y-68030000D01*
X149838349Y-65134000D02*
X149838349Y-68030000D01*
X150078349Y-70110000D02*
X150078349Y-72933000D01*
X151718349Y-66244000D02*
X151718349Y-71896000D01*
X152238349Y-66904000D02*
X152238349Y-71236000D01*
X151398349Y-65946000D02*
X151398349Y-68030000D01*
X151278349Y-70110000D02*
X151278349Y-72290000D01*
X149117349Y-65005000D02*
X149117349Y-73135000D01*
X152678349Y-67841000D02*
X152678349Y-70299000D01*
X150718349Y-70110000D02*
X150718349Y-72654000D01*
X149678349Y-65094000D02*
X149678349Y-68030000D01*
X144747651Y-66355000D02*
X144747651Y-67155000D01*
X149878349Y-65145000D02*
X149878349Y-68030000D01*
X149558349Y-70110000D02*
X149558349Y-73072000D01*
X149758349Y-65113000D02*
X149758349Y-68030000D01*
X150438349Y-70110000D02*
X150438349Y-72792000D01*
X150998349Y-70110000D02*
X150998349Y-72488000D01*
X149037349Y-64999000D02*
X149037349Y-73141000D01*
X150158349Y-65235000D02*
X150158349Y-68030000D01*
X150678349Y-65464000D02*
X150678349Y-68030000D01*
X150558349Y-70110000D02*
X150558349Y-72736000D01*
X151318349Y-70110000D02*
X151318349Y-72259000D01*
X149918349Y-70110000D02*
X149918349Y-72984000D01*
X149598349Y-65076000D02*
X149598349Y-68030000D01*
X150678349Y-70110000D02*
X150678349Y-72676000D01*
X151878349Y-66419000D02*
X151878349Y-71721000D01*
X150398349Y-70110000D02*
X150398349Y-72810000D01*
X149998349Y-70110000D02*
X149998349Y-72959000D01*
X151078349Y-70110000D02*
X151078349Y-72435000D01*
X149478349Y-70110000D02*
X149478349Y-73087000D01*
X150758349Y-70110000D02*
X150758349Y-72632000D01*
X151358349Y-70110000D02*
X151358349Y-72226000D01*
X151478349Y-70110000D02*
X151478349Y-72125000D01*
X151798349Y-66329000D02*
X151798349Y-71811000D01*
X150838349Y-65553000D02*
X150838349Y-68030000D01*
X150158349Y-70110000D02*
X150158349Y-72905000D01*
X150798349Y-65530000D02*
X150798349Y-68030000D01*
X151398349Y-70110000D02*
X151398349Y-72194000D01*
X151518349Y-66051000D02*
X151518349Y-68030000D01*
X149277349Y-65022000D02*
X149277349Y-73118000D01*
X150478349Y-70110000D02*
X150478349Y-72774000D01*
X150278349Y-70110000D02*
X150278349Y-72860000D01*
X151118349Y-65732000D02*
X151118349Y-68030000D01*
X149437349Y-65046000D02*
X149437349Y-73094000D01*
X149638349Y-70110000D02*
X149638349Y-73055000D01*
X151438349Y-65980000D02*
X151438349Y-68030000D01*
X152358349Y-67106000D02*
X152358349Y-71034000D01*
X152278349Y-66968000D02*
X152278349Y-71172000D01*
X152838349Y-68537000D02*
X152838349Y-69603000D01*
X152078349Y-66670000D02*
X152078349Y-71470000D01*
X151038349Y-70110000D02*
X151038349Y-72462000D01*
X151198349Y-65790000D02*
X151198349Y-68030000D01*
X150078349Y-65207000D02*
X150078349Y-68030000D01*
X152318349Y-67036000D02*
X152318349Y-71104000D01*
X150838349Y-70110000D02*
X150838349Y-72587000D01*
X150758349Y-65508000D02*
X150758349Y-68030000D01*
X148877349Y-64991000D02*
X148877349Y-73149000D01*
X150198349Y-70110000D02*
X150198349Y-72891000D01*
X151558349Y-66087000D02*
X151558349Y-72053000D01*
X151518349Y-70110000D02*
X151518349Y-72089000D01*
X151438349Y-70110000D02*
X151438349Y-72160000D01*
X150638349Y-70110000D02*
X150638349Y-72697000D01*
X148997349Y-64996000D02*
X148997349Y-73144000D01*
X151758349Y-66286000D02*
X151758349Y-71854000D01*
X151478349Y-66015000D02*
X151478349Y-68030000D01*
X150478349Y-65366000D02*
X150478349Y-68030000D01*
X150198349Y-65249000D02*
X150198349Y-68030000D01*
X151118349Y-70110000D02*
X151118349Y-72408000D01*
X149838349Y-70110000D02*
X149838349Y-73006000D01*
X150038349Y-65193000D02*
X150038349Y-68030000D01*
X150438349Y-65348000D02*
X150438349Y-68030000D01*
X151198349Y-70110000D02*
X151198349Y-72350000D01*
X150878349Y-65577000D02*
X150878349Y-68030000D01*
X149758349Y-70110000D02*
X149758349Y-73027000D01*
X144347651Y-66755000D02*
X145147651Y-66755000D01*
X152798349Y-68302000D02*
X152798349Y-69838000D01*
X150238349Y-70110000D02*
X150238349Y-72875000D01*
X149958349Y-65168000D02*
X149958349Y-68030000D01*
X149798349Y-70110000D02*
X149798349Y-73017000D01*
X151678349Y-66203000D02*
X151678349Y-71937000D01*
X149638349Y-65085000D02*
X149638349Y-68030000D01*
X152398349Y-67180000D02*
X152398349Y-70960000D01*
X151238349Y-70110000D02*
X151238349Y-72320000D01*
X151078349Y-65705000D02*
X151078349Y-68030000D01*
X150718349Y-65486000D02*
X150718349Y-68030000D01*
X149878349Y-70110000D02*
X149878349Y-72995000D01*
X150358349Y-70110000D02*
X150358349Y-72827000D01*
X152118349Y-66725000D02*
X152118349Y-71415000D01*
X150958349Y-70110000D02*
X150958349Y-72514000D01*
X150558349Y-65404000D02*
X150558349Y-68030000D01*
X151318349Y-65881000D02*
X151318349Y-68030000D01*
X151278349Y-65850000D02*
X151278349Y-68030000D01*
X150318349Y-65296000D02*
X150318349Y-68030000D01*
X150638349Y-65443000D02*
X150638349Y-68030000D01*
X152558349Y-67518000D02*
X152558349Y-70622000D01*
X148757349Y-64990000D02*
X148757349Y-73150000D01*
X150918349Y-70110000D02*
X150918349Y-72539000D01*
X150238349Y-65265000D02*
X150238349Y-68030000D01*
X149678349Y-70110000D02*
X149678349Y-73046000D01*
X149237349Y-65018000D02*
X149237349Y-73122000D01*
X149478349Y-65053000D02*
X149478349Y-68030000D01*
X150998349Y-65652000D02*
X150998349Y-68030000D01*
X151358349Y-65914000D02*
X151358349Y-68030000D01*
X152198349Y-66842000D02*
X152198349Y-71298000D01*
X151238349Y-65820000D02*
X151238349Y-68030000D01*
X152638349Y-67724000D02*
X152638349Y-70416000D01*
X150118349Y-70110000D02*
X150118349Y-72920000D01*
X148837349Y-64990000D02*
X148837349Y-73150000D01*
X151918349Y-66466000D02*
X151918349Y-71674000D01*
X149357349Y-65033000D02*
X149357349Y-73107000D01*
X150598349Y-65423000D02*
X150598349Y-68030000D01*
X151158349Y-65761000D02*
X151158349Y-68030000D01*
X152718349Y-67972000D02*
X152718349Y-70168000D01*
X152478349Y-67339000D02*
X152478349Y-70801000D01*
X149077349Y-65002000D02*
X149077349Y-73138000D01*
X152598349Y-67617000D02*
X152598349Y-70523000D01*
X150598349Y-70110000D02*
X150598349Y-72717000D01*
X150958349Y-65626000D02*
X150958349Y-68030000D01*
X150358349Y-65313000D02*
X150358349Y-68030000D01*
X150518349Y-70110000D02*
X150518349Y-72756000D01*
X149197349Y-65013000D02*
X149197349Y-73127000D01*
X152758349Y-68122000D02*
X152758349Y-70018000D01*
X152038349Y-66616000D02*
X152038349Y-71524000D01*
X149918349Y-65156000D02*
X149918349Y-68030000D01*
X151158349Y-70110000D02*
X151158349Y-72379000D01*
X152877349Y-69070000D02*
G75*
G03*
X152877349Y-69070000I-4120000J0D01*
G01*
%TD*%
%LPC*%
D13*
%TO.C,J29*%
X126952500Y-65805000D03*
D14*
X129492500Y-65805000D03*
%TD*%
D13*
%TO.C,J28*%
X126952500Y-83585000D03*
D14*
X129492500Y-83585000D03*
%TD*%
D13*
%TO.C,J5*%
X134680000Y-75970000D03*
D14*
X137220000Y-75970000D03*
%TD*%
D15*
%TO.C,U5*%
X139920000Y-65810000D03*
X142460000Y-65810000D03*
X155160000Y-65810000D03*
X157700000Y-65810000D03*
X139920000Y-83590000D03*
X142460000Y-83590000D03*
X155160000Y-83590000D03*
X157700000Y-83590000D03*
%TD*%
%TO.C,U4*%
X137180000Y-104110000D03*
X134640000Y-104110000D03*
X121940000Y-104110000D03*
X119400000Y-104110000D03*
X137180000Y-86330000D03*
X134640000Y-86330000D03*
X121940000Y-86330000D03*
X119400000Y-86330000D03*
%TD*%
%TO.C,U3*%
X157700000Y-104110000D03*
X155160000Y-104110000D03*
X142460000Y-104110000D03*
X139920000Y-104110000D03*
X157700000Y-86330000D03*
X155160000Y-86330000D03*
X142460000Y-86330000D03*
X139920000Y-86330000D03*
%TD*%
%TO.C,U2*%
X119400000Y-65810000D03*
X121940000Y-65810000D03*
X134640000Y-65810000D03*
X137180000Y-65810000D03*
X119400000Y-83590000D03*
X121940000Y-83590000D03*
X134640000Y-83590000D03*
X137180000Y-83590000D03*
%TD*%
D16*
%TO.C,U1*%
X124520000Y-70890000D03*
D17*
X124520000Y-73430000D03*
X124520000Y-75970000D03*
X124520000Y-78510000D03*
X132140000Y-78510000D03*
X132140000Y-75970000D03*
X132140000Y-73430000D03*
X132140000Y-70890000D03*
%TD*%
D18*
%TO.C,SW1*%
X151972500Y-101860000D03*
X145472500Y-101860000D03*
X145472500Y-97360000D03*
X151972500Y-97360000D03*
%TD*%
D19*
%TO.C,R8*%
X153060000Y-94400000D03*
D20*
X150520000Y-94400000D03*
%TD*%
D19*
%TO.C,R7*%
X144020000Y-94390000D03*
D20*
X146560000Y-94390000D03*
%TD*%
%TO.C,R6*%
X133322500Y-91330000D03*
D19*
X133322500Y-88790000D03*
%TD*%
D20*
%TO.C,R5*%
X123265278Y-96532500D03*
D19*
X123265278Y-93992500D03*
%TD*%
%TO.C,R4*%
X123265278Y-99195000D03*
D20*
X123265278Y-101735000D03*
%TD*%
%TO.C,R3*%
X123265278Y-91330000D03*
D19*
X123265278Y-88790000D03*
%TD*%
D20*
%TO.C,R2*%
X133322500Y-96532500D03*
D19*
X133322500Y-93992500D03*
%TD*%
%TO.C,R1*%
X133322500Y-99195000D03*
D20*
X133322500Y-101735000D03*
%TD*%
D13*
%TO.C,J27*%
X156775000Y-90115000D03*
%TD*%
%TO.C,J26*%
X140370000Y-90115000D03*
%TD*%
%TO.C,J25*%
X156410000Y-99635000D03*
%TD*%
%TO.C,J24*%
X141140000Y-99630000D03*
%TD*%
%TO.C,J23*%
X136510000Y-90605000D03*
%TD*%
%TO.C,J22*%
X126450000Y-95807500D03*
%TD*%
%TO.C,J21*%
X126450000Y-101010000D03*
%TD*%
%TO.C,J20*%
X130185000Y-90605000D03*
%TD*%
%TO.C,J19*%
X120130278Y-95807500D03*
%TD*%
%TO.C,J18*%
X120130278Y-101010000D03*
%TD*%
%TO.C,J17*%
X126450000Y-90605000D03*
%TD*%
%TO.C,J16*%
X136510000Y-95807500D03*
%TD*%
%TO.C,J15*%
X136510000Y-101010000D03*
%TD*%
%TO.C,J14*%
X120130278Y-90605000D03*
%TD*%
%TO.C,J13*%
X130185000Y-95807500D03*
%TD*%
%TO.C,J12*%
X130185000Y-101010000D03*
%TD*%
%TO.C,J11*%
X155655000Y-80945000D03*
%TD*%
%TO.C,J10*%
X155670000Y-75627500D03*
%TD*%
%TO.C,J9*%
X155670000Y-70310000D03*
%TD*%
%TO.C,J8*%
X141990000Y-80945000D03*
%TD*%
%TO.C,J7*%
X142005000Y-75627500D03*
%TD*%
%TO.C,J6*%
X142005000Y-70310000D03*
%TD*%
%TO.C,J4*%
X134680000Y-73430000D03*
D14*
X137220000Y-73430000D03*
%TD*%
D13*
%TO.C,J3*%
X119440000Y-75970000D03*
D14*
X121980000Y-75970000D03*
%TD*%
D13*
%TO.C,J2*%
X134680000Y-78510000D03*
D14*
X137220000Y-78510000D03*
%TD*%
D13*
%TO.C,J1*%
X119440000Y-73430000D03*
D14*
X121980000Y-73430000D03*
%TD*%
D21*
%TO.C,D2*%
X153005000Y-90090000D03*
D22*
X150465000Y-90090000D03*
%TD*%
D21*
%TO.C,D1*%
X144080000Y-90090000D03*
D22*
X146620000Y-90090000D03*
%TD*%
D23*
%TO.C,C3*%
X147410000Y-81410000D03*
X149910000Y-81410000D03*
%TD*%
D16*
%TO.C,C2*%
X147454888Y-76500000D03*
D23*
X149954888Y-76500000D03*
%TD*%
D16*
%TO.C,C1*%
X147007349Y-69070000D03*
D23*
X150507349Y-69070000D03*
%TD*%
M02*
