%TF.GenerationSoftware,KiCad,Pcbnew,(6.0.7)*%
%TF.CreationDate,2022-09-26T02:54:27-06:00*%
%TF.ProjectId,HHC-MiniBadge-2022,4848432d-4d69-46e6-9942-616467652d32,v1.0*%
%TF.SameCoordinates,Original*%
%TF.FileFunction,Copper,L1,Top*%
%TF.FilePolarity,Positive*%
%FSLAX46Y46*%
G04 Gerber Fmt 4.6, Leading zero omitted, Abs format (unit mm)*
G04 Created by KiCad (PCBNEW (6.0.7)) date 2022-09-26 02:54:27*
%MOMM*%
%LPD*%
G01*
G04 APERTURE LIST*
%TA.AperFunction,ComponentPad*%
%ADD10R,1.700000X1.700000*%
%TD*%
%TA.AperFunction,ComponentPad*%
%ADD11O,1.700000X1.700000*%
%TD*%
%TA.AperFunction,ComponentPad*%
%ADD12C,1.778000*%
%TD*%
%TA.AperFunction,ComponentPad*%
%ADD13R,1.600000X1.600000*%
%TD*%
%TA.AperFunction,ComponentPad*%
%ADD14O,1.600000X1.600000*%
%TD*%
%TA.AperFunction,ComponentPad*%
%ADD15C,2.000000*%
%TD*%
%TA.AperFunction,ComponentPad*%
%ADD16O,1.400000X1.400000*%
%TD*%
%TA.AperFunction,ComponentPad*%
%ADD17C,1.400000*%
%TD*%
%TA.AperFunction,ComponentPad*%
%ADD18C,1.800000*%
%TD*%
%TA.AperFunction,ComponentPad*%
%ADD19R,1.800000X1.800000*%
%TD*%
%TA.AperFunction,ComponentPad*%
%ADD20C,1.600000*%
%TD*%
%TA.AperFunction,Conductor*%
%ADD21C,0.250000*%
%TD*%
G04 APERTURE END LIST*
D10*
%TO.P,J29,1,Pin_1*%
%TO.N,GND*%
X126952500Y-65805000D03*
D11*
%TO.P,J29,2,Pin_2*%
X129492500Y-65805000D03*
%TD*%
D10*
%TO.P,J28,1,Pin_1*%
%TO.N,+3.3V*%
X126952500Y-83585000D03*
D11*
%TO.P,J28,2,Pin_2*%
X129492500Y-83585000D03*
%TD*%
D10*
%TO.P,J5,1,Pin_1*%
%TO.N,Net-(J5-Pad1)*%
X134680000Y-75970000D03*
D11*
%TO.P,J5,2,Pin_2*%
X137220000Y-75970000D03*
%TD*%
D12*
%TO.P,U5,1,+5V*%
%TO.N,unconnected-(U5-Pad1)*%
X139920000Y-65810000D03*
%TO.P,U5,2,GND*%
%TO.N,unconnected-(U5-Pad2)*%
X142460000Y-65810000D03*
%TO.P,U5,7,+3v3*%
%TO.N,unconnected-(U5-Pad7)*%
X155160000Y-65810000D03*
%TO.P,U5,8,GND*%
%TO.N,unconnected-(U5-Pad8)*%
X157700000Y-65810000D03*
%TO.P,U5,9,NC*%
%TO.N,unconnected-(U5-Pad9)*%
X139920000Y-83590000D03*
%TO.P,U5,10,NC*%
%TO.N,unconnected-(U5-Pad10)*%
X142460000Y-83590000D03*
%TO.P,U5,15,+3v3*%
%TO.N,unconnected-(U5-Pad15)*%
X155160000Y-83590000D03*
%TO.P,U5,16,GND*%
%TO.N,unconnected-(U5-Pad16)*%
X157700000Y-83590000D03*
%TD*%
%TO.P,U4,16,GND*%
%TO.N,unconnected-(U4-Pad16)*%
X137180000Y-104110000D03*
%TO.P,U4,15,+3v3*%
%TO.N,unconnected-(U4-Pad15)*%
X134640000Y-104110000D03*
%TO.P,U4,10,NC*%
%TO.N,unconnected-(U4-Pad10)*%
X121940000Y-104110000D03*
%TO.P,U4,9,NC*%
%TO.N,unconnected-(U4-Pad9)*%
X119400000Y-104110000D03*
%TO.P,U4,8,GND*%
%TO.N,unconnected-(U4-Pad8)*%
X137180000Y-86330000D03*
%TO.P,U4,7,+3v3*%
%TO.N,unconnected-(U4-Pad7)*%
X134640000Y-86330000D03*
%TO.P,U4,2,GND*%
%TO.N,unconnected-(U4-Pad2)*%
X121940000Y-86330000D03*
%TO.P,U4,1,+5V*%
%TO.N,unconnected-(U4-Pad1)*%
X119400000Y-86330000D03*
%TD*%
%TO.P,U3,16,GND*%
%TO.N,unconnected-(U3-Pad16)*%
X157700000Y-104110000D03*
%TO.P,U3,15,+3v3*%
%TO.N,unconnected-(U3-Pad15)*%
X155160000Y-104110000D03*
%TO.P,U3,10,NC*%
%TO.N,unconnected-(U3-Pad10)*%
X142460000Y-104110000D03*
%TO.P,U3,9,NC*%
%TO.N,unconnected-(U3-Pad9)*%
X139920000Y-104110000D03*
%TO.P,U3,8,GND*%
%TO.N,GND*%
X157700000Y-86330000D03*
%TO.P,U3,7,+3v3*%
%TO.N,+3.3V*%
X155160000Y-86330000D03*
%TO.P,U3,2,GND*%
%TO.N,unconnected-(U3-Pad2)*%
X142460000Y-86330000D03*
%TO.P,U3,1,+5V*%
%TO.N,unconnected-(U3-Pad1)*%
X139920000Y-86330000D03*
%TD*%
%TO.P,U2,1,+5V*%
%TO.N,unconnected-(U2-Pad1)*%
X119400000Y-65810000D03*
%TO.P,U2,2,GND*%
%TO.N,GND*%
X121940000Y-65810000D03*
%TO.P,U2,7,+3v3*%
%TO.N,+3.3V*%
X134640000Y-65810000D03*
%TO.P,U2,8,GND*%
%TO.N,unconnected-(U2-Pad8)*%
X137180000Y-65810000D03*
%TO.P,U2,9,NC*%
%TO.N,unconnected-(U2-Pad9)*%
X119400000Y-83590000D03*
%TO.P,U2,10,NC*%
%TO.N,unconnected-(U2-Pad10)*%
X121940000Y-83590000D03*
%TO.P,U2,15,+3v3*%
%TO.N,+3.3V*%
X134640000Y-83590000D03*
%TO.P,U2,16,GND*%
%TO.N,unconnected-(U2-Pad16)*%
X137180000Y-83590000D03*
%TD*%
D13*
%TO.P,U1,1,GND*%
%TO.N,GND*%
X124520000Y-70890000D03*
D14*
%TO.P,U1,2,TR*%
%TO.N,Net-(J1-Pad1)*%
X124520000Y-73430000D03*
%TO.P,U1,3,Q*%
%TO.N,Net-(J3-Pad1)*%
X124520000Y-75970000D03*
%TO.P,U1,4,R*%
%TO.N,+3.3V*%
X124520000Y-78510000D03*
%TO.P,U1,5,CV*%
%TO.N,Net-(J2-Pad1)*%
X132140000Y-78510000D03*
%TO.P,U1,6,THR*%
%TO.N,Net-(J5-Pad1)*%
X132140000Y-75970000D03*
%TO.P,U1,7,DIS*%
%TO.N,Net-(J4-Pad1)*%
X132140000Y-73430000D03*
%TO.P,U1,8,VCC*%
%TO.N,+3.3V*%
X132140000Y-70890000D03*
%TD*%
D15*
%TO.P,SW1,2,2*%
%TO.N,Net-(J25-Pad1)*%
X151972500Y-101860000D03*
X145472500Y-101860000D03*
%TO.P,SW1,1,1*%
%TO.N,Net-(J24-Pad1)*%
X145472500Y-97360000D03*
X151972500Y-97360000D03*
%TD*%
D16*
%TO.P,R8,2*%
%TO.N,Net-(D2-Pad1)*%
X153060000Y-94400000D03*
D17*
%TO.P,R8,1*%
%TO.N,GND*%
X150520000Y-94400000D03*
%TD*%
D16*
%TO.P,R7,2*%
%TO.N,Net-(D1-Pad2)*%
X144020000Y-94390000D03*
D17*
%TO.P,R7,1*%
%TO.N,+3.3V*%
X146560000Y-94390000D03*
%TD*%
%TO.P,R6,1*%
%TO.N,Net-(J20-Pad1)*%
X133322500Y-91330000D03*
D16*
%TO.P,R6,2*%
%TO.N,Net-(J23-Pad1)*%
X133322500Y-88790000D03*
%TD*%
D17*
%TO.P,R5,1*%
%TO.N,Net-(J19-Pad1)*%
X123265278Y-96532500D03*
D16*
%TO.P,R5,2*%
%TO.N,Net-(J22-Pad1)*%
X123265278Y-93992500D03*
%TD*%
%TO.P,R4,2*%
%TO.N,Net-(J21-Pad1)*%
X123265278Y-99195000D03*
D17*
%TO.P,R4,1*%
%TO.N,Net-(J18-Pad1)*%
X123265278Y-101735000D03*
%TD*%
%TO.P,R3,1*%
%TO.N,Net-(J14-Pad1)*%
X123265278Y-91330000D03*
D16*
%TO.P,R3,2*%
%TO.N,Net-(J17-Pad1)*%
X123265278Y-88790000D03*
%TD*%
D17*
%TO.P,R2,1*%
%TO.N,Net-(J13-Pad1)*%
X133322500Y-96532500D03*
D16*
%TO.P,R2,2*%
%TO.N,Net-(J16-Pad1)*%
X133322500Y-93992500D03*
%TD*%
%TO.P,R1,2*%
%TO.N,Net-(J15-Pad1)*%
X133322500Y-99195000D03*
D17*
%TO.P,R1,1*%
%TO.N,Net-(J12-Pad1)*%
X133322500Y-101735000D03*
%TD*%
D10*
%TO.P,J27,1,Pin_1*%
%TO.N,Net-(D2-Pad2)*%
X156775000Y-90115000D03*
%TD*%
%TO.P,J26,1,Pin_1*%
%TO.N,Net-(D1-Pad1)*%
X140370000Y-90115000D03*
%TD*%
%TO.P,J25,1,Pin_1*%
%TO.N,Net-(J25-Pad1)*%
X156410000Y-99635000D03*
%TD*%
%TO.P,J24,1,Pin_1*%
%TO.N,Net-(J24-Pad1)*%
X141140000Y-99630000D03*
%TD*%
%TO.P,J23,1,Pin_1*%
%TO.N,Net-(J23-Pad1)*%
X136510000Y-90605000D03*
%TD*%
%TO.P,J22,1,Pin_1*%
%TO.N,Net-(J22-Pad1)*%
X126450000Y-95807500D03*
%TD*%
%TO.P,J21,1,Pin_1*%
%TO.N,Net-(J21-Pad1)*%
X126450000Y-101010000D03*
%TD*%
%TO.P,J20,1,Pin_1*%
%TO.N,Net-(J20-Pad1)*%
X130185000Y-90605000D03*
%TD*%
%TO.P,J19,1,Pin_1*%
%TO.N,Net-(J19-Pad1)*%
X120130278Y-95807500D03*
%TD*%
%TO.P,J18,1,Pin_1*%
%TO.N,Net-(J18-Pad1)*%
X120130278Y-101010000D03*
%TD*%
%TO.P,J17,1,Pin_1*%
%TO.N,Net-(J17-Pad1)*%
X126450000Y-90605000D03*
%TD*%
%TO.P,J16,1,Pin_1*%
%TO.N,Net-(J16-Pad1)*%
X136510000Y-95807500D03*
%TD*%
%TO.P,J15,1,Pin_1*%
%TO.N,Net-(J15-Pad1)*%
X136510000Y-101010000D03*
%TD*%
%TO.P,J14,1,Pin_1*%
%TO.N,Net-(J14-Pad1)*%
X120130278Y-90605000D03*
%TD*%
%TO.P,J13,1,Pin_1*%
%TO.N,Net-(J13-Pad1)*%
X130185000Y-95807500D03*
%TD*%
%TO.P,J12,1,Pin_1*%
%TO.N,Net-(J12-Pad1)*%
X130185000Y-101010000D03*
%TD*%
%TO.P,J11,1,Pin_1*%
%TO.N,Net-(C3-Pad2)*%
X155655000Y-80945000D03*
%TD*%
%TO.P,J10,1,Pin_1*%
%TO.N,Net-(C2-Pad2)*%
X155670000Y-75627500D03*
%TD*%
%TO.P,J9,1,Pin_1*%
%TO.N,Net-(C1-Pad2)*%
X155670000Y-70310000D03*
%TD*%
%TO.P,J8,1,Pin_1*%
%TO.N,Net-(C3-Pad1)*%
X141990000Y-80945000D03*
%TD*%
%TO.P,J7,1,Pin_1*%
%TO.N,Net-(C2-Pad1)*%
X142005000Y-75627500D03*
%TD*%
%TO.P,J6,1,Pin_1*%
%TO.N,Net-(C1-Pad1)*%
X142005000Y-70310000D03*
%TD*%
%TO.P,J4,1,Pin_1*%
%TO.N,Net-(J4-Pad1)*%
X134680000Y-73430000D03*
D11*
%TO.P,J4,2,Pin_2*%
X137220000Y-73430000D03*
%TD*%
D10*
%TO.P,J3,1,Pin_1*%
%TO.N,Net-(J3-Pad1)*%
X119440000Y-75970000D03*
D11*
%TO.P,J3,2,Pin_2*%
X121980000Y-75970000D03*
%TD*%
D10*
%TO.P,J2,1,Pin_1*%
%TO.N,Net-(J2-Pad1)*%
X134680000Y-78510000D03*
D11*
%TO.P,J2,2,Pin_2*%
X137220000Y-78510000D03*
%TD*%
D10*
%TO.P,J1,1,Pin_1*%
%TO.N,Net-(J1-Pad1)*%
X119440000Y-73430000D03*
D11*
%TO.P,J1,2,Pin_2*%
X121980000Y-73430000D03*
%TD*%
D18*
%TO.P,D2,2,A*%
%TO.N,Net-(D2-Pad2)*%
X153005000Y-90090000D03*
D19*
%TO.P,D2,1,K*%
%TO.N,Net-(D2-Pad1)*%
X150465000Y-90090000D03*
%TD*%
D18*
%TO.P,D1,2,A*%
%TO.N,Net-(D1-Pad2)*%
X144080000Y-90090000D03*
D19*
%TO.P,D1,1,K*%
%TO.N,Net-(D1-Pad1)*%
X146620000Y-90090000D03*
%TD*%
D20*
%TO.P,C3,1*%
%TO.N,Net-(C3-Pad1)*%
X147410000Y-81410000D03*
%TO.P,C3,2*%
%TO.N,Net-(C3-Pad2)*%
X149910000Y-81410000D03*
%TD*%
D13*
%TO.P,C2,1*%
%TO.N,Net-(C2-Pad1)*%
X147454888Y-76500000D03*
D20*
%TO.P,C2,2*%
%TO.N,Net-(C2-Pad2)*%
X149954888Y-76500000D03*
%TD*%
D13*
%TO.P,C1,1*%
%TO.N,Net-(C1-Pad1)*%
X147007349Y-69070000D03*
D20*
%TO.P,C1,2*%
%TO.N,Net-(C1-Pad2)*%
X150507349Y-69070000D03*
%TD*%
D21*
%TO.N,Net-(C3-Pad2)*%
X150375000Y-80945000D02*
X149910000Y-81410000D01*
X155655000Y-80945000D02*
X150375000Y-80945000D01*
%TO.N,Net-(C3-Pad1)*%
X146945000Y-80945000D02*
X147410000Y-81410000D01*
X141990000Y-80945000D02*
X146945000Y-80945000D01*
%TO.N,Net-(C2-Pad2)*%
X150827388Y-75627500D02*
X149954888Y-76500000D01*
X155670000Y-75627500D02*
X150827388Y-75627500D01*
%TO.N,Net-(C2-Pad1)*%
X146582388Y-75627500D02*
X147454888Y-76500000D01*
X142005000Y-75627500D02*
X146582388Y-75627500D01*
%TO.N,Net-(C1-Pad2)*%
X151747349Y-70310000D02*
X150507349Y-69070000D01*
X155670000Y-70310000D02*
X151747349Y-70310000D01*
%TO.N,Net-(C1-Pad1)*%
X145767349Y-70310000D02*
X147007349Y-69070000D01*
X142005000Y-70310000D02*
X145767349Y-70310000D01*
%TO.N,+3.3V*%
X148070000Y-92880000D02*
X146560000Y-94390000D01*
X148070000Y-88130000D02*
X148070000Y-92880000D01*
X148980000Y-87220000D02*
X148070000Y-88130000D01*
X154270000Y-87220000D02*
X148980000Y-87220000D01*
X155160000Y-86330000D02*
X154270000Y-87220000D01*
%TO.N,GND*%
X148800000Y-92680000D02*
X150520000Y-94400000D01*
X148800000Y-88650000D02*
X148800000Y-92680000D01*
X156540000Y-88150000D02*
X149300000Y-88150000D01*
X157700000Y-86330000D02*
X157700000Y-86990000D01*
X157700000Y-86990000D02*
X156540000Y-88150000D01*
X149300000Y-88150000D02*
X148800000Y-88650000D01*
%TO.N,Net-(D1-Pad1)*%
X145240000Y-92350000D02*
X146620000Y-90970000D01*
X146620000Y-90970000D02*
X146620000Y-90090000D01*
X142740000Y-92350000D02*
X145240000Y-92350000D01*
X140505000Y-90115000D02*
X142740000Y-92350000D01*
X140370000Y-90115000D02*
X140505000Y-90115000D01*
%TO.N,Net-(D2-Pad1)*%
X150465000Y-91805000D02*
X153060000Y-94400000D01*
X150465000Y-90090000D02*
X150465000Y-91805000D01*
%TO.N,Net-(D2-Pad2)*%
X153030000Y-90115000D02*
X153005000Y-90090000D01*
X156775000Y-90115000D02*
X153030000Y-90115000D01*
%TO.N,Net-(J25-Pad1)*%
X151972500Y-101860000D02*
X154197500Y-99635000D01*
X154197500Y-99635000D02*
X156410000Y-99635000D01*
X145472500Y-101860000D02*
X151972500Y-101860000D01*
%TO.N,Net-(J24-Pad1)*%
X145472500Y-97360000D02*
X151972500Y-97360000D01*
X143202500Y-99630000D02*
X145472500Y-97360000D01*
X141140000Y-99630000D02*
X143202500Y-99630000D01*
%TO.N,Net-(J15-Pad1)*%
X133322500Y-99195000D02*
X135137500Y-101010000D01*
X135137500Y-101010000D02*
X136510000Y-101010000D01*
%TO.N,Net-(J12-Pad1)*%
X132597500Y-101010000D02*
X133322500Y-101735000D01*
X130185000Y-101010000D02*
X132597500Y-101010000D01*
%TO.N,Net-(J21-Pad1)*%
X125080278Y-101010000D02*
X126450000Y-101010000D01*
X123265278Y-99195000D02*
X125080278Y-101010000D01*
%TO.N,Net-(J18-Pad1)*%
X122540278Y-101010000D02*
X123265278Y-101735000D01*
X120130278Y-101010000D02*
X122540278Y-101010000D01*
%TO.N,Net-(J16-Pad1)*%
X135137500Y-95807500D02*
X136510000Y-95807500D01*
X133322500Y-93992500D02*
X135137500Y-95807500D01*
%TO.N,Net-(J13-Pad1)*%
X132597500Y-95807500D02*
X133322500Y-96532500D01*
X130185000Y-95807500D02*
X132597500Y-95807500D01*
%TO.N,Net-(J22-Pad1)*%
X125080278Y-95807500D02*
X126450000Y-95807500D01*
X123265278Y-93992500D02*
X125080278Y-95807500D01*
%TO.N,Net-(J19-Pad1)*%
X120130278Y-95807500D02*
X122540278Y-95807500D01*
X122540278Y-95807500D02*
X123265278Y-96532500D01*
%TO.N,Net-(J23-Pad1)*%
X135137500Y-90605000D02*
X136510000Y-90605000D01*
X133322500Y-88790000D02*
X135137500Y-90605000D01*
%TO.N,Net-(J20-Pad1)*%
X132597500Y-90605000D02*
X133322500Y-91330000D01*
X130185000Y-90605000D02*
X132597500Y-90605000D01*
%TO.N,Net-(J17-Pad1)*%
X125080278Y-90605000D02*
X126450000Y-90605000D01*
X123265278Y-88790000D02*
X125080278Y-90605000D01*
%TO.N,Net-(J14-Pad1)*%
X122540278Y-90605000D02*
X123265278Y-91330000D01*
X120130278Y-90605000D02*
X122540278Y-90605000D01*
%TO.N,Net-(J3-Pad1)*%
X121980000Y-75970000D02*
X119440000Y-75970000D01*
X124520000Y-75970000D02*
X121980000Y-75970000D01*
%TO.N,Net-(J1-Pad1)*%
X121980000Y-73430000D02*
X124520000Y-73430000D01*
X119440000Y-73430000D02*
X121980000Y-73430000D01*
%TO.N,Net-(J2-Pad1)*%
X134680000Y-78510000D02*
X137220000Y-78510000D01*
X132140000Y-78510000D02*
X134680000Y-78510000D01*
%TO.N,Net-(J5-Pad1)*%
X134680000Y-75970000D02*
X137220000Y-75970000D01*
X132140000Y-75970000D02*
X134680000Y-75970000D01*
%TO.N,Net-(J4-Pad1)*%
X134680000Y-73430000D02*
X137220000Y-73430000D01*
X132140000Y-73430000D02*
X134680000Y-73430000D01*
%TO.N,+3.3V*%
X126952500Y-76077500D02*
X126952500Y-83585000D01*
X132140000Y-70890000D02*
X126952500Y-76077500D01*
X132140000Y-68310000D02*
X132140000Y-70890000D01*
X134640000Y-65810000D02*
X132140000Y-68310000D01*
X129492500Y-83585000D02*
X126952500Y-83585000D01*
X134640000Y-83590000D02*
X129497500Y-83590000D01*
X129497500Y-83590000D02*
X129492500Y-83585000D01*
%TO.N,GND*%
X126952500Y-68457500D02*
X124520000Y-70890000D01*
X126952500Y-65805000D02*
X126952500Y-68457500D01*
X126952500Y-65805000D02*
X129492500Y-65805000D01*
X121940000Y-65810000D02*
X126947500Y-65810000D01*
X126947500Y-65810000D02*
X126952500Y-65805000D01*
%TD*%
M02*
