%TF.GenerationSoftware,KiCad,Pcbnew,(6.0.7)*%
%TF.CreationDate,2022-09-26T02:54:28-06:00*%
%TF.ProjectId,HHC-MiniBadge-2022,4848432d-4d69-46e6-9942-616467652d32,v1.0*%
%TF.SameCoordinates,Original*%
%TF.FileFunction,Legend,Bot*%
%TF.FilePolarity,Positive*%
%FSLAX46Y46*%
G04 Gerber Fmt 4.6, Leading zero omitted, Abs format (unit mm)*
G04 Created by KiCad (PCBNEW (6.0.7)) date 2022-09-26 02:54:28*
%MOMM*%
%LPD*%
G01*
G04 APERTURE LIST*
%ADD10C,0.150000*%
%ADD11R,1.700000X1.700000*%
%ADD12O,1.700000X1.700000*%
%ADD13C,1.778000*%
%ADD14R,1.600000X1.600000*%
%ADD15O,1.600000X1.600000*%
%ADD16C,2.000000*%
%ADD17O,1.400000X1.400000*%
%ADD18C,1.400000*%
%ADD19C,1.800000*%
%ADD20R,1.800000X1.800000*%
%ADD21C,1.600000*%
G04 APERTURE END LIST*
D10*
X132358571Y-87028571D02*
X132858571Y-86314285D01*
X133215714Y-87028571D02*
X133215714Y-85528571D01*
X132644285Y-85528571D01*
X132501428Y-85600000D01*
X132430000Y-85671428D01*
X132358571Y-85814285D01*
X132358571Y-86028571D01*
X132430000Y-86171428D01*
X132501428Y-86242857D01*
X132644285Y-86314285D01*
X133215714Y-86314285D01*
X131144285Y-86957142D02*
X131287142Y-87028571D01*
X131572857Y-87028571D01*
X131715714Y-86957142D01*
X131787142Y-86814285D01*
X131787142Y-86242857D01*
X131715714Y-86100000D01*
X131572857Y-86028571D01*
X131287142Y-86028571D01*
X131144285Y-86100000D01*
X131072857Y-86242857D01*
X131072857Y-86385714D01*
X131787142Y-86528571D01*
X130501428Y-86957142D02*
X130358571Y-87028571D01*
X130072857Y-87028571D01*
X129930000Y-86957142D01*
X129858571Y-86814285D01*
X129858571Y-86742857D01*
X129930000Y-86600000D01*
X130072857Y-86528571D01*
X130287142Y-86528571D01*
X130430000Y-86457142D01*
X130501428Y-86314285D01*
X130501428Y-86242857D01*
X130430000Y-86100000D01*
X130287142Y-86028571D01*
X130072857Y-86028571D01*
X129930000Y-86100000D01*
X129215714Y-87028571D02*
X129215714Y-86028571D01*
X129215714Y-85528571D02*
X129287142Y-85600000D01*
X129215714Y-85671428D01*
X129144285Y-85600000D01*
X129215714Y-85528571D01*
X129215714Y-85671428D01*
X128572857Y-86957142D02*
X128430000Y-87028571D01*
X128144285Y-87028571D01*
X128001428Y-86957142D01*
X127930000Y-86814285D01*
X127930000Y-86742857D01*
X128001428Y-86600000D01*
X128144285Y-86528571D01*
X128358571Y-86528571D01*
X128501428Y-86457142D01*
X128572857Y-86314285D01*
X128572857Y-86242857D01*
X128501428Y-86100000D01*
X128358571Y-86028571D01*
X128144285Y-86028571D01*
X128001428Y-86100000D01*
X127501428Y-86028571D02*
X126930000Y-86028571D01*
X127287142Y-85528571D02*
X127287142Y-86814285D01*
X127215714Y-86957142D01*
X127072857Y-87028571D01*
X126930000Y-87028571D01*
X126215714Y-87028571D02*
X126358571Y-86957142D01*
X126430000Y-86885714D01*
X126501428Y-86742857D01*
X126501428Y-86314285D01*
X126430000Y-86171428D01*
X126358571Y-86100000D01*
X126215714Y-86028571D01*
X126001428Y-86028571D01*
X125858571Y-86100000D01*
X125787142Y-86171428D01*
X125715714Y-86314285D01*
X125715714Y-86742857D01*
X125787142Y-86885714D01*
X125858571Y-86957142D01*
X126001428Y-87028571D01*
X126215714Y-87028571D01*
X125072857Y-87028571D02*
X125072857Y-86028571D01*
X125072857Y-86314285D02*
X125001428Y-86171428D01*
X124930000Y-86100000D01*
X124787142Y-86028571D01*
X124644285Y-86028571D01*
X124215714Y-86957142D02*
X124072857Y-87028571D01*
X123787142Y-87028571D01*
X123644285Y-86957142D01*
X123572857Y-86814285D01*
X123572857Y-86742857D01*
X123644285Y-86600000D01*
X123787142Y-86528571D01*
X124001428Y-86528571D01*
X124144285Y-86457142D01*
X124215714Y-86314285D01*
X124215714Y-86242857D01*
X124144285Y-86100000D01*
X124001428Y-86028571D01*
X123787142Y-86028571D01*
X123644285Y-86100000D01*
X150051428Y-93038571D02*
X150765714Y-93038571D01*
X150765714Y-91538571D01*
X149551428Y-92252857D02*
X149051428Y-92252857D01*
X148837142Y-93038571D02*
X149551428Y-93038571D01*
X149551428Y-91538571D01*
X148837142Y-91538571D01*
X148194285Y-93038571D02*
X148194285Y-91538571D01*
X147837142Y-91538571D01*
X147622857Y-91610000D01*
X147480000Y-91752857D01*
X147408571Y-91895714D01*
X147337142Y-92181428D01*
X147337142Y-92395714D01*
X147408571Y-92681428D01*
X147480000Y-92824285D01*
X147622857Y-92967142D01*
X147837142Y-93038571D01*
X148194285Y-93038571D01*
X146765714Y-92967142D02*
X146622857Y-93038571D01*
X146337142Y-93038571D01*
X146194285Y-92967142D01*
X146122857Y-92824285D01*
X146122857Y-92752857D01*
X146194285Y-92610000D01*
X146337142Y-92538571D01*
X146551428Y-92538571D01*
X146694285Y-92467142D01*
X146765714Y-92324285D01*
X146765714Y-92252857D01*
X146694285Y-92110000D01*
X146551428Y-92038571D01*
X146337142Y-92038571D01*
X146194285Y-92110000D01*
X153350000Y-73025714D02*
X153421428Y-73097142D01*
X153635714Y-73168571D01*
X153778571Y-73168571D01*
X153992857Y-73097142D01*
X154135714Y-72954285D01*
X154207142Y-72811428D01*
X154278571Y-72525714D01*
X154278571Y-72311428D01*
X154207142Y-72025714D01*
X154135714Y-71882857D01*
X153992857Y-71740000D01*
X153778571Y-71668571D01*
X153635714Y-71668571D01*
X153421428Y-71740000D01*
X153350000Y-71811428D01*
X152064285Y-73168571D02*
X152064285Y-72382857D01*
X152135714Y-72240000D01*
X152278571Y-72168571D01*
X152564285Y-72168571D01*
X152707142Y-72240000D01*
X152064285Y-73097142D02*
X152207142Y-73168571D01*
X152564285Y-73168571D01*
X152707142Y-73097142D01*
X152778571Y-72954285D01*
X152778571Y-72811428D01*
X152707142Y-72668571D01*
X152564285Y-72597142D01*
X152207142Y-72597142D01*
X152064285Y-72525714D01*
X151350000Y-72168571D02*
X151350000Y-73668571D01*
X151350000Y-72240000D02*
X151207142Y-72168571D01*
X150921428Y-72168571D01*
X150778571Y-72240000D01*
X150707142Y-72311428D01*
X150635714Y-72454285D01*
X150635714Y-72882857D01*
X150707142Y-73025714D01*
X150778571Y-73097142D01*
X150921428Y-73168571D01*
X151207142Y-73168571D01*
X151350000Y-73097142D01*
X149350000Y-73168571D02*
X149350000Y-72382857D01*
X149421428Y-72240000D01*
X149564285Y-72168571D01*
X149850000Y-72168571D01*
X149992857Y-72240000D01*
X149350000Y-73097142D02*
X149492857Y-73168571D01*
X149850000Y-73168571D01*
X149992857Y-73097142D01*
X150064285Y-72954285D01*
X150064285Y-72811428D01*
X149992857Y-72668571D01*
X149850000Y-72597142D01*
X149492857Y-72597142D01*
X149350000Y-72525714D01*
X147992857Y-73097142D02*
X148135714Y-73168571D01*
X148421428Y-73168571D01*
X148564285Y-73097142D01*
X148635714Y-73025714D01*
X148707142Y-72882857D01*
X148707142Y-72454285D01*
X148635714Y-72311428D01*
X148564285Y-72240000D01*
X148421428Y-72168571D01*
X148135714Y-72168571D01*
X147992857Y-72240000D01*
X147350000Y-73168571D02*
X147350000Y-72168571D01*
X147350000Y-71668571D02*
X147421428Y-71740000D01*
X147350000Y-71811428D01*
X147278571Y-71740000D01*
X147350000Y-71668571D01*
X147350000Y-71811428D01*
X146850000Y-72168571D02*
X146278571Y-72168571D01*
X146635714Y-71668571D02*
X146635714Y-72954285D01*
X146564285Y-73097142D01*
X146421428Y-73168571D01*
X146278571Y-73168571D01*
X145564285Y-73168571D02*
X145707142Y-73097142D01*
X145778571Y-73025714D01*
X145850000Y-72882857D01*
X145850000Y-72454285D01*
X145778571Y-72311428D01*
X145707142Y-72240000D01*
X145564285Y-72168571D01*
X145350000Y-72168571D01*
X145207142Y-72240000D01*
X145135714Y-72311428D01*
X145064285Y-72454285D01*
X145064285Y-72882857D01*
X145135714Y-73025714D01*
X145207142Y-73097142D01*
X145350000Y-73168571D01*
X145564285Y-73168571D01*
X144421428Y-73168571D02*
X144421428Y-72168571D01*
X144421428Y-72454285D02*
X144350000Y-72311428D01*
X144278571Y-72240000D01*
X144135714Y-72168571D01*
X143992857Y-72168571D01*
X143564285Y-73097142D02*
X143421428Y-73168571D01*
X143135714Y-73168571D01*
X142992857Y-73097142D01*
X142921428Y-72954285D01*
X142921428Y-72882857D01*
X142992857Y-72740000D01*
X143135714Y-72668571D01*
X143350000Y-72668571D01*
X143492857Y-72597142D01*
X143564285Y-72454285D01*
X143564285Y-72382857D01*
X143492857Y-72240000D01*
X143350000Y-72168571D01*
X143135714Y-72168571D01*
X142992857Y-72240000D01*
X133118571Y-67718571D02*
X133832857Y-67718571D01*
X133904285Y-68432857D01*
X133832857Y-68361428D01*
X133690000Y-68290000D01*
X133332857Y-68290000D01*
X133190000Y-68361428D01*
X133118571Y-68432857D01*
X133047142Y-68575714D01*
X133047142Y-68932857D01*
X133118571Y-69075714D01*
X133190000Y-69147142D01*
X133332857Y-69218571D01*
X133690000Y-69218571D01*
X133832857Y-69147142D01*
X133904285Y-69075714D01*
X131690000Y-67718571D02*
X132404285Y-67718571D01*
X132475714Y-68432857D01*
X132404285Y-68361428D01*
X132261428Y-68290000D01*
X131904285Y-68290000D01*
X131761428Y-68361428D01*
X131690000Y-68432857D01*
X131618571Y-68575714D01*
X131618571Y-68932857D01*
X131690000Y-69075714D01*
X131761428Y-69147142D01*
X131904285Y-69218571D01*
X132261428Y-69218571D01*
X132404285Y-69147142D01*
X132475714Y-69075714D01*
X130261428Y-67718571D02*
X130975714Y-67718571D01*
X131047142Y-68432857D01*
X130975714Y-68361428D01*
X130832857Y-68290000D01*
X130475714Y-68290000D01*
X130332857Y-68361428D01*
X130261428Y-68432857D01*
X130190000Y-68575714D01*
X130190000Y-68932857D01*
X130261428Y-69075714D01*
X130332857Y-69147142D01*
X130475714Y-69218571D01*
X130832857Y-69218571D01*
X130975714Y-69147142D01*
X131047142Y-69075714D01*
X128618571Y-67718571D02*
X127761428Y-67718571D01*
X128190000Y-69218571D02*
X128190000Y-67718571D01*
X127261428Y-69218571D02*
X127261428Y-68218571D01*
X127261428Y-67718571D02*
X127332857Y-67790000D01*
X127261428Y-67861428D01*
X127190000Y-67790000D01*
X127261428Y-67718571D01*
X127261428Y-67861428D01*
X126547142Y-69218571D02*
X126547142Y-68218571D01*
X126547142Y-68361428D02*
X126475714Y-68290000D01*
X126332857Y-68218571D01*
X126118571Y-68218571D01*
X125975714Y-68290000D01*
X125904285Y-68432857D01*
X125904285Y-69218571D01*
X125904285Y-68432857D02*
X125832857Y-68290000D01*
X125690000Y-68218571D01*
X125475714Y-68218571D01*
X125332857Y-68290000D01*
X125261428Y-68432857D01*
X125261428Y-69218571D01*
X123975714Y-69147142D02*
X124118571Y-69218571D01*
X124404285Y-69218571D01*
X124547142Y-69147142D01*
X124618571Y-69004285D01*
X124618571Y-68432857D01*
X124547142Y-68290000D01*
X124404285Y-68218571D01*
X124118571Y-68218571D01*
X123975714Y-68290000D01*
X123904285Y-68432857D01*
X123904285Y-68575714D01*
X124618571Y-68718571D01*
X123261428Y-69218571D02*
X123261428Y-68218571D01*
X123261428Y-68504285D02*
X123190000Y-68361428D01*
X123118571Y-68290000D01*
X122975714Y-68218571D01*
X122832857Y-68218571D01*
%TO.C,G\u002A\u002A\u002A*%
G36*
X131625115Y-103618920D02*
G01*
X131615559Y-103737386D01*
X131602821Y-103828767D01*
X131587243Y-103885457D01*
X131561188Y-103929092D01*
X131484703Y-103998585D01*
X131380260Y-104043025D01*
X131374445Y-104044454D01*
X131284302Y-104054200D01*
X131178266Y-104049443D01*
X131075453Y-104032112D01*
X130994985Y-104004136D01*
X130960746Y-103985301D01*
X130922308Y-103958112D01*
X130892924Y-103924764D01*
X130871478Y-103880086D01*
X130856853Y-103818908D01*
X130847936Y-103736060D01*
X130843608Y-103626371D01*
X130842756Y-103484673D01*
X130843957Y-103341967D01*
X131157381Y-103341967D01*
X131157400Y-103376503D01*
X131158072Y-103499212D01*
X131160192Y-103587659D01*
X131164418Y-103648402D01*
X131171408Y-103688000D01*
X131181820Y-103713013D01*
X131196312Y-103729999D01*
X131216388Y-103746873D01*
X131241349Y-103752418D01*
X131270970Y-103725751D01*
X131273181Y-103723221D01*
X131285680Y-103702982D01*
X131294394Y-103672531D01*
X131299799Y-103625439D01*
X131302367Y-103555282D01*
X131302572Y-103455633D01*
X131300889Y-103320065D01*
X131300027Y-103268375D01*
X131297351Y-103147599D01*
X131293794Y-103060839D01*
X131288657Y-103001918D01*
X131281239Y-102964655D01*
X131270842Y-102942872D01*
X131256766Y-102930390D01*
X131252324Y-102927760D01*
X131218476Y-102920274D01*
X131187917Y-102948044D01*
X131186058Y-102950717D01*
X131174543Y-102978884D01*
X131166364Y-103026326D01*
X131161076Y-103098810D01*
X131158230Y-103202101D01*
X131157381Y-103341967D01*
X130843957Y-103341967D01*
X130844262Y-103305794D01*
X130850209Y-102793739D01*
X130903170Y-102736383D01*
X130978850Y-102674471D01*
X131083188Y-102633928D01*
X131214958Y-102621052D01*
X131263005Y-102622013D01*
X131384039Y-102636606D01*
X131476832Y-102670790D01*
X131549591Y-102727168D01*
X131566468Y-102745415D01*
X131587728Y-102774390D01*
X131602041Y-102809187D01*
X131611622Y-102858933D01*
X131618685Y-102932752D01*
X131625444Y-103039771D01*
X131631250Y-103177048D01*
X131633304Y-103331146D01*
X131631509Y-103455633D01*
X131631144Y-103480972D01*
X131625115Y-103618920D01*
G37*
G36*
X132343703Y-103202124D02*
G01*
X132343602Y-103265720D01*
X132342130Y-103439527D01*
X132339011Y-103585720D01*
X132334377Y-103700614D01*
X132328365Y-103780524D01*
X132321108Y-103821765D01*
X132284815Y-103888971D01*
X132226463Y-103956209D01*
X132163637Y-103998889D01*
X132144103Y-104003687D01*
X132085052Y-104010537D01*
X132002081Y-104015506D01*
X131906599Y-104017757D01*
X131877685Y-104017917D01*
X131790063Y-104017557D01*
X131734546Y-104014387D01*
X131702987Y-104006750D01*
X131687240Y-103992986D01*
X131679157Y-103971435D01*
X131664887Y-103890327D01*
X131675157Y-103820041D01*
X131715784Y-103778526D01*
X131787236Y-103764887D01*
X131857229Y-103756368D01*
X131928078Y-103735534D01*
X131939852Y-103730442D01*
X131978923Y-103706117D01*
X131999784Y-103669464D01*
X132012135Y-103605471D01*
X132013484Y-103594169D01*
X132018368Y-103526758D01*
X132022323Y-103430910D01*
X132024972Y-103317725D01*
X132025939Y-103198303D01*
X132025939Y-102891844D01*
X131856464Y-102899540D01*
X131686989Y-102907237D01*
X131686989Y-102642119D01*
X132343703Y-102642119D01*
X132343703Y-103202124D01*
G37*
G36*
X129664138Y-102623644D02*
G01*
X129723120Y-102629456D01*
X129761341Y-102633693D01*
X129836673Y-102647712D01*
X129897959Y-102672512D01*
X129959318Y-102715006D01*
X130034870Y-102782107D01*
X130133081Y-102873973D01*
X130216249Y-102788076D01*
X130249603Y-102755681D01*
X130311318Y-102703492D01*
X130362969Y-102668481D01*
X130386181Y-102658901D01*
X130452377Y-102644005D01*
X130532073Y-102635920D01*
X130611523Y-102635094D01*
X130676979Y-102641977D01*
X130714696Y-102657014D01*
X130716731Y-102659046D01*
X130723907Y-102667218D01*
X130729602Y-102678687D01*
X130733950Y-102697793D01*
X130737085Y-102728878D01*
X130739141Y-102776282D01*
X130740252Y-102844348D01*
X130740552Y-102937417D01*
X130740175Y-103059829D01*
X130739254Y-103215926D01*
X130737924Y-103410050D01*
X130733695Y-104019099D01*
X130415930Y-104019099D01*
X130415930Y-103530095D01*
X130415894Y-103471466D01*
X130415112Y-103317979D01*
X130412737Y-103202555D01*
X130408021Y-103121946D01*
X130400215Y-103072906D01*
X130388571Y-103052188D01*
X130372340Y-103056546D01*
X130350775Y-103082733D01*
X130323125Y-103127501D01*
X130312160Y-103148258D01*
X130301053Y-103178912D01*
X130293367Y-103219214D01*
X130288608Y-103275707D01*
X130286285Y-103354931D01*
X130285904Y-103463430D01*
X130286974Y-103607744D01*
X130291055Y-104019099D01*
X129973482Y-104019099D01*
X129966975Y-103585181D01*
X129960467Y-103151262D01*
X129891618Y-103082461D01*
X129822769Y-103013659D01*
X129822769Y-104019099D01*
X129529237Y-104019099D01*
X129515416Y-103907882D01*
X129512455Y-103867891D01*
X129509673Y-103786667D01*
X129507824Y-103676057D01*
X129506980Y-103543153D01*
X129507213Y-103395051D01*
X129508596Y-103238842D01*
X129510344Y-103097780D01*
X129512896Y-102947413D01*
X129517158Y-102831750D01*
X129524656Y-102746452D01*
X129536918Y-102687184D01*
X129555470Y-102649606D01*
X129581839Y-102629382D01*
X129617553Y-102622174D01*
X129664138Y-102623644D01*
G37*
G36*
X128333272Y-102623684D02*
G01*
X128388063Y-102629409D01*
X128446807Y-102637061D01*
X128548383Y-102665014D01*
X128626561Y-102713825D01*
X128693140Y-102789691D01*
X128714140Y-102817979D01*
X128749002Y-102858554D01*
X128770345Y-102874694D01*
X128788876Y-102866008D01*
X128831709Y-102836329D01*
X128886859Y-102792784D01*
X128921072Y-102764918D01*
X129008784Y-102701925D01*
X129085656Y-102664479D01*
X129164205Y-102647630D01*
X129256948Y-102646426D01*
X129388491Y-102652711D01*
X129394080Y-103335905D01*
X129399670Y-104019099D01*
X129081318Y-104019099D01*
X129081318Y-103518674D01*
X129081303Y-103475447D01*
X129080863Y-103326047D01*
X129079596Y-103213393D01*
X129077212Y-103132980D01*
X129073421Y-103080304D01*
X129067933Y-103050861D01*
X129060457Y-103040147D01*
X129050703Y-103043657D01*
X129047546Y-103046367D01*
X129011086Y-103095483D01*
X128984469Y-103171495D01*
X128967072Y-103278110D01*
X128958270Y-103419037D01*
X128957440Y-103597983D01*
X128958033Y-103655301D01*
X128957685Y-103767390D01*
X128955426Y-103863247D01*
X128951516Y-103934164D01*
X128946217Y-103971435D01*
X128944993Y-103974971D01*
X128931930Y-103998759D01*
X128907325Y-104012051D01*
X128860913Y-104017835D01*
X128782426Y-104019099D01*
X128634680Y-104019099D01*
X128637819Y-103608827D01*
X128638133Y-103563668D01*
X128638281Y-103422577D01*
X128636109Y-103315493D01*
X128630641Y-103235854D01*
X128620901Y-103177097D01*
X128605914Y-103132662D01*
X128584705Y-103095987D01*
X128556297Y-103060509D01*
X128532628Y-103037733D01*
X128506058Y-103023436D01*
X128502817Y-103031666D01*
X128498101Y-103075655D01*
X128494066Y-103152460D01*
X128490923Y-103256230D01*
X128488884Y-103381116D01*
X128488157Y-103521268D01*
X128488157Y-104019099D01*
X128166345Y-104019099D01*
X128173665Y-103350075D01*
X128175230Y-103200728D01*
X128177336Y-103032571D01*
X128180519Y-102899790D01*
X128185974Y-102798371D01*
X128194894Y-102724301D01*
X128208474Y-102673565D01*
X128227907Y-102642150D01*
X128254389Y-102626040D01*
X128289112Y-102621223D01*
X128333272Y-102623684D01*
G37*
G36*
X128085190Y-103207871D02*
G01*
X128084887Y-103356766D01*
X128083905Y-103498360D01*
X128081934Y-103607677D01*
X128078642Y-103690186D01*
X128073699Y-103751353D01*
X128066774Y-103796648D01*
X128057537Y-103831539D01*
X128045656Y-103861494D01*
X128006767Y-103924606D01*
X127934904Y-103982821D01*
X127905569Y-103994664D01*
X127856117Y-104006064D01*
X127787320Y-104013367D01*
X127691518Y-104017307D01*
X127561050Y-104018617D01*
X127258880Y-104019099D01*
X127264469Y-103335905D01*
X127270059Y-102652711D01*
X127405828Y-102646316D01*
X127465334Y-102645025D01*
X127529417Y-102651039D01*
X127559090Y-102667501D01*
X127562744Y-102684795D01*
X127567243Y-102740527D01*
X127571105Y-102827960D01*
X127574135Y-102940987D01*
X127576134Y-103073500D01*
X127576907Y-103219391D01*
X127577164Y-103371735D01*
X127577994Y-103499652D01*
X127579739Y-103594618D01*
X127582744Y-103661520D01*
X127587356Y-103705245D01*
X127593922Y-103730678D01*
X127602789Y-103742705D01*
X127614304Y-103746213D01*
X127683150Y-103743855D01*
X127736114Y-103719733D01*
X127739492Y-103711352D01*
X127746262Y-103665154D01*
X127752767Y-103583742D01*
X127758726Y-103471894D01*
X127763860Y-103334389D01*
X127767890Y-103176007D01*
X127778482Y-102652711D01*
X127932069Y-102646487D01*
X128085655Y-102640262D01*
X128085190Y-103207871D01*
G37*
G36*
X127154132Y-104019099D02*
G01*
X126835780Y-104019099D01*
X126835780Y-103604240D01*
X126835472Y-103486363D01*
X126833600Y-103362050D01*
X126829195Y-103275051D01*
X126821310Y-103222467D01*
X126809002Y-103201400D01*
X126791327Y-103208952D01*
X126767339Y-103242225D01*
X126736095Y-103298320D01*
X126717487Y-103336675D01*
X126703988Y-103376330D01*
X126695252Y-103424493D01*
X126690265Y-103489627D01*
X126688015Y-103580197D01*
X126687490Y-103704666D01*
X126687490Y-104019099D01*
X126389850Y-104019099D01*
X126376873Y-103954215D01*
X126363897Y-103889331D01*
X126296953Y-103954215D01*
X126230010Y-104019099D01*
X125731874Y-104019099D01*
X125738331Y-103918641D01*
X125738762Y-103912191D01*
X125747153Y-103850101D01*
X125766103Y-103814408D01*
X125777098Y-103807256D01*
X126200250Y-103807256D01*
X126251479Y-103807256D01*
X126288316Y-103809730D01*
X126335544Y-103819857D01*
X126344725Y-103820113D01*
X126352714Y-103809428D01*
X126358938Y-103783007D01*
X126363704Y-103736411D01*
X126367322Y-103665202D01*
X126370097Y-103564940D01*
X126372337Y-103431187D01*
X126374349Y-103259504D01*
X126374445Y-103250123D01*
X126375546Y-103101029D01*
X126375750Y-102967971D01*
X126375110Y-102856214D01*
X126373680Y-102771023D01*
X126371514Y-102717666D01*
X126368665Y-102701407D01*
X126355765Y-102717751D01*
X126322561Y-102759708D01*
X126278632Y-102815158D01*
X126200250Y-102914053D01*
X126200250Y-103807256D01*
X125777098Y-103807256D01*
X125803044Y-103790379D01*
X125861301Y-103762576D01*
X125861301Y-102884435D01*
X125796551Y-102859994D01*
X125769086Y-102850527D01*
X125735888Y-102847382D01*
X125720139Y-102865942D01*
X125716831Y-102871888D01*
X125679916Y-102890331D01*
X125604823Y-102896330D01*
X125501168Y-102896330D01*
X125501168Y-104019099D01*
X125183403Y-104019099D01*
X125183403Y-102892514D01*
X125082778Y-102899718D01*
X124982152Y-102906923D01*
X124982152Y-102652711D01*
X125328876Y-102646878D01*
X125333735Y-102646797D01*
X125482364Y-102645877D01*
X125594797Y-102648463D01*
X125669019Y-102654466D01*
X125703012Y-102663795D01*
X125721034Y-102674737D01*
X125744180Y-102664286D01*
X125759418Y-102658100D01*
X125816078Y-102651273D01*
X125912984Y-102646446D01*
X126048930Y-102643673D01*
X126222713Y-102643007D01*
X126687490Y-102643986D01*
X126687490Y-102838575D01*
X126793627Y-102739296D01*
X126819986Y-102714796D01*
X126869739Y-102672555D01*
X126909940Y-102651128D01*
X126955507Y-102644427D01*
X127021359Y-102646364D01*
X127142953Y-102652711D01*
X127145532Y-102967971D01*
X127148542Y-103335905D01*
X127154132Y-104019099D01*
G37*
G36*
X124329156Y-102642480D02*
G01*
X124377461Y-102647498D01*
X124409438Y-102663449D01*
X124428467Y-102696622D01*
X124437929Y-102753301D01*
X124441201Y-102839772D01*
X124441663Y-102962322D01*
X124442304Y-103043905D01*
X124445555Y-103122440D01*
X124452941Y-103175469D01*
X124465986Y-103212606D01*
X124486213Y-103243466D01*
X124530474Y-103299735D01*
X124576246Y-103241667D01*
X124579801Y-103237060D01*
X124598508Y-103206683D01*
X124611652Y-103168159D01*
X124620723Y-103112933D01*
X124627213Y-103032450D01*
X124632611Y-102918155D01*
X124643203Y-102652711D01*
X124939783Y-102652711D01*
X124939783Y-103408968D01*
X124879796Y-103454526D01*
X124819900Y-103500445D01*
X124759591Y-103551801D01*
X124722974Y-103597413D01*
X124704138Y-103648924D01*
X124697172Y-103717978D01*
X124696164Y-103816219D01*
X124696164Y-104019099D01*
X124378399Y-104019099D01*
X124378399Y-103837005D01*
X124376301Y-103747021D01*
X124364713Y-103658748D01*
X124338502Y-103592139D01*
X124292678Y-103535720D01*
X124222250Y-103478022D01*
X124134779Y-103413593D01*
X124123231Y-102642119D01*
X124269529Y-102642119D01*
X124329156Y-102642480D01*
G37*
G36*
X133381735Y-101434612D02*
G01*
X133974896Y-101434612D01*
X133974896Y-99549208D01*
X134758716Y-99549208D01*
X134758716Y-101432398D01*
X134869735Y-101438801D01*
X134896392Y-101440719D01*
X134951978Y-101450885D01*
X134980898Y-101472998D01*
X134984513Y-101513238D01*
X134964183Y-101577786D01*
X134921271Y-101672824D01*
X134865413Y-101793427D01*
X134821843Y-101900258D01*
X134790561Y-101999024D01*
X134769475Y-102099803D01*
X134756494Y-102212675D01*
X134749526Y-102347719D01*
X134746479Y-102515013D01*
X134745367Y-102625708D01*
X134743924Y-102756336D01*
X134742491Y-102873465D01*
X134741188Y-102967471D01*
X134740133Y-103028732D01*
X134737532Y-103150542D01*
X133974896Y-103150542D01*
X133974896Y-102024725D01*
X133863678Y-102036247D01*
X133851201Y-102037507D01*
X133769659Y-102044936D01*
X133668640Y-102053244D01*
X133567098Y-102060857D01*
X133381735Y-102073945D01*
X133381735Y-103150542D01*
X132619100Y-103150542D01*
X132619100Y-99549208D01*
X133381735Y-99549208D01*
X133381735Y-101434612D01*
G37*
G36*
X122862748Y-99537277D02*
G01*
X123072295Y-99545890D01*
X123242570Y-99562056D01*
X123374412Y-99585833D01*
X123468654Y-99617276D01*
X123485876Y-99625547D01*
X123637861Y-99723460D01*
X123761204Y-99851123D01*
X123852924Y-100004731D01*
X123910041Y-100180484D01*
X123911810Y-100190992D01*
X123917205Y-100251629D01*
X123921860Y-100347825D01*
X123925776Y-100474387D01*
X123928952Y-100626119D01*
X123931391Y-100797826D01*
X123933092Y-100984314D01*
X123934056Y-101180388D01*
X123934285Y-101380852D01*
X123933778Y-101580513D01*
X123932537Y-101774175D01*
X123930562Y-101956644D01*
X123927855Y-102122724D01*
X123924415Y-102267221D01*
X123920243Y-102384940D01*
X123915341Y-102470687D01*
X123909709Y-102519266D01*
X123899152Y-102563288D01*
X123836316Y-102727795D01*
X123743747Y-102871631D01*
X123626247Y-102989703D01*
X123488616Y-103076920D01*
X123335653Y-103128189D01*
X123322125Y-103130099D01*
X123262580Y-103134240D01*
X123169215Y-103137747D01*
X123048039Y-103140501D01*
X122905061Y-103142386D01*
X122746288Y-103143282D01*
X122577732Y-103143072D01*
X121910426Y-103139950D01*
X121904841Y-102313762D01*
X121903683Y-102129485D01*
X121902910Y-101953047D01*
X121902875Y-101811498D01*
X121903723Y-101700832D01*
X121905596Y-101617045D01*
X121908639Y-101556130D01*
X121912995Y-101514083D01*
X121918806Y-101486897D01*
X121926217Y-101470569D01*
X121935370Y-101461093D01*
X121956674Y-101452999D01*
X122003711Y-101445940D01*
X122078824Y-101440737D01*
X122185580Y-101437224D01*
X122327549Y-101435238D01*
X122508300Y-101434612D01*
X122539828Y-101434613D01*
X122706475Y-101434863D01*
X122835550Y-101436261D01*
X122931169Y-101439812D01*
X122997448Y-101446519D01*
X123038502Y-101457386D01*
X123058446Y-101473415D01*
X123061397Y-101495612D01*
X123051470Y-101524980D01*
X123032779Y-101562522D01*
X123023129Y-101582513D01*
X122993683Y-101654474D01*
X122967738Y-101730995D01*
X122932767Y-101821229D01*
X122864713Y-101917691D01*
X122774758Y-101977943D01*
X122703503Y-102007715D01*
X122709466Y-102256068D01*
X122715430Y-102504420D01*
X122810759Y-102497661D01*
X122933332Y-102473625D01*
X123029261Y-102419327D01*
X123095412Y-102334946D01*
X123100011Y-102325818D01*
X123110174Y-102302453D01*
X123118481Y-102275159D01*
X123125164Y-102239665D01*
X123130453Y-102191699D01*
X123134580Y-102126992D01*
X123137776Y-102041271D01*
X123140271Y-101930266D01*
X123142298Y-101789705D01*
X123144087Y-101615319D01*
X123145870Y-101402836D01*
X123145879Y-101401783D01*
X123147567Y-101163461D01*
X123148351Y-100963691D01*
X123147994Y-100798675D01*
X123146261Y-100664617D01*
X123142917Y-100557719D01*
X123137726Y-100474184D01*
X123130451Y-100410217D01*
X123120858Y-100362020D01*
X123108711Y-100325796D01*
X123093774Y-100297748D01*
X123075812Y-100274079D01*
X123050548Y-100247732D01*
X123022219Y-100230118D01*
X122981560Y-100219534D01*
X122918561Y-100213410D01*
X122823210Y-100209173D01*
X122620100Y-100201832D01*
X122619427Y-100526938D01*
X122619027Y-100597015D01*
X122616381Y-100718317D01*
X122610983Y-100804302D01*
X122602451Y-100859741D01*
X122590403Y-100889401D01*
X122571942Y-100905214D01*
X122529267Y-100921496D01*
X122458599Y-100934880D01*
X122352753Y-100947111D01*
X122301802Y-100951878D01*
X122204804Y-100959995D01*
X122122391Y-100965710D01*
X122068339Y-100968011D01*
X121993225Y-100968557D01*
X121951825Y-100261863D01*
X121910426Y-99555168D01*
X122344704Y-99541789D01*
X122613094Y-99536162D01*
X122862748Y-99537277D01*
G37*
G36*
X129764963Y-99540125D02*
G01*
X129905569Y-99540830D01*
X130077264Y-99542958D01*
X130216816Y-99546335D01*
X130321670Y-99550870D01*
X130389273Y-99556475D01*
X130417072Y-99563060D01*
X130419722Y-99570900D01*
X130424426Y-99618211D01*
X130428182Y-99707135D01*
X130430983Y-99837173D01*
X130432822Y-100007825D01*
X130433694Y-100218590D01*
X130433592Y-100468970D01*
X130432509Y-100758464D01*
X130426522Y-101932444D01*
X130377823Y-102038101D01*
X130333490Y-102121508D01*
X130272044Y-102201526D01*
X130195649Y-102263834D01*
X130098883Y-102310970D01*
X129976321Y-102345467D01*
X129822538Y-102369863D01*
X129632110Y-102386691D01*
X129556203Y-102391408D01*
X129435235Y-102397973D01*
X129322458Y-102403088D01*
X129234904Y-102405927D01*
X129081318Y-102409091D01*
X129081318Y-101879483D01*
X129353553Y-101879483D01*
X129360082Y-101879477D01*
X129468794Y-101877636D01*
X129566620Y-101872978D01*
X129643066Y-101866180D01*
X129687643Y-101857920D01*
X129706575Y-101851236D01*
X129732913Y-101839961D01*
X129754481Y-101824732D01*
X129771792Y-101801709D01*
X129785357Y-101767049D01*
X129795687Y-101716912D01*
X129803293Y-101647456D01*
X129808688Y-101554840D01*
X129812382Y-101435222D01*
X129814887Y-101284760D01*
X129816714Y-101099615D01*
X129818375Y-100875943D01*
X129824572Y-100010101D01*
X129648900Y-100022816D01*
X129624029Y-100024604D01*
X129510605Y-100032574D01*
X129384025Y-100041251D01*
X129267326Y-100049052D01*
X129061425Y-100062573D01*
X129061893Y-99836554D01*
X129062144Y-99791984D01*
X129064653Y-99699503D01*
X129070752Y-99637955D01*
X129081591Y-99599070D01*
X129098320Y-99574575D01*
X129103209Y-99570169D01*
X129119567Y-99560728D01*
X129145523Y-99553396D01*
X129185758Y-99547930D01*
X129244953Y-99544088D01*
X129327790Y-99541628D01*
X129438950Y-99540309D01*
X129583114Y-99539889D01*
X129764963Y-99540125D01*
G37*
G36*
X132449717Y-101032110D02*
G01*
X132484589Y-101033231D01*
X132538640Y-101040371D01*
X132565291Y-101051923D01*
X132564406Y-101069761D01*
X132546019Y-101115084D01*
X132512821Y-101173733D01*
X132471738Y-101242928D01*
X132431960Y-101325753D01*
X132401924Y-101414067D01*
X132380112Y-101515236D01*
X132365007Y-101636624D01*
X132355090Y-101785596D01*
X132348845Y-101969516D01*
X132338756Y-102387907D01*
X131729358Y-102387907D01*
X131729358Y-101504385D01*
X131618140Y-101512587D01*
X131588089Y-101514898D01*
X131488723Y-101523347D01*
X131395705Y-101532186D01*
X131284487Y-101543583D01*
X131284487Y-102387907D01*
X130670142Y-102387907D01*
X130670142Y-101010926D01*
X131284487Y-101010926D01*
X131733257Y-101010926D01*
X131726011Y-100596070D01*
X131718766Y-100181214D01*
X131649583Y-100119423D01*
X131608338Y-100086404D01*
X131567862Y-100067670D01*
X131514061Y-100059454D01*
X131432443Y-100057631D01*
X131284487Y-100057631D01*
X131284487Y-101010926D01*
X130670142Y-101010926D01*
X130670142Y-99546886D01*
X131300376Y-99553343D01*
X131470959Y-99555208D01*
X131616715Y-99557286D01*
X131730026Y-99559821D01*
X131816012Y-99563189D01*
X131879796Y-99567762D01*
X131926499Y-99573917D01*
X131961244Y-99582026D01*
X131989152Y-99592465D01*
X132015346Y-99605608D01*
X132081845Y-99648201D01*
X132193480Y-99754240D01*
X132283163Y-99888157D01*
X132287055Y-99895643D01*
X132301747Y-99926505D01*
X132313052Y-99958682D01*
X132321506Y-99998041D01*
X132327644Y-100050445D01*
X132332001Y-100121758D01*
X132335115Y-100217845D01*
X132337519Y-100344570D01*
X132339750Y-100507798D01*
X132346121Y-101010926D01*
X132346389Y-101032110D01*
X132449717Y-101032110D01*
G37*
G36*
X127737297Y-99548777D02*
G01*
X127818642Y-99556114D01*
X127877219Y-99567428D01*
X127903322Y-99582717D01*
X127903652Y-99583770D01*
X127906983Y-99616788D01*
X127909976Y-99685838D01*
X127912512Y-99785134D01*
X127914470Y-99908888D01*
X127915733Y-100051315D01*
X127916180Y-100206628D01*
X127916180Y-100797030D01*
X128069767Y-100926848D01*
X128109940Y-100961487D01*
X128161891Y-101007230D01*
X128203370Y-101041476D01*
X128235541Y-101061138D01*
X128259568Y-101063132D01*
X128276615Y-101044371D01*
X128287846Y-101001771D01*
X128294425Y-100932245D01*
X128297515Y-100832709D01*
X128298282Y-100700076D01*
X128297888Y-100531262D01*
X128297498Y-100323181D01*
X128297498Y-99549208D01*
X128890659Y-99549208D01*
X128890659Y-102387907D01*
X128300547Y-102387907D01*
X128288221Y-102276689D01*
X128282868Y-102200685D01*
X128280327Y-102101419D01*
X128281401Y-102003191D01*
X128282223Y-101976980D01*
X128282511Y-101901291D01*
X128276350Y-101852166D01*
X128261056Y-101817214D01*
X128233945Y-101784039D01*
X128232399Y-101782390D01*
X128179533Y-101734744D01*
X128126560Y-101698841D01*
X128072136Y-101670516D01*
X127949188Y-101985843D01*
X127924113Y-102049461D01*
X127881315Y-102154925D01*
X127843417Y-102244538D01*
X127813806Y-102310382D01*
X127795864Y-102344539D01*
X127792924Y-102348610D01*
X127777714Y-102364214D01*
X127754803Y-102375045D01*
X127717260Y-102381966D01*
X127658150Y-102385842D01*
X127570540Y-102387534D01*
X127447497Y-102387907D01*
X127129505Y-102387907D01*
X127144062Y-102340242D01*
X127149788Y-102323238D01*
X127169395Y-102268096D01*
X127200075Y-102183364D01*
X127239589Y-102075193D01*
X127285694Y-101949733D01*
X127336149Y-101813136D01*
X127369336Y-101722733D01*
X127415806Y-101593305D01*
X127455536Y-101479218D01*
X127486464Y-101386543D01*
X127506531Y-101321356D01*
X127513678Y-101289727D01*
X127512113Y-101279080D01*
X127486663Y-101234268D01*
X127438064Y-101186600D01*
X127419367Y-101171928D01*
X127387274Y-101144953D01*
X127361630Y-101117263D01*
X127341710Y-101084230D01*
X127326793Y-101041226D01*
X127316154Y-100983623D01*
X127309071Y-100906792D01*
X127304821Y-100806105D01*
X127302680Y-100676934D01*
X127301926Y-100514651D01*
X127301835Y-100314628D01*
X127301990Y-100205965D01*
X127302822Y-100044390D01*
X127304292Y-99898881D01*
X127306306Y-99774699D01*
X127308773Y-99677104D01*
X127311599Y-99611356D01*
X127314694Y-99582717D01*
X127328808Y-99571729D01*
X127378384Y-99559187D01*
X127453728Y-99550621D01*
X127545133Y-99546030D01*
X127642891Y-99545416D01*
X127737297Y-99548777D01*
G37*
G36*
X126666493Y-99549284D02*
G01*
X126820422Y-99550170D01*
X126957455Y-99551947D01*
X127072500Y-99554482D01*
X127160461Y-99557647D01*
X127216243Y-99561311D01*
X127234751Y-99565342D01*
X127233878Y-99567400D01*
X127220968Y-99599458D01*
X127197732Y-99658099D01*
X127168520Y-99732360D01*
X127147703Y-99783362D01*
X127105954Y-99867140D01*
X127062817Y-99920614D01*
X127011034Y-99951343D01*
X126943346Y-99966887D01*
X126856964Y-99978473D01*
X126856964Y-100937048D01*
X126856770Y-101172242D01*
X126856693Y-101368624D01*
X126857483Y-101529736D01*
X126859892Y-101659118D01*
X126864671Y-101760313D01*
X126872572Y-101836861D01*
X126884345Y-101892304D01*
X126900742Y-101930183D01*
X126922514Y-101954040D01*
X126950413Y-101967415D01*
X126985188Y-101973851D01*
X127027592Y-101976889D01*
X127078377Y-101980070D01*
X127147204Y-101988434D01*
X127197780Y-102000197D01*
X127217098Y-102012610D01*
X127207245Y-102065066D01*
X127179856Y-102140117D01*
X127142076Y-102220346D01*
X127101089Y-102290588D01*
X127064078Y-102335675D01*
X127002004Y-102387907D01*
X125967223Y-102387907D01*
X125967223Y-101943036D01*
X126221435Y-101943036D01*
X126221435Y-99951710D01*
X125967223Y-99951710D01*
X125967223Y-99549208D01*
X126604518Y-99549208D01*
X126666493Y-99549284D01*
G37*
G36*
X125452171Y-99528023D02*
G01*
X125734195Y-99528023D01*
X125734195Y-102387907D01*
X125141034Y-102387907D01*
X125140054Y-101450500D01*
X125139074Y-100513094D01*
X125002127Y-100661385D01*
X124977778Y-100688462D01*
X124910215Y-100770333D01*
X124851599Y-100850345D01*
X124812448Y-100914460D01*
X124759717Y-101019245D01*
X124759717Y-102387907D01*
X124145371Y-102387907D01*
X124145371Y-99549208D01*
X124759717Y-99549208D01*
X124759717Y-100040608D01*
X124911109Y-99842572D01*
X124935606Y-99810436D01*
X125012159Y-99709729D01*
X125070748Y-99636162D01*
X125118643Y-99585509D01*
X125163115Y-99553543D01*
X125211433Y-99536038D01*
X125270868Y-99528768D01*
X125348691Y-99527505D01*
X125452171Y-99528023D01*
G37*
G36*
X136008591Y-98532360D02*
G01*
X136728858Y-98532360D01*
X136728858Y-96159717D01*
X137703336Y-96159717D01*
X137703336Y-98551831D01*
X137871164Y-98557984D01*
X138038993Y-98564137D01*
X137911382Y-98860717D01*
X137878940Y-98936485D01*
X137828439Y-99058205D01*
X137788671Y-99163455D01*
X137758355Y-99259587D01*
X137736214Y-99353956D01*
X137720966Y-99453918D01*
X137711334Y-99566827D01*
X137706038Y-99700038D01*
X137703799Y-99860905D01*
X137703336Y-100056783D01*
X137703332Y-100075847D01*
X137702647Y-100261838D01*
X137700711Y-100408813D01*
X137697397Y-100519832D01*
X137692578Y-100597953D01*
X137686127Y-100646236D01*
X137677915Y-100667740D01*
X137658906Y-100674768D01*
X137602334Y-100682462D01*
X137517237Y-100688289D01*
X137411488Y-100692251D01*
X137292960Y-100694347D01*
X137169525Y-100694577D01*
X137049055Y-100692942D01*
X136939423Y-100689440D01*
X136848502Y-100684072D01*
X136784163Y-100676839D01*
X136754279Y-100667740D01*
X136748746Y-100656003D01*
X136742227Y-100618191D01*
X136737132Y-100552840D01*
X136733353Y-100456987D01*
X136730785Y-100327666D01*
X136729322Y-100161914D01*
X136728858Y-99956767D01*
X136728858Y-99271216D01*
X136638824Y-99282455D01*
X136593647Y-99287045D01*
X136510468Y-99293700D01*
X136408205Y-99300674D01*
X136299601Y-99307045D01*
X136275240Y-99308372D01*
X136174511Y-99314860D01*
X136106535Y-99322138D01*
X136063290Y-99331871D01*
X136036755Y-99345726D01*
X136018908Y-99365369D01*
X136012335Y-99377607D01*
X136004489Y-99405014D01*
X135998413Y-99447926D01*
X135993903Y-99510821D01*
X135990752Y-99598174D01*
X135988757Y-99714463D01*
X135987710Y-99864164D01*
X135987406Y-100051753D01*
X135987406Y-100693161D01*
X135055296Y-100693161D01*
X135055296Y-96159717D01*
X136008591Y-96159717D01*
X136008591Y-98532360D01*
G37*
G36*
X121587177Y-97277189D02*
G01*
X121592661Y-98394662D01*
X121735655Y-98400926D01*
X121814311Y-98406915D01*
X121863306Y-98418126D01*
X121878649Y-98435276D01*
X121871657Y-98460043D01*
X121849463Y-98516031D01*
X121815684Y-98593366D01*
X121774042Y-98683224D01*
X121765155Y-98701948D01*
X121713063Y-98815035D01*
X121671400Y-98914997D01*
X121638908Y-99008771D01*
X121614330Y-99103293D01*
X121596409Y-99205499D01*
X121583885Y-99322326D01*
X121575503Y-99460711D01*
X121570003Y-99627590D01*
X121566128Y-99829900D01*
X121556924Y-100417765D01*
X119357715Y-100417765D01*
X119357715Y-99652533D01*
X119447748Y-99663830D01*
X119461931Y-99665340D01*
X119524064Y-99670236D01*
X119617950Y-99676336D01*
X119736020Y-99683192D01*
X119870703Y-99690355D01*
X120014429Y-99697378D01*
X120073859Y-99700203D01*
X120213618Y-99707247D01*
X120340536Y-99714181D01*
X120447239Y-99720572D01*
X120526357Y-99725989D01*
X120570517Y-99729998D01*
X120649959Y-99740367D01*
X120649959Y-99422352D01*
X120649903Y-99337065D01*
X120649170Y-99239655D01*
X120646818Y-99174125D01*
X120641901Y-99134167D01*
X120633472Y-99113476D01*
X120620585Y-99105746D01*
X120602294Y-99104669D01*
X120585070Y-99105254D01*
X120527490Y-99108107D01*
X120438298Y-99113001D01*
X120324008Y-99119564D01*
X120191139Y-99127428D01*
X120046205Y-99136223D01*
X119958962Y-99141505D01*
X119815447Y-99149860D01*
X119685352Y-99157033D01*
X119575894Y-99162644D01*
X119494288Y-99166316D01*
X119447748Y-99167667D01*
X119357715Y-99167890D01*
X119357715Y-98405254D01*
X119968011Y-98405254D01*
X120121600Y-98404977D01*
X120278634Y-98403758D01*
X120400517Y-98401408D01*
X120491252Y-98397754D01*
X120554846Y-98392622D01*
X120595303Y-98385840D01*
X120616628Y-98377234D01*
X120617961Y-98376238D01*
X120629338Y-98364553D01*
X120638053Y-98345710D01*
X120644408Y-98314681D01*
X120648708Y-98266435D01*
X120651255Y-98195942D01*
X120652353Y-98098174D01*
X120652306Y-97968100D01*
X120651416Y-97800690D01*
X120650275Y-97666716D01*
X120648497Y-97531412D01*
X120646308Y-97415675D01*
X120643840Y-97325206D01*
X120641224Y-97265704D01*
X120638590Y-97242871D01*
X120627266Y-97242088D01*
X120579508Y-97243679D01*
X120500432Y-97248055D01*
X120396485Y-97254725D01*
X120274113Y-97263197D01*
X120139762Y-97272980D01*
X119999878Y-97283582D01*
X119860908Y-97294511D01*
X119729298Y-97305278D01*
X119611493Y-97315389D01*
X119513942Y-97324354D01*
X119443088Y-97331682D01*
X119405380Y-97336880D01*
X119357715Y-97346846D01*
X119357715Y-96159717D01*
X121581694Y-96159717D01*
X121587177Y-97277189D01*
G37*
G36*
X126650232Y-97287782D02*
G01*
X126655713Y-98415847D01*
X126800836Y-98278149D01*
X126837725Y-98243654D01*
X126881327Y-98202902D01*
X126917109Y-98166278D01*
X126945811Y-98129553D01*
X126968171Y-98088502D01*
X126984932Y-98038897D01*
X126996832Y-97976513D01*
X127004611Y-97897121D01*
X127009010Y-97796496D01*
X127010768Y-97670410D01*
X127010626Y-97514637D01*
X127009323Y-97324950D01*
X127007599Y-97097123D01*
X127001374Y-96180901D01*
X127416409Y-96180901D01*
X127435669Y-96180910D01*
X127586415Y-96181906D01*
X127698265Y-96184667D01*
X127774320Y-96189376D01*
X127817679Y-96196215D01*
X127831443Y-96205367D01*
X127825772Y-96231227D01*
X127808848Y-96289356D01*
X127783378Y-96370221D01*
X127752097Y-96464875D01*
X127672751Y-96699917D01*
X127678448Y-97335446D01*
X127684146Y-97970976D01*
X127747850Y-98101997D01*
X127816098Y-98214257D01*
X127922124Y-98332435D01*
X128032694Y-98431851D01*
X128043658Y-96180901D01*
X128700000Y-96180901D01*
X128700502Y-97414887D01*
X128701003Y-98648874D01*
X128369799Y-98972409D01*
X128038596Y-99295945D01*
X127862712Y-99136265D01*
X127686828Y-98976586D01*
X127671910Y-99135791D01*
X127665497Y-99195980D01*
X127655031Y-99256083D01*
X127641460Y-99286547D01*
X127622407Y-99295011D01*
X127618834Y-99294842D01*
X127578684Y-99289327D01*
X127507700Y-99277191D01*
X127414762Y-99260010D01*
X127308749Y-99239360D01*
X127029675Y-99183693D01*
X127015454Y-99080296D01*
X127001233Y-98976900D01*
X126821913Y-99139699D01*
X126642594Y-99302498D01*
X126347344Y-99007813D01*
X126341653Y-99002126D01*
X126248402Y-98907084D01*
X126164332Y-98818085D01*
X126094747Y-98740997D01*
X126044952Y-98681688D01*
X126020251Y-98646023D01*
X126013719Y-98627885D01*
X126007806Y-98599262D01*
X126002863Y-98557773D01*
X125998807Y-98500139D01*
X125995557Y-98423083D01*
X125993032Y-98323328D01*
X125991149Y-98197594D01*
X125989827Y-98042604D01*
X125988984Y-97855080D01*
X125988538Y-97631743D01*
X125988407Y-97369317D01*
X125988407Y-96159717D01*
X126644750Y-96159717D01*
X126650232Y-97287782D01*
G37*
G36*
X132004754Y-99231443D02*
G01*
X132004754Y-98634045D01*
X131932728Y-98562018D01*
X131908685Y-98539061D01*
X131866041Y-98503858D01*
X131839999Y-98489992D01*
X131834302Y-98494563D01*
X131817194Y-98530227D01*
X131795783Y-98593573D01*
X131773393Y-98675355D01*
X131771624Y-98682485D01*
X131724427Y-98864010D01*
X131681608Y-99011449D01*
X131643819Y-99122876D01*
X131611709Y-99196364D01*
X131585930Y-99229989D01*
X131576721Y-99233240D01*
X131528224Y-99240454D01*
X131449465Y-99246341D01*
X131349003Y-99250363D01*
X131235395Y-99251983D01*
X131216438Y-99252017D01*
X131100446Y-99251783D01*
X131019985Y-99250177D01*
X130969043Y-99246476D01*
X130941607Y-99239956D01*
X130931665Y-99229890D01*
X130933205Y-99215555D01*
X130935991Y-99206616D01*
X130957002Y-99134826D01*
X130984111Y-99036850D01*
X131015612Y-98919401D01*
X131049798Y-98789188D01*
X131084962Y-98652922D01*
X131119399Y-98517316D01*
X131151401Y-98389079D01*
X131179262Y-98274922D01*
X131201276Y-98181558D01*
X131215735Y-98115695D01*
X131220934Y-98084047D01*
X131220887Y-98081093D01*
X131208730Y-98036010D01*
X131171762Y-97981110D01*
X131105114Y-97909037D01*
X131097541Y-97901378D01*
X131040556Y-97837981D01*
X130996920Y-97779767D01*
X130975556Y-97738481D01*
X130973541Y-97724037D01*
X130970628Y-97667956D01*
X130968914Y-97579908D01*
X130968715Y-97531362D01*
X131602252Y-97531362D01*
X131790193Y-97692099D01*
X131862509Y-97752090D01*
X131925938Y-97801051D01*
X131971172Y-97831849D01*
X131991444Y-97839526D01*
X131994279Y-97824639D01*
X131997661Y-97772179D01*
X132000545Y-97687757D01*
X132002786Y-97577266D01*
X132004238Y-97446600D01*
X132004754Y-97301652D01*
X132004517Y-97137560D01*
X132003107Y-96999685D01*
X131999512Y-96895204D01*
X131992717Y-96819492D01*
X131981710Y-96767920D01*
X131965477Y-96735862D01*
X131943005Y-96718693D01*
X131913281Y-96711784D01*
X131875291Y-96710509D01*
X131872504Y-96710538D01*
X131804168Y-96723367D01*
X131729223Y-96753998D01*
X131663828Y-96794337D01*
X131624145Y-96836291D01*
X131620787Y-96846158D01*
X131613384Y-96896763D01*
X131607513Y-96978591D01*
X131603646Y-97083732D01*
X131602252Y-97204280D01*
X131602252Y-97531362D01*
X130968715Y-97531362D01*
X130968451Y-97466680D01*
X130969288Y-97335059D01*
X130971477Y-97191832D01*
X130972378Y-97146926D01*
X130975902Y-96995648D01*
X130979859Y-96878672D01*
X130984829Y-96789571D01*
X130991394Y-96721919D01*
X131000134Y-96669291D01*
X131011629Y-96625261D01*
X131026460Y-96583403D01*
X131029416Y-96575901D01*
X131101769Y-96437483D01*
X131197512Y-96331220D01*
X131321992Y-96251096D01*
X131443370Y-96191493D01*
X132052419Y-96184743D01*
X132661468Y-96177992D01*
X132661468Y-99231443D01*
X132004754Y-99231443D01*
G37*
G36*
X130484779Y-99236819D02*
G01*
X130397464Y-99239311D01*
X130146974Y-99244638D01*
X129933639Y-99245601D01*
X129753612Y-99241609D01*
X129603045Y-99232076D01*
X129478091Y-99216412D01*
X129374902Y-99194030D01*
X129289631Y-99164342D01*
X129218430Y-99126759D01*
X129157451Y-99080693D01*
X129102847Y-99025556D01*
X129077186Y-98996166D01*
X129046566Y-98958629D01*
X129021025Y-98921032D01*
X129000101Y-98879528D01*
X128983335Y-98830272D01*
X128970267Y-98769417D01*
X128960434Y-98693117D01*
X128953378Y-98597525D01*
X128948637Y-98478796D01*
X128945751Y-98333083D01*
X128944260Y-98156540D01*
X128943703Y-97945321D01*
X128943629Y-97722741D01*
X129589860Y-97722741D01*
X129589872Y-97796307D01*
X129590344Y-98000941D01*
X129591817Y-98168514D01*
X129594737Y-98303053D01*
X129599545Y-98408582D01*
X129606685Y-98489128D01*
X129616601Y-98548715D01*
X129629737Y-98591369D01*
X129646535Y-98621115D01*
X129667439Y-98641978D01*
X129692893Y-98657984D01*
X129720525Y-98668311D01*
X129784000Y-98682983D01*
X129859470Y-98693993D01*
X129886870Y-98696649D01*
X129950232Y-98698952D01*
X129988458Y-98690518D01*
X130014033Y-98669357D01*
X130016629Y-98665708D01*
X130023968Y-98647339D01*
X130030106Y-98615767D01*
X130035185Y-98567346D01*
X130039350Y-98498430D01*
X130042744Y-98405374D01*
X130045510Y-98284531D01*
X130047792Y-98132257D01*
X130049735Y-97944906D01*
X130051481Y-97718831D01*
X130052563Y-97570201D01*
X130054042Y-97362790D01*
X130054617Y-97192034D01*
X130053627Y-97054408D01*
X130050412Y-96946385D01*
X130044313Y-96864440D01*
X130034670Y-96805047D01*
X130020822Y-96764681D01*
X130002110Y-96739815D01*
X129977873Y-96726924D01*
X129947451Y-96722481D01*
X129910186Y-96722962D01*
X129865415Y-96724839D01*
X129781263Y-96731894D01*
X129698703Y-96756842D01*
X129644496Y-96803083D01*
X129612095Y-96874487D01*
X129610054Y-96884196D01*
X129604287Y-96940872D01*
X129599361Y-97035359D01*
X129595365Y-97164224D01*
X129592389Y-97324032D01*
X129590524Y-97511349D01*
X129589860Y-97722741D01*
X128943629Y-97722741D01*
X128943620Y-97695580D01*
X128943620Y-96678732D01*
X128999787Y-96558927D01*
X129008128Y-96541766D01*
X129098185Y-96405750D01*
X129215548Y-96296294D01*
X129353023Y-96220293D01*
X129378137Y-96210795D01*
X129415021Y-96199005D01*
X129455941Y-96189752D01*
X129506373Y-96182621D01*
X129571793Y-96177197D01*
X129657677Y-96173067D01*
X129769501Y-96169816D01*
X129912739Y-96167029D01*
X130092869Y-96164291D01*
X130712511Y-96155478D01*
X130712511Y-99230010D01*
X130484779Y-99236819D01*
G37*
G36*
X122965194Y-99231443D02*
G01*
X122952358Y-99078333D01*
X122947793Y-98995058D01*
X122947034Y-98892783D01*
X122951293Y-98808233D01*
X122954610Y-98760699D01*
X122946449Y-98661194D01*
X122912243Y-98587730D01*
X122849341Y-98533154D01*
X122836908Y-98525782D01*
X122794494Y-98503931D01*
X122773750Y-98498756D01*
X122770225Y-98507895D01*
X122757171Y-98551602D01*
X122736744Y-98624859D01*
X122710911Y-98720566D01*
X122681634Y-98831624D01*
X122664579Y-98895668D01*
X122633620Y-99005514D01*
X122605068Y-99099235D01*
X122581514Y-99168496D01*
X122565550Y-99204963D01*
X122557759Y-99216166D01*
X122542445Y-99231061D01*
X122518830Y-99241227D01*
X122480100Y-99247566D01*
X122419443Y-99250979D01*
X122330044Y-99252365D01*
X122205090Y-99252627D01*
X122165892Y-99252607D01*
X122052000Y-99252024D01*
X121972906Y-99250120D01*
X121922708Y-99246208D01*
X121895502Y-99239601D01*
X121885384Y-99229612D01*
X121886450Y-99215555D01*
X121893043Y-99192140D01*
X121912673Y-99120230D01*
X121939168Y-99021442D01*
X121970553Y-98903311D01*
X122004851Y-98773373D01*
X122040087Y-98639161D01*
X122074285Y-98508213D01*
X122105470Y-98388062D01*
X122131666Y-98286244D01*
X122150896Y-98210294D01*
X122161186Y-98167747D01*
X122170068Y-98111981D01*
X122162582Y-98034722D01*
X122122721Y-97970341D01*
X122045862Y-97908441D01*
X122019489Y-97889841D01*
X121987772Y-97860902D01*
X121963443Y-97825343D01*
X121945645Y-97778059D01*
X121933518Y-97713949D01*
X121926205Y-97627907D01*
X121922847Y-97514830D01*
X121922586Y-97369614D01*
X121923149Y-97317693D01*
X122534456Y-97317693D01*
X122536878Y-97405027D01*
X122544535Y-97464434D01*
X122554554Y-97489117D01*
X122588861Y-97544393D01*
X122635763Y-97603073D01*
X122683680Y-97650516D01*
X122759885Y-97715638D01*
X122837833Y-97773724D01*
X122961762Y-97857883D01*
X122955110Y-97329773D01*
X122954943Y-97316748D01*
X122952091Y-97143078D01*
X122948408Y-97007561D01*
X122943652Y-96906248D01*
X122937580Y-96835189D01*
X122929948Y-96790436D01*
X122920513Y-96768040D01*
X122919860Y-96767261D01*
X122861568Y-96728052D01*
X122785965Y-96716198D01*
X122705953Y-96729572D01*
X122634432Y-96766046D01*
X122584303Y-96823491D01*
X122577296Y-96841780D01*
X122563644Y-96906034D01*
X122551862Y-96996600D01*
X122542621Y-97102631D01*
X122536594Y-97213278D01*
X122534456Y-97317693D01*
X121923149Y-97317693D01*
X121924563Y-97187156D01*
X121925166Y-97143980D01*
X121927511Y-96993272D01*
X121930150Y-96877219D01*
X121933696Y-96789634D01*
X121938762Y-96724332D01*
X121945960Y-96675126D01*
X121955904Y-96635829D01*
X121969207Y-96600255D01*
X121986481Y-96562219D01*
X122011136Y-96512554D01*
X122079093Y-96404904D01*
X122158836Y-96323480D01*
X122260843Y-96256614D01*
X122305863Y-96233941D01*
X122361043Y-96213139D01*
X122425938Y-96198044D01*
X122511423Y-96186252D01*
X122628375Y-96175359D01*
X122751561Y-96168279D01*
X122908394Y-96164621D01*
X123076538Y-96165070D01*
X123240092Y-96169775D01*
X123594579Y-96185411D01*
X123594579Y-99231443D01*
X122965194Y-99231443D01*
G37*
G36*
X134758716Y-97769725D02*
G01*
X134854045Y-97769725D01*
X134882541Y-97770743D01*
X134930443Y-97778678D01*
X134949375Y-97791905D01*
X134949103Y-97794587D01*
X134940825Y-97829528D01*
X134922725Y-97894951D01*
X134897141Y-97982620D01*
X134866409Y-98084296D01*
X134810665Y-98280088D01*
X134771615Y-98456019D01*
X134748812Y-98620907D01*
X134740427Y-98788080D01*
X134744628Y-98970865D01*
X134757835Y-99231443D01*
X134102002Y-99231443D01*
X134102002Y-98299333D01*
X134001376Y-98299483D01*
X133943779Y-98300882D01*
X133850642Y-98305847D01*
X133757757Y-98313139D01*
X133614763Y-98326644D01*
X133614763Y-99231443D01*
X132936864Y-99231443D01*
X132936864Y-97769725D01*
X133614763Y-97769725D01*
X134075058Y-97769725D01*
X134089945Y-97527973D01*
X134093140Y-97462372D01*
X134095965Y-97328464D01*
X134094868Y-97194733D01*
X134089855Y-97082184D01*
X134089540Y-97077933D01*
X134076931Y-96959524D01*
X134056601Y-96874295D01*
X134023863Y-96813427D01*
X133974031Y-96768100D01*
X133902416Y-96729497D01*
X133816447Y-96698785D01*
X133732101Y-96693569D01*
X133661845Y-96722302D01*
X133656215Y-96726320D01*
X133642705Y-96738327D01*
X133632505Y-96755393D01*
X133625148Y-96782847D01*
X133620170Y-96826021D01*
X133617108Y-96890243D01*
X133615495Y-96980844D01*
X133614868Y-97103154D01*
X133614763Y-97262502D01*
X133614763Y-97769725D01*
X132936864Y-97769725D01*
X132936864Y-97708438D01*
X132936865Y-97673378D01*
X132936952Y-97385426D01*
X132937226Y-97136672D01*
X132937749Y-96924268D01*
X132938584Y-96745362D01*
X132939792Y-96597107D01*
X132941436Y-96476653D01*
X132943579Y-96381151D01*
X132946281Y-96307752D01*
X132949606Y-96253606D01*
X132953616Y-96215865D01*
X132958372Y-96191679D01*
X132963937Y-96178199D01*
X132970373Y-96172575D01*
X132989101Y-96169069D01*
X133048204Y-96164835D01*
X133138061Y-96161876D01*
X133251678Y-96160132D01*
X133382060Y-96159544D01*
X133522214Y-96160050D01*
X133665147Y-96161594D01*
X133803864Y-96164116D01*
X133931372Y-96167556D01*
X134040677Y-96171856D01*
X134124784Y-96176956D01*
X134176701Y-96182796D01*
X134201287Y-96187668D01*
X134368276Y-96241513D01*
X134505852Y-96325804D01*
X134613455Y-96439968D01*
X134690524Y-96583430D01*
X134736497Y-96755615D01*
X134737266Y-96760621D01*
X134743962Y-96827957D01*
X134749787Y-96927625D01*
X134754393Y-97050578D01*
X134757431Y-97187768D01*
X134758543Y-97328464D01*
X134758556Y-97330150D01*
X134758716Y-97769725D01*
G37*
G36*
X125829312Y-97772781D02*
G01*
X125898219Y-97782405D01*
X125961618Y-97795084D01*
X125889506Y-97914807D01*
X125860171Y-97964892D01*
X125817154Y-98047494D01*
X125784134Y-98128812D01*
X125759652Y-98216120D01*
X125742253Y-98316688D01*
X125730478Y-98437790D01*
X125722869Y-98586698D01*
X125717969Y-98770684D01*
X125708862Y-99231443D01*
X125035113Y-99231443D01*
X125035113Y-98299333D01*
X124953572Y-98299333D01*
X124951963Y-98299335D01*
X124888435Y-98301295D01*
X124801668Y-98306204D01*
X124709952Y-98313034D01*
X124547873Y-98326734D01*
X124547873Y-99231443D01*
X123891160Y-99231443D01*
X123891160Y-97769725D01*
X124569058Y-97769725D01*
X125035113Y-97769725D01*
X125035113Y-97326233D01*
X125035054Y-97292175D01*
X125033673Y-97158300D01*
X125030677Y-97037888D01*
X125026361Y-96938165D01*
X125021019Y-96866357D01*
X125014943Y-96829690D01*
X125003005Y-96803996D01*
X124973159Y-96769918D01*
X124924913Y-96746514D01*
X124850282Y-96730547D01*
X124741279Y-96718780D01*
X124569058Y-96704417D01*
X124569058Y-97769725D01*
X123891160Y-97769725D01*
X123891160Y-97719358D01*
X123891183Y-97559417D01*
X123891380Y-97287188D01*
X123891824Y-97053004D01*
X123892575Y-96854036D01*
X123893689Y-96687454D01*
X123895224Y-96550429D01*
X123897239Y-96440131D01*
X123899791Y-96353730D01*
X123902938Y-96288397D01*
X123906739Y-96241302D01*
X123911251Y-96209615D01*
X123916531Y-96190507D01*
X123922639Y-96181147D01*
X123933389Y-96175814D01*
X123966824Y-96169255D01*
X124023905Y-96164722D01*
X124108371Y-96162120D01*
X124223960Y-96161355D01*
X124374412Y-96162332D01*
X124563465Y-96164957D01*
X124647994Y-96166398D01*
X124816104Y-96169851D01*
X124949287Y-96173737D01*
X125052744Y-96178398D01*
X125131674Y-96184175D01*
X125191279Y-96191410D01*
X125236759Y-96200445D01*
X125273314Y-96211622D01*
X125340622Y-96242304D01*
X125459262Y-96326223D01*
X125562673Y-96437509D01*
X125640789Y-96566445D01*
X125702419Y-96699917D01*
X125716223Y-97769725D01*
X125775522Y-97769725D01*
X125829312Y-97772781D01*
G37*
G36*
X152025115Y-103598920D02*
G01*
X152015559Y-103717386D01*
X152002821Y-103808767D01*
X151987243Y-103865457D01*
X151961188Y-103909092D01*
X151884703Y-103978585D01*
X151780260Y-104023025D01*
X151774445Y-104024454D01*
X151684302Y-104034200D01*
X151578266Y-104029443D01*
X151475453Y-104012112D01*
X151394985Y-103984136D01*
X151360746Y-103965301D01*
X151322308Y-103938112D01*
X151292924Y-103904764D01*
X151271478Y-103860086D01*
X151256853Y-103798908D01*
X151247936Y-103716060D01*
X151243608Y-103606371D01*
X151242756Y-103464673D01*
X151243957Y-103321967D01*
X151557381Y-103321967D01*
X151557400Y-103356503D01*
X151558072Y-103479212D01*
X151560192Y-103567659D01*
X151564418Y-103628402D01*
X151571408Y-103668000D01*
X151581820Y-103693013D01*
X151596312Y-103709999D01*
X151616388Y-103726873D01*
X151641349Y-103732418D01*
X151670970Y-103705751D01*
X151673181Y-103703221D01*
X151685680Y-103682982D01*
X151694394Y-103652531D01*
X151699799Y-103605439D01*
X151702367Y-103535282D01*
X151702572Y-103435633D01*
X151700889Y-103300065D01*
X151700027Y-103248375D01*
X151697351Y-103127599D01*
X151693794Y-103040839D01*
X151688657Y-102981918D01*
X151681239Y-102944655D01*
X151670842Y-102922872D01*
X151656766Y-102910390D01*
X151652324Y-102907760D01*
X151618476Y-102900274D01*
X151587917Y-102928044D01*
X151586058Y-102930717D01*
X151574543Y-102958884D01*
X151566364Y-103006326D01*
X151561076Y-103078810D01*
X151558230Y-103182101D01*
X151557381Y-103321967D01*
X151243957Y-103321967D01*
X151244262Y-103285794D01*
X151250209Y-102773739D01*
X151303170Y-102716383D01*
X151378850Y-102654471D01*
X151483188Y-102613928D01*
X151614958Y-102601052D01*
X151663005Y-102602013D01*
X151784039Y-102616606D01*
X151876832Y-102650790D01*
X151949591Y-102707168D01*
X151966468Y-102725415D01*
X151987728Y-102754390D01*
X152002041Y-102789187D01*
X152011622Y-102838933D01*
X152018685Y-102912752D01*
X152025444Y-103019771D01*
X152031250Y-103157048D01*
X152033304Y-103311146D01*
X152031509Y-103435633D01*
X152031144Y-103460972D01*
X152025115Y-103598920D01*
G37*
G36*
X152743703Y-103182124D02*
G01*
X152743602Y-103245720D01*
X152742130Y-103419527D01*
X152739011Y-103565720D01*
X152734377Y-103680614D01*
X152728365Y-103760524D01*
X152721108Y-103801765D01*
X152684815Y-103868971D01*
X152626463Y-103936209D01*
X152563637Y-103978889D01*
X152544103Y-103983687D01*
X152485052Y-103990537D01*
X152402081Y-103995506D01*
X152306599Y-103997757D01*
X152277685Y-103997917D01*
X152190063Y-103997557D01*
X152134546Y-103994387D01*
X152102987Y-103986750D01*
X152087240Y-103972986D01*
X152079157Y-103951435D01*
X152064887Y-103870327D01*
X152075157Y-103800041D01*
X152115784Y-103758526D01*
X152187236Y-103744887D01*
X152257229Y-103736368D01*
X152328078Y-103715534D01*
X152339852Y-103710442D01*
X152378923Y-103686117D01*
X152399784Y-103649464D01*
X152412135Y-103585471D01*
X152413484Y-103574169D01*
X152418368Y-103506758D01*
X152422323Y-103410910D01*
X152424972Y-103297725D01*
X152425939Y-103178303D01*
X152425939Y-102871844D01*
X152256464Y-102879540D01*
X152086989Y-102887237D01*
X152086989Y-102622119D01*
X152743703Y-102622119D01*
X152743703Y-103182124D01*
G37*
G36*
X150064138Y-102603644D02*
G01*
X150123120Y-102609456D01*
X150161341Y-102613693D01*
X150236673Y-102627712D01*
X150297959Y-102652512D01*
X150359318Y-102695006D01*
X150434870Y-102762107D01*
X150533081Y-102853973D01*
X150616249Y-102768076D01*
X150649603Y-102735681D01*
X150711318Y-102683492D01*
X150762969Y-102648481D01*
X150786181Y-102638901D01*
X150852377Y-102624005D01*
X150932073Y-102615920D01*
X151011523Y-102615094D01*
X151076979Y-102621977D01*
X151114696Y-102637014D01*
X151116731Y-102639046D01*
X151123907Y-102647218D01*
X151129602Y-102658687D01*
X151133950Y-102677793D01*
X151137085Y-102708878D01*
X151139141Y-102756282D01*
X151140252Y-102824348D01*
X151140552Y-102917417D01*
X151140175Y-103039829D01*
X151139254Y-103195926D01*
X151137924Y-103390050D01*
X151133695Y-103999099D01*
X150815930Y-103999099D01*
X150815930Y-103510095D01*
X150815894Y-103451466D01*
X150815112Y-103297979D01*
X150812737Y-103182555D01*
X150808021Y-103101946D01*
X150800215Y-103052906D01*
X150788571Y-103032188D01*
X150772340Y-103036546D01*
X150750775Y-103062733D01*
X150723125Y-103107501D01*
X150712160Y-103128258D01*
X150701053Y-103158912D01*
X150693367Y-103199214D01*
X150688608Y-103255707D01*
X150686285Y-103334931D01*
X150685904Y-103443430D01*
X150686974Y-103587744D01*
X150691055Y-103999099D01*
X150373482Y-103999099D01*
X150366975Y-103565181D01*
X150360467Y-103131262D01*
X150291618Y-103062461D01*
X150222769Y-102993659D01*
X150222769Y-103999099D01*
X149929237Y-103999099D01*
X149915416Y-103887882D01*
X149912455Y-103847891D01*
X149909673Y-103766667D01*
X149907824Y-103656057D01*
X149906980Y-103523153D01*
X149907213Y-103375051D01*
X149908596Y-103218842D01*
X149910344Y-103077780D01*
X149912896Y-102927413D01*
X149917158Y-102811750D01*
X149924656Y-102726452D01*
X149936918Y-102667184D01*
X149955470Y-102629606D01*
X149981839Y-102609382D01*
X150017553Y-102602174D01*
X150064138Y-102603644D01*
G37*
G36*
X148733272Y-102603684D02*
G01*
X148788063Y-102609409D01*
X148846807Y-102617061D01*
X148948383Y-102645014D01*
X149026561Y-102693825D01*
X149093140Y-102769691D01*
X149114140Y-102797979D01*
X149149002Y-102838554D01*
X149170345Y-102854694D01*
X149188876Y-102846008D01*
X149231709Y-102816329D01*
X149286859Y-102772784D01*
X149321072Y-102744918D01*
X149408784Y-102681925D01*
X149485656Y-102644479D01*
X149564205Y-102627630D01*
X149656948Y-102626426D01*
X149788491Y-102632711D01*
X149794080Y-103315905D01*
X149799670Y-103999099D01*
X149481318Y-103999099D01*
X149481318Y-103498674D01*
X149481303Y-103455447D01*
X149480863Y-103306047D01*
X149479596Y-103193393D01*
X149477212Y-103112980D01*
X149473421Y-103060304D01*
X149467933Y-103030861D01*
X149460457Y-103020147D01*
X149450703Y-103023657D01*
X149447546Y-103026367D01*
X149411086Y-103075483D01*
X149384469Y-103151495D01*
X149367072Y-103258110D01*
X149358270Y-103399037D01*
X149357440Y-103577983D01*
X149358033Y-103635301D01*
X149357685Y-103747390D01*
X149355426Y-103843247D01*
X149351516Y-103914164D01*
X149346217Y-103951435D01*
X149344993Y-103954971D01*
X149331930Y-103978759D01*
X149307325Y-103992051D01*
X149260913Y-103997835D01*
X149182426Y-103999099D01*
X149034680Y-103999099D01*
X149037819Y-103588827D01*
X149038133Y-103543668D01*
X149038281Y-103402577D01*
X149036109Y-103295493D01*
X149030641Y-103215854D01*
X149020901Y-103157097D01*
X149005914Y-103112662D01*
X148984705Y-103075987D01*
X148956297Y-103040509D01*
X148932628Y-103017733D01*
X148906058Y-103003436D01*
X148902817Y-103011666D01*
X148898101Y-103055655D01*
X148894066Y-103132460D01*
X148890923Y-103236230D01*
X148888884Y-103361116D01*
X148888157Y-103501268D01*
X148888157Y-103999099D01*
X148566345Y-103999099D01*
X148573665Y-103330075D01*
X148575230Y-103180728D01*
X148577336Y-103012571D01*
X148580519Y-102879790D01*
X148585974Y-102778371D01*
X148594894Y-102704301D01*
X148608474Y-102653565D01*
X148627907Y-102622150D01*
X148654389Y-102606040D01*
X148689112Y-102601223D01*
X148733272Y-102603684D01*
G37*
G36*
X148485190Y-103187871D02*
G01*
X148484887Y-103336766D01*
X148483905Y-103478360D01*
X148481934Y-103587677D01*
X148478642Y-103670186D01*
X148473699Y-103731353D01*
X148466774Y-103776648D01*
X148457537Y-103811539D01*
X148445656Y-103841494D01*
X148406767Y-103904606D01*
X148334904Y-103962821D01*
X148305569Y-103974664D01*
X148256117Y-103986064D01*
X148187320Y-103993367D01*
X148091518Y-103997307D01*
X147961050Y-103998617D01*
X147658880Y-103999099D01*
X147664469Y-103315905D01*
X147670059Y-102632711D01*
X147805828Y-102626316D01*
X147865334Y-102625025D01*
X147929417Y-102631039D01*
X147959090Y-102647501D01*
X147962744Y-102664795D01*
X147967243Y-102720527D01*
X147971105Y-102807960D01*
X147974135Y-102920987D01*
X147976134Y-103053500D01*
X147976907Y-103199391D01*
X147977164Y-103351735D01*
X147977994Y-103479652D01*
X147979739Y-103574618D01*
X147982744Y-103641520D01*
X147987356Y-103685245D01*
X147993922Y-103710678D01*
X148002789Y-103722705D01*
X148014304Y-103726213D01*
X148083150Y-103723855D01*
X148136114Y-103699733D01*
X148139492Y-103691352D01*
X148146262Y-103645154D01*
X148152767Y-103563742D01*
X148158726Y-103451894D01*
X148163860Y-103314389D01*
X148167890Y-103156007D01*
X148178482Y-102632711D01*
X148332069Y-102626487D01*
X148485655Y-102620262D01*
X148485190Y-103187871D01*
G37*
G36*
X147554132Y-103999099D02*
G01*
X147235780Y-103999099D01*
X147235780Y-103584240D01*
X147235472Y-103466363D01*
X147233600Y-103342050D01*
X147229195Y-103255051D01*
X147221310Y-103202467D01*
X147209002Y-103181400D01*
X147191327Y-103188952D01*
X147167339Y-103222225D01*
X147136095Y-103278320D01*
X147117487Y-103316675D01*
X147103988Y-103356330D01*
X147095252Y-103404493D01*
X147090265Y-103469627D01*
X147088015Y-103560197D01*
X147087490Y-103684666D01*
X147087490Y-103999099D01*
X146789850Y-103999099D01*
X146776873Y-103934215D01*
X146763897Y-103869331D01*
X146696953Y-103934215D01*
X146630010Y-103999099D01*
X146131874Y-103999099D01*
X146138331Y-103898641D01*
X146138762Y-103892191D01*
X146147153Y-103830101D01*
X146166103Y-103794408D01*
X146177098Y-103787256D01*
X146600250Y-103787256D01*
X146651479Y-103787256D01*
X146688316Y-103789730D01*
X146735544Y-103799857D01*
X146744725Y-103800113D01*
X146752714Y-103789428D01*
X146758938Y-103763007D01*
X146763704Y-103716411D01*
X146767322Y-103645202D01*
X146770097Y-103544940D01*
X146772337Y-103411187D01*
X146774349Y-103239504D01*
X146774445Y-103230123D01*
X146775546Y-103081029D01*
X146775750Y-102947971D01*
X146775110Y-102836214D01*
X146773680Y-102751023D01*
X146771514Y-102697666D01*
X146768665Y-102681407D01*
X146755765Y-102697751D01*
X146722561Y-102739708D01*
X146678632Y-102795158D01*
X146600250Y-102894053D01*
X146600250Y-103787256D01*
X146177098Y-103787256D01*
X146203044Y-103770379D01*
X146261301Y-103742576D01*
X146261301Y-102864435D01*
X146196551Y-102839994D01*
X146169086Y-102830527D01*
X146135888Y-102827382D01*
X146120139Y-102845942D01*
X146116831Y-102851888D01*
X146079916Y-102870331D01*
X146004823Y-102876330D01*
X145901168Y-102876330D01*
X145901168Y-103999099D01*
X145583403Y-103999099D01*
X145583403Y-102872514D01*
X145482778Y-102879718D01*
X145382152Y-102886923D01*
X145382152Y-102632711D01*
X145728876Y-102626878D01*
X145733735Y-102626797D01*
X145882364Y-102625877D01*
X145994797Y-102628463D01*
X146069019Y-102634466D01*
X146103012Y-102643795D01*
X146121034Y-102654737D01*
X146144180Y-102644286D01*
X146159418Y-102638100D01*
X146216078Y-102631273D01*
X146312984Y-102626446D01*
X146448930Y-102623673D01*
X146622713Y-102623007D01*
X147087490Y-102623986D01*
X147087490Y-102818575D01*
X147193627Y-102719296D01*
X147219986Y-102694796D01*
X147269739Y-102652555D01*
X147309940Y-102631128D01*
X147355507Y-102624427D01*
X147421359Y-102626364D01*
X147542953Y-102632711D01*
X147545532Y-102947971D01*
X147548542Y-103315905D01*
X147554132Y-103999099D01*
G37*
G36*
X144729156Y-102622480D02*
G01*
X144777461Y-102627498D01*
X144809438Y-102643449D01*
X144828467Y-102676622D01*
X144837929Y-102733301D01*
X144841201Y-102819772D01*
X144841663Y-102942322D01*
X144842304Y-103023905D01*
X144845555Y-103102440D01*
X144852941Y-103155469D01*
X144865986Y-103192606D01*
X144886213Y-103223466D01*
X144930474Y-103279735D01*
X144976246Y-103221667D01*
X144979801Y-103217060D01*
X144998508Y-103186683D01*
X145011652Y-103148159D01*
X145020723Y-103092933D01*
X145027213Y-103012450D01*
X145032611Y-102898155D01*
X145043203Y-102632711D01*
X145339783Y-102632711D01*
X145339783Y-103388968D01*
X145279796Y-103434526D01*
X145219900Y-103480445D01*
X145159591Y-103531801D01*
X145122974Y-103577413D01*
X145104138Y-103628924D01*
X145097172Y-103697978D01*
X145096164Y-103796219D01*
X145096164Y-103999099D01*
X144778399Y-103999099D01*
X144778399Y-103817005D01*
X144776301Y-103727021D01*
X144764713Y-103638748D01*
X144738502Y-103572139D01*
X144692678Y-103515720D01*
X144622250Y-103458022D01*
X144534779Y-103393593D01*
X144523231Y-102622119D01*
X144669529Y-102622119D01*
X144729156Y-102622480D01*
G37*
G36*
X153781735Y-101414612D02*
G01*
X154374896Y-101414612D01*
X154374896Y-99529208D01*
X155158716Y-99529208D01*
X155158716Y-101412398D01*
X155269735Y-101418801D01*
X155296392Y-101420719D01*
X155351978Y-101430885D01*
X155380898Y-101452998D01*
X155384513Y-101493238D01*
X155364183Y-101557786D01*
X155321271Y-101652824D01*
X155265413Y-101773427D01*
X155221843Y-101880258D01*
X155190561Y-101979024D01*
X155169475Y-102079803D01*
X155156494Y-102192675D01*
X155149526Y-102327719D01*
X155146479Y-102495013D01*
X155145367Y-102605708D01*
X155143924Y-102736336D01*
X155142491Y-102853465D01*
X155141188Y-102947471D01*
X155140133Y-103008732D01*
X155137532Y-103130542D01*
X154374896Y-103130542D01*
X154374896Y-102004725D01*
X154263678Y-102016247D01*
X154251201Y-102017507D01*
X154169659Y-102024936D01*
X154068640Y-102033244D01*
X153967098Y-102040857D01*
X153781735Y-102053945D01*
X153781735Y-103130542D01*
X153019100Y-103130542D01*
X153019100Y-99529208D01*
X153781735Y-99529208D01*
X153781735Y-101414612D01*
G37*
G36*
X143262748Y-99517277D02*
G01*
X143472295Y-99525890D01*
X143642570Y-99542056D01*
X143774412Y-99565833D01*
X143868654Y-99597276D01*
X143885876Y-99605547D01*
X144037861Y-99703460D01*
X144161204Y-99831123D01*
X144252924Y-99984731D01*
X144310041Y-100160484D01*
X144311810Y-100170992D01*
X144317205Y-100231629D01*
X144321860Y-100327825D01*
X144325776Y-100454387D01*
X144328952Y-100606119D01*
X144331391Y-100777826D01*
X144333092Y-100964314D01*
X144334056Y-101160388D01*
X144334285Y-101360852D01*
X144333778Y-101560513D01*
X144332537Y-101754175D01*
X144330562Y-101936644D01*
X144327855Y-102102724D01*
X144324415Y-102247221D01*
X144320243Y-102364940D01*
X144315341Y-102450687D01*
X144309709Y-102499266D01*
X144299152Y-102543288D01*
X144236316Y-102707795D01*
X144143747Y-102851631D01*
X144026247Y-102969703D01*
X143888616Y-103056920D01*
X143735653Y-103108189D01*
X143722125Y-103110099D01*
X143662580Y-103114240D01*
X143569215Y-103117747D01*
X143448039Y-103120501D01*
X143305061Y-103122386D01*
X143146288Y-103123282D01*
X142977732Y-103123072D01*
X142310426Y-103119950D01*
X142304841Y-102293762D01*
X142303683Y-102109485D01*
X142302910Y-101933047D01*
X142302875Y-101791498D01*
X142303723Y-101680832D01*
X142305596Y-101597045D01*
X142308639Y-101536130D01*
X142312995Y-101494083D01*
X142318806Y-101466897D01*
X142326217Y-101450569D01*
X142335370Y-101441093D01*
X142356674Y-101432999D01*
X142403711Y-101425940D01*
X142478824Y-101420737D01*
X142585580Y-101417224D01*
X142727549Y-101415238D01*
X142908300Y-101414612D01*
X142939828Y-101414613D01*
X143106475Y-101414863D01*
X143235550Y-101416261D01*
X143331169Y-101419812D01*
X143397448Y-101426519D01*
X143438502Y-101437386D01*
X143458446Y-101453415D01*
X143461397Y-101475612D01*
X143451470Y-101504980D01*
X143432779Y-101542522D01*
X143423129Y-101562513D01*
X143393683Y-101634474D01*
X143367738Y-101710995D01*
X143332767Y-101801229D01*
X143264713Y-101897691D01*
X143174758Y-101957943D01*
X143103503Y-101987715D01*
X143109466Y-102236068D01*
X143115430Y-102484420D01*
X143210759Y-102477661D01*
X143333332Y-102453625D01*
X143429261Y-102399327D01*
X143495412Y-102314946D01*
X143500011Y-102305818D01*
X143510174Y-102282453D01*
X143518481Y-102255159D01*
X143525164Y-102219665D01*
X143530453Y-102171699D01*
X143534580Y-102106992D01*
X143537776Y-102021271D01*
X143540271Y-101910266D01*
X143542298Y-101769705D01*
X143544087Y-101595319D01*
X143545870Y-101382836D01*
X143545879Y-101381783D01*
X143547567Y-101143461D01*
X143548351Y-100943691D01*
X143547994Y-100778675D01*
X143546261Y-100644617D01*
X143542917Y-100537719D01*
X143537726Y-100454184D01*
X143530451Y-100390217D01*
X143520858Y-100342020D01*
X143508711Y-100305796D01*
X143493774Y-100277748D01*
X143475812Y-100254079D01*
X143450548Y-100227732D01*
X143422219Y-100210118D01*
X143381560Y-100199534D01*
X143318561Y-100193410D01*
X143223210Y-100189173D01*
X143020100Y-100181832D01*
X143019427Y-100506938D01*
X143019027Y-100577015D01*
X143016381Y-100698317D01*
X143010983Y-100784302D01*
X143002451Y-100839741D01*
X142990403Y-100869401D01*
X142971942Y-100885214D01*
X142929267Y-100901496D01*
X142858599Y-100914880D01*
X142752753Y-100927111D01*
X142701802Y-100931878D01*
X142604804Y-100939995D01*
X142522391Y-100945710D01*
X142468339Y-100948011D01*
X142393225Y-100948557D01*
X142351825Y-100241863D01*
X142310426Y-99535168D01*
X142744704Y-99521789D01*
X143013094Y-99516162D01*
X143262748Y-99517277D01*
G37*
G36*
X150164963Y-99520125D02*
G01*
X150305569Y-99520830D01*
X150477264Y-99522958D01*
X150616816Y-99526335D01*
X150721670Y-99530870D01*
X150789273Y-99536475D01*
X150817072Y-99543060D01*
X150819722Y-99550900D01*
X150824426Y-99598211D01*
X150828182Y-99687135D01*
X150830983Y-99817173D01*
X150832822Y-99987825D01*
X150833694Y-100198590D01*
X150833592Y-100448970D01*
X150832509Y-100738464D01*
X150826522Y-101912444D01*
X150777823Y-102018101D01*
X150733490Y-102101508D01*
X150672044Y-102181526D01*
X150595649Y-102243834D01*
X150498883Y-102290970D01*
X150376321Y-102325467D01*
X150222538Y-102349863D01*
X150032110Y-102366691D01*
X149956203Y-102371408D01*
X149835235Y-102377973D01*
X149722458Y-102383088D01*
X149634904Y-102385927D01*
X149481318Y-102389091D01*
X149481318Y-101859483D01*
X149753553Y-101859483D01*
X149760082Y-101859477D01*
X149868794Y-101857636D01*
X149966620Y-101852978D01*
X150043066Y-101846180D01*
X150087643Y-101837920D01*
X150106575Y-101831236D01*
X150132913Y-101819961D01*
X150154481Y-101804732D01*
X150171792Y-101781709D01*
X150185357Y-101747049D01*
X150195687Y-101696912D01*
X150203293Y-101627456D01*
X150208688Y-101534840D01*
X150212382Y-101415222D01*
X150214887Y-101264760D01*
X150216714Y-101079615D01*
X150218375Y-100855943D01*
X150224572Y-99990101D01*
X150048900Y-100002816D01*
X150024029Y-100004604D01*
X149910605Y-100012574D01*
X149784025Y-100021251D01*
X149667326Y-100029052D01*
X149461425Y-100042573D01*
X149461893Y-99816554D01*
X149462144Y-99771984D01*
X149464653Y-99679503D01*
X149470752Y-99617955D01*
X149481591Y-99579070D01*
X149498320Y-99554575D01*
X149503209Y-99550169D01*
X149519567Y-99540728D01*
X149545523Y-99533396D01*
X149585758Y-99527930D01*
X149644953Y-99524088D01*
X149727790Y-99521628D01*
X149838950Y-99520309D01*
X149983114Y-99519889D01*
X150164963Y-99520125D01*
G37*
G36*
X152849717Y-101012110D02*
G01*
X152884589Y-101013231D01*
X152938640Y-101020371D01*
X152965291Y-101031923D01*
X152964406Y-101049761D01*
X152946019Y-101095084D01*
X152912821Y-101153733D01*
X152871738Y-101222928D01*
X152831960Y-101305753D01*
X152801924Y-101394067D01*
X152780112Y-101495236D01*
X152765007Y-101616624D01*
X152755090Y-101765596D01*
X152748845Y-101949516D01*
X152738756Y-102367907D01*
X152129358Y-102367907D01*
X152129358Y-101484385D01*
X152018140Y-101492587D01*
X151988089Y-101494898D01*
X151888723Y-101503347D01*
X151795705Y-101512186D01*
X151684487Y-101523583D01*
X151684487Y-102367907D01*
X151070142Y-102367907D01*
X151070142Y-100990926D01*
X151684487Y-100990926D01*
X152133257Y-100990926D01*
X152126011Y-100576070D01*
X152118766Y-100161214D01*
X152049583Y-100099423D01*
X152008338Y-100066404D01*
X151967862Y-100047670D01*
X151914061Y-100039454D01*
X151832443Y-100037631D01*
X151684487Y-100037631D01*
X151684487Y-100990926D01*
X151070142Y-100990926D01*
X151070142Y-99526886D01*
X151700376Y-99533343D01*
X151870959Y-99535208D01*
X152016715Y-99537286D01*
X152130026Y-99539821D01*
X152216012Y-99543189D01*
X152279796Y-99547762D01*
X152326499Y-99553917D01*
X152361244Y-99562026D01*
X152389152Y-99572465D01*
X152415346Y-99585608D01*
X152481845Y-99628201D01*
X152593480Y-99734240D01*
X152683163Y-99868157D01*
X152687055Y-99875643D01*
X152701747Y-99906505D01*
X152713052Y-99938682D01*
X152721506Y-99978041D01*
X152727644Y-100030445D01*
X152732001Y-100101758D01*
X152735115Y-100197845D01*
X152737519Y-100324570D01*
X152739750Y-100487798D01*
X152746121Y-100990926D01*
X152746389Y-101012110D01*
X152849717Y-101012110D01*
G37*
G36*
X148137297Y-99528777D02*
G01*
X148218642Y-99536114D01*
X148277219Y-99547428D01*
X148303322Y-99562717D01*
X148303652Y-99563770D01*
X148306983Y-99596788D01*
X148309976Y-99665838D01*
X148312512Y-99765134D01*
X148314470Y-99888888D01*
X148315733Y-100031315D01*
X148316180Y-100186628D01*
X148316180Y-100777030D01*
X148469767Y-100906848D01*
X148509940Y-100941487D01*
X148561891Y-100987230D01*
X148603370Y-101021476D01*
X148635541Y-101041138D01*
X148659568Y-101043132D01*
X148676615Y-101024371D01*
X148687846Y-100981771D01*
X148694425Y-100912245D01*
X148697515Y-100812709D01*
X148698282Y-100680076D01*
X148697888Y-100511262D01*
X148697498Y-100303181D01*
X148697498Y-99529208D01*
X149290659Y-99529208D01*
X149290659Y-102367907D01*
X148700547Y-102367907D01*
X148688221Y-102256689D01*
X148682868Y-102180685D01*
X148680327Y-102081419D01*
X148681401Y-101983191D01*
X148682223Y-101956980D01*
X148682511Y-101881291D01*
X148676350Y-101832166D01*
X148661056Y-101797214D01*
X148633945Y-101764039D01*
X148632399Y-101762390D01*
X148579533Y-101714744D01*
X148526560Y-101678841D01*
X148472136Y-101650516D01*
X148349188Y-101965843D01*
X148324113Y-102029461D01*
X148281315Y-102134925D01*
X148243417Y-102224538D01*
X148213806Y-102290382D01*
X148195864Y-102324539D01*
X148192924Y-102328610D01*
X148177714Y-102344214D01*
X148154803Y-102355045D01*
X148117260Y-102361966D01*
X148058150Y-102365842D01*
X147970540Y-102367534D01*
X147847497Y-102367907D01*
X147529505Y-102367907D01*
X147544062Y-102320242D01*
X147549788Y-102303238D01*
X147569395Y-102248096D01*
X147600075Y-102163364D01*
X147639589Y-102055193D01*
X147685694Y-101929733D01*
X147736149Y-101793136D01*
X147769336Y-101702733D01*
X147815806Y-101573305D01*
X147855536Y-101459218D01*
X147886464Y-101366543D01*
X147906531Y-101301356D01*
X147913678Y-101269727D01*
X147912113Y-101259080D01*
X147886663Y-101214268D01*
X147838064Y-101166600D01*
X147819367Y-101151928D01*
X147787274Y-101124953D01*
X147761630Y-101097263D01*
X147741710Y-101064230D01*
X147726793Y-101021226D01*
X147716154Y-100963623D01*
X147709071Y-100886792D01*
X147704821Y-100786105D01*
X147702680Y-100656934D01*
X147701926Y-100494651D01*
X147701835Y-100294628D01*
X147701990Y-100185965D01*
X147702822Y-100024390D01*
X147704292Y-99878881D01*
X147706306Y-99754699D01*
X147708773Y-99657104D01*
X147711599Y-99591356D01*
X147714694Y-99562717D01*
X147728808Y-99551729D01*
X147778384Y-99539187D01*
X147853728Y-99530621D01*
X147945133Y-99526030D01*
X148042891Y-99525416D01*
X148137297Y-99528777D01*
G37*
G36*
X147066493Y-99529284D02*
G01*
X147220422Y-99530170D01*
X147357455Y-99531947D01*
X147472500Y-99534482D01*
X147560461Y-99537647D01*
X147616243Y-99541311D01*
X147634751Y-99545342D01*
X147633878Y-99547400D01*
X147620968Y-99579458D01*
X147597732Y-99638099D01*
X147568520Y-99712360D01*
X147547703Y-99763362D01*
X147505954Y-99847140D01*
X147462817Y-99900614D01*
X147411034Y-99931343D01*
X147343346Y-99946887D01*
X147256964Y-99958473D01*
X147256964Y-100917048D01*
X147256770Y-101152242D01*
X147256693Y-101348624D01*
X147257483Y-101509736D01*
X147259892Y-101639118D01*
X147264671Y-101740313D01*
X147272572Y-101816861D01*
X147284345Y-101872304D01*
X147300742Y-101910183D01*
X147322514Y-101934040D01*
X147350413Y-101947415D01*
X147385188Y-101953851D01*
X147427592Y-101956889D01*
X147478377Y-101960070D01*
X147547204Y-101968434D01*
X147597780Y-101980197D01*
X147617098Y-101992610D01*
X147607245Y-102045066D01*
X147579856Y-102120117D01*
X147542076Y-102200346D01*
X147501089Y-102270588D01*
X147464078Y-102315675D01*
X147402004Y-102367907D01*
X146367223Y-102367907D01*
X146367223Y-101923036D01*
X146621435Y-101923036D01*
X146621435Y-99931710D01*
X146367223Y-99931710D01*
X146367223Y-99529208D01*
X147004518Y-99529208D01*
X147066493Y-99529284D01*
G37*
G36*
X145852171Y-99508023D02*
G01*
X146134195Y-99508023D01*
X146134195Y-102367907D01*
X145541034Y-102367907D01*
X145540054Y-101430500D01*
X145539074Y-100493094D01*
X145402127Y-100641385D01*
X145377778Y-100668462D01*
X145310215Y-100750333D01*
X145251599Y-100830345D01*
X145212448Y-100894460D01*
X145159717Y-100999245D01*
X145159717Y-102367907D01*
X144545371Y-102367907D01*
X144545371Y-99529208D01*
X145159717Y-99529208D01*
X145159717Y-100020608D01*
X145311109Y-99822572D01*
X145335606Y-99790436D01*
X145412159Y-99689729D01*
X145470748Y-99616162D01*
X145518643Y-99565509D01*
X145563115Y-99533543D01*
X145611433Y-99516038D01*
X145670868Y-99508768D01*
X145748691Y-99507505D01*
X145852171Y-99508023D01*
G37*
G36*
X156408591Y-98512360D02*
G01*
X157128858Y-98512360D01*
X157128858Y-96139717D01*
X158103336Y-96139717D01*
X158103336Y-98531831D01*
X158271164Y-98537984D01*
X158438993Y-98544137D01*
X158311382Y-98840717D01*
X158278940Y-98916485D01*
X158228439Y-99038205D01*
X158188671Y-99143455D01*
X158158355Y-99239587D01*
X158136214Y-99333956D01*
X158120966Y-99433918D01*
X158111334Y-99546827D01*
X158106038Y-99680038D01*
X158103799Y-99840905D01*
X158103336Y-100036783D01*
X158103332Y-100055847D01*
X158102647Y-100241838D01*
X158100711Y-100388813D01*
X158097397Y-100499832D01*
X158092578Y-100577953D01*
X158086127Y-100626236D01*
X158077915Y-100647740D01*
X158058906Y-100654768D01*
X158002334Y-100662462D01*
X157917237Y-100668289D01*
X157811488Y-100672251D01*
X157692960Y-100674347D01*
X157569525Y-100674577D01*
X157449055Y-100672942D01*
X157339423Y-100669440D01*
X157248502Y-100664072D01*
X157184163Y-100656839D01*
X157154279Y-100647740D01*
X157148746Y-100636003D01*
X157142227Y-100598191D01*
X157137132Y-100532840D01*
X157133353Y-100436987D01*
X157130785Y-100307666D01*
X157129322Y-100141914D01*
X157128858Y-99936767D01*
X157128858Y-99251216D01*
X157038824Y-99262455D01*
X156993647Y-99267045D01*
X156910468Y-99273700D01*
X156808205Y-99280674D01*
X156699601Y-99287045D01*
X156675240Y-99288372D01*
X156574511Y-99294860D01*
X156506535Y-99302138D01*
X156463290Y-99311871D01*
X156436755Y-99325726D01*
X156418908Y-99345369D01*
X156412335Y-99357607D01*
X156404489Y-99385014D01*
X156398413Y-99427926D01*
X156393903Y-99490821D01*
X156390752Y-99578174D01*
X156388757Y-99694463D01*
X156387710Y-99844164D01*
X156387406Y-100031753D01*
X156387406Y-100673161D01*
X155455296Y-100673161D01*
X155455296Y-96139717D01*
X156408591Y-96139717D01*
X156408591Y-98512360D01*
G37*
G36*
X141987177Y-97257189D02*
G01*
X141992661Y-98374662D01*
X142135655Y-98380926D01*
X142214311Y-98386915D01*
X142263306Y-98398126D01*
X142278649Y-98415276D01*
X142271657Y-98440043D01*
X142249463Y-98496031D01*
X142215684Y-98573366D01*
X142174042Y-98663224D01*
X142165155Y-98681948D01*
X142113063Y-98795035D01*
X142071400Y-98894997D01*
X142038908Y-98988771D01*
X142014330Y-99083293D01*
X141996409Y-99185499D01*
X141983885Y-99302326D01*
X141975503Y-99440711D01*
X141970003Y-99607590D01*
X141966128Y-99809900D01*
X141956924Y-100397765D01*
X139757715Y-100397765D01*
X139757715Y-99632533D01*
X139847748Y-99643830D01*
X139861931Y-99645340D01*
X139924064Y-99650236D01*
X140017950Y-99656336D01*
X140136020Y-99663192D01*
X140270703Y-99670355D01*
X140414429Y-99677378D01*
X140473859Y-99680203D01*
X140613618Y-99687247D01*
X140740536Y-99694181D01*
X140847239Y-99700572D01*
X140926357Y-99705989D01*
X140970517Y-99709998D01*
X141049959Y-99720367D01*
X141049959Y-99402352D01*
X141049903Y-99317065D01*
X141049170Y-99219655D01*
X141046818Y-99154125D01*
X141041901Y-99114167D01*
X141033472Y-99093476D01*
X141020585Y-99085746D01*
X141002294Y-99084669D01*
X140985070Y-99085254D01*
X140927490Y-99088107D01*
X140838298Y-99093001D01*
X140724008Y-99099564D01*
X140591139Y-99107428D01*
X140446205Y-99116223D01*
X140358962Y-99121505D01*
X140215447Y-99129860D01*
X140085352Y-99137033D01*
X139975894Y-99142644D01*
X139894288Y-99146316D01*
X139847748Y-99147667D01*
X139757715Y-99147890D01*
X139757715Y-98385254D01*
X140368011Y-98385254D01*
X140521600Y-98384977D01*
X140678634Y-98383758D01*
X140800517Y-98381408D01*
X140891252Y-98377754D01*
X140954846Y-98372622D01*
X140995303Y-98365840D01*
X141016628Y-98357234D01*
X141017961Y-98356238D01*
X141029338Y-98344553D01*
X141038053Y-98325710D01*
X141044408Y-98294681D01*
X141048708Y-98246435D01*
X141051255Y-98175942D01*
X141052353Y-98078174D01*
X141052306Y-97948100D01*
X141051416Y-97780690D01*
X141050275Y-97646716D01*
X141048497Y-97511412D01*
X141046308Y-97395675D01*
X141043840Y-97305206D01*
X141041224Y-97245704D01*
X141038590Y-97222871D01*
X141027266Y-97222088D01*
X140979508Y-97223679D01*
X140900432Y-97228055D01*
X140796485Y-97234725D01*
X140674113Y-97243197D01*
X140539762Y-97252980D01*
X140399878Y-97263582D01*
X140260908Y-97274511D01*
X140129298Y-97285278D01*
X140011493Y-97295389D01*
X139913942Y-97304354D01*
X139843088Y-97311682D01*
X139805380Y-97316880D01*
X139757715Y-97326846D01*
X139757715Y-96139717D01*
X141981694Y-96139717D01*
X141987177Y-97257189D01*
G37*
G36*
X147050232Y-97267782D02*
G01*
X147055713Y-98395847D01*
X147200836Y-98258149D01*
X147237725Y-98223654D01*
X147281327Y-98182902D01*
X147317109Y-98146278D01*
X147345811Y-98109553D01*
X147368171Y-98068502D01*
X147384932Y-98018897D01*
X147396832Y-97956513D01*
X147404611Y-97877121D01*
X147409010Y-97776496D01*
X147410768Y-97650410D01*
X147410626Y-97494637D01*
X147409323Y-97304950D01*
X147407599Y-97077123D01*
X147401374Y-96160901D01*
X147816409Y-96160901D01*
X147835669Y-96160910D01*
X147986415Y-96161906D01*
X148098265Y-96164667D01*
X148174320Y-96169376D01*
X148217679Y-96176215D01*
X148231443Y-96185367D01*
X148225772Y-96211227D01*
X148208848Y-96269356D01*
X148183378Y-96350221D01*
X148152097Y-96444875D01*
X148072751Y-96679917D01*
X148078448Y-97315446D01*
X148084146Y-97950976D01*
X148147850Y-98081997D01*
X148216098Y-98194257D01*
X148322124Y-98312435D01*
X148432694Y-98411851D01*
X148443658Y-96160901D01*
X149100000Y-96160901D01*
X149100502Y-97394887D01*
X149101003Y-98628874D01*
X148769799Y-98952409D01*
X148438596Y-99275945D01*
X148262712Y-99116265D01*
X148086828Y-98956586D01*
X148071910Y-99115791D01*
X148065497Y-99175980D01*
X148055031Y-99236083D01*
X148041460Y-99266547D01*
X148022407Y-99275011D01*
X148018834Y-99274842D01*
X147978684Y-99269327D01*
X147907700Y-99257191D01*
X147814762Y-99240010D01*
X147708749Y-99219360D01*
X147429675Y-99163693D01*
X147415454Y-99060296D01*
X147401233Y-98956900D01*
X147221913Y-99119699D01*
X147042594Y-99282498D01*
X146747344Y-98987813D01*
X146741653Y-98982126D01*
X146648402Y-98887084D01*
X146564332Y-98798085D01*
X146494747Y-98720997D01*
X146444952Y-98661688D01*
X146420251Y-98626023D01*
X146413719Y-98607885D01*
X146407806Y-98579262D01*
X146402863Y-98537773D01*
X146398807Y-98480139D01*
X146395557Y-98403083D01*
X146393032Y-98303328D01*
X146391149Y-98177594D01*
X146389827Y-98022604D01*
X146388984Y-97835080D01*
X146388538Y-97611743D01*
X146388407Y-97349317D01*
X146388407Y-96139717D01*
X147044750Y-96139717D01*
X147050232Y-97267782D01*
G37*
G36*
X152404754Y-99211443D02*
G01*
X152404754Y-98614045D01*
X152332728Y-98542018D01*
X152308685Y-98519061D01*
X152266041Y-98483858D01*
X152239999Y-98469992D01*
X152234302Y-98474563D01*
X152217194Y-98510227D01*
X152195783Y-98573573D01*
X152173393Y-98655355D01*
X152171624Y-98662485D01*
X152124427Y-98844010D01*
X152081608Y-98991449D01*
X152043819Y-99102876D01*
X152011709Y-99176364D01*
X151985930Y-99209989D01*
X151976721Y-99213240D01*
X151928224Y-99220454D01*
X151849465Y-99226341D01*
X151749003Y-99230363D01*
X151635395Y-99231983D01*
X151616438Y-99232017D01*
X151500446Y-99231783D01*
X151419985Y-99230177D01*
X151369043Y-99226476D01*
X151341607Y-99219956D01*
X151331665Y-99209890D01*
X151333205Y-99195555D01*
X151335991Y-99186616D01*
X151357002Y-99114826D01*
X151384111Y-99016850D01*
X151415612Y-98899401D01*
X151449798Y-98769188D01*
X151484962Y-98632922D01*
X151519399Y-98497316D01*
X151551401Y-98369079D01*
X151579262Y-98254922D01*
X151601276Y-98161558D01*
X151615735Y-98095695D01*
X151620934Y-98064047D01*
X151620887Y-98061093D01*
X151608730Y-98016010D01*
X151571762Y-97961110D01*
X151505114Y-97889037D01*
X151497541Y-97881378D01*
X151440556Y-97817981D01*
X151396920Y-97759767D01*
X151375556Y-97718481D01*
X151373541Y-97704037D01*
X151370628Y-97647956D01*
X151368914Y-97559908D01*
X151368715Y-97511362D01*
X152002252Y-97511362D01*
X152190193Y-97672099D01*
X152262509Y-97732090D01*
X152325938Y-97781051D01*
X152371172Y-97811849D01*
X152391444Y-97819526D01*
X152394279Y-97804639D01*
X152397661Y-97752179D01*
X152400545Y-97667757D01*
X152402786Y-97557266D01*
X152404238Y-97426600D01*
X152404754Y-97281652D01*
X152404517Y-97117560D01*
X152403107Y-96979685D01*
X152399512Y-96875204D01*
X152392717Y-96799492D01*
X152381710Y-96747920D01*
X152365477Y-96715862D01*
X152343005Y-96698693D01*
X152313281Y-96691784D01*
X152275291Y-96690509D01*
X152272504Y-96690538D01*
X152204168Y-96703367D01*
X152129223Y-96733998D01*
X152063828Y-96774337D01*
X152024145Y-96816291D01*
X152020787Y-96826158D01*
X152013384Y-96876763D01*
X152007513Y-96958591D01*
X152003646Y-97063732D01*
X152002252Y-97184280D01*
X152002252Y-97511362D01*
X151368715Y-97511362D01*
X151368451Y-97446680D01*
X151369288Y-97315059D01*
X151371477Y-97171832D01*
X151372378Y-97126926D01*
X151375902Y-96975648D01*
X151379859Y-96858672D01*
X151384829Y-96769571D01*
X151391394Y-96701919D01*
X151400134Y-96649291D01*
X151411629Y-96605261D01*
X151426460Y-96563403D01*
X151429416Y-96555901D01*
X151501769Y-96417483D01*
X151597512Y-96311220D01*
X151721992Y-96231096D01*
X151843370Y-96171493D01*
X152452419Y-96164743D01*
X153061468Y-96157992D01*
X153061468Y-99211443D01*
X152404754Y-99211443D01*
G37*
G36*
X150884779Y-99216819D02*
G01*
X150797464Y-99219311D01*
X150546974Y-99224638D01*
X150333639Y-99225601D01*
X150153612Y-99221609D01*
X150003045Y-99212076D01*
X149878091Y-99196412D01*
X149774902Y-99174030D01*
X149689631Y-99144342D01*
X149618430Y-99106759D01*
X149557451Y-99060693D01*
X149502847Y-99005556D01*
X149477186Y-98976166D01*
X149446566Y-98938629D01*
X149421025Y-98901032D01*
X149400101Y-98859528D01*
X149383335Y-98810272D01*
X149370267Y-98749417D01*
X149360434Y-98673117D01*
X149353378Y-98577525D01*
X149348637Y-98458796D01*
X149345751Y-98313083D01*
X149344260Y-98136540D01*
X149343703Y-97925321D01*
X149343629Y-97702741D01*
X149989860Y-97702741D01*
X149989872Y-97776307D01*
X149990344Y-97980941D01*
X149991817Y-98148514D01*
X149994737Y-98283053D01*
X149999545Y-98388582D01*
X150006685Y-98469128D01*
X150016601Y-98528715D01*
X150029737Y-98571369D01*
X150046535Y-98601115D01*
X150067439Y-98621978D01*
X150092893Y-98637984D01*
X150120525Y-98648311D01*
X150184000Y-98662983D01*
X150259470Y-98673993D01*
X150286870Y-98676649D01*
X150350232Y-98678952D01*
X150388458Y-98670518D01*
X150414033Y-98649357D01*
X150416629Y-98645708D01*
X150423968Y-98627339D01*
X150430106Y-98595767D01*
X150435185Y-98547346D01*
X150439350Y-98478430D01*
X150442744Y-98385374D01*
X150445510Y-98264531D01*
X150447792Y-98112257D01*
X150449735Y-97924906D01*
X150451481Y-97698831D01*
X150452563Y-97550201D01*
X150454042Y-97342790D01*
X150454617Y-97172034D01*
X150453627Y-97034408D01*
X150450412Y-96926385D01*
X150444313Y-96844440D01*
X150434670Y-96785047D01*
X150420822Y-96744681D01*
X150402110Y-96719815D01*
X150377873Y-96706924D01*
X150347451Y-96702481D01*
X150310186Y-96702962D01*
X150265415Y-96704839D01*
X150181263Y-96711894D01*
X150098703Y-96736842D01*
X150044496Y-96783083D01*
X150012095Y-96854487D01*
X150010054Y-96864196D01*
X150004287Y-96920872D01*
X149999361Y-97015359D01*
X149995365Y-97144224D01*
X149992389Y-97304032D01*
X149990524Y-97491349D01*
X149989860Y-97702741D01*
X149343629Y-97702741D01*
X149343620Y-97675580D01*
X149343620Y-96658732D01*
X149399787Y-96538927D01*
X149408128Y-96521766D01*
X149498185Y-96385750D01*
X149615548Y-96276294D01*
X149753023Y-96200293D01*
X149778137Y-96190795D01*
X149815021Y-96179005D01*
X149855941Y-96169752D01*
X149906373Y-96162621D01*
X149971793Y-96157197D01*
X150057677Y-96153067D01*
X150169501Y-96149816D01*
X150312739Y-96147029D01*
X150492869Y-96144291D01*
X151112511Y-96135478D01*
X151112511Y-99210010D01*
X150884779Y-99216819D01*
G37*
G36*
X143365194Y-99211443D02*
G01*
X143352358Y-99058333D01*
X143347793Y-98975058D01*
X143347034Y-98872783D01*
X143351293Y-98788233D01*
X143354610Y-98740699D01*
X143346449Y-98641194D01*
X143312243Y-98567730D01*
X143249341Y-98513154D01*
X143236908Y-98505782D01*
X143194494Y-98483931D01*
X143173750Y-98478756D01*
X143170225Y-98487895D01*
X143157171Y-98531602D01*
X143136744Y-98604859D01*
X143110911Y-98700566D01*
X143081634Y-98811624D01*
X143064579Y-98875668D01*
X143033620Y-98985514D01*
X143005068Y-99079235D01*
X142981514Y-99148496D01*
X142965550Y-99184963D01*
X142957759Y-99196166D01*
X142942445Y-99211061D01*
X142918830Y-99221227D01*
X142880100Y-99227566D01*
X142819443Y-99230979D01*
X142730044Y-99232365D01*
X142605090Y-99232627D01*
X142565892Y-99232607D01*
X142452000Y-99232024D01*
X142372906Y-99230120D01*
X142322708Y-99226208D01*
X142295502Y-99219601D01*
X142285384Y-99209612D01*
X142286450Y-99195555D01*
X142293043Y-99172140D01*
X142312673Y-99100230D01*
X142339168Y-99001442D01*
X142370553Y-98883311D01*
X142404851Y-98753373D01*
X142440087Y-98619161D01*
X142474285Y-98488213D01*
X142505470Y-98368062D01*
X142531666Y-98266244D01*
X142550896Y-98190294D01*
X142561186Y-98147747D01*
X142570068Y-98091981D01*
X142562582Y-98014722D01*
X142522721Y-97950341D01*
X142445862Y-97888441D01*
X142419489Y-97869841D01*
X142387772Y-97840902D01*
X142363443Y-97805343D01*
X142345645Y-97758059D01*
X142333518Y-97693949D01*
X142326205Y-97607907D01*
X142322847Y-97494830D01*
X142322586Y-97349614D01*
X142323149Y-97297693D01*
X142934456Y-97297693D01*
X142936878Y-97385027D01*
X142944535Y-97444434D01*
X142954554Y-97469117D01*
X142988861Y-97524393D01*
X143035763Y-97583073D01*
X143083680Y-97630516D01*
X143159885Y-97695638D01*
X143237833Y-97753724D01*
X143361762Y-97837883D01*
X143355110Y-97309773D01*
X143354943Y-97296748D01*
X143352091Y-97123078D01*
X143348408Y-96987561D01*
X143343652Y-96886248D01*
X143337580Y-96815189D01*
X143329948Y-96770436D01*
X143320513Y-96748040D01*
X143319860Y-96747261D01*
X143261568Y-96708052D01*
X143185965Y-96696198D01*
X143105953Y-96709572D01*
X143034432Y-96746046D01*
X142984303Y-96803491D01*
X142977296Y-96821780D01*
X142963644Y-96886034D01*
X142951862Y-96976600D01*
X142942621Y-97082631D01*
X142936594Y-97193278D01*
X142934456Y-97297693D01*
X142323149Y-97297693D01*
X142324563Y-97167156D01*
X142325166Y-97123980D01*
X142327511Y-96973272D01*
X142330150Y-96857219D01*
X142333696Y-96769634D01*
X142338762Y-96704332D01*
X142345960Y-96655126D01*
X142355904Y-96615829D01*
X142369207Y-96580255D01*
X142386481Y-96542219D01*
X142411136Y-96492554D01*
X142479093Y-96384904D01*
X142558836Y-96303480D01*
X142660843Y-96236614D01*
X142705863Y-96213941D01*
X142761043Y-96193139D01*
X142825938Y-96178044D01*
X142911423Y-96166252D01*
X143028375Y-96155359D01*
X143151561Y-96148279D01*
X143308394Y-96144621D01*
X143476538Y-96145070D01*
X143640092Y-96149775D01*
X143994579Y-96165411D01*
X143994579Y-99211443D01*
X143365194Y-99211443D01*
G37*
G36*
X155158716Y-97749725D02*
G01*
X155254045Y-97749725D01*
X155282541Y-97750743D01*
X155330443Y-97758678D01*
X155349375Y-97771905D01*
X155349103Y-97774587D01*
X155340825Y-97809528D01*
X155322725Y-97874951D01*
X155297141Y-97962620D01*
X155266409Y-98064296D01*
X155210665Y-98260088D01*
X155171615Y-98436019D01*
X155148812Y-98600907D01*
X155140427Y-98768080D01*
X155144628Y-98950865D01*
X155157835Y-99211443D01*
X154502002Y-99211443D01*
X154502002Y-98279333D01*
X154401376Y-98279483D01*
X154343779Y-98280882D01*
X154250642Y-98285847D01*
X154157757Y-98293139D01*
X154014763Y-98306644D01*
X154014763Y-99211443D01*
X153336864Y-99211443D01*
X153336864Y-97749725D01*
X154014763Y-97749725D01*
X154475058Y-97749725D01*
X154489945Y-97507973D01*
X154493140Y-97442372D01*
X154495965Y-97308464D01*
X154494868Y-97174733D01*
X154489855Y-97062184D01*
X154489540Y-97057933D01*
X154476931Y-96939524D01*
X154456601Y-96854295D01*
X154423863Y-96793427D01*
X154374031Y-96748100D01*
X154302416Y-96709497D01*
X154216447Y-96678785D01*
X154132101Y-96673569D01*
X154061845Y-96702302D01*
X154056215Y-96706320D01*
X154042705Y-96718327D01*
X154032505Y-96735393D01*
X154025148Y-96762847D01*
X154020170Y-96806021D01*
X154017108Y-96870243D01*
X154015495Y-96960844D01*
X154014868Y-97083154D01*
X154014763Y-97242502D01*
X154014763Y-97749725D01*
X153336864Y-97749725D01*
X153336864Y-97688438D01*
X153336865Y-97653378D01*
X153336952Y-97365426D01*
X153337226Y-97116672D01*
X153337749Y-96904268D01*
X153338584Y-96725362D01*
X153339792Y-96577107D01*
X153341436Y-96456653D01*
X153343579Y-96361151D01*
X153346281Y-96287752D01*
X153349606Y-96233606D01*
X153353616Y-96195865D01*
X153358372Y-96171679D01*
X153363937Y-96158199D01*
X153370373Y-96152575D01*
X153389101Y-96149069D01*
X153448204Y-96144835D01*
X153538061Y-96141876D01*
X153651678Y-96140132D01*
X153782060Y-96139544D01*
X153922214Y-96140050D01*
X154065147Y-96141594D01*
X154203864Y-96144116D01*
X154331372Y-96147556D01*
X154440677Y-96151856D01*
X154524784Y-96156956D01*
X154576701Y-96162796D01*
X154601287Y-96167668D01*
X154768276Y-96221513D01*
X154905852Y-96305804D01*
X155013455Y-96419968D01*
X155090524Y-96563430D01*
X155136497Y-96735615D01*
X155137266Y-96740621D01*
X155143962Y-96807957D01*
X155149787Y-96907625D01*
X155154393Y-97030578D01*
X155157431Y-97167768D01*
X155158543Y-97308464D01*
X155158556Y-97310150D01*
X155158716Y-97749725D01*
G37*
G36*
X146229312Y-97752781D02*
G01*
X146298219Y-97762405D01*
X146361618Y-97775084D01*
X146289506Y-97894807D01*
X146260171Y-97944892D01*
X146217154Y-98027494D01*
X146184134Y-98108812D01*
X146159652Y-98196120D01*
X146142253Y-98296688D01*
X146130478Y-98417790D01*
X146122869Y-98566698D01*
X146117969Y-98750684D01*
X146108862Y-99211443D01*
X145435113Y-99211443D01*
X145435113Y-98279333D01*
X145353572Y-98279333D01*
X145351963Y-98279335D01*
X145288435Y-98281295D01*
X145201668Y-98286204D01*
X145109952Y-98293034D01*
X144947873Y-98306734D01*
X144947873Y-99211443D01*
X144291160Y-99211443D01*
X144291160Y-97749725D01*
X144969058Y-97749725D01*
X145435113Y-97749725D01*
X145435113Y-97306233D01*
X145435054Y-97272175D01*
X145433673Y-97138300D01*
X145430677Y-97017888D01*
X145426361Y-96918165D01*
X145421019Y-96846357D01*
X145414943Y-96809690D01*
X145403005Y-96783996D01*
X145373159Y-96749918D01*
X145324913Y-96726514D01*
X145250282Y-96710547D01*
X145141279Y-96698780D01*
X144969058Y-96684417D01*
X144969058Y-97749725D01*
X144291160Y-97749725D01*
X144291160Y-97699358D01*
X144291183Y-97539417D01*
X144291380Y-97267188D01*
X144291824Y-97033004D01*
X144292575Y-96834036D01*
X144293689Y-96667454D01*
X144295224Y-96530429D01*
X144297239Y-96420131D01*
X144299791Y-96333730D01*
X144302938Y-96268397D01*
X144306739Y-96221302D01*
X144311251Y-96189615D01*
X144316531Y-96170507D01*
X144322639Y-96161147D01*
X144333389Y-96155814D01*
X144366824Y-96149255D01*
X144423905Y-96144722D01*
X144508371Y-96142120D01*
X144623960Y-96141355D01*
X144774412Y-96142332D01*
X144963465Y-96144957D01*
X145047994Y-96146398D01*
X145216104Y-96149851D01*
X145349287Y-96153737D01*
X145452744Y-96158398D01*
X145531674Y-96164175D01*
X145591279Y-96171410D01*
X145636759Y-96180445D01*
X145673314Y-96191622D01*
X145740622Y-96222304D01*
X145859262Y-96306223D01*
X145962673Y-96417509D01*
X146040789Y-96546445D01*
X146102419Y-96679917D01*
X146116223Y-97749725D01*
X146175522Y-97749725D01*
X146229312Y-97752781D01*
G37*
G36*
X152045115Y-83078920D02*
G01*
X152035559Y-83197386D01*
X152022821Y-83288767D01*
X152007243Y-83345457D01*
X151981188Y-83389092D01*
X151904703Y-83458585D01*
X151800260Y-83503025D01*
X151794445Y-83504454D01*
X151704302Y-83514200D01*
X151598266Y-83509443D01*
X151495453Y-83492112D01*
X151414985Y-83464136D01*
X151380746Y-83445301D01*
X151342308Y-83418112D01*
X151312924Y-83384764D01*
X151291478Y-83340086D01*
X151276853Y-83278908D01*
X151267936Y-83196060D01*
X151263608Y-83086371D01*
X151262756Y-82944673D01*
X151263957Y-82801967D01*
X151577381Y-82801967D01*
X151577400Y-82836503D01*
X151578072Y-82959212D01*
X151580192Y-83047659D01*
X151584418Y-83108402D01*
X151591408Y-83148000D01*
X151601820Y-83173013D01*
X151616312Y-83189999D01*
X151636388Y-83206873D01*
X151661349Y-83212418D01*
X151690970Y-83185751D01*
X151693181Y-83183221D01*
X151705680Y-83162982D01*
X151714394Y-83132531D01*
X151719799Y-83085439D01*
X151722367Y-83015282D01*
X151722572Y-82915633D01*
X151720889Y-82780065D01*
X151720027Y-82728375D01*
X151717351Y-82607599D01*
X151713794Y-82520839D01*
X151708657Y-82461918D01*
X151701239Y-82424655D01*
X151690842Y-82402872D01*
X151676766Y-82390390D01*
X151672324Y-82387760D01*
X151638476Y-82380274D01*
X151607917Y-82408044D01*
X151606058Y-82410717D01*
X151594543Y-82438884D01*
X151586364Y-82486326D01*
X151581076Y-82558810D01*
X151578230Y-82662101D01*
X151577381Y-82801967D01*
X151263957Y-82801967D01*
X151264262Y-82765794D01*
X151270209Y-82253739D01*
X151323170Y-82196383D01*
X151398850Y-82134471D01*
X151503188Y-82093928D01*
X151634958Y-82081052D01*
X151683005Y-82082013D01*
X151804039Y-82096606D01*
X151896832Y-82130790D01*
X151969591Y-82187168D01*
X151986468Y-82205415D01*
X152007728Y-82234390D01*
X152022041Y-82269187D01*
X152031622Y-82318933D01*
X152038685Y-82392752D01*
X152045444Y-82499771D01*
X152051250Y-82637048D01*
X152053304Y-82791146D01*
X152051509Y-82915633D01*
X152051144Y-82940972D01*
X152045115Y-83078920D01*
G37*
G36*
X152763703Y-82662124D02*
G01*
X152763602Y-82725720D01*
X152762130Y-82899527D01*
X152759011Y-83045720D01*
X152754377Y-83160614D01*
X152748365Y-83240524D01*
X152741108Y-83281765D01*
X152704815Y-83348971D01*
X152646463Y-83416209D01*
X152583637Y-83458889D01*
X152564103Y-83463687D01*
X152505052Y-83470537D01*
X152422081Y-83475506D01*
X152326599Y-83477757D01*
X152297685Y-83477917D01*
X152210063Y-83477557D01*
X152154546Y-83474387D01*
X152122987Y-83466750D01*
X152107240Y-83452986D01*
X152099157Y-83431435D01*
X152084887Y-83350327D01*
X152095157Y-83280041D01*
X152135784Y-83238526D01*
X152207236Y-83224887D01*
X152277229Y-83216368D01*
X152348078Y-83195534D01*
X152359852Y-83190442D01*
X152398923Y-83166117D01*
X152419784Y-83129464D01*
X152432135Y-83065471D01*
X152433484Y-83054169D01*
X152438368Y-82986758D01*
X152442323Y-82890910D01*
X152444972Y-82777725D01*
X152445939Y-82658303D01*
X152445939Y-82351844D01*
X152276464Y-82359540D01*
X152106989Y-82367237D01*
X152106989Y-82102119D01*
X152763703Y-82102119D01*
X152763703Y-82662124D01*
G37*
G36*
X150084138Y-82083644D02*
G01*
X150143120Y-82089456D01*
X150181341Y-82093693D01*
X150256673Y-82107712D01*
X150317959Y-82132512D01*
X150379318Y-82175006D01*
X150454870Y-82242107D01*
X150553081Y-82333973D01*
X150636249Y-82248076D01*
X150669603Y-82215681D01*
X150731318Y-82163492D01*
X150782969Y-82128481D01*
X150806181Y-82118901D01*
X150872377Y-82104005D01*
X150952073Y-82095920D01*
X151031523Y-82095094D01*
X151096979Y-82101977D01*
X151134696Y-82117014D01*
X151136731Y-82119046D01*
X151143907Y-82127218D01*
X151149602Y-82138687D01*
X151153950Y-82157793D01*
X151157085Y-82188878D01*
X151159141Y-82236282D01*
X151160252Y-82304348D01*
X151160552Y-82397417D01*
X151160175Y-82519829D01*
X151159254Y-82675926D01*
X151157924Y-82870050D01*
X151153695Y-83479099D01*
X150835930Y-83479099D01*
X150835930Y-82990095D01*
X150835894Y-82931466D01*
X150835112Y-82777979D01*
X150832737Y-82662555D01*
X150828021Y-82581946D01*
X150820215Y-82532906D01*
X150808571Y-82512188D01*
X150792340Y-82516546D01*
X150770775Y-82542733D01*
X150743125Y-82587501D01*
X150732160Y-82608258D01*
X150721053Y-82638912D01*
X150713367Y-82679214D01*
X150708608Y-82735707D01*
X150706285Y-82814931D01*
X150705904Y-82923430D01*
X150706974Y-83067744D01*
X150711055Y-83479099D01*
X150393482Y-83479099D01*
X150386975Y-83045181D01*
X150380467Y-82611262D01*
X150311618Y-82542461D01*
X150242769Y-82473659D01*
X150242769Y-83479099D01*
X149949237Y-83479099D01*
X149935416Y-83367882D01*
X149932455Y-83327891D01*
X149929673Y-83246667D01*
X149927824Y-83136057D01*
X149926980Y-83003153D01*
X149927213Y-82855051D01*
X149928596Y-82698842D01*
X149930344Y-82557780D01*
X149932896Y-82407413D01*
X149937158Y-82291750D01*
X149944656Y-82206452D01*
X149956918Y-82147184D01*
X149975470Y-82109606D01*
X150001839Y-82089382D01*
X150037553Y-82082174D01*
X150084138Y-82083644D01*
G37*
G36*
X148753272Y-82083684D02*
G01*
X148808063Y-82089409D01*
X148866807Y-82097061D01*
X148968383Y-82125014D01*
X149046561Y-82173825D01*
X149113140Y-82249691D01*
X149134140Y-82277979D01*
X149169002Y-82318554D01*
X149190345Y-82334694D01*
X149208876Y-82326008D01*
X149251709Y-82296329D01*
X149306859Y-82252784D01*
X149341072Y-82224918D01*
X149428784Y-82161925D01*
X149505656Y-82124479D01*
X149584205Y-82107630D01*
X149676948Y-82106426D01*
X149808491Y-82112711D01*
X149814080Y-82795905D01*
X149819670Y-83479099D01*
X149501318Y-83479099D01*
X149501318Y-82978674D01*
X149501303Y-82935447D01*
X149500863Y-82786047D01*
X149499596Y-82673393D01*
X149497212Y-82592980D01*
X149493421Y-82540304D01*
X149487933Y-82510861D01*
X149480457Y-82500147D01*
X149470703Y-82503657D01*
X149467546Y-82506367D01*
X149431086Y-82555483D01*
X149404469Y-82631495D01*
X149387072Y-82738110D01*
X149378270Y-82879037D01*
X149377440Y-83057983D01*
X149378033Y-83115301D01*
X149377685Y-83227390D01*
X149375426Y-83323247D01*
X149371516Y-83394164D01*
X149366217Y-83431435D01*
X149364993Y-83434971D01*
X149351930Y-83458759D01*
X149327325Y-83472051D01*
X149280913Y-83477835D01*
X149202426Y-83479099D01*
X149054680Y-83479099D01*
X149057819Y-83068827D01*
X149058133Y-83023668D01*
X149058281Y-82882577D01*
X149056109Y-82775493D01*
X149050641Y-82695854D01*
X149040901Y-82637097D01*
X149025914Y-82592662D01*
X149004705Y-82555987D01*
X148976297Y-82520509D01*
X148952628Y-82497733D01*
X148926058Y-82483436D01*
X148922817Y-82491666D01*
X148918101Y-82535655D01*
X148914066Y-82612460D01*
X148910923Y-82716230D01*
X148908884Y-82841116D01*
X148908157Y-82981268D01*
X148908157Y-83479099D01*
X148586345Y-83479099D01*
X148593665Y-82810075D01*
X148595230Y-82660728D01*
X148597336Y-82492571D01*
X148600519Y-82359790D01*
X148605974Y-82258371D01*
X148614894Y-82184301D01*
X148628474Y-82133565D01*
X148647907Y-82102150D01*
X148674389Y-82086040D01*
X148709112Y-82081223D01*
X148753272Y-82083684D01*
G37*
G36*
X148505190Y-82667871D02*
G01*
X148504887Y-82816766D01*
X148503905Y-82958360D01*
X148501934Y-83067677D01*
X148498642Y-83150186D01*
X148493699Y-83211353D01*
X148486774Y-83256648D01*
X148477537Y-83291539D01*
X148465656Y-83321494D01*
X148426767Y-83384606D01*
X148354904Y-83442821D01*
X148325569Y-83454664D01*
X148276117Y-83466064D01*
X148207320Y-83473367D01*
X148111518Y-83477307D01*
X147981050Y-83478617D01*
X147678880Y-83479099D01*
X147684469Y-82795905D01*
X147690059Y-82112711D01*
X147825828Y-82106316D01*
X147885334Y-82105025D01*
X147949417Y-82111039D01*
X147979090Y-82127501D01*
X147982744Y-82144795D01*
X147987243Y-82200527D01*
X147991105Y-82287960D01*
X147994135Y-82400987D01*
X147996134Y-82533500D01*
X147996907Y-82679391D01*
X147997164Y-82831735D01*
X147997994Y-82959652D01*
X147999739Y-83054618D01*
X148002744Y-83121520D01*
X148007356Y-83165245D01*
X148013922Y-83190678D01*
X148022789Y-83202705D01*
X148034304Y-83206213D01*
X148103150Y-83203855D01*
X148156114Y-83179733D01*
X148159492Y-83171352D01*
X148166262Y-83125154D01*
X148172767Y-83043742D01*
X148178726Y-82931894D01*
X148183860Y-82794389D01*
X148187890Y-82636007D01*
X148198482Y-82112711D01*
X148352069Y-82106487D01*
X148505655Y-82100262D01*
X148505190Y-82667871D01*
G37*
G36*
X147574132Y-83479099D02*
G01*
X147255780Y-83479099D01*
X147255780Y-83064240D01*
X147255472Y-82946363D01*
X147253600Y-82822050D01*
X147249195Y-82735051D01*
X147241310Y-82682467D01*
X147229002Y-82661400D01*
X147211327Y-82668952D01*
X147187339Y-82702225D01*
X147156095Y-82758320D01*
X147137487Y-82796675D01*
X147123988Y-82836330D01*
X147115252Y-82884493D01*
X147110265Y-82949627D01*
X147108015Y-83040197D01*
X147107490Y-83164666D01*
X147107490Y-83479099D01*
X146809850Y-83479099D01*
X146796873Y-83414215D01*
X146783897Y-83349331D01*
X146716953Y-83414215D01*
X146650010Y-83479099D01*
X146151874Y-83479099D01*
X146158331Y-83378641D01*
X146158762Y-83372191D01*
X146167153Y-83310101D01*
X146186103Y-83274408D01*
X146197098Y-83267256D01*
X146620250Y-83267256D01*
X146671479Y-83267256D01*
X146708316Y-83269730D01*
X146755544Y-83279857D01*
X146764725Y-83280113D01*
X146772714Y-83269428D01*
X146778938Y-83243007D01*
X146783704Y-83196411D01*
X146787322Y-83125202D01*
X146790097Y-83024940D01*
X146792337Y-82891187D01*
X146794349Y-82719504D01*
X146794445Y-82710123D01*
X146795546Y-82561029D01*
X146795750Y-82427971D01*
X146795110Y-82316214D01*
X146793680Y-82231023D01*
X146791514Y-82177666D01*
X146788665Y-82161407D01*
X146775765Y-82177751D01*
X146742561Y-82219708D01*
X146698632Y-82275158D01*
X146620250Y-82374053D01*
X146620250Y-83267256D01*
X146197098Y-83267256D01*
X146223044Y-83250379D01*
X146281301Y-83222576D01*
X146281301Y-82344435D01*
X146216551Y-82319994D01*
X146189086Y-82310527D01*
X146155888Y-82307382D01*
X146140139Y-82325942D01*
X146136831Y-82331888D01*
X146099916Y-82350331D01*
X146024823Y-82356330D01*
X145921168Y-82356330D01*
X145921168Y-83479099D01*
X145603403Y-83479099D01*
X145603403Y-82352514D01*
X145502778Y-82359718D01*
X145402152Y-82366923D01*
X145402152Y-82112711D01*
X145748876Y-82106878D01*
X145753735Y-82106797D01*
X145902364Y-82105877D01*
X146014797Y-82108463D01*
X146089019Y-82114466D01*
X146123012Y-82123795D01*
X146141034Y-82134737D01*
X146164180Y-82124286D01*
X146179418Y-82118100D01*
X146236078Y-82111273D01*
X146332984Y-82106446D01*
X146468930Y-82103673D01*
X146642713Y-82103007D01*
X147107490Y-82103986D01*
X147107490Y-82298575D01*
X147213627Y-82199296D01*
X147239986Y-82174796D01*
X147289739Y-82132555D01*
X147329940Y-82111128D01*
X147375507Y-82104427D01*
X147441359Y-82106364D01*
X147562953Y-82112711D01*
X147565532Y-82427971D01*
X147568542Y-82795905D01*
X147574132Y-83479099D01*
G37*
G36*
X144749156Y-82102480D02*
G01*
X144797461Y-82107498D01*
X144829438Y-82123449D01*
X144848467Y-82156622D01*
X144857929Y-82213301D01*
X144861201Y-82299772D01*
X144861663Y-82422322D01*
X144862304Y-82503905D01*
X144865555Y-82582440D01*
X144872941Y-82635469D01*
X144885986Y-82672606D01*
X144906213Y-82703466D01*
X144950474Y-82759735D01*
X144996246Y-82701667D01*
X144999801Y-82697060D01*
X145018508Y-82666683D01*
X145031652Y-82628159D01*
X145040723Y-82572933D01*
X145047213Y-82492450D01*
X145052611Y-82378155D01*
X145063203Y-82112711D01*
X145359783Y-82112711D01*
X145359783Y-82868968D01*
X145299796Y-82914526D01*
X145239900Y-82960445D01*
X145179591Y-83011801D01*
X145142974Y-83057413D01*
X145124138Y-83108924D01*
X145117172Y-83177978D01*
X145116164Y-83276219D01*
X145116164Y-83479099D01*
X144798399Y-83479099D01*
X144798399Y-83297005D01*
X144796301Y-83207021D01*
X144784713Y-83118748D01*
X144758502Y-83052139D01*
X144712678Y-82995720D01*
X144642250Y-82938022D01*
X144554779Y-82873593D01*
X144543231Y-82102119D01*
X144689529Y-82102119D01*
X144749156Y-82102480D01*
G37*
G36*
X153801735Y-80894612D02*
G01*
X154394896Y-80894612D01*
X154394896Y-79009208D01*
X155178716Y-79009208D01*
X155178716Y-80892398D01*
X155289735Y-80898801D01*
X155316392Y-80900719D01*
X155371978Y-80910885D01*
X155400898Y-80932998D01*
X155404513Y-80973238D01*
X155384183Y-81037786D01*
X155341271Y-81132824D01*
X155285413Y-81253427D01*
X155241843Y-81360258D01*
X155210561Y-81459024D01*
X155189475Y-81559803D01*
X155176494Y-81672675D01*
X155169526Y-81807719D01*
X155166479Y-81975013D01*
X155165367Y-82085708D01*
X155163924Y-82216336D01*
X155162491Y-82333465D01*
X155161188Y-82427471D01*
X155160133Y-82488732D01*
X155157532Y-82610542D01*
X154394896Y-82610542D01*
X154394896Y-81484725D01*
X154283678Y-81496247D01*
X154271201Y-81497507D01*
X154189659Y-81504936D01*
X154088640Y-81513244D01*
X153987098Y-81520857D01*
X153801735Y-81533945D01*
X153801735Y-82610542D01*
X153039100Y-82610542D01*
X153039100Y-79009208D01*
X153801735Y-79009208D01*
X153801735Y-80894612D01*
G37*
G36*
X143282748Y-78997277D02*
G01*
X143492295Y-79005890D01*
X143662570Y-79022056D01*
X143794412Y-79045833D01*
X143888654Y-79077276D01*
X143905876Y-79085547D01*
X144057861Y-79183460D01*
X144181204Y-79311123D01*
X144272924Y-79464731D01*
X144330041Y-79640484D01*
X144331810Y-79650992D01*
X144337205Y-79711629D01*
X144341860Y-79807825D01*
X144345776Y-79934387D01*
X144348952Y-80086119D01*
X144351391Y-80257826D01*
X144353092Y-80444314D01*
X144354056Y-80640388D01*
X144354285Y-80840852D01*
X144353778Y-81040513D01*
X144352537Y-81234175D01*
X144350562Y-81416644D01*
X144347855Y-81582724D01*
X144344415Y-81727221D01*
X144340243Y-81844940D01*
X144335341Y-81930687D01*
X144329709Y-81979266D01*
X144319152Y-82023288D01*
X144256316Y-82187795D01*
X144163747Y-82331631D01*
X144046247Y-82449703D01*
X143908616Y-82536920D01*
X143755653Y-82588189D01*
X143742125Y-82590099D01*
X143682580Y-82594240D01*
X143589215Y-82597747D01*
X143468039Y-82600501D01*
X143325061Y-82602386D01*
X143166288Y-82603282D01*
X142997732Y-82603072D01*
X142330426Y-82599950D01*
X142324841Y-81773762D01*
X142323683Y-81589485D01*
X142322910Y-81413047D01*
X142322875Y-81271498D01*
X142323723Y-81160832D01*
X142325596Y-81077045D01*
X142328639Y-81016130D01*
X142332995Y-80974083D01*
X142338806Y-80946897D01*
X142346217Y-80930569D01*
X142355370Y-80921093D01*
X142376674Y-80912999D01*
X142423711Y-80905940D01*
X142498824Y-80900737D01*
X142605580Y-80897224D01*
X142747549Y-80895238D01*
X142928300Y-80894612D01*
X142959828Y-80894613D01*
X143126475Y-80894863D01*
X143255550Y-80896261D01*
X143351169Y-80899812D01*
X143417448Y-80906519D01*
X143458502Y-80917386D01*
X143478446Y-80933415D01*
X143481397Y-80955612D01*
X143471470Y-80984980D01*
X143452779Y-81022522D01*
X143443129Y-81042513D01*
X143413683Y-81114474D01*
X143387738Y-81190995D01*
X143352767Y-81281229D01*
X143284713Y-81377691D01*
X143194758Y-81437943D01*
X143123503Y-81467715D01*
X143129466Y-81716068D01*
X143135430Y-81964420D01*
X143230759Y-81957661D01*
X143353332Y-81933625D01*
X143449261Y-81879327D01*
X143515412Y-81794946D01*
X143520011Y-81785818D01*
X143530174Y-81762453D01*
X143538481Y-81735159D01*
X143545164Y-81699665D01*
X143550453Y-81651699D01*
X143554580Y-81586992D01*
X143557776Y-81501271D01*
X143560271Y-81390266D01*
X143562298Y-81249705D01*
X143564087Y-81075319D01*
X143565870Y-80862836D01*
X143565879Y-80861783D01*
X143567567Y-80623461D01*
X143568351Y-80423691D01*
X143567994Y-80258675D01*
X143566261Y-80124617D01*
X143562917Y-80017719D01*
X143557726Y-79934184D01*
X143550451Y-79870217D01*
X143540858Y-79822020D01*
X143528711Y-79785796D01*
X143513774Y-79757748D01*
X143495812Y-79734079D01*
X143470548Y-79707732D01*
X143442219Y-79690118D01*
X143401560Y-79679534D01*
X143338561Y-79673410D01*
X143243210Y-79669173D01*
X143040100Y-79661832D01*
X143039427Y-79986938D01*
X143039027Y-80057015D01*
X143036381Y-80178317D01*
X143030983Y-80264302D01*
X143022451Y-80319741D01*
X143010403Y-80349401D01*
X142991942Y-80365214D01*
X142949267Y-80381496D01*
X142878599Y-80394880D01*
X142772753Y-80407111D01*
X142721802Y-80411878D01*
X142624804Y-80419995D01*
X142542391Y-80425710D01*
X142488339Y-80428011D01*
X142413225Y-80428557D01*
X142371825Y-79721863D01*
X142330426Y-79015168D01*
X142764704Y-79001789D01*
X143033094Y-78996162D01*
X143282748Y-78997277D01*
G37*
G36*
X150184963Y-79000125D02*
G01*
X150325569Y-79000830D01*
X150497264Y-79002958D01*
X150636816Y-79006335D01*
X150741670Y-79010870D01*
X150809273Y-79016475D01*
X150837072Y-79023060D01*
X150839722Y-79030900D01*
X150844426Y-79078211D01*
X150848182Y-79167135D01*
X150850983Y-79297173D01*
X150852822Y-79467825D01*
X150853694Y-79678590D01*
X150853592Y-79928970D01*
X150852509Y-80218464D01*
X150846522Y-81392444D01*
X150797823Y-81498101D01*
X150753490Y-81581508D01*
X150692044Y-81661526D01*
X150615649Y-81723834D01*
X150518883Y-81770970D01*
X150396321Y-81805467D01*
X150242538Y-81829863D01*
X150052110Y-81846691D01*
X149976203Y-81851408D01*
X149855235Y-81857973D01*
X149742458Y-81863088D01*
X149654904Y-81865927D01*
X149501318Y-81869091D01*
X149501318Y-81339483D01*
X149773553Y-81339483D01*
X149780082Y-81339477D01*
X149888794Y-81337636D01*
X149986620Y-81332978D01*
X150063066Y-81326180D01*
X150107643Y-81317920D01*
X150126575Y-81311236D01*
X150152913Y-81299961D01*
X150174481Y-81284732D01*
X150191792Y-81261709D01*
X150205357Y-81227049D01*
X150215687Y-81176912D01*
X150223293Y-81107456D01*
X150228688Y-81014840D01*
X150232382Y-80895222D01*
X150234887Y-80744760D01*
X150236714Y-80559615D01*
X150238375Y-80335943D01*
X150244572Y-79470101D01*
X150068900Y-79482816D01*
X150044029Y-79484604D01*
X149930605Y-79492574D01*
X149804025Y-79501251D01*
X149687326Y-79509052D01*
X149481425Y-79522573D01*
X149481893Y-79296554D01*
X149482144Y-79251984D01*
X149484653Y-79159503D01*
X149490752Y-79097955D01*
X149501591Y-79059070D01*
X149518320Y-79034575D01*
X149523209Y-79030169D01*
X149539567Y-79020728D01*
X149565523Y-79013396D01*
X149605758Y-79007930D01*
X149664953Y-79004088D01*
X149747790Y-79001628D01*
X149858950Y-79000309D01*
X150003114Y-78999889D01*
X150184963Y-79000125D01*
G37*
G36*
X152869717Y-80492110D02*
G01*
X152904589Y-80493231D01*
X152958640Y-80500371D01*
X152985291Y-80511923D01*
X152984406Y-80529761D01*
X152966019Y-80575084D01*
X152932821Y-80633733D01*
X152891738Y-80702928D01*
X152851960Y-80785753D01*
X152821924Y-80874067D01*
X152800112Y-80975236D01*
X152785007Y-81096624D01*
X152775090Y-81245596D01*
X152768845Y-81429516D01*
X152758756Y-81847907D01*
X152149358Y-81847907D01*
X152149358Y-80964385D01*
X152038140Y-80972587D01*
X152008089Y-80974898D01*
X151908723Y-80983347D01*
X151815705Y-80992186D01*
X151704487Y-81003583D01*
X151704487Y-81847907D01*
X151090142Y-81847907D01*
X151090142Y-80470926D01*
X151704487Y-80470926D01*
X152153257Y-80470926D01*
X152146011Y-80056070D01*
X152138766Y-79641214D01*
X152069583Y-79579423D01*
X152028338Y-79546404D01*
X151987862Y-79527670D01*
X151934061Y-79519454D01*
X151852443Y-79517631D01*
X151704487Y-79517631D01*
X151704487Y-80470926D01*
X151090142Y-80470926D01*
X151090142Y-79006886D01*
X151720376Y-79013343D01*
X151890959Y-79015208D01*
X152036715Y-79017286D01*
X152150026Y-79019821D01*
X152236012Y-79023189D01*
X152299796Y-79027762D01*
X152346499Y-79033917D01*
X152381244Y-79042026D01*
X152409152Y-79052465D01*
X152435346Y-79065608D01*
X152501845Y-79108201D01*
X152613480Y-79214240D01*
X152703163Y-79348157D01*
X152707055Y-79355643D01*
X152721747Y-79386505D01*
X152733052Y-79418682D01*
X152741506Y-79458041D01*
X152747644Y-79510445D01*
X152752001Y-79581758D01*
X152755115Y-79677845D01*
X152757519Y-79804570D01*
X152759750Y-79967798D01*
X152766121Y-80470926D01*
X152766389Y-80492110D01*
X152869717Y-80492110D01*
G37*
G36*
X148157297Y-79008777D02*
G01*
X148238642Y-79016114D01*
X148297219Y-79027428D01*
X148323322Y-79042717D01*
X148323652Y-79043770D01*
X148326983Y-79076788D01*
X148329976Y-79145838D01*
X148332512Y-79245134D01*
X148334470Y-79368888D01*
X148335733Y-79511315D01*
X148336180Y-79666628D01*
X148336180Y-80257030D01*
X148489767Y-80386848D01*
X148529940Y-80421487D01*
X148581891Y-80467230D01*
X148623370Y-80501476D01*
X148655541Y-80521138D01*
X148679568Y-80523132D01*
X148696615Y-80504371D01*
X148707846Y-80461771D01*
X148714425Y-80392245D01*
X148717515Y-80292709D01*
X148718282Y-80160076D01*
X148717888Y-79991262D01*
X148717498Y-79783181D01*
X148717498Y-79009208D01*
X149310659Y-79009208D01*
X149310659Y-81847907D01*
X148720547Y-81847907D01*
X148708221Y-81736689D01*
X148702868Y-81660685D01*
X148700327Y-81561419D01*
X148701401Y-81463191D01*
X148702223Y-81436980D01*
X148702511Y-81361291D01*
X148696350Y-81312166D01*
X148681056Y-81277214D01*
X148653945Y-81244039D01*
X148652399Y-81242390D01*
X148599533Y-81194744D01*
X148546560Y-81158841D01*
X148492136Y-81130516D01*
X148369188Y-81445843D01*
X148344113Y-81509461D01*
X148301315Y-81614925D01*
X148263417Y-81704538D01*
X148233806Y-81770382D01*
X148215864Y-81804539D01*
X148212924Y-81808610D01*
X148197714Y-81824214D01*
X148174803Y-81835045D01*
X148137260Y-81841966D01*
X148078150Y-81845842D01*
X147990540Y-81847534D01*
X147867497Y-81847907D01*
X147549505Y-81847907D01*
X147564062Y-81800242D01*
X147569788Y-81783238D01*
X147589395Y-81728096D01*
X147620075Y-81643364D01*
X147659589Y-81535193D01*
X147705694Y-81409733D01*
X147756149Y-81273136D01*
X147789336Y-81182733D01*
X147835806Y-81053305D01*
X147875536Y-80939218D01*
X147906464Y-80846543D01*
X147926531Y-80781356D01*
X147933678Y-80749727D01*
X147932113Y-80739080D01*
X147906663Y-80694268D01*
X147858064Y-80646600D01*
X147839367Y-80631928D01*
X147807274Y-80604953D01*
X147781630Y-80577263D01*
X147761710Y-80544230D01*
X147746793Y-80501226D01*
X147736154Y-80443623D01*
X147729071Y-80366792D01*
X147724821Y-80266105D01*
X147722680Y-80136934D01*
X147721926Y-79974651D01*
X147721835Y-79774628D01*
X147721990Y-79665965D01*
X147722822Y-79504390D01*
X147724292Y-79358881D01*
X147726306Y-79234699D01*
X147728773Y-79137104D01*
X147731599Y-79071356D01*
X147734694Y-79042717D01*
X147748808Y-79031729D01*
X147798384Y-79019187D01*
X147873728Y-79010621D01*
X147965133Y-79006030D01*
X148062891Y-79005416D01*
X148157297Y-79008777D01*
G37*
G36*
X147086493Y-79009284D02*
G01*
X147240422Y-79010170D01*
X147377455Y-79011947D01*
X147492500Y-79014482D01*
X147580461Y-79017647D01*
X147636243Y-79021311D01*
X147654751Y-79025342D01*
X147653878Y-79027400D01*
X147640968Y-79059458D01*
X147617732Y-79118099D01*
X147588520Y-79192360D01*
X147567703Y-79243362D01*
X147525954Y-79327140D01*
X147482817Y-79380614D01*
X147431034Y-79411343D01*
X147363346Y-79426887D01*
X147276964Y-79438473D01*
X147276964Y-80397048D01*
X147276770Y-80632242D01*
X147276693Y-80828624D01*
X147277483Y-80989736D01*
X147279892Y-81119118D01*
X147284671Y-81220313D01*
X147292572Y-81296861D01*
X147304345Y-81352304D01*
X147320742Y-81390183D01*
X147342514Y-81414040D01*
X147370413Y-81427415D01*
X147405188Y-81433851D01*
X147447592Y-81436889D01*
X147498377Y-81440070D01*
X147567204Y-81448434D01*
X147617780Y-81460197D01*
X147637098Y-81472610D01*
X147627245Y-81525066D01*
X147599856Y-81600117D01*
X147562076Y-81680346D01*
X147521089Y-81750588D01*
X147484078Y-81795675D01*
X147422004Y-81847907D01*
X146387223Y-81847907D01*
X146387223Y-81403036D01*
X146641435Y-81403036D01*
X146641435Y-79411710D01*
X146387223Y-79411710D01*
X146387223Y-79009208D01*
X147024518Y-79009208D01*
X147086493Y-79009284D01*
G37*
G36*
X145872171Y-78988023D02*
G01*
X146154195Y-78988023D01*
X146154195Y-81847907D01*
X145561034Y-81847907D01*
X145560054Y-80910500D01*
X145559074Y-79973094D01*
X145422127Y-80121385D01*
X145397778Y-80148462D01*
X145330215Y-80230333D01*
X145271599Y-80310345D01*
X145232448Y-80374460D01*
X145179717Y-80479245D01*
X145179717Y-81847907D01*
X144565371Y-81847907D01*
X144565371Y-79009208D01*
X145179717Y-79009208D01*
X145179717Y-79500608D01*
X145331109Y-79302572D01*
X145355606Y-79270436D01*
X145432159Y-79169729D01*
X145490748Y-79096162D01*
X145538643Y-79045509D01*
X145583115Y-79013543D01*
X145631433Y-78996038D01*
X145690868Y-78988768D01*
X145768691Y-78987505D01*
X145872171Y-78988023D01*
G37*
G36*
X156428591Y-77992360D02*
G01*
X157148858Y-77992360D01*
X157148858Y-75619717D01*
X158123336Y-75619717D01*
X158123336Y-78011831D01*
X158291164Y-78017984D01*
X158458993Y-78024137D01*
X158331382Y-78320717D01*
X158298940Y-78396485D01*
X158248439Y-78518205D01*
X158208671Y-78623455D01*
X158178355Y-78719587D01*
X158156214Y-78813956D01*
X158140966Y-78913918D01*
X158131334Y-79026827D01*
X158126038Y-79160038D01*
X158123799Y-79320905D01*
X158123336Y-79516783D01*
X158123332Y-79535847D01*
X158122647Y-79721838D01*
X158120711Y-79868813D01*
X158117397Y-79979832D01*
X158112578Y-80057953D01*
X158106127Y-80106236D01*
X158097915Y-80127740D01*
X158078906Y-80134768D01*
X158022334Y-80142462D01*
X157937237Y-80148289D01*
X157831488Y-80152251D01*
X157712960Y-80154347D01*
X157589525Y-80154577D01*
X157469055Y-80152942D01*
X157359423Y-80149440D01*
X157268502Y-80144072D01*
X157204163Y-80136839D01*
X157174279Y-80127740D01*
X157168746Y-80116003D01*
X157162227Y-80078191D01*
X157157132Y-80012840D01*
X157153353Y-79916987D01*
X157150785Y-79787666D01*
X157149322Y-79621914D01*
X157148858Y-79416767D01*
X157148858Y-78731216D01*
X157058824Y-78742455D01*
X157013647Y-78747045D01*
X156930468Y-78753700D01*
X156828205Y-78760674D01*
X156719601Y-78767045D01*
X156695240Y-78768372D01*
X156594511Y-78774860D01*
X156526535Y-78782138D01*
X156483290Y-78791871D01*
X156456755Y-78805726D01*
X156438908Y-78825369D01*
X156432335Y-78837607D01*
X156424489Y-78865014D01*
X156418413Y-78907926D01*
X156413903Y-78970821D01*
X156410752Y-79058174D01*
X156408757Y-79174463D01*
X156407710Y-79324164D01*
X156407406Y-79511753D01*
X156407406Y-80153161D01*
X155475296Y-80153161D01*
X155475296Y-75619717D01*
X156428591Y-75619717D01*
X156428591Y-77992360D01*
G37*
G36*
X142007177Y-76737189D02*
G01*
X142012661Y-77854662D01*
X142155655Y-77860926D01*
X142234311Y-77866915D01*
X142283306Y-77878126D01*
X142298649Y-77895276D01*
X142291657Y-77920043D01*
X142269463Y-77976031D01*
X142235684Y-78053366D01*
X142194042Y-78143224D01*
X142185155Y-78161948D01*
X142133063Y-78275035D01*
X142091400Y-78374997D01*
X142058908Y-78468771D01*
X142034330Y-78563293D01*
X142016409Y-78665499D01*
X142003885Y-78782326D01*
X141995503Y-78920711D01*
X141990003Y-79087590D01*
X141986128Y-79289900D01*
X141976924Y-79877765D01*
X139777715Y-79877765D01*
X139777715Y-79112533D01*
X139867748Y-79123830D01*
X139881931Y-79125340D01*
X139944064Y-79130236D01*
X140037950Y-79136336D01*
X140156020Y-79143192D01*
X140290703Y-79150355D01*
X140434429Y-79157378D01*
X140493859Y-79160203D01*
X140633618Y-79167247D01*
X140760536Y-79174181D01*
X140867239Y-79180572D01*
X140946357Y-79185989D01*
X140990517Y-79189998D01*
X141069959Y-79200367D01*
X141069959Y-78882352D01*
X141069903Y-78797065D01*
X141069170Y-78699655D01*
X141066818Y-78634125D01*
X141061901Y-78594167D01*
X141053472Y-78573476D01*
X141040585Y-78565746D01*
X141022294Y-78564669D01*
X141005070Y-78565254D01*
X140947490Y-78568107D01*
X140858298Y-78573001D01*
X140744008Y-78579564D01*
X140611139Y-78587428D01*
X140466205Y-78596223D01*
X140378962Y-78601505D01*
X140235447Y-78609860D01*
X140105352Y-78617033D01*
X139995894Y-78622644D01*
X139914288Y-78626316D01*
X139867748Y-78627667D01*
X139777715Y-78627890D01*
X139777715Y-77865254D01*
X140388011Y-77865254D01*
X140541600Y-77864977D01*
X140698634Y-77863758D01*
X140820517Y-77861408D01*
X140911252Y-77857754D01*
X140974846Y-77852622D01*
X141015303Y-77845840D01*
X141036628Y-77837234D01*
X141037961Y-77836238D01*
X141049338Y-77824553D01*
X141058053Y-77805710D01*
X141064408Y-77774681D01*
X141068708Y-77726435D01*
X141071255Y-77655942D01*
X141072353Y-77558174D01*
X141072306Y-77428100D01*
X141071416Y-77260690D01*
X141070275Y-77126716D01*
X141068497Y-76991412D01*
X141066308Y-76875675D01*
X141063840Y-76785206D01*
X141061224Y-76725704D01*
X141058590Y-76702871D01*
X141047266Y-76702088D01*
X140999508Y-76703679D01*
X140920432Y-76708055D01*
X140816485Y-76714725D01*
X140694113Y-76723197D01*
X140559762Y-76732980D01*
X140419878Y-76743582D01*
X140280908Y-76754511D01*
X140149298Y-76765278D01*
X140031493Y-76775389D01*
X139933942Y-76784354D01*
X139863088Y-76791682D01*
X139825380Y-76796880D01*
X139777715Y-76806846D01*
X139777715Y-75619717D01*
X142001694Y-75619717D01*
X142007177Y-76737189D01*
G37*
G36*
X147070232Y-76747782D02*
G01*
X147075713Y-77875847D01*
X147220836Y-77738149D01*
X147257725Y-77703654D01*
X147301327Y-77662902D01*
X147337109Y-77626278D01*
X147365811Y-77589553D01*
X147388171Y-77548502D01*
X147404932Y-77498897D01*
X147416832Y-77436513D01*
X147424611Y-77357121D01*
X147429010Y-77256496D01*
X147430768Y-77130410D01*
X147430626Y-76974637D01*
X147429323Y-76784950D01*
X147427599Y-76557123D01*
X147421374Y-75640901D01*
X147836409Y-75640901D01*
X147855669Y-75640910D01*
X148006415Y-75641906D01*
X148118265Y-75644667D01*
X148194320Y-75649376D01*
X148237679Y-75656215D01*
X148251443Y-75665367D01*
X148245772Y-75691227D01*
X148228848Y-75749356D01*
X148203378Y-75830221D01*
X148172097Y-75924875D01*
X148092751Y-76159917D01*
X148098448Y-76795446D01*
X148104146Y-77430976D01*
X148167850Y-77561997D01*
X148236098Y-77674257D01*
X148342124Y-77792435D01*
X148452694Y-77891851D01*
X148463658Y-75640901D01*
X149120000Y-75640901D01*
X149120502Y-76874887D01*
X149121003Y-78108874D01*
X148789799Y-78432409D01*
X148458596Y-78755945D01*
X148282712Y-78596265D01*
X148106828Y-78436586D01*
X148091910Y-78595791D01*
X148085497Y-78655980D01*
X148075031Y-78716083D01*
X148061460Y-78746547D01*
X148042407Y-78755011D01*
X148038834Y-78754842D01*
X147998684Y-78749327D01*
X147927700Y-78737191D01*
X147834762Y-78720010D01*
X147728749Y-78699360D01*
X147449675Y-78643693D01*
X147435454Y-78540296D01*
X147421233Y-78436900D01*
X147241913Y-78599699D01*
X147062594Y-78762498D01*
X146767344Y-78467813D01*
X146761653Y-78462126D01*
X146668402Y-78367084D01*
X146584332Y-78278085D01*
X146514747Y-78200997D01*
X146464952Y-78141688D01*
X146440251Y-78106023D01*
X146433719Y-78087885D01*
X146427806Y-78059262D01*
X146422863Y-78017773D01*
X146418807Y-77960139D01*
X146415557Y-77883083D01*
X146413032Y-77783328D01*
X146411149Y-77657594D01*
X146409827Y-77502604D01*
X146408984Y-77315080D01*
X146408538Y-77091743D01*
X146408407Y-76829317D01*
X146408407Y-75619717D01*
X147064750Y-75619717D01*
X147070232Y-76747782D01*
G37*
G36*
X152424754Y-78691443D02*
G01*
X152424754Y-78094045D01*
X152352728Y-78022018D01*
X152328685Y-77999061D01*
X152286041Y-77963858D01*
X152259999Y-77949992D01*
X152254302Y-77954563D01*
X152237194Y-77990227D01*
X152215783Y-78053573D01*
X152193393Y-78135355D01*
X152191624Y-78142485D01*
X152144427Y-78324010D01*
X152101608Y-78471449D01*
X152063819Y-78582876D01*
X152031709Y-78656364D01*
X152005930Y-78689989D01*
X151996721Y-78693240D01*
X151948224Y-78700454D01*
X151869465Y-78706341D01*
X151769003Y-78710363D01*
X151655395Y-78711983D01*
X151636438Y-78712017D01*
X151520446Y-78711783D01*
X151439985Y-78710177D01*
X151389043Y-78706476D01*
X151361607Y-78699956D01*
X151351665Y-78689890D01*
X151353205Y-78675555D01*
X151355991Y-78666616D01*
X151377002Y-78594826D01*
X151404111Y-78496850D01*
X151435612Y-78379401D01*
X151469798Y-78249188D01*
X151504962Y-78112922D01*
X151539399Y-77977316D01*
X151571401Y-77849079D01*
X151599262Y-77734922D01*
X151621276Y-77641558D01*
X151635735Y-77575695D01*
X151640934Y-77544047D01*
X151640887Y-77541093D01*
X151628730Y-77496010D01*
X151591762Y-77441110D01*
X151525114Y-77369037D01*
X151517541Y-77361378D01*
X151460556Y-77297981D01*
X151416920Y-77239767D01*
X151395556Y-77198481D01*
X151393541Y-77184037D01*
X151390628Y-77127956D01*
X151388914Y-77039908D01*
X151388715Y-76991362D01*
X152022252Y-76991362D01*
X152210193Y-77152099D01*
X152282509Y-77212090D01*
X152345938Y-77261051D01*
X152391172Y-77291849D01*
X152411444Y-77299526D01*
X152414279Y-77284639D01*
X152417661Y-77232179D01*
X152420545Y-77147757D01*
X152422786Y-77037266D01*
X152424238Y-76906600D01*
X152424754Y-76761652D01*
X152424517Y-76597560D01*
X152423107Y-76459685D01*
X152419512Y-76355204D01*
X152412717Y-76279492D01*
X152401710Y-76227920D01*
X152385477Y-76195862D01*
X152363005Y-76178693D01*
X152333281Y-76171784D01*
X152295291Y-76170509D01*
X152292504Y-76170538D01*
X152224168Y-76183367D01*
X152149223Y-76213998D01*
X152083828Y-76254337D01*
X152044145Y-76296291D01*
X152040787Y-76306158D01*
X152033384Y-76356763D01*
X152027513Y-76438591D01*
X152023646Y-76543732D01*
X152022252Y-76664280D01*
X152022252Y-76991362D01*
X151388715Y-76991362D01*
X151388451Y-76926680D01*
X151389288Y-76795059D01*
X151391477Y-76651832D01*
X151392378Y-76606926D01*
X151395902Y-76455648D01*
X151399859Y-76338672D01*
X151404829Y-76249571D01*
X151411394Y-76181919D01*
X151420134Y-76129291D01*
X151431629Y-76085261D01*
X151446460Y-76043403D01*
X151449416Y-76035901D01*
X151521769Y-75897483D01*
X151617512Y-75791220D01*
X151741992Y-75711096D01*
X151863370Y-75651493D01*
X152472419Y-75644743D01*
X153081468Y-75637992D01*
X153081468Y-78691443D01*
X152424754Y-78691443D01*
G37*
G36*
X150904779Y-78696819D02*
G01*
X150817464Y-78699311D01*
X150566974Y-78704638D01*
X150353639Y-78705601D01*
X150173612Y-78701609D01*
X150023045Y-78692076D01*
X149898091Y-78676412D01*
X149794902Y-78654030D01*
X149709631Y-78624342D01*
X149638430Y-78586759D01*
X149577451Y-78540693D01*
X149522847Y-78485556D01*
X149497186Y-78456166D01*
X149466566Y-78418629D01*
X149441025Y-78381032D01*
X149420101Y-78339528D01*
X149403335Y-78290272D01*
X149390267Y-78229417D01*
X149380434Y-78153117D01*
X149373378Y-78057525D01*
X149368637Y-77938796D01*
X149365751Y-77793083D01*
X149364260Y-77616540D01*
X149363703Y-77405321D01*
X149363629Y-77182741D01*
X150009860Y-77182741D01*
X150009872Y-77256307D01*
X150010344Y-77460941D01*
X150011817Y-77628514D01*
X150014737Y-77763053D01*
X150019545Y-77868582D01*
X150026685Y-77949128D01*
X150036601Y-78008715D01*
X150049737Y-78051369D01*
X150066535Y-78081115D01*
X150087439Y-78101978D01*
X150112893Y-78117984D01*
X150140525Y-78128311D01*
X150204000Y-78142983D01*
X150279470Y-78153993D01*
X150306870Y-78156649D01*
X150370232Y-78158952D01*
X150408458Y-78150518D01*
X150434033Y-78129357D01*
X150436629Y-78125708D01*
X150443968Y-78107339D01*
X150450106Y-78075767D01*
X150455185Y-78027346D01*
X150459350Y-77958430D01*
X150462744Y-77865374D01*
X150465510Y-77744531D01*
X150467792Y-77592257D01*
X150469735Y-77404906D01*
X150471481Y-77178831D01*
X150472563Y-77030201D01*
X150474042Y-76822790D01*
X150474617Y-76652034D01*
X150473627Y-76514408D01*
X150470412Y-76406385D01*
X150464313Y-76324440D01*
X150454670Y-76265047D01*
X150440822Y-76224681D01*
X150422110Y-76199815D01*
X150397873Y-76186924D01*
X150367451Y-76182481D01*
X150330186Y-76182962D01*
X150285415Y-76184839D01*
X150201263Y-76191894D01*
X150118703Y-76216842D01*
X150064496Y-76263083D01*
X150032095Y-76334487D01*
X150030054Y-76344196D01*
X150024287Y-76400872D01*
X150019361Y-76495359D01*
X150015365Y-76624224D01*
X150012389Y-76784032D01*
X150010524Y-76971349D01*
X150009860Y-77182741D01*
X149363629Y-77182741D01*
X149363620Y-77155580D01*
X149363620Y-76138732D01*
X149419787Y-76018927D01*
X149428128Y-76001766D01*
X149518185Y-75865750D01*
X149635548Y-75756294D01*
X149773023Y-75680293D01*
X149798137Y-75670795D01*
X149835021Y-75659005D01*
X149875941Y-75649752D01*
X149926373Y-75642621D01*
X149991793Y-75637197D01*
X150077677Y-75633067D01*
X150189501Y-75629816D01*
X150332739Y-75627029D01*
X150512869Y-75624291D01*
X151132511Y-75615478D01*
X151132511Y-78690010D01*
X150904779Y-78696819D01*
G37*
G36*
X143385194Y-78691443D02*
G01*
X143372358Y-78538333D01*
X143367793Y-78455058D01*
X143367034Y-78352783D01*
X143371293Y-78268233D01*
X143374610Y-78220699D01*
X143366449Y-78121194D01*
X143332243Y-78047730D01*
X143269341Y-77993154D01*
X143256908Y-77985782D01*
X143214494Y-77963931D01*
X143193750Y-77958756D01*
X143190225Y-77967895D01*
X143177171Y-78011602D01*
X143156744Y-78084859D01*
X143130911Y-78180566D01*
X143101634Y-78291624D01*
X143084579Y-78355668D01*
X143053620Y-78465514D01*
X143025068Y-78559235D01*
X143001514Y-78628496D01*
X142985550Y-78664963D01*
X142977759Y-78676166D01*
X142962445Y-78691061D01*
X142938830Y-78701227D01*
X142900100Y-78707566D01*
X142839443Y-78710979D01*
X142750044Y-78712365D01*
X142625090Y-78712627D01*
X142585892Y-78712607D01*
X142472000Y-78712024D01*
X142392906Y-78710120D01*
X142342708Y-78706208D01*
X142315502Y-78699601D01*
X142305384Y-78689612D01*
X142306450Y-78675555D01*
X142313043Y-78652140D01*
X142332673Y-78580230D01*
X142359168Y-78481442D01*
X142390553Y-78363311D01*
X142424851Y-78233373D01*
X142460087Y-78099161D01*
X142494285Y-77968213D01*
X142525470Y-77848062D01*
X142551666Y-77746244D01*
X142570896Y-77670294D01*
X142581186Y-77627747D01*
X142590068Y-77571981D01*
X142582582Y-77494722D01*
X142542721Y-77430341D01*
X142465862Y-77368441D01*
X142439489Y-77349841D01*
X142407772Y-77320902D01*
X142383443Y-77285343D01*
X142365645Y-77238059D01*
X142353518Y-77173949D01*
X142346205Y-77087907D01*
X142342847Y-76974830D01*
X142342586Y-76829614D01*
X142343149Y-76777693D01*
X142954456Y-76777693D01*
X142956878Y-76865027D01*
X142964535Y-76924434D01*
X142974554Y-76949117D01*
X143008861Y-77004393D01*
X143055763Y-77063073D01*
X143103680Y-77110516D01*
X143179885Y-77175638D01*
X143257833Y-77233724D01*
X143381762Y-77317883D01*
X143375110Y-76789773D01*
X143374943Y-76776748D01*
X143372091Y-76603078D01*
X143368408Y-76467561D01*
X143363652Y-76366248D01*
X143357580Y-76295189D01*
X143349948Y-76250436D01*
X143340513Y-76228040D01*
X143339860Y-76227261D01*
X143281568Y-76188052D01*
X143205965Y-76176198D01*
X143125953Y-76189572D01*
X143054432Y-76226046D01*
X143004303Y-76283491D01*
X142997296Y-76301780D01*
X142983644Y-76366034D01*
X142971862Y-76456600D01*
X142962621Y-76562631D01*
X142956594Y-76673278D01*
X142954456Y-76777693D01*
X142343149Y-76777693D01*
X142344563Y-76647156D01*
X142345166Y-76603980D01*
X142347511Y-76453272D01*
X142350150Y-76337219D01*
X142353696Y-76249634D01*
X142358762Y-76184332D01*
X142365960Y-76135126D01*
X142375904Y-76095829D01*
X142389207Y-76060255D01*
X142406481Y-76022219D01*
X142431136Y-75972554D01*
X142499093Y-75864904D01*
X142578836Y-75783480D01*
X142680843Y-75716614D01*
X142725863Y-75693941D01*
X142781043Y-75673139D01*
X142845938Y-75658044D01*
X142931423Y-75646252D01*
X143048375Y-75635359D01*
X143171561Y-75628279D01*
X143328394Y-75624621D01*
X143496538Y-75625070D01*
X143660092Y-75629775D01*
X144014579Y-75645411D01*
X144014579Y-78691443D01*
X143385194Y-78691443D01*
G37*
G36*
X155178716Y-77229725D02*
G01*
X155274045Y-77229725D01*
X155302541Y-77230743D01*
X155350443Y-77238678D01*
X155369375Y-77251905D01*
X155369103Y-77254587D01*
X155360825Y-77289528D01*
X155342725Y-77354951D01*
X155317141Y-77442620D01*
X155286409Y-77544296D01*
X155230665Y-77740088D01*
X155191615Y-77916019D01*
X155168812Y-78080907D01*
X155160427Y-78248080D01*
X155164628Y-78430865D01*
X155177835Y-78691443D01*
X154522002Y-78691443D01*
X154522002Y-77759333D01*
X154421376Y-77759483D01*
X154363779Y-77760882D01*
X154270642Y-77765847D01*
X154177757Y-77773139D01*
X154034763Y-77786644D01*
X154034763Y-78691443D01*
X153356864Y-78691443D01*
X153356864Y-77229725D01*
X154034763Y-77229725D01*
X154495058Y-77229725D01*
X154509945Y-76987973D01*
X154513140Y-76922372D01*
X154515965Y-76788464D01*
X154514868Y-76654733D01*
X154509855Y-76542184D01*
X154509540Y-76537933D01*
X154496931Y-76419524D01*
X154476601Y-76334295D01*
X154443863Y-76273427D01*
X154394031Y-76228100D01*
X154322416Y-76189497D01*
X154236447Y-76158785D01*
X154152101Y-76153569D01*
X154081845Y-76182302D01*
X154076215Y-76186320D01*
X154062705Y-76198327D01*
X154052505Y-76215393D01*
X154045148Y-76242847D01*
X154040170Y-76286021D01*
X154037108Y-76350243D01*
X154035495Y-76440844D01*
X154034868Y-76563154D01*
X154034763Y-76722502D01*
X154034763Y-77229725D01*
X153356864Y-77229725D01*
X153356864Y-77168438D01*
X153356865Y-77133378D01*
X153356952Y-76845426D01*
X153357226Y-76596672D01*
X153357749Y-76384268D01*
X153358584Y-76205362D01*
X153359792Y-76057107D01*
X153361436Y-75936653D01*
X153363579Y-75841151D01*
X153366281Y-75767752D01*
X153369606Y-75713606D01*
X153373616Y-75675865D01*
X153378372Y-75651679D01*
X153383937Y-75638199D01*
X153390373Y-75632575D01*
X153409101Y-75629069D01*
X153468204Y-75624835D01*
X153558061Y-75621876D01*
X153671678Y-75620132D01*
X153802060Y-75619544D01*
X153942214Y-75620050D01*
X154085147Y-75621594D01*
X154223864Y-75624116D01*
X154351372Y-75627556D01*
X154460677Y-75631856D01*
X154544784Y-75636956D01*
X154596701Y-75642796D01*
X154621287Y-75647668D01*
X154788276Y-75701513D01*
X154925852Y-75785804D01*
X155033455Y-75899968D01*
X155110524Y-76043430D01*
X155156497Y-76215615D01*
X155157266Y-76220621D01*
X155163962Y-76287957D01*
X155169787Y-76387625D01*
X155174393Y-76510578D01*
X155177431Y-76647768D01*
X155178543Y-76788464D01*
X155178556Y-76790150D01*
X155178716Y-77229725D01*
G37*
G36*
X146249312Y-77232781D02*
G01*
X146318219Y-77242405D01*
X146381618Y-77255084D01*
X146309506Y-77374807D01*
X146280171Y-77424892D01*
X146237154Y-77507494D01*
X146204134Y-77588812D01*
X146179652Y-77676120D01*
X146162253Y-77776688D01*
X146150478Y-77897790D01*
X146142869Y-78046698D01*
X146137969Y-78230684D01*
X146128862Y-78691443D01*
X145455113Y-78691443D01*
X145455113Y-77759333D01*
X145373572Y-77759333D01*
X145371963Y-77759335D01*
X145308435Y-77761295D01*
X145221668Y-77766204D01*
X145129952Y-77773034D01*
X144967873Y-77786734D01*
X144967873Y-78691443D01*
X144311160Y-78691443D01*
X144311160Y-77229725D01*
X144989058Y-77229725D01*
X145455113Y-77229725D01*
X145455113Y-76786233D01*
X145455054Y-76752175D01*
X145453673Y-76618300D01*
X145450677Y-76497888D01*
X145446361Y-76398165D01*
X145441019Y-76326357D01*
X145434943Y-76289690D01*
X145423005Y-76263996D01*
X145393159Y-76229918D01*
X145344913Y-76206514D01*
X145270282Y-76190547D01*
X145161279Y-76178780D01*
X144989058Y-76164417D01*
X144989058Y-77229725D01*
X144311160Y-77229725D01*
X144311160Y-77179358D01*
X144311183Y-77019417D01*
X144311380Y-76747188D01*
X144311824Y-76513004D01*
X144312575Y-76314036D01*
X144313689Y-76147454D01*
X144315224Y-76010429D01*
X144317239Y-75900131D01*
X144319791Y-75813730D01*
X144322938Y-75748397D01*
X144326739Y-75701302D01*
X144331251Y-75669615D01*
X144336531Y-75650507D01*
X144342639Y-75641147D01*
X144353389Y-75635814D01*
X144386824Y-75629255D01*
X144443905Y-75624722D01*
X144528371Y-75622120D01*
X144643960Y-75621355D01*
X144794412Y-75622332D01*
X144983465Y-75624957D01*
X145067994Y-75626398D01*
X145236104Y-75629851D01*
X145369287Y-75633737D01*
X145472744Y-75638398D01*
X145551674Y-75644175D01*
X145611279Y-75651410D01*
X145656759Y-75660445D01*
X145693314Y-75671622D01*
X145760622Y-75702304D01*
X145879262Y-75786223D01*
X145982673Y-75897509D01*
X146060789Y-76026445D01*
X146122419Y-76159917D01*
X146136223Y-77229725D01*
X146195522Y-77229725D01*
X146249312Y-77232781D01*
G37*
G36*
X131655115Y-83128920D02*
G01*
X131645559Y-83247386D01*
X131632821Y-83338767D01*
X131617243Y-83395457D01*
X131591188Y-83439092D01*
X131514703Y-83508585D01*
X131410260Y-83553025D01*
X131404445Y-83554454D01*
X131314302Y-83564200D01*
X131208266Y-83559443D01*
X131105453Y-83542112D01*
X131024985Y-83514136D01*
X130990746Y-83495301D01*
X130952308Y-83468112D01*
X130922924Y-83434764D01*
X130901478Y-83390086D01*
X130886853Y-83328908D01*
X130877936Y-83246060D01*
X130873608Y-83136371D01*
X130872756Y-82994673D01*
X130873957Y-82851967D01*
X131187381Y-82851967D01*
X131187400Y-82886503D01*
X131188072Y-83009212D01*
X131190192Y-83097659D01*
X131194418Y-83158402D01*
X131201408Y-83198000D01*
X131211820Y-83223013D01*
X131226312Y-83239999D01*
X131246388Y-83256873D01*
X131271349Y-83262418D01*
X131300970Y-83235751D01*
X131303181Y-83233221D01*
X131315680Y-83212982D01*
X131324394Y-83182531D01*
X131329799Y-83135439D01*
X131332367Y-83065282D01*
X131332572Y-82965633D01*
X131330889Y-82830065D01*
X131330027Y-82778375D01*
X131327351Y-82657599D01*
X131323794Y-82570839D01*
X131318657Y-82511918D01*
X131311239Y-82474655D01*
X131300842Y-82452872D01*
X131286766Y-82440390D01*
X131282324Y-82437760D01*
X131248476Y-82430274D01*
X131217917Y-82458044D01*
X131216058Y-82460717D01*
X131204543Y-82488884D01*
X131196364Y-82536326D01*
X131191076Y-82608810D01*
X131188230Y-82712101D01*
X131187381Y-82851967D01*
X130873957Y-82851967D01*
X130874262Y-82815794D01*
X130880209Y-82303739D01*
X130933170Y-82246383D01*
X131008850Y-82184471D01*
X131113188Y-82143928D01*
X131244958Y-82131052D01*
X131293005Y-82132013D01*
X131414039Y-82146606D01*
X131506832Y-82180790D01*
X131579591Y-82237168D01*
X131596468Y-82255415D01*
X131617728Y-82284390D01*
X131632041Y-82319187D01*
X131641622Y-82368933D01*
X131648685Y-82442752D01*
X131655444Y-82549771D01*
X131661250Y-82687048D01*
X131663304Y-82841146D01*
X131661509Y-82965633D01*
X131661144Y-82990972D01*
X131655115Y-83128920D01*
G37*
G36*
X132373703Y-82712124D02*
G01*
X132373602Y-82775720D01*
X132372130Y-82949527D01*
X132369011Y-83095720D01*
X132364377Y-83210614D01*
X132358365Y-83290524D01*
X132351108Y-83331765D01*
X132314815Y-83398971D01*
X132256463Y-83466209D01*
X132193637Y-83508889D01*
X132174103Y-83513687D01*
X132115052Y-83520537D01*
X132032081Y-83525506D01*
X131936599Y-83527757D01*
X131907685Y-83527917D01*
X131820063Y-83527557D01*
X131764546Y-83524387D01*
X131732987Y-83516750D01*
X131717240Y-83502986D01*
X131709157Y-83481435D01*
X131694887Y-83400327D01*
X131705157Y-83330041D01*
X131745784Y-83288526D01*
X131817236Y-83274887D01*
X131887229Y-83266368D01*
X131958078Y-83245534D01*
X131969852Y-83240442D01*
X132008923Y-83216117D01*
X132029784Y-83179464D01*
X132042135Y-83115471D01*
X132043484Y-83104169D01*
X132048368Y-83036758D01*
X132052323Y-82940910D01*
X132054972Y-82827725D01*
X132055939Y-82708303D01*
X132055939Y-82401844D01*
X131886464Y-82409540D01*
X131716989Y-82417237D01*
X131716989Y-82152119D01*
X132373703Y-82152119D01*
X132373703Y-82712124D01*
G37*
G36*
X129694138Y-82133644D02*
G01*
X129753120Y-82139456D01*
X129791341Y-82143693D01*
X129866673Y-82157712D01*
X129927959Y-82182512D01*
X129989318Y-82225006D01*
X130064870Y-82292107D01*
X130163081Y-82383973D01*
X130246249Y-82298076D01*
X130279603Y-82265681D01*
X130341318Y-82213492D01*
X130392969Y-82178481D01*
X130416181Y-82168901D01*
X130482377Y-82154005D01*
X130562073Y-82145920D01*
X130641523Y-82145094D01*
X130706979Y-82151977D01*
X130744696Y-82167014D01*
X130746731Y-82169046D01*
X130753907Y-82177218D01*
X130759602Y-82188687D01*
X130763950Y-82207793D01*
X130767085Y-82238878D01*
X130769141Y-82286282D01*
X130770252Y-82354348D01*
X130770552Y-82447417D01*
X130770175Y-82569829D01*
X130769254Y-82725926D01*
X130767924Y-82920050D01*
X130763695Y-83529099D01*
X130445930Y-83529099D01*
X130445930Y-83040095D01*
X130445894Y-82981466D01*
X130445112Y-82827979D01*
X130442737Y-82712555D01*
X130438021Y-82631946D01*
X130430215Y-82582906D01*
X130418571Y-82562188D01*
X130402340Y-82566546D01*
X130380775Y-82592733D01*
X130353125Y-82637501D01*
X130342160Y-82658258D01*
X130331053Y-82688912D01*
X130323367Y-82729214D01*
X130318608Y-82785707D01*
X130316285Y-82864931D01*
X130315904Y-82973430D01*
X130316974Y-83117744D01*
X130321055Y-83529099D01*
X130003482Y-83529099D01*
X129996975Y-83095181D01*
X129990467Y-82661262D01*
X129921618Y-82592461D01*
X129852769Y-82523659D01*
X129852769Y-83529099D01*
X129559237Y-83529099D01*
X129545416Y-83417882D01*
X129542455Y-83377891D01*
X129539673Y-83296667D01*
X129537824Y-83186057D01*
X129536980Y-83053153D01*
X129537213Y-82905051D01*
X129538596Y-82748842D01*
X129540344Y-82607780D01*
X129542896Y-82457413D01*
X129547158Y-82341750D01*
X129554656Y-82256452D01*
X129566918Y-82197184D01*
X129585470Y-82159606D01*
X129611839Y-82139382D01*
X129647553Y-82132174D01*
X129694138Y-82133644D01*
G37*
G36*
X128363272Y-82133684D02*
G01*
X128418063Y-82139409D01*
X128476807Y-82147061D01*
X128578383Y-82175014D01*
X128656561Y-82223825D01*
X128723140Y-82299691D01*
X128744140Y-82327979D01*
X128779002Y-82368554D01*
X128800345Y-82384694D01*
X128818876Y-82376008D01*
X128861709Y-82346329D01*
X128916859Y-82302784D01*
X128951072Y-82274918D01*
X129038784Y-82211925D01*
X129115656Y-82174479D01*
X129194205Y-82157630D01*
X129286948Y-82156426D01*
X129418491Y-82162711D01*
X129424080Y-82845905D01*
X129429670Y-83529099D01*
X129111318Y-83529099D01*
X129111318Y-83028674D01*
X129111303Y-82985447D01*
X129110863Y-82836047D01*
X129109596Y-82723393D01*
X129107212Y-82642980D01*
X129103421Y-82590304D01*
X129097933Y-82560861D01*
X129090457Y-82550147D01*
X129080703Y-82553657D01*
X129077546Y-82556367D01*
X129041086Y-82605483D01*
X129014469Y-82681495D01*
X128997072Y-82788110D01*
X128988270Y-82929037D01*
X128987440Y-83107983D01*
X128988033Y-83165301D01*
X128987685Y-83277390D01*
X128985426Y-83373247D01*
X128981516Y-83444164D01*
X128976217Y-83481435D01*
X128974993Y-83484971D01*
X128961930Y-83508759D01*
X128937325Y-83522051D01*
X128890913Y-83527835D01*
X128812426Y-83529099D01*
X128664680Y-83529099D01*
X128667819Y-83118827D01*
X128668133Y-83073668D01*
X128668281Y-82932577D01*
X128666109Y-82825493D01*
X128660641Y-82745854D01*
X128650901Y-82687097D01*
X128635914Y-82642662D01*
X128614705Y-82605987D01*
X128586297Y-82570509D01*
X128562628Y-82547733D01*
X128536058Y-82533436D01*
X128532817Y-82541666D01*
X128528101Y-82585655D01*
X128524066Y-82662460D01*
X128520923Y-82766230D01*
X128518884Y-82891116D01*
X128518157Y-83031268D01*
X128518157Y-83529099D01*
X128196345Y-83529099D01*
X128203665Y-82860075D01*
X128205230Y-82710728D01*
X128207336Y-82542571D01*
X128210519Y-82409790D01*
X128215974Y-82308371D01*
X128224894Y-82234301D01*
X128238474Y-82183565D01*
X128257907Y-82152150D01*
X128284389Y-82136040D01*
X128319112Y-82131223D01*
X128363272Y-82133684D01*
G37*
G36*
X128115190Y-82717871D02*
G01*
X128114887Y-82866766D01*
X128113905Y-83008360D01*
X128111934Y-83117677D01*
X128108642Y-83200186D01*
X128103699Y-83261353D01*
X128096774Y-83306648D01*
X128087537Y-83341539D01*
X128075656Y-83371494D01*
X128036767Y-83434606D01*
X127964904Y-83492821D01*
X127935569Y-83504664D01*
X127886117Y-83516064D01*
X127817320Y-83523367D01*
X127721518Y-83527307D01*
X127591050Y-83528617D01*
X127288880Y-83529099D01*
X127294469Y-82845905D01*
X127300059Y-82162711D01*
X127435828Y-82156316D01*
X127495334Y-82155025D01*
X127559417Y-82161039D01*
X127589090Y-82177501D01*
X127592744Y-82194795D01*
X127597243Y-82250527D01*
X127601105Y-82337960D01*
X127604135Y-82450987D01*
X127606134Y-82583500D01*
X127606907Y-82729391D01*
X127607164Y-82881735D01*
X127607994Y-83009652D01*
X127609739Y-83104618D01*
X127612744Y-83171520D01*
X127617356Y-83215245D01*
X127623922Y-83240678D01*
X127632789Y-83252705D01*
X127644304Y-83256213D01*
X127713150Y-83253855D01*
X127766114Y-83229733D01*
X127769492Y-83221352D01*
X127776262Y-83175154D01*
X127782767Y-83093742D01*
X127788726Y-82981894D01*
X127793860Y-82844389D01*
X127797890Y-82686007D01*
X127808482Y-82162711D01*
X127962069Y-82156487D01*
X128115655Y-82150262D01*
X128115190Y-82717871D01*
G37*
G36*
X127184132Y-83529099D02*
G01*
X126865780Y-83529099D01*
X126865780Y-83114240D01*
X126865472Y-82996363D01*
X126863600Y-82872050D01*
X126859195Y-82785051D01*
X126851310Y-82732467D01*
X126839002Y-82711400D01*
X126821327Y-82718952D01*
X126797339Y-82752225D01*
X126766095Y-82808320D01*
X126747487Y-82846675D01*
X126733988Y-82886330D01*
X126725252Y-82934493D01*
X126720265Y-82999627D01*
X126718015Y-83090197D01*
X126717490Y-83214666D01*
X126717490Y-83529099D01*
X126419850Y-83529099D01*
X126406873Y-83464215D01*
X126393897Y-83399331D01*
X126326953Y-83464215D01*
X126260010Y-83529099D01*
X125761874Y-83529099D01*
X125768331Y-83428641D01*
X125768762Y-83422191D01*
X125777153Y-83360101D01*
X125796103Y-83324408D01*
X125807098Y-83317256D01*
X126230250Y-83317256D01*
X126281479Y-83317256D01*
X126318316Y-83319730D01*
X126365544Y-83329857D01*
X126374725Y-83330113D01*
X126382714Y-83319428D01*
X126388938Y-83293007D01*
X126393704Y-83246411D01*
X126397322Y-83175202D01*
X126400097Y-83074940D01*
X126402337Y-82941187D01*
X126404349Y-82769504D01*
X126404445Y-82760123D01*
X126405546Y-82611029D01*
X126405750Y-82477971D01*
X126405110Y-82366214D01*
X126403680Y-82281023D01*
X126401514Y-82227666D01*
X126398665Y-82211407D01*
X126385765Y-82227751D01*
X126352561Y-82269708D01*
X126308632Y-82325158D01*
X126230250Y-82424053D01*
X126230250Y-83317256D01*
X125807098Y-83317256D01*
X125833044Y-83300379D01*
X125891301Y-83272576D01*
X125891301Y-82394435D01*
X125826551Y-82369994D01*
X125799086Y-82360527D01*
X125765888Y-82357382D01*
X125750139Y-82375942D01*
X125746831Y-82381888D01*
X125709916Y-82400331D01*
X125634823Y-82406330D01*
X125531168Y-82406330D01*
X125531168Y-83529099D01*
X125213403Y-83529099D01*
X125213403Y-82402514D01*
X125112778Y-82409718D01*
X125012152Y-82416923D01*
X125012152Y-82162711D01*
X125358876Y-82156878D01*
X125363735Y-82156797D01*
X125512364Y-82155877D01*
X125624797Y-82158463D01*
X125699019Y-82164466D01*
X125733012Y-82173795D01*
X125751034Y-82184737D01*
X125774180Y-82174286D01*
X125789418Y-82168100D01*
X125846078Y-82161273D01*
X125942984Y-82156446D01*
X126078930Y-82153673D01*
X126252713Y-82153007D01*
X126717490Y-82153986D01*
X126717490Y-82348575D01*
X126823627Y-82249296D01*
X126849986Y-82224796D01*
X126899739Y-82182555D01*
X126939940Y-82161128D01*
X126985507Y-82154427D01*
X127051359Y-82156364D01*
X127172953Y-82162711D01*
X127175532Y-82477971D01*
X127178542Y-82845905D01*
X127184132Y-83529099D01*
G37*
G36*
X124359156Y-82152480D02*
G01*
X124407461Y-82157498D01*
X124439438Y-82173449D01*
X124458467Y-82206622D01*
X124467929Y-82263301D01*
X124471201Y-82349772D01*
X124471663Y-82472322D01*
X124472304Y-82553905D01*
X124475555Y-82632440D01*
X124482941Y-82685469D01*
X124495986Y-82722606D01*
X124516213Y-82753466D01*
X124560474Y-82809735D01*
X124606246Y-82751667D01*
X124609801Y-82747060D01*
X124628508Y-82716683D01*
X124641652Y-82678159D01*
X124650723Y-82622933D01*
X124657213Y-82542450D01*
X124662611Y-82428155D01*
X124673203Y-82162711D01*
X124969783Y-82162711D01*
X124969783Y-82918968D01*
X124909796Y-82964526D01*
X124849900Y-83010445D01*
X124789591Y-83061801D01*
X124752974Y-83107413D01*
X124734138Y-83158924D01*
X124727172Y-83227978D01*
X124726164Y-83326219D01*
X124726164Y-83529099D01*
X124408399Y-83529099D01*
X124408399Y-83347005D01*
X124406301Y-83257021D01*
X124394713Y-83168748D01*
X124368502Y-83102139D01*
X124322678Y-83045720D01*
X124252250Y-82988022D01*
X124164779Y-82923593D01*
X124153231Y-82152119D01*
X124299529Y-82152119D01*
X124359156Y-82152480D01*
G37*
G36*
X133411735Y-80944612D02*
G01*
X134004896Y-80944612D01*
X134004896Y-79059208D01*
X134788716Y-79059208D01*
X134788716Y-80942398D01*
X134899735Y-80948801D01*
X134926392Y-80950719D01*
X134981978Y-80960885D01*
X135010898Y-80982998D01*
X135014513Y-81023238D01*
X134994183Y-81087786D01*
X134951271Y-81182824D01*
X134895413Y-81303427D01*
X134851843Y-81410258D01*
X134820561Y-81509024D01*
X134799475Y-81609803D01*
X134786494Y-81722675D01*
X134779526Y-81857719D01*
X134776479Y-82025013D01*
X134775367Y-82135708D01*
X134773924Y-82266336D01*
X134772491Y-82383465D01*
X134771188Y-82477471D01*
X134770133Y-82538732D01*
X134767532Y-82660542D01*
X134004896Y-82660542D01*
X134004896Y-81534725D01*
X133893678Y-81546247D01*
X133881201Y-81547507D01*
X133799659Y-81554936D01*
X133698640Y-81563244D01*
X133597098Y-81570857D01*
X133411735Y-81583945D01*
X133411735Y-82660542D01*
X132649100Y-82660542D01*
X132649100Y-79059208D01*
X133411735Y-79059208D01*
X133411735Y-80944612D01*
G37*
G36*
X122892748Y-79047277D02*
G01*
X123102295Y-79055890D01*
X123272570Y-79072056D01*
X123404412Y-79095833D01*
X123498654Y-79127276D01*
X123515876Y-79135547D01*
X123667861Y-79233460D01*
X123791204Y-79361123D01*
X123882924Y-79514731D01*
X123940041Y-79690484D01*
X123941810Y-79700992D01*
X123947205Y-79761629D01*
X123951860Y-79857825D01*
X123955776Y-79984387D01*
X123958952Y-80136119D01*
X123961391Y-80307826D01*
X123963092Y-80494314D01*
X123964056Y-80690388D01*
X123964285Y-80890852D01*
X123963778Y-81090513D01*
X123962537Y-81284175D01*
X123960562Y-81466644D01*
X123957855Y-81632724D01*
X123954415Y-81777221D01*
X123950243Y-81894940D01*
X123945341Y-81980687D01*
X123939709Y-82029266D01*
X123929152Y-82073288D01*
X123866316Y-82237795D01*
X123773747Y-82381631D01*
X123656247Y-82499703D01*
X123518616Y-82586920D01*
X123365653Y-82638189D01*
X123352125Y-82640099D01*
X123292580Y-82644240D01*
X123199215Y-82647747D01*
X123078039Y-82650501D01*
X122935061Y-82652386D01*
X122776288Y-82653282D01*
X122607732Y-82653072D01*
X121940426Y-82649950D01*
X121934841Y-81823762D01*
X121933683Y-81639485D01*
X121932910Y-81463047D01*
X121932875Y-81321498D01*
X121933723Y-81210832D01*
X121935596Y-81127045D01*
X121938639Y-81066130D01*
X121942995Y-81024083D01*
X121948806Y-80996897D01*
X121956217Y-80980569D01*
X121965370Y-80971093D01*
X121986674Y-80962999D01*
X122033711Y-80955940D01*
X122108824Y-80950737D01*
X122215580Y-80947224D01*
X122357549Y-80945238D01*
X122538300Y-80944612D01*
X122569828Y-80944613D01*
X122736475Y-80944863D01*
X122865550Y-80946261D01*
X122961169Y-80949812D01*
X123027448Y-80956519D01*
X123068502Y-80967386D01*
X123088446Y-80983415D01*
X123091397Y-81005612D01*
X123081470Y-81034980D01*
X123062779Y-81072522D01*
X123053129Y-81092513D01*
X123023683Y-81164474D01*
X122997738Y-81240995D01*
X122962767Y-81331229D01*
X122894713Y-81427691D01*
X122804758Y-81487943D01*
X122733503Y-81517715D01*
X122739466Y-81766068D01*
X122745430Y-82014420D01*
X122840759Y-82007661D01*
X122963332Y-81983625D01*
X123059261Y-81929327D01*
X123125412Y-81844946D01*
X123130011Y-81835818D01*
X123140174Y-81812453D01*
X123148481Y-81785159D01*
X123155164Y-81749665D01*
X123160453Y-81701699D01*
X123164580Y-81636992D01*
X123167776Y-81551271D01*
X123170271Y-81440266D01*
X123172298Y-81299705D01*
X123174087Y-81125319D01*
X123175870Y-80912836D01*
X123175879Y-80911783D01*
X123177567Y-80673461D01*
X123178351Y-80473691D01*
X123177994Y-80308675D01*
X123176261Y-80174617D01*
X123172917Y-80067719D01*
X123167726Y-79984184D01*
X123160451Y-79920217D01*
X123150858Y-79872020D01*
X123138711Y-79835796D01*
X123123774Y-79807748D01*
X123105812Y-79784079D01*
X123080548Y-79757732D01*
X123052219Y-79740118D01*
X123011560Y-79729534D01*
X122948561Y-79723410D01*
X122853210Y-79719173D01*
X122650100Y-79711832D01*
X122649427Y-80036938D01*
X122649027Y-80107015D01*
X122646381Y-80228317D01*
X122640983Y-80314302D01*
X122632451Y-80369741D01*
X122620403Y-80399401D01*
X122601942Y-80415214D01*
X122559267Y-80431496D01*
X122488599Y-80444880D01*
X122382753Y-80457111D01*
X122331802Y-80461878D01*
X122234804Y-80469995D01*
X122152391Y-80475710D01*
X122098339Y-80478011D01*
X122023225Y-80478557D01*
X121981825Y-79771863D01*
X121940426Y-79065168D01*
X122374704Y-79051789D01*
X122643094Y-79046162D01*
X122892748Y-79047277D01*
G37*
G36*
X129794963Y-79050125D02*
G01*
X129935569Y-79050830D01*
X130107264Y-79052958D01*
X130246816Y-79056335D01*
X130351670Y-79060870D01*
X130419273Y-79066475D01*
X130447072Y-79073060D01*
X130449722Y-79080900D01*
X130454426Y-79128211D01*
X130458182Y-79217135D01*
X130460983Y-79347173D01*
X130462822Y-79517825D01*
X130463694Y-79728590D01*
X130463592Y-79978970D01*
X130462509Y-80268464D01*
X130456522Y-81442444D01*
X130407823Y-81548101D01*
X130363490Y-81631508D01*
X130302044Y-81711526D01*
X130225649Y-81773834D01*
X130128883Y-81820970D01*
X130006321Y-81855467D01*
X129852538Y-81879863D01*
X129662110Y-81896691D01*
X129586203Y-81901408D01*
X129465235Y-81907973D01*
X129352458Y-81913088D01*
X129264904Y-81915927D01*
X129111318Y-81919091D01*
X129111318Y-81389483D01*
X129383553Y-81389483D01*
X129390082Y-81389477D01*
X129498794Y-81387636D01*
X129596620Y-81382978D01*
X129673066Y-81376180D01*
X129717643Y-81367920D01*
X129736575Y-81361236D01*
X129762913Y-81349961D01*
X129784481Y-81334732D01*
X129801792Y-81311709D01*
X129815357Y-81277049D01*
X129825687Y-81226912D01*
X129833293Y-81157456D01*
X129838688Y-81064840D01*
X129842382Y-80945222D01*
X129844887Y-80794760D01*
X129846714Y-80609615D01*
X129848375Y-80385943D01*
X129854572Y-79520101D01*
X129678900Y-79532816D01*
X129654029Y-79534604D01*
X129540605Y-79542574D01*
X129414025Y-79551251D01*
X129297326Y-79559052D01*
X129091425Y-79572573D01*
X129091893Y-79346554D01*
X129092144Y-79301984D01*
X129094653Y-79209503D01*
X129100752Y-79147955D01*
X129111591Y-79109070D01*
X129128320Y-79084575D01*
X129133209Y-79080169D01*
X129149567Y-79070728D01*
X129175523Y-79063396D01*
X129215758Y-79057930D01*
X129274953Y-79054088D01*
X129357790Y-79051628D01*
X129468950Y-79050309D01*
X129613114Y-79049889D01*
X129794963Y-79050125D01*
G37*
G36*
X132479717Y-80542110D02*
G01*
X132514589Y-80543231D01*
X132568640Y-80550371D01*
X132595291Y-80561923D01*
X132594406Y-80579761D01*
X132576019Y-80625084D01*
X132542821Y-80683733D01*
X132501738Y-80752928D01*
X132461960Y-80835753D01*
X132431924Y-80924067D01*
X132410112Y-81025236D01*
X132395007Y-81146624D01*
X132385090Y-81295596D01*
X132378845Y-81479516D01*
X132368756Y-81897907D01*
X131759358Y-81897907D01*
X131759358Y-81014385D01*
X131648140Y-81022587D01*
X131618089Y-81024898D01*
X131518723Y-81033347D01*
X131425705Y-81042186D01*
X131314487Y-81053583D01*
X131314487Y-81897907D01*
X130700142Y-81897907D01*
X130700142Y-80520926D01*
X131314487Y-80520926D01*
X131763257Y-80520926D01*
X131756011Y-80106070D01*
X131748766Y-79691214D01*
X131679583Y-79629423D01*
X131638338Y-79596404D01*
X131597862Y-79577670D01*
X131544061Y-79569454D01*
X131462443Y-79567631D01*
X131314487Y-79567631D01*
X131314487Y-80520926D01*
X130700142Y-80520926D01*
X130700142Y-79056886D01*
X131330376Y-79063343D01*
X131500959Y-79065208D01*
X131646715Y-79067286D01*
X131760026Y-79069821D01*
X131846012Y-79073189D01*
X131909796Y-79077762D01*
X131956499Y-79083917D01*
X131991244Y-79092026D01*
X132019152Y-79102465D01*
X132045346Y-79115608D01*
X132111845Y-79158201D01*
X132223480Y-79264240D01*
X132313163Y-79398157D01*
X132317055Y-79405643D01*
X132331747Y-79436505D01*
X132343052Y-79468682D01*
X132351506Y-79508041D01*
X132357644Y-79560445D01*
X132362001Y-79631758D01*
X132365115Y-79727845D01*
X132367519Y-79854570D01*
X132369750Y-80017798D01*
X132376121Y-80520926D01*
X132376389Y-80542110D01*
X132479717Y-80542110D01*
G37*
G36*
X127767297Y-79058777D02*
G01*
X127848642Y-79066114D01*
X127907219Y-79077428D01*
X127933322Y-79092717D01*
X127933652Y-79093770D01*
X127936983Y-79126788D01*
X127939976Y-79195838D01*
X127942512Y-79295134D01*
X127944470Y-79418888D01*
X127945733Y-79561315D01*
X127946180Y-79716628D01*
X127946180Y-80307030D01*
X128099767Y-80436848D01*
X128139940Y-80471487D01*
X128191891Y-80517230D01*
X128233370Y-80551476D01*
X128265541Y-80571138D01*
X128289568Y-80573132D01*
X128306615Y-80554371D01*
X128317846Y-80511771D01*
X128324425Y-80442245D01*
X128327515Y-80342709D01*
X128328282Y-80210076D01*
X128327888Y-80041262D01*
X128327498Y-79833181D01*
X128327498Y-79059208D01*
X128920659Y-79059208D01*
X128920659Y-81897907D01*
X128330547Y-81897907D01*
X128318221Y-81786689D01*
X128312868Y-81710685D01*
X128310327Y-81611419D01*
X128311401Y-81513191D01*
X128312223Y-81486980D01*
X128312511Y-81411291D01*
X128306350Y-81362166D01*
X128291056Y-81327214D01*
X128263945Y-81294039D01*
X128262399Y-81292390D01*
X128209533Y-81244744D01*
X128156560Y-81208841D01*
X128102136Y-81180516D01*
X127979188Y-81495843D01*
X127954113Y-81559461D01*
X127911315Y-81664925D01*
X127873417Y-81754538D01*
X127843806Y-81820382D01*
X127825864Y-81854539D01*
X127822924Y-81858610D01*
X127807714Y-81874214D01*
X127784803Y-81885045D01*
X127747260Y-81891966D01*
X127688150Y-81895842D01*
X127600540Y-81897534D01*
X127477497Y-81897907D01*
X127159505Y-81897907D01*
X127174062Y-81850242D01*
X127179788Y-81833238D01*
X127199395Y-81778096D01*
X127230075Y-81693364D01*
X127269589Y-81585193D01*
X127315694Y-81459733D01*
X127366149Y-81323136D01*
X127399336Y-81232733D01*
X127445806Y-81103305D01*
X127485536Y-80989218D01*
X127516464Y-80896543D01*
X127536531Y-80831356D01*
X127543678Y-80799727D01*
X127542113Y-80789080D01*
X127516663Y-80744268D01*
X127468064Y-80696600D01*
X127449367Y-80681928D01*
X127417274Y-80654953D01*
X127391630Y-80627263D01*
X127371710Y-80594230D01*
X127356793Y-80551226D01*
X127346154Y-80493623D01*
X127339071Y-80416792D01*
X127334821Y-80316105D01*
X127332680Y-80186934D01*
X127331926Y-80024651D01*
X127331835Y-79824628D01*
X127331990Y-79715965D01*
X127332822Y-79554390D01*
X127334292Y-79408881D01*
X127336306Y-79284699D01*
X127338773Y-79187104D01*
X127341599Y-79121356D01*
X127344694Y-79092717D01*
X127358808Y-79081729D01*
X127408384Y-79069187D01*
X127483728Y-79060621D01*
X127575133Y-79056030D01*
X127672891Y-79055416D01*
X127767297Y-79058777D01*
G37*
G36*
X126696493Y-79059284D02*
G01*
X126850422Y-79060170D01*
X126987455Y-79061947D01*
X127102500Y-79064482D01*
X127190461Y-79067647D01*
X127246243Y-79071311D01*
X127264751Y-79075342D01*
X127263878Y-79077400D01*
X127250968Y-79109458D01*
X127227732Y-79168099D01*
X127198520Y-79242360D01*
X127177703Y-79293362D01*
X127135954Y-79377140D01*
X127092817Y-79430614D01*
X127041034Y-79461343D01*
X126973346Y-79476887D01*
X126886964Y-79488473D01*
X126886964Y-80447048D01*
X126886770Y-80682242D01*
X126886693Y-80878624D01*
X126887483Y-81039736D01*
X126889892Y-81169118D01*
X126894671Y-81270313D01*
X126902572Y-81346861D01*
X126914345Y-81402304D01*
X126930742Y-81440183D01*
X126952514Y-81464040D01*
X126980413Y-81477415D01*
X127015188Y-81483851D01*
X127057592Y-81486889D01*
X127108377Y-81490070D01*
X127177204Y-81498434D01*
X127227780Y-81510197D01*
X127247098Y-81522610D01*
X127237245Y-81575066D01*
X127209856Y-81650117D01*
X127172076Y-81730346D01*
X127131089Y-81800588D01*
X127094078Y-81845675D01*
X127032004Y-81897907D01*
X125997223Y-81897907D01*
X125997223Y-81453036D01*
X126251435Y-81453036D01*
X126251435Y-79461710D01*
X125997223Y-79461710D01*
X125997223Y-79059208D01*
X126634518Y-79059208D01*
X126696493Y-79059284D01*
G37*
G36*
X125482171Y-79038023D02*
G01*
X125764195Y-79038023D01*
X125764195Y-81897907D01*
X125171034Y-81897907D01*
X125170054Y-80960500D01*
X125169074Y-80023094D01*
X125032127Y-80171385D01*
X125007778Y-80198462D01*
X124940215Y-80280333D01*
X124881599Y-80360345D01*
X124842448Y-80424460D01*
X124789717Y-80529245D01*
X124789717Y-81897907D01*
X124175371Y-81897907D01*
X124175371Y-79059208D01*
X124789717Y-79059208D01*
X124789717Y-79550608D01*
X124941109Y-79352572D01*
X124965606Y-79320436D01*
X125042159Y-79219729D01*
X125100748Y-79146162D01*
X125148643Y-79095509D01*
X125193115Y-79063543D01*
X125241433Y-79046038D01*
X125300868Y-79038768D01*
X125378691Y-79037505D01*
X125482171Y-79038023D01*
G37*
G36*
X136038591Y-78042360D02*
G01*
X136758858Y-78042360D01*
X136758858Y-75669717D01*
X137733336Y-75669717D01*
X137733336Y-78061831D01*
X137901164Y-78067984D01*
X138068993Y-78074137D01*
X137941382Y-78370717D01*
X137908940Y-78446485D01*
X137858439Y-78568205D01*
X137818671Y-78673455D01*
X137788355Y-78769587D01*
X137766214Y-78863956D01*
X137750966Y-78963918D01*
X137741334Y-79076827D01*
X137736038Y-79210038D01*
X137733799Y-79370905D01*
X137733336Y-79566783D01*
X137733332Y-79585847D01*
X137732647Y-79771838D01*
X137730711Y-79918813D01*
X137727397Y-80029832D01*
X137722578Y-80107953D01*
X137716127Y-80156236D01*
X137707915Y-80177740D01*
X137688906Y-80184768D01*
X137632334Y-80192462D01*
X137547237Y-80198289D01*
X137441488Y-80202251D01*
X137322960Y-80204347D01*
X137199525Y-80204577D01*
X137079055Y-80202942D01*
X136969423Y-80199440D01*
X136878502Y-80194072D01*
X136814163Y-80186839D01*
X136784279Y-80177740D01*
X136778746Y-80166003D01*
X136772227Y-80128191D01*
X136767132Y-80062840D01*
X136763353Y-79966987D01*
X136760785Y-79837666D01*
X136759322Y-79671914D01*
X136758858Y-79466767D01*
X136758858Y-78781216D01*
X136668824Y-78792455D01*
X136623647Y-78797045D01*
X136540468Y-78803700D01*
X136438205Y-78810674D01*
X136329601Y-78817045D01*
X136305240Y-78818372D01*
X136204511Y-78824860D01*
X136136535Y-78832138D01*
X136093290Y-78841871D01*
X136066755Y-78855726D01*
X136048908Y-78875369D01*
X136042335Y-78887607D01*
X136034489Y-78915014D01*
X136028413Y-78957926D01*
X136023903Y-79020821D01*
X136020752Y-79108174D01*
X136018757Y-79224463D01*
X136017710Y-79374164D01*
X136017406Y-79561753D01*
X136017406Y-80203161D01*
X135085296Y-80203161D01*
X135085296Y-75669717D01*
X136038591Y-75669717D01*
X136038591Y-78042360D01*
G37*
G36*
X121617177Y-76787189D02*
G01*
X121622661Y-77904662D01*
X121765655Y-77910926D01*
X121844311Y-77916915D01*
X121893306Y-77928126D01*
X121908649Y-77945276D01*
X121901657Y-77970043D01*
X121879463Y-78026031D01*
X121845684Y-78103366D01*
X121804042Y-78193224D01*
X121795155Y-78211948D01*
X121743063Y-78325035D01*
X121701400Y-78424997D01*
X121668908Y-78518771D01*
X121644330Y-78613293D01*
X121626409Y-78715499D01*
X121613885Y-78832326D01*
X121605503Y-78970711D01*
X121600003Y-79137590D01*
X121596128Y-79339900D01*
X121586924Y-79927765D01*
X119387715Y-79927765D01*
X119387715Y-79162533D01*
X119477748Y-79173830D01*
X119491931Y-79175340D01*
X119554064Y-79180236D01*
X119647950Y-79186336D01*
X119766020Y-79193192D01*
X119900703Y-79200355D01*
X120044429Y-79207378D01*
X120103859Y-79210203D01*
X120243618Y-79217247D01*
X120370536Y-79224181D01*
X120477239Y-79230572D01*
X120556357Y-79235989D01*
X120600517Y-79239998D01*
X120679959Y-79250367D01*
X120679959Y-78932352D01*
X120679903Y-78847065D01*
X120679170Y-78749655D01*
X120676818Y-78684125D01*
X120671901Y-78644167D01*
X120663472Y-78623476D01*
X120650585Y-78615746D01*
X120632294Y-78614669D01*
X120615070Y-78615254D01*
X120557490Y-78618107D01*
X120468298Y-78623001D01*
X120354008Y-78629564D01*
X120221139Y-78637428D01*
X120076205Y-78646223D01*
X119988962Y-78651505D01*
X119845447Y-78659860D01*
X119715352Y-78667033D01*
X119605894Y-78672644D01*
X119524288Y-78676316D01*
X119477748Y-78677667D01*
X119387715Y-78677890D01*
X119387715Y-77915254D01*
X119998011Y-77915254D01*
X120151600Y-77914977D01*
X120308634Y-77913758D01*
X120430517Y-77911408D01*
X120521252Y-77907754D01*
X120584846Y-77902622D01*
X120625303Y-77895840D01*
X120646628Y-77887234D01*
X120647961Y-77886238D01*
X120659338Y-77874553D01*
X120668053Y-77855710D01*
X120674408Y-77824681D01*
X120678708Y-77776435D01*
X120681255Y-77705942D01*
X120682353Y-77608174D01*
X120682306Y-77478100D01*
X120681416Y-77310690D01*
X120680275Y-77176716D01*
X120678497Y-77041412D01*
X120676308Y-76925675D01*
X120673840Y-76835206D01*
X120671224Y-76775704D01*
X120668590Y-76752871D01*
X120657266Y-76752088D01*
X120609508Y-76753679D01*
X120530432Y-76758055D01*
X120426485Y-76764725D01*
X120304113Y-76773197D01*
X120169762Y-76782980D01*
X120029878Y-76793582D01*
X119890908Y-76804511D01*
X119759298Y-76815278D01*
X119641493Y-76825389D01*
X119543942Y-76834354D01*
X119473088Y-76841682D01*
X119435380Y-76846880D01*
X119387715Y-76856846D01*
X119387715Y-75669717D01*
X121611694Y-75669717D01*
X121617177Y-76787189D01*
G37*
G36*
X126680232Y-76797782D02*
G01*
X126685713Y-77925847D01*
X126830836Y-77788149D01*
X126867725Y-77753654D01*
X126911327Y-77712902D01*
X126947109Y-77676278D01*
X126975811Y-77639553D01*
X126998171Y-77598502D01*
X127014932Y-77548897D01*
X127026832Y-77486513D01*
X127034611Y-77407121D01*
X127039010Y-77306496D01*
X127040768Y-77180410D01*
X127040626Y-77024637D01*
X127039323Y-76834950D01*
X127037599Y-76607123D01*
X127031374Y-75690901D01*
X127446409Y-75690901D01*
X127465669Y-75690910D01*
X127616415Y-75691906D01*
X127728265Y-75694667D01*
X127804320Y-75699376D01*
X127847679Y-75706215D01*
X127861443Y-75715367D01*
X127855772Y-75741227D01*
X127838848Y-75799356D01*
X127813378Y-75880221D01*
X127782097Y-75974875D01*
X127702751Y-76209917D01*
X127708448Y-76845446D01*
X127714146Y-77480976D01*
X127777850Y-77611997D01*
X127846098Y-77724257D01*
X127952124Y-77842435D01*
X128062694Y-77941851D01*
X128073658Y-75690901D01*
X128730000Y-75690901D01*
X128730502Y-76924887D01*
X128731003Y-78158874D01*
X128399799Y-78482409D01*
X128068596Y-78805945D01*
X127892712Y-78646265D01*
X127716828Y-78486586D01*
X127701910Y-78645791D01*
X127695497Y-78705980D01*
X127685031Y-78766083D01*
X127671460Y-78796547D01*
X127652407Y-78805011D01*
X127648834Y-78804842D01*
X127608684Y-78799327D01*
X127537700Y-78787191D01*
X127444762Y-78770010D01*
X127338749Y-78749360D01*
X127059675Y-78693693D01*
X127045454Y-78590296D01*
X127031233Y-78486900D01*
X126851913Y-78649699D01*
X126672594Y-78812498D01*
X126377344Y-78517813D01*
X126371653Y-78512126D01*
X126278402Y-78417084D01*
X126194332Y-78328085D01*
X126124747Y-78250997D01*
X126074952Y-78191688D01*
X126050251Y-78156023D01*
X126043719Y-78137885D01*
X126037806Y-78109262D01*
X126032863Y-78067773D01*
X126028807Y-78010139D01*
X126025557Y-77933083D01*
X126023032Y-77833328D01*
X126021149Y-77707594D01*
X126019827Y-77552604D01*
X126018984Y-77365080D01*
X126018538Y-77141743D01*
X126018407Y-76879317D01*
X126018407Y-75669717D01*
X126674750Y-75669717D01*
X126680232Y-76797782D01*
G37*
G36*
X132034754Y-78741443D02*
G01*
X132034754Y-78144045D01*
X131962728Y-78072018D01*
X131938685Y-78049061D01*
X131896041Y-78013858D01*
X131869999Y-77999992D01*
X131864302Y-78004563D01*
X131847194Y-78040227D01*
X131825783Y-78103573D01*
X131803393Y-78185355D01*
X131801624Y-78192485D01*
X131754427Y-78374010D01*
X131711608Y-78521449D01*
X131673819Y-78632876D01*
X131641709Y-78706364D01*
X131615930Y-78739989D01*
X131606721Y-78743240D01*
X131558224Y-78750454D01*
X131479465Y-78756341D01*
X131379003Y-78760363D01*
X131265395Y-78761983D01*
X131246438Y-78762017D01*
X131130446Y-78761783D01*
X131049985Y-78760177D01*
X130999043Y-78756476D01*
X130971607Y-78749956D01*
X130961665Y-78739890D01*
X130963205Y-78725555D01*
X130965991Y-78716616D01*
X130987002Y-78644826D01*
X131014111Y-78546850D01*
X131045612Y-78429401D01*
X131079798Y-78299188D01*
X131114962Y-78162922D01*
X131149399Y-78027316D01*
X131181401Y-77899079D01*
X131209262Y-77784922D01*
X131231276Y-77691558D01*
X131245735Y-77625695D01*
X131250934Y-77594047D01*
X131250887Y-77591093D01*
X131238730Y-77546010D01*
X131201762Y-77491110D01*
X131135114Y-77419037D01*
X131127541Y-77411378D01*
X131070556Y-77347981D01*
X131026920Y-77289767D01*
X131005556Y-77248481D01*
X131003541Y-77234037D01*
X131000628Y-77177956D01*
X130998914Y-77089908D01*
X130998715Y-77041362D01*
X131632252Y-77041362D01*
X131820193Y-77202099D01*
X131892509Y-77262090D01*
X131955938Y-77311051D01*
X132001172Y-77341849D01*
X132021444Y-77349526D01*
X132024279Y-77334639D01*
X132027661Y-77282179D01*
X132030545Y-77197757D01*
X132032786Y-77087266D01*
X132034238Y-76956600D01*
X132034754Y-76811652D01*
X132034517Y-76647560D01*
X132033107Y-76509685D01*
X132029512Y-76405204D01*
X132022717Y-76329492D01*
X132011710Y-76277920D01*
X131995477Y-76245862D01*
X131973005Y-76228693D01*
X131943281Y-76221784D01*
X131905291Y-76220509D01*
X131902504Y-76220538D01*
X131834168Y-76233367D01*
X131759223Y-76263998D01*
X131693828Y-76304337D01*
X131654145Y-76346291D01*
X131650787Y-76356158D01*
X131643384Y-76406763D01*
X131637513Y-76488591D01*
X131633646Y-76593732D01*
X131632252Y-76714280D01*
X131632252Y-77041362D01*
X130998715Y-77041362D01*
X130998451Y-76976680D01*
X130999288Y-76845059D01*
X131001477Y-76701832D01*
X131002378Y-76656926D01*
X131005902Y-76505648D01*
X131009859Y-76388672D01*
X131014829Y-76299571D01*
X131021394Y-76231919D01*
X131030134Y-76179291D01*
X131041629Y-76135261D01*
X131056460Y-76093403D01*
X131059416Y-76085901D01*
X131131769Y-75947483D01*
X131227512Y-75841220D01*
X131351992Y-75761096D01*
X131473370Y-75701493D01*
X132082419Y-75694743D01*
X132691468Y-75687992D01*
X132691468Y-78741443D01*
X132034754Y-78741443D01*
G37*
G36*
X130514779Y-78746819D02*
G01*
X130427464Y-78749311D01*
X130176974Y-78754638D01*
X129963639Y-78755601D01*
X129783612Y-78751609D01*
X129633045Y-78742076D01*
X129508091Y-78726412D01*
X129404902Y-78704030D01*
X129319631Y-78674342D01*
X129248430Y-78636759D01*
X129187451Y-78590693D01*
X129132847Y-78535556D01*
X129107186Y-78506166D01*
X129076566Y-78468629D01*
X129051025Y-78431032D01*
X129030101Y-78389528D01*
X129013335Y-78340272D01*
X129000267Y-78279417D01*
X128990434Y-78203117D01*
X128983378Y-78107525D01*
X128978637Y-77988796D01*
X128975751Y-77843083D01*
X128974260Y-77666540D01*
X128973703Y-77455321D01*
X128973629Y-77232741D01*
X129619860Y-77232741D01*
X129619872Y-77306307D01*
X129620344Y-77510941D01*
X129621817Y-77678514D01*
X129624737Y-77813053D01*
X129629545Y-77918582D01*
X129636685Y-77999128D01*
X129646601Y-78058715D01*
X129659737Y-78101369D01*
X129676535Y-78131115D01*
X129697439Y-78151978D01*
X129722893Y-78167984D01*
X129750525Y-78178311D01*
X129814000Y-78192983D01*
X129889470Y-78203993D01*
X129916870Y-78206649D01*
X129980232Y-78208952D01*
X130018458Y-78200518D01*
X130044033Y-78179357D01*
X130046629Y-78175708D01*
X130053968Y-78157339D01*
X130060106Y-78125767D01*
X130065185Y-78077346D01*
X130069350Y-78008430D01*
X130072744Y-77915374D01*
X130075510Y-77794531D01*
X130077792Y-77642257D01*
X130079735Y-77454906D01*
X130081481Y-77228831D01*
X130082563Y-77080201D01*
X130084042Y-76872790D01*
X130084617Y-76702034D01*
X130083627Y-76564408D01*
X130080412Y-76456385D01*
X130074313Y-76374440D01*
X130064670Y-76315047D01*
X130050822Y-76274681D01*
X130032110Y-76249815D01*
X130007873Y-76236924D01*
X129977451Y-76232481D01*
X129940186Y-76232962D01*
X129895415Y-76234839D01*
X129811263Y-76241894D01*
X129728703Y-76266842D01*
X129674496Y-76313083D01*
X129642095Y-76384487D01*
X129640054Y-76394196D01*
X129634287Y-76450872D01*
X129629361Y-76545359D01*
X129625365Y-76674224D01*
X129622389Y-76834032D01*
X129620524Y-77021349D01*
X129619860Y-77232741D01*
X128973629Y-77232741D01*
X128973620Y-77205580D01*
X128973620Y-76188732D01*
X129029787Y-76068927D01*
X129038128Y-76051766D01*
X129128185Y-75915750D01*
X129245548Y-75806294D01*
X129383023Y-75730293D01*
X129408137Y-75720795D01*
X129445021Y-75709005D01*
X129485941Y-75699752D01*
X129536373Y-75692621D01*
X129601793Y-75687197D01*
X129687677Y-75683067D01*
X129799501Y-75679816D01*
X129942739Y-75677029D01*
X130122869Y-75674291D01*
X130742511Y-75665478D01*
X130742511Y-78740010D01*
X130514779Y-78746819D01*
G37*
G36*
X122995194Y-78741443D02*
G01*
X122982358Y-78588333D01*
X122977793Y-78505058D01*
X122977034Y-78402783D01*
X122981293Y-78318233D01*
X122984610Y-78270699D01*
X122976449Y-78171194D01*
X122942243Y-78097730D01*
X122879341Y-78043154D01*
X122866908Y-78035782D01*
X122824494Y-78013931D01*
X122803750Y-78008756D01*
X122800225Y-78017895D01*
X122787171Y-78061602D01*
X122766744Y-78134859D01*
X122740911Y-78230566D01*
X122711634Y-78341624D01*
X122694579Y-78405668D01*
X122663620Y-78515514D01*
X122635068Y-78609235D01*
X122611514Y-78678496D01*
X122595550Y-78714963D01*
X122587759Y-78726166D01*
X122572445Y-78741061D01*
X122548830Y-78751227D01*
X122510100Y-78757566D01*
X122449443Y-78760979D01*
X122360044Y-78762365D01*
X122235090Y-78762627D01*
X122195892Y-78762607D01*
X122082000Y-78762024D01*
X122002906Y-78760120D01*
X121952708Y-78756208D01*
X121925502Y-78749601D01*
X121915384Y-78739612D01*
X121916450Y-78725555D01*
X121923043Y-78702140D01*
X121942673Y-78630230D01*
X121969168Y-78531442D01*
X122000553Y-78413311D01*
X122034851Y-78283373D01*
X122070087Y-78149161D01*
X122104285Y-78018213D01*
X122135470Y-77898062D01*
X122161666Y-77796244D01*
X122180896Y-77720294D01*
X122191186Y-77677747D01*
X122200068Y-77621981D01*
X122192582Y-77544722D01*
X122152721Y-77480341D01*
X122075862Y-77418441D01*
X122049489Y-77399841D01*
X122017772Y-77370902D01*
X121993443Y-77335343D01*
X121975645Y-77288059D01*
X121963518Y-77223949D01*
X121956205Y-77137907D01*
X121952847Y-77024830D01*
X121952586Y-76879614D01*
X121953149Y-76827693D01*
X122564456Y-76827693D01*
X122566878Y-76915027D01*
X122574535Y-76974434D01*
X122584554Y-76999117D01*
X122618861Y-77054393D01*
X122665763Y-77113073D01*
X122713680Y-77160516D01*
X122789885Y-77225638D01*
X122867833Y-77283724D01*
X122991762Y-77367883D01*
X122985110Y-76839773D01*
X122984943Y-76826748D01*
X122982091Y-76653078D01*
X122978408Y-76517561D01*
X122973652Y-76416248D01*
X122967580Y-76345189D01*
X122959948Y-76300436D01*
X122950513Y-76278040D01*
X122949860Y-76277261D01*
X122891568Y-76238052D01*
X122815965Y-76226198D01*
X122735953Y-76239572D01*
X122664432Y-76276046D01*
X122614303Y-76333491D01*
X122607296Y-76351780D01*
X122593644Y-76416034D01*
X122581862Y-76506600D01*
X122572621Y-76612631D01*
X122566594Y-76723278D01*
X122564456Y-76827693D01*
X121953149Y-76827693D01*
X121954563Y-76697156D01*
X121955166Y-76653980D01*
X121957511Y-76503272D01*
X121960150Y-76387219D01*
X121963696Y-76299634D01*
X121968762Y-76234332D01*
X121975960Y-76185126D01*
X121985904Y-76145829D01*
X121999207Y-76110255D01*
X122016481Y-76072219D01*
X122041136Y-76022554D01*
X122109093Y-75914904D01*
X122188836Y-75833480D01*
X122290843Y-75766614D01*
X122335863Y-75743941D01*
X122391043Y-75723139D01*
X122455938Y-75708044D01*
X122541423Y-75696252D01*
X122658375Y-75685359D01*
X122781561Y-75678279D01*
X122938394Y-75674621D01*
X123106538Y-75675070D01*
X123270092Y-75679775D01*
X123624579Y-75695411D01*
X123624579Y-78741443D01*
X122995194Y-78741443D01*
G37*
G36*
X134788716Y-77279725D02*
G01*
X134884045Y-77279725D01*
X134912541Y-77280743D01*
X134960443Y-77288678D01*
X134979375Y-77301905D01*
X134979103Y-77304587D01*
X134970825Y-77339528D01*
X134952725Y-77404951D01*
X134927141Y-77492620D01*
X134896409Y-77594296D01*
X134840665Y-77790088D01*
X134801615Y-77966019D01*
X134778812Y-78130907D01*
X134770427Y-78298080D01*
X134774628Y-78480865D01*
X134787835Y-78741443D01*
X134132002Y-78741443D01*
X134132002Y-77809333D01*
X134031376Y-77809483D01*
X133973779Y-77810882D01*
X133880642Y-77815847D01*
X133787757Y-77823139D01*
X133644763Y-77836644D01*
X133644763Y-78741443D01*
X132966864Y-78741443D01*
X132966864Y-77279725D01*
X133644763Y-77279725D01*
X134105058Y-77279725D01*
X134119945Y-77037973D01*
X134123140Y-76972372D01*
X134125965Y-76838464D01*
X134124868Y-76704733D01*
X134119855Y-76592184D01*
X134119540Y-76587933D01*
X134106931Y-76469524D01*
X134086601Y-76384295D01*
X134053863Y-76323427D01*
X134004031Y-76278100D01*
X133932416Y-76239497D01*
X133846447Y-76208785D01*
X133762101Y-76203569D01*
X133691845Y-76232302D01*
X133686215Y-76236320D01*
X133672705Y-76248327D01*
X133662505Y-76265393D01*
X133655148Y-76292847D01*
X133650170Y-76336021D01*
X133647108Y-76400243D01*
X133645495Y-76490844D01*
X133644868Y-76613154D01*
X133644763Y-76772502D01*
X133644763Y-77279725D01*
X132966864Y-77279725D01*
X132966864Y-77218438D01*
X132966865Y-77183378D01*
X132966952Y-76895426D01*
X132967226Y-76646672D01*
X132967749Y-76434268D01*
X132968584Y-76255362D01*
X132969792Y-76107107D01*
X132971436Y-75986653D01*
X132973579Y-75891151D01*
X132976281Y-75817752D01*
X132979606Y-75763606D01*
X132983616Y-75725865D01*
X132988372Y-75701679D01*
X132993937Y-75688199D01*
X133000373Y-75682575D01*
X133019101Y-75679069D01*
X133078204Y-75674835D01*
X133168061Y-75671876D01*
X133281678Y-75670132D01*
X133412060Y-75669544D01*
X133552214Y-75670050D01*
X133695147Y-75671594D01*
X133833864Y-75674116D01*
X133961372Y-75677556D01*
X134070677Y-75681856D01*
X134154784Y-75686956D01*
X134206701Y-75692796D01*
X134231287Y-75697668D01*
X134398276Y-75751513D01*
X134535852Y-75835804D01*
X134643455Y-75949968D01*
X134720524Y-76093430D01*
X134766497Y-76265615D01*
X134767266Y-76270621D01*
X134773962Y-76337957D01*
X134779787Y-76437625D01*
X134784393Y-76560578D01*
X134787431Y-76697768D01*
X134788543Y-76838464D01*
X134788556Y-76840150D01*
X134788716Y-77279725D01*
G37*
G36*
X125859312Y-77282781D02*
G01*
X125928219Y-77292405D01*
X125991618Y-77305084D01*
X125919506Y-77424807D01*
X125890171Y-77474892D01*
X125847154Y-77557494D01*
X125814134Y-77638812D01*
X125789652Y-77726120D01*
X125772253Y-77826688D01*
X125760478Y-77947790D01*
X125752869Y-78096698D01*
X125747969Y-78280684D01*
X125738862Y-78741443D01*
X125065113Y-78741443D01*
X125065113Y-77809333D01*
X124983572Y-77809333D01*
X124981963Y-77809335D01*
X124918435Y-77811295D01*
X124831668Y-77816204D01*
X124739952Y-77823034D01*
X124577873Y-77836734D01*
X124577873Y-78741443D01*
X123921160Y-78741443D01*
X123921160Y-77279725D01*
X124599058Y-77279725D01*
X125065113Y-77279725D01*
X125065113Y-76836233D01*
X125065054Y-76802175D01*
X125063673Y-76668300D01*
X125060677Y-76547888D01*
X125056361Y-76448165D01*
X125051019Y-76376357D01*
X125044943Y-76339690D01*
X125033005Y-76313996D01*
X125003159Y-76279918D01*
X124954913Y-76256514D01*
X124880282Y-76240547D01*
X124771279Y-76228780D01*
X124599058Y-76214417D01*
X124599058Y-77279725D01*
X123921160Y-77279725D01*
X123921160Y-77229358D01*
X123921183Y-77069417D01*
X123921380Y-76797188D01*
X123921824Y-76563004D01*
X123922575Y-76364036D01*
X123923689Y-76197454D01*
X123925224Y-76060429D01*
X123927239Y-75950131D01*
X123929791Y-75863730D01*
X123932938Y-75798397D01*
X123936739Y-75751302D01*
X123941251Y-75719615D01*
X123946531Y-75700507D01*
X123952639Y-75691147D01*
X123963389Y-75685814D01*
X123996824Y-75679255D01*
X124053905Y-75674722D01*
X124138371Y-75672120D01*
X124253960Y-75671355D01*
X124404412Y-75672332D01*
X124593465Y-75674957D01*
X124677994Y-75676398D01*
X124846104Y-75679851D01*
X124979287Y-75683737D01*
X125082744Y-75688398D01*
X125161674Y-75694175D01*
X125221279Y-75701410D01*
X125266759Y-75710445D01*
X125303314Y-75721622D01*
X125370622Y-75752304D01*
X125489262Y-75836223D01*
X125592673Y-75947509D01*
X125670789Y-76076445D01*
X125732419Y-76209917D01*
X125746223Y-77279725D01*
X125805522Y-77279725D01*
X125859312Y-77282781D01*
G37*
%TD*%
%LPC*%
D11*
%TO.C,J29*%
X126952500Y-65805000D03*
D12*
X129492500Y-65805000D03*
%TD*%
D11*
%TO.C,J28*%
X126952500Y-83585000D03*
D12*
X129492500Y-83585000D03*
%TD*%
D11*
%TO.C,J5*%
X134680000Y-75970000D03*
D12*
X137220000Y-75970000D03*
%TD*%
D13*
%TO.C,U5*%
X139920000Y-65810000D03*
X142460000Y-65810000D03*
X155160000Y-65810000D03*
X157700000Y-65810000D03*
X139920000Y-83590000D03*
X142460000Y-83590000D03*
X155160000Y-83590000D03*
X157700000Y-83590000D03*
%TD*%
%TO.C,U4*%
X137180000Y-104110000D03*
X134640000Y-104110000D03*
X121940000Y-104110000D03*
X119400000Y-104110000D03*
X137180000Y-86330000D03*
X134640000Y-86330000D03*
X121940000Y-86330000D03*
X119400000Y-86330000D03*
%TD*%
%TO.C,U3*%
X157700000Y-104110000D03*
X155160000Y-104110000D03*
X142460000Y-104110000D03*
X139920000Y-104110000D03*
X157700000Y-86330000D03*
X155160000Y-86330000D03*
X142460000Y-86330000D03*
X139920000Y-86330000D03*
%TD*%
%TO.C,U2*%
X119400000Y-65810000D03*
X121940000Y-65810000D03*
X134640000Y-65810000D03*
X137180000Y-65810000D03*
X119400000Y-83590000D03*
X121940000Y-83590000D03*
X134640000Y-83590000D03*
X137180000Y-83590000D03*
%TD*%
D14*
%TO.C,U1*%
X124520000Y-70890000D03*
D15*
X124520000Y-73430000D03*
X124520000Y-75970000D03*
X124520000Y-78510000D03*
X132140000Y-78510000D03*
X132140000Y-75970000D03*
X132140000Y-73430000D03*
X132140000Y-70890000D03*
%TD*%
D16*
%TO.C,SW1*%
X151972500Y-101860000D03*
X145472500Y-101860000D03*
X145472500Y-97360000D03*
X151972500Y-97360000D03*
%TD*%
D17*
%TO.C,R8*%
X153060000Y-94400000D03*
D18*
X150520000Y-94400000D03*
%TD*%
D17*
%TO.C,R7*%
X144020000Y-94390000D03*
D18*
X146560000Y-94390000D03*
%TD*%
%TO.C,R6*%
X133322500Y-91330000D03*
D17*
X133322500Y-88790000D03*
%TD*%
D18*
%TO.C,R5*%
X123265278Y-96532500D03*
D17*
X123265278Y-93992500D03*
%TD*%
%TO.C,R4*%
X123265278Y-99195000D03*
D18*
X123265278Y-101735000D03*
%TD*%
%TO.C,R3*%
X123265278Y-91330000D03*
D17*
X123265278Y-88790000D03*
%TD*%
D18*
%TO.C,R2*%
X133322500Y-96532500D03*
D17*
X133322500Y-93992500D03*
%TD*%
%TO.C,R1*%
X133322500Y-99195000D03*
D18*
X133322500Y-101735000D03*
%TD*%
D11*
%TO.C,J27*%
X156775000Y-90115000D03*
%TD*%
%TO.C,J26*%
X140370000Y-90115000D03*
%TD*%
%TO.C,J25*%
X156410000Y-99635000D03*
%TD*%
%TO.C,J24*%
X141140000Y-99630000D03*
%TD*%
%TO.C,J23*%
X136510000Y-90605000D03*
%TD*%
%TO.C,J22*%
X126450000Y-95807500D03*
%TD*%
%TO.C,J21*%
X126450000Y-101010000D03*
%TD*%
%TO.C,J20*%
X130185000Y-90605000D03*
%TD*%
%TO.C,J19*%
X120130278Y-95807500D03*
%TD*%
%TO.C,J18*%
X120130278Y-101010000D03*
%TD*%
%TO.C,J17*%
X126450000Y-90605000D03*
%TD*%
%TO.C,J16*%
X136510000Y-95807500D03*
%TD*%
%TO.C,J15*%
X136510000Y-101010000D03*
%TD*%
%TO.C,J14*%
X120130278Y-90605000D03*
%TD*%
%TO.C,J13*%
X130185000Y-95807500D03*
%TD*%
%TO.C,J12*%
X130185000Y-101010000D03*
%TD*%
%TO.C,J11*%
X155655000Y-80945000D03*
%TD*%
%TO.C,J10*%
X155670000Y-75627500D03*
%TD*%
%TO.C,J9*%
X155670000Y-70310000D03*
%TD*%
%TO.C,J8*%
X141990000Y-80945000D03*
%TD*%
%TO.C,J7*%
X142005000Y-75627500D03*
%TD*%
%TO.C,J6*%
X142005000Y-70310000D03*
%TD*%
%TO.C,J4*%
X134680000Y-73430000D03*
D12*
X137220000Y-73430000D03*
%TD*%
D11*
%TO.C,J3*%
X119440000Y-75970000D03*
D12*
X121980000Y-75970000D03*
%TD*%
D11*
%TO.C,J2*%
X134680000Y-78510000D03*
D12*
X137220000Y-78510000D03*
%TD*%
D11*
%TO.C,J1*%
X119440000Y-73430000D03*
D12*
X121980000Y-73430000D03*
%TD*%
D19*
%TO.C,D2*%
X153005000Y-90090000D03*
D20*
X150465000Y-90090000D03*
%TD*%
D19*
%TO.C,D1*%
X144080000Y-90090000D03*
D20*
X146620000Y-90090000D03*
%TD*%
D21*
%TO.C,C3*%
X147410000Y-81410000D03*
X149910000Y-81410000D03*
%TD*%
D14*
%TO.C,C2*%
X147454888Y-76500000D03*
D21*
X149954888Y-76500000D03*
%TD*%
D14*
%TO.C,C1*%
X147007349Y-69070000D03*
D21*
X150507349Y-69070000D03*
%TD*%
M02*
